<?xml version="1.0" standalone="no"?>
<!DOCTYPE svg PUBLIC "-//W3C//DTD SVG 1.1//EN" "http://www.w3.org/Graphics/SVG/1.1/DTD/svg11.dtd" >
<svg>
<metadata>
Created by FontForge 20090622 at Fri Oct 14 17:48:10 2016
 By deploy user
Copyright (c) 2016 by Ralf Sander and Petra Niedernolte. Published by Buntype. All rights reserved. This is not free font software nor open source! This font software may not be reproduced, modified, disclosed or transferred without the express written approval of Buntype, Germany. Bunuelo Clean Pro Regular is a trademark of Ralf Sander and Petra Niedernolte and may be registered in certain jurisdictions in the name of Buntype. This typeface is original artwork of Ralf Sander and Petra Niedernolte. The design may be protected in certain jurisdictions.
</metadata>
<defs>
<font id="BunueloCleanPro-Regular" horiz-adv-x="555" >
  <font-face 
    font-family="BunueloCleanPro-Regular"
    font-weight="400"
    font-stretch="semi-condensed"
    units-per-em="1000"
    panose-1="2 0 4 3 4 0 0 2 0 4"
    ascent="758"
    descent="-242"
    x-height="500"
    cap-height="697"
    bbox="-255 -277 1210 956"
    underline-thickness="64"
    underline-position="-53"
    unicode-range="U+0020-U+FB04"
  />
<missing-glyph horiz-adv-x="514" 
d="M7 0v700h500v-700h-500zM257 395l170 255h-340zM457 95v510l-170 -255zM57 95l170 255l-170 255v-510zM87 50h340l-170 255z" />
    <glyph glyph-name="f_f" unicode="ff" horiz-adv-x="584" 
d="M93 14v425h-61q-14 0 -14 14v33q0 14 14 14h61v66q0 85 46 121t115 36q12 0 22.5 -0.5t16.5 -1.5l6 -1q16 -3 17 -14l3 -40q1 -8 -1.5 -10.5t-10.5 -1.5q-8 4 -50 4q-84 0 -84 -88v-70h204v71q0 157 167 157q6 0 12 -0.5t10.5 -1t8 -0.5h5.5l3 -1q16 -3 17 -14l3 -40
q1 -8 -1.5 -10t-10.5 -1l-7 1q-7 1 -18 1.5t-22 0.5q-87 0 -87 -88v-75h102q14 0 13 -13l-4 -35q-1 -13 -16 -13h-95v-425q0 -14 -14 -14h-52q-14 0 -14 14v425h-204v-425q0 -14 -14 -14h-52q-14 0 -14 14z" />
    <glyph glyph-name="f_f_i" unicode="ffi" horiz-adv-x="818" 
d="M93 14v425h-61q-14 0 -14 14v33q0 14 14 14h61v67q0 157 161 157q30 0 54 -6q16 -4 17 -15l3 -37q1 -8 -1.5 -10.5t-10.5 -1.5q-27 5 -62 5q-38 0 -59.5 -21t-21.5 -63v-75h204v69q0 159 168 159q20 0 39 -1.5t32 -3t23 -3.5t15 -4l6 -1q16 -4 17 -16l4 -37
q0 -8 -2.5 -11t-10.5 -2q-70 14 -123 14q-88 0 -88 -89v-74h270q13 0 13 -14v-472q0 -14 -13 -14h-53q-13 0 -13 14v425h-204v-425q0 -14 -14 -14h-52q-14 0 -14 14v425h-204v-425q0 -14 -14 -14h-52q-14 0 -14 14z" />
    <glyph glyph-name="f_f_l" unicode="ffl" horiz-adv-x="854" 
d="M740 695v-556q0 -47 12.5 -61.5t47.5 -14.5q4 0 16 1t13 1q8 0 10 -2.5t1 -10.5l-3 -40q-1 -12 -14 -15q-18 -3 -41 -3q-57 0 -89 28t-32 110v523q-61 8 -117 8q-87 0 -87 -87v-76h102q14 0 13 -13l-4 -35q-1 -13 -16 -13h-95v-425q0 -14 -14 -14h-53q-13 0 -13 14v425
h-204v-425q0 -14 -14 -14h-52q-14 0 -14 14v425h-61q-14 0 -14 14v33q0 14 14 14h61v67q0 85 45.5 121t115.5 36q12 0 21.5 -1t14.5 -1l5 -1q10 -2 12.5 -4.5t3.5 -9.5l4 -40q1 -8 -2 -10.5t-11 -1.5q-4 4 -48 4q-38 0 -59.5 -21t-21.5 -64v-74h204v71q0 157 167 157
q111 0 179 -17q11 -3 14 -6t3 -10z" />
    <glyph glyph-name="f_j" unicode="fj" horiz-adv-x="534" 
d="M249 -209l-3 39q-1 7 2 11t11 3q22 -2 34 -2q17 0 28.5 1.5t26 8t22 21.5t7.5 38v528h-204v-425q0 -14 -14 -14h-52q-14 0 -14 14v425h-61q-14 0 -14 14v33q0 14 14 14h61v71q0 157 168 157q20 0 39.5 -1.5t33 -3.5t23.5 -4t16 -3l6 -2q16 -4 17 -16l3 -38q1 -7 -2 -10.5
t-10 -2.5q-64 16 -126 16q-88 0 -88 -85v-78h270q14 0 14 -14v-562q0 -88 -40 -119.5t-111 -31.5q-27 0 -45 4q-11 3 -12 14z" />
    <glyph glyph-name="f_f_j" unicode="ffj" horiz-adv-x="818" 
d="M93 14v425h-61q-14 0 -14 14v33q0 14 14 14h61v67q0 157 161 157q31 0 54 -5q16 -4 17 -15l3 -39q1 -8 -1.5 -10.5t-10.5 -1.5l-9 1q-9 2 -23 3.5t-26 1.5q-85 0 -85 -85v-74h204v71q0 157 168 157q32 0 61 -3.5t40.5 -6.5t14.5 -4q15 -3 16 -15l4 -38q2 -17 -13 -13
q-58 15 -123 15q-88 0 -88 -87v-76h270q13 0 13 -14v-563q0 -88 -39 -119t-111 -31q-26 0 -46 4q-10 3 -11 14l-4 38q-1 9 2 12.5t11 2.5q24 -2 35 -2q16 0 27.5 1.5t26 7.5t22.5 21t8 38v529h-204v-425q0 -14 -14 -14h-52q-14 0 -14 14v425h-204v-425q0 -14 -14 -14h-52
q-14 0 -14 14z" />
    <glyph glyph-name="f_b" unicode="fb" horiz-adv-x="814" 
d="M93 14v425h-61q-14 0 -14 14v33q0 14 14 14h61v71q0 157 167 157q111 0 179 -17q11 -2 14.5 -5.5t3.5 -10.5v-154l-2 -67q36 38 122 38h3q78 0 122 -36t44 -125v-204q0 -89 -48.5 -124t-134.5 -35h-10q-85 0 -130.5 31.5t-45.5 114.5v520q-49 9 -117 9q-87 0 -87 -89v-74
h102q14 0 13 -13l-4 -35q-1 -13 -16 -13h-95v-425q0 -14 -14 -14h-52q-14 0 -14 14zM553 57h11q51 0 76.5 22.5t25.5 74.5v196q0 52 -23.5 74.5t-72.5 22.5h-8q-53 0 -79 -22.5t-26 -74.5v-199q0 -52 23 -73t73 -21z" />
    <glyph glyph-name="f_h" unicode="fh" horiz-adv-x="802" 
d="M93 14v425h-61q-14 0 -14 14v33q0 14 14 14h61v71q0 157 167 157q39 0 83.5 -4.5t67.5 -8t28 -4.5q10 -2 13.5 -5t3.5 -10v-158l-2 -64q34 38 114 38h1q73 0 117 -34t44 -123v-341q0 -14 -14 -14h-52q-14 0 -14 14v339q0 51 -21 72.5t-70 21.5h-6q-49 0 -73 -21.5
t-24 -72.5v-339q0 -14 -13 -14h-53q-13 0 -13 14v640q-51 9 -117 9q-87 0 -87 -89v-74h102q14 0 13 -13l-4 -35q-1 -13 -16 -13h-95v-425q0 -14 -14 -14h-52q-14 0 -14 14z" />
    <glyph glyph-name="f_k" unicode="fk" horiz-adv-x="782" 
d="M93 14v425h-61q-14 0 -14 14v33q0 14 14 14h61v71q0 88 43 122.5t128 34.5q88 0 180 -23q12 -4 12 -16v-369q12 0 24 -2l166 176q10 10 22 9l66 -6q17 -2 5 -15l-185 -187q25 -15 52 -54l154 -223q9 -12 -8 -14l-58 -8q-13 -3 -23 12l-136 205q-18 26 -33 33t-46 9v-241
q0 -14 -13 -14h-53q-13 0 -13 14v639q-59 10 -117 10q-87 0 -87 -88v-75h102q14 0 13 -13l-4 -35q-1 -13 -16 -13h-95v-425q0 -14 -14 -14h-52q-14 0 -14 14z" />
    <glyph glyph-name="f_t" unicode="ft" horiz-adv-x="623" 
d="M93 14v425h-61q-14 0 -14 14v33q0 14 14 14h61v71q0 157 168 157q6 0 12 -0.5t10.5 -1t8 -0.5h5.5l2 -1q16 -3 17 -14l3 -40q1 -8 -1.5 -10t-10.5 -1l-7 1q-7 1 -17.5 1.5t-21.5 0.5q-88 0 -88 -85v-78h204v125q0 12 11 13l57 7q12 1 12 -11v-134h115q9 0 11.5 -2
t2.5 -10l5 -36q1 -8 -2 -10.5t-11 -2.5h-121v-305q0 -45 15 -58t62 -13q14 0 31 2t20 2q12 0 11 -13l-5 -38q-2 -15 -13 -17q-25 -5 -55 -5q-75 0 -110.5 28.5t-35.5 111.5v305h-204v-425q0 -14 -14 -14h-52q-14 0 -14 14z" />
    <glyph glyph-name="f_i" unicode="fi" horiz-adv-x="535" 
d="M93 14v425h-61q-14 0 -14 14v33q0 14 14 14h61v75q0 153 168 153q20 0 39.5 -1.5t33 -3.5t23.5 -4t16 -3l6 -2q16 -4 17 -16l3 -38q1 -7 -2 -10.5t-10 -2.5q-64 16 -126 16q-88 0 -88 -84v-79h270q14 0 14 -14v-472q0 -14 -14 -14h-53q-13 0 -13 14v425h-204v-425
q0 -14 -14 -14h-52q-14 0 -14 14z" />
    <glyph glyph-name="f_l" unicode="fl" horiz-adv-x="570" 
d="M376 654q-54 9 -116 9q-40 0 -63.5 -21t-23.5 -62v-80h102q14 0 13 -13l-4 -35q-1 -13 -16 -13h-95v-425q0 -14 -14 -14h-52q-14 0 -14 14v425h-61q-14 0 -14 14v33q0 14 14 14h61v71q0 157 167 157q108 0 181 -19q15 -3 15 -15v-555q0 -47 12 -61.5t47 -14.5q5 0 16.5 1
t13.5 1q7 0 9.5 -2.5t1.5 -10.5l-4 -40q-1 -12 -14 -15q-18 -3 -41 -3q-57 0 -89 28.5t-32 109.5v522z" />
    <glyph glyph-name=".notdef" horiz-adv-x="514" 
d="M7 0v700h500v-700h-500zM257 395l170 255h-340zM457 95v510l-170 -255zM57 95l170 255l-170 255v-510zM87 50h340l-170 255z" />
    <glyph glyph-name=".null" horiz-adv-x="0" 
 />
    <glyph glyph-name="nonmarkingreturn" horiz-adv-x="333" 
 />
    <glyph glyph-name="space" unicode=" " horiz-adv-x="230" 
 />
    <glyph glyph-name="exclam" unicode="!" horiz-adv-x="238" 
d="M79 181v502q0 8 3 11t11 3h52q8 0 11 -3t3 -11v-502q0 -8 -3 -11t-11 -3h-52q-8 0 -11 3t-3 11zM79 14v57q0 8 3 10.5t11 2.5h52q8 0 11 -2.5t3 -10.5v-57q0 -8 -3 -11t-11 -3h-52q-8 0 -11 3t-3 11z" />
    <glyph glyph-name="quotedbl" unicode="&#x22;" horiz-adv-x="374" 
d="M231 465v244q0 14 14 14h40q14 0 14 -14v-244q0 -14 -14 -14h-40q-14 0 -14 14zM75 465v244q0 14 14 14h40q14 0 14 -14v-244q0 -14 -14 -14h-40q-14 0 -14 14z" />
    <glyph glyph-name="numbersign" unicode="#" horiz-adv-x="796" 
d="M102 186v26q0 13 14 13h170v129h-170q-14 0 -14 14v24q0 14 14 14h170v174q0 14 14 14h24q13 0 13 -14v-174h130v174q0 14 14 14h24q13 0 13 -14v-174h162q14 0 14 -14v-24q0 -14 -14 -14h-162v-129h162q14 0 14 -13v-26q0 -14 -14 -14h-162v-162q0 -14 -13 -14h-24
q-14 0 -14 14v162h-130v-162q0 -14 -13 -14h-24q-14 0 -14 14v162h-170q-14 0 -14 14zM337 225h130v129h-130v-129z" />
    <glyph glyph-name="dollar" unicode="$" 
d="M93 45l-5 42q-1 8 2 10.5t12 1.5l4 -1q5 -1 13.5 -2.5t19.5 -3t24.5 -3l27.5 -3t30 -2.5t31 -1q73 0 104.5 20t31.5 80v37q0 55 -24 74t-78 30l-26 6q-48 10 -73.5 18.5t-51 26t-36 48.5t-10.5 78v20q0 83 38 121.5t117 45.5v86q0 14 13 14h32q14 0 14 -14v-84
q19 -1 37 -2.5t29.5 -3t20 -3.5l12.5 -3l5 -1q16 -4 17 -18l4 -39q1 -7 -1.5 -9.5t-10.5 -1.5q-67 14 -116 14q-68 0 -99.5 -19t-31.5 -73v-34q0 -46 22.5 -64t76.5 -29l27 -6q93 -19 132.5 -54t39.5 -122v-39q0 -87 -39.5 -125t-124.5 -44v-86q0 -14 -14 -14h-32
q-13 0 -13 14v84q-17 0 -34 1t-30 2.5l-25 3t-20 3t-14 2.5t-9 2l-4 1q-14 4 -15 18z" />
    <glyph glyph-name="percent" unicode="%" horiz-adv-x="890" 
d="M247 -8l332 713q5 13 17 13h38q16 0 9 -15l-332 -712q-5 -13 -17 -13h-38q-17 0 -9 14zM51 377v208q0 118 145 118h4q71 0 106.5 -28t35.5 -89v-209q0 -118 -147 -118h-3q-71 0 -106 28.5t-35 89.5zM192 317h4q75 0 75 59v215q0 57 -71 57h-4q-74 0 -74 -57v-215
q0 -31 17 -45t53 -14zM548 111v209q0 118 146 118h3q71 0 106.5 -27.5t35.5 -89.5v-210q0 -117 -146 -117h-3q-71 0 -106.5 28t-35.5 89zM690 52h4q75 0 75 58v216q0 57 -72 57h-3q-75 0 -75 -57v-216q0 -31 17 -44.5t54 -13.5z" />
    <glyph glyph-name="ampersand" unicode="&#x26;" horiz-adv-x="669" 
d="M59 158v39q0 64 28.5 108.5t74.5 66.5l37 17l-7 7q-37 40 -51.5 70.5t-14.5 81.5v14q0 147 164 147h6q159 0 159 -145v-17q0 -112 -94 -160l-35 -18l152 -165l66 91q10 13 20 3l35 -31q10 -9 1 -19l-68 -95l102 -110q11 -12 -2 -19l-42 -27q-11 -9 -22 2l-83 92l-10 -12
q-42 -56 -89 -73.5t-126 -17.5q-105 0 -153 41.5t-48 128.5zM272 421l39 19q43 20 54.5 44t11.5 64v18q0 41 -19.5 59.5t-61.5 18.5h-6q-86 0 -86 -81v-17q0 -50 37 -91zM139 183v-19q0 -57 28.5 -81.5t90.5 -24.5q61 0 98 14.5t66 57.5l9 12l-180 194l-27 -12
q-54 -25 -69.5 -54.5t-15.5 -86.5z" />
    <glyph glyph-name="quotesingle" unicode="'" horiz-adv-x="225" 
d="M75 465v244q0 14 14 14h47q14 0 14 -14v-244q0 -14 -14 -14h-47q-14 0 -14 14z" />
    <glyph glyph-name="parenleft" unicode="(" horiz-adv-x="367" 
d="M278 -27h-50q-16 0 -22 12q-109 178 -109 364q0 190 109 362q6 12 20 12h52q19 0 10 -13q-118 -182 -118 -359q0 -186 118 -365q10 -13 -10 -13z" />
    <glyph glyph-name="parenright" unicode=")" horiz-adv-x="364" 
d="M136 -27h-51q-19 0 -10 13q118 177 118 365q0 180 -118 359q-8 13 10 13h53q14 0 20 -12q109 -172 109 -362q0 -186 -109 -364q-8 -12 -22 -12z" />
    <glyph glyph-name="asterisk" unicode="*" horiz-adv-x="528" 
d="M164 348l-26 18q-10 9 -3 19l85 110l-135 40q-13 4 -9 17l11 30q4 12 17 8l132 -44l-3 137q0 14 13 14h33q14 0 14 -14l-2 -137l132 44q12 6 17 -8l11 -30q4 -13 -9 -17l-135 -40l86 -109q8 -11 -2 -20l-28 -18q-11 -8 -19 3l-80 112l-81 -112q-8 -11 -19 -3z" />
    <glyph glyph-name="plus" unicode="+" 
d="M246 121v161h-154q-14 0 -14 14v34q0 14 14 14h154v160q0 14 14 14h35q14 0 14 -14v-160h154q13 0 13 -14v-34q0 -14 -13 -14h-154v-161q0 -14 -14 -14h-35q-14 0 -14 14z" />
    <glyph glyph-name="comma" unicode="," horiz-adv-x="239" 
d="M101 -105h-47q-16 0 -7 14q44 74 44 165v12q0 13 14 13h52q8 0 10.5 -2.5t2.5 -10.5v-11q0 -99 -48 -167q-9 -13 -21 -13z" />
    <glyph glyph-name="hyphen" unicode="-" horiz-adv-x="367" 
d="M42 267v39q0 14 13 14h257q13 0 13 -14v-39q0 -14 -13 -14h-257q-13 0 -13 14z" />
    <glyph glyph-name="period" unicode="." horiz-adv-x="243" 
d="M70 14v72q0 8 3 11t11 3h74q8 0 11 -3t3 -11v-72q0 -8 -3 -11t-11 -3h-74q-8 0 -11 3t-3 11z" />
    <glyph glyph-name="slash" unicode="/" horiz-adv-x="351" 
d="M37 13l210 671q3 13 16 13h40q15 0 11 -13l-211 -671q-4 -13 -17 -13h-38q-15 0 -11 13z" />
    <glyph glyph-name="zero" unicode="0" horiz-adv-x="554" 
d="M72 166v365q0 95 51 136.5t154 41.5h5q103 0 151.5 -40.5t48.5 -136.5v-367q0 -95 -51.5 -136t-155.5 -41h-4q-103 0 -151 41t-48 137zM268 59h12q61 0 91.5 24t30.5 80v376q0 57 -28 80.5t-88 23.5h-12q-61 0 -91.5 -24t-30.5 -81v-375q0 -57 28 -80.5t88 -23.5z" />
    <glyph glyph-name="one" unicode="1" horiz-adv-x="320" 
d="M160 14v596l-102 -50q-15 -7 -20 8l-12 35q-4 15 9 21l128 66q18 7 28 7h35q14 0 14 -14v-669q0 -14 -14 -14h-52q-14 0 -14 14z" />
    <glyph glyph-name="two" unicode="2" horiz-adv-x="532" 
d="M68 14v204q0 48 10 79t34.5 49t50.5 26t72 15l41 7q62 10 85 29.5t23 76.5v32q0 67 -30.5 87.5t-101.5 20.5h-3q-63 0 -136 -19q-7 -2 -10 1t-2 11l4 40q1 12 14 15q69 18 140 18h3q106 0 154 -37t48 -132v-39q0 -48 -10.5 -79t-35.5 -49t-52 -26.5t-76 -16.5l-46 -8
q-52 -8 -74 -25t-22 -68v-155h305q13 0 12 -14l-5 -43q-1 -14 -16 -14h-362q-14 0 -14 14z" />
    <glyph glyph-name="three" unicode="3" horiz-adv-x="495" 
d="M52 22l-4 45q-1 8 2 10t11 1q84 -16 150 -16h6q74 0 102.5 22.5t28.5 87.5v49q0 60 -26 83.5t-94 23.5h-88q-14 0 -14 13v42q0 14 14 14h80q66 0 93.5 22t27.5 79v40q0 57 -25.5 79.5t-93.5 22.5h-2q-83 0 -147 -16q-7 -1 -10 2t-2 11l3 37q1 13 15 17q75 15 142 15h2
q107 0 152.5 -39t45.5 -134v-31q0 -109 -89 -135q96 -17 96 -154v-38q0 -102 -47.5 -143t-157.5 -41h-5q-91 0 -151 15q-14 4 -15 16z" />
    <glyph glyph-name="four" unicode="4" horiz-adv-x="506" 
d="M35 212l-6 41q-2 12 6 26l216 415q7 12 20 8l47 -16q13 -5 6 -17l-126 -242l-88 -160h248v144q0 14 15 14h51q14 0 14 -13v-398q0 -14 -14 -14h-52q-14 0 -14 14v184h-309q-11 0 -14 14z" />
    <glyph glyph-name="five" unicode="5" horiz-adv-x="497" 
d="M56 24l-5 45q-1 8 2 10t11 1q108 -18 155 -18q79 0 109 22t30 93v48q0 68 -27.5 90.5t-93.5 22.5h-156q-13 0 -13 14v331q0 14 13 14h300q8 0 10 -3t4 -11l6 -39q1 -7 -2.5 -10t-11.5 -3h-239v-224h89q109 0 155 -40.5t46 -143.5v-52q0 -103 -50 -141.5t-163 -38.5
q-92 0 -154 17q-14 4 -15 16z" />
    <glyph glyph-name="six" unicode="6" horiz-adv-x="533" 
d="M72 163v363q0 96 50.5 138t152.5 42h2q35 0 68.5 -3.5t49.5 -6.5l16 -4q15 -4 16 -16l4 -41q1 -8 -2 -10t-12 0q-69 15 -134 15h-3q-66 0 -97 -23t-31 -80v-85l-2 -76q36 45 134 45h6q177 0 177 -176v-82q0 -94 -50 -134.5t-147 -40.5h-9q-95 0 -142 40t-47 135zM263 59
h6q60 0 89 24t29 90v67q0 65 -25.5 88.5t-81.5 23.5h-12q-58 0 -87 -23.5t-29 -87.5v-68q0 -67 26 -90.5t85 -23.5z" />
    <glyph glyph-name="seven" unicode="7" horiz-adv-x="449" 
d="M61 14l278 617h-300q-14 0 -11 14l5 38q3 14 15 14h355q14 0 14 -14v-48q0 -13 -5 -26l-268 -598q-6 -11 -20 -11h-55q-16 0 -8 14z" />
    <glyph glyph-name="eight" unicode="8" horiz-adv-x="550" 
d="M67 173v39q0 132 88 155q-33 12 -53.5 47.5t-20.5 92.5v32q0 170 192 170h10q92 0 139 -40t47 -130v-31q0 -57 -20.5 -92.5t-53.5 -47.5q88 -24 88 -156v-39q0 -103 -48.5 -144t-157.5 -41h-11q-108 0 -153.5 41t-45.5 144zM269 395h6q58 0 86 24t28 82v36q0 60 -24.5 83
t-83.5 23h-6q-60 0 -87 -23.5t-27 -81.5v-37q0 -59 25 -82.5t83 -23.5zM268 59h8q68 0 97.5 23.5t29.5 90.5v38q0 69 -26.5 93.5t-95.5 24.5h-8q-70 0 -98 -25t-28 -93v-38q0 -68 26.5 -91t94.5 -23z" />
    <glyph glyph-name="nine" unicode="9" horiz-adv-x="533" 
d="M92 23l-5 43q-1 8 2 11.5t10 1.5q74 -17 142 -17h3q74 0 105.5 19.5t31.5 75.5v99l2 76q-36 -45 -129 -45h-11q-86 0 -131.5 41.5t-45.5 135.5v69q0 94 50 135t147 41h9q95 0 142 -40t47 -134v-373q0 -95 -52 -133t-161 -38h-3q-82 0 -138 15q-14 4 -15 17zM254 356h11
q59 0 87.5 23.5t28.5 87.5v62q0 67 -27 90.5t-86 23.5h-5q-59 0 -88 -24t-29 -90v-61q0 -66 25 -89t83 -23z" />
    <glyph glyph-name="colon" unicode=":" horiz-adv-x="243" 
d="M70 350v72q0 8 3 11t11 3h74q8 0 11 -3t3 -11v-72q0 -8 -3 -11t-11 -3h-74q-8 0 -11 3t-3 11zM70 14v72q0 8 3 11t11 3h74q8 0 11 -3t3 -11v-72q0 -8 -3 -11t-11 -3h-74q-8 0 -11 3t-3 11z" />
    <glyph glyph-name="semicolon" unicode=";" horiz-adv-x="239" 
d="M69 350v72q0 8 2.5 11t10.5 3h75q8 0 10.5 -3t2.5 -11v-72q0 -8 -2.5 -10.5t-10.5 -2.5h-75q-8 0 -10.5 2.5t-2.5 10.5zM101 -105h-47q-16 0 -7 14q44 74 44 165v12q0 13 14 13h52q8 0 10.5 -2.5t2.5 -10.5v-11q0 -99 -48 -167q-9 -13 -21 -13z" />
    <glyph glyph-name="less" unicode="&#x3c;" 
d="M115 294v33q0 14 11 22l299 243q14 9 14 -6v-51q0 -12 -11 -22l-247 -201l247 -201q11 -10 11 -22v-51q0 -18 -13 -8l-300 242q-11 8 -11 22z" />
    <glyph glyph-name="equal" unicode="=" 
d="M89 195v34q0 14 14 14h349q14 0 14 -14v-34q0 -14 -14 -14h-349q-14 0 -14 14zM89 399v34q0 14 14 14h349q14 0 14 -14v-34q0 -14 -14 -14h-349q-14 0 -14 14z" />
    <glyph glyph-name="greater" unicode="&#x3e;" 
d="M115 38v51q0 12 11 22l248 201l-248 201q-11 10 -11 22v51q0 16 14 6l299 -243q11 -8 11 -22v-33q0 -14 -11 -22l-300 -242q-13 -10 -13 8z" />
    <glyph glyph-name="question" unicode="?" horiz-adv-x="443" 
d="M136 163v97q0 18 2 34t4.5 27.5t9.5 23.5t10 18t14.5 16.5l15.5 14t19 15.5t19 16l14 11l12.5 10t10 8.5t9.5 9.5t6.5 9t6 10.5t3.5 11.5t2.5 14.5t0.5 16.5v24q0 55 -26.5 72.5t-75.5 17.5q-31 0 -61.5 -3t-45.5 -7l-15 -3q-8 -2 -11 1t-2 11l4 38q1 12 15 16
q45 13 113 13q92 0 138.5 -35t46.5 -125v-26q0 -27 -4.5 -46.5t-16.5 -35t-20.5 -24t-29.5 -24t-31 -24.5q-3 -3 -12 -10.5t-11.5 -10t-9 -8.5t-8 -8.5t-5.5 -8.5t-5 -10.5t-3 -11.5t-2.5 -14.5t-0.5 -16.5v-104q0 -14 -13 -14h-53q-14 0 -14 14zM136 14v57q0 13 14 13h53
q13 0 13 -13v-57q0 -14 -13 -14h-53q-14 0 -14 14z" />
    <glyph glyph-name="at" unicode="@" horiz-adv-x="789" 
d="M598 114h4q37 0 48.5 19t11.5 71v218q0 78 -29 101.5t-114 23.5h-248q-85 0 -114.5 -24t-29.5 -101v-341q0 -76 24 -101.5t88 -25.5q24 0 46 2.5t24 2.5q11 0 8 -12l-4 -23q-2 -11 -11 -15q-22 -8 -72 -8q-83 0 -122.5 42.5t-39.5 132.5v356q0 90 46.5 128.5t144.5 38.5
h272q98 0 144 -38.5t46 -128.5v-218q0 -88 -26.5 -121t-93.5 -33q-72 0 -95 42q-39 -41 -113 -41h-10q-67 0 -102.5 28t-35.5 100v128q0 72 38.5 99.5t107.5 27.5h7q76 0 126 -18q10 -4 13 -7.5t3 -14.5v-221q0 -38 14.5 -53.5t43.5 -15.5zM475 190v192q-26 8 -82 8
q-42 0 -63 -15t-21 -55v-128q0 -42 18 -59.5t58 -17.5h6q84 0 84 75z" />
    <glyph glyph-name="A" unicode="A" horiz-adv-x="513" 
d="M479 4l-53 -8q-13 -1 -17 11l-42 166h-227l-41 -165q-3 -13 -17 -12l-50 8q-13 1 -10 15l171 664q3 14 17 14h91q14 0 17 -14l171 -664q4 -14 -10 -15zM353 240l-97 388h-4l-97 -388h198z" />
    <glyph glyph-name="B" unicode="B" horiz-adv-x="545" 
d="M282 0h-188q-14 0 -14 14v669q0 14 14 14h165q108 0 153 -39t45 -135v-18q0 -106 -72 -134q99 -26 99 -160v-31q0 -100 -46.5 -140t-155.5 -40zM377 499v30q0 58 -26 80t-93 22h-98v-234h96q67 0 94 22t27 80zM404 179v37q0 62 -26.5 87t-93.5 25h-124v-257h121
q68 0 95.5 23t27.5 85z" />
    <glyph glyph-name="C" unicode="C" horiz-adv-x="475" 
d="M72 175v347q0 96 53 140t159 44q32 0 62 -3t44 -7l14 -3q15 -4 16 -16l3 -40q1 -8 -2 -10.5t-11 -1.5q-63 15 -125 15q-70 0 -101.5 -28.5t-31.5 -88.5v-345q0 -61 28 -88.5t97 -27.5q35 0 69.5 4t51.5 8l17 4q8 2 11.5 -1t2.5 -10l-5 -42q-1 -13 -15 -18
q-49 -16 -135 -16q-104 0 -153 43.5t-49 140.5z" />
    <glyph glyph-name="D" unicode="D" horiz-adv-x="548" 
d="M265 0h-171q-14 0 -14 14v669q0 14 14 14h177q106 0 155.5 -43.5t49.5 -140.5v-328q0 -97 -53 -141t-158 -44zM396 187v327q0 61 -28.5 89t-97.5 28h-110v-560h103q70 0 101.5 28.5t31.5 87.5z" />
    <glyph glyph-name="E" unicode="E" horiz-adv-x="494" 
d="M80 14v669q0 14 14 14h326q14 0 15 -14l5 -37q2 -15 -13 -15h-267v-234h216q14 0 14 -14v-42q0 -13 -14 -13h-216v-257h276q15 0 14 -14l-7 -44q-3 -13 -16 -13h-333q-14 0 -14 14z" />
    <glyph glyph-name="F" unicode="F" horiz-adv-x="469" 
d="M80 14v669q0 14 14 14h329q15 0 16 -12l5 -41q1 -13 -12 -13h-272v-252h211q13 0 12 -13l-5 -43q-1 -13 -15 -13h-203v-296q0 -14 -13 -14h-53q-14 0 -14 14z" />
    <glyph glyph-name="G" unicode="G" horiz-adv-x="541" 
d="M72 175v347q0 96 53 140t159 44q39 0 76 -4t54 -8l18 -4q15 -4 16 -17l4 -39q1 -7 -2 -9.5t-11 -1.5q-73 17 -148 17h-6q-70 0 -101.5 -28.5t-31.5 -88.5v-345q0 -61 28 -88.5t97 -27.5h2q35 0 64.5 3t40.5 5l12 3v240h-84q-14 0 -14 14v41q0 14 14 14h148q13 0 13 -14
v-332q0 -13 -13 -19q-66 -26 -182 -26q-106 0 -156 43.5t-50 140.5z" />
    <glyph glyph-name="H" unicode="H" horiz-adv-x="578" 
d="M80 14v669q0 14 14 14h53q13 0 13 -14v-286h258v286q0 14 14 14h52q14 0 14 -14v-669q0 -14 -14 -14h-52q-14 0 -14 14v314h-258v-314q0 -14 -13 -14h-53q-14 0 -14 14z" />
    <glyph glyph-name="I" unicode="I" horiz-adv-x="241" 
d="M80 14v669q0 14 14 14h53q13 0 13 -14v-669q0 -14 -13 -14h-53q-14 0 -14 14z" />
    <glyph glyph-name="J" unicode="J" horiz-adv-x="400" 
d="M28 15l-5 46q0 14 12 10q32 -9 79 -9q76 0 103 27t27 88v506q0 14 14 14h52q14 0 14 -14v-508q0 -98 -47.5 -141t-151.5 -43q-45 0 -81 9q-15 4 -16 15z" />
    <glyph glyph-name="K" unicode="K" horiz-adv-x="516" 
d="M80 14v669q0 14 14 14h53q13 0 13 -14v-292q27 -2 37 -5l193 304q6 12 21 9l52 -7q13 -1 7 -14l-206 -314q41 -25 89 -104l146 -237q8 -14 -5 -17l-54 -9q-15 -3 -21 8l-132 226q-33 57 -58.5 73.5t-68.5 18.5v-309q0 -14 -13 -14h-53q-14 0 -14 14z" />
    <glyph glyph-name="L" unicode="L" horiz-adv-x="437" 
d="M80 14v669q0 14 14 14h53q13 0 13 -14v-612h235q14 0 13 -14l-5 -43q-1 -14 -16 -14h-293q-14 0 -14 14z" />
    <glyph glyph-name="M" unicode="M" horiz-adv-x="699" 
d="M80 14v669q0 14 14 14h81q13 0 19 -13l113 -243q29 -63 44 -104h4q15 45 40 98l112 249q6 13 19 13h79q14 0 14 -14v-669q0 -14 -14 -14h-51q-13 0 -13 14v389q0 129 7 211h-5q-6 -22 -28 -73l-139 -308q-6 -10 -18 -10h-14q-11 0 -17 10l-141 305q-19 42 -30 76h-5
q8 -63 8 -210v-390q0 -14 -14 -14h-51q-14 0 -14 14z" />
    <glyph glyph-name="N" unicode="N" horiz-adv-x="577" 
d="M80 14v669q0 14 14 14h67q13 0 18 -12l189 -428q33 -73 55 -144h4q-8 84 -8 232v338q0 14 13 14h51q14 0 14 -14v-669q0 -14 -15 -14h-64q-14 0 -19 12l-187 423q-42 96 -58 149h-4q9 -93 9 -257v-313q0 -14 -14 -14h-51q-14 0 -14 14z" />
    <glyph glyph-name="O" unicode="O" horiz-adv-x="576" 
d="M72 172v353q0 96 52.5 140t159.5 44h14q106 0 155.5 -43.5t49.5 -140.5v-353q0 -96 -53 -140t-160 -44h-13q-106 0 -155.5 43.5t-49.5 140.5zM278 59h12q71 0 102.5 28t31.5 88v351q0 61 -28.5 89t-98.5 28h-12q-70 0 -101.5 -28.5t-31.5 -88.5v-351q0 -61 28 -88.5
t98 -27.5z" />
    <glyph glyph-name="P" unicode="P" horiz-adv-x="526" 
d="M80 14v669q0 14 14 14h178q109 0 153.5 -39.5t44.5 -139.5v-48q0 -100 -46.5 -140t-155.5 -40h-108v-276q0 -14 -13 -14h-53q-14 0 -14 14zM160 359h100q72 0 101 22t29 81v66q0 60 -27 81.5t-99 21.5h-104v-272z" />
    <glyph glyph-name="Q" unicode="Q" horiz-adv-x="574" 
d="M72 172v353q0 96 52.5 140t159.5 44h14q106 0 155.5 -43.5t49.5 -140.5v-353q0 -144 -126 -175q1 -49 19 -64t56 -15q30 0 57 5q7 1 10 -1.5t2 -10.5l-5 -37q-1 -13 -15 -16q-24 -6 -57 -6q-65 0 -102 29.5t-41 106.5h-24q-97 0 -151 40t-54 144zM278 59h12
q71 0 102.5 28t31.5 88v351q0 61 -28.5 89t-98.5 28h-12q-70 0 -101.5 -28.5t-31.5 -88.5v-351q0 -61 28 -88.5t98 -27.5z" />
    <glyph glyph-name="R" unicode="R" horiz-adv-x="533" 
d="M80 14v669q0 14 14 14h178q109 0 153.5 -39.5t44.5 -139.5v-40q0 -119 -108 -152q32 -19 66 -109l74 -199q5 -14 -8 -15l-54 -6q-14 -1 -18 11l-75 208q-19 52 -37 67.5t-72 15.5h-78v-285q0 -14 -13 -14h-53q-14 0 -14 14zM160 366h107q67 0 95 23t28 81v57
q0 59 -25.5 81.5t-92.5 22.5h-112v-265z" />
    <glyph glyph-name="S" unicode="S" horiz-adv-x="494" 
d="M64 25l-5 42q-1 8 2 11t12 1q102 -17 150 -17q80 0 108 22.5t28 91.5v31q0 63 -23 87t-85 37l-16 4q-47 10 -74 19.5t-53 28t-37 48.5t-11 75v25q0 99 48 137t152 38q74 0 118 -14q16 -5 17 -18l4 -38q1 -7 -2 -10t-11 -2q-50 16 -130 16q-61 0 -88.5 -21.5t-27.5 -79.5
v-23q0 -55 22.5 -75.5t88.5 -34.5l16 -4q96 -20 133.5 -57t37.5 -132v-31q0 -109 -46 -150t-164 -41q-74 0 -149 16q-14 4 -15 18z" />
    <glyph glyph-name="T" unicode="T" horiz-adv-x="448" 
d="M183 14v617h-153q-14 0 -13 13l4 39q1 14 15 14h374q12 0 15 -14l5 -39q1 -13 -12 -13h-155v-605q0 -16 -3 -21t-11 -5h-52q-14 0 -14 14z" />
    <glyph glyph-name="U" unicode="U" horiz-adv-x="562" 
d="M76 165v518q0 14 14 14h53q13 0 13 -14v-515q0 -59 28 -84t93 -25q66 0 97.5 25.5t31.5 83.5v515q0 14 14 14h52q14 0 14 -14v-518q0 -95 -52 -136t-153 -41h-7q-100 0 -149 41t-49 136z" />
    <glyph glyph-name="V" unicode="V" horiz-adv-x="486" 
d="M185 14l-167 665q-3 14 10 15l55 6q12 1 16 -11l103 -428q30 -126 40 -182h3q4 15 18.5 80l23.5 104l102 426q4 12 16 11l51 -7q12 -1 11 -13l-168 -666q-4 -14 -17 -14h-80q-13 0 -17 14z" />
    <glyph glyph-name="W" unicode="W" horiz-adv-x="746" 
d="M144 14l-119 665q-1 15 12 16l51 5q8 1 11 -2t5 -12l80 -460q16 -93 19 -144h3q7 64 23 141l95 451q1 14 16 14h68q14 0 17 -14l95 -455q15 -76 22 -138h3q10 89 19 142l81 463q1 15 15 14l48 -5q15 -1 12 -16l-118 -665q-3 -14 -17 -14h-78q-14 0 -17 14l-80 386
q-27 134 -34 206h-4q-14 -101 -36 -205l-82 -387q-1 -14 -16 -14h-78q-13 0 -16 14z" />
    <glyph glyph-name="X" unicode="X" horiz-adv-x="499" 
d="M16 21l183 343l-169 312q-9 15 9 17l53 7q14 1 20 -10l52 -100l85 -168l85 167l53 100q7 12 19 11l53 -7q14 -1 8 -16l-172 -316l185 -341q8 -14 -7 -16l-53 -7q-15 -2 -20 9l-70 129l-85 166l-83 -165l-67 -130q-6 -11 -21 -9l-50 7q-15 1 -8 17z" />
    <glyph glyph-name="Y" unicode="Y" horiz-adv-x="484" 
d="M200 14v293l-193 370q-7 14 9 16l55 7q14 1 20 -9l115 -231q20 -39 33 -71h3q16 35 34 70l118 232q6 10 19 9l53 -7q15 -2 7 -16l-194 -370v-293q0 -14 -13 -14h-53q-13 0 -13 14z" />
    <glyph glyph-name="Z" unicode="Z" horiz-adv-x="476" 
d="M36 13v10q0 15 6 27l282 581h-257q-8 0 -10.5 2.5t-1.5 9.5l6 41q1 13 15 13h334q14 0 14 -14v-9q0 -11 -6 -26l-281 -577h287q13 0 13 -14l-6 -43q-1 -14 -17 -14h-365q-13 0 -13 13z" />
    <glyph glyph-name="bracketleft" unicode="[" horiz-adv-x="379" 
d="M122 -72v836q0 14 14 14h148q13 0 13 -14v-22q0 -14 -13 -14h-94v-765h94q13 0 13 -13v-22q0 -14 -13 -14h-148q-14 0 -14 14z" />
    <glyph glyph-name="backslash" unicode="\" horiz-adv-x="352" 
d="M247 13l-210 671q-4 13 11 13h39q13 0 17 -13l210 -671q4 -13 -11 -13h-39q-13 0 -17 13z" />
    <glyph glyph-name="bracketright" unicode="]" horiz-adv-x="379" 
d="M81 -72v22q0 13 14 13h94v765h-94q-14 0 -14 14v22q0 14 14 14h148q13 0 13 -14v-836q0 -14 -13 -14h-148q-14 0 -14 14z" />
    <glyph glyph-name="asciicircum" unicode="^" horiz-adv-x="544" 
d="M59 399l164 286q8 12 21 12h53q14 0 21 -12l163 -286q7 -14 -8 -14h-49q-11 0 -19 12l-135 237l-137 -237q-8 -12 -19 -12h-47q-16 0 -8 14z" />
    <glyph glyph-name="underscore" unicode="_" horiz-adv-x="446" 
d="M-11 -133v31q0 14 14 14h440q14 0 14 -14v-31q0 -13 -14 -13h-440q-14 0 -14 13z" />
    <glyph glyph-name="grave" unicode="`" horiz-adv-x="280" 
d="M145 662l-72 138q-6 14 10 14h57q14 0 19 -13l60 -137q6 -14 -10 -14h-44q-13 0 -20 12z" />
    <glyph glyph-name="a" unicode="a" horiz-adv-x="481" 
d="M49 139v20q0 43 14.5 72t42.5 44t57.5 21.5t70.5 9.5l96 4v37q0 53 -23 75t-73 22q-57 0 -123 -16q-8 -2 -11 1.5t-2 10.5l4 39q1 12 13 15q50 15 120 15q81 0 127 -35.5t46 -124.5v-310q0 -14 -15 -20q-70 -28 -167 -28q-91 0 -134 33t-43 115zM127 155v-16
q0 -42 23 -62t78 -20q68 0 102 15v175q-59 0 -94 -3q-60 -5 -84.5 -23.5t-24.5 -65.5z" />
    <glyph glyph-name="b" unicode="b" horiz-adv-x="511" 
d="M73 134v571q0 14 13 15l53 6q14 0 14 -12v-177l-2 -63q40 38 122 38h3q79 0 123 -36t44 -125v-204q0 -89 -49 -124t-134 -35h-10q-87 0 -132 31.5t-45 114.5zM250 57h11q51 0 76.5 22.5t25.5 74.5v196q0 52 -23.5 74.5t-72.5 22.5h-8q-54 0 -80 -22.5t-26 -74.5v-199
q0 -52 23 -73t74 -21z" />
    <glyph glyph-name="c" unicode="c" horiz-adv-x="405" 
d="M369 62l-4 -40q-1 -12 -15 -18q-41 -13 -107 -13h-2q-82 0 -127.5 35.5t-45.5 125.5v196q0 161 173 161h3q64 0 101 -12q15 -4 16 -16l4 -38q1 -8 -1.5 -11t-10.5 -2q-56 14 -105 14h-3q-97 0 -97 -97v-189q0 -52 23.5 -75t74.5 -23h3q49 0 107 14q8 2 11 -1.5t2 -10.5z
" />
    <glyph glyph-name="d" unicode="d" horiz-adv-x="512" 
d="M68 146v205q0 161 169 161h3q85 0 120 -39q-2 34 -2 67v173q0 13 15 13l52 -6q13 -1 13 -15v-562q0 -88 -48 -121.5t-135 -33.5h-10q-84 0 -130.5 34.5t-46.5 123.5zM244 57h12q51 0 76.5 22t25.5 73v198q0 97 -99 97h-9q-51 0 -76.5 -22.5t-25.5 -74.5v-197
q0 -53 23 -74.5t73 -21.5z" />
    <glyph glyph-name="e" unicode="e" horiz-adv-x="480" 
d="M68 151v198q0 82 44 122.5t141 40.5h11q164 0 164 -140v-19q0 -70 -35 -97t-122 -27q-52 0 -125 15v-80q0 -60 26 -82t91 -22q66 0 130 17q7 1 10.5 -1.5t2.5 -8.5l-4 -43q-1 -11 -15 -16q-43 -17 -129 -17h-6q-90 0 -137 35t-47 125zM146 352v-46q56 -15 125 -15
q45 0 62.5 15t17.5 50v14q0 39 -20 58t-73 19h-6q-57 0 -81.5 -21.5t-24.5 -73.5z" />
    <glyph glyph-name="f" unicode="f" horiz-adv-x="300" 
d="M93 439h-61q-14 0 -14 14v33q0 14 14 14h61v70q0 158 168 158q6 0 12 -0.5t10.5 -1t8 -0.5h5.5l2 -1q16 -3 17 -14l3 -40q1 -7 -1.5 -9.5t-10.5 -1.5q-23 3 -46 3q-88 0 -88 -89v-74h102q8 0 10.5 -2.5t2.5 -10.5l-4 -35q-1 -13 -16 -13h-95v-425q0 -14 -14 -14h-52
q-14 0 -14 14v425z" />
    <glyph glyph-name="g" unicode="g" horiz-adv-x="490" 
d="M34 -78v17q0 94 85 125q-46 21 -46 70v10q0 54 52 73q-61 36 -61 122v25q0 84 49 116t135 32h7q85 0 131.5 -32t46.5 -116v-25q0 -152 -188 -152q-18 0 -42 -2q-31 -3 -43 -13.5t-12 -31.5v-2q0 -27 20.5 -37t77.5 -10h7q42 0 69.5 -2.5t58.5 -11t49 -24t30 -44.5t12 -69
v-18q0 -39 -12 -67.5t-31 -45t-49.5 -26t-60 -12.5t-68.5 -3q-50 0 -84.5 5.5t-67 20.5t-49 47t-16.5 81zM243 250h7q53 0 79 22t26 70v19q0 48 -24 68t-77 20h-7q-53 0 -79 -20.5t-26 -67.5v-19q0 -48 24.5 -70t76.5 -22zM113 -61v-17q0 -55 34.5 -72.5t102.5 -17.5
q70 0 106.5 17.5t36.5 72.5v17q0 55 -34 71.5t-104 16.5t-106 -17t-36 -71z" />
    <glyph glyph-name="h" unicode="h" horiz-adv-x="501" 
d="M75 14v691q0 14 13 15l53 6q14 0 14 -12v-176l-2 -65q35 39 113 39h2q161 0 161 -158v-340q0 -14 -14 -14h-52q-14 0 -14 14v338q0 52 -21 73.5t-70 21.5h-6q-49 0 -73 -21.5t-24 -73.5v-338q0 -14 -13 -14h-53q-14 0 -14 14z" />
    <glyph glyph-name="i" unicode="i" horiz-adv-x="235" 
d="M73 613v66q0 14 14 14h61q14 0 14 -14v-66q0 -14 -14 -14h-61q-8 0 -11 3t-3 11zM77 14v468q0 14 13 15l53 6q14 1 14 -13v-476q0 -14 -13 -14h-53q-14 0 -14 14z" />
    <glyph glyph-name="j" unicode="j" horiz-adv-x="238" 
d="M76 613v66q0 14 14 14h61q14 0 14 -16v-64q0 -14 -14 -14h-61q-14 0 -14 14zM-8 -211l-3 41q-1 7 2 11t11 3q9 -2 21 -2q27 0 42.5 14.5t15.5 60.5v565q0 14 12 15l53 7q14 0 14 -13v-575q0 -143 -126 -143q-18 0 -31 3q-10 3 -11 13z" />
    <glyph glyph-name="k" unicode="k" horiz-adv-x="481" 
d="M75 14v692q0 13 12 14l55 6q8 1 10.5 -2t2.5 -11v-393q13 0 23 -2l167 176q10 10 21 9l67 -6q16 -2 5 -15l-185 -187q25 -15 51 -54l155 -223q8 -12 -8 -14l-58 -8q-14 -3 -23 12l-136 205q-18 26 -33 33t-46 9v-241q0 -14 -13 -14h-53q-14 0 -14 14z" />
    <glyph glyph-name="l" unicode="l" horiz-adv-x="266" 
d="M73 132v573q0 14 12 15l53 6q15 2 15 -13v-574q0 -47 12 -61.5t47 -14.5q4 0 16 1t13 1q8 0 10 -2.5t2 -10.5l-4 -40q-1 -12 -14 -15q-18 -3 -41 -3q-57 0 -89 28.5t-32 109.5z" />
    <glyph glyph-name="m" unicode="m" horiz-adv-x="741" 
d="M75 14v447q0 12 16 20q65 28 151 28h4q93 0 127 -57q41 57 136 57h2q75 0 116.5 -34t41.5 -121v-340q0 -14 -14 -14h-52q-14 0 -14 14v342q0 49 -20 68.5t-64 19.5h-3q-45 0 -67.5 -20t-22.5 -68v-342q0 -14 -14 -14h-52q-14 0 -14 14v342q0 49 -20.5 68.5t-64.5 19.5h-1
q-48 0 -91 -15v-415q0 -14 -13 -14h-53q-14 0 -14 14z" />
    <glyph glyph-name="n" unicode="n" horiz-adv-x="501" 
d="M75 14v446q0 15 16 20q67 29 166 29q85 0 128.5 -35t43.5 -126v-334q0 -14 -14 -14h-52q-14 0 -14 14v331q0 54 -21 76.5t-75 22.5q-60 0 -98 -15v-415q0 -14 -13 -14h-53q-14 0 -14 14z" />
    <glyph glyph-name="o" unicode="o" horiz-adv-x="506" 
d="M68 149v202q0 89 49 125t134 36h10q84 0 130.5 -35.5t46.5 -125.5v-202q0 -89 -49 -125t-134 -36h-10q-84 0 -130.5 35.5t-46.5 125.5zM244 57h12q102 0 102 99v194q0 52 -23.5 74.5t-72.5 22.5h-12q-51 0 -76.5 -22.5t-25.5 -74.5v-195q0 -52 23.5 -75t72.5 -23z" />
    <glyph glyph-name="p" unicode="p" horiz-adv-x="510" 
d="M72 -204v558q0 90 47.5 124t135.5 34h10q84 0 130.5 -35.5t46.5 -124.5v-203q0 -161 -170 -161h-3q-87 0 -119 35q2 -28 2 -61v-174q0 -14 -14 -13l-53 6q-13 1 -13 15zM249 57h11q51 0 76.5 23t25.5 76v193q0 52 -23 75t-73 23h-12q-51 0 -76.5 -21.5t-25.5 -72.5v-199
q0 -53 23.5 -75t73.5 -22z" />
    <glyph glyph-name="q" unicode="q" horiz-adv-x="510" 
d="M358 -212v174l2 64q-39 -37 -121 -38q-81 0 -126 35.5t-45 125.5v203q0 89 49 124.5t134 35.5h11q86 0 131 -34t45 -123v-559q0 -14 -13 -15l-53 -6q-14 -1 -14 13zM244 57h8q54 0 80 22.5t26 74.5v194q0 53 -23 76t-73 23h-12q-102 0 -102 -97v-196q0 -53 23.5 -75
t72.5 -22z" />
    <glyph glyph-name="r" unicode="r" horiz-adv-x="324" 
d="M72 14v348q0 85 37 116t111 31q47 0 71 -7q13 -4 14 -15l4 -47q0 -14 -12 -11q-34 6 -66 6q-18 0 -29.5 -2t-24.5 -9.5t-19 -24.5t-6 -43v-342q0 -14 -13 -14h-53q-14 0 -14 14z" />
    <glyph glyph-name="s" unicode="s" horiz-adv-x="432" 
d="M57 29l-4 38q-1 8 2.5 11t11.5 1q65 -19 139 -19h4q52 0 75 14t23 57v11q0 38 -16.5 54.5t-65.5 26.5l-33 7q-76 16 -106.5 43.5t-30.5 88.5v18q0 129 157 129h3q73 0 117 -14q15 -5 16 -15l3 -39q1 -7 -1.5 -10t-9.5 -2q-60 15 -115 15h-5q-44 0 -65.5 -13.5
t-21.5 -49.5v-11q0 -29 16 -45t66 -27l37 -8q70 -15 101.5 -43.5t31.5 -96.5v-22q0 -82 -45 -109.5t-131 -27.5h-4q-89 0 -134 17q-13 5 -15 21z" />
    <glyph glyph-name="t" unicode="t" horiz-adv-x="340" 
d="M93 134v305h-63q-8 0 -11 3t-3 11v33q0 8 3 11t11 3h63v123q0 14 13 15l52 6q15 2 15 -13v-131h115q9 0 11.5 -2t3.5 -10l4 -36q1 -8 -1.5 -10.5t-10.5 -2.5h-122v-305q0 -45 15 -58t63 -13q13 0 30 2t20 2q12 0 11 -13l-4 -38q-2 -15 -14 -17q-25 -5 -54 -5
q-75 0 -111 28.5t-36 111.5z" />
    <glyph glyph-name="u" unicode="u" horiz-adv-x="501" 
d="M72 152v330q0 14 12 15l54 6q14 1 14 -13v-331q0 -54 21 -76.5t75 -22.5q64 0 98 15v415q0 8 3 11t9 2l55 -6q13 -1 13 -15v-443q0 -14 -16 -20q-70 -28 -165 -28q-86 0 -129.5 35t-43.5 126z" />
    <glyph glyph-name="v" unicode="v" horiz-adv-x="433" 
d="M163 13l-142 467q-5 15 11 17l52 6q13 1 17 -13l76 -267q32 -115 39 -152h4q12 55 40 153l75 266q4 14 17 13l49 -6q14 -2 11 -17l-141 -467q-4 -13 -18 -13h-73q-13 0 -17 13z" />
    <glyph glyph-name="w" unicode="w" horiz-adv-x="687" 
d="M132 13l-108 468q-4 14 11 16l53 6q14 0 17 -13l56 -271l10.5 -54.5l10.5 -57.5t6 -35h3q10 49 36 149l68 262q4 14 18 14h66q13 0 17 -13l71 -269q25 -101 32 -143h4q10 68 26 147l56 271q3 13 16 13l50 -6q15 -2 12 -15l-107 -471q-3 -11 -14 -11h-80q-11 0 -14 11
l-74 291l-28 118h-3q-7 -40 -25 -112l-78 -295q-4 -13 -17 -13h-74q-14 0 -17 13z" />
    <glyph glyph-name="x" unicode="x" horiz-adv-x="426" 
d="M18 19l152 242l-132 220q-7 13 9 15l53 8q14 0 19 -9l55 -99l43 -81l41 80l56 100q4 9 20 9l50 -8q7 0 9 -4.5t-2 -10.5l-132 -220l149 -242q8 -13 -7 -15l-58 -8q-13 -1 -19 10l-59 104q-23 37 -51 94q-1 -1 -9 -15l-21.5 -38.5l-22.5 -40.5l-61 -105q-6 -10 -20 -9
l-55 8q-15 1 -7 15z" />
    <glyph glyph-name="y" unicode="y" horiz-adv-x="501" 
d="M181 -206l-4 40q-1 8 1.5 11t11.5 2l12 -1q11 -2 24 -3t18 -1q18 0 29 1t27.5 5.5t26 12.5t16.5 24.5t7 40.5v113q-30 -39 -114 -39h-3q-76 0 -118.5 35.5t-42.5 123.5v323q0 14 12 15l54 6q14 0 14 -13v-322q0 -54 20.5 -76.5t72.5 -22.5h4q52 0 74.5 22t22.5 71v328
q0 13 15 13l52 -6q13 -1 13 -15v-548q0 -94 -44 -127.5t-126 -33.5q-40 0 -64 6q-10 4 -11 15z" />
    <glyph glyph-name="z" unicode="z" horiz-adv-x="441" 
d="M42 14v8q0 9 6 21l229 392h-206q-12 0 -12 13l6 40q1 12 15 12h292q13 0 13 -13v-4q0 -12 -5 -20l-230 -394h239q14 0 13 -13l-6 -42q-1 -14 -15 -14h-326q-13 0 -13 14z" />
    <glyph glyph-name="braceleft" unicode="{" horiz-adv-x="372" 
d="M129 54v170q0 60 -18.5 79t-55.5 19q-13 0 -13 14v33q0 14 13 14q37 0 55.5 19t18.5 79v157q0 80 33 110t106 30h9q13 0 13 -14v-25q0 -14 -13 -14h-20q-62 0 -62 -67v-178q0 -116 -67 -128q26 -5 46.5 -35.5t20.5 -96.5v-186q0 -32 13.5 -49.5t47.5 -17.5h21
q13 0 13 -14v-25q0 -14 -13 -14h-19q-68 0 -98.5 30t-30.5 110z" />
    <glyph glyph-name="bar" unicode="|" horiz-adv-x="274" 
d="M103 -182v1060q0 14 14 14h41q13 0 13 -14v-1060q0 -14 -13 -14h-41q-14 0 -14 14z" />
    <glyph glyph-name="braceright" unicode="}" horiz-adv-x="372" 
d="M81 -72v25q0 14 14 14h21q60 0 60 67v186q0 66 20.5 96.5t47.5 35.5q-68 12 -68 128v178q0 32 -13.5 49.5t-47.5 17.5h-20q-14 0 -14 14v25q0 14 14 14h9q73 0 106 -30t33 -110v-157q0 -60 18.5 -79t54.5 -19q14 0 14 -14v-33q0 -14 -14 -14q-37 0 -55 -19t-18 -79v-170
q0 -80 -30.5 -110t-98.5 -30h-19q-14 0 -14 14z" />
    <glyph glyph-name="asciitilde" unicode="~" horiz-adv-x="546" 
d="M119 280l-12 12q-13 12 -1 30q33 45 88 45q25 0 47.5 -13.5t36 -29.5t32 -29.5t38.5 -13.5q24 0 41 21q13 14 26 4l18 -16q11 -10 -1 -27q-36 -50 -90 -50q-26 0 -49.5 13.5t-37 30t-32 30t-35.5 13.5q-22 0 -42 -20q-14 -14 -27 0z" />
    <glyph glyph-name="exclamdown" unicode="&#xa1;" horiz-adv-x="238" 
d="M159 320v-502q0 -8 -3 -11t-11 -3h-52q-8 0 -11 3t-3 11v502q0 8 3 11t11 3h52q8 0 11 -3t3 -11zM159 487v-57q0 -8 -3 -10.5t-11 -2.5h-52q-8 0 -11 2.5t-3 10.5v57q0 8 3 11t11 3h52q8 0 11 -3t3 -11z" />
    <glyph glyph-name="cent" unicode="&#xa2;" 
d="M264 -3v92q-137 11 -137 159v179q0 144 137 158v98q0 14 13 14h32q14 0 14 -14v-96q48 -1 82 -10q14 -4 15 -16l5 -40q1 -7 -2 -9.5t-12 -0.5q-70 11 -110 11q-94 0 -94 -96v-172q0 -52 23 -75t71 -23q78 0 114 12q9 1 11.5 -1.5t2.5 -9.5l-5 -41q-1 -14 -15 -18
q-15 -7 -86 -10v-91q0 -14 -14 -14h-32q-13 0 -13 14z" />
    <glyph glyph-name="sterling" unicode="&#xa3;" 
d="M61 14v43q0 14 14 14h73v260h-59q-14 0 -14 13v27q0 14 14 14h59v137q0 96 52.5 140t159.5 44q75 0 99 -8q15 -4 16 -16l3 -39q1 -8 -2 -11t-10 -1q-47 9 -101 9q-73 0 -105 -28.5t-32 -88.5v-138h111q14 0 14 -14v-27q0 -13 -14 -13h-111v-260h252q14 0 14 -14v-43
q0 -14 -14 -14h-405q-14 0 -14 14z" />
    <glyph glyph-name="currency" unicode="&#xa4;" horiz-adv-x="724" 
d="M620 114l-20 -19q-9 -11 -20 0l-66 65q-71 -57 -156 -57q-81 0 -152 54l-68 -68q-10 -9 -19 0l-21 20q-9 11 0 21l69 68q-54 68 -54 154q0 85 53 153l-69 69q-11 10 0 20l20 20q10 11 20 0l69 -68q71 55 152 55q86 0 155 -58l68 68q11 9 21 0l20 -20q9 -11 0 -20l-69 -69
q52 -72 52 -150q0 -83 -52 -150l67 -68q10 -10 0 -20zM358 163q77 0 131.5 55.5t54.5 133.5t-54.5 133.5t-131.5 55.5q-76 0 -130.5 -55.5t-54.5 -133.5t54.5 -133.5t130.5 -55.5z" />
    <glyph glyph-name="yen" unicode="&#xa5;" 
d="M236 14v172h-94q-14 0 -14 14v29q0 14 14 14h94v55h-94q-14 0 -14 14v29q0 14 14 14h69l-166 319q-8 14 9 17l54 9q13 3 19 -10l115 -230q16 -31 33 -71h4q13 30 33 69l118 232q7 13 20 10l52 -9q15 -3 7 -17l-168 -319h71q14 0 14 -14v-29q0 -14 -14 -14h-96v-55h96
q14 0 14 -14v-29q0 -14 -14 -14h-96v-172q0 -14 -14 -14h-52q-14 0 -14 14z" />
    <glyph glyph-name="brokenbar" unicode="&#xa6;" horiz-adv-x="274" 
d="M103 458v420q0 14 14 14h41q13 0 13 -14v-420q0 -14 -13 -14h-41q-14 0 -14 14zM103 -182v420q0 14 14 14h41q13 0 13 -14v-420q0 -14 -13 -14h-41q-14 0 -14 14z" />
    <glyph glyph-name="section" unicode="&#xa7;" horiz-adv-x="564" 
d="M76 -77l-5 42q-1 8 2 11t12 1q75 -16 145 -16q73 0 104.5 18.5t31.5 73.5v13q0 52 -24 69t-78 24l-14 2q-53 8 -80.5 15.5t-54.5 25t-37.5 48.5t-10.5 80v208q0 94 48.5 131t145.5 37q73 0 129 -16q15 -5 16 -18l5 -39q1 -7 -2.5 -9.5t-10.5 -0.5q-70 17 -137 17
q-55 0 -84.5 -18.5t-29.5 -73.5v-5q0 -32 4.5 -49.5t20.5 -28.5t32.5 -15t54.5 -10l14 -2q94 -13 133 -45.5t39 -124.5v-209q0 -94 -50.5 -131.5t-159.5 -37.5q-41 0 -77.5 4t-51.5 8l-16 3q-13 4 -14 18zM247 231l20 -2q79 -13 100 -37l-1 6v15v22v40q0 28 -6.5 46
t-22.5 27.5t-29 13t-38 7.5l-14 2q-91 13 -110 35v-6q0 -7 0.5 -19t0.5 -25v-32q0 -52 22 -68.5t78 -24.5z" />
    <glyph glyph-name="dieresis" unicode="&#xa8;" horiz-adv-x="972" 
d="M441 654v-66q0 -8 -2.5 -11t-10.5 -3h-60q-8 0 -11 3t-3 11v66q0 8 3 11t11 3h60q8 0 10.5 -3t2.5 -11zM617 654v-66q0 -8 -2.5 -11t-10.5 -3h-60q-8 0 -11 3t-3 11v66q0 8 3 11t11 3h60q8 0 10.5 -3t2.5 -11z" />
    <glyph glyph-name="copyright" unicode="&#xa9;" horiz-adv-x="813" 
d="M87 165v366q0 95 49.5 136.5t154.5 41.5h233q105 0 154 -41.5t49 -136.5v-366q0 -94 -49.5 -135.5t-155.5 -41.5h-234q-105 0 -153 41t-48 136zM280 32h250q147 0 147 126v381q0 126 -145 126h-249q-147 0 -147 -126v-381q0 -126 144 -126zM416 563q52 0 74 -9
q10 -3 12 -15l2 -20q1 -9 -2.5 -12t-13.5 -1q-21 7 -69 7q-73 0 -73 -58v-210q0 -31 16.5 -44.5t52.5 -13.5q35 0 78 9q10 2 13 -1t2 -10l-3 -25q-2 -13 -16 -17q-32 -9 -79 -9q-63 0 -93 26.5t-30 86.5v203q0 113 129 113z" />
    <glyph glyph-name="ordfeminine" unicode="&#xaa;" horiz-adv-x="350" 
d="M36 354v7q0 53 31.5 73t101.5 23l60 2v19q0 30 -14.5 40t-44.5 10q-22 0 -85 -10q-9 -1 -11.5 1t-1.5 10l3 26q1 12 12 15q40 10 85 10q62 0 94.5 -23.5t32.5 -78.5v-182q0 -14 -12 -18q-43 -18 -121 -18q-66 0 -98 19t-32 75zM105 363v-5q0 -27 13.5 -36t45.5 -9
q37 0 65 6v93q-30 0 -62 -2q-33 -2 -47.5 -11t-14.5 -36z" />
    <glyph glyph-name="guillemotleft" unicode="&#xab;" horiz-adv-x="472" 
d="M152 66l-86 176q-5 12 0 24l87 175q5 12 20 12h40q15 0 9 -14l-91 -183l94 -188q8 -14 -8 -14h-44q-14 0 -21 12zM320 66l-86 176q-5 12 0 24l86 175q7 12 21 12h40q15 0 9 -14l-91 -183l94 -188q8 -14 -8 -14h-44q-14 0 -21 12z" />
    <glyph glyph-name="logicalnot" unicode="&#xac;" 
d="M93 292v41q0 14 14 14h340q14 0 14 -14v-173q0 -13 -14 -13h-43q-14 0 -14 13v118h-283q-14 0 -14 14z" />
    <glyph glyph-name="registered" unicode="&#xae;" horiz-adv-x="507" 
d="M65 401v200q0 54 29 77.5t90 23.5h141q61 0 88.5 -23.5t27.5 -77.5v-200q0 -54 -29 -78t-90 -24h-143q-59 0 -86.5 23.5t-27.5 78.5zM175 331h151q42 0 61 14.5t19 52.5v206q0 37 -18 51t-57 14h-151q-40 0 -60 -14.5t-20 -50.5v-206q0 -38 18 -52.5t57 -14.5zM187 402
v195q0 9 10 9h59q33 0 51 -12.5t18 -45.5v-9q0 -34 -32 -46q15 -5 26 -34l19 -53q3 -8 -5 -10l-20 -5q-7 -1 -10 7l-16 50q-6 17 -14 24t-25 7h-24v-77q0 -9 -10 -9h-18q-9 0 -9 9zM224 508h29q35 0 35 28v9q0 17 -7.5 24.5t-26.5 7.5h-30v-69z" />
    <glyph glyph-name="macron" unicode="&#xaf;" horiz-adv-x="520" 
d="M132 717v28q0 14 14 14h227q14 0 14 -14v-28q0 -14 -14 -14h-227q-14 0 -14 14z" />
    <glyph glyph-name="degree" unicode="&#xb0;" horiz-adv-x="355" 
d="M65 573v39q0 54 29.5 74.5t81.5 20.5h6q52 0 80 -20.5t28 -74.5v-39q0 -54 -29.5 -74.5t-81.5 -20.5h-6q-52 0 -80 20.5t-28 74.5zM175 519q33 0 50 12.5t17 43.5v39q0 31 -15 42t-47 11q-33 0 -49.5 -11.5t-16.5 -41.5v-40q0 -31 15 -43t46 -12z" />
    <glyph glyph-name="plusminus" unicode="&#xb1;" 
d="M452 340h-143v-153q0 -13 -14 -13h-35q-14 0 -14 13v153h-143q-14 0 -14 14v34q0 14 14 14h143v158q0 13 14 13h35q14 0 14 -13v-158h143q14 0 14 -14v-34q0 -14 -14 -14zM452 0h-349q-14 0 -14 14v34q0 14 14 14h349q14 0 14 -14v-34q0 -14 -14 -14z" />
    <glyph glyph-name="two.superior" unicode="&#xb2;" horiz-adv-x="375" 
d="M49 393v125q0 57 27 78t94 32l19 3q35 5 51 16t16 37v27q0 30 -19 40.5t-61 10.5h-3q-44 0 -92 -8q-7 -1 -9.5 1t-1.5 9l3 30q1 12 14 15q32 8 90 8h3q77 0 112 -24t35 -85v-23q0 -58 -27 -78t-95 -30l-26 -4q-32 -4 -45.5 -14t-13.5 -38v-88h196q13 0 12 -13l-4 -27
q-1 -13 -14 -13h-249q-12 0 -12 13z" />
    <glyph glyph-name="three.superior" unicode="&#xb3;" horiz-adv-x="354" 
d="M39 399l-4 33q-1 7 2 9t11 1q45 -9 102 -9h4q44 0 62.5 12.5t18.5 44.5v31q0 30 -16 42.5t-56 12.5h-62q-13 0 -13 12v31q0 12 13 12h56q40 0 56.5 12t16.5 43v21q0 31 -16.5 43t-55.5 12h-2q-57 0 -101 -8q-7 -1 -9.5 1.5t-1.5 9.5l4 30q1 11 14 15q38 7 91 7h3
q77 0 111 -26t34 -89v-10q0 -66 -56 -84q61 -13 61 -91v-27q0 -62 -35 -88.5t-115 -26.5h-3q-66 0 -100 8q-13 4 -14 16z" />
    <glyph glyph-name="acute" unicode="&#xb4;" horiz-adv-x="280" 
d="M179 800l-72 -138q-7 -12 -20 -12h-44q-16 0 -10 14l60 137q5 13 19 13h57q16 0 10 -14z" />
    <glyph glyph-name="mu" unicode="&#xb5;" horiz-adv-x="513" 
d="M77 -208v694q0 14 14 14h53q13 0 13 -14v-344q0 -48 15 -65t52 -17q42 0 77 23.5t54 54.5v348q0 14 14 14h53q13 0 13 -14v-472q0 -14 -13 -14h-43q-14 0 -15 14l-3 45h-3q-59 -66 -138 -66q-40 0 -65 19q2 -30 2 -55v-165q0 -14 -13 -14h-53q-14 0 -14 14z" />
    <glyph glyph-name="paragraph" unicode="&#xb6;" horiz-adv-x="597" 
d="M460 14v669q0 14 14 14h22q14 0 14 -14v-669q0 -14 -14 -14h-22q-14 0 -14 14zM341 14v303h-104q-151 0 -151 150v82q0 148 150 148h140q14 0 14 -14v-669q0 -14 -14 -14h-22q-13 0 -13 14z" />
    <glyph glyph-name="periodcentered" unicode="&#xb7;" horiz-adv-x="219" 
d="M65 293v62q0 14 14 14h61q14 0 14 -14v-62q0 -14 -14 -14h-61q-14 0 -14 14z" />
    <glyph glyph-name="cedilla" unicode="&#xb8;" horiz-adv-x="410" 
d="M91 -234v25q0 14 13 11q2 0 16.5 -3.5t35 -6.5t40.5 -3q41 0 56.5 14t15.5 41q0 29 -21 41t-82 12h-3q-14 0 -14 14v106h59v-73q67 -1 94 -29.5t27 -65.5q0 -114 -120 -114q-71 0 -106 14q-11 4 -11 17z" />
    <glyph glyph-name="one.superior" unicode="&#xb9;" horiz-adv-x="235" 
d="M107 393v345l-52 -22q-15 -6 -20 5l-11 31q-6 12 6 19l81 36q15 5 22 5h32q13 0 13 -13v-406q0 -13 -13 -13h-45q-13 0 -13 13z" />
    <glyph glyph-name="ordmasculine" unicode="&#xba;" horiz-adv-x="364" 
d="M49 369v102q0 110 131 110h7q128 0 128 -110v-102q0 -110 -132 -110h-6q-128 0 -128 110zM175 315h11q57 0 57 55v94q0 35 -10.5 50t-43.5 15h-11q-58 0 -58 -52v-94q0 -36 11 -52t44 -16z" />
    <glyph glyph-name="guillemotright" unicode="&#xbb;" horiz-adv-x="471" 
d="M81 68l91 182l-93 189q-8 14 8 14h46q12 0 19 -12l86 -175q5 -12 0 -24l-86 -176q-7 -12 -19 -12h-43q-15 0 -9 14zM248 68l91 182l-94 189q-6 14 9 14h46q13 0 18 -12l87 -175q5 -12 0 -24l-87 -176q-5 -12 -18 -12h-43q-15 0 -9 14z" />
    <glyph glyph-name="onequarter" unicode="&#xbc;" horiz-adv-x="694" 
d="M117 -8l332 713q5 13 17 13h38q16 0 9 -15l-332 -712q-5 -13 -17 -13h-38q-17 0 -9 14zM107 278v345l-52 -22q-15 -7 -20 5l-11 31q-6 12 6 19l82 36q13 5 21 5h32q13 0 13 -13v-406q0 -13 -13 -13h-45q-13 0 -13 13zM353 131l-5 30q-2 9 6 22l141 245q5 11 18 7l41 -16
q11 -4 4 -15l-74 -124l-64 -106h149v75q0 13 13 14l46 5q7 1 9.5 -1.5t2.5 -10.5v-243q0 -13 -12 -13h-46q-13 0 -13 13v106h-204q-6 0 -8 2.5t-4 9.5z" />
    <glyph glyph-name="onehalf" unicode="&#xbd;" horiz-adv-x="742" 
d="M112 -8l332 713q6 13 18 13h38q16 0 9 -15l-332 -712q-7 -13 -17 -13h-39q-15 0 -9 14zM107 278v345l-52 -22q-15 -7 -20 5l-11 31q-6 12 6 19l82 36q13 5 21 5h32q13 0 13 -13v-406q0 -13 -13 -13h-45q-13 0 -13 13zM414 13v125q0 57 27 78t94 32l19 3q35 5 51 17t16 38
v24q0 29 -19 40.5t-60 11.5h-4q-42 0 -92 -8q-7 -1 -9 1t-1 9l2 30q1 12 14 15q32 8 90 8h3q77 0 112 -24t35 -85v-20q0 -57 -28 -79t-93 -32l-27 -4q-31 -4 -45 -14t-14 -38v-88h196q13 0 12 -13l-4 -27q-1 -13 -14 -13h-248q-13 0 -13 13z" />
    <glyph glyph-name="threequarters" unicode="&#xbe;" horiz-adv-x="790" 
d="M213 -8l332 713q5 13 17 13h38q16 0 10 -15l-332 -712q-6 -13 -18 -13h-38q-17 0 -9 14zM39 284l-4 33q-1 7 2 9t11 1q45 -9 102 -9h4q44 0 62.5 12.5t18.5 44.5v31q0 30 -16 42.5t-56 12.5h-62q-13 0 -13 12v31q0 12 13 12h56q39 0 56 13t17 44v19q0 31 -15.5 43
t-56.5 12h-2q-42 0 -101 -8q-7 -1 -9.5 1.5t-1.5 9.5l4 30q1 11 14 15q38 7 91 7h3q77 0 111 -26t34 -89v-10q0 -67 -56 -84q61 -13 61 -91v-27q0 -62 -35 -88.5t-115 -26.5h-3q-66 0 -100 8q-13 4 -14 16zM448 131l-4 30q-2 9 5 22l142 245q5 11 18 7l41 -16q11 -4 4 -15
l-74 -124l-64 -106h149v75q0 13 13 14l46 5q7 1 9.5 -1.5t2.5 -10.5v-243q0 -13 -12 -13h-46q-13 0 -13 13v106h-204q-10 0 -13 12z" />
    <glyph glyph-name="questiondown" unicode="&#xbf;" horiz-adv-x="444" 
d="M307 338v-97q0 -18 -2 -34t-4.5 -27.5t-9.5 -23.5t-10 -18t-14.5 -16.5l-15.5 -14t-19 -15.5t-19 -16l-14 -11l-12.5 -10t-10 -8.5t-9.5 -9.5t-6.5 -9t-6 -10.5t-3.5 -11.5t-2.5 -14.5t-0.5 -16.5v-24q0 -55 26.5 -72.5t75.5 -17.5q31 0 61.5 3.5t45.5 6.5l15 3
q8 2 11 -1t2 -11l-4 -38q-1 -12 -15 -16q-46 -13 -113 -13q-92 0 -138.5 35t-46.5 125v26q0 27 4.5 46.5t16.5 35t20.5 24t29.5 24t31 24.5q3 3 12 10.5t11.5 10t9 8.5t8 8.5t5.5 8.5t5 10.5t3 11.5t2.5 14.5t0.5 16.5v104q0 14 13 14h53q14 0 14 -14zM307 487v-57
q0 -13 -14 -13h-53q-13 0 -13 13v57q0 14 13 14h53q14 0 14 -14z" />
    <glyph glyph-name="Agrave" unicode="&#xc0;" horiz-adv-x="513" 
d="M479 4l-53 -8q-13 -1 -17 11l-42 166h-227l-41 -165q-3 -13 -17 -12l-50 8q-13 1 -10 15l171 664q3 14 17 14h91q14 0 17 -14l171 -664q4 -14 -10 -15zM353 240l-97 388h-4l-97 -388h198zM213 770l-72 138q-6 14 10 14h57q14 0 19 -13l60 -137q6 -14 -10 -14h-44
q-13 0 -20 12z" />
    <glyph glyph-name="Aacute" unicode="&#xc1;" horiz-adv-x="513" 
d="M479 4l-53 -8q-13 -1 -17 11l-42 166h-227l-41 -165q-3 -13 -17 -12l-50 8q-13 1 -10 15l171 664q3 14 17 14h91q14 0 17 -14l171 -664q4 -14 -10 -15zM353 240l-97 388h-4l-97 -388h198zM368 908l-72 -138q-7 -12 -20 -12h-44q-16 0 -10 14l60 137q5 13 19 13h57
q16 0 10 -14z" />
    <glyph glyph-name="Acircumflex" unicode="&#xc2;" horiz-adv-x="513" 
d="M479 4l-53 -8q-13 -1 -17 11l-42 166h-227l-41 -165q-3 -13 -17 -12l-50 8q-13 1 -10 15l171 664q3 14 17 14h91q14 0 17 -14l171 -664q4 -14 -10 -15zM353 240l-97 388h-4l-97 -388h198zM124 775l101 118q8 10 21 10h18q13 0 21 -10l101 -118q10 -12 -7 -12h-46
q-12 0 -21 10l-59 70l-60 -70q-10 -10 -22 -10h-41q-7 0 -9 3.5t3 8.5z" />
    <glyph glyph-name="Atilde" unicode="&#xc3;" horiz-adv-x="513" 
d="M479 4l-53 -8q-13 -1 -17 11l-42 166h-227l-41 -165q-3 -13 -17 -12l-50 8q-13 1 -10 15l171 664q3 14 17 14h91q14 0 17 -14l171 -664q4 -14 -10 -15zM353 240l-97 388h-4l-97 -388h198zM136 782l-14 21q-7 10 2 21q24 30 70 30q33 0 66 -22t53 -22q22 0 38 17
q9 14 21 0l13 -18q9 -9 -1 -24q-28 -37 -72 -37q-32 0 -65.5 22t-54.5 22t-38 -13q-10 -8 -18 3z" />
    <glyph glyph-name="Adieresis" unicode="&#xc4;" horiz-adv-x="513" 
d="M479 4l-53 -8q-13 -1 -17 11l-42 166h-227l-41 -165q-3 -13 -17 -12l-50 8q-13 1 -10 15l171 664q3 14 17 14h91q14 0 17 -14l171 -664q4 -14 -10 -15zM353 240l-97 388h-4l-97 -388h198zM209 841v-66q0 -8 -2.5 -11t-10.5 -3h-60q-8 0 -11 3t-3 11v66q0 8 3 11t11 3h60
q8 0 10.5 -3t2.5 -11zM385 841v-66q0 -8 -2.5 -11t-10.5 -3h-60q-8 0 -11 3t-3 11v66q0 8 3 11t11 3h60q8 0 10.5 -3t2.5 -11z" />
    <glyph glyph-name="Aring" unicode="&#xc5;" horiz-adv-x="513" 
d="M479 4l-53 -8q-13 -1 -17 11l-42 166h-227l-41 -165q-3 -13 -17 -12l-50 8q-13 1 -10 15l171 664q3 14 17 14h91q14 0 17 -14l171 -664q4 -14 -10 -15zM353 240l-97 388h-4l-97 -388h198zM151 830v23q0 90 91 90h27q91 0 91 -90v-23q0 -90 -91 -90h-27q-91 0 -91 90z
M246 784h19q28 0 38.5 10.5t10.5 38.5v16q0 28 -10.5 39t-38.5 11h-19q-29 0 -39 -11t-10 -39v-16q0 -28 10 -38.5t39 -10.5z" />
    <glyph glyph-name="AE" unicode="&#xc6;" horiz-adv-x="843" 
d="M414 232v351l-199 -351h199zM776 0h-349q-13 0 -13 14v152h-236l-88 -154q-7 -12 -21 -12h-56q-16 0 -8 15l385 670q7 12 20 12h358q15 0 16 -14l4 -37q2 -15 -13 -15h-281v-235h221q13 0 13 -13v-42q0 -14 -13 -14h-221v-256h290q17 0 14 -14l-7 -44q-3 -13 -15 -13z
" />
    <glyph glyph-name="Ccedilla" unicode="&#xc7;" horiz-adv-x="475" 
d="M161 -223v25q0 14 13 11q2 0 16.5 -3.5t35 -6.5t40.5 -3q41 0 56.5 14t15.5 41q0 29 -21 41t-82 12h-3q-14 0 -14 14v73q-74 10 -110 53.5t-36 126.5v347q0 96 53 140t159 44q32 0 62 -3t44 -7l14 -3q15 -4 16 -16l3 -40q1 -8 -2 -10.5t-11 -1.5q-63 15 -125 15
q-70 0 -101.5 -28.5t-31.5 -88.5v-345q0 -61 28 -88.5t97 -27.5q35 0 69.5 4t51.5 8l17 4q8 2 11.5 -1t2.5 -10l-5 -42q-1 -13 -15 -18q-48 -15 -132 -16v-36q67 -1 94 -29.5t27 -65.5q0 -114 -120 -114q-71 0 -106 14q-11 4 -11 17z" />
    <glyph glyph-name="Egrave" unicode="&#xc8;" horiz-adv-x="494" 
d="M80 14v669q0 14 14 14h326q14 0 15 -14l5 -37q2 -15 -13 -15h-267v-234h216q14 0 14 -14v-42q0 -13 -14 -13h-216v-257h276q15 0 14 -14l-7 -44q-3 -13 -16 -13h-333q-14 0 -14 14zM227 770l-72 138q-6 14 10 14h57q14 0 19 -13l60 -137q6 -14 -10 -14h-44q-13 0 -20 12z
" />
    <glyph glyph-name="Eacute" unicode="&#xc9;" horiz-adv-x="494" 
d="M80 14v669q0 14 14 14h326q14 0 15 -14l5 -37q2 -15 -13 -15h-267v-234h216q14 0 14 -14v-42q0 -13 -14 -13h-216v-257h276q15 0 14 -14l-7 -44q-3 -13 -16 -13h-333q-14 0 -14 14zM381 908l-72 -138q-7 -12 -20 -12h-44q-16 0 -10 14l60 137q5 13 19 13h57q16 0 10 -14z
" />
    <glyph glyph-name="Ecircumflex" unicode="&#xca;" horiz-adv-x="494" 
d="M80 14v669q0 14 14 14h326q14 0 15 -14l5 -37q2 -15 -13 -15h-267v-234h216q14 0 14 -14v-42q0 -13 -14 -13h-216v-257h276q15 0 14 -14l-7 -44q-3 -13 -16 -13h-333q-14 0 -14 14zM137 775l101 118q8 10 21 10h18q13 0 21 -10l101 -118q10 -12 -7 -12h-46q-12 0 -21 10
l-59 70l-60 -70q-10 -10 -22 -10h-41q-7 0 -9 3.5t3 8.5z" />
    <glyph glyph-name="Edieresis" unicode="&#xcb;" horiz-adv-x="494" 
d="M80 14v669q0 14 14 14h326q14 0 15 -14l5 -37q2 -15 -13 -15h-267v-234h216q14 0 14 -14v-42q0 -13 -14 -13h-216v-257h276q15 0 14 -14l-7 -44q-3 -13 -16 -13h-333q-14 0 -14 14zM223 841v-66q0 -8 -2.5 -11t-10.5 -3h-60q-8 0 -11 3t-3 11v66q0 8 3 11t11 3h60
q8 0 10.5 -3t2.5 -11zM399 841v-66q0 -8 -2.5 -11t-10.5 -3h-60q-8 0 -11 3t-3 11v66q0 8 3 11t11 3h60q8 0 10.5 -3t2.5 -11z" />
    <glyph glyph-name="Igrave" unicode="&#xcc;" horiz-adv-x="241" 
d="M80 14v669q0 14 14 14h53q13 0 13 -14v-669q0 -14 -13 -14h-53q-14 0 -14 14zM79 770l-72 138q-6 14 10 14h57q14 0 19 -13l60 -137q6 -14 -10 -14h-44q-13 0 -20 12z" />
    <glyph glyph-name="Iacute" unicode="&#xcd;" horiz-adv-x="241" 
d="M80 14v669q0 14 14 14h53q13 0 13 -14v-669q0 -14 -13 -14h-53q-14 0 -14 14zM234 908l-72 -138q-7 -12 -20 -12h-44q-16 0 -10 14l60 137q5 13 19 13h57q16 0 10 -14z" />
    <glyph glyph-name="Icircumflex" unicode="&#xce;" horiz-adv-x="241" 
d="M80 14v669q0 14 14 14h53q13 0 13 -14v-669q0 -14 -13 -14h-53q-14 0 -14 14zM-10 775l101 118q8 10 21 10h18q13 0 21 -10l101 -118q10 -12 -7 -12h-46q-12 0 -21 10l-59 70l-60 -70q-10 -10 -22 -10h-41q-7 0 -9 3.5t3 8.5z" />
    <glyph glyph-name="Idieresis" unicode="&#xcf;" horiz-adv-x="241" 
d="M80 14v669q0 14 14 14h53q13 0 13 -14v-669q0 -14 -13 -14h-53q-14 0 -14 14zM75 841v-66q0 -8 -2.5 -11t-10.5 -3h-60q-8 0 -11 3t-3 11v66q0 8 3 11t11 3h60q8 0 10.5 -3t2.5 -11zM251 841v-66q0 -8 -2.5 -11t-10.5 -3h-60q-8 0 -11 3t-3 11v66q0 8 3 11t11 3h60
q8 0 10.5 -3t2.5 -11z" />
    <glyph glyph-name="Eth" unicode="&#xd0;" horiz-adv-x="553" 
d="M18 353v30q0 13 13 13h54v287q0 14 14 14h177q106 0 155.5 -43.5t49.5 -140.5v-328q0 -97 -53 -141t-158 -44h-171q-14 0 -14 14v326h-54q-13 0 -13 13zM401 187v327q0 61 -28.5 89t-97.5 28h-110v-235h79q13 0 13 -13v-30q0 -13 -13 -13h-79v-269h103q70 0 101.5 28.5
t31.5 87.5z" />
    <glyph glyph-name="Ntilde" unicode="&#xd1;" horiz-adv-x="577" 
d="M80 14v669q0 14 14 14h67q13 0 18 -12l189 -428q33 -73 55 -144h4q-8 84 -8 232v338q0 14 13 14h51q14 0 14 -14v-669q0 -14 -15 -14h-64q-14 0 -19 12l-187 423q-42 96 -58 149h-4q9 -93 9 -257v-313q0 -14 -14 -14h-51q-14 0 -14 14zM171 782l-14 21q-7 10 2 21
q24 30 70 30q33 0 66 -22t53 -22q22 0 38 17q9 14 21 0l13 -18q9 -9 -1 -24q-28 -37 -72 -37q-32 0 -65.5 22t-54.5 22t-38 -13q-10 -8 -18 3z" />
    <glyph glyph-name="Ograve" unicode="&#xd2;" horiz-adv-x="576" 
d="M72 172v353q0 96 52.5 140t159.5 44h14q106 0 155.5 -43.5t49.5 -140.5v-353q0 -96 -53 -140t-160 -44h-13q-106 0 -155.5 43.5t-49.5 140.5zM278 59h12q71 0 102.5 28t31.5 88v351q0 61 -28.5 89t-98.5 28h-12q-70 0 -101.5 -28.5t-31.5 -88.5v-351q0 -61 28 -88.5
t98 -27.5zM248 768l-72 138q-6 14 10 14h57q14 0 19 -13l60 -137q6 -14 -10 -14h-44q-13 0 -20 12z" />
    <glyph glyph-name="Oacute" unicode="&#xd3;" horiz-adv-x="576" 
d="M72 172v353q0 96 52.5 140t159.5 44h14q106 0 155.5 -43.5t49.5 -140.5v-353q0 -96 -53 -140t-160 -44h-13q-106 0 -155.5 43.5t-49.5 140.5zM278 59h12q71 0 102.5 28t31.5 88v351q0 61 -28.5 89t-98.5 28h-12q-70 0 -101.5 -28.5t-31.5 -88.5v-351q0 -61 28 -88.5
t98 -27.5zM402 906l-72 -138q-7 -12 -20 -12h-44q-16 0 -10 14l60 137q5 13 19 13h57q16 0 10 -14z" />
    <glyph glyph-name="Ocircumflex" unicode="&#xd4;" horiz-adv-x="576" 
d="M72 172v353q0 96 52.5 140t159.5 44h14q106 0 155.5 -43.5t49.5 -140.5v-353q0 -96 -53 -140t-160 -44h-13q-106 0 -155.5 43.5t-49.5 140.5zM278 59h12q71 0 102.5 28t31.5 88v351q0 61 -28.5 89t-98.5 28h-12q-70 0 -101.5 -28.5t-31.5 -88.5v-351q0 -61 28 -88.5
t98 -27.5zM158 773l101 118q8 10 21 10h18q13 0 21 -10l101 -118q10 -12 -7 -12h-46q-12 0 -21 10l-59 70l-60 -70q-10 -10 -22 -10h-41q-7 0 -9 3.5t3 8.5z" />
    <glyph glyph-name="Otilde" unicode="&#xd5;" horiz-adv-x="576" 
d="M72 172v353q0 96 52.5 140t159.5 44h14q106 0 155.5 -43.5t49.5 -140.5v-353q0 -96 -53 -140t-160 -44h-13q-106 0 -155.5 43.5t-49.5 140.5zM278 59h12q71 0 102.5 28t31.5 88v351q0 61 -28.5 89t-98.5 28h-12q-70 0 -101.5 -28.5t-31.5 -88.5v-351q0 -61 28 -88.5
t98 -27.5zM171 780l-14 21q-7 10 2 21q24 30 70 30q33 0 66 -22t53 -22q22 0 38 17q9 14 21 0l13 -18q9 -9 -1 -24q-28 -37 -72 -37q-32 0 -65.5 22t-54.5 22t-38 -13q-10 -8 -18 3z" />
    <glyph glyph-name="Odieresis" unicode="&#xd6;" horiz-adv-x="576" 
d="M72 172v353q0 96 52.5 140t159.5 44h14q106 0 155.5 -43.5t49.5 -140.5v-353q0 -96 -53 -140t-160 -44h-13q-106 0 -155.5 43.5t-49.5 140.5zM278 59h12q71 0 102.5 28t31.5 88v351q0 61 -28.5 89t-98.5 28h-12q-70 0 -101.5 -28.5t-31.5 -88.5v-351q0 -61 28 -88.5
t98 -27.5zM244 839v-66q0 -8 -2.5 -11t-10.5 -3h-60q-8 0 -11 3t-3 11v66q0 8 3 11t11 3h60q8 0 10.5 -3t2.5 -11zM420 839v-66q0 -8 -2.5 -11t-10.5 -3h-60q-8 0 -11 3t-3 11v66q0 8 3 11t11 3h60q8 0 10.5 -3t2.5 -11z" />
    <glyph glyph-name="multiply" unicode="&#xd7;" 
d="M110 121l-23 24q-11 10 0 20l147 148l-149 148q-10 10 0 20l24 24q9 9 20 0l149 -149l148 149q10 10 20 0l24 -24q10 -10 0 -20l-148 -148l146 -148q10 -10 0 -20l-24 -23q-9 -11 -20 0l-146 147l-148 -148q-10 -10 -20 0z" />
    <glyph glyph-name="Oslash" unicode="&#xd8;" horiz-adv-x="576" 
d="M93 -63l36 89q-57 41 -57 146v353q0 96 52.5 140t159.5 44h14q66 0 100 -14l25 61q4 13 17 13h29q17 0 10 -13l-35 -83q59 -43 59 -148v-353q0 -96 -53 -140t-160 -44h-13q-65 0 -103 13l-26 -64q-5 -13 -17 -13h-27q-15 0 -11 13zM278 59h12q81 0 107.5 33.5t26.5 115.5
v285q0 83 -23.5 116.5t-103.5 33.5h-12q-81 0 -107 -34t-26 -116v-285q0 -84 23 -116.5t103 -32.5z" />
    <glyph glyph-name="Ugrave" unicode="&#xd9;" horiz-adv-x="562" 
d="M76 165v518q0 14 14 14h53q13 0 13 -14v-515q0 -59 28 -84t93 -25q66 0 97.5 25.5t31.5 83.5v515q0 14 14 14h52q14 0 14 -14v-518q0 -95 -52 -136t-153 -41h-7q-100 0 -149 41t-49 136zM240 770l-72 138q-6 14 10 14h57q14 0 19 -13l60 -137q6 -14 -10 -14h-44
q-13 0 -20 12z" />
    <glyph glyph-name="Uacute" unicode="&#xda;" horiz-adv-x="562" 
d="M76 165v518q0 14 14 14h53q13 0 13 -14v-515q0 -59 28 -84t93 -25q66 0 97.5 25.5t31.5 83.5v515q0 14 14 14h52q14 0 14 -14v-518q0 -95 -52 -136t-153 -41h-7q-100 0 -149 41t-49 136zM394 908l-72 -138q-7 -12 -20 -12h-44q-16 0 -10 14l60 137q5 13 19 13h57
q16 0 10 -14z" />
    <glyph glyph-name="Ucircumflex" unicode="&#xdb;" horiz-adv-x="562" 
d="M76 165v518q0 14 14 14h53q13 0 13 -14v-515q0 -59 28 -84t93 -25q66 0 97.5 25.5t31.5 83.5v515q0 14 14 14h52q14 0 14 -14v-518q0 -95 -52 -136t-153 -41h-7q-100 0 -149 41t-49 136zM150 775l101 118q8 10 21 10h18q13 0 21 -10l101 -118q10 -12 -7 -12h-46
q-12 0 -21 10l-59 70l-60 -70q-10 -10 -22 -10h-41q-7 0 -9 3.5t3 8.5z" />
    <glyph glyph-name="Udieresis" unicode="&#xdc;" horiz-adv-x="562" 
d="M76 165v518q0 14 14 14h53q13 0 13 -14v-515q0 -59 28 -84t93 -25q66 0 97.5 25.5t31.5 83.5v515q0 14 14 14h52q14 0 14 -14v-518q0 -95 -52 -136t-153 -41h-7q-100 0 -149 41t-49 136zM236 841v-66q0 -8 -2.5 -11t-10.5 -3h-60q-8 0 -11 3t-3 11v66q0 8 3 11t11 3h60
q8 0 10.5 -3t2.5 -11zM412 841v-66q0 -8 -2.5 -11t-10.5 -3h-60q-8 0 -11 3t-3 11v66q0 8 3 11t11 3h60q8 0 10.5 -3t2.5 -11z" />
    <glyph glyph-name="Yacute" unicode="&#xdd;" horiz-adv-x="484" 
d="M200 14v293l-193 370q-7 14 9 16l55 7q14 1 20 -9l115 -231q20 -39 33 -71h3q16 35 34 70l118 232q6 10 19 9l53 -7q15 -2 7 -16l-194 -370v-293q0 -14 -13 -14h-53q-13 0 -13 14zM351 908l-72 -138q-7 -12 -20 -12h-44q-16 0 -10 14l60 137q5 13 19 13h57q16 0 10 -14z
" />
    <glyph glyph-name="Thorn" unicode="&#xde;" horiz-adv-x="526" 
d="M80 14v669q0 14 14 14h53q13 0 13 -14v-105h112q109 0 153.5 -39.5t44.5 -139.5v-61q0 -99 -47 -139t-156 -40h-107v-145q0 -8 -3.5 -11t-13.5 -3h-49q-14 0 -14 14zM160 228h106q75 0 99.5 26.5t24.5 99.5v56q0 58 -28 80.5t-105 22.5h-97v-285z" />
    <glyph glyph-name="germandbls" unicode="&#xdf;" horiz-adv-x="540" 
d="M74 14v535q0 89 47.5 124.5t131.5 35.5h11q83 0 128 -37t45 -133v-41q0 -96 -50 -124q91 -22 91 -151v-58q0 -171 -162 -171q-32 0 -50 3q-12 4 -14 16l-5 38q-1 9 2 12t12 2q26 -2 49 -2q88 0 88 109v48q0 58 -22.5 82t-72.5 24h-17q-13 0 -13 14v38q0 14 13 14h5
q66 2 66 93v52q0 60 -22 83.5t-71 23.5h-12q-51 0 -74.5 -22.5t-23.5 -75.5v-532q0 -14 -13 -14h-53q-14 0 -14 14z" />
    <glyph glyph-name="agrave" unicode="&#xe0;" horiz-adv-x="481" 
d="M49 139v20q0 43 14.5 72t42.5 44t57.5 21.5t70.5 9.5l96 4v37q0 53 -23 75t-73 22q-57 0 -123 -16q-8 -2 -11 1.5t-2 10.5l4 39q1 12 13 15q50 15 120 15q81 0 127 -35.5t46 -124.5v-310q0 -14 -15 -20q-70 -28 -167 -28q-91 0 -134 33t-43 115zM127 155v-16
q0 -42 23 -62t78 -20q68 0 102 15v175q-59 0 -94 -3q-60 -5 -84.5 -23.5t-24.5 -65.5zM203 599l-72 138q-6 14 10 14h57q14 0 19 -13l60 -137q6 -14 -10 -14h-44q-13 0 -20 12z" />
    <glyph glyph-name="aacute" unicode="&#xe1;" horiz-adv-x="481" 
d="M49 139v20q0 43 14.5 72t42.5 44t57.5 21.5t70.5 9.5l96 4v37q0 53 -23 75t-73 22q-57 0 -123 -16q-8 -2 -11 1.5t-2 10.5l4 39q1 12 13 15q50 15 120 15q81 0 127 -35.5t46 -124.5v-310q0 -14 -15 -20q-70 -28 -167 -28q-91 0 -134 33t-43 115zM127 155v-16
q0 -42 23 -62t78 -20q68 0 102 15v175q-59 0 -94 -3q-60 -5 -84.5 -23.5t-24.5 -65.5zM357 737l-72 -138q-7 -12 -20 -12h-44q-16 0 -10 14l60 137q5 13 19 13h57q16 0 10 -14z" />
    <glyph glyph-name="acircumflex" unicode="&#xe2;" horiz-adv-x="481" 
d="M49 139v20q0 43 14.5 72t42.5 44t57.5 21.5t70.5 9.5l96 4v37q0 53 -23 75t-73 22q-57 0 -123 -16q-8 -2 -11 1.5t-2 10.5l4 39q1 12 13 15q50 15 120 15q81 0 127 -35.5t46 -124.5v-310q0 -14 -15 -20q-70 -28 -167 -28q-91 0 -134 33t-43 115zM127 155v-16
q0 -42 23 -62t78 -20q68 0 102 15v175q-59 0 -94 -3q-60 -5 -84.5 -23.5t-24.5 -65.5zM113 604l101 118q8 10 21 10h18q13 0 21 -10l101 -118q10 -12 -7 -12h-46q-12 0 -21 10l-59 70l-60 -70q-10 -10 -22 -10h-41q-7 0 -9 4t3 8z" />
    <glyph glyph-name="atilde" unicode="&#xe3;" horiz-adv-x="481" 
d="M49 139v20q0 43 14.5 72t42.5 44t57.5 21.5t70.5 9.5l96 4v37q0 53 -23 75t-73 22q-57 0 -123 -16q-8 -2 -11 1.5t-2 10.5l4 39q1 12 13 15q50 15 120 15q81 0 127 -35.5t46 -124.5v-310q0 -14 -15 -20q-70 -28 -167 -28q-91 0 -134 33t-43 115zM127 155v-16
q0 -42 23 -62t78 -20q68 0 102 15v175q-59 0 -94 -3q-60 -5 -84.5 -23.5t-24.5 -65.5zM126 611l-14 21q-7 10 2 21q24 30 70 30q33 0 66 -22t53 -22q22 0 38 17q9 14 21 0l13 -18q9 -9 -1 -24q-28 -37 -72 -37q-32 0 -65.5 22t-54.5 22t-38 -13q-10 -8 -18 3z" />
    <glyph glyph-name="adieresis" unicode="&#xe4;" horiz-adv-x="481" 
d="M49 139v20q0 43 14.5 72t42.5 44t57.5 21.5t70.5 9.5l96 4v37q0 53 -23 75t-73 22q-57 0 -123 -16q-8 -2 -11 1.5t-2 10.5l4 39q1 12 13 15q50 15 120 15q81 0 127 -35.5t46 -124.5v-310q0 -14 -15 -20q-70 -28 -167 -28q-91 0 -134 33t-43 115zM127 155v-16
q0 -42 23 -62t78 -20q68 0 102 15v175q-59 0 -94 -3q-60 -5 -84.5 -23.5t-24.5 -65.5zM199 670v-66q0 -8 -2.5 -11t-10.5 -3h-60q-8 0 -11 3t-3 11v66q0 8 3 11t11 3h60q8 0 10.5 -3t2.5 -11zM375 670v-66q0 -8 -2.5 -11t-10.5 -3h-60q-8 0 -11 3t-3 11v66q0 8 3 11t11 3h60
q8 0 10.5 -3t2.5 -11z" />
    <glyph glyph-name="aring" unicode="&#xe5;" horiz-adv-x="481" 
d="M49 139v20q0 43 14.5 72t42.5 44t57.5 21.5t70.5 9.5l96 4v37q0 53 -23 75t-73 22q-57 0 -123 -16q-8 -2 -11 1.5t-2 10.5l4 39q1 12 13 15q50 15 120 15q81 0 127 -35.5t46 -124.5v-310q0 -14 -15 -20q-70 -28 -167 -28q-91 0 -134 33t-43 115zM127 155v-16
q0 -42 23 -62t78 -20q68 0 102 15v175q-59 0 -94 -3q-60 -5 -84.5 -23.5t-24.5 -65.5zM141 659v23q0 90 91 90h27q91 0 91 -90v-23q0 -90 -91 -90h-27q-91 0 -91 90zM236 613h19q28 0 38.5 10.5t10.5 38.5v16q0 28 -10.5 39t-38.5 11h-19q-29 0 -39 -11t-10 -39v-16
q0 -28 10 -38.5t39 -10.5z" />
    <glyph glyph-name="ae" unicode="&#xe6;" horiz-adv-x="742" 
d="M49 139v19q0 43 14.5 72t43 44.5t58 22t70.5 9.5q16 1 50 2t45 2v36q0 53 -23 75t-73 22q-51 0 -123 -16q-8 -2 -11 0.5t-2 10.5l4 40q2 13 13 16q56 14 120 14q98 0 135 -56q40 58 144 58h12q164 0 164 -140v-14q0 -71 -35 -97t-122 -26q-54 0 -125 15v-82
q0 -62 25.5 -84t91.5 -22q61 0 131 17q7 1 10 -2t2 -7l-5 -44q0 -10 -18 -17q-40 -16 -125 -16h-6q-105 0 -144 61q-44 -62 -151 -62q-86 0 -128 35.5t-42 113.5zM408 350v-40q59 -16 125 -16q44 0 62 15t18 51v8q0 38 -21 58t-72 20h-3q-58 0 -83.5 -21.5t-25.5 -74.5z
M127 152v-10q0 -43 23 -63t78 -20q61 0 81.5 29t20.5 100v59q-88 -2 -94 -3q-61 -6 -85 -24.5t-24 -67.5z" />
    <glyph glyph-name="ccedilla" unicode="&#xe7;" horiz-adv-x="405" 
d="M119 -223v25q0 14 13 11q2 0 16.5 -3.5t35 -6.5t40.5 -3q41 0 56.5 14t15.5 41q0 29 -21 41t-82 12h-3q-14 0 -14 14v75q-108 23 -108 155v196q0 161 173 161h3q64 0 101 -12q15 -4 16 -16l4 -38q1 -8 -1.5 -11t-10.5 -2q-56 14 -105 14h-3q-97 0 -97 -97v-189
q0 -52 23.5 -75t74.5 -23h3q49 0 107 14q8 2 11 -1.5t2 -10.5l-4 -40q-1 -12 -15 -18q-41 -13 -107 -13h-8v-36q67 -1 94 -29.5t27 -65.5q0 -114 -120 -114q-71 0 -106 14q-11 4 -11 17z" />
    <glyph glyph-name="egrave" unicode="&#xe8;" horiz-adv-x="480" 
d="M68 151v198q0 82 44 122.5t141 40.5h11q164 0 164 -140v-19q0 -70 -35 -97t-122 -27q-52 0 -125 15v-80q0 -60 26 -82t91 -22q66 0 130 17q7 1 10.5 -1.5t2.5 -8.5l-4 -43q-1 -11 -15 -16q-43 -17 -129 -17h-6q-90 0 -137 35t-47 125zM146 352v-46q56 -15 125 -15
q45 0 62.5 15t17.5 50v14q0 39 -20 58t-73 19h-6q-57 0 -81.5 -21.5t-24.5 -73.5zM206 599l-72 138q-6 14 10 14h57q14 0 19 -13l60 -137q6 -14 -10 -14h-44q-13 0 -20 12z" />
    <glyph glyph-name="eacute" unicode="&#xe9;" horiz-adv-x="480" 
d="M68 151v198q0 82 44 122.5t141 40.5h11q164 0 164 -140v-19q0 -70 -35 -97t-122 -27q-52 0 -125 15v-80q0 -60 26 -82t91 -22q66 0 130 17q7 1 10.5 -1.5t2.5 -8.5l-4 -43q-1 -11 -15 -16q-43 -17 -129 -17h-6q-90 0 -137 35t-47 125zM146 352v-46q56 -15 125 -15
q45 0 62.5 15t17.5 50v14q0 39 -20 58t-73 19h-6q-57 0 -81.5 -21.5t-24.5 -73.5zM360 737l-72 -138q-7 -12 -20 -12h-44q-16 0 -10 14l60 137q5 13 19 13h57q16 0 10 -14z" />
    <glyph glyph-name="ecircumflex" unicode="&#xea;" horiz-adv-x="480" 
d="M68 151v198q0 82 44 122.5t141 40.5h11q164 0 164 -140v-19q0 -70 -35 -97t-122 -27q-52 0 -125 15v-80q0 -60 26 -82t91 -22q66 0 130 17q7 1 10.5 -1.5t2.5 -8.5l-4 -43q-1 -11 -15 -16q-43 -17 -129 -17h-6q-90 0 -137 35t-47 125zM146 352v-46q56 -15 125 -15
q45 0 62.5 15t17.5 50v14q0 39 -20 58t-73 19h-6q-57 0 -81.5 -21.5t-24.5 -73.5zM116 604l101 118q8 10 21 10h18q13 0 21 -10l101 -118q10 -12 -7 -12h-46q-12 0 -21 10l-59 70l-60 -70q-10 -10 -22 -10h-41q-7 0 -9 4t3 8z" />
    <glyph glyph-name="edieresis" unicode="&#xeb;" horiz-adv-x="480" 
d="M68 151v198q0 82 44 122.5t141 40.5h11q164 0 164 -140v-19q0 -70 -35 -97t-122 -27q-52 0 -125 15v-80q0 -60 26 -82t91 -22q66 0 130 17q7 1 10.5 -1.5t2.5 -8.5l-4 -43q-1 -11 -15 -16q-43 -17 -129 -17h-6q-90 0 -137 35t-47 125zM146 352v-46q56 -15 125 -15
q45 0 62.5 15t17.5 50v14q0 39 -20 58t-73 19h-6q-57 0 -81.5 -21.5t-24.5 -73.5zM202 670v-66q0 -8 -2.5 -11t-10.5 -3h-60q-8 0 -11 3t-3 11v66q0 8 3 11t11 3h60q8 0 10.5 -3t2.5 -11zM378 670v-66q0 -8 -2.5 -11t-10.5 -3h-60q-8 0 -11 3t-3 11v66q0 8 3 11t11 3h60
q8 0 10.5 -3t2.5 -11z" />
    <glyph glyph-name="igrave" unicode="&#xec;" horiz-adv-x="235" 
d="M76 599l-72 138q-6 14 10 14h57q14 0 19 -13l60 -137q6 -14 -10 -14h-44q-13 0 -20 12zM77 14v468q0 14 13 15l53 7q14 0 14 -13v-477q0 -14 -13 -14h-53q-14 0 -14 14z" />
    <glyph glyph-name="iacute" unicode="&#xed;" horiz-adv-x="235" 
d="M230 737l-72 -138q-7 -12 -20 -12h-44q-16 0 -10 14l60 137q5 13 19 13h57q16 0 10 -14zM77 14v468q0 14 13 15l53 7q14 0 14 -13v-477q0 -14 -13 -14h-53q-14 0 -14 14z" />
    <glyph glyph-name="icircumflex" unicode="&#xee;" horiz-adv-x="235" 
d="M77 14v468q0 14 13 15l53 7q14 0 14 -13v-477q0 -14 -13 -14h-53q-14 0 -14 14zM-13 604l101 118q8 10 21 10h18q13 0 21 -10l101 -118q10 -12 -7 -12h-46q-12 0 -21 10l-59 70l-60 -70q-10 -10 -22 -10h-41q-7 0 -9 4t3 8z" />
    <glyph glyph-name="idieresis" unicode="&#xef;" horiz-adv-x="235" 
d="M72 670v-66q0 -8 -2.5 -11t-10.5 -3h-60q-8 0 -11 3t-3 11v66q0 8 3 11t11 3h60q8 0 10.5 -3t2.5 -11zM248 670v-66q0 -8 -2.5 -11t-10.5 -3h-60q-8 0 -11 3t-3 11v66q0 8 3 11t11 3h60q8 0 10.5 -3t2.5 -11zM77 14v468q0 14 13 15l53 7q14 0 14 -13v-477q0 -14 -13 -14
h-53q-14 0 -14 14z" />
    <glyph glyph-name="eth" unicode="&#xf0;" horiz-adv-x="512" 
d="M165 580l-11 25q-5 13 7 19l73 31q-16 17 -52 49q-6 5 -4 10t10 6l61 6q16 1 23 -6q18 -16 34 -34l60 26q14 6 18 -7l11 -27q6 -13 -7 -17l-44 -19q94 -129 94 -321v-183q0 -85 -48 -117.5t-135 -32.5h-10q-85 0 -131 34.5t-46 123.5v205q0 89 46 125t127 36h4
q61 0 90 -21q-21 66 -63 120l-89 -38q-11 -5 -18 7zM244 57h12q51 0 76.5 22t25.5 73v196q0 99 -99 99h-9q-51 0 -76.5 -22.5t-25.5 -74.5v-197q0 -53 23 -74.5t73 -21.5z" />
    <glyph glyph-name="ntilde" unicode="&#xf1;" horiz-adv-x="501" 
d="M75 14v446q0 15 16 20q67 29 166 29q85 0 128.5 -35t43.5 -126v-334q0 -14 -14 -14h-52q-14 0 -14 14v331q0 54 -21 76.5t-75 22.5q-60 0 -98 -15v-415q0 -14 -13 -14h-53q-14 0 -14 14zM133 611l-14 21q-7 10 2 21q24 30 70 30q33 0 66 -22t53 -22q22 0 38 17q9 14 21 0
l13 -18q9 -9 -1 -24q-28 -37 -72 -37q-32 0 -65.5 22t-54.5 22t-38 -13q-10 -8 -18 3z" />
    <glyph glyph-name="ograve" unicode="&#xf2;" horiz-adv-x="506" 
d="M68 149v202q0 89 49 125t134 36h10q84 0 130.5 -35.5t46.5 -125.5v-202q0 -89 -49 -125t-134 -36h-10q-84 0 -130.5 35.5t-46.5 125.5zM244 57h12q102 0 102 99v194q0 52 -23.5 74.5t-72.5 22.5h-12q-51 0 -76.5 -22.5t-25.5 -74.5v-195q0 -52 23.5 -75t72.5 -23z
M212 599l-72 138q-6 14 10 14h57q14 0 19 -13l60 -137q6 -14 -10 -14h-44q-13 0 -20 12z" />
    <glyph glyph-name="oacute" unicode="&#xf3;" horiz-adv-x="506" 
d="M68 149v202q0 89 49 125t134 36h10q84 0 130.5 -35.5t46.5 -125.5v-202q0 -89 -49 -125t-134 -36h-10q-84 0 -130.5 35.5t-46.5 125.5zM244 57h12q102 0 102 99v194q0 52 -23.5 74.5t-72.5 22.5h-12q-51 0 -76.5 -22.5t-25.5 -74.5v-195q0 -52 23.5 -75t72.5 -23z
M366 737l-72 -138q-7 -12 -20 -12h-44q-16 0 -10 14l60 137q5 13 19 13h57q16 0 10 -14z" />
    <glyph glyph-name="ocircumflex" unicode="&#xf4;" horiz-adv-x="506" 
d="M68 149v202q0 89 49 125t134 36h10q84 0 130.5 -35.5t46.5 -125.5v-202q0 -89 -49 -125t-134 -36h-10q-84 0 -130.5 35.5t-46.5 125.5zM244 57h12q102 0 102 99v194q0 52 -23.5 74.5t-72.5 22.5h-12q-51 0 -76.5 -22.5t-25.5 -74.5v-195q0 -52 23.5 -75t72.5 -23z
M122 604l101 118q8 10 21 10h18q13 0 21 -10l101 -118q10 -12 -7 -12h-46q-12 0 -21 10l-59 70l-60 -70q-10 -10 -22 -10h-41q-7 0 -9 4t3 8z" />
    <glyph glyph-name="otilde" unicode="&#xf5;" horiz-adv-x="506" 
d="M68 149v202q0 89 49 125t134 36h10q84 0 130.5 -35.5t46.5 -125.5v-202q0 -89 -49 -125t-134 -36h-10q-84 0 -130.5 35.5t-46.5 125.5zM244 57h12q102 0 102 99v194q0 52 -23.5 74.5t-72.5 22.5h-12q-51 0 -76.5 -22.5t-25.5 -74.5v-195q0 -52 23.5 -75t72.5 -23z
M135 611l-14 21q-7 10 2 21q24 30 70 30q33 0 66 -22t53 -22q22 0 38 17q9 14 21 0l13 -18q9 -9 -1 -24q-28 -37 -72 -37q-32 0 -65.5 22t-54.5 22t-38 -13q-10 -8 -18 3z" />
    <glyph glyph-name="odieresis" unicode="&#xf6;" horiz-adv-x="506" 
d="M68 149v202q0 89 49 125t134 36h10q84 0 130.5 -35.5t46.5 -125.5v-202q0 -89 -49 -125t-134 -36h-10q-84 0 -130.5 35.5t-46.5 125.5zM244 57h12q102 0 102 99v194q0 52 -23.5 74.5t-72.5 22.5h-12q-51 0 -76.5 -22.5t-25.5 -74.5v-195q0 -52 23.5 -75t72.5 -23z
M208 670v-66q0 -8 -2.5 -11t-10.5 -3h-60q-8 0 -11 3t-3 11v66q0 8 3 11t11 3h60q8 0 10.5 -3t2.5 -11zM384 670v-66q0 -8 -2.5 -11t-10.5 -3h-60q-8 0 -11 3t-3 11v66q0 8 3 11t11 3h60q8 0 10.5 -3t2.5 -11z" />
    <glyph glyph-name="divide" unicode="&#xf7;" 
d="M236 463v48q0 13 14 13h54q14 0 14 -13v-48q0 -13 -14 -13h-54q-14 0 -14 13zM79 296v34q0 14 14 14h369q14 0 14 -14v-34q0 -14 -14 -14h-369q-14 0 -14 14zM236 115v47q0 14 14 14h54q14 0 14 -14v-47q0 -14 -14 -14h-54q-14 0 -14 14z" />
    <glyph glyph-name="oslash" unicode="&#xf8;" horiz-adv-x="506" 
d="M88 -63l36 80q-56 36 -56 132v202q0 89 49 125t134 36h10q46 0 75 -8l25 55q5 13 17 13h29q15 0 10 -13l-34 -77q55 -36 55 -131v-202q0 -89 -49 -125t-134 -36h-10q-48 0 -75 8l-26 -59q-5 -13 -17 -13h-29q-16 0 -10 13zM245 57h11q102 0 102 99v194q0 52 -23 74.5
t-73 22.5h-12q-51 0 -76.5 -22.5t-25.5 -74.5v-195q0 -52 23.5 -75t73.5 -23z" />
    <glyph glyph-name="ugrave" unicode="&#xf9;" horiz-adv-x="501" 
d="M72 152v330q0 14 12 15l54 6q14 1 14 -13v-331q0 -54 21 -76.5t75 -22.5q64 0 98 15v415q0 8 3 11t9 2l55 -6q13 -1 13 -15v-443q0 -14 -16 -20q-70 -28 -165 -28q-86 0 -129.5 35t-43.5 126zM208 599l-72 138q-6 14 10 14h57q14 0 19 -13l60 -137q6 -14 -10 -14h-44
q-13 0 -20 12z" />
    <glyph glyph-name="uacute" unicode="&#xfa;" horiz-adv-x="501" 
d="M72 152v330q0 14 12 15l54 6q14 1 14 -13v-331q0 -54 21 -76.5t75 -22.5q64 0 98 15v415q0 8 3 11t9 2l55 -6q13 -1 13 -15v-443q0 -14 -16 -20q-70 -28 -165 -28q-86 0 -129.5 35t-43.5 126zM362 737l-72 -138q-7 -12 -20 -12h-44q-16 0 -10 14l60 137q5 13 19 13h57
q16 0 10 -14z" />
    <glyph glyph-name="ucircumflex" unicode="&#xfb;" horiz-adv-x="501" 
d="M72 152v330q0 14 12 15l54 6q14 1 14 -13v-331q0 -54 21 -76.5t75 -22.5q64 0 98 15v415q0 8 3 11t9 2l55 -6q13 -1 13 -15v-443q0 -14 -16 -20q-70 -28 -165 -28q-86 0 -129.5 35t-43.5 126zM118 604l101 118q8 10 21 10h18q13 0 21 -10l101 -118q10 -12 -7 -12h-46
q-12 0 -21 10l-59 70l-60 -70q-10 -10 -22 -10h-41q-7 0 -9 4t3 8z" />
    <glyph glyph-name="udieresis" unicode="&#xfc;" horiz-adv-x="501" 
d="M72 152v330q0 14 12 15l54 6q14 1 14 -13v-331q0 -54 21 -76.5t75 -22.5q64 0 98 15v415q0 8 3 11t9 2l55 -6q13 -1 13 -15v-443q0 -14 -16 -20q-70 -28 -165 -28q-86 0 -129.5 35t-43.5 126zM204 670v-66q0 -8 -2.5 -11t-10.5 -3h-60q-8 0 -11 3t-3 11v66q0 8 3 11t11 3
h60q8 0 10.5 -3t2.5 -11zM380 670v-66q0 -8 -2.5 -11t-10.5 -3h-60q-8 0 -11 3t-3 11v66q0 8 3 11t11 3h60q8 0 10.5 -3t2.5 -11z" />
    <glyph glyph-name="yacute" unicode="&#xfd;" horiz-adv-x="502" 
d="M181 -206l-4 40q-1 8 1.5 11t11.5 2l12 -1q11 -2 24 -3t18 -1q18 0 29 1t27.5 5.5t26 12.5t16.5 24.5t7 40.5v113q-30 -39 -114 -39h-3q-76 0 -118.5 35.5t-42.5 123.5v323q0 14 12 15l54 6q14 0 14 -13v-322q0 -54 20.5 -76.5t72.5 -22.5h4q52 0 74.5 22t22.5 71v328
q0 13 15 13l52 -6q13 -1 13 -15v-548q0 -94 -44 -127.5t-126 -33.5q-40 0 -64 6q-10 4 -11 15zM362 737l-72 -138q-7 -12 -20 -12h-44q-16 0 -10 14l60 137q5 13 19 13h57q16 0 10 -14z" />
    <glyph glyph-name="thorn" unicode="&#xfe;" horiz-adv-x="515" 
d="M77 -205v911q0 13 13 14l54 6q7 1 10 -2t3 -11v-177l-2 -62q33 38 117 38h3q82 0 127 -33.5t45 -123.5v-210q0 -89 -48 -123t-130 -34h-4q-77 0 -110 38q2 -29 2 -62v-177q0 -13 -13 -12l-54 6q-13 1 -13 14zM257 57h4q54 0 80 18t26 68v220q0 50 -23 67t-77 17h-3
q-55 0 -81 -17t-26 -67v-221q0 -50 23.5 -67.5t76.5 -17.5z" />
    <glyph glyph-name="ydieresis" unicode="&#xff;" horiz-adv-x="502" 
d="M181 -206l-4 40q-1 8 1.5 11t11.5 2l12 -1q11 -2 24 -3t18 -1q18 0 29 1t27.5 5.5t26 12.5t16.5 24.5t7 40.5v113q-30 -39 -114 -39h-3q-76 0 -118.5 35.5t-42.5 123.5v323q0 14 12 15l54 6q14 0 14 -13v-322q0 -54 20.5 -76.5t72.5 -22.5h4q52 0 74.5 22t22.5 71v328
q0 13 15 13l52 -6q13 -1 13 -15v-548q0 -94 -44 -127.5t-126 -33.5q-40 0 -64 6q-10 4 -11 15zM380 670v-66q0 -8 -2.5 -11t-10.5 -3h-60q-8 0 -11 3t-3 11v66q0 8 3 11t11 3h60q8 0 10.5 -3t2.5 -11zM204 670v-66q0 -8 -2.5 -11t-10.5 -3h-60q-8 0 -11 3t-3 11v66q0 8 3 11
t11 3h60q8 0 10.5 -3t2.5 -11z" />
    <glyph glyph-name="Amacron" unicode="&#x100;" horiz-adv-x="513" 
d="M479 4l-53 -8q-13 -1 -17 11l-42 166h-227l-41 -165q-3 -13 -17 -12l-50 8q-13 1 -10 15l171 664q3 14 17 14h91q14 0 17 -14l171 -664q4 -14 -10 -15zM353 240l-97 388h-4l-97 -388h198zM127 772v28q0 14 14 14h227q14 0 14 -14v-28q0 -14 -14 -14h-227q-14 0 -14 14z
" />
    <glyph glyph-name="amacron" unicode="&#x101;" horiz-adv-x="481" 
d="M49 139v20q0 43 14.5 72t42.5 44t57.5 21.5t70.5 9.5l96 4v37q0 53 -23 75t-73 22q-57 0 -123 -16q-8 -2 -11 1.5t-2 10.5l4 39q1 12 13 15q50 15 120 15q81 0 127 -35.5t46 -124.5v-310q0 -14 -15 -20q-70 -28 -167 -28q-91 0 -134 33t-43 115zM127 155v-16
q0 -42 23 -62t78 -20q68 0 102 15v175q-59 0 -94 -3q-60 -5 -84.5 -23.5t-24.5 -65.5zM117 601v28q0 14 14 14h227q14 0 14 -14v-28q0 -14 -14 -14h-227q-14 0 -14 14z" />
    <glyph glyph-name="Abreve" unicode="&#x102;" horiz-adv-x="513" 
d="M479 4l-53 -8q-13 -1 -17 11l-42 166h-227l-41 -165q-3 -13 -17 -12l-50 8q-13 1 -10 15l171 664q3 14 17 14h91q14 0 17 -14l171 -664q4 -14 -10 -15zM353 240l-97 388h-4l-97 -388h198zM119 895h33q12 0 15 -15q12 -66 87 -66q76 0 86 67q3 14 15 14h34q14 0 11 -14
q-20 -123 -146 -123t-147 121q-3 16 12 16z" />
    <glyph glyph-name="abreve" unicode="&#x103;" horiz-adv-x="481" 
d="M49 139v20q0 43 14.5 72t42.5 44t57.5 21.5t70.5 9.5l96 4v37q0 53 -23 75t-73 22q-57 0 -123 -16q-8 -2 -11 1.5t-2 10.5l4 39q1 12 13 15q50 15 120 15q81 0 127 -35.5t46 -124.5v-310q0 -14 -15 -20q-70 -28 -167 -28q-91 0 -134 33t-43 115zM127 155v-16
q0 -42 23 -62t78 -20q68 0 102 15v175q-59 0 -94 -3q-60 -5 -84.5 -23.5t-24.5 -65.5zM109 724h33q12 0 15 -15q12 -66 87 -66q76 0 86 67q3 14 15 14h34q14 0 11 -14q-20 -123 -146 -123t-147 121q-3 16 12 16z" />
    <glyph glyph-name="Aogonek" unicode="&#x104;" horiz-adv-x="513" 
d="M486 -224h-15q-134 0 -134 110q0 68 76 113q-3 3 -4 8l-42 166h-227l-41 -165q-3 -13 -17 -12l-50 8q-13 1 -10 15l171 664q3 14 17 14h91q14 0 17 -14l171 -664q3 -11 -5 -14q-31 -17 -50.5 -33t-27 -31t-9.5 -24.5t-2 -21.5q0 -57 74 -57h17q8 0 10.5 -3t2.5 -11v-34
q0 -8 -2.5 -11t-10.5 -3zM353 240l-97 388h-4l-97 -388h198z" />
    <glyph glyph-name="aogonek" unicode="&#x105;" horiz-adv-x="481" 
d="M399 -206h-15q-134 0 -134 110q0 53 45 92q-37 -5 -69 -5q-91 0 -134 33t-43 115v20q0 43 14.5 72t42.5 44t57.5 21.5t70.5 9.5l96 4v37q0 53 -23 75t-73 22q-57 0 -123 -16q-8 -2 -11 1.5t-2 10.5l4 39q1 12 13 15q50 15 120 15q81 0 127 -35.5t46 -124.5v-310
q0 -14 -15 -20l-9 -4q-34 -20 -52 -41t-21 -33t-3 -28q0 -57 74 -57h17q8 0 10.5 -3t2.5 -11v-34q0 -8 -2.5 -11t-10.5 -3zM127 155v-16q0 -42 23 -62t78 -20q68 0 102 15v175q-59 0 -94 -3q-60 -5 -84.5 -23.5t-24.5 -65.5z" />
    <glyph glyph-name="Cacute" unicode="&#x106;" horiz-adv-x="475" 
d="M72 175v347q0 96 53 140t159 44q32 0 62 -3t44 -7l14 -3q15 -4 16 -16l3 -40q1 -8 -2 -10.5t-11 -1.5q-63 15 -125 15q-70 0 -101.5 -28.5t-31.5 -88.5v-345q0 -61 28 -88.5t97 -27.5q35 0 69.5 4t51.5 8l17 4q8 2 11.5 -1t2.5 -10l-5 -42q-1 -13 -15 -18
q-49 -16 -135 -16q-104 0 -153 43.5t-49 140.5zM385 908l-72 -138q-7 -12 -20 -12h-44q-16 0 -10 14l60 137q5 13 19 13h57q16 0 10 -14z" />
    <glyph glyph-name="cacute" unicode="&#x107;" horiz-adv-x="405" 
d="M369 62l-4 -40q-1 -12 -15 -18q-41 -13 -107 -13h-2q-82 0 -127.5 35.5t-45.5 125.5v196q0 161 173 161h3q64 0 101 -12q15 -4 16 -16l4 -38q1 -8 -1.5 -11t-10.5 -2q-56 14 -105 14h-3q-97 0 -97 -97v-189q0 -52 23.5 -75t74.5 -23h3q49 0 107 14q8 2 11 -1.5t2 -10.5z
M337 737l-72 -138q-7 -12 -20 -12h-44q-16 0 -10 14l60 137q5 13 19 13h57q16 0 10 -14z" />
    <glyph glyph-name="Ccircumflex" unicode="&#x108;" horiz-adv-x="475" 
d="M72 175v347q0 96 53 140t159 44q32 0 62 -3t44 -7l14 -3q15 -4 16 -16l3 -40q1 -8 -2 -10.5t-11 -1.5q-63 15 -125 15q-70 0 -101.5 -28.5t-31.5 -88.5v-345q0 -61 28 -88.5t97 -27.5q35 0 69.5 4t51.5 8l17 4q8 2 11.5 -1t2.5 -10l-5 -42q-1 -13 -15 -18
q-49 -16 -135 -16q-104 0 -153 43.5t-49 140.5zM141 775l101 118q8 10 21 10h18q13 0 21 -10l101 -118q10 -12 -7 -12h-46q-12 0 -21 10l-59 70l-60 -70q-10 -10 -22 -10h-41q-7 0 -9 3.5t3 8.5z" />
    <glyph glyph-name="ccircumflex" unicode="&#x109;" horiz-adv-x="405" 
d="M369 62l-4 -40q-1 -12 -15 -18q-41 -13 -107 -13h-2q-82 0 -127.5 35.5t-45.5 125.5v196q0 161 173 161h3q64 0 101 -12q15 -4 16 -16l4 -38q1 -8 -1.5 -11t-10.5 -2q-56 14 -105 14h-3q-97 0 -97 -97v-189q0 -52 23.5 -75t74.5 -23h3q49 0 107 14q8 2 11 -1.5t2 -10.5z
M99 604l101 118q8 10 21 10h18q13 0 21 -10l101 -118q10 -12 -7 -12h-46q-12 0 -21 10l-59 70l-60 -70q-10 -10 -22 -10h-41q-7 0 -9 4t3 8z" />
    <glyph glyph-name="Cdotaccent" unicode="&#x10a;" horiz-adv-x="475" 
d="M72 175v347q0 96 53 140t159 44q32 0 62 -3t44 -7l14 -3q15 -4 16 -16l3 -40q1 -8 -2 -10.5t-11 -1.5q-63 15 -125 15q-70 0 -101.5 -28.5t-31.5 -88.5v-345q0 -61 28 -88.5t97 -27.5q35 0 69.5 4t51.5 8l17 4q8 2 11.5 -1t2.5 -10l-5 -42q-1 -13 -15 -18
q-49 -16 -135 -16q-104 0 -153 43.5t-49 140.5zM231 770v60q0 13 13 13h56q13 0 13 -13v-60q0 -14 -13 -14h-56q-13 0 -13 14z" />
    <glyph glyph-name="cdotaccent" unicode="&#x10b;" horiz-adv-x="405" 
d="M369 62l-4 -40q-1 -12 -15 -18q-41 -13 -107 -13h-2q-82 0 -127.5 35.5t-45.5 125.5v196q0 161 173 161h3q64 0 101 -12q15 -4 16 -16l4 -38q1 -8 -1.5 -11t-10.5 -2q-56 14 -105 14h-3q-97 0 -97 -97v-189q0 -52 23.5 -75t74.5 -23h3q49 0 107 14q8 2 11 -1.5t2 -10.5z
M188 599v60q0 13 13 13h56q13 0 13 -13v-60q0 -14 -13 -14h-56q-13 0 -13 14z" />
    <glyph glyph-name="Ccaron" unicode="&#x10c;" horiz-adv-x="475" 
d="M72 175v347q0 96 53 140t159 44q32 0 62 -3t44 -7l14 -3q15 -4 16 -16l3 -40q1 -8 -2 -10.5t-11 -1.5q-63 15 -125 15q-70 0 -101.5 -28.5t-31.5 -88.5v-345q0 -61 28 -88.5t97 -27.5q35 0 69.5 4t51.5 8l17 4q8 2 11.5 -1t2.5 -10l-5 -42q-1 -13 -15 -18
q-49 -16 -135 -16q-104 0 -153 43.5t-49 140.5zM242 768l-101 118q-4 4 -2 8t9 4h45q12 0 21 -10l59 -70l60 70q9 10 21 10h43q17 0 7 -12l-102 -118q-8 -10 -21 -10h-18q-13 0 -21 10z" />
    <glyph glyph-name="ccaron" unicode="&#x10d;" horiz-adv-x="405" 
d="M369 62l-4 -40q-1 -12 -15 -18q-41 -13 -107 -13h-2q-82 0 -127.5 35.5t-45.5 125.5v196q0 161 173 161h3q64 0 101 -12q15 -4 16 -16l4 -38q1 -8 -1.5 -11t-10.5 -2q-56 14 -105 14h-3q-97 0 -97 -97v-189q0 -52 23.5 -75t74.5 -23h3q49 0 107 14q8 2 11 -1.5t2 -10.5z
M204 597l-101 118q-4 5 -2 8.5t9 3.5h45q12 0 21 -10l59 -70l60 70q9 10 21 10h43q17 0 7 -12l-102 -118q-8 -10 -21 -10h-18q-13 0 -21 10z" />
    <glyph glyph-name="Dcaron" unicode="&#x10e;" horiz-adv-x="548" 
d="M265 0h-171q-14 0 -14 14v669q0 14 14 14h177q106 0 155.5 -43.5t49.5 -140.5v-328q0 -97 -53 -141t-158 -44zM396 187v327q0 61 -28.5 89t-97.5 28h-110v-560h103q70 0 101.5 28.5t31.5 87.5zM235 768l-101 118q-4 4 -2 8t9 4h45q12 0 21 -10l59 -70l60 70q9 10 21 10
h43q17 0 7 -12l-102 -118q-8 -10 -21 -10h-18q-13 0 -21 10z" />
    <glyph glyph-name="dcaron" unicode="&#x10f;" horiz-adv-x="512" 
d="M68 146v205q0 161 169 161h3q85 0 120 -39q-2 34 -2 67v173q0 13 15 13l52 -6q13 -1 13 -15v-562q0 -88 -48 -121.5t-135 -33.5h-10q-84 0 -130.5 34.5t-46.5 123.5zM244 57h12q51 0 76.5 22t25.5 73v198q0 97 -99 97h-9q-51 0 -76.5 -22.5t-25.5 -74.5v-197
q0 -53 23 -74.5t73 -21.5zM559 584h-47q-15 0 -7 14q44 74 44 164v12q0 8 3 11t11 3h52q13 0 13 -14v-10q0 -99 -48 -167q-8 -13 -21 -13z" />
    <glyph glyph-name="Dcroat" unicode="&#x110;" horiz-adv-x="553" 
d="M18 353v30q0 13 13 13h54v287q0 14 14 14h177q106 0 155.5 -43.5t49.5 -140.5v-328q0 -97 -53 -141t-158 -44h-171q-14 0 -14 14v326h-54q-13 0 -13 13zM401 187v327q0 61 -28.5 89t-97.5 28h-110v-235h79q13 0 13 -13v-30q0 -13 -13 -13h-79v-269h103q70 0 101.5 28.5
t31.5 87.5z" />
    <glyph glyph-name="dcroat" unicode="&#x111;" horiz-adv-x="517" 
d="M261 593v29q0 14 13 14h84v77q0 13 15 13l52 -6q13 -1 13 -15v-69h44q14 0 14 -14v-29q0 -13 -14 -13h-44v-437q0 -88 -48 -121.5t-135 -33.5h-10q-84 0 -130.5 34.5t-46.5 123.5v205q0 161 169 161h3q85 0 120 -39q-2 34 -2 67v40h-84q-13 0 -13 13zM244 57h12
q51 0 76.5 22t25.5 73v198q0 97 -99 97h-9q-51 0 -76.5 -22.5t-25.5 -74.5v-197q0 -53 23 -74.5t73 -21.5z" />
    <glyph glyph-name="Emacron" unicode="&#x112;" horiz-adv-x="494" 
d="M80 14v669q0 14 14 14h326q14 0 15 -14l5 -37q2 -15 -13 -15h-267v-234h216q14 0 14 -14v-42q0 -13 -14 -13h-216v-257h276q15 0 14 -14l-7 -44q-3 -13 -16 -13h-333q-14 0 -14 14zM141 772v28q0 14 14 14h227q14 0 14 -14v-28q0 -14 -14 -14h-227q-14 0 -14 14z" />
    <glyph glyph-name="emacron" unicode="&#x113;" horiz-adv-x="480" 
d="M68 151v198q0 82 44 122.5t141 40.5h11q164 0 164 -140v-19q0 -70 -35 -97t-122 -27q-52 0 -125 15v-80q0 -60 26 -82t91 -22q66 0 130 17q7 1 10.5 -1.5t2.5 -8.5l-4 -43q-1 -11 -15 -16q-43 -17 -129 -17h-6q-90 0 -137 35t-47 125zM146 352v-46q56 -15 125 -15
q45 0 62.5 15t17.5 50v14q0 39 -20 58t-73 19h-6q-57 0 -81.5 -21.5t-24.5 -73.5zM120 601v28q0 14 14 14h227q14 0 14 -14v-28q0 -14 -14 -14h-227q-14 0 -14 14z" />
    <glyph glyph-name="Ebreve" unicode="&#x114;" horiz-adv-x="494" 
d="M80 14v669q0 14 14 14h326q14 0 15 -14l5 -37q2 -15 -13 -15h-267v-234h216q14 0 14 -14v-42q0 -13 -14 -13h-216v-257h276q15 0 14 -14l-7 -44q-3 -13 -16 -13h-333q-14 0 -14 14zM133 895h33q12 0 15 -15q12 -66 87 -66q76 0 86 67q3 14 15 14h34q14 0 11 -14
q-20 -123 -146 -123t-147 121q-3 16 12 16z" />
    <glyph glyph-name="ebreve" unicode="&#x115;" horiz-adv-x="480" 
d="M68 151v198q0 82 44 122.5t141 40.5h11q164 0 164 -140v-19q0 -70 -35 -97t-122 -27q-52 0 -125 15v-80q0 -60 26 -82t91 -22q66 0 130 17q7 1 10.5 -1.5t2.5 -8.5l-4 -43q-1 -11 -15 -16q-43 -17 -129 -17h-6q-90 0 -137 35t-47 125zM146 352v-46q56 -15 125 -15
q45 0 62.5 15t17.5 50v14q0 39 -20 58t-73 19h-6q-57 0 -81.5 -21.5t-24.5 -73.5zM112 724h33q12 0 15 -15q12 -66 87 -66q76 0 86 67q3 14 15 14h34q14 0 11 -14q-20 -123 -146 -123t-147 121q-3 16 12 16z" />
    <glyph glyph-name="Edotaccent" unicode="&#x116;" horiz-adv-x="494" 
d="M80 14v669q0 14 14 14h326q14 0 15 -14l5 -37q2 -15 -13 -15h-267v-234h216q14 0 14 -14v-42q0 -13 -14 -13h-216v-257h276q15 0 14 -14l-7 -44q-3 -13 -16 -13h-333q-14 0 -14 14zM227 770v60q0 13 13 13h56q13 0 13 -13v-60q0 -14 -13 -14h-56q-13 0 -13 14z" />
    <glyph glyph-name="edotaccent" unicode="&#x117;" horiz-adv-x="480" 
d="M68 151v198q0 82 44 122.5t141 40.5h11q164 0 164 -140v-19q0 -70 -35 -97t-122 -27q-52 0 -125 15v-80q0 -60 26 -82t91 -22q66 0 130 17q7 1 10.5 -1.5t2.5 -8.5l-4 -43q-1 -11 -15 -16q-43 -17 -129 -17h-6q-90 0 -137 35t-47 125zM146 352v-46q56 -15 125 -15
q45 0 62.5 15t17.5 50v14q0 39 -20 58t-73 19h-6q-57 0 -81.5 -21.5t-24.5 -73.5zM206 599v60q0 13 13 13h56q13 0 13 -13v-60q0 -14 -13 -14h-56q-13 0 -13 14z" />
    <glyph glyph-name="Eogonek" unicode="&#x118;" horiz-adv-x="494" 
d="M436 -228h-15q-134 0 -134 110q0 70 84 118h-277q-14 0 -14 14v669q0 14 14 14h326q14 0 15 -14l5 -37q2 -15 -13 -15h-267v-234h216q14 0 14 -14v-42q0 -13 -14 -13h-216v-257h276q15 0 14 -14l-7 -44q-3 -10 -10 -13q-40 -22 -61 -44.5t-24 -35t-3 -29.5q0 -57 74 -57
h17q8 0 10.5 -3t2.5 -11v-34q0 -8 -2.5 -11t-10.5 -3z" />
    <glyph glyph-name="eogonek" unicode="&#x119;" horiz-adv-x="480" 
d="M392 -219h-15q-134 0 -134 110q0 60 58 102q-26 -2 -43 -2h-6q-90 0 -137 35t-47 125v198q0 82 44 122.5t141 40.5h11q164 0 164 -140v-19q0 -70 -35 -97t-122 -27q-52 0 -125 15v-80q0 -60 26 -82t91 -22q66 0 130 17q7 1 10.5 -1.5t2.5 -8.5l-4 -43q-1 -11 -15 -16
q-1 -1 -2 -1q-38 -21 -58 -43.5t-23 -34.5t-3 -29q0 -57 74 -57h17q8 0 10.5 -3t2.5 -11v-34q0 -8 -2.5 -11t-10.5 -3zM146 352v-46q56 -15 125 -15q45 0 62.5 15t17.5 50v14q0 39 -20 58t-73 19h-6q-57 0 -81.5 -21.5t-24.5 -73.5z" />
    <glyph glyph-name="Ecaron" unicode="&#x11a;" horiz-adv-x="494" 
d="M80 14v669q0 14 14 14h326q14 0 15 -14l5 -37q2 -15 -13 -15h-267v-234h216q14 0 14 -14v-42q0 -13 -14 -13h-216v-257h276q15 0 14 -14l-7 -44q-3 -13 -16 -13h-333q-14 0 -14 14zM238 768l-101 118q-4 4 -2 8t9 4h45q12 0 21 -10l59 -70l60 70q9 10 21 10h43
q17 0 7 -12l-102 -118q-8 -10 -21 -10h-18q-13 0 -21 10z" />
    <glyph glyph-name="ecaron" unicode="&#x11b;" horiz-adv-x="480" 
d="M68 151v198q0 82 44 122.5t141 40.5h11q164 0 164 -140v-19q0 -70 -35 -97t-122 -27q-52 0 -125 15v-80q0 -60 26 -82t91 -22q66 0 130 17q7 1 10.5 -1.5t2.5 -8.5l-4 -43q-1 -11 -15 -16q-43 -17 -129 -17h-6q-90 0 -137 35t-47 125zM146 352v-46q56 -15 125 -15
q45 0 62.5 15t17.5 50v14q0 39 -20 58t-73 19h-6q-57 0 -81.5 -21.5t-24.5 -73.5zM217 597l-101 118q-4 5 -2 8.5t9 3.5h45q12 0 21 -10l59 -70l60 70q9 10 21 10h43q17 0 7 -12l-102 -118q-8 -10 -21 -10h-18q-13 0 -21 10z" />
    <glyph glyph-name="Gcircumflex" unicode="&#x11c;" horiz-adv-x="541" 
d="M72 175v347q0 96 53 140t159 44q39 0 76 -4t54 -8l18 -4q15 -4 16 -17l4 -39q1 -7 -2 -9.5t-11 -1.5q-73 17 -148 17h-6q-70 0 -101.5 -28.5t-31.5 -88.5v-345q0 -61 28 -88.5t97 -27.5h2q35 0 64.5 3t40.5 5l12 3v240h-84q-14 0 -14 14v41q0 14 14 14h148q13 0 13 -14
v-332q0 -13 -13 -19q-66 -26 -182 -26q-106 0 -156 43.5t-50 140.5zM142 775l101 118q8 10 21 10h18q13 0 21 -10l101 -118q10 -12 -7 -12h-46q-12 0 -21 10l-59 70l-60 -70q-10 -10 -22 -10h-41q-7 0 -9 3.5t3 8.5z" />
    <glyph glyph-name="gcircumflex" unicode="&#x11d;" horiz-adv-x="490" 
d="M34 -78v17q0 94 85 125q-46 21 -46 70v10q0 54 52 73q-61 36 -61 122v25q0 84 49 116t135 32h7q85 0 131.5 -32t46.5 -116v-25q0 -152 -188 -152q-18 0 -42 -2q-31 -3 -43 -13.5t-12 -31.5v-2q0 -27 20.5 -37t77.5 -10h7q42 0 69.5 -2.5t58.5 -11t49 -24t30 -44.5t12 -69
v-18q0 -39 -12 -67.5t-31 -45t-49.5 -26t-60 -12.5t-68.5 -3q-50 0 -84.5 5.5t-67 20.5t-49 47t-16.5 81zM243 250h7q53 0 79 22t26 70v19q0 48 -24 68t-77 20h-7q-53 0 -79 -20.5t-26 -67.5v-19q0 -48 24.5 -70t76.5 -22zM113 -61v-17q0 -55 34.5 -72.5t102.5 -17.5
q70 0 106.5 17.5t36.5 72.5v17q0 55 -34 71.5t-104 16.5t-106 -17t-36 -71zM119 604l101 118q8 10 21 10h18q13 0 21 -10l101 -118q10 -12 -7 -12h-46q-12 0 -21 10l-59 70l-60 -70q-10 -10 -22 -10h-41q-7 0 -9 4t3 8z" />
    <glyph glyph-name="Gbreve" unicode="&#x11e;" horiz-adv-x="541" 
d="M72 175v347q0 96 53 140t159 44q39 0 76 -4t54 -8l18 -4q15 -4 16 -17l4 -39q1 -7 -2 -9.5t-11 -1.5q-73 17 -148 17h-6q-70 0 -101.5 -28.5t-31.5 -88.5v-345q0 -61 28 -88.5t97 -27.5h2q35 0 64.5 3t40.5 5l12 3v240h-84q-14 0 -14 14v41q0 14 14 14h148q13 0 13 -14
v-332q0 -13 -13 -19q-66 -26 -182 -26q-106 0 -156 43.5t-50 140.5zM138 895h33q12 0 15 -15q12 -66 87 -66q76 0 86 67q3 14 15 14h34q14 0 11 -14q-20 -123 -146 -123t-147 121q-3 16 12 16z" />
    <glyph glyph-name="gbreve" unicode="&#x11f;" horiz-adv-x="490" 
d="M34 -78v17q0 94 85 125q-46 21 -46 70v10q0 54 52 73q-61 36 -61 122v25q0 84 49 116t135 32h7q85 0 131.5 -32t46.5 -116v-25q0 -152 -188 -152q-18 0 -42 -2q-31 -3 -43 -13.5t-12 -31.5v-2q0 -27 20.5 -37t77.5 -10h7q42 0 69.5 -2.5t58.5 -11t49 -24t30 -44.5t12 -69
v-18q0 -39 -12 -67.5t-31 -45t-49.5 -26t-60 -12.5t-68.5 -3q-50 0 -84.5 5.5t-67 20.5t-49 47t-16.5 81zM243 250h7q53 0 79 22t26 70v19q0 48 -24 68t-77 20h-7q-53 0 -79 -20.5t-26 -67.5v-19q0 -48 24.5 -70t76.5 -22zM113 -61v-17q0 -55 34.5 -72.5t102.5 -17.5
q70 0 106.5 17.5t36.5 72.5v17q0 55 -34 71.5t-104 16.5t-106 -17t-36 -71zM115 724h33q12 0 15 -15q12 -66 87 -66q76 0 86 67q3 14 15 14h34q14 0 11 -14q-20 -123 -146 -123t-147 121q-3 16 12 16z" />
    <glyph glyph-name="Gdotaccent" unicode="&#x120;" horiz-adv-x="541" 
d="M72 175v347q0 96 53 140t159 44q39 0 76 -4t54 -8l18 -4q15 -4 16 -17l4 -39q1 -7 -2 -9.5t-11 -1.5q-73 17 -148 17h-6q-70 0 -101.5 -28.5t-31.5 -88.5v-345q0 -61 28 -88.5t97 -27.5h2q35 0 64.5 3t40.5 5l12 3v240h-84q-14 0 -14 14v41q0 14 14 14h148q13 0 13 -14
v-332q0 -13 -13 -19q-66 -26 -182 -26q-106 0 -156 43.5t-50 140.5zM232 770v60q0 13 13 13h56q13 0 13 -13v-60q0 -14 -13 -14h-56q-13 0 -13 14z" />
    <glyph glyph-name="gdotaccent" unicode="&#x121;" horiz-adv-x="490" 
d="M34 -78v17q0 94 85 125q-46 21 -46 70v10q0 54 52 73q-61 36 -61 122v25q0 84 49 116t135 32h7q85 0 131.5 -32t46.5 -116v-25q0 -152 -188 -152q-18 0 -42 -2q-31 -3 -43 -13.5t-12 -31.5v-2q0 -27 20.5 -37t77.5 -10h7q42 0 69.5 -2.5t58.5 -11t49 -24t30 -44.5t12 -69
v-18q0 -39 -12 -67.5t-31 -45t-49.5 -26t-60 -12.5t-68.5 -3q-50 0 -84.5 5.5t-67 20.5t-49 47t-16.5 81zM243 250h7q53 0 79 22t26 70v19q0 48 -24 68t-77 20h-7q-53 0 -79 -20.5t-26 -67.5v-19q0 -48 24.5 -70t76.5 -22zM113 -61v-17q0 -55 34.5 -72.5t102.5 -17.5
q70 0 106.5 17.5t36.5 72.5v17q0 55 -34 71.5t-104 16.5t-106 -17t-36 -71zM209 599v60q0 13 13 13h56q13 0 13 -13v-60q0 -14 -13 -14h-56q-13 0 -13 14z" />
    <glyph glyph-name="uni0122" unicode="&#x122;" horiz-adv-x="541" 
d="M72 175v347q0 96 53 140t159 44q39 0 76 -4t54 -8l18 -4q15 -4 16 -17l4 -39q1 -7 -2 -9.5t-11 -1.5q-73 17 -148 17h-6q-70 0 -101.5 -28.5t-31.5 -88.5v-345q0 -61 28 -88.5t97 -27.5h2q35 0 64.5 3t40.5 5l12 3v240h-84q-14 0 -14 14v41q0 14 14 14h148q13 0 13 -14
v-332q0 -13 -13 -19q-66 -26 -182 -26q-106 0 -156 43.5t-50 140.5zM264 -263h-47q-15 0 -7 14q44 74 44 164v12q0 8 3 11t11 3h52q13 0 13 -14v-10q0 -99 -48 -167q-8 -13 -21 -13z" />
    <glyph glyph-name="uni0123" unicode="&#x123;" horiz-adv-x="490" 
d="M34 -78v17q0 94 85 125q-46 21 -46 70v10q0 54 52 73q-61 36 -61 122v25q0 84 49 116t135 32h7q85 0 131.5 -32t46.5 -116v-25q0 -152 -188 -152q-18 0 -42 -2q-31 -3 -43 -13.5t-12 -31.5v-2q0 -27 20.5 -37t77.5 -10h7q42 0 69.5 -2.5t58.5 -11t49 -24t30 -44.5t12 -69
v-18q0 -39 -12 -67.5t-31 -45t-49.5 -26t-60 -12.5t-68.5 -3q-50 0 -84.5 5.5t-67 20.5t-49 47t-16.5 81zM243 250h7q53 0 79 22t26 70v19q0 48 -24 68t-77 20h-7q-53 0 -79 -20.5t-26 -67.5v-19q0 -48 24.5 -70t76.5 -22zM113 -61v-17q0 -55 34.5 -72.5t102.5 -17.5
q70 0 106.5 17.5t36.5 72.5v17q0 55 -34 71.5t-104 16.5t-106 -17t-36 -71zM270 587h-47q-15 0 -7 14q44 74 44 164v12q0 8 3 11t11 3h52q13 0 13 -14v-10q0 -99 -48 -167q-8 -13 -21 -13z" />
    <glyph glyph-name="Hcircumflex" unicode="&#x124;" horiz-adv-x="578" 
d="M80 14v669q0 14 14 14h53q13 0 13 -14v-286h258v286q0 14 14 14h52q14 0 14 -14v-669q0 -14 -14 -14h-52q-14 0 -14 14v314h-258v-314q0 -14 -13 -14h-53q-14 0 -14 14zM158 775l101 118q8 10 21 10h18q13 0 21 -10l101 -118q10 -12 -7 -12h-46q-12 0 -21 10l-59 70
l-60 -70q-10 -10 -22 -10h-41q-7 0 -9 3.5t3 8.5z" />
    <glyph glyph-name="hcircumflex" unicode="&#x125;" horiz-adv-x="501" 
d="M75 14v691q0 14 13 15l53 6q14 0 14 -12v-176l-2 -65q35 39 113 39h2q161 0 161 -158v-340q0 -14 -14 -14h-52q-14 0 -14 14v338q0 52 -21 73.5t-70 21.5h-6q-49 0 -73 -21.5t-24 -73.5v-338q0 -14 -13 -14h-53q-14 0 -14 14zM121 779l101 118q8 10 21 10h18q13 0 21 -10
l101 -118q10 -12 -7 -12h-46q-12 0 -21 10l-59 70l-60 -70q-10 -10 -22 -10h-41q-7 0 -9 3.5t3 8.5z" />
    <glyph glyph-name="Hbar" unicode="&#x126;" horiz-adv-x="588" 
d="M24 532v29q0 14 14 14h47v108q0 14 14 14h53q13 0 13 -14v-108h258v108q0 14 14 14h52q14 0 14 -14v-108h48q14 0 14 -14v-29q0 -14 -14 -14h-48v-504q0 -14 -14 -14h-52q-14 0 -14 14v314h-258v-314q0 -14 -13 -14h-53q-14 0 -14 14v504h-47q-14 0 -14 14zM165 397h258
v121h-258v-121z" />
    <glyph glyph-name="hbar" unicode="&#x127;" horiz-adv-x="501" 
d="M15 595v29q0 14 13 14h47v67q0 14 13 15l53 6q14 0 14 -12v-76h81q14 0 14 -14v-29q0 -13 -14 -13h-81v-44l-2 -65q35 39 113 39h2q161 0 161 -158v-340q0 -14 -14 -14h-52q-14 0 -14 14v338q0 52 -21 73.5t-70 21.5h-6q-49 0 -73 -21.5t-24 -73.5v-338q0 -14 -13 -14
h-53q-14 0 -14 14v568h-47q-13 0 -13 13z" />
    <glyph glyph-name="Itilde" unicode="&#x128;" horiz-adv-x="241" 
d="M80 14v669q0 14 14 14h53q13 0 13 -14v-669q0 -14 -13 -14h-53q-14 0 -14 14zM2 782l-14 21q-7 10 2 21q24 30 70 30q33 0 66 -22t53 -22q22 0 38 17q9 14 21 0l13 -18q9 -9 -1 -24q-28 -37 -72 -37q-32 0 -65.5 22t-54.5 22t-38 -13q-10 -8 -18 3z" />
    <glyph glyph-name="itilde" unicode="&#x129;" horiz-adv-x="235" 
d="M-1 611l-14 21q-7 10 2 21q24 30 70 30q33 0 66 -22t53 -22q22 0 38 17q9 14 21 0l13 -18q9 -9 -1 -24q-28 -37 -72 -37q-32 0 -65.5 22t-54.5 22t-38 -13q-10 -8 -18 3zM77 14v468q0 14 13 15l53 7q14 0 14 -13v-477q0 -14 -13 -14h-53q-14 0 -14 14z" />
    <glyph glyph-name="Imacron" unicode="&#x12a;" horiz-adv-x="241" 
d="M80 14v669q0 14 14 14h53q13 0 13 -14v-669q0 -14 -13 -14h-53q-14 0 -14 14zM-7 772v28q0 14 14 14h227q14 0 14 -14v-28q0 -14 -14 -14h-227q-14 0 -14 14z" />
    <glyph glyph-name="imacron" unicode="&#x12b;" horiz-adv-x="235" 
d="M-10 601v28q0 14 14 14h227q14 0 14 -14v-28q0 -14 -14 -14h-227q-14 0 -14 14zM77 14v468q0 14 13 15l53 7q14 0 14 -13v-477q0 -14 -13 -14h-53q-14 0 -14 14z" />
    <glyph glyph-name="Ibreve" unicode="&#x12c;" horiz-adv-x="241" 
d="M80 14v669q0 14 14 14h53q13 0 13 -14v-669q0 -14 -13 -14h-53q-14 0 -14 14zM-15 895h33q12 0 15 -15q12 -66 87 -66q76 0 86 67q3 14 15 14h34q14 0 11 -14q-20 -123 -146 -123t-147 121q-3 16 12 16z" />
    <glyph glyph-name="ibreve" unicode="&#x12d;" horiz-adv-x="235" 
d="M-18 724h33q12 0 15 -15q12 -66 87 -66q76 0 86 67q3 14 15 14h34q14 0 11 -14q-20 -123 -146 -123t-147 121q-3 16 12 16zM77 14v468q0 14 13 15l53 7q14 0 14 -13v-477q0 -14 -13 -14h-53q-14 0 -14 14z" />
    <glyph glyph-name="Iogonek" unicode="&#x12e;" horiz-adv-x="241" 
d="M154 -228h-15q-134 0 -134 110q0 70 84 118q-9 2 -9 14v669q0 14 14 14h53q13 0 13 -14v-669q0 -13 -10 -14q-39 -22 -60 -44.5t-24 -35t-3 -29.5q0 -57 74 -57h17q8 0 10.5 -3t2.5 -11v-34q0 -8 -2.5 -11t-10.5 -3z" />
    <glyph glyph-name="iogonek" unicode="&#x12f;" horiz-adv-x="235" 
d="M153 -226h-15q-134 0 -134 110q0 70 82 116q-9 3 -9 14v468q0 14 13 15l53 6q14 1 14 -13v-476q0 -14 -12 -14q-37 -21 -57 -43.5t-23 -34.5t-3 -29q0 -57 74 -57h17q8 0 10.5 -3t2.5 -11v-34q0 -8 -2.5 -11t-10.5 -3zM73 613v66q0 14 14 14h61q14 0 14 -14v-66
q0 -14 -14 -14h-61q-8 0 -11 3t-3 11z" />
    <glyph glyph-name="Idotaccent" unicode="&#x130;" horiz-adv-x="241" 
d="M80 14v669q0 14 14 14h53q13 0 13 -14v-669q0 -14 -13 -14h-53q-14 0 -14 14zM79 770v60q0 13 13 13h56q13 0 13 -13v-60q0 -14 -13 -14h-56q-13 0 -13 14z" />
    <glyph glyph-name="dotlessi" unicode="&#x131;" horiz-adv-x="235" 
d="M77 14v468q0 14 13 15l53 7q14 0 14 -13v-477q0 -14 -13 -14h-53q-14 0 -14 14z" />
    <glyph glyph-name="IJ" unicode="&#x132;" horiz-adv-x="641" 
d="M80 14v669q0 14 14 14h53q13 0 13 -14v-669q0 -14 -13 -14h-53q-14 0 -14 14zM269 15l-5 46q0 14 12 10q32 -9 79 -9q76 0 103 27t27 88v506q0 14 14 14h52q14 0 14 -14v-508q0 -98 -47.5 -141t-151.5 -43q-45 0 -81 9q-15 4 -16 15z" />
    <glyph glyph-name="ij" unicode="&#x133;" horiz-adv-x="467" 
d="M73 613v66q0 14 14 14h61q14 0 14 -14v-66q0 -14 -14 -14h-61q-8 0 -11 3t-3 11zM77 14v468q0 14 13 15l53 6q14 1 14 -13v-476q0 -14 -13 -14h-53q-14 0 -14 14zM305 613v66q0 14 14 14h61q14 0 14 -16v-64q0 -14 -14 -14h-61q-14 0 -14 14zM221 -211l-3 41q-1 7 2 11
t11 3q9 -2 21 -2q27 0 42.5 14.5t15.5 60.5v565q0 14 12 15l53 7q14 0 14 -13v-575q0 -143 -126 -143q-17 0 -31 3q-10 3 -11 13z" />
    <glyph glyph-name="Jcircumflex" unicode="&#x134;" horiz-adv-x="400" 
d="M28 15l-5 46q0 14 12 10q32 -9 79 -9q76 0 103 27t27 88v506q0 14 14 14h52q14 0 14 -14v-508q0 -98 -47.5 -141t-151.5 -43q-45 0 -81 9q-15 4 -16 15zM154 775l101 118q8 10 21 10h18q13 0 21 -10l101 -118q10 -12 -7 -12h-46q-12 0 -21 10l-59 70l-60 -70
q-10 -10 -22 -10h-41q-7 0 -9 3.5t3 8.5z" />
    <glyph glyph-name="jcircumflex" unicode="&#x135;" horiz-adv-x="238" 
d="M-8 -211l-3 41q-1 7 2 11t11 3q9 -2 21 -2q27 0 42.5 14.5t15.5 60.5v565q0 14 12 15l53 7q14 0 14 -13v-575q0 -143 -126 -143q-18 0 -31 3q-10 3 -11 13zM-10 604l101 118q8 10 21 10h18q13 0 21 -10l101 -118q10 -12 -7 -12h-46q-12 0 -21 10l-59 70l-60 -70
q-10 -10 -22 -10h-41q-7 0 -9 4t3 8z" />
    <glyph glyph-name="uni0136" unicode="&#x136;" horiz-adv-x="516" 
d="M80 14v669q0 14 14 14h53q13 0 13 -14v-292q27 -2 37 -5l193 304q6 12 21 9l52 -7q13 -1 7 -14l-206 -314q41 -25 89 -104l146 -237q8 -14 -5 -17l-54 -9q-15 -3 -21 8l-132 226q-33 57 -58.5 73.5t-68.5 18.5v-309q0 -14 -13 -14h-53q-14 0 -14 14zM253 -263h-47
q-15 0 -7 14q44 74 44 164v12q0 8 3 11t11 3h52q13 0 13 -14v-10q0 -99 -48 -167q-8 -13 -21 -13z" />
    <glyph glyph-name="uni0137" unicode="&#x137;" horiz-adv-x="481" 
d="M75 14v692q0 13 12 14l55 6q8 1 10.5 -2t2.5 -11v-393q13 0 23 -2l167 176q10 10 21 9l67 -6q16 -2 5 -15l-185 -187q25 -15 51 -54l155 -223q8 -12 -8 -14l-58 -8q-14 -3 -23 12l-136 205q-18 26 -33 33t-46 9v-241q0 -14 -13 -14h-53q-14 0 -14 14zM237 -263h-47
q-15 0 -7 14q44 74 44 164v12q0 8 3 11t11 3h52q13 0 13 -14v-10q0 -99 -48 -167q-8 -13 -21 -13z" />
    <glyph glyph-name="Lacute" unicode="&#x139;" horiz-adv-x="437" 
d="M80 14v669q0 14 14 14h53q13 0 13 -14v-612h235q14 0 13 -14l-5 -43q-1 -14 -16 -14h-293q-14 0 -14 14zM234 908l-72 -138q-7 -12 -20 -12h-44q-16 0 -10 14l60 137q5 13 19 13h57q16 0 10 -14z" />
    <glyph glyph-name="lacute" unicode="&#x13a;" horiz-adv-x="266" 
d="M73 132v573q0 14 12 15l53 6q15 2 15 -13v-574q0 -47 12 -61.5t47 -14.5q4 0 16 1t13 1q8 0 10 -2.5t2 -10.5l-4 -40q-1 -12 -14 -15q-18 -3 -41 -3q-57 0 -89 28.5t-32 109.5zM225 917l-72 -138q-7 -12 -20 -12h-44q-16 0 -10 14l60 137q5 13 19 13h57q16 0 10 -14z" />
    <glyph glyph-name="uni013B" unicode="&#x13b;" horiz-adv-x="437" 
d="M80 14v669q0 14 14 14h53q13 0 13 -14v-612h235q14 0 13 -14l-5 -43q-1 -14 -16 -14h-293q-14 0 -14 14zM219 -263h-47q-15 0 -7 14q44 74 44 164v12q0 8 3 11t11 3h52q13 0 13 -14v-10q0 -99 -48 -167q-8 -13 -21 -13z" />
    <glyph glyph-name="uni013C" unicode="&#x13c;" horiz-adv-x="266" 
d="M73 132v573q0 14 12 15l53 6q15 2 15 -13v-574q0 -47 12 -61.5t47 -14.5q4 0 16 1t13 1q8 0 10 -2.5t2 -10.5l-4 -40q-1 -12 -14 -15q-18 -3 -41 -3q-57 0 -89 28.5t-32 109.5zM133 -263h-47q-15 0 -7 14q44 74 44 164v12q0 8 3 11t11 3h52q13 0 13 -14v-10
q0 -99 -48 -167q-8 -13 -21 -13z" />
    <glyph glyph-name="Lcaron" unicode="&#x13d;" horiz-adv-x="437" 
d="M80 14v669q0 14 14 14h53q13 0 13 -14v-612h235q14 0 13 -14l-5 -43q-1 -14 -16 -14h-293q-14 0 -14 14zM279 583h-47q-15 0 -7 14q44 74 44 164v12q0 8 3 11t11 3h52q13 0 13 -14v-10q0 -99 -48 -167q-8 -13 -21 -13z" />
    <glyph glyph-name="lcaron" unicode="&#x13e;" horiz-adv-x="266" 
d="M73 132v573q0 14 12 15l53 6q15 2 15 -13v-574q0 -47 12 -61.5t47 -14.5q4 0 16 1t13 1q8 0 10 -2.5t2 -10.5l-4 -40q-1 -12 -14 -15q-18 -3 -41 -3q-57 0 -89 28.5t-32 109.5zM256 584h-47q-15 0 -7 14q44 74 44 164v12q0 8 3 11t11 3h52q13 0 13 -14v-10
q0 -99 -48 -167q-8 -13 -21 -13z" />
    <glyph glyph-name="Ldot" unicode="&#x13f;" horiz-adv-x="437" 
d="M80 14v669q0 14 14 14h53q13 0 13 -14v-612h235q14 0 13 -14l-5 -43q-1 -14 -16 -14h-293q-14 0 -14 14zM279 341v60q0 13 13 13h56q13 0 13 -13v-60q0 -14 -13 -14h-56q-13 0 -13 14z" />
    <glyph glyph-name="ldot" unicode="&#x140;" horiz-adv-x="270" 
d="M207 268v58q0 14 13 14h54q14 0 14 -14v-58q0 -13 -14 -13h-54q-13 0 -13 13zM73 132v573q0 14 12 15l53 6q15 2 15 -13v-574q0 -47 12 -61.5t47 -14.5q4 0 16 1t13 1q8 0 10 -2.5t2 -10.5l-4 -40q-1 -12 -14 -15q-18 -3 -41 -3q-57 0 -89 28.5t-32 109.5z" />
    <glyph glyph-name="Lslash" unicode="&#x141;" horiz-adv-x="442" 
d="M85 14v257l-32 -21q-12 -7 -19 4l-16 25q-6 11 4 19l63 42v343q0 14 14 14h53q13 0 13 -14v-290l86 57q12 9 19 -3l16 -24q9 -12 -3 -19l-118 -79v-254h235q14 0 13 -14l-5 -43q-1 -14 -16 -14h-293q-14 0 -14 14z" />
    <glyph glyph-name="lslash" unicode="&#x142;" horiz-adv-x="285" 
d="M31 254l-16 25q-6 11 4 19l63 42v365q0 14 12 15l53 6q15 2 15 -13v-320l86 57q12 9 19 -3l16 -24q9 -12 -3 -19l-118 -79v-186q0 -47 12 -61.5t47 -14.5q5 0 16.5 1t12.5 1q8 0 10 -2.5t2 -10.5l-4 -40q-1 -12 -14 -15q-18 -3 -41 -3q-57 0 -89 28.5t-32 109.5v139
l-32 -21q-12 -7 -19 4z" />
    <glyph glyph-name="Nacute" unicode="&#x143;" horiz-adv-x="577" 
d="M80 14v669q0 14 14 14h67q13 0 18 -12l189 -428q33 -73 55 -144h4q-8 84 -8 232v338q0 14 13 14h51q14 0 14 -14v-669q0 -14 -15 -14h-64q-14 0 -19 12l-187 423q-42 96 -58 149h-4q9 -93 9 -257v-313q0 -14 -14 -14h-51q-14 0 -14 14zM402 908l-72 -138q-7 -12 -20 -12
h-44q-16 0 -10 14l60 137q5 13 19 13h57q16 0 10 -14z" />
    <glyph glyph-name="nacute" unicode="&#x144;" horiz-adv-x="501" 
d="M75 14v446q0 15 16 20q67 29 166 29q85 0 128.5 -35t43.5 -126v-334q0 -14 -14 -14h-52q-14 0 -14 14v331q0 54 -21 76.5t-75 22.5q-60 0 -98 -15v-415q0 -14 -13 -14h-53q-14 0 -14 14zM364 737l-72 -138q-7 -12 -20 -12h-44q-16 0 -10 14l60 137q5 13 19 13h57
q16 0 10 -14z" />
    <glyph glyph-name="uni0145" unicode="&#x145;" horiz-adv-x="577" 
d="M80 14v669q0 14 14 14h67q13 0 18 -12l189 -428q33 -73 55 -144h4q-8 84 -8 232v338q0 14 13 14h51q14 0 14 -14v-669q0 -14 -15 -14h-64q-14 0 -19 12l-187 423q-42 96 -58 149h-4q9 -93 9 -257v-313q0 -14 -14 -14h-51q-14 0 -14 14zM279 -263h-47q-15 0 -7 14
q44 74 44 164v12q0 8 3 11t11 3h52q13 0 13 -14v-10q0 -99 -48 -167q-8 -13 -21 -13z" />
    <glyph glyph-name="uni0146" unicode="&#x146;" horiz-adv-x="501" 
d="M75 14v446q0 15 16 20q67 29 166 29q85 0 128.5 -35t43.5 -126v-334q0 -14 -14 -14h-52q-14 0 -14 14v331q0 54 -21 76.5t-75 22.5q-60 0 -98 -15v-415q0 -14 -13 -14h-53q-14 0 -14 14zM233 -263h-47q-15 0 -7 14q44 74 44 164v12q0 8 3 11t11 3h52q13 0 13 -14v-10
q0 -99 -48 -167q-8 -13 -21 -13z" />
    <glyph glyph-name="Ncaron" unicode="&#x147;" horiz-adv-x="577" 
d="M80 14v669q0 14 14 14h67q13 0 18 -12l189 -428q33 -73 55 -144h4q-8 84 -8 232v338q0 14 13 14h51q14 0 14 -14v-669q0 -14 -15 -14h-64q-14 0 -19 12l-187 423q-42 96 -58 149h-4q9 -93 9 -257v-313q0 -14 -14 -14h-51q-14 0 -14 14zM259 768l-101 118q-4 4 -2 8t9 4
h45q12 0 21 -10l59 -70l60 70q9 10 21 10h43q17 0 7 -12l-102 -118q-8 -10 -21 -10h-18q-13 0 -21 10z" />
    <glyph glyph-name="ncaron" unicode="&#x148;" horiz-adv-x="501" 
d="M75 14v446q0 15 16 20q67 29 166 29q85 0 128.5 -35t43.5 -126v-334q0 -14 -14 -14h-52q-14 0 -14 14v331q0 54 -21 76.5t-75 22.5q-60 0 -98 -15v-415q0 -14 -13 -14h-53q-14 0 -14 14zM222 597l-101 118q-4 5 -2 8.5t9 3.5h45q12 0 21 -10l59 -70l60 70q9 10 21 10h43
q17 0 7 -12l-102 -118q-8 -10 -21 -10h-18q-13 0 -21 10z" />
    <glyph glyph-name="napostrophe" unicode="&#x149;" horiz-adv-x="501" 
d="M75 14v446q0 15 16 20q67 29 166 29q85 0 128.5 -35t43.5 -126v-334q0 -14 -14 -14h-52q-14 0 -14 14v331q0 54 -21 76.5t-75 22.5q-60 0 -98 -15v-415q0 -14 -13 -14h-53q-14 0 -14 14zM125 586h-47q-15 0 -7 14q44 74 44 164v12q0 8 3 11t11 3h52q13 0 13 -14v-10
q0 -99 -48 -167q-8 -13 -21 -13z" />
    <glyph glyph-name="Eng" unicode="&#x14a;" horiz-adv-x="577" 
d="M80 14v669q0 14 14 14h64q12 0 17 -12l192 -428q36 -81 56 -144h4q-8 84 -8 232v338q0 14 13 14h51q14 0 14 -14v-768q0 -77 -28 -124q-7 -13 -24 -13h-39q-17 0 -8 13q33 48 33 129v80h-10q-13 0 -19 12l-190 423q-46 108 -58 149h-4q9 -93 9 -257v-313q0 -14 -14 -14
h-51q-14 0 -14 14z" />
    <glyph glyph-name="eng" unicode="&#x14b;" horiz-adv-x="501" 
d="M349 -73v418q0 54 -21 76.5t-75 22.5q-60 0 -98 -15v-415q0 -14 -13 -14h-53q-14 0 -14 14v446q0 15 16 20q67 29 166 29q85 0 128.5 -35t43.5 -126v-415q0 -94 -44.5 -127t-128.5 -33h-5q-14 0 -15 13l-5 42q0 14 12 14h6q21 0 34 2t30.5 9t26.5 26t9 48z" />
    <glyph glyph-name="Omacron" unicode="&#x14c;" horiz-adv-x="576" 
d="M72 172v353q0 96 52.5 140t159.5 44h14q106 0 155.5 -43.5t49.5 -140.5v-353q0 -96 -53 -140t-160 -44h-13q-106 0 -155.5 43.5t-49.5 140.5zM278 59h12q71 0 102.5 28t31.5 88v351q0 61 -28.5 89t-98.5 28h-12q-70 0 -101.5 -28.5t-31.5 -88.5v-351q0 -61 28 -88.5
t98 -27.5zM162 770v28q0 14 14 14h227q14 0 14 -14v-28q0 -14 -14 -14h-227q-14 0 -14 14z" />
    <glyph glyph-name="omacron" unicode="&#x14d;" horiz-adv-x="506" 
d="M68 149v202q0 89 49 125t134 36h10q84 0 130.5 -35.5t46.5 -125.5v-202q0 -89 -49 -125t-134 -36h-10q-84 0 -130.5 35.5t-46.5 125.5zM244 57h12q102 0 102 99v194q0 52 -23.5 74.5t-72.5 22.5h-12q-51 0 -76.5 -22.5t-25.5 -74.5v-195q0 -52 23.5 -75t72.5 -23z
M126 601v28q0 14 14 14h227q14 0 14 -14v-28q0 -14 -14 -14h-227q-14 0 -14 14z" />
    <glyph glyph-name="Obreve" unicode="&#x14e;" horiz-adv-x="576" 
d="M72 172v353q0 96 52.5 140t159.5 44h14q106 0 155.5 -43.5t49.5 -140.5v-353q0 -96 -53 -140t-160 -44h-13q-106 0 -155.5 43.5t-49.5 140.5zM278 59h12q71 0 102.5 28t31.5 88v351q0 61 -28.5 89t-98.5 28h-12q-70 0 -101.5 -28.5t-31.5 -88.5v-351q0 -61 28 -88.5
t98 -27.5zM154 893h33q12 0 15 -15q12 -66 87 -66q76 0 86 67q3 14 15 14h34q14 0 11 -14q-20 -123 -146 -123t-147 121q-3 16 12 16z" />
    <glyph glyph-name="obreve" unicode="&#x14f;" horiz-adv-x="506" 
d="M68 149v202q0 89 49 125t134 36h10q84 0 130.5 -35.5t46.5 -125.5v-202q0 -89 -49 -125t-134 -36h-10q-84 0 -130.5 35.5t-46.5 125.5zM244 57h12q102 0 102 99v194q0 52 -23.5 74.5t-72.5 22.5h-12q-51 0 -76.5 -22.5t-25.5 -74.5v-195q0 -52 23.5 -75t72.5 -23z
M118 724h33q12 0 15 -15q12 -66 87 -66q76 0 86 67q3 14 15 14h34q14 0 11 -14q-20 -123 -146 -123t-147 121q-3 16 12 16z" />
    <glyph glyph-name="Ohungarumlaut" unicode="&#x150;" horiz-adv-x="576" 
d="M72 172v353q0 96 52.5 140t159.5 44h14q106 0 155.5 -43.5t49.5 -140.5v-353q0 -96 -53 -140t-160 -44h-13q-106 0 -155.5 43.5t-49.5 140.5zM278 59h12q71 0 102.5 28t31.5 88v351q0 61 -28.5 89t-98.5 28h-12q-70 0 -101.5 -28.5t-31.5 -88.5v-351q0 -61 28 -88.5
t98 -27.5zM335 769l70 172q5 13 17 13h40q14 0 9 -13l-83 -173q-7 -12 -17 -12h-25q-18 0 -11 13zM192 769l56 172q4 13 16 13h36q16 0 11 -13l-66 -172q-5 -13 -16 -13h-25q-15 0 -12 13z" />
    <glyph glyph-name="ohungarumlaut" unicode="&#x151;" horiz-adv-x="506" 
d="M68 149v202q0 89 49 125t134 36h10q84 0 130.5 -35.5t46.5 -125.5v-202q0 -89 -49 -125t-134 -36h-10q-84 0 -130.5 35.5t-46.5 125.5zM244 57h12q102 0 102 99v194q0 52 -23.5 74.5t-72.5 22.5h-12q-51 0 -76.5 -22.5t-25.5 -74.5v-195q0 -52 23.5 -75t72.5 -23z
M299 600l70 172q5 13 17 13h40q14 0 9 -13l-83 -173q-7 -12 -17 -12h-25q-18 0 -11 13zM156 600l56 172q4 13 16 13h36q16 0 11 -13l-66 -172q-5 -13 -16 -13h-25q-15 0 -12 13z" />
    <glyph glyph-name="OE" unicode="&#x152;" horiz-adv-x="797" 
d="M72 172v352q0 97 53 141t159 44h6q45 0 91 -12h341q15 0 16 -14l5 -37q1 -15 -13 -15h-282v-235h221q14 0 14 -13v-42q0 -14 -14 -14h-221v-256h291q15 0 14 -14l-8 -44q-1 -13 -15 -13h-351q-39 -12 -96 -12h-7q-105 0 -154.5 43.5t-49.5 140.5zM277 59h7q54 0 84 12
v560q-25 11 -76 11h-8q-70 0 -101 -28t-31 -88v-351q0 -61 28 -88.5t97 -27.5z" />
    <glyph glyph-name="oe" unicode="&#x153;" horiz-adv-x="771" 
d="M68 149v202q0 89 48.5 125t134.5 36h10q98 0 137 -57q38 57 146 57h12q163 0 163 -139v-15q0 -71 -35 -98t-121 -27q-54 0 -125 15v-85q0 -59 26 -81t91 -22q52 0 131 17q7 1 10 -1.5t2 -7.5l-5 -44q-2 -11 -14 -16q-43 -17 -128 -17q-119 0 -154 54q-41 -57 -142 -57
h-10q-85 0 -131 35.5t-46 125.5zM438 353v-43q59 -16 125 -16q45 0 62.5 15.5t17.5 51.5v10q0 39 -22 57.5t-71 18.5h-7q-55 0 -80 -21.5t-25 -72.5zM244 57h12q102 0 102 99v194q0 52 -23 74.5t-73 22.5h-12q-51 0 -76.5 -22.5t-25.5 -74.5v-195q0 -52 23 -75t73 -23z" />
    <glyph glyph-name="Racute" unicode="&#x154;" horiz-adv-x="533" 
d="M80 14v669q0 14 14 14h178q109 0 153.5 -39.5t44.5 -139.5v-40q0 -119 -108 -152q32 -19 66 -109l74 -199q5 -14 -8 -15l-54 -6q-14 -1 -18 11l-75 208q-19 52 -37 67.5t-72 15.5h-78v-285q0 -14 -13 -14h-53q-14 0 -14 14zM160 366h107q67 0 95 23t28 81v57
q0 59 -25.5 81.5t-92.5 22.5h-112v-265zM378 908l-72 -138q-7 -12 -20 -12h-44q-16 0 -10 14l60 137q5 13 19 13h57q16 0 10 -14z" />
    <glyph glyph-name="racute" unicode="&#x155;" horiz-adv-x="324" 
d="M72 14v348q0 85 37 116t111 31q47 0 71 -7q13 -4 14 -15l4 -47q0 -14 -12 -11q-34 6 -66 6q-18 0 -29.5 -2t-24.5 -9.5t-19 -24.5t-6 -43v-342q0 -14 -13 -14h-53q-14 0 -14 14zM308 737l-72 -138q-7 -12 -20 -12h-44q-16 0 -10 14l60 137q5 13 19 13h57q16 0 10 -14z
" />
    <glyph glyph-name="uni0156" unicode="&#x156;" horiz-adv-x="533" 
d="M80 14v669q0 14 14 14h178q109 0 153.5 -39.5t44.5 -139.5v-40q0 -119 -108 -152q32 -19 66 -109l74 -199q5 -14 -8 -15l-54 -6q-14 -1 -18 11l-75 208q-19 52 -37 67.5t-72 15.5h-78v-285q0 -14 -13 -14h-53q-14 0 -14 14zM160 366h107q67 0 95 23t28 81v57
q0 59 -25.5 81.5t-92.5 22.5h-112v-265zM270 -263h-47q-15 0 -7 14q44 74 44 164v12q0 8 3 11t11 3h52q13 0 13 -14v-10q0 -99 -48 -167q-8 -13 -21 -13z" />
    <glyph glyph-name="uni0157" unicode="&#x157;" horiz-adv-x="324" 
d="M72 14v348q0 85 37 116t111 31q47 0 71 -7q13 -4 14 -15l4 -47q0 -14 -12 -11q-34 6 -66 6q-18 0 -29.5 -2t-24.5 -9.5t-19 -24.5t-6 -43v-342q0 -14 -13 -14h-53q-14 0 -14 14zM83 -263h-47q-15 0 -7 14q44 74 44 164v12q0 8 3 11t11 3h52q13 0 13 -14v-10
q0 -99 -48 -167q-8 -13 -21 -13z" />
    <glyph glyph-name="Rcaron" unicode="&#x158;" horiz-adv-x="533" 
d="M80 14v669q0 14 14 14h178q109 0 153.5 -39.5t44.5 -139.5v-40q0 -119 -108 -152q32 -19 66 -109l74 -199q5 -14 -8 -15l-54 -6q-14 -1 -18 11l-75 208q-19 52 -37 67.5t-72 15.5h-78v-285q0 -14 -13 -14h-53q-14 0 -14 14zM160 366h107q67 0 95 23t28 81v57
q0 59 -25.5 81.5t-92.5 22.5h-112v-265zM236 768l-101 118q-4 4 -2 8t9 4h45q12 0 21 -10l59 -70l60 70q9 10 21 10h43q17 0 7 -12l-102 -118q-8 -10 -21 -10h-18q-13 0 -21 10z" />
    <glyph glyph-name="rcaron" unicode="&#x159;" horiz-adv-x="324" 
d="M72 14v348q0 85 37 116t111 31q47 0 71 -7q13 -4 14 -15l4 -47q0 -14 -12 -11q-34 6 -66 6q-18 0 -29.5 -2t-24.5 -9.5t-19 -24.5t-6 -43v-342q0 -14 -13 -14h-53q-14 0 -14 14zM165 597l-101 118q-4 5 -2 8.5t9 3.5h45q12 0 21 -10l59 -70l60 70q9 10 21 10h43
q17 0 7 -12l-102 -118q-8 -10 -21 -10h-18q-13 0 -21 10z" />
    <glyph glyph-name="Sacute" unicode="&#x15a;" horiz-adv-x="494" 
d="M64 25l-5 42q-1 8 2 11t12 1q102 -17 150 -17q80 0 108 22.5t28 91.5v31q0 63 -23 87t-85 37l-16 4q-47 10 -74 19.5t-53 28t-37 48.5t-11 75v25q0 99 48 137t152 38q74 0 118 -14q16 -5 17 -18l4 -38q1 -7 -2 -10t-11 -2q-50 16 -130 16q-61 0 -88.5 -21.5t-27.5 -79.5
v-23q0 -55 22.5 -75.5t88.5 -34.5l16 -4q96 -20 133.5 -57t37.5 -132v-31q0 -109 -46 -150t-164 -41q-74 0 -149 16q-14 4 -15 18zM354 908l-72 -138q-7 -12 -20 -12h-44q-16 0 -10 14l60 137q5 13 19 13h57q16 0 10 -14z" />
    <glyph glyph-name="sacute" unicode="&#x15b;" horiz-adv-x="432" 
d="M57 29l-4 38q-1 8 2.5 11t11.5 1q65 -19 139 -19h4q52 0 75 14t23 57v11q0 38 -16.5 54.5t-65.5 26.5l-33 7q-76 16 -106.5 43.5t-30.5 88.5v18q0 129 157 129h3q73 0 117 -14q15 -5 16 -15l3 -39q1 -7 -1.5 -10t-9.5 -2q-60 15 -115 15h-5q-44 0 -65.5 -13.5
t-21.5 -49.5v-11q0 -29 16 -45t66 -27l37 -8q70 -15 101.5 -43.5t31.5 -96.5v-22q0 -82 -45 -109.5t-131 -27.5h-4q-89 0 -134 17q-13 5 -15 21zM329 737l-72 -138q-7 -12 -20 -12h-44q-16 0 -10 14l60 137q5 13 19 13h57q16 0 10 -14z" />
    <glyph glyph-name="Scircumflex" unicode="&#x15c;" horiz-adv-x="494" 
d="M64 25l-5 42q-1 8 2 11t12 1q102 -17 150 -17q80 0 108 22.5t28 91.5v31q0 63 -23 87t-85 37l-16 4q-47 10 -74 19.5t-53 28t-37 48.5t-11 75v25q0 99 48 137t152 38q74 0 118 -14q16 -5 17 -18l4 -38q1 -7 -2 -10t-11 -2q-50 16 -130 16q-61 0 -88.5 -21.5t-27.5 -79.5
v-23q0 -55 22.5 -75.5t88.5 -34.5l16 -4q96 -20 133.5 -57t37.5 -132v-31q0 -109 -46 -150t-164 -41q-74 0 -149 16q-14 4 -15 18zM110 775l101 118q8 10 21 10h18q13 0 21 -10l101 -118q10 -12 -7 -12h-46q-12 0 -21 10l-59 70l-60 -70q-10 -10 -22 -10h-41q-7 0 -9 3.5
t3 8.5z" />
    <glyph glyph-name="scircumflex" unicode="&#x15d;" horiz-adv-x="432" 
d="M57 29l-4 38q-1 8 2.5 11t11.5 1q65 -19 139 -19h4q52 0 75 14t23 57v11q0 38 -16.5 54.5t-65.5 26.5l-33 7q-76 16 -106.5 43.5t-30.5 88.5v18q0 129 157 129h3q73 0 117 -14q15 -5 16 -15l3 -39q1 -7 -1.5 -10t-9.5 -2q-60 15 -115 15h-5q-44 0 -65.5 -13.5
t-21.5 -49.5v-11q0 -29 16 -45t66 -27l37 -8q70 -15 101.5 -43.5t31.5 -96.5v-22q0 -82 -45 -109.5t-131 -27.5h-4q-89 0 -134 17q-13 5 -15 21zM85 604l101 118q8 10 21 10h18q13 0 21 -10l101 -118q10 -12 -7 -12h-46q-12 0 -21 10l-59 70l-60 -70q-10 -10 -22 -10h-41
q-7 0 -9 4t3 8z" />
    <glyph glyph-name="Scedilla" unicode="&#x15e;" horiz-adv-x="494" 
d="M140 -223v25q0 14 13 11q2 0 16.5 -3.5t35 -6.5t40.5 -3q41 0 56.5 14t15.5 41q0 29 -21 41t-82 12h-3q-14 0 -14 14v70q-73 4 -118 15q-14 4 -15 18l-5 42q-1 8 2 11t12 1q102 -17 150 -17q80 0 108 22.5t28 91.5v31q0 63 -23 87t-85 37l-16 4q-47 10 -74 19.5t-53 28
t-37 48.5t-11 75v25q0 99 48 137t152 38q74 0 118 -14q16 -5 17 -18l4 -38q1 -7 -2 -10t-11 -2q-50 16 -130 16q-61 0 -88.5 -21.5t-27.5 -79.5v-23q0 -55 22.5 -75.5t88.5 -34.5l16 -4q96 -20 133.5 -57t37.5 -132v-31q0 -103 -40.5 -144.5t-141.5 -45.5v-37
q67 -1 94 -29.5t27 -65.5q0 -114 -120 -114q-71 0 -106 14q-11 4 -11 17z" />
    <glyph glyph-name="scedilla" unicode="&#x15f;" horiz-adv-x="432" 
d="M112 -222v25q0 14 13 11q2 0 16.5 -3.5t35 -6.5t40.5 -3q41 0 56.5 14t15.5 41q0 29 -21 41t-82 12h-3q-14 0 -14 14v69q-70 5 -97 16q-13 5 -15 21l-4 38q-1 8 2.5 11t11.5 1q65 -19 139 -19h4q52 0 75 14t23 57v11q0 38 -16.5 54.5t-65.5 26.5l-33 7
q-76 16 -106.5 43.5t-30.5 88.5v18q0 129 157 129h3q73 0 117 -14q15 -5 16 -15l3 -39q1 -7 -1.5 -10t-9.5 -2q-60 15 -115 15h-5q-44 0 -65.5 -13.5t-21.5 -49.5v-11q0 -29 16 -45t66 -27l37 -8q70 -15 101.5 -43.5t31.5 -96.5v-22q0 -78 -40.5 -106t-117.5 -31v-35
q67 -1 94 -29.5t27 -65.5q0 -114 -120 -114q-71 0 -106 14q-11 4 -11 17z" />
    <glyph glyph-name="Scaron" unicode="&#x160;" horiz-adv-x="494" 
d="M64 25l-5 42q-1 8 2 11t12 1q102 -17 150 -17q80 0 108 22.5t28 91.5v31q0 63 -23 87t-85 37l-16 4q-47 10 -74 19.5t-53 28t-37 48.5t-11 75v25q0 99 48 137t152 38q74 0 118 -14q16 -5 17 -18l4 -38q1 -7 -2 -10t-11 -2q-50 16 -130 16q-61 0 -88.5 -21.5t-27.5 -79.5
v-23q0 -55 22.5 -75.5t88.5 -34.5l16 -4q96 -20 133.5 -57t37.5 -132v-31q0 -109 -46 -150t-164 -41q-74 0 -149 16q-14 4 -15 18zM212 768l-101 118q-4 4 -2 8t9 4h45q12 0 21 -10l59 -70l60 70q9 10 21 10h43q17 0 7 -12l-102 -118q-8 -10 -21 -10h-18q-13 0 -21 10z" />
    <glyph glyph-name="scaron" unicode="&#x161;" horiz-adv-x="432" 
d="M57 29l-4 38q-1 8 2.5 11t11.5 1q65 -19 139 -19h4q52 0 75 14t23 57v11q0 38 -16.5 54.5t-65.5 26.5l-33 7q-76 16 -106.5 43.5t-30.5 88.5v18q0 129 157 129h3q73 0 117 -14q15 -5 16 -15l3 -39q1 -7 -1.5 -10t-9.5 -2q-60 15 -115 15h-5q-44 0 -65.5 -13.5
t-21.5 -49.5v-11q0 -29 16 -45t66 -27l37 -8q70 -15 101.5 -43.5t31.5 -96.5v-22q0 -82 -45 -109.5t-131 -27.5h-4q-89 0 -134 17q-13 5 -15 21zM187 597l-101 118q-4 5 -2 8.5t9 3.5h45q12 0 21 -10l59 -70l60 70q9 10 21 10h43q17 0 7 -12l-102 -118q-8 -10 -21 -10h-18
q-13 0 -21 10z" />
    <glyph glyph-name="uni0162" unicode="&#x162;" horiz-adv-x="448" 
d="M138 -222v25q0 14 13 11q2 0 16.5 -3.5t35 -6.5t40.5 -3q41 0 56.5 14t15.5 41q0 29 -21 41t-82 12h-3q-14 0 -14 14v77q-12 0 -12 14v617h-153q-14 0 -13 13l4 39q1 14 15 14h374q12 0 15 -14l5 -39q1 -13 -12 -13h-155v-605q0 -23 -9 -26v-44q67 -1 94 -29.5t27 -65.5
q0 -114 -120 -114q-71 0 -106 14q-11 4 -11 17z" />
    <glyph glyph-name="uni0163" unicode="&#x163;" horiz-adv-x="340" 
d="M96 -221v25q0 14 13 11q2 0 16.5 -3.5t35 -6.5t40.5 -3q41 0 56.5 14t15.5 41q0 29 -21 41t-82 12h-3q-14 0 -14 14v83q-60 27 -60 127v305h-63q-8 0 -11 3t-3 11v33q0 8 3 11t11 3h63v123q0 14 13 15l52 6q15 2 15 -13v-131h115q9 0 11.5 -2t3.5 -10l4 -36
q1 -8 -1.5 -10.5t-10.5 -2.5h-122v-305q0 -45 15 -58t63 -13q13 0 30 2t20 2q12 0 11 -13l-4 -38q-2 -15 -14 -17q-25 -5 -54 -5q-19 0 -28 1v-38q67 -1 94 -29.5t27 -65.5q0 -114 -120 -114q-71 0 -106 14q-11 4 -11 17z" />
    <glyph glyph-name="Tcaron" unicode="&#x164;" horiz-adv-x="448" 
d="M183 14v617h-153q-14 0 -13 13l4 39q1 14 15 14h374q12 0 15 -14l5 -39q1 -13 -12 -13h-155v-605q0 -16 -3 -21t-11 -5h-52q-14 0 -14 14zM195 768l-101 118q-4 4 -2 8t9 4h45q12 0 21 -10l59 -70l60 70q9 10 21 10h43q17 0 7 -12l-102 -118q-8 -10 -21 -10h-18
q-13 0 -21 10z" />
    <glyph glyph-name="tcaron" unicode="&#x165;" horiz-adv-x="340" 
d="M93 134v305h-63q-8 0 -11 3t-3 11v33q0 8 3 11t11 3h63v123q0 14 13 15l52 6q15 2 15 -13v-131h115q9 0 11.5 -2t3.5 -10l4 -36q1 -8 -1.5 -10.5t-10.5 -2.5h-122v-305q0 -45 15 -58t63 -13q13 0 30 2t20 2q12 0 11 -13l-4 -38q-2 -15 -14 -17q-25 -5 -54 -5
q-75 0 -111 28.5t-36 111.5zM306 558h-47q-15 0 -7 14q44 74 44 164v12q0 8 3 11t11 3h52q13 0 13 -14v-10q0 -99 -48 -167q-8 -13 -21 -13z" />
    <glyph glyph-name="Tbar" unicode="&#x166;" horiz-adv-x="448" 
d="M183 14v617h-153q-14 0 -13 13l4 39q1 14 15 14h374q12 0 15 -14l5 -39q1 -13 -12 -13h-155v-605q0 -16 -3 -21t-11 -5h-52q-14 0 -14 14zM105 780v30q0 13 13 13h213q13 0 13 -13v-30q0 -13 -13 -13h-213q-13 0 -13 13z" />
    <glyph glyph-name="tbar" unicode="&#x167;" horiz-adv-x="340" 
d="M34 255v29q0 14 13 14h46v141h-63q-8 0 -11 3t-3 11v33q0 8 3 11t11 3h63v123q0 14 13 15l52 6q15 2 15 -13v-131h115q9 0 11.5 -2t3.5 -10l4 -36q1 -8 -1.5 -10.5t-10.5 -2.5h-122v-141h82q14 0 14 -14v-29q0 -13 -14 -13h-82v-108q0 -45 15 -58t63 -13q13 0 30 2t20 2
q12 0 11 -13l-4 -38q-2 -15 -14 -17q-25 -5 -54 -5q-75 0 -111 28.5t-36 111.5v108h-46q-13 0 -13 13z" />
    <glyph glyph-name="Utilde" unicode="&#x168;" horiz-adv-x="562" 
d="M76 165v518q0 14 14 14h53q13 0 13 -14v-515q0 -59 28 -84t93 -25q66 0 97.5 25.5t31.5 83.5v515q0 14 14 14h52q14 0 14 -14v-518q0 -95 -52 -136t-153 -41h-7q-100 0 -149 41t-49 136zM163 782l-14 21q-7 10 2 21q24 30 70 30q33 0 66 -22t53 -22q22 0 38 17q9 14 21 0
l13 -18q9 -9 -1 -24q-28 -37 -72 -37q-32 0 -65.5 22t-54.5 22t-38 -13q-10 -8 -18 3z" />
    <glyph glyph-name="utilde" unicode="&#x169;" horiz-adv-x="501" 
d="M72 152v330q0 14 12 15l54 6q14 1 14 -13v-331q0 -54 21 -76.5t75 -22.5q64 0 98 15v415q0 8 3 11t9 2l55 -6q13 -1 13 -15v-443q0 -14 -16 -20q-70 -28 -165 -28q-86 0 -129.5 35t-43.5 126zM131 611l-14 21q-7 10 2 21q24 30 70 30q33 0 66 -22t53 -22q22 0 38 17
q9 14 21 0l13 -18q9 -9 -1 -24q-28 -37 -72 -37q-32 0 -65.5 22t-54.5 22t-38 -13q-10 -8 -18 3z" />
    <glyph glyph-name="Umacron" unicode="&#x16a;" horiz-adv-x="562" 
d="M76 165v518q0 14 14 14h53q13 0 13 -14v-515q0 -59 28 -84t93 -25q66 0 97.5 25.5t31.5 83.5v515q0 14 14 14h52q14 0 14 -14v-518q0 -95 -52 -136t-153 -41h-7q-100 0 -149 41t-49 136zM154 772v28q0 14 14 14h227q14 0 14 -14v-28q0 -14 -14 -14h-227q-14 0 -14 14z
" />
    <glyph glyph-name="umacron" unicode="&#x16b;" horiz-adv-x="501" 
d="M72 152v330q0 14 12 15l54 6q14 1 14 -13v-331q0 -54 21 -76.5t75 -22.5q64 0 98 15v415q0 8 3 11t9 2l55 -6q13 -1 13 -15v-443q0 -14 -16 -20q-70 -28 -165 -28q-86 0 -129.5 35t-43.5 126zM122 601v28q0 14 14 14h227q14 0 14 -14v-28q0 -14 -14 -14h-227
q-14 0 -14 14z" />
    <glyph glyph-name="Ubreve" unicode="&#x16c;" horiz-adv-x="562" 
d="M76 165v518q0 14 14 14h53q13 0 13 -14v-515q0 -59 28 -84t93 -25q66 0 97.5 25.5t31.5 83.5v515q0 14 14 14h52q14 0 14 -14v-518q0 -95 -52 -136t-153 -41h-7q-100 0 -149 41t-49 136zM146 895h33q12 0 15 -15q12 -66 87 -66q76 0 86 67q3 14 15 14h34q14 0 11 -14
q-20 -123 -146 -123t-147 121q-3 16 12 16z" />
    <glyph glyph-name="ubreve" unicode="&#x16d;" horiz-adv-x="501" 
d="M72 152v330q0 14 12 15l54 6q14 1 14 -13v-331q0 -54 21 -76.5t75 -22.5q64 0 98 15v415q0 8 3 11t9 2l55 -6q13 -1 13 -15v-443q0 -14 -16 -20q-70 -28 -165 -28q-86 0 -129.5 35t-43.5 126zM114 724h33q12 0 15 -15q12 -66 87 -66q76 0 86 67q3 14 15 14h34
q14 0 11 -14q-20 -123 -146 -123t-147 121q-3 16 12 16z" />
    <glyph glyph-name="Uring" unicode="&#x16e;" horiz-adv-x="562" 
d="M76 165v518q0 14 14 14h53q13 0 13 -14v-515q0 -59 28 -84t93 -25q66 0 97.5 25.5t31.5 83.5v515q0 14 14 14h52q14 0 14 -14v-518q0 -95 -52 -136t-153 -41h-7q-100 0 -149 41t-49 136zM178 830v23q0 90 91 90h27q91 0 91 -90v-23q0 -90 -91 -90h-27q-91 0 -91 90z
M273 784h19q28 0 38.5 10.5t10.5 38.5v16q0 28 -10.5 39t-38.5 11h-19q-29 0 -39 -11t-10 -39v-16q0 -28 10 -38.5t39 -10.5z" />
    <glyph glyph-name="uring" unicode="&#x16f;" horiz-adv-x="501" 
d="M72 152v330q0 14 12 15l54 6q14 1 14 -13v-331q0 -54 21 -76.5t75 -22.5q64 0 98 15v415q0 8 3 11t9 2l55 -6q13 -1 13 -15v-443q0 -14 -16 -20q-70 -28 -165 -28q-86 0 -129.5 35t-43.5 126zM146 659v23q0 90 91 90h27q91 0 91 -90v-23q0 -90 -91 -90h-27q-91 0 -91 90z
M241 613h19q28 0 38.5 10.5t10.5 38.5v16q0 28 -10.5 39t-38.5 11h-19q-29 0 -39 -11t-10 -39v-16q0 -28 10 -38.5t39 -10.5z" />
    <glyph glyph-name="Uhungarumlaut" unicode="&#x170;" horiz-adv-x="562" 
d="M76 165v518q0 14 14 14h53q13 0 13 -14v-515q0 -59 28 -84t93 -25q66 0 97.5 25.5t31.5 83.5v515q0 14 14 14h52q14 0 14 -14v-518q0 -95 -52 -136t-153 -41h-7q-100 0 -149 41t-49 136zM327 771l70 172q5 13 17 13h40q14 0 9 -13l-83 -173q-7 -12 -17 -12h-25
q-18 0 -11 13zM184 771l56 172q4 13 16 13h36q16 0 11 -13l-66 -172q-5 -13 -16 -13h-25q-15 0 -12 13z" />
    <glyph glyph-name="uhungarumlaut" unicode="&#x171;" horiz-adv-x="501" 
d="M72 152v330q0 14 12 15l54 6q14 1 14 -13v-331q0 -54 21 -76.5t75 -22.5q64 0 98 15v415q0 8 3 11t9 2l55 -6q13 -1 13 -15v-443q0 -14 -16 -20q-70 -28 -165 -28q-86 0 -129.5 35t-43.5 126zM295 600l70 172q5 13 17 13h40q14 0 9 -13l-83 -173q-7 -12 -17 -12h-25
q-18 0 -11 13zM152 600l56 172q4 13 16 13h36q16 0 11 -13l-66 -172q-5 -13 -16 -13h-25q-15 0 -12 13z" />
    <glyph glyph-name="Uogonek" unicode="&#x172;" horiz-adv-x="562" 
d="M356 -224h-15q-134 0 -134 110q0 62 59 102q-96 2 -143 43t-47 134v518q0 14 14 14h53q13 0 13 -14v-515q0 -59 28 -84t93 -25q66 0 97.5 25.5t31.5 83.5v515q0 14 14 14h52q14 0 14 -14v-518q0 -83 -39.5 -124.5t-117.5 -49.5q-22 -14 -36 -28.5t-19.5 -27.5t-7 -21
t-1.5 -19q0 -57 74 -57h17q8 0 10.5 -3t2.5 -11v-34q0 -8 -2.5 -11t-10.5 -3z" />
    <glyph glyph-name="uogonek" unicode="&#x173;" horiz-adv-x="501" 
d="M416 -208h-15q-134 0 -134 110q0 56 48 94q-37 -5 -70 -5q-86 0 -129.5 35t-43.5 126v330q0 14 12 15l54 6q14 1 14 -13v-331q0 -54 21 -76.5t75 -22.5q64 0 98 15v415q0 8 3 11t9 2l55 -6q13 -1 13 -15v-443q0 -13 -15 -20q-39 -21 -59.5 -44t-23.5 -35t-3 -29
q0 -57 74 -57h17q8 0 10.5 -3t2.5 -11v-34q0 -8 -2.5 -11t-10.5 -3z" />
    <glyph glyph-name="Wcircumflex" unicode="&#x174;" horiz-adv-x="746" 
d="M144 14l-119 665q-1 15 12 16l51 5q8 1 11 -2t5 -12l80 -460q16 -93 19 -144h3q7 64 23 141l95 451q1 14 16 14h68q14 0 17 -14l95 -455q15 -76 22 -138h3q10 89 19 142l81 463q1 15 15 14l48 -5q15 -1 12 -16l-118 -665q-3 -14 -17 -14h-78q-14 0 -17 14l-80 386
q-27 134 -34 206h-4q-14 -101 -36 -205l-82 -387q-1 -14 -16 -14h-78q-13 0 -16 14zM243 775l101 118q8 10 21 10h18q13 0 21 -10l101 -118q10 -12 -7 -12h-46q-12 0 -21 10l-59 70l-60 -70q-10 -10 -22 -10h-41q-7 0 -9 3.5t3 8.5z" />
    <glyph glyph-name="wcircumflex" unicode="&#x175;" horiz-adv-x="687" 
d="M132 13l-108 468q-4 14 11 16l53 6q14 0 17 -13l56 -271l10.5 -54.5l10.5 -57.5t6 -35h3q10 49 36 149l68 262q4 14 18 14h66q13 0 17 -13l71 -269q25 -101 32 -143h4q10 68 26 147l56 271q3 13 16 13l50 -6q15 -2 12 -15l-107 -471q-3 -11 -14 -11h-80q-11 0 -14 11
l-74 291l-28 118h-3q-7 -40 -25 -112l-78 -295q-4 -13 -17 -13h-74q-14 0 -17 13zM216 604l101 118q8 10 21 10h18q13 0 21 -10l101 -118q10 -12 -7 -12h-46q-12 0 -21 10l-59 70l-60 -70q-10 -10 -22 -10h-41q-7 0 -9 4t3 8z" />
    <glyph glyph-name="Ycircumflex" unicode="&#x176;" horiz-adv-x="484" 
d="M200 14v293l-193 370q-7 14 9 16l55 7q14 1 20 -9l115 -231q20 -39 33 -71h3q16 35 34 70l118 232q6 10 19 9l53 -7q15 -2 7 -16l-194 -370v-293q0 -14 -13 -14h-53q-13 0 -13 14zM108 775l101 118q8 10 21 10h18q13 0 21 -10l101 -118q10 -12 -7 -12h-46q-12 0 -21 10
l-59 70l-60 -70q-10 -10 -22 -10h-41q-7 0 -9 3.5t3 8.5z" />
    <glyph glyph-name="ycircumflex" unicode="&#x177;" horiz-adv-x="502" 
d="M181 -206l-4 40q-1 8 1.5 11t11.5 2l12 -1q11 -2 24 -3t18 -1q18 0 29 1t27.5 5.5t26 12.5t16.5 24.5t7 40.5v113q-30 -39 -114 -39h-3q-76 0 -118.5 35.5t-42.5 123.5v323q0 14 12 15l54 6q14 0 14 -13v-322q0 -54 20.5 -76.5t72.5 -22.5h4q52 0 74.5 22t22.5 71v328
q0 13 15 13l52 -6q13 -1 13 -15v-548q0 -94 -44 -127.5t-126 -33.5q-40 0 -64 6q-10 4 -11 15zM118 604l101 118q8 10 21 10h18q13 0 21 -10l101 -118q10 -12 -7 -12h-46q-12 0 -21 10l-59 70l-60 -70q-10 -10 -22 -10h-41q-7 0 -9 4t3 8z" />
    <glyph glyph-name="Ydieresis" unicode="&#x178;" horiz-adv-x="484" 
d="M200 14v293l-193 370q-7 14 9 16l55 7q14 1 20 -9l115 -231q20 -39 33 -71h3q16 35 34 70l118 232q6 10 19 9l53 -7q15 -2 7 -16l-194 -370v-293q0 -14 -13 -14h-53q-13 0 -13 14zM193 841v-66q0 -8 -2.5 -11t-10.5 -3h-60q-8 0 -11 3t-3 11v66q0 8 3 11t11 3h60
q8 0 10.5 -3t2.5 -11zM369 841v-66q0 -8 -2.5 -11t-10.5 -3h-60q-8 0 -11 3t-3 11v66q0 8 3 11t11 3h60q8 0 10.5 -3t2.5 -11z" />
    <glyph glyph-name="Zacute" unicode="&#x179;" horiz-adv-x="476" 
d="M36 13v10q0 15 6 27l282 581h-257q-8 0 -10.5 2.5t-1.5 9.5l6 41q1 13 15 13h334q14 0 14 -14v-9q0 -11 -6 -26l-281 -577h287q13 0 13 -14l-6 -43q-1 -14 -17 -14h-365q-13 0 -13 13zM361 908l-72 -138q-7 -12 -20 -12h-44q-16 0 -10 14l60 137q5 13 19 13h57
q16 0 10 -14z" />
    <glyph glyph-name="zacute" unicode="&#x17a;" horiz-adv-x="441" 
d="M42 14v8q0 9 6 21l229 392h-206q-12 0 -12 13l6 40q1 12 15 12h292q13 0 13 -13v-4q0 -12 -5 -20l-230 -394h239q14 0 13 -13l-6 -42q-1 -14 -15 -14h-326q-13 0 -13 14zM343 737l-72 -138q-7 -12 -20 -12h-44q-16 0 -10 14l60 137q5 13 19 13h57q16 0 10 -14z" />
    <glyph glyph-name="Zdotaccent" unicode="&#x17b;" horiz-adv-x="476" 
d="M36 13v10q0 15 6 27l282 581h-257q-8 0 -10.5 2.5t-1.5 9.5l6 41q1 13 15 13h334q14 0 14 -14v-9q0 -11 -6 -26l-281 -577h287q13 0 13 -14l-6 -43q-1 -14 -17 -14h-365q-13 0 -13 13zM207 770v60q0 13 13 13h56q13 0 13 -13v-60q0 -14 -13 -14h-56q-13 0 -13 14z" />
    <glyph glyph-name="zdotaccent" unicode="&#x17c;" horiz-adv-x="441" 
d="M42 14v8q0 9 6 21l229 392h-206q-12 0 -12 13l6 40q1 12 15 12h292q13 0 13 -13v-4q0 -12 -5 -20l-230 -394h239q14 0 13 -13l-6 -42q-1 -14 -15 -14h-326q-13 0 -13 14zM189 599v60q0 13 13 13h56q13 0 13 -13v-60q0 -14 -13 -14h-56q-13 0 -13 14z" />
    <glyph glyph-name="Zcaron" unicode="&#x17d;" horiz-adv-x="476" 
d="M36 13v10q0 15 6 27l282 581h-257q-8 0 -10.5 2.5t-1.5 9.5l6 41q1 13 15 13h334q14 0 14 -14v-9q0 -11 -6 -26l-281 -577h287q13 0 13 -14l-6 -43q-1 -14 -17 -14h-365q-13 0 -13 13zM218 768l-101 118q-4 4 -2 8t9 4h45q12 0 21 -10l59 -70l60 70q9 10 21 10h43
q17 0 7 -12l-102 -118q-8 -10 -21 -10h-18q-13 0 -21 10z" />
    <glyph glyph-name="zcaron" unicode="&#x17e;" horiz-adv-x="441" 
d="M42 14v8q0 9 6 21l229 392h-206q-12 0 -12 13l6 40q1 12 15 12h292q13 0 13 -13v-4q0 -12 -5 -20l-230 -394h239q14 0 13 -13l-6 -42q-1 -14 -15 -14h-326q-13 0 -13 14zM200 597l-101 118q-4 5 -2 8.5t9 3.5h45q12 0 21 -10l59 -70l60 70q9 10 21 10h43q17 0 7 -12
l-102 -118q-8 -10 -21 -10h-18q-13 0 -21 10z" />
    <glyph glyph-name="longs" unicode="&#x17f;" horiz-adv-x="270" 
d="M93 14v425h-61q-14 0 -14 14v33q0 14 14 14h61v70q0 158 168 158q6 0 12 -0.5t10.5 -1t8 -0.5h5.5l2 -1q16 -3 17 -14l3 -40q1 -8 -1.5 -10t-10.5 -1q-23 3 -46 3q-88 0 -88 -93v-556q0 -14 -14 -14h-52q-14 0 -14 14z" />
    <glyph glyph-name="uni018F" unicode="&#x18f;" horiz-adv-x="559" 
d="M476 507v-330q0 -101 -50 -145t-154 -44h-18q-100 0 -148.5 49.5t-48.5 138.5v176q0 14 14 14h325v140q0 73 -31 103.5t-103 30.5q-96 0 -165 -23q-6 -2 -9 2t-2 12l5 34q3 14 13 19q55 22 150 22h6q107 0 161.5 -43.5t54.5 -155.5zM396 178v119h-259v-123
q0 -56 26 -85.5t91 -29.5h18q67 0 95.5 28t28.5 91z" />
    <glyph glyph-name="florin" unicode="&#x192;" 
d="M110 -211l-4 41q-1 7 2 11t11 3q16 -2 22 -2q17 0 27.5 1.5t24.5 8t21.5 22.5t7.5 41v524h-61q-14 0 -14 14v33q0 14 14 14h61v71q0 157 168 157q22 0 38 -3t17 -14l4 -40q1 -8 -2 -10t-11 -1q-23 3 -46 3q-88 0 -88 -84v-79h103q8 0 10.5 -2.5t1.5 -10.5l-4 -35
q-1 -13 -16 -13h-95v-511q0 -88 -42 -121.5t-112 -33.5q-14 0 -27 3q-10 2 -11 13z" />
    <glyph glyph-name="Acaron" unicode="&#x1cd;" horiz-adv-x="513" 
d="M479 4l-53 -8q-13 -1 -17 11l-42 166h-227l-41 -165q-3 -13 -17 -12l-50 8q-13 1 -10 15l171 664q3 14 17 14h91q14 0 17 -14l171 -664q4 -14 -10 -15zM353 240l-97 388h-4l-97 -388h198zM225 768l-101 118q-4 4 -2 8t9 4h45q12 0 21 -10l59 -70l60 70q9 10 21 10h43
q17 0 7 -12l-102 -118q-8 -10 -21 -10h-18q-13 0 -21 10z" />
    <glyph glyph-name="acaron" unicode="&#x1ce;" horiz-adv-x="481" 
d="M49 139v20q0 43 14.5 72t42.5 44t57.5 21.5t70.5 9.5l96 4v37q0 53 -23 75t-73 22q-57 0 -123 -16q-8 -2 -11 1.5t-2 10.5l4 39q1 12 13 15q50 15 120 15q81 0 127 -35.5t46 -124.5v-310q0 -14 -15 -20q-70 -28 -167 -28q-91 0 -134 33t-43 115zM127 155v-16
q0 -42 23 -62t78 -20q68 0 102 15v175q-59 0 -94 -3q-60 -5 -84.5 -23.5t-24.5 -65.5zM214 597l-101 118q-4 5 -2 8.5t9 3.5h45q12 0 21 -10l59 -70l60 70q9 10 21 10h43q17 0 7 -12l-102 -118q-8 -10 -21 -10h-18q-13 0 -21 10z" />
    <glyph glyph-name="AEacute" unicode="&#x1fc;" horiz-adv-x="843" 
d="M414 232v351l-199 -351h199zM776 0h-349q-13 0 -13 14v152h-236l-88 -154q-7 -12 -21 -12h-56q-16 0 -8 15l385 670q7 12 20 12h358q15 0 16 -14l4 -37q2 -15 -13 -15h-281v-235h221q13 0 13 -13v-42q0 -14 -13 -14h-221v-256h290q17 0 14 -14l-7 -44q-3 -13 -15 -13z
M571 908l-72 -138q-7 -12 -20 -12h-44q-16 0 -10 14l60 137q5 13 19 13h57q16 0 10 -14z" />
    <glyph glyph-name="aeacute" unicode="&#x1fd;" horiz-adv-x="742" 
d="M49 139v19q0 43 14.5 72t43 44.5t58 22t70.5 9.5q16 1 50 2t45 2v36q0 53 -23 75t-73 22q-51 0 -123 -16q-8 -2 -11 0.5t-2 10.5l4 40q2 13 13 16q56 14 120 14q98 0 135 -56q40 58 144 58h12q164 0 164 -140v-14q0 -71 -35 -97t-122 -26q-54 0 -125 15v-82
q0 -62 25.5 -84t91.5 -22q61 0 131 17q7 1 10 -2t2 -7l-5 -44q0 -10 -18 -17q-40 -16 -125 -16h-6q-105 0 -144 61q-44 -62 -151 -62q-86 0 -128 35.5t-42 113.5zM408 350v-40q59 -16 125 -16q44 0 62 15t18 51v8q0 38 -21 58t-72 20h-3q-58 0 -83.5 -21.5t-25.5 -74.5z
M127 152v-10q0 -43 23 -63t78 -20q61 0 81.5 29t20.5 100v59q-88 -2 -94 -3q-61 -6 -85 -24.5t-24 -67.5zM484 737l-72 -138q-7 -12 -20 -12h-44q-16 0 -10 14l60 137q5 13 19 13h57q16 0 10 -14z" />
    <glyph glyph-name="Oslashacute" unicode="&#x1fe;" horiz-adv-x="576" 
d="M401 908l-72 -138q-7 -12 -20 -12h-44q-16 0 -10 14l60 137q5 13 19 13h57q16 0 10 -14zM93 -63l36 89q-57 41 -57 146v353q0 96 52.5 140t159.5 44h14q66 0 100 -14l25 61q4 13 17 13h29q17 0 10 -13l-35 -83q59 -43 59 -148v-353q0 -96 -53 -140t-160 -44h-13
q-65 0 -103 13l-26 -64q-5 -13 -17 -13h-27q-15 0 -11 13zM278 59h12q81 0 107.5 33.5t26.5 115.5v285q0 83 -23.5 116.5t-103.5 33.5h-12q-81 0 -107 -34t-26 -116v-285q0 -84 23 -116.5t103 -32.5z" />
    <glyph glyph-name="oslashacute" unicode="&#x1ff;" horiz-adv-x="506" 
d="M367 752l-72 -138q-7 -12 -20 -12h-44q-16 0 -10 14l60 137q5 13 19 13h57q16 0 10 -14zM88 -63l36 80q-56 36 -56 132v202q0 89 49 125t134 36h10q46 0 75 -8l25 55q5 13 17 13h29q15 0 10 -13l-34 -77q55 -36 55 -131v-202q0 -89 -49 -125t-134 -36h-10q-48 0 -75 8
l-26 -59q-5 -13 -17 -13h-29q-16 0 -10 13zM245 57h11q102 0 102 99v194q0 52 -23 74.5t-73 22.5h-12q-51 0 -76.5 -22.5t-25.5 -74.5v-195q0 -52 23.5 -75t73.5 -23z" />
    <glyph glyph-name="uni0218" unicode="&#x218;" horiz-adv-x="494" 
d="M64 25l-5 42q-1 8 2 11t12 1q102 -17 150 -17q80 0 108 22.5t28 91.5v31q0 63 -23 87t-85 37l-16 4q-47 10 -74 19.5t-53 28t-37 48.5t-11 75v25q0 99 48 137t152 38q74 0 118 -14q16 -5 17 -18l4 -38q1 -7 -2 -10t-11 -2q-50 16 -130 16q-61 0 -88.5 -21.5t-27.5 -79.5
v-23q0 -55 22.5 -75.5t88.5 -34.5l16 -4q96 -20 133.5 -57t37.5 -132v-31q0 -109 -46 -150t-164 -41q-74 0 -149 16q-14 4 -15 18zM229 -263h-47q-15 0 -7 14q44 74 44 164v12q0 8 3 11t11 3h52q13 0 13 -14v-10q0 -99 -48 -167q-8 -13 -21 -13z" />
    <glyph glyph-name="uni0219" unicode="&#x219;" horiz-adv-x="432" 
d="M57 29l-4 38q-1 8 2.5 11t11.5 1q65 -19 139 -19h4q52 0 75 14t23 57v11q0 38 -16.5 54.5t-65.5 26.5l-33 7q-76 16 -106.5 43.5t-30.5 88.5v18q0 129 157 129h3q73 0 117 -14q15 -5 16 -15l3 -39q1 -7 -1.5 -10t-9.5 -2q-60 15 -115 15h-5q-44 0 -65.5 -13.5
t-21.5 -49.5v-11q0 -29 16 -45t66 -27l37 -8q70 -15 101.5 -43.5t31.5 -96.5v-22q0 -82 -45 -109.5t-131 -27.5h-4q-89 0 -134 17q-13 5 -15 21zM196 -263h-47q-15 0 -7 14q44 74 44 164v12q0 8 3 11t11 3h52q13 0 13 -14v-10q0 -99 -48 -167q-8 -13 -21 -13z" />
    <glyph glyph-name="uni021A" unicode="&#x21a;" horiz-adv-x="448" 
d="M183 14v617h-153q-14 0 -13 13l4 39q1 14 15 14h374q12 0 15 -14l5 -39q1 -13 -12 -13h-155v-605q0 -16 -3 -21t-11 -5h-52q-14 0 -14 14zM192 -263h-47q-15 0 -7 14q44 74 44 164v12q0 8 3 11t11 3h52q13 0 13 -14v-10q0 -99 -48 -167q-8 -13 -21 -13z" />
    <glyph glyph-name="uni021B" unicode="&#x21b;" horiz-adv-x="340" 
d="M93 134v305h-63q-8 0 -11 3t-3 11v33q0 8 3 11t11 3h63v123q0 14 13 15l52 6q15 2 15 -13v-131h115q9 0 11.5 -2t3.5 -10l4 -36q1 -8 -1.5 -10.5t-10.5 -2.5h-122v-305q0 -45 15 -58t63 -13q13 0 30 2t20 2q12 0 11 -13l-4 -38q-2 -15 -14 -17q-25 -5 -54 -5
q-75 0 -111 28.5t-36 111.5zM161 -263h-47q-15 0 -7 14q44 74 44 164v12q0 8 3 11t11 3h52q13 0 13 -14v-10q0 -99 -48 -167q-8 -13 -21 -13z" />
    <glyph glyph-name="Adotaccent" unicode="&#x226;" horiz-adv-x="513" 
d="M479 4l-53 -8q-13 -1 -17 11l-42 166h-227l-41 -165q-3 -13 -17 -12l-50 8q-13 1 -10 15l171 664q3 14 17 14h91q14 0 17 -14l171 -664q4 -14 -10 -15zM353 240l-97 388h-4l-97 -388h198zM213 770v60q0 13 13 13h56q13 0 13 -13v-60q0 -14 -13 -14h-56q-13 0 -13 14z" />
    <glyph glyph-name="adotaccent" unicode="&#x227;" horiz-adv-x="481" 
d="M49 139v20q0 43 14.5 72t42.5 44t57.5 21.5t70.5 9.5l96 4v37q0 53 -23 75t-73 22q-57 0 -123 -16q-8 -2 -11 1.5t-2 10.5l4 39q1 12 13 15q50 15 120 15q81 0 127 -35.5t46 -124.5v-310q0 -14 -15 -20q-70 -28 -167 -28q-91 0 -134 33t-43 115zM127 155v-16
q0 -42 23 -62t78 -20q68 0 102 15v175q-59 0 -94 -3q-60 -5 -84.5 -23.5t-24.5 -65.5zM203 599v60q0 13 13 13h56q13 0 13 -13v-60q0 -14 -13 -14h-56q-13 0 -13 14z" />
    <glyph glyph-name="dotlessj" unicode="&#x237;" horiz-adv-x="238" 
d="M-8 -211l-3 41q-1 7 2 11t11 3q9 -2 21 -2q27 0 42.5 14.5t15.5 60.5v565q0 14 12 15l53 7q14 0 14 -13v-575q0 -143 -126 -143q-18 0 -31 3q-10 3 -11 13z" />
    <glyph glyph-name="uni0259" unicode="&#x259;" horiz-adv-x="480" 
d="M411 349v-198q0 -83 -43.5 -123t-140.5 -40h-12q-163 0 -163 140v22q0 70 35 97t121 27q49 0 125 -16v83q0 60 -25.5 81.5t-90.5 21.5q-62 0 -132 -16q-7 -2 -10 1t-2 9l5 39q1 8 14 15q43 17 131 17h5q90 0 136.5 -35t46.5 -125zM333 153v41q-50 16 -125 16
q-46 0 -63 -15t-17 -51v-10q0 -39 20.5 -58t73.5 -19h6q57 0 81 22t24 74z" />
    <glyph glyph-name="circumflex" unicode="&#x2c6;" horiz-adv-x="311" 
d="M25 666l101 118q8 10 21 10h18q13 0 21 -10l101 -118q10 -12 -7 -12h-46q-12 0 -21 10l-59 70l-60 -70q-10 -10 -22 -10h-41q-7 0 -9 4t3 8z" />
    <glyph glyph-name="caron" unicode="&#x2c7;" horiz-adv-x="312" 
d="M127 654l-101 118q-4 4 -2 8t9 4h45q12 0 21 -10l59 -70l60 70q9 10 21 10h43q17 0 7 -12l-102 -118q-8 -10 -21 -10h-18q-13 0 -21 10z" />
    <glyph glyph-name="breve" unicode="&#x2d8;" horiz-adv-x="506" 
d="M117 801h33q12 0 15 -15q12 -66 87 -66q76 0 86 67q3 14 15 14h34q14 0 11 -14q-20 -123 -146 -123t-147 121q-3 16 12 16z" />
    <glyph glyph-name="dotaccent" unicode="&#x2d9;" horiz-adv-x="328" 
d="M116 686v60q0 13 13 13h56q13 0 13 -13v-60q0 -14 -13 -14h-56q-13 0 -13 14z" />
    <glyph glyph-name="ring" unicode="&#x2da;" horiz-adv-x="486" 
d="M137 743v23q0 90 91 90h27q91 0 91 -90v-23q0 -90 -91 -90h-27q-91 0 -91 90zM232 697h19q28 0 38.5 10.5t10.5 38.5v16q0 28 -10.5 39t-38.5 11h-19q-29 0 -39 -11t-10 -39v-16q0 -28 10 -38.5t39 -10.5z" />
    <glyph glyph-name="ogonek" unicode="&#x2db;" horiz-adv-x="312" 
d="M255 -232h-15q-134 0 -134 110q0 37 22.5 68t81.5 60l24 -2l17 -1q6 0 6 -2q1 -2 -2 -3q-41 -22 -62.5 -45.5t-25 -36t-3.5 -29.5q0 -57 74 -57h17q8 0 10.5 -3t2.5 -11v-34q0 -8 -2.5 -11t-10.5 -3z" />
    <glyph glyph-name="tilde" unicode="&#x2dc;" horiz-adv-x="519" 
d="M142 734l-14 21q-7 10 2 21q24 30 70 30q33 0 66 -22t53 -22q22 0 38 17q9 14 21 0l13 -18q9 -9 -1 -24q-28 -37 -72 -37q-32 0 -65.5 22t-54.5 22t-38 -13q-10 -8 -18 3z" />
    <glyph glyph-name="hungarumlaut" unicode="&#x2dd;" horiz-adv-x="468" 
d="M229 658l70 172q5 13 17 13h40q14 0 9 -13l-83 -173q-7 -12 -17 -12h-25q-18 0 -11 13zM86 658l56 172q4 13 16 13h36q16 0 11 -13l-66 -172q-5 -13 -16 -13h-25q-15 0 -12 13z" />
    <glyph glyph-name="dotbelowcomb" unicode="&#x323;" horiz-adv-x="327" 
d="M116 -129v60q0 14 13 14h56q13 0 13 -14v-60q0 -13 -13 -13h-56q-13 0 -13 13z" />
    <glyph glyph-name="uni0394" unicode="&#x394;" horiz-adv-x="500" 
d="M26 13l189 671q4 13 18 13h34q13 0 17 -13l189 -671q4 -13 -10 -13h-427q-13 0 -10 13zM103 62h292l-145 528z" />
    <glyph glyph-name="uni03A9" unicode="&#x3a9;" horiz-adv-x="650" 
d="M31 14v41q0 14 13 14h110q-46 40 -46 136v324q0 96 52.5 138t158.5 42h16q106 0 155.5 -41.5t49.5 -138.5v-324q0 -93 -51 -136h116q14 0 14 -14v-41q0 -14 -14 -14h-191q-14 0 -14 14v41q0 12 12 21q48 35 48 96v368q0 58 -30.5 80.5t-100.5 22.5h-4q-70 0 -103.5 -23
t-33.5 -80v-368q0 -68 48 -95q10 -6 10 -22v-41q0 -14 -13 -14h-189q-13 0 -13 14z" />
    <glyph glyph-name="uni03BC" unicode="&#x3bc;" horiz-adv-x="501" 
d="M77 -208v694q0 14 14 14h53q13 0 13 -14v-344q0 -48 15 -65t52 -17q42 0 77 23.5t54 54.5v348q0 14 14 14h53q13 0 13 -14v-472q0 -14 -13 -14h-43q-14 0 -15 14l-3 45h-3q-59 -66 -138 -66q-40 0 -65 19q2 -30 2 -55v-165q0 -14 -13 -14h-53q-14 0 -14 14z" />
    <glyph glyph-name="pi" unicode="&#x3c0;" horiz-adv-x="681" 
d="M181 14v406h-95q-14 0 -14 14v35q0 13 14 13h509q13 0 13 -13v-35q0 -14 -13 -14h-97v-406q0 -14 -14 -14h-49q-13 0 -13 14v406h-165v-406q0 -14 -14 -14h-48q-14 0 -14 14z" />
    <glyph glyph-name="uni1E62" unicode="&#x1e62;" horiz-adv-x="493" 
d="M64 25l-5 42q-1 8 2 11t12 1q102 -17 150 -17q80 0 108 22.5t28 91.5v31q0 63 -23 87t-85 37l-16 4q-47 10 -74 19.5t-53 28t-37 48.5t-11 75v25q0 99 48 137t152 38q74 0 118 -14q16 -5 17 -18l4 -38q1 -7 -2 -10t-11 -2q-50 16 -130 16q-61 0 -88.5 -21.5t-27.5 -79.5
v-23q0 -55 22.5 -75.5t88.5 -34.5l16 -4q96 -20 133.5 -57t37.5 -132v-31q0 -109 -46 -150t-164 -41q-74 0 -149 16q-14 4 -15 18zM207 -134v60q0 14 13 14h56q13 0 13 -14v-60q0 -13 -13 -13h-56q-13 0 -13 13z" />
    <glyph glyph-name="uni1E63" unicode="&#x1e63;" horiz-adv-x="432" 
d="M57 29l-4 38q-1 8 2.5 11t11.5 1q65 -19 139 -19h4q52 0 75 14t23 57v11q0 38 -16.5 54.5t-65.5 26.5l-33 7q-76 16 -106.5 43.5t-30.5 88.5v18q0 129 157 129h3q73 0 117 -14q15 -5 16 -15l3 -39q1 -7 -1.5 -10t-9.5 -2q-60 15 -115 15h-5q-44 0 -65.5 -13.5
t-21.5 -49.5v-11q0 -29 16 -45t66 -27l37 -8q70 -15 101.5 -43.5t31.5 -96.5v-22q0 -82 -45 -109.5t-131 -27.5h-4q-89 0 -134 17q-13 5 -15 21zM177 -133v60q0 14 13 14h56q13 0 13 -14v-60q0 -13 -13 -13h-56q-13 0 -13 13z" />
    <glyph glyph-name="Wgrave" unicode="&#x1e80;" horiz-adv-x="746" 
d="M144 14l-119 665q-1 15 12 16l51 5q8 1 11 -2t5 -12l80 -460q16 -93 19 -144h3q7 64 23 141l95 451q1 14 16 14h68q14 0 17 -14l95 -455q15 -76 22 -138h3q10 89 19 142l81 463q1 15 15 14l48 -5q15 -1 12 -16l-118 -665q-3 -14 -17 -14h-78q-14 0 -17 14l-80 386
q-27 134 -34 206h-4q-14 -101 -36 -205l-82 -387q-1 -14 -16 -14h-78q-13 0 -16 14zM333 770l-72 138q-6 14 10 14h57q14 0 19 -13l60 -137q6 -14 -10 -14h-44q-13 0 -20 12z" />
    <glyph glyph-name="wgrave" unicode="&#x1e81;" horiz-adv-x="687" 
d="M132 13l-108 468q-4 14 11 16l53 6q14 0 17 -13l56 -271l10.5 -54.5l10.5 -57.5t6 -35h3q10 49 36 149l68 262q4 14 18 14h66q13 0 17 -13l71 -269q25 -101 32 -143h4q10 68 26 147l56 271q3 13 16 13l50 -6q15 -2 12 -15l-107 -471q-3 -11 -14 -11h-80q-11 0 -14 11
l-74 291l-28 118h-3q-7 -40 -25 -112l-78 -295q-4 -13 -17 -13h-74q-14 0 -17 13zM305 599l-72 138q-6 14 10 14h57q14 0 19 -13l60 -137q6 -14 -10 -14h-44q-13 0 -20 12z" />
    <glyph glyph-name="Wacute" unicode="&#x1e82;" horiz-adv-x="746" 
d="M144 14l-119 665q-1 15 12 16l51 5q8 1 11 -2t5 -12l80 -460q16 -93 19 -144h3q7 64 23 141l95 451q1 14 16 14h68q14 0 17 -14l95 -455q15 -76 22 -138h3q10 89 19 142l81 463q1 15 15 14l48 -5q15 -1 12 -16l-118 -665q-3 -14 -17 -14h-78q-14 0 -17 14l-80 386
q-27 134 -34 206h-4q-14 -101 -36 -205l-82 -387q-1 -14 -16 -14h-78q-13 0 -16 14zM487 908l-72 -138q-7 -12 -20 -12h-44q-16 0 -10 14l60 137q5 13 19 13h57q16 0 10 -14z" />
    <glyph glyph-name="wacute" unicode="&#x1e83;" horiz-adv-x="687" 
d="M132 13l-108 468q-4 14 11 16l53 6q14 0 17 -13l56 -271l10.5 -54.5l10.5 -57.5t6 -35h3q10 49 36 149l68 262q4 14 18 14h66q13 0 17 -13l71 -269q25 -101 32 -143h4q10 68 26 147l56 271q3 13 16 13l50 -6q15 -2 12 -15l-107 -471q-3 -11 -14 -11h-80q-11 0 -14 11
l-74 291l-28 118h-3q-7 -40 -25 -112l-78 -295q-4 -13 -17 -13h-74q-14 0 -17 13zM459 737l-72 -138q-7 -12 -20 -12h-44q-16 0 -10 14l60 137q5 13 19 13h57q16 0 10 -14z" />
    <glyph glyph-name="Wdieresis" unicode="&#x1e84;" horiz-adv-x="746" 
d="M144 14l-119 665q-1 15 12 16l51 5q8 1 11 -2t5 -12l80 -460q16 -93 19 -144h3q7 64 23 141l95 451q1 14 16 14h68q14 0 17 -14l95 -455q15 -76 22 -138h3q10 89 19 142l81 463q1 15 15 14l48 -5q15 -1 12 -16l-118 -665q-3 -14 -17 -14h-78q-14 0 -17 14l-80 386
q-27 134 -34 206h-4q-14 -101 -36 -205l-82 -387q-1 -14 -16 -14h-78q-13 0 -16 14zM329 841v-66q0 -8 -2.5 -11t-10.5 -3h-60q-8 0 -11 3t-3 11v66q0 8 3 11t11 3h60q8 0 10.5 -3t2.5 -11zM505 841v-66q0 -8 -2.5 -11t-10.5 -3h-60q-8 0 -11 3t-3 11v66q0 8 3 11t11 3h60
q8 0 10.5 -3t2.5 -11z" />
    <glyph glyph-name="wdieresis" unicode="&#x1e85;" horiz-adv-x="687" 
d="M132 13l-108 468q-4 14 11 16l53 6q14 0 17 -13l56 -271l10.5 -54.5l10.5 -57.5t6 -35h3q10 49 36 149l68 262q4 14 18 14h66q13 0 17 -13l71 -269q25 -101 32 -143h4q10 68 26 147l56 271q3 13 16 13l50 -6q15 -2 12 -15l-107 -471q-3 -11 -14 -11h-80q-11 0 -14 11
l-74 291l-28 118h-3q-7 -40 -25 -112l-78 -295q-4 -13 -17 -13h-74q-14 0 -17 13zM477 670v-66q0 -8 -2.5 -11t-10.5 -3h-60q-8 0 -11 3t-3 11v66q0 8 3 11t11 3h60q8 0 10.5 -3t2.5 -11zM301 670v-66q0 -8 -2.5 -11t-10.5 -3h-60q-8 0 -11 3t-3 11v66q0 8 3 11t11 3h60
q8 0 10.5 -3t2.5 -11z" />
    <glyph glyph-name="uni1E9E" unicode="&#x1e9e;" horiz-adv-x="592" 
d="M76 14v508q0 97 50 140.5t156 43.5h19q89 0 188 -24q16 -5 10 -19l-117 -281q42 -7 68 -17t46.5 -28.5t29.5 -48t9 -74.5v-44q0 -101 -48.5 -140t-165.5 -39q-35 0 -50 3q-14 3 -15 17l-4 42q-1 8 1.5 10.5t11.5 1.5q36 -3 50 -3q79 0 109.5 22t30.5 80v48q0 56 -21.5 76
t-83.5 29l-54 9q-15 5 -7 26l115 277q-50 11 -109 11h-15q-69 0 -96.5 -28t-27.5 -89v-509q0 -14 -13 -14h-53q-14 0 -14 14z" />
    <glyph glyph-name="uni1EB8" unicode="&#x1eb8;" horiz-adv-x="494" 
d="M80 14v669q0 14 14 14h326q14 0 15 -14l5 -37q2 -15 -13 -15h-267v-234h216q14 0 14 -14v-42q0 -13 -14 -13h-216v-257h276q15 0 14 -14l-7 -44q-3 -13 -16 -13h-333q-14 0 -14 14zM223 -133v60q0 14 13 14h56q13 0 13 -14v-60q0 -13 -13 -13h-56q-13 0 -13 13z" />
    <glyph glyph-name="uni1EB9" unicode="&#x1eb9;" horiz-adv-x="480" 
d="M68 151v198q0 82 44 122.5t141 40.5h11q164 0 164 -140v-19q0 -70 -35 -97t-122 -27q-52 0 -125 15v-80q0 -60 26 -82t91 -22q66 0 130 17q7 1 10.5 -1.5t2.5 -8.5l-4 -43q-1 -11 -15 -16q-43 -17 -129 -17h-6q-90 0 -137 35t-47 125zM146 352v-46q56 -15 125 -15
q45 0 62.5 15t17.5 50v14q0 39 -20 58t-73 19h-6q-57 0 -81.5 -21.5t-24.5 -73.5zM203 -133v60q0 14 13 14h56q13 0 13 -14v-60q0 -13 -13 -13h-56q-13 0 -13 13z" />
    <glyph glyph-name="uni1ECC" unicode="&#x1ecc;" horiz-adv-x="576" 
d="M72 172v353q0 96 52.5 140t159.5 44h14q106 0 155.5 -43.5t49.5 -140.5v-353q0 -96 -53 -140t-160 -44h-13q-106 0 -155.5 43.5t-49.5 140.5zM278 59h12q71 0 102.5 28t31.5 88v351q0 61 -28.5 89t-98.5 28h-12q-70 0 -101.5 -28.5t-31.5 -88.5v-351q0 -61 28 -88.5
t98 -27.5zM246 -133v60q0 14 13 14h56q13 0 13 -14v-60q0 -13 -13 -13h-56q-13 0 -13 13z" />
    <glyph glyph-name="uni1ECD" unicode="&#x1ecd;" horiz-adv-x="506" 
d="M68 149v202q0 89 49 125t134 36h10q84 0 130.5 -35.5t46.5 -125.5v-202q0 -89 -49 -125t-134 -36h-10q-84 0 -130.5 35.5t-46.5 125.5zM244 57h12q102 0 102 99v194q0 52 -23.5 74.5t-72.5 22.5h-12q-51 0 -76.5 -22.5t-25.5 -74.5v-195q0 -52 23.5 -75t72.5 -23z
M212 -133v60q0 14 13 14h56q13 0 13 -14v-60q0 -13 -13 -13h-56q-13 0 -13 13z" />
    <glyph glyph-name="endash" unicode="&#x2013;" horiz-adv-x="506" 
d="M42 267v40q0 14 13 14h396q13 0 13 -14v-40q0 -8 -2.5 -10.5t-10.5 -2.5h-396q-8 0 -10.5 2.5t-2.5 10.5z" />
    <glyph glyph-name="emdash" unicode="&#x2014;" horiz-adv-x="1006" 
d="M42 267v40q0 14 13 14h896q13 0 13 -14v-40q0 -8 -2.5 -10.5t-10.5 -2.5h-896q-8 0 -10.5 2.5t-2.5 10.5z" />
    <glyph glyph-name="quoteleft" unicode="&#x2018;" horiz-adv-x="239" 
d="M138 723h47q16 0 7 -14q-44 -74 -44 -165v-12q0 -13 -14 -13h-52q-8 0 -10.5 2.5t-2.5 10.5v11q0 99 48 167q9 13 21 13z" />
    <glyph glyph-name="quoteright" unicode="&#x2019;" horiz-adv-x="239" 
d="M101 519h-47q-15 0 -7 14q44 74 44 164v12q0 8 3 11t11 3h51q8 0 11 -3t3 -11v-10q0 -96 -48 -167q-8 -13 -21 -13z" />
    <glyph glyph-name="quotesinglbase" unicode="&#x201a;" horiz-adv-x="239" 
d="M101 -105h-47q-16 0 -7 14q44 74 44 165v12q0 13 14 13h51q14 0 14 -13v-11q0 -96 -48 -167q-9 -13 -21 -13z" />
    <glyph glyph-name="quotedblleft" unicode="&#x201c;" horiz-adv-x="384" 
d="M283 723h47q16 0 7 -14q-44 -74 -44 -165v-12q0 -13 -14 -13h-51q-14 0 -14 13v11q0 96 48 167q10 13 21 13zM138 723h47q16 0 7 -14q-44 -74 -44 -165v-12q0 -13 -14 -13h-52q-8 0 -10.5 2.5t-2.5 10.5v11q0 99 48 167q9 13 21 13z" />
    <glyph glyph-name="quotedblright" unicode="&#x201d;" horiz-adv-x="384" 
d="M247 519h-47q-15 0 -8 14q45 73 45 164v12q0 8 3 11t11 3h51q8 0 11 -3t3 -11v-10q0 -96 -48 -167q-9 -13 -21 -13zM101 519h-47q-15 0 -7 14q44 74 44 164v12q0 8 3 11t11 3h51q8 0 11 -3t3 -11v-10q0 -96 -48 -167q-8 -13 -21 -13z" />
    <glyph glyph-name="quotedblbase" unicode="&#x201e;" horiz-adv-x="385" 
d="M247 -105h-47q-15 0 -7 14q45 76 45 165v12q0 8 2.5 10.5t10.5 2.5h52q14 0 14 -13v-11q0 -98 -49 -167q-9 -13 -21 -13zM101 -105h-47q-16 0 -7 14q44 74 44 165v12q0 13 14 13h51q14 0 14 -13v-11q0 -96 -48 -167q-9 -13 -21 -13z" />
    <glyph glyph-name="dagger" unicode="&#x2020;" horiz-adv-x="531" 
d="M238 14v461h-131q-14 0 -14 13v27q0 14 14 14h131v154q0 14 13 14h30q13 0 13 -14v-154h131q13 0 13 -14v-27q0 -13 -13 -13h-131v-461q0 -14 -13 -14h-30q-13 0 -13 14z" />
    <glyph glyph-name="daggerdbl" unicode="&#x2021;" horiz-adv-x="531" 
d="M238 14v155h-131q-14 0 -14 13v26q0 14 14 14h131v253h-131q-14 0 -14 13v27q0 14 14 14h131v154q0 14 13 14h30q13 0 13 -14v-154h131q13 0 13 -14v-27q0 -13 -13 -13h-131v-253h131q13 0 13 -14v-26q0 -13 -13 -13h-131v-155q0 -14 -13 -14h-30q-13 0 -13 14z" />
    <glyph glyph-name="bullet" unicode="&#x2022;" horiz-adv-x="273" 
d="M65 319v57q0 17 11.5 31t31.5 14h56q18 0 31 -13.5t13 -31.5v-57q0 -19 -13 -31t-31 -12h-56q-18 0 -30.5 12t-12.5 31z" />
    <glyph glyph-name="ellipsis" unicode="&#x2026;" horiz-adv-x="749" 
d="M562 14v72q0 8 3 11t11 3h74q8 0 10.5 -3t2.5 -11v-72q0 -8 -2.5 -11t-10.5 -3h-74q-8 0 -11 3t-3 11zM324 14v72q0 8 2.5 11t10.5 3h74q8 0 11 -3t3 -11v-72q0 -8 -3 -11t-11 -3h-74q-8 0 -10.5 3t-2.5 11zM85 14v72q0 8 3 11t11 3h74q8 0 11 -3t3 -11v-72q0 -8 -3 -11
t-11 -3h-74q-8 0 -11 3t-3 11z" />
    <glyph glyph-name="perthousand" unicode="&#x2030;" horiz-adv-x="1261" 
d="M247 -8l332 713q4 13 17 13h38q15 0 9 -15l-332 -712q-5 -13 -17 -13h-38q-17 0 -9 14zM51 376v209q0 118 145 118q73 0 109.5 -27.5t36.5 -89.5v-210q0 -117 -147 -117h-3q-71 0 -106 28t-35 89zM192 317h4q75 0 75 58v216q0 57 -71 57h-4q-74 0 -74 -57v-216
q0 -31 16.5 -44.5t53.5 -13.5zM919 111v209q0 118 145 118q73 0 109.5 -27.5t36.5 -89.5v-210q0 -117 -146 -117h-4q-71 0 -106 28t-35 89zM548 111v209q0 118 146 118q73 0 109 -27.5t36 -89.5v-210q0 -117 -146 -117h-3q-71 0 -106.5 28t-35.5 89zM1060 52h4q75 0 75 58
v216q0 57 -71 57h-4q-74 0 -74 -57v-216q0 -31 17 -44.5t53 -13.5zM690 52h4q75 0 75 58v216q0 57 -72 57h-3q-75 0 -75 -57v-216q0 -31 17 -44.5t54 -13.5z" />
    <glyph glyph-name="guilsinglleft" unicode="&#x2039;" horiz-adv-x="304" 
d="M152 66l-86 176q-5 12 0 24l87 175q5 12 20 12h40q15 0 9 -14l-91 -183l94 -188q8 -14 -8 -14h-44q-14 0 -21 12z" />
    <glyph glyph-name="guilsinglright" unicode="&#x203a;" horiz-adv-x="304" 
d="M81 68l91 182l-93 189q-8 14 8 14h46q12 0 19 -12l86 -175q5 -12 0 -24l-86 -176q-7 -12 -19 -12h-43q-15 0 -9 14z" />
    <glyph glyph-name="fraction" unicode="&#x2044;" horiz-adv-x="204" 
d="M-96 -8l332 713q5 13 17 13h38q17 0 9 -15l-332 -712q-5 -13 -17 -13h-38q-17 0 -9 14z" />
    <glyph glyph-name="zero.superior" unicode="&#x2070;" horiz-adv-x="393" 
d="M51 493v206q0 119 141 119h7q73 0 108 -27.5t35 -91.5v-206q0 -119 -142 -119h-12q-70 0 -103.5 28.5t-33.5 90.5zM192 432h4q75 0 75 59v213q0 59 -71 59h-4q-74 0 -74 -59v-213q0 -59 70 -59z" />
    <glyph glyph-name="four.superior" unicode="&#x2074;" horiz-adv-x="363" 
d="M27 511l-5 30q-2 9 6 22l141 245q5 11 18 7l41 -16q11 -4 4 -15l-74 -124l-64 -106h149v75q0 13 13 14l46 5q7 1 9.5 -1.5t2.5 -10.5v-243q0 -13 -12 -13h-46q-13 0 -13 13v106h-204q-6 0 -8 2.5t-4 9.5z" />
    <glyph glyph-name="five.superior" unicode="&#x2075;" horiz-adv-x="356" 
d="M41 400l-4 33q0 7 2.5 9.5t9.5 1.5q50 -11 111 -11q44 0 63.5 12t19.5 45v38q0 31 -17 43t-56 12h-108q-13 0 -13 13v203q0 13 13 13h211q11 0 12 -13l4 -29q1 -13 -12 -13h-157v-118h60q134 0 134 -115v-37q0 -61 -38 -86.5t-113 -25.5q-73 0 -108 10q-13 3 -14 15z" />
    <glyph glyph-name="six.superior" unicode="&#x2076;" horiz-adv-x="380" 
d="M52 486v212q0 65 35.5 92t109.5 27h2q58 0 90 -8q13 -3 14 -14l4 -31q0 -7 -2.5 -9t-10.5 -1q-45 8 -91 8h-3q-40 0 -58.5 -13t-18.5 -44v-39l-1 -39q22 19 77 19h8q57 0 91 -27t34 -86v-47q0 -60 -35.5 -86t-103.5 -26h-6q-68 0 -101.5 26t-33.5 86zM189 432h2
q70 0 70 55v48q0 30 -16 43t-49 13h-4q-69 0 -69 -56v-48q0 -30 16 -42.5t50 -12.5z" />
    <glyph glyph-name="seven.superior" unicode="&#x2077;" horiz-adv-x="320" 
d="M42 396l183 361h-193q-13 0 -12 12l5 30q3 13 13 13h246q13 0 13 -13v-29q0 -16 -5 -25l-178 -358q-6 -11 -18 -10l-46 6q-14 2 -8 13z" />
    <glyph glyph-name="eight.superior" unicode="&#x2078;" horiz-adv-x="393" 
d="M49 489v28q0 75 62 91q-54 16 -54 84v11q0 62 35.5 88.5t105.5 26.5h2q69 0 102 -26.5t33 -88.5v-11q0 -65 -53 -83q62 -14 62 -92v-28q0 -62 -35.5 -88.5t-110.5 -26.5h-6q-76 0 -109.5 26t-33.5 89zM192 431h4q41 0 59 13t18 43v33q0 31 -16 44.5t-58 13.5h-3
q-42 0 -59.5 -13.5t-17.5 -44.5v-33q0 -31 16.5 -43.5t56.5 -12.5zM194 632h2q37 0 53 13.5t16 44.5v17q0 31 -14.5 44t-51.5 13h-1q-38 0 -54.5 -13t-16.5 -44v-17q0 -32 15 -45t52 -13z" />
    <glyph glyph-name="nine.superior" unicode="&#x2079;" horiz-adv-x="379" 
d="M70 399l-4 32q-1 7 2 9.5t10 1.5q38 -9 95 -9h3q42 0 61.5 14t19.5 45v39l2 42q-22 -20 -77 -20h-6q-128 0 -128 113v41q0 60 36 85.5t104 25.5h4q68 0 102 -25.5t34 -84.5v-216q0 -65 -36 -91t-114 -26h-3q-58 0 -92 8q-13 4 -13 16zM183 609h5q69 0 69 56v44
q0 55 -67 55h-2q-69 0 -69 -55v-44q0 -56 64 -56z" />
    <glyph glyph-name="plus.superior" unicode="&#x207a;" horiz-adv-x="381" 
d="M55 559v29q0 13 13 13h94v92q0 13 13 13h31q13 0 13 -13v-92h94q13 0 13 -13v-29q0 -11 -13 -11h-94v-91q0 -13 -13 -13h-31q-13 0 -13 13v91h-94q-13 0 -13 11z" />
    <glyph glyph-name="minus.superior" unicode="&#x207b;" horiz-adv-x="374" 
d="M55 559v29q0 13 13 13h238q13 0 13 -13v-29q0 -11 -13 -11h-238q-13 0 -13 11z" />
    <glyph glyph-name="equal.superior" unicode="&#x207c;" horiz-adv-x="361" 
d="M62 626v31q0 13 13 13h212q12 0 12 -13v-31q0 -12 -12 -12h-212q-13 0 -13 12zM62 489v31q0 13 13 13h212q12 0 12 -13v-31q0 -13 -12 -13h-212q-13 0 -13 13z" />
    <glyph glyph-name="parenleft.superior" unicode="&#x207d;" horiz-adv-x="277" 
d="M208 363h-47q-11 0 -19 12q-74 107 -74 221q0 115 74 221q9 12 21 12h46q7 0 9.5 -3.5t-1.5 -8.5q-82 -112 -82 -221q0 -107 81 -221q4 -5 1.5 -8.5t-9.5 -3.5z" />
    <glyph glyph-name="parenright.superior" unicode="&#x207e;" horiz-adv-x="273" 
d="M111 363h-46q-7 0 -9.5 3.5t1.5 8.5q81 113 81 221q0 105 -81 221q-4 5 -1 8.5t10 3.5h46q13 0 19 -12q74 -105 74 -221q0 -114 -74 -221q-6 -12 -20 -12z" />
    <glyph glyph-name="n.superior" unicode="&#x207f;" horiz-adv-x="365" 
d="M55 278v267q0 13 11 18q42 17 117 17q130 0 130 -108v-194q0 -13 -13 -13h-46q-13 0 -13 13v199q0 27 -13.5 39t-43.5 12q-39 0 -57 -5v-245q0 -13 -13 -13h-46q-13 0 -13 13z" />
    <glyph glyph-name="zero.inferior" unicode="&#x2080;" horiz-adv-x="393" 
d="M51 -12v206q0 119 141 119h7q73 0 108 -27.5t35 -91.5v-206q0 -119 -142 -119h-12q-70 0 -103.5 28.5t-33.5 90.5zM192 -73h4q75 0 75 59v213q0 59 -71 59h-4q-74 0 -74 -59v-213q0 -59 70 -59z" />
    <glyph glyph-name="one.inferior" unicode="&#x2081;" horiz-adv-x="235" 
d="M107 -112v345l-52 -22q-15 -6 -20 5l-11 31q-6 12 6 19l81 36q15 5 22 5h32q13 0 13 -13v-406q0 -13 -13 -13h-45q-13 0 -13 13z" />
    <glyph glyph-name="two.inferior" unicode="&#x2082;" horiz-adv-x="375" 
d="M49 -112v125q0 57 27 78t94 32l19 3q35 5 51 16t16 37v27q0 30 -19 40.5t-61 10.5h-3q-44 0 -92 -8q-7 -1 -9.5 1t-1.5 9l3 30q1 12 14 15q32 8 90 8h3q77 0 112 -24t35 -85v-23q0 -58 -27 -78t-95 -30l-26 -4q-32 -4 -45.5 -14t-13.5 -38v-88h196q13 0 12 -13l-4 -27
q-1 -13 -14 -13h-249q-12 0 -12 13z" />
    <glyph glyph-name="three.inferior" unicode="&#x2083;" horiz-adv-x="354" 
d="M39 -106l-4 33q-1 7 2 9t11 1q45 -9 102 -9h4q44 0 62.5 12.5t18.5 44.5v31q0 30 -16 42.5t-56 12.5h-62q-13 0 -13 12v31q0 12 13 12h56q40 0 56.5 12t16.5 43v21q0 30 -16.5 42.5t-55.5 12.5h-2q-57 0 -101 -8q-7 -1 -9.5 1.5t-1.5 9.5l4 30q1 11 14 15q38 7 91 7h3
q77 0 111 -26t34 -89v-10q0 -67 -56 -84q61 -13 61 -91v-27q0 -62 -35 -88.5t-115 -26.5h-3q-66 0 -100 8q-13 4 -14 16z" />
    <glyph glyph-name="four.inferior" unicode="&#x2084;" horiz-adv-x="363" 
d="M27 6l-5 30q-2 9 6 22l141 245q5 11 18 7l41 -16q11 -4 4 -15l-74 -124l-64 -106h149v75q0 13 13 14l46 5q7 1 9.5 -2t2.5 -10v-243q0 -13 -12 -13h-46q-13 0 -13 13v106h-204q-6 0 -8 2.5t-4 9.5z" />
    <glyph glyph-name="five.inferior" unicode="&#x2085;" horiz-adv-x="356" 
d="M41 -105l-4 33q0 7 2.5 9.5t9.5 1.5q49 -11 111 -11q44 0 63.5 12t19.5 45v38q0 31 -17 43t-56 12h-108q-13 0 -13 13v203q0 13 13 13h211q11 0 12 -13l4 -29q1 -13 -12 -13h-157v-118h60q134 0 134 -115v-37q0 -61 -38 -86.5t-113 -25.5q-73 0 -108 10q-13 3 -14 15z
" />
    <glyph glyph-name="six.inferior" unicode="&#x2086;" horiz-adv-x="380" 
d="M52 -19v212q0 65 35.5 92t109.5 27h2q58 0 90 -8q13 -3 14 -14l4 -31q0 -7 -2.5 -9t-10.5 -1q-45 8 -91 8h-3q-40 0 -58.5 -13t-18.5 -44v-39l-1 -39q22 19 77 19h8q57 0 91 -27t34 -86v-47q0 -60 -35.5 -86t-103.5 -26h-6q-68 0 -101.5 26t-33.5 86zM189 -73h2
q70 0 70 55v48q0 30 -16 43t-49 13h-4q-69 0 -69 -56v-48q0 -30 16 -42.5t50 -12.5z" />
    <glyph glyph-name="seven.inferior" unicode="&#x2087;" horiz-adv-x="320" 
d="M42 -109l183 361h-193q-13 0 -12 12l5 30q3 13 13 13h246q13 0 13 -13v-29q0 -16 -5 -25l-178 -358q-6 -11 -18 -10l-46 6q-14 2 -8 13z" />
    <glyph glyph-name="eight.inferior" unicode="&#x2088;" horiz-adv-x="393" 
d="M49 -16v28q0 76 62 91q-54 16 -54 84v11q0 62 35.5 88.5t105.5 26.5h2q69 0 102 -26.5t33 -88.5v-11q0 -65 -53 -83q62 -14 62 -92v-28q0 -62 -35.5 -88.5t-110.5 -26.5h-6q-76 0 -109.5 26t-33.5 89zM192 -74h4q41 0 59 13t18 43v33q0 31 -16 44.5t-58 13.5h-3
q-42 0 -59.5 -13.5t-17.5 -44.5v-33q0 -31 16.5 -43.5t56.5 -12.5zM194 127h2q37 0 53 13.5t16 44.5v17q0 31 -14.5 44t-51.5 13h-1q-38 0 -54.5 -13t-16.5 -44v-17q0 -32 15 -45t52 -13z" />
    <glyph glyph-name="nine.inferior" unicode="&#x2089;" horiz-adv-x="379" 
d="M70 -106l-4 32q-1 7 2 9.5t10 1.5q38 -9 95 -9h3q42 0 61.5 14t19.5 45v39l2 42q-22 -20 -77 -20h-6q-128 0 -128 113v41q0 60 36 85.5t104 25.5h4q68 0 102 -25.5t34 -84.5v-216q0 -65 -36 -91t-114 -26h-3q-58 0 -92 8q-13 4 -13 16zM183 104h5q69 0 69 56v44
q0 55 -67 55h-2q-69 0 -69 -55v-44q0 -56 64 -56z" />
    <glyph glyph-name="plus.inferior" unicode="&#x208a;" horiz-adv-x="381" 
d="M55 54v29q0 13 13 13h94v92q0 13 13 13h31q13 0 13 -13v-92h94q13 0 13 -13v-29q0 -11 -13 -11h-94v-91q0 -13 -13 -13h-31q-13 0 -13 13v91h-94q-13 0 -13 11z" />
    <glyph glyph-name="minus.inferior" unicode="&#x208b;" horiz-adv-x="374" 
d="M55 54v29q0 13 13 13h238q13 0 13 -13v-29q0 -11 -13 -11h-238q-13 0 -13 11z" />
    <glyph glyph-name="equal.inferior" unicode="&#x208c;" horiz-adv-x="361" 
d="M62 121v31q0 13 13 13h212q12 0 12 -13v-31q0 -12 -12 -12h-212q-13 0 -13 12zM62 -16v31q0 13 13 13h212q12 0 12 -13v-31q0 -13 -12 -13h-212q-13 0 -13 13z" />
    <glyph glyph-name="parenleft.inferior" unicode="&#x208d;" horiz-adv-x="277" 
d="M208 -142h-47q-11 0 -19 12q-74 107 -74 221q0 115 74 221q9 12 21 12h46q7 0 9.5 -4t-1.5 -8q-82 -112 -82 -221q0 -107 81 -221q4 -5 1.5 -8.5t-9.5 -3.5z" />
    <glyph glyph-name="parenright.inferior" unicode="&#x208e;" horiz-adv-x="273" 
d="M111 -142h-46q-7 0 -9.5 3.5t1.5 8.5q81 113 81 221q0 105 -81 221q-4 4 -1 8t10 4h46q13 0 19 -12q74 -105 74 -221q0 -114 -74 -221q-6 -12 -20 -12z" />
    <glyph glyph-name="franc" unicode="&#x20a3;" horiz-adv-x="551" 
d="M116 14v101h-43q-13 0 -13 14v30q0 13 13 13h43v511q0 14 14 14h346q14 0 14 -14v-39q0 -13 -13 -13h-281v-251h248q14 0 14 -13v-42q0 -14 -14 -14h-248v-139h43q14 0 14 -13v-30q0 -14 -14 -14h-43v-101q0 -14 -14 -14h-52q-14 0 -14 14z" />
    <glyph glyph-name="Euro" unicode="&#x20ac;" 
d="M131 175v74h-51q-14 0 -14 14v32q0 14 14 14h51v85h-51q-14 0 -14 14v32q0 13 14 13h51v69q0 96 52.5 140t158.5 44q19 0 38 -1.5t33 -3t25 -3.5t17.5 -3.5t7.5 -1.5q14 -4 15 -16l4 -40q1 -8 -1.5 -10.5t-11.5 -1.5q-3 2 -18 5t-44.5 6.5t-58.5 3.5q-73 0 -105 -28.5
t-32 -88.5v-70h88q13 0 13 -13v-32q0 -14 -13 -14h-88v-85h88q13 0 13 -14v-32q0 -14 -13 -14h-88v-71q0 -61 28.5 -88.5t101.5 -27.5q31 0 64 4t50 7.5t19 4.5q14 4 14 -11l-5 -42q-1 -13 -15 -18l-6 -1q-7 -2 -19 -4.5t-27.5 -5t-37.5 -4t-45 -1.5q-104 0 -153 43.5
t-49 140.5z" />
    <glyph glyph-name="uni2116" unicode="&#x2116;" horiz-adv-x="920" 
d="M605 459v122q0 56 34.5 78t96.5 22h8q61 0 94.5 -22t33.5 -78v-122q0 -57 -34.5 -78.5t-97.5 -21.5h-7q-62 0 -95 21.5t-33 78.5zM735 415h3q32 0 47.5 9t15.5 35v127q0 25 -14.5 34t-45.5 9h-2q-32 0 -48 -9t-16 -34v-127q0 -26 14.5 -35t45.5 -9zM607 271v21
q0 13 14 13h235q14 0 14 -13v-21q0 -13 -14 -13h-235q-14 0 -14 13zM80 14v669q0 14 14 14h66q12 0 17 -12l191 -428q33 -73 55 -144h4q-8 84 -8 232v338q0 14 13 14h51q14 0 14 -14v-669q0 -14 -15 -14h-62q-14 0 -20 12l-188 423q-42 96 -58 149h-4q9 -93 9 -257v-313
q0 -14 -14 -14h-51q-14 0 -14 14z" />
    <glyph glyph-name="uni2117" unicode="&#x2117;" horiz-adv-x="813" 
d="M285 153v393q0 14 13 14h108q68 0 97 -25t29 -87v-25q0 -62 -30 -87t-99 -25h-59v-158q0 -14 -15 -14h-31q-13 0 -13 14zM344 365h68q30 0 44.5 10.5t14.5 42.5v37q0 34 -14.5 44t-49.5 10h-63v-144zM87 165v366q0 95 49.5 136.5t154.5 41.5h233q105 0 154 -41.5
t49 -136.5v-366q0 -94 -49.5 -135.5t-155.5 -41.5h-234q-105 0 -153 41t-48 136zM280 32h250q147 0 147 126v381q0 126 -145 126h-249q-147 0 -147 -126v-381q0 -126 144 -126z" />
    <glyph glyph-name="trademark" unicode="&#x2122;" horiz-adv-x="664" 
d="M306 357v331q0 9 8 9h42q6 0 11 -7l46 -100q2 -4 9 -19.5t12.5 -29.5t8.5 -21l30 70l44 100q3 7 12 7h40q9 0 9 -9v-331q0 -9 -9 -9h-25q-8 0 -8 9v92q0 175 1 191h-2q-19 -50 -55 -128l-23 -49q-3 -7 -10 -7h-8q-7 0 -10 7l-23 48q-47 98 -57 133h-2q2 -22 2 -194v-93
q0 -9 -9 -9h-26q-8 0 -8 9zM121 357v302h-73q-10 0 -8 9l1 20q2 9 10 9h186q8 0 9 -9l2 -20q2 -9 -8 -9h-74v-302q0 -9 -9 -9h-26q-10 0 -10 9z" />
    <glyph glyph-name="Omega" unicode="&#x2126;" horiz-adv-x="650" 
d="M31 14v41q0 14 13 14h110q-46 40 -46 136v324q0 96 52.5 138t158.5 42h16q106 0 155.5 -41.5t49.5 -138.5v-324q0 -93 -51 -136h116q14 0 14 -14v-41q0 -14 -14 -14h-191q-14 0 -14 14v41q0 12 12 21q48 35 48 96v368q0 58 -30.5 80.5t-100.5 22.5h-4q-70 0 -103.5 -23
t-33.5 -80v-368q0 -68 48 -95q10 -6 10 -22v-41q0 -14 -13 -14h-189q-13 0 -13 14z" />
    <glyph glyph-name="estimated" unicode="&#x212e;" horiz-adv-x="838" 
d="M233 350v-228q78 -77 188 -77q156 0 245 153l45 -25q-70 -98 -135 -135.5t-155 -37.5q-149 0 -239.5 99t-90.5 251q0 157 92 254.5t238 97.5q62 0 119 -21.5t105 -63t76.5 -110.5t28.5 -157h-517zM233 397h373v182q-82 77 -188 77q-103 0 -185 -77v-182z" />
    <glyph glyph-name="arrowleft" unicode="&#x2190;" horiz-adv-x="792" 
d="M684 267v-36q0 -13 -14 -13h-455l158 -185q5 -7 1.5 -12t-11.5 -5h-41q-15 0 -21.5 2.5t-14.5 12.5l-167 197q-21 24 2 49l162 189q10 12 16.5 15t21.5 3h39q8 0 11 -5.5t-2 -11.5l-160 -186h461q14 0 14 -14z" />
    <glyph glyph-name="arrowup" unicode="&#x2191;" horiz-adv-x="792" 
d="M418 -8h-43q-14 0 -14 14v486l-183 -158q-6 -6 -11 -3t-5 11v39q0 15 3 21t14 17l189 160q26 23 50 2l197 -166q15 -14 15 -37v-40q0 -8 -5.5 -11.5t-11.5 1.5l-182 158v-480q0 -14 -13 -14z" />
    <glyph glyph-name="arrowright" unicode="&#x2192;" horiz-adv-x="792" 
d="M108 232v36q0 13 13 13h456l-158 185q-5 7 -1.5 12.5t11.5 5.5h41q23 0 36 -16l167 -196q21 -26 -2 -50l-162 -189q-9 -12 -15.5 -14.5t-22.5 -2.5h-39q-8 0 -11 5t2 11l160 187h-462q-13 0 -13 13z" />
    <glyph glyph-name="arrowdown" unicode="&#x2193;" horiz-adv-x="792" 
d="M374 597h43q14 0 14 -14v-485l183 158q6 5 11 2t5 -11v-39q0 -14 -3 -20.5t-14 -16.5l-189 -161q-26 -23 -50 -2l-197 166q-15 14 -15 37v41q0 8 5.5 11.5t11.5 -2.5l182 -157v479q0 14 13 14z" />
    <glyph glyph-name="partialdiff" unicode="&#x2202;" horiz-adv-x="540" 
d="M68 158v99q0 164 179 164h6q97 0 132 -44q-2 45 -2 75v84q0 57 -31.5 80t-99.5 23q-25 0 -64 -6q-7 -1 -10.5 1.5t-2.5 10.5l4 38q1 12 16 16q24 6 62 6q104 0 155 -42t51 -138v-367q0 -92 -50.5 -130t-146.5 -38h-9q-94 0 -141.5 39t-47.5 129zM259 59h5q58 0 88.5 21.5
t30.5 77.5v98q0 56 -26.5 78t-78.5 22h-19q-54 0 -82.5 -22t-28.5 -78v-97q0 -56 27.5 -78t83.5 -22z" />
    <glyph glyph-name="Delta" unicode="&#x2206;" horiz-adv-x="500" 
d="M26 13l189 671q4 13 18 13h34q13 0 17 -13l189 -671q4 -13 -10 -13h-427q-13 0 -10 13zM103 62h292l-145 528z" />
    <glyph glyph-name="product" unicode="&#x220f;" horiz-adv-x="578" 
d="M86 -245v928q0 14 13 14h378q14 0 14 -14v-928q0 -14 -14 -14h-42q-14 0 -14 14v881h-265v-881q0 -14 -14 -14h-43q-13 0 -13 14z" />
    <glyph glyph-name="summation" unicode="&#x2211;" horiz-adv-x="531" 
d="M78 -182v27q0 15 5 27l148 374q5 13 0 26l-133 347q-4 13 -4 26v38q0 14 14 14h333q14 0 14 -14v-35q0 -14 -14 -14h-263l138 -359q4 -12 0 -25l-149 -383h274q14 0 14 -14v-35q0 -14 -14 -14h-349q-14 0 -14 14z" />
    <glyph glyph-name="minus" unicode="&#x2212;" 
d="M78 296v34q0 14 14 14h371q13 0 13 -14v-34q0 -14 -13 -14h-371q-14 0 -14 14z" />
    <glyph glyph-name="radical" unicode="&#x221a;" horiz-adv-x="610" 
d="M291 14l-93 436h-100q-13 0 -13 13v23q0 14 13 14h140q13 0 16 -14l69 -333l140 629q3 14 16 14h36q14 0 11 -14l-176 -768q-3 -14 -17 -14h-26q-13 0 -16 14z" />
    <glyph glyph-name="infinity" unicode="&#x221e;" horiz-adv-x="840" 
d="M94 258v48q0 88 46.5 123t130.5 35h10q105 0 139 -62q38 62 145 62h11q82 0 126 -34.5t44 -123.5v-48q0 -88 -46.5 -123t-130.5 -35h-9q-108 0 -141 61q-36 -61 -144 -61h-10q-83 0 -127 34.5t-44 123.5zM562 157h3q61 0 89.5 20.5t28.5 76.5v60q0 57 -25 76t-85 19h-3
q-62 0 -90 -19.5t-28 -75.5v-61q0 -57 25 -76.5t85 -19.5zM266 157h3q62 0 91 20.5t29 76.5v60q0 56 -26 75.5t-86 19.5h-3q-61 0 -88.5 -19.5t-27.5 -75.5v-61q0 -57 24.5 -76.5t83.5 -19.5z" />
    <glyph glyph-name="integral" unicode="&#x222b;" horiz-adv-x="313" 
d="M-16 -211l-4 41q-1 7 2 11t11 3q16 -2 22 -2q17 0 27.5 1.5t24.5 8t21.5 22.5t7.5 41v656q0 157 168 157q22 0 38 -3t17 -14l3 -40q1 -8 -1.5 -10t-10.5 -1q-22 3 -46 3q-88 0 -88 -84v-651q0 -88 -42 -121.5t-112 -33.5q-15 0 -27 3q-10 2 -11 13z" />
    <glyph glyph-name="approxequal" unicode="&#x2248;" 
d="M127 189l-12 12q-13 12 -1 30q33 45 88 45q25 0 47.5 -13.5t36 -29.5t32 -29.5t38.5 -13.5q24 0 41 21q13 14 26 4l18 -16q11 -10 -1 -27q-36 -50 -90 -50q-26 0 -49.5 13.5t-37 30t-32 30t-35.5 13.5q-22 0 -42 -20q-14 -13 -27 0zM127 415l-12 12q-13 12 -1 30
q33 45 88 45q25 0 47.5 -13.5t36 -29.5t32 -29.5t38.5 -13.5q24 0 41 21q13 14 26 4l18 -16q11 -10 -1 -27q-36 -50 -90 -50q-26 0 -49.5 13.5t-37 30t-32 30t-35.5 13.5q-22 0 -42 -20q-14 -13 -27 0z" />
    <glyph glyph-name="notequal" unicode="&#x2260;" 
d="M134 40l57 141h-88q-14 0 -14 14v34q0 14 14 14h115l57 142h-172q-14 0 -14 14v34q0 14 14 14h197l67 160q5 13 18 7l29 -12q13 -5 7 -18l-56 -137h87q14 0 14 -14v-34q0 -14 -14 -14h-112l-58 -142h170q14 0 14 -14v-34q0 -14 -14 -14h-195l-67 -163q-6 -13 -19 -8
l-30 12q-13 6 -7 18z" />
    <glyph glyph-name="lessequal" unicode="&#x2264;" 
d="M115 14v34q0 14 14 14h271l-274 207q-11 10 -11 22v58q0 14 11 22l299 233q15 10 15 -8v-47q0 -14 -11 -22l-263 -206l263 -206q11 -8 11 -22v-79q0 -14 -14 -14h-297q-14 0 -14 14z" />
    <glyph glyph-name="greaterequal" unicode="&#x2265;" 
d="M115 14v79q0 12 11 22l263 205l-263 207q-11 8 -11 22v47q0 8 4.5 10t10.5 -3l299 -232q11 -8 11 -22v-58q0 -14 -11 -22l-274 -207h271q14 0 14 -14v-34q0 -14 -14 -14h-297q-14 0 -14 14z" />
    <glyph glyph-name="uni24B9" unicode="&#x24b9;" horiz-adv-x="813" 
d="M290 144v409q0 8 8 8h108q65 0 95 -26.5t30 -85.5v-200q0 -113 -129 -113h-104q-8 0 -8 8zM349 190h53q42 0 56 21.5t14 71.5v160q0 34 -15 50.5t-51 16.5h-57v-320zM87 165v366q0 95 49.5 136.5t154.5 41.5h233q105 0 154 -41.5t49 -136.5v-366q0 -94 -49.5 -135.5
t-155.5 -41.5h-234q-105 0 -153 41t-48 136zM280 32h250q147 0 147 126v381q0 126 -145 126h-249q-147 0 -147 -126v-381q0 -126 144 -126z" />
    <glyph glyph-name="lozenge" unicode="&#x25ca;" horiz-adv-x="497" 
d="M241 -180l-177 429q-6 14 -1 26l179 462q4 12 9 0l177 -462q5 -12 -1 -25l-175 -430q-6 -12 -10 -2q0 1 -1 2zM247 -76l135 343l-135 357l-136 -361z" />
    <glyph glyph-name="fi" unicode="&#xfb01;" horiz-adv-x="534" 
d="M93 14v425h-61q-14 0 -14 14v33q0 14 14 14h61v75q0 153 168 153q20 0 39.5 -1.5t33 -3.5t23.5 -4t16 -3l6 -2q16 -4 17 -16l3 -38q1 -7 -2 -10.5t-10 -2.5q-64 16 -126 16q-88 0 -88 -84v-79h270q14 0 14 -14v-472q0 -14 -14 -14h-53q-13 0 -13 14v425h-204v-425
q0 -14 -14 -14h-52q-14 0 -14 14z" />
    <glyph glyph-name="fl" unicode="&#xfb02;" horiz-adv-x="570" 
d="M376 654q-54 9 -116 9q-40 0 -63.5 -21t-23.5 -62v-80h102q14 0 13 -13l-4 -35q-1 -13 -16 -13h-95v-425q0 -14 -14 -14h-52q-14 0 -14 14v425h-61q-14 0 -14 14v33q0 14 14 14h61v71q0 157 167 157q108 0 181 -19q15 -3 15 -15v-555q0 -47 12 -61.5t47 -14.5q5 0 16.5 1
t13.5 1q7 0 9.5 -2.5t1.5 -10.5l-4 -40q-1 -12 -14 -15q-18 -3 -41 -3q-57 0 -89 28.5t-32 109.5v522z" />
    <glyph glyph-name="EmptyFrame" horiz-adv-x="813" 
d="M87 165v366q0 95 49.5 136.5t154.5 41.5h233q105 0 154 -41.5t49 -136.5v-366q0 -94 -49.5 -135.5t-155.5 -41.5h-234q-105 0 -153 41t-48 136zM280 32h250q147 0 147 126v381q0 126 -145 126h-249q-147 0 -147 -126v-381q0 -126 144 -126z" />
    <glyph glyph-name="parenleft.alt" horiz-adv-x="379" 
d="M122 48v596q0 86 26.5 116t112.5 30h23q13 0 13 -14v-33q0 -13 -13 -13h-35q-38 0 -48.5 -12.5t-10.5 -47.5v-648q0 -35 10.5 -47.5t48.5 -12.5h35q13 0 13 -13v-33q0 -14 -13 -14h-23q-87 0 -113 30t-26 116z" />
    <glyph glyph-name="parenright.alt" horiz-adv-x="379" 
d="M81 -84v33q0 13 14 13h35q38 0 48.5 12.5t10.5 47.5v648q0 35 -10.5 47.5t-48.5 12.5h-35q-14 0 -14 13v33q0 14 14 14h22q87 0 113 -30t26 -116v-596q0 -87 -26 -116.5t-112 -29.5h-23q-14 0 -14 14z" />
    <glyph glyph-name="germandbls.versal" horiz-adv-x="975" 
d="M64 25l-5 42q-1 8 2 11t12 1q102 -17 150 -17q80 0 108 22.5t28 91.5v31q0 63 -23 87t-85 37l-16 4q-47 10 -74 19.5t-53 28t-37 48.5t-11 75v25q0 99 48 137t152 38q74 0 118 -14q16 -5 17 -18l4 -38q1 -7 -2 -10t-11 -2q-50 16 -130 16q-61 0 -88.5 -21.5t-27.5 -79.5
v-23q0 -55 22.5 -75.5t88.5 -34.5l16 -4q96 -20 133.5 -57t37.5 -132v-31q0 -109 -46 -150t-164 -41q-74 0 -149 16q-14 4 -15 18zM544 25l-5 42q-1 8 2 11t12 1q102 -17 150 -17q80 0 108 22.5t28 91.5v31q0 63 -23 87t-85 37l-16 4q-47 10 -74 19.5t-53 28t-37 48.5
t-11 75v25q0 99 48 137t152 38q74 0 118 -14q16 -5 17 -18l4 -38q1 -7 -2 -10t-11 -2q-50 16 -130 16q-61 0 -88.5 -21.5t-27.5 -79.5v-23q0 -55 22.5 -75.5t88.5 -34.5l16 -4q96 -20 133.5 -57t37.5 -132v-31q0 -109 -46 -150t-164 -41q-74 0 -149 16q-14 4 -15 18z" />
    <glyph glyph-name="A.001" horiz-adv-x="562" 
d="M486 533v-519q0 -14 -14 -14h-52q-14 0 -14 14v253h-250v-253q0 -14 -13 -14h-53q-14 0 -14 14v519q0 94 51.5 135.5t149.5 41.5h16q97 0 145 -41t48 -136zM156 535v-201h250v201q0 59 -25.5 84t-89.5 25h-12q-65 0 -94 -25.5t-29 -83.5z" />
    <glyph glyph-name="E.001" horiz-adv-x="486" 
d="M419 3q-54 -7 -161 -7t-146.5 37.5t-39.5 136.5v356q0 99 43 137t149 38q44 0 81 -1.5t51 -3.5l15 -2q14 -1 15 -12l6 -41q0 -8 -2.5 -10.5t-10.5 -2.5q-75 7 -150 7q-70 0 -93.5 -21t-23.5 -85v-132h216q14 0 14 -14v-42q0 -13 -14 -13h-216v-158q0 -63 21.5 -83
t89.5 -20l165 7q15 0 14 -14l-8 -44q-1 -12 -15 -13z" />
    <glyph glyph-name="F.001" horiz-adv-x="466" 
d="M267 701q44 0 82 -1.5t54 -3.5l16 -2q15 -1 16 -12l5 -41q1 -13 -12 -13q-72 7 -155 7q-69 0 -93 -22t-24 -85v-149h221q13 0 12 -13l-5 -43q-1 -13 -15 -13h-213v-296q0 -14 -13 -14h-53q-14 0 -14 14v509q0 100 43 139t148 39z" />
    <glyph glyph-name="L.001" horiz-adv-x="433" 
d="M391 73q14 0 13 -14l-5 -43q-1 -13 -16 -14q-47 -6 -117 -6q-109 0 -149.5 37t-40.5 142v508q0 14 14 14h53q13 0 13 -14v-508q0 -66 20 -87t92 -21z" />
    <glyph glyph-name="Agrave.001" horiz-adv-x="562" 
d="M486 533v-519q0 -14 -14 -14h-52q-14 0 -14 14v253h-250v-253q0 -14 -13 -14h-53q-14 0 -14 14v519q0 94 51.5 135.5t149.5 41.5h16q97 0 145 -41t48 -136zM156 535v-201h250v201q0 59 -25.5 84t-89.5 25h-12q-65 0 -94 -25.5t-29 -83.5zM243 770l-72 138q-6 14 10 14h57
q14 0 19 -13l60 -137q6 -14 -10 -14h-44q-13 0 -20 12z" />
    <glyph glyph-name="Aacute.001" horiz-adv-x="562" 
d="M486 533v-519q0 -14 -14 -14h-52q-14 0 -14 14v253h-250v-253q0 -14 -13 -14h-53q-14 0 -14 14v519q0 94 51.5 135.5t149.5 41.5h16q97 0 145 -41t48 -136zM156 535v-201h250v201q0 59 -25.5 84t-89.5 25h-12q-65 0 -94 -25.5t-29 -83.5zM397 908l-72 -138
q-7 -12 -20 -12h-44q-16 0 -10 14l60 137q5 13 19 13h57q16 0 10 -14z" />
    <glyph glyph-name="Acircumflex.001" horiz-adv-x="562" 
d="M486 533v-519q0 -14 -14 -14h-52q-14 0 -14 14v253h-250v-253q0 -14 -13 -14h-53q-14 0 -14 14v519q0 94 51.5 135.5t149.5 41.5h16q97 0 145 -41t48 -136zM156 535v-201h250v201q0 59 -25.5 84t-89.5 25h-12q-65 0 -94 -25.5t-29 -83.5zM154 775l101 118q8 10 21 10h18
q13 0 21 -10l101 -118q10 -12 -7 -12h-46q-12 0 -21 10l-59 70l-60 -70q-10 -10 -22 -10h-41q-7 0 -9 3.5t3 8.5z" />
    <glyph glyph-name="Atilde.001" horiz-adv-x="562" 
d="M486 533v-519q0 -14 -14 -14h-52q-14 0 -14 14v253h-250v-253q0 -14 -13 -14h-53q-14 0 -14 14v519q0 94 51.5 135.5t149.5 41.5h16q97 0 145 -41t48 -136zM156 535v-201h250v201q0 59 -25.5 84t-89.5 25h-12q-65 0 -94 -25.5t-29 -83.5zM166 782l-14 21q-7 10 2 21
q24 30 70 30q33 0 66 -22t53 -22q22 0 38 17q9 14 21 0l13 -18q9 -9 -1 -24q-28 -37 -72 -37q-32 0 -65.5 22t-54.5 22t-38 -13q-10 -8 -18 3z" />
    <glyph glyph-name="Adieresis.001" horiz-adv-x="562" 
d="M486 533v-519q0 -14 -14 -14h-52q-14 0 -14 14v253h-250v-253q0 -14 -13 -14h-53q-14 0 -14 14v519q0 94 51.5 135.5t149.5 41.5h16q97 0 145 -41t48 -136zM156 535v-201h250v201q0 59 -25.5 84t-89.5 25h-12q-65 0 -94 -25.5t-29 -83.5zM239 841v-66q0 -8 -2.5 -11
t-10.5 -3h-60q-8 0 -11 3t-3 11v66q0 8 3 11t11 3h60q8 0 10.5 -3t2.5 -11zM415 841v-66q0 -8 -2.5 -11t-10.5 -3h-60q-8 0 -11 3t-3 11v66q0 8 3 11t11 3h60q8 0 10.5 -3t2.5 -11z" />
    <glyph glyph-name="Amacron.001" horiz-adv-x="562" 
d="M486 533v-519q0 -14 -14 -14h-52q-14 0 -14 14v253h-250v-253q0 -14 -13 -14h-53q-14 0 -14 14v519q0 94 51.5 135.5t149.5 41.5h16q97 0 145 -41t48 -136zM156 535v-201h250v201q0 59 -25.5 84t-89.5 25h-12q-65 0 -94 -25.5t-29 -83.5zM157 772v28q0 14 14 14h227
q14 0 14 -14v-28q0 -14 -14 -14h-227q-14 0 -14 14z" />
    <glyph glyph-name="Abreve.001" horiz-adv-x="562" 
d="M486 533v-519q0 -14 -14 -14h-52q-14 0 -14 14v253h-250v-253q0 -14 -13 -14h-53q-14 0 -14 14v519q0 94 51.5 135.5t149.5 41.5h16q97 0 145 -41t48 -136zM156 535v-201h250v201q0 59 -25.5 84t-89.5 25h-12q-65 0 -94 -25.5t-29 -83.5zM149 895h33q12 0 15 -15
q12 -66 87 -66q76 0 86 67q3 14 15 14h34q14 0 11 -14q-20 -123 -146 -123t-147 121q-3 16 12 16z" />
    <glyph glyph-name="Aring.001" horiz-adv-x="562" 
d="M486 533v-519q0 -14 -14 -14h-52q-14 0 -14 14v253h-250v-253q0 -14 -13 -14h-53q-14 0 -14 14v519q0 94 51.5 135.5t149.5 41.5h16q97 0 145 -41t48 -136zM156 535v-201h250v201q0 59 -25.5 84t-89.5 25h-12q-65 0 -94 -25.5t-29 -83.5zM181 830v23q0 90 91 90h27
q91 0 91 -90v-23q0 -90 -91 -90h-27q-91 0 -91 90zM276 784h19q28 0 38.5 10.5t10.5 38.5v16q0 28 -10.5 39t-38.5 11h-19q-29 0 -39 -11t-10 -39v-16q0 -28 10 -38.5t39 -10.5z" />
    <glyph glyph-name="Aogonek.001" horiz-adv-x="562" 
d="M481 -227h-15q-134 0 -134 110q0 71 83 117q-9 3 -9 14v253h-250v-253q0 -14 -13 -14h-53q-14 0 -14 14v519q0 94 51.5 135.5t149.5 41.5h16q97 0 145 -41t48 -136v-519q0 -13 -11 -14q-38 -21 -58.5 -43.5t-23.5 -35t-3 -29.5q0 -57 74 -57h17q8 0 10.5 -3t2.5 -11v-34
q0 -8 -2.5 -11t-10.5 -3zM156 535v-201h250v201q0 59 -25.5 84t-89.5 25h-12q-65 0 -94 -25.5t-29 -83.5z" />
    <glyph glyph-name="Acaron.001" horiz-adv-x="562" 
d="M486 533v-519q0 -14 -14 -14h-52q-14 0 -14 14v253h-250v-253q0 -14 -13 -14h-53q-14 0 -14 14v519q0 94 51.5 135.5t149.5 41.5h16q97 0 145 -41t48 -136zM156 535v-201h250v201q0 59 -25.5 84t-89.5 25h-12q-65 0 -94 -25.5t-29 -83.5zM255 768l-101 118q-4 4 -2 8t9 4
h45q12 0 21 -10l59 -70l60 70q9 10 21 10h43q17 0 7 -12l-102 -118q-8 -10 -21 -10h-18q-13 0 -21 10z" />
    <glyph glyph-name="Adotaccent.001" horiz-adv-x="562" 
d="M486 533v-519q0 -14 -14 -14h-52q-14 0 -14 14v253h-250v-253q0 -14 -13 -14h-53q-14 0 -14 14v519q0 94 51.5 135.5t149.5 41.5h16q97 0 145 -41t48 -136zM156 535v-201h250v201q0 59 -25.5 84t-89.5 25h-12q-65 0 -94 -25.5t-29 -83.5zM243 770v60q0 13 13 13h56
q13 0 13 -13v-60q0 -14 -13 -14h-56q-13 0 -13 14z" />
    <glyph glyph-name="AE.001" horiz-adv-x="820" 
d="M753 3q-54 -7 -162 -7q-107 0 -146 37.5t-39 136.5v97h-250v-253q0 -13 -13 -13h-53q-14 0 -14 13v519q0 94 51.5 135.5t149.5 41.5h16q106 0 152 -59q44 50 153 50q44 0 80.5 -1.5t51.5 -3.5l14 -2q15 -1 16 -12l5 -41q1 -13 -13 -13q-74 7 -149 7q-70 0 -93.5 -21
t-23.5 -85v-132h215q14 0 14 -14v-42q0 -13 -14 -13h-215v-98v-4v-56q0 -63 21.5 -83t89.5 -20l165 7q16 0 13 -14l-7 -44q-2 -12 -15 -13zM156 535v-201h250v201q0 59 -25.5 84t-89.5 25h-12q-65 0 -94 -25.5t-29 -83.5z" />
    <glyph glyph-name="AEacute.001" horiz-adv-x="820" 
d="M753 3q-54 -7 -162 -7q-107 0 -146 37.5t-39 136.5v97h-250v-253q0 -13 -13 -13h-53q-14 0 -14 13v519q0 94 51.5 135.5t149.5 41.5h16q106 0 152 -59q44 50 153 50q44 0 80.5 -1.5t51.5 -3.5l14 -2q15 -1 16 -12l5 -41q1 -13 -13 -13q-74 7 -149 7q-70 0 -93.5 -21
t-23.5 -85v-132h215q14 0 14 -14v-42q0 -13 -14 -13h-215v-158q0 -63 21.5 -83t89.5 -20l165 7q16 0 13 -14l-7 -44q-2 -12 -15 -13zM156 535v-201h250v201q0 59 -25.5 84t-89.5 25h-12q-65 0 -94 -25.5t-29 -83.5zM559 908l-72 -138q-7 -12 -20 -12h-44q-16 0 -10 14
l60 137q5 13 19 13h57q16 0 10 -14z" />
    <glyph glyph-name="Egrave.001" horiz-adv-x="486" 
d="M419 3q-54 -7 -161 -7t-146.5 37.5t-39.5 136.5v356q0 99 43 137t149 38q44 0 81 -1.5t51 -3.5l15 -2q14 -1 15 -12l6 -41q0 -8 -2.5 -10.5t-10.5 -2.5q-75 7 -150 7q-70 0 -93.5 -21t-23.5 -85v-132h216q14 0 14 -14v-42q0 -13 -14 -13h-216v-158q0 -63 21.5 -83
t89.5 -20l165 7q15 0 14 -14l-8 -44q-1 -12 -15 -13zM229 770l-72 138q-6 14 10 14h57q14 0 19 -13l60 -137q6 -14 -10 -14h-44q-13 0 -20 12z" />
    <glyph glyph-name="Eacute.001" horiz-adv-x="486" 
d="M419 3q-54 -7 -161 -7t-146.5 37.5t-39.5 136.5v356q0 99 43 137t149 38q44 0 81 -1.5t51 -3.5l15 -2q14 -1 15 -12l6 -41q0 -8 -2.5 -10.5t-10.5 -2.5q-75 7 -150 7q-70 0 -93.5 -21t-23.5 -85v-132h216q14 0 14 -14v-42q0 -13 -14 -13h-216v-158q0 -63 21.5 -83
t89.5 -20l165 7q15 0 14 -14l-8 -44q-1 -12 -15 -13zM383 908l-72 -138q-7 -12 -20 -12h-44q-16 0 -10 14l60 137q5 13 19 13h57q16 0 10 -14z" />
    <glyph glyph-name="Ecircumflex.001" horiz-adv-x="486" 
d="M419 3q-54 -7 -161 -7t-146.5 37.5t-39.5 136.5v356q0 99 43 137t149 38q44 0 81 -1.5t51 -3.5l15 -2q14 -1 15 -12l6 -41q0 -8 -2.5 -10.5t-10.5 -2.5q-75 7 -150 7q-70 0 -93.5 -21t-23.5 -85v-132h216q14 0 14 -14v-42q0 -13 -14 -13h-216v-158q0 -63 21.5 -83
t89.5 -20l165 7q15 0 14 -14l-8 -44q-1 -12 -15 -13zM139 775l101 118q8 10 21 10h18q13 0 21 -10l101 -118q10 -12 -7 -12h-46q-12 0 -21 10l-59 70l-60 -70q-10 -10 -22 -10h-41q-7 0 -9 3.5t3 8.5z" />
    <glyph glyph-name="Ecaron.001" horiz-adv-x="486" 
d="M419 3q-54 -7 -161 -7t-146.5 37.5t-39.5 136.5v356q0 99 43 137t149 38q44 0 81 -1.5t51 -3.5l15 -2q14 -1 15 -12l6 -41q0 -8 -2.5 -10.5t-10.5 -2.5q-75 7 -150 7q-70 0 -93.5 -21t-23.5 -85v-132h216q14 0 14 -14v-42q0 -13 -14 -13h-216v-158q0 -63 21.5 -83
t89.5 -20l165 7q15 0 14 -14l-8 -44q-1 -12 -15 -13zM240 768l-101 118q-4 4 -2 8t9 4h45q12 0 21 -10l59 -70l60 70q9 10 21 10h43q17 0 7 -12l-102 -118q-8 -10 -21 -10h-18q-13 0 -21 10z" />
    <glyph glyph-name="Edieresis.001" horiz-adv-x="486" 
d="M419 3q-54 -7 -161 -7t-146.5 37.5t-39.5 136.5v356q0 99 43 137t149 38q44 0 81 -1.5t51 -3.5l15 -2q14 -1 15 -12l6 -41q0 -8 -2.5 -10.5t-10.5 -2.5q-75 7 -150 7q-70 0 -93.5 -21t-23.5 -85v-132h216q14 0 14 -14v-42q0 -13 -14 -13h-216v-158q0 -63 21.5 -83
t89.5 -20l165 7q15 0 14 -14l-8 -44q-1 -12 -15 -13zM225 841v-66q0 -8 -2.5 -11t-10.5 -3h-60q-8 0 -11 3t-3 11v66q0 8 3 11t11 3h60q8 0 10.5 -3t2.5 -11zM401 841v-66q0 -8 -2.5 -11t-10.5 -3h-60q-8 0 -11 3t-3 11v66q0 8 3 11t11 3h60q8 0 10.5 -3t2.5 -11z" />
    <glyph glyph-name="Emacron.001" horiz-adv-x="486" 
d="M419 3q-54 -7 -161 -7t-146.5 37.5t-39.5 136.5v356q0 99 43 137t149 38q44 0 81 -1.5t51 -3.5l15 -2q14 -1 15 -12l6 -41q0 -8 -2.5 -10.5t-10.5 -2.5q-75 7 -150 7q-70 0 -93.5 -21t-23.5 -85v-132h216q14 0 14 -14v-42q0 -13 -14 -13h-216v-158q0 -63 21.5 -83
t89.5 -20l165 7q15 0 14 -14l-8 -44q-1 -12 -15 -13zM143 772v28q0 14 14 14h227q14 0 14 -14v-28q0 -14 -14 -14h-227q-14 0 -14 14z" />
    <glyph glyph-name="Ebreve.001" horiz-adv-x="486" 
d="M419 3q-54 -7 -161 -7t-146.5 37.5t-39.5 136.5v356q0 99 43 137t149 38q44 0 81 -1.5t51 -3.5l15 -2q14 -1 15 -12l6 -41q0 -8 -2.5 -10.5t-10.5 -2.5q-75 7 -150 7q-70 0 -93.5 -21t-23.5 -85v-132h216q14 0 14 -14v-42q0 -13 -14 -13h-216v-158q0 -63 21.5 -83
t89.5 -20l165 7q15 0 14 -14l-8 -44q-1 -12 -15 -13zM135 895h33q12 0 15 -15q12 -66 87 -66q76 0 86 67q3 14 15 14h34q14 0 11 -14q-20 -123 -146 -123t-147 121q-3 16 12 16z" />
    <glyph glyph-name="Edotaccent.001" horiz-adv-x="486" 
d="M419 3q-54 -7 -161 -7t-146.5 37.5t-39.5 136.5v356q0 99 43 137t149 38q44 0 81 -1.5t51 -3.5l15 -2q14 -1 15 -12l6 -41q0 -8 -2.5 -10.5t-10.5 -2.5q-75 7 -150 7q-70 0 -93.5 -21t-23.5 -85v-132h216q14 0 14 -14v-42q0 -13 -14 -13h-216v-158q0 -63 21.5 -83
t89.5 -20l165 7q15 0 14 -14l-8 -44q-1 -12 -15 -13zM229 770v60q0 13 13 13h56q13 0 13 -13v-60q0 -14 -13 -14h-56q-13 0 -13 14z" />
    <glyph glyph-name="Eogonek.001" horiz-adv-x="486" 
d="M424 -227h-15q-134 0 -134 110q0 69 79 115q-50 -2 -96 -2q-107 0 -146.5 37.5t-39.5 136.5v356q0 99 43 137t149 38q44 0 81 -1.5t51 -3.5l15 -2q14 -1 15 -12l6 -41q0 -8 -2.5 -10.5t-10.5 -2.5q-75 7 -150 7q-70 0 -93.5 -21t-23.5 -85v-132h216q14 0 14 -14v-42
q0 -13 -14 -13h-216v-158q0 -63 21.5 -83t89.5 -20l165 7q15 0 14 -14l-8 -44q-1 -11 -9 -12l-1 -1q-41 -22 -62.5 -45.5t-25 -36t-3.5 -29.5q0 -57 74 -57h17q8 0 10.5 -3t2.5 -11v-34q0 -8 -2.5 -11t-10.5 -3z" />
    <glyph glyph-name="uni1EB8.001" horiz-adv-x="486" 
d="M419 3q-54 -7 -161 -7t-146.5 37.5t-39.5 136.5v356q0 99 43 137t149 38q44 0 81 -1.5t51 -3.5l15 -2q14 -1 15 -12l6 -41q0 -8 -2.5 -10.5t-10.5 -2.5q-75 7 -150 7q-70 0 -93.5 -21t-23.5 -85v-132h216q14 0 14 -14v-42q0 -13 -14 -13h-216v-158q0 -63 21.5 -83
t89.5 -20l165 7q15 0 14 -14l-8 -44q-1 -12 -15 -13zM223 -133v60q0 14 13 14h56q13 0 13 -14v-60q0 -13 -13 -13h-56q-13 0 -13 13z" />
    <glyph glyph-name="Lacute.001" horiz-adv-x="433" 
d="M391 73q14 0 13 -14l-5 -43q-1 -13 -16 -14q-47 -6 -117 -6q-109 0 -149.5 37t-40.5 142v508q0 14 14 14h53q13 0 13 -14v-508q0 -66 20 -87t92 -21zM230 908l-72 -138q-7 -12 -20 -12h-44q-16 0 -10 14l60 137q5 13 19 13h57q16 0 10 -14z" />
    <glyph glyph-name="Lcaron.001" horiz-adv-x="433" 
d="M391 73q14 0 13 -14l-5 -43q-1 -13 -16 -14q-47 -6 -117 -6q-109 0 -149.5 37t-40.5 142v508q0 14 14 14h53q13 0 13 -14v-508q0 -66 20 -87t92 -21zM279 583h-47q-15 0 -7 14q44 74 44 164v12q0 8 3 11t11 3h52q13 0 13 -14v-10q0 -99 -48 -167q-8 -13 -21 -13z" />
    <glyph glyph-name="uni013B.001" horiz-adv-x="433" 
d="M391 73q14 0 13 -14l-5 -43q-1 -13 -16 -14q-47 -6 -117 -6q-109 0 -149.5 37t-40.5 142v508q0 14 14 14h53q13 0 13 -14v-508q0 -66 20 -87t92 -21zM219 -263h-47q-15 0 -7 14q44 74 44 164v12q0 8 3 11t11 3h52q13 0 13 -14v-10q0 -99 -48 -167q-8 -13 -21 -13z" />
    <glyph glyph-name="Lslash.001" horiz-adv-x="433" 
d="M29 254l-16 25q-6 11 4 19l59 39v346q0 14 14 14h53q13 0 13 -14v-293l90 60q12 9 19 -3l16 -24q9 -12 -3 -19l-122 -82v-147q0 -66 20 -87t92 -21l123 6q14 0 13 -14l-5 -43q-1 -13 -16 -14q-47 -6 -117 -6q-109 0 -149.5 37t-40.5 142v93l-28 -18q-12 -7 -19 4z" />
    <glyph glyph-name="Ldot.001" horiz-adv-x="433" 
d="M391 73q14 0 13 -14l-5 -43q-1 -13 -16 -14q-47 -6 -117 -6q-109 0 -149.5 37t-40.5 142v508q0 14 14 14h53q13 0 13 -14v-508q0 -66 20 -87t92 -21zM279 341v60q0 13 13 13h56q13 0 13 -13v-60q0 -14 -13 -14h-56q-13 0 -13 14z" />
    <glyph glyph-name="Scedilla.alt" horiz-adv-x="494" 
d="M210 -176h-39q-15 0 -7 14q42 69 45 153q-76 2 -130 16q-14 4 -15 18l-5 42q-1 8 2 11t12 1q102 -17 150 -17q80 0 108 22.5t28 91.5v31q0 63 -23 87t-85 37l-16 4q-47 10 -74 19.5t-53 28t-37 48.5t-11 75v25q0 99 48 137t152 38q74 0 118 -14q16 -5 17 -18l4 -38
q1 -7 -2 -10t-11 -2q-50 16 -130 16q-61 0 -88.5 -21.5t-27.5 -79.5v-23q0 -55 22.5 -75.5t88.5 -34.5l16 -4q96 -20 133.5 -57t37.5 -132v-31q0 -97 -35.5 -139.5t-123.5 -49.5q-2 -87 -48 -156q-9 -13 -21 -13z" />
    <glyph glyph-name="Ccedilla.alt" horiz-adv-x="475" 
d="M231 -175h-39q-15 0 -7 14q42 71 45 154q-80 8 -119 52t-39 130v347q0 96 53 140t159 44q32 0 62 -3t44 -7l14 -3q15 -4 16 -16l3 -40q1 -8 -2 -10.5t-11 -1.5q-63 15 -125 15q-70 0 -101.5 -28.5t-31.5 -88.5v-345q0 -61 28 -88.5t97 -27.5q35 0 69.5 4t51.5 8l17 4
q8 2 11.5 -1t2.5 -10l-5 -42q-1 -13 -15 -18q-40 -12 -109 -15q-3 -87 -48 -154q-9 -13 -21 -13z" />
    <glyph glyph-name="a.1" horiz-adv-x="533" 
d="M68 149v201q0 90 44.5 124.5t135.5 34.5h4q103 0 170 -29q16 -5 16 -19v-337q0 -45 14 -57t49 -9q8 1 10.5 -2t2.5 -11l-5 -38q-1 -14 -11 -16q-12 -3 -36 -3q-61 0 -82 46q-42 -46 -141 -46h-3q-168 0 -168 161zM243 57h12q103 0 103 98v274q-42 15 -106 15h-2
q-59 0 -80.5 -22t-21.5 -78v-189q0 -52 23.5 -75t71.5 -23z" />
    <glyph glyph-name="e.1" horiz-adv-x="487" 
d="M406 66l-5 -42q-1 -12 -14 -16q-39 -17 -142 -17h-3q-81 0 -127.5 36t-46.5 125v204q0 88 47 122t127 34h7q38 0 67 -6.5t54 -23t38.5 -48.5t13.5 -78v-116q0 -14 -14 -14h-262v-68q0 -54 24.5 -76t75.5 -22h3q78 0 144 17q7 1 10.5 -2t2.5 -9zM344 288v70
q0 50 -22.5 70.5t-70.5 20.5h-11q-48 0 -71 -20.5t-23 -70.5v-70h198z" />
    <glyph glyph-name="f.1" horiz-adv-x="300" 
d="M268 439h-95v-517q0 -85 -33.5 -117t-97.5 -32q-14 0 -26 3q-10 3 -11 13l-4 41q-1 7 2 11t11 3q10 -2 22 -2q13 0 21 2t17.5 9t14 23t4.5 41v522h-61q-14 0 -14 14v33q0 14 14 14h61v71q0 157 168 157q21 0 38 -3q16 -3 17 -14l3 -40q1 -8 -1.5 -10t-10.5 -1
q-23 3 -46 3q-88 0 -88 -84v-79h102q14 0 13 -13l-4 -35q-1 -13 -16 -13z" />
    <glyph glyph-name="f.s" horiz-adv-x="281" 
d="M74 14v556q0 158 168 158q6 0 12 -0.5t10.5 -1t8 -0.5h5.5l3 -1q15 -3 16 -14l4 -40q1 -8 -2 -10t-11 -1q-21 3 -46 3q-88 0 -88 -89v-74h103q14 0 13 -13l-5 -35q-1 -13 -15 -13h-96v-425q0 -14 -13 -14h-53q-14 0 -14 14z" />
    <glyph glyph-name="g.1" horiz-adv-x="510" 
d="M179 -205l-5 40q-1 8 2 10.5t12 1.5q48 -5 70 -5q21 0 34.5 2t31.5 9.5t27.5 26t9.5 48.5v46l1 64q-37 -38 -115 -38h-3q-176 0 -176 161v191q0 89 49.5 124.5t137.5 35.5h4q88 0 133.5 -34t45.5 -125v-420q0 -94 -44.5 -127t-125.5 -33q-48 0 -75 5q-14 3 -14 17z
M253 69h3q102 0 102 99v182q0 52 -23.5 74.5t-76.5 22.5h-4q-53 0 -79.5 -22.5t-26.5 -74.5v-183q0 -53 25 -75.5t80 -22.5z" />
    <glyph glyph-name="hh" horiz-adv-x="504" 
d="M75 14v472q0 14 14 14h53q13 0 13 -14v-181h194v181q0 14 14 14h52q14 0 14 -14v-472q0 -14 -14 -14h-52q-14 0 -14 14v222h-194v-222q0 -14 -13 -14h-53q-14 0 -14 14z" />
    <glyph glyph-name="l.1" horiz-adv-x="235" 
d="M77 14v690q0 15 14 15l53 7q8 1 10.5 -2t2.5 -12v-698q0 -14 -13 -14h-53q-14 0 -14 14z" />
    <glyph glyph-name="t.s" horiz-adv-x="321" 
d="M74 134v491q0 12 11 13l57 7q12 1 12 -11v-134h115q9 0 11.5 -2t3.5 -10l5 -36q1 -8 -2 -10.5t-11 -2.5h-122v-305q0 -45 15 -58t63 -13q13 0 30.5 2t20.5 2q12 0 11 -13l-5 -38q-2 -15 -14 -17q-25 -5 -54 -5q-75 0 -111 28.5t-36 111.5z" />
    <glyph glyph-name="y.1" horiz-adv-x="435" 
d="M129 -208l35 103l37 105h-16q-14 0 -17 14l-146 469q-4 12 11 14l54 6q11 1 15 -11l79 -268q28 -99 40 -154h3q13 62 38 153l73 268q4 13 17 12l50 -6q15 -1 10 -16l-205 -699q-4 -12 -17 -11l-51 5q-14 1 -10 16z" />
    <glyph glyph-name="agrave.1" horiz-adv-x="533" 
d="M68 149v201q0 90 44.5 124.5t135.5 34.5h4q103 0 170 -29q16 -5 16 -19v-337q0 -45 14 -57t49 -9q8 1 10.5 -2t2.5 -11l-5 -38q-1 -14 -11 -16q-12 -3 -36 -3q-61 0 -82 46q-42 -46 -141 -46h-3q-168 0 -168 161zM243 57h12q103 0 103 98v274q-42 15 -106 15h-2
q-59 0 -80.5 -22t-21.5 -78v-189q0 -52 23.5 -75t71.5 -23zM217 599l-72 138q-6 14 10 14h57q14 0 19 -13l60 -137q6 -14 -10 -14h-44q-13 0 -20 12z" />
    <glyph glyph-name="aacute.1" horiz-adv-x="533" 
d="M68 149v201q0 90 44.5 124.5t135.5 34.5h4q103 0 170 -29q16 -5 16 -19v-337q0 -45 14 -57t49 -9q8 1 10.5 -2t2.5 -11l-5 -38q-1 -14 -11 -16q-12 -3 -36 -3q-61 0 -82 46q-42 -46 -141 -46h-3q-168 0 -168 161zM243 57h12q103 0 103 98v274q-42 15 -106 15h-2
q-59 0 -80.5 -22t-21.5 -78v-189q0 -52 23.5 -75t71.5 -23zM367 737l-72 -138q-7 -12 -20 -12h-44q-16 0 -10 14l60 137q5 13 19 13h57q16 0 10 -14z" />
    <glyph glyph-name="acircumflex.1" horiz-adv-x="533" 
d="M68 149v201q0 90 44.5 124.5t135.5 34.5h4q103 0 170 -29q16 -5 16 -19v-337q0 -45 14 -57t49 -9q8 1 10.5 -2t2.5 -11l-5 -38q-1 -14 -11 -16q-12 -3 -36 -3q-61 0 -82 46q-42 -46 -141 -46h-3q-168 0 -168 161zM243 57h12q103 0 103 98v274q-42 15 -106 15h-2
q-59 0 -80.5 -22t-21.5 -78v-189q0 -52 23.5 -75t71.5 -23zM128 604l101 118q8 10 21 10h18q13 0 21 -10l101 -118q10 -12 -7 -12h-46q-12 0 -21 10l-59 70l-60 -70q-10 -10 -22 -10h-41q-7 0 -9 4t3 8z" />
    <glyph glyph-name="atilde.1" horiz-adv-x="533" 
d="M68 149v201q0 90 44.5 124.5t135.5 34.5h4q103 0 170 -29q16 -5 16 -19v-337q0 -45 14 -57t49 -9q8 1 10.5 -2t2.5 -11l-5 -38q-1 -14 -11 -16q-12 -3 -36 -3q-61 0 -82 46q-42 -46 -141 -46h-3q-168 0 -168 161zM243 57h12q103 0 103 98v274q-42 15 -106 15h-2
q-59 0 -80.5 -22t-21.5 -78v-189q0 -52 23.5 -75t71.5 -23zM140 611l-14 21q-7 10 2 21q24 30 70 30q33 0 66 -22t53 -22q22 0 38 17q9 14 21 0l13 -18q9 -9 -1 -24q-28 -37 -72 -37q-32 0 -65.5 22t-54.5 22t-38 -13q-10 -8 -18 3z" />
    <glyph glyph-name="adieresis.1" horiz-adv-x="533" 
d="M68 149v201q0 90 44.5 124.5t135.5 34.5h4q103 0 170 -29q16 -5 16 -19v-337q0 -45 14 -57t49 -9q8 1 10.5 -2t2.5 -11l-5 -38q-1 -14 -11 -16q-12 -3 -36 -3q-61 0 -82 46q-42 -46 -141 -46h-3q-168 0 -168 161zM243 57h12q103 0 103 98v274q-42 15 -106 15h-2
q-59 0 -80.5 -22t-21.5 -78v-189q0 -52 23.5 -75t71.5 -23zM213 670v-66q0 -8 -2.5 -11t-10.5 -3h-60q-8 0 -11 3t-3 11v66q0 8 3 11t11 3h60q8 0 10.5 -3t2.5 -11zM389 670v-66q0 -8 -2.5 -11t-10.5 -3h-60q-8 0 -11 3t-3 11v66q0 8 3 11t11 3h60q8 0 10.5 -3t2.5 -11z" />
    <glyph glyph-name="amacron.1" horiz-adv-x="533" 
d="M68 149v201q0 90 44.5 124.5t135.5 34.5h4q103 0 170 -29q16 -5 16 -19v-337q0 -45 14 -57t49 -9q8 1 10.5 -2t2.5 -11l-5 -38q-1 -14 -11 -16q-12 -3 -36 -3q-61 0 -82 46q-42 -46 -141 -46h-3q-168 0 -168 161zM243 57h12q103 0 103 98v274q-42 15 -106 15h-2
q-59 0 -80.5 -22t-21.5 -78v-189q0 -52 23.5 -75t71.5 -23zM131 601v28q0 14 14 14h227q14 0 14 -14v-28q0 -14 -14 -14h-227q-14 0 -14 14z" />
    <glyph glyph-name="abreve.1" horiz-adv-x="533" 
d="M68 149v201q0 90 44.5 124.5t135.5 34.5h4q103 0 170 -29q16 -5 16 -19v-337q0 -45 14 -57t49 -9q8 1 10.5 -2t2.5 -11l-5 -38q-1 -14 -11 -16q-12 -3 -36 -3q-61 0 -82 46q-42 -46 -141 -46h-3q-168 0 -168 161zM243 57h12q103 0 103 98v274q-42 15 -106 15h-2
q-59 0 -80.5 -22t-21.5 -78v-189q0 -52 23.5 -75t71.5 -23zM123 724h33q12 0 15 -15q12 -66 87 -66q76 0 86 67q3 14 15 14h34q14 0 11 -14q-20 -123 -146 -123t-147 121q-3 16 12 16z" />
    <glyph glyph-name="aring.1" horiz-adv-x="533" 
d="M68 149v201q0 90 44.5 124.5t135.5 34.5h4q103 0 170 -29q16 -5 16 -19v-337q0 -45 14 -57t49 -9q8 1 10.5 -2t2.5 -11l-5 -38q-1 -14 -11 -16q-12 -3 -36 -3q-61 0 -82 46q-42 -46 -141 -46h-3q-168 0 -168 161zM243 57h12q103 0 103 98v274q-42 15 -106 15h-2
q-59 0 -80.5 -22t-21.5 -78v-189q0 -52 23.5 -75t71.5 -23zM155 659v23q0 90 91 90h27q91 0 91 -90v-23q0 -90 -91 -90h-27q-91 0 -91 90zM250 613h19q28 0 38.5 10.5t10.5 38.5v16q0 28 -10.5 39t-38.5 11h-19q-29 0 -39 -11t-10 -39v-16q0 -28 10 -38.5t39 -10.5z" />
    <glyph glyph-name="aogonek.1" horiz-adv-x="533" 
d="M494 -237h-15q-134 0 -134 110q0 71 85 119q-37 11 -50 42q-42 -46 -141 -46h-3q-168 0 -168 161v201q0 90 44.5 124.5t135.5 34.5h4q103 0 170 -29q16 -5 16 -19v-337q0 -45 14 -57t49 -9q8 1 10.5 -2t2.5 -11l-5 -38q-1 -14 -11 -16l-12 -2q-37 -21 -57 -43.5
t-23 -34.5t-3 -29q0 -57 74 -57h17q8 0 10.5 -3t2.5 -11v-34q0 -8 -2.5 -11t-10.5 -3zM243 57h12q103 0 103 98v274q-42 15 -106 15h-2q-59 0 -80.5 -22t-21.5 -78v-189q0 -52 23.5 -75t71.5 -23z" />
    <glyph glyph-name="acaron.1" horiz-adv-x="533" 
d="M68 149v201q0 90 44.5 124.5t135.5 34.5h4q103 0 170 -29q16 -5 16 -19v-337q0 -45 14 -57t49 -9q8 1 10.5 -2t2.5 -11l-5 -38q-1 -14 -11 -16q-12 -3 -36 -3q-61 0 -82 46q-42 -46 -141 -46h-3q-168 0 -168 161zM243 57h12q103 0 103 98v274q-42 15 -106 15h-2
q-59 0 -80.5 -22t-21.5 -78v-189q0 -52 23.5 -75t71.5 -23zM228 597l-101 118q-4 5 -2 8.5t9 3.5h45q12 0 21 -10l59 -70l60 70q9 10 21 10h43q17 0 7 -12l-102 -118q-8 -10 -21 -10h-18q-13 0 -21 10z" />
    <glyph glyph-name="adotaccent.1" horiz-adv-x="533" 
d="M68 149v201q0 90 44.5 124.5t135.5 34.5h4q103 0 170 -29q16 -5 16 -19v-337q0 -45 14 -57t49 -9q8 1 10.5 -2t2.5 -11l-5 -38q-1 -14 -11 -16q-12 -3 -36 -3q-61 0 -82 46q-42 -46 -141 -46h-3q-168 0 -168 161zM243 57h12q103 0 103 98v274q-42 15 -106 15h-2
q-59 0 -80.5 -22t-21.5 -78v-189q0 -52 23.5 -75t71.5 -23zM218 599v60q0 13 13 13h56q13 0 13 -13v-60q0 -14 -13 -14h-56q-13 0 -13 14z" />
    <glyph glyph-name="ae.1" horiz-adv-x="748" 
d="M668 68l-5 -44q0 -10 -14 -16q-39 -17 -129 -17h-6q-105 0 -144 61q-44 -62 -151 -62q-86 0 -128 35.5t-42 113.5v19q0 43 14.5 72t43 44.5t58 22t70.5 9.5q16 1 50 2t45 2v36q0 53 -23 75t-73 22q-51 0 -123 -16q-8 -2 -11 0.5t-2 10.5l4 40q2 13 13 16q56 14 120 14
q98 0 135 -56q41 60 134 60h7q80 0 126 -33.5t46 -122.5v-116q-2 -10 -4 -12t-10 -2h-261v-60q0 -61 23.5 -83.5t79.5 -22.5q75 0 145 17q7 1 10 -2t2 -7zM605 288v70q0 50 -23 70.5t-73 20.5h-8q-46 0 -69.5 -21t-23.5 -70v-70h197zM127 152v-10q0 -43 23 -63t78 -20
q61 0 81.5 29t20.5 100v59q-88 -2 -94 -3q-61 -6 -85 -24.5t-24 -67.5z" />
    <glyph glyph-name="aeacute.1" horiz-adv-x="748" 
d="M668 68l-5 -44q0 -10 -14 -16q-39 -17 -129 -17h-6q-105 0 -144 61q-44 -62 -151 -62q-86 0 -128 35.5t-42 113.5v19q0 43 14.5 72t43 44.5t58 22t70.5 9.5q16 1 50 2t45 2v36q0 53 -23 75t-73 22q-51 0 -123 -16q-8 -2 -11 0.5t-2 10.5l4 40q2 13 13 16q56 14 120 14
q98 0 135 -56q41 60 134 60h7q80 0 126 -33.5t46 -122.5v-116q-2 -10 -4 -12t-10 -2h-261v-60q0 -61 23.5 -83.5t79.5 -22.5q75 0 145 17q7 1 10 -2t2 -7zM605 288v70q0 50 -23 70.5t-73 20.5h-8q-46 0 -69.5 -21t-23.5 -70v-70h197zM127 152v-10q0 -43 23 -63t78 -20
q61 0 81.5 29t20.5 100v59q-88 -2 -94 -3q-61 -6 -85 -24.5t-24 -67.5zM484 737l-72 -138q-7 -12 -20 -12h-44q-16 0 -10 14l60 137q5 13 19 13h57q16 0 10 -14z" />
    <glyph glyph-name="egrave.1" horiz-adv-x="487" 
d="M406 66l-5 -42q-1 -12 -14 -16q-39 -17 -142 -17h-3q-81 0 -127.5 36t-46.5 125v204q0 88 47 122t127 34h7q38 0 67 -6.5t54 -23t38.5 -48.5t13.5 -78v-116q0 -14 -14 -14h-262v-68q0 -54 24.5 -76t75.5 -22h3q78 0 144 17q7 1 10.5 -2t2.5 -9zM344 288v70
q0 50 -22.5 70.5t-70.5 20.5h-11q-48 0 -71 -20.5t-23 -70.5v-70h198zM209 599l-72 138q-6 14 10 14h57q14 0 19 -13l60 -137q6 -14 -10 -14h-44q-13 0 -20 12z" />
    <glyph glyph-name="eacute.1" horiz-adv-x="487" 
d="M406 66l-5 -42q-1 -12 -14 -16q-39 -17 -142 -17h-3q-81 0 -127.5 36t-46.5 125v204q0 88 47 122t127 34h7q38 0 67 -6.5t54 -23t38.5 -48.5t13.5 -78v-116q0 -14 -14 -14h-262v-68q0 -54 24.5 -76t75.5 -22h3q78 0 144 17q7 1 10.5 -2t2.5 -9zM344 288v70
q0 50 -22.5 70.5t-70.5 20.5h-11q-48 0 -71 -20.5t-23 -70.5v-70h198zM363 737l-72 -138q-7 -12 -20 -12h-44q-16 0 -10 14l60 137q5 13 19 13h57q16 0 10 -14z" />
    <glyph glyph-name="ecircumflex.1" horiz-adv-x="487" 
d="M406 66l-5 -42q-1 -12 -14 -16q-39 -17 -142 -17h-3q-81 0 -127.5 36t-46.5 125v204q0 88 47 122t127 34h7q38 0 67 -6.5t54 -23t38.5 -48.5t13.5 -78v-116q0 -14 -14 -14h-262v-68q0 -54 24.5 -76t75.5 -22h3q78 0 144 17q7 1 10.5 -2t2.5 -9zM344 288v70
q0 50 -22.5 70.5t-70.5 20.5h-11q-48 0 -71 -20.5t-23 -70.5v-70h198zM119 604l101 118q8 10 21 10h18q13 0 21 -10l101 -118q10 -12 -7 -12h-46q-12 0 -21 10l-59 70l-60 -70q-10 -10 -22 -10h-41q-7 0 -9 4t3 8z" />
    <glyph glyph-name="ecaron.1" horiz-adv-x="487" 
d="M406 66l-5 -42q-1 -12 -14 -16q-39 -17 -142 -17h-3q-81 0 -127.5 36t-46.5 125v204q0 88 47 122t127 34h7q38 0 67 -6.5t54 -23t38.5 -48.5t13.5 -78v-116q0 -14 -14 -14h-262v-68q0 -54 24.5 -76t75.5 -22h3q78 0 144 17q7 1 10.5 -2t2.5 -9zM344 288v70
q0 50 -22.5 70.5t-70.5 20.5h-11q-48 0 -71 -20.5t-23 -70.5v-70h198zM220 597l-101 118q-4 5 -2 8.5t9 3.5h45q12 0 21 -10l59 -70l60 70q9 10 21 10h43q17 0 7 -12l-102 -118q-8 -10 -21 -10h-18q-13 0 -21 10z" />
    <glyph glyph-name="edieresis.1" horiz-adv-x="487" 
d="M406 66l-5 -42q-1 -12 -14 -16q-39 -17 -142 -17h-3q-81 0 -127.5 36t-46.5 125v204q0 88 47 122t127 34h7q38 0 67 -6.5t54 -23t38.5 -48.5t13.5 -78v-116q0 -14 -14 -14h-262v-68q0 -54 24.5 -76t75.5 -22h3q78 0 144 17q7 1 10.5 -2t2.5 -9zM344 288v70
q0 50 -22.5 70.5t-70.5 20.5h-11q-48 0 -71 -20.5t-23 -70.5v-70h198zM205 670v-66q0 -8 -2.5 -11t-10.5 -3h-60q-8 0 -11 3t-3 11v66q0 8 3 11t11 3h60q8 0 10.5 -3t2.5 -11zM381 670v-66q0 -8 -2.5 -11t-10.5 -3h-60q-8 0 -11 3t-3 11v66q0 8 3 11t11 3h60q8 0 10.5 -3
t2.5 -11z" />
    <glyph glyph-name="emacron.1" horiz-adv-x="487" 
d="M406 66l-5 -42q-1 -12 -14 -16q-39 -17 -142 -17h-3q-81 0 -127.5 36t-46.5 125v204q0 88 47 122t127 34h7q38 0 67 -6.5t54 -23t38.5 -48.5t13.5 -78v-116q0 -14 -14 -14h-262v-68q0 -54 24.5 -76t75.5 -22h3q78 0 144 17q7 1 10.5 -2t2.5 -9zM344 288v70
q0 50 -22.5 70.5t-70.5 20.5h-11q-48 0 -71 -20.5t-23 -70.5v-70h198zM123 601v28q0 14 14 14h227q14 0 14 -14v-28q0 -14 -14 -14h-227q-14 0 -14 14z" />
    <glyph glyph-name="ebreve.1" horiz-adv-x="487" 
d="M406 66l-5 -42q-1 -12 -14 -16q-39 -17 -142 -17h-3q-81 0 -127.5 36t-46.5 125v204q0 88 47 122t127 34h7q38 0 67 -6.5t54 -23t38.5 -48.5t13.5 -78v-116q0 -14 -14 -14h-262v-68q0 -54 24.5 -76t75.5 -22h3q78 0 144 17q7 1 10.5 -2t2.5 -9zM344 288v70
q0 50 -22.5 70.5t-70.5 20.5h-11q-48 0 -71 -20.5t-23 -70.5v-70h198zM115 724h33q12 0 15 -15q12 -66 87 -66q76 0 86 67q3 14 15 14h34q14 0 11 -14q-20 -123 -146 -123t-147 121q-3 16 12 16z" />
    <glyph glyph-name="edotaccent.1" horiz-adv-x="487" 
d="M406 66l-5 -42q-1 -12 -14 -16q-39 -17 -142 -17h-3q-81 0 -127.5 36t-46.5 125v204q0 88 47 122t127 34h7q38 0 67 -6.5t54 -23t38.5 -48.5t13.5 -78v-116q0 -14 -14 -14h-262v-68q0 -54 24.5 -76t75.5 -22h3q78 0 144 17q7 1 10.5 -2t2.5 -9zM344 288v70
q0 50 -22.5 70.5t-70.5 20.5h-11q-48 0 -71 -20.5t-23 -70.5v-70h198zM209 599v60q0 13 13 13h56q13 0 13 -13v-60q0 -14 -13 -14h-56q-13 0 -13 14z" />
    <glyph glyph-name="eogonek.1" horiz-adv-x="487" 
d="M392 -218h-15q-134 0 -134 110q0 60 57 101q-32 -2 -55 -2h-3q-81 0 -127.5 36t-46.5 125v204q0 88 47 122t127 34h7q38 0 67 -6.5t54 -23t38.5 -48.5t13.5 -78v-116q0 -14 -14 -14h-262v-68q0 -54 24.5 -76t75.5 -22h3q78 0 144 17q7 1 10.5 -2t2.5 -9l-5 -42
q-1 -12 -14 -16l-7 -3q-35 -20 -54 -42t-22 -34t-3 -28q0 -57 74 -57h17q8 0 10.5 -3t2.5 -11v-34q0 -8 -2.5 -11t-10.5 -3zM344 288v70q0 50 -22.5 70.5t-70.5 20.5h-11q-48 0 -71 -20.5t-23 -70.5v-70h198z" />
    <glyph glyph-name="uni1EB9.1" horiz-adv-x="487" 
d="M406 66l-5 -42q-1 -12 -14 -16q-39 -17 -142 -17h-3q-81 0 -127.5 36t-46.5 125v204q0 88 47 122t127 34h7q38 0 67 -6.5t54 -23t38.5 -48.5t13.5 -78v-116q0 -14 -14 -14h-262v-68q0 -54 24.5 -76t75.5 -22h3q78 0 144 17q7 1 10.5 -2t2.5 -9zM344 288v70
q0 50 -22.5 70.5t-70.5 20.5h-11q-48 0 -71 -20.5t-23 -70.5v-70h198zM203 -133v60q0 14 13 14h56q13 0 13 -14v-60q0 -13 -13 -13h-56q-13 0 -13 13z" />
    <glyph glyph-name="gcircumflex.1" horiz-adv-x="510" 
d="M179 -205l-5 40q-1 8 2 10.5t12 1.5q48 -5 70 -5q21 0 34.5 2t31.5 9.5t27.5 26t9.5 48.5v46l1 64q-37 -38 -115 -38h-3q-176 0 -176 161v191q0 89 49.5 124.5t137.5 35.5h4q88 0 133.5 -34t45.5 -125v-420q0 -94 -44.5 -127t-125.5 -33q-48 0 -75 5q-14 3 -14 17z
M253 69h3q102 0 102 99v182q0 52 -23.5 74.5t-76.5 22.5h-4q-53 0 -79.5 -22.5t-26.5 -74.5v-183q0 -53 25 -75.5t80 -22.5zM124 604l101 118q8 10 21 10h18q13 0 21 -10l101 -118q10 -12 -7 -12h-46q-12 0 -21 10l-59 70l-60 -70q-10 -10 -22 -10h-41q-7 0 -9 4t3 8z" />
    <glyph glyph-name="gbreve.1" horiz-adv-x="510" 
d="M179 -205l-5 40q-1 8 2 10.5t12 1.5q48 -5 70 -5q21 0 34.5 2t31.5 9.5t27.5 26t9.5 48.5v46l1 64q-37 -38 -115 -38h-3q-176 0 -176 161v191q0 89 49.5 124.5t137.5 35.5h4q88 0 133.5 -34t45.5 -125v-420q0 -94 -44.5 -127t-125.5 -33q-48 0 -75 5q-14 3 -14 17z
M253 69h3q102 0 102 99v182q0 52 -23.5 74.5t-76.5 22.5h-4q-53 0 -79.5 -22.5t-26.5 -74.5v-183q0 -53 25 -75.5t80 -22.5zM120 724h33q12 0 15 -15q12 -66 87 -66q76 0 86 67q3 14 15 14h34q14 0 11 -14q-20 -123 -146 -123t-147 121q-3 16 12 16z" />
    <glyph glyph-name="gdotaccent.1" horiz-adv-x="510" 
d="M179 -205l-5 40q-1 8 2 10.5t12 1.5q48 -5 70 -5q21 0 34.5 2t31.5 9.5t27.5 26t9.5 48.5v46l1 64q-37 -38 -115 -38h-3q-176 0 -176 161v191q0 89 49.5 124.5t137.5 35.5h4q88 0 133.5 -34t45.5 -125v-420q0 -94 -44.5 -127t-125.5 -33q-48 0 -75 5q-14 3 -14 17z
M253 69h3q102 0 102 99v182q0 52 -23.5 74.5t-76.5 22.5h-4q-53 0 -79.5 -22.5t-26.5 -74.5v-183q0 -53 25 -75.5t80 -22.5zM214 599v60q0 13 13 13h56q13 0 13 -13v-60q0 -14 -13 -14h-56q-13 0 -13 14z" />
    <glyph glyph-name="uni0123.1" horiz-adv-x="510" 
d="M179 -205l-5 40q-1 8 2 10.5t12 1.5q48 -5 70 -5q21 0 34.5 2t31.5 9.5t27.5 26t9.5 48.5v46l1 64q-37 -38 -115 -38h-3q-176 0 -176 161v191q0 89 49.5 124.5t137.5 35.5h4q88 0 133.5 -34t45.5 -125v-420q0 -94 -44.5 -127t-125.5 -33q-48 0 -75 5q-14 3 -14 17z
M253 69h3q102 0 102 99v182q0 52 -23.5 74.5t-76.5 22.5h-4q-53 0 -79.5 -22.5t-26.5 -74.5v-183q0 -53 25 -75.5t80 -22.5zM279 587h-47q-15 0 -7 14q44 74 44 164v12q0 8 3 11t11 3h52q13 0 13 -14v-10q0 -99 -48 -167q-8 -13 -21 -13z" />
    <glyph glyph-name="i.TRK" horiz-adv-x="235" 
d="M77 14v468q0 14 13 15l53 6q14 1 14 -13v-476q0 -14 -13 -14h-53q-14 0 -14 14zM73 613v66q0 14 14 14h61q14 0 14 -14v-66q0 -14 -14 -14h-61q-8 0 -11 3t-3 11z" />
    <glyph glyph-name="lacute.1" horiz-adv-x="235" 
d="M77 14v690q0 15 14 15l53 7q8 1 10.5 -2t2.5 -12v-698q0 -14 -13 -14h-53q-14 0 -14 14zM230 917l-72 -138q-7 -12 -20 -12h-44q-16 0 -10 14l60 137q5 13 19 13h57q16 0 10 -14z" />
    <glyph glyph-name="lcaron.1" horiz-adv-x="235" 
d="M77 14v690q0 15 14 15l53 7q8 1 10.5 -2t2.5 -12v-698q0 -14 -13 -14h-53q-14 0 -14 14zM284 584h-47q-15 0 -7 14q44 74 44 164v12q0 8 3 11t11 3h52q13 0 13 -14v-10q0 -99 -48 -167q-8 -13 -21 -13z" />
    <glyph glyph-name="uni013C.1" horiz-adv-x="235" 
d="M77 14v690q0 15 14 15l53 7q8 1 10.5 -2t2.5 -12v-698q0 -14 -13 -14h-53q-14 0 -14 14zM88 -277h-47q-15 0 -7 14q44 74 44 164v12q0 8 3 11t11 3h52q13 0 13 -14v-10q0 -99 -48 -167q-8 -13 -21 -13z" />
    <glyph glyph-name="lslash.1" horiz-adv-x="253" 
d="M86 14v259l-30 -20q-11 -8 -19 3l-16 25q-7 12 4 19l61 41v363q0 15 14 15l53 7q8 1 10.5 -2t2.5 -12v-318l32 22q12 7 19 -4l16 -23q8 -12 -3 -20l-64 -43v-312q0 -14 -13 -14h-53q-14 0 -14 14z" />
    <glyph glyph-name="ldot.1" horiz-adv-x="273" 
d="M212 268v58q0 14 14 14h53q14 0 14 -14v-58q0 -13 -14 -13h-53q-14 0 -14 13zM77 14v690q0 15 14 15l53 7q8 1 10.5 -2t2.5 -12v-698q0 -14 -13 -14h-53q-14 0 -14 14z" />
    <glyph glyph-name="oe.1" horiz-adv-x="778" 
d="M697 65l-4 -46q-1 -10 -14 -13q-67 -16 -144 -16h-3q-101 0 -135 56q-41 -58 -142 -58h-10q-84 0 -130.5 35.5t-46.5 125.5v202q0 89 49 125t134 36h10q99 0 137 -57q36 57 139 57h7q169 0 169 -161v-109q0 -13 -14 -13h-261v-71q0 -52 22 -75.5t68 -23.5h7q86 0 150 17
q7 2 10 -1t2 -10zM635 290v63q0 51 -21.5 73.5t-68.5 22.5h-11q-48 0 -72 -22.5t-24 -73.5v-63h197zM358 156v194q0 52 -23.5 74.5t-72.5 22.5h-12q-51 0 -76.5 -22.5t-25.5 -74.5v-195q0 -52 23 -75t73 -23h12q102 0 102 99z" />
    <glyph glyph-name="tcaron.s" horiz-adv-x="321" 
d="M74 134v491q0 12 11 13l57 7q12 1 12 -11v-134h115q9 0 11.5 -2t3.5 -10l5 -36q1 -8 -2 -10.5t-11 -2.5h-122v-305q0 -45 15 -58t63 -13q13 0 30.5 2t20.5 2q12 0 11 -13l-5 -38q-2 -15 -14 -17q-25 -5 -54 -5q-75 0 -111 28.5t-36 111.5zM287 558h-47q-15 0 -7 14
q44 74 44 164v12q0 8 3 11t11 3h52q13 0 13 -14v-10q0 -99 -48 -167q-8 -13 -21 -13z" />
    <glyph glyph-name="uni0163.s" horiz-adv-x="321" 
d="M77 -221v25q0 14 13 11q2 0 16.5 -3.5t35 -6.5t40.5 -3q41 0 56.5 14t15.5 41q0 29 -21 41t-82 12h-3q-14 0 -14 14v83q-60 27 -60 127v491q0 12 11 13l57 7q12 1 12 -11v-134h115q9 0 11.5 -2t3.5 -10l5 -36q1 -8 -2 -10.5t-11 -2.5h-122v-305q0 -45 15 -58t63 -13
q13 0 30.5 2t20.5 2q12 0 11 -13l-5 -38q-2 -15 -14 -17q-25 -5 -54 -5q-19 0 -28 1v-38q67 -1 94 -29.5t27 -65.5q0 -114 -120 -114q-71 0 -106 14q-11 4 -11 17z" />
    <glyph glyph-name="tbar.s" horiz-adv-x="321" 
d="M15 255v29q0 14 13 14h46v327q0 12 11 13l57 7q12 1 12 -11v-134h115q9 0 11.5 -2t3.5 -10l5 -36q1 -8 -2 -10.5t-11 -2.5h-122v-141h82q14 0 14 -14v-29q0 -13 -14 -13h-82v-108q0 -45 15 -58t63 -13q13 0 30.5 2t20.5 2q12 0 11 -13l-5 -38q-2 -15 -14 -17
q-25 -5 -54 -5q-75 0 -111 28.5t-36 111.5v108h-46q-13 0 -13 13z" />
    <glyph glyph-name="uni021B.s" horiz-adv-x="321" 
d="M74 134v491q0 12 11 13l57 7q12 1 12 -11v-134h115q9 0 11.5 -2t3.5 -10l5 -36q1 -8 -2 -10.5t-11 -2.5h-122v-305q0 -45 15 -58t63 -13q13 0 30.5 2t20.5 2q12 0 11 -13l-5 -38q-2 -15 -14 -17q-25 -5 -54 -5q-75 0 -111 28.5t-36 111.5zM146 -263h-47q-15 0 -7 14
q44 74 44 164v12q0 8 3 11t11 3h52q13 0 13 -14v-10q0 -99 -48 -167q-8 -13 -21 -13z" />
    <glyph glyph-name="yacute.1" horiz-adv-x="435" 
d="M129 -208l35 103l37 105h-16q-14 0 -17 14l-146 469q-4 12 11 14l54 6q11 1 15 -11l79 -268q28 -99 40 -154h3q13 62 38 153l73 268q4 13 17 12l50 -6q15 -1 10 -16l-205 -699q-4 -12 -17 -11l-51 5q-14 1 -10 16zM335 737l-72 -138q-7 -12 -20 -12h-44q-16 0 -10 14
l60 137q5 13 19 13h57q16 0 10 -14z" />
    <glyph glyph-name="ycircumflex.1" horiz-adv-x="435" 
d="M129 -208l35 103l37 105h-16q-14 0 -17 14l-146 469q-4 12 11 14l54 6q11 1 15 -11l79 -268q28 -99 40 -154h3q13 62 38 153l73 268q4 13 17 12l50 -6q15 -1 10 -16l-205 -699q-4 -12 -17 -11l-51 5q-14 1 -10 16zM91 604l101 118q8 10 21 10h18q13 0 21 -10l101 -118
q10 -12 -7 -12h-46q-12 0 -21 10l-59 70l-60 -70q-10 -10 -22 -10h-41q-7 0 -9 4t3 8z" />
    <glyph glyph-name="ydieresis.1" horiz-adv-x="435" 
d="M129 -208l35 103l37 105h-16q-14 0 -17 14l-146 469q-4 12 11 14l54 6q11 1 15 -11l79 -268q28 -99 40 -154h3q13 62 38 153l73 268q4 13 17 12l50 -6q15 -1 10 -16l-205 -699q-4 -12 -17 -11l-51 5q-14 1 -10 16zM177 670v-66q0 -8 -2.5 -11t-10.5 -3h-60q-8 0 -11 3
t-3 11v66q0 8 3 11t11 3h60q8 0 10.5 -3t2.5 -11zM353 670v-66q0 -8 -2.5 -11t-10.5 -3h-60q-8 0 -11 3t-3 11v66q0 8 3 11t11 3h60q8 0 10.5 -3t2.5 -11z" />
    <glyph glyph-name="scedilla.alt" horiz-adv-x="432" 
d="M189 -176h-39q-15 0 -7 14q42 69 45 153q-84 3 -116 17q-13 5 -15 21l-4 38q-1 8 2.5 11t11.5 1q65 -19 139 -19h4q52 0 75 14t23 57v11q0 38 -16.5 54.5t-65.5 26.5l-33 7q-76 16 -106.5 43.5t-30.5 88.5v18q0 129 157 129h3q73 0 117 -14q15 -5 16 -15l3 -39
q1 -7 -1.5 -10t-9.5 -2q-60 15 -115 15h-5q-44 0 -65.5 -13.5t-21.5 -49.5v-11q0 -29 16 -45t66 -27l37 -8q70 -15 101.5 -43.5t31.5 -96.5v-22q0 -70 -33 -99.5t-95 -35.5q-2 -87 -48 -156q-9 -13 -21 -13z" />
    <glyph glyph-name="ccedilla.alt" horiz-adv-x="405" 
d="M210 -178h-39q-15 0 -7 14q44 73 45 156q-67 7 -104 43.5t-37 116.5v196q0 161 173 161h3q64 0 101 -12q15 -4 16 -16l4 -38q1 -8 -1.5 -11t-10.5 -2q-56 14 -105 14h-3q-97 0 -97 -97v-189q0 -52 23.5 -75t74.5 -23h3q49 0 107 14q8 2 11 -1.5t2 -10.5l-4 -40
q-1 -12 -15 -18q-25 -8 -71 -11q-2 -89 -48 -158q-9 -13 -21 -13z" />
    </font>
</defs>
</svg>
