<?xml version="1.0" standalone="no"?>
<!DOCTYPE svg PUBLIC "-//W3C//DTD SVG 1.1//EN" "http://www.w3.org/Graphics/SVG/1.1/DTD/svg11.dtd" >
<svg>
<metadata>
Created by FontForge 20090622 at Fri Oct 14 17:18:03 2016
 By deploy user
Copyright (c) 2016 by Ralf Sander and Petra Niedernolte. Published by Buntype. All rights reserved. This is not free font software nor open source! This font software may not be reproduced, modified, disclosed or transferred without the express written approval of Buntype, Germany. Bunuelo Clean Pro Bold is a trademark of Ralf Sander and Petra Niedernolte and may be registered in certain jurisdictions in the name of Buntype. This typeface is original artwork of Ralf Sander and Petra Niedernolte. The design may be protected in certain jurisdictions.
</metadata>
<defs>
<font id="BunueloCleanPro-Bold" horiz-adv-x="555" >
  <font-face 
    font-family="BunueloCleanPro-Bold"
    font-weight="400"
    font-stretch="semi-condensed"
    units-per-em="1000"
    panose-1="2 0 7 3 4 0 0 2 0 4"
    ascent="758"
    descent="-242"
    x-height="503"
    cap-height="697"
    bbox="-282 -280 1284 956"
    underline-thickness="64"
    underline-position="-53"
    unicode-range="U+0020-U+FB04"
  />
<missing-glyph horiz-adv-x="511" 
d="M6 0v700h500v-700h-500zM256 395l170 255h-340zM456 95v510l-170 -255zM56 95l170 255l-170 255v-510zM86 50h340l-170 255z" />
    <glyph glyph-name="f_f" unicode="ff" horiz-adv-x="634" 
d="M84 25v383h-45q-24 0 -24 24v46q0 25 24 25h45v54q0 48 15 82t42 51.5t56 25t63 7.5q35 0 57 -6q14 -3 18 -8t5 -18l4 -48q2 -14 -3.5 -19t-19.5 -3q-19 4 -44 4q-60 0 -60 -61v-61h166v59q0 166 187 166q40 0 55 -6q14 -3 18.5 -8t5.5 -18l4 -49q1 -14 -4 -19t-20 -4
q-28 5 -52 5q-61 0 -61 -61v-65h85q26 0 23 -25l-6 -47q-2 -13 -8 -18t-20 -5h-74v-383q0 -25 -25 -25h-83q-25 0 -25 25v383h-166v-383q0 -25 -25 -25h-83q-25 0 -25 25z" />
    <glyph glyph-name="f_f_i" unicode="ffi" horiz-adv-x="878" 
d="M84 25v383h-45q-24 0 -24 24v46q0 25 24 25h45v55q0 48 15 82t42 51.5t56 25t63 7.5q35 0 60 -7q13 -3 18 -8.5t6 -18.5l4 -47q2 -14 -3 -19.5t-19 -2.5q-28 5 -50 5q-59 0 -59 -59v-64h166v58q0 167 187 167q87 0 132 -15q14 -4 19 -9t6 -18l4 -48q2 -28 -24 -23
q-66 14 -127 14q-33 0 -48.5 -14t-15.5 -48v-64h275q25 0 25 -25v-453q0 -25 -25 -25h-85q-24 0 -24 25v383h-166v-383q0 -25 -25 -25h-83q-25 0 -25 25v383h-166v-383q0 -25 -25 -25h-83q-25 0 -25 25z" />
    <glyph glyph-name="f_f_l" unicode="ffl" horiz-adv-x="916" 
d="M816 681v-533q0 -30 8 -39t34 -9q5 0 16 1t15 1q12 0 16 -4t3 -18l-7 -56q-1 -13 -6.5 -18.5t-19.5 -7.5q-20 -4 -50 -4q-74 0 -108.5 31t-34.5 120v478q-47 6 -106 6q-60 0 -60 -60v-66h65q26 0 23 -25l-6 -47q-1 -13 -7.5 -18t-20.5 -5h-54v-383q0 -25 -25 -25h-83
q-25 0 -25 25v383h-166v-383q0 -25 -25 -25h-83q-25 0 -25 25v383h-45q-24 0 -24 24v46q0 25 24 25h45v55q0 47 15 81.5t41.5 52t56 25.5t63.5 8q30 0 55 -5q14 -4 18 -9t5 -18l4 -48q2 -13 -3.5 -18.5t-19.5 -3.5q-17 3 -43 3q-59 0 -59 -60v-63h166v59q0 93 50.5 129.5
t138.5 36.5q128 0 219 -20q14 -3 19.5 -8.5t5.5 -18.5z" />
    <glyph glyph-name="f_j" unicode="fj" horiz-adv-x="580" 
d="M265 -195l-5 56q-2 14 3.5 19t20.5 4q28 -3 38 -3q29 0 45 10t16 41v476h-166v-383q0 -25 -25 -25h-83q-25 0 -25 25v383h-45q-24 0 -24 24v46q0 25 24 25h45v59q0 166 187 166q80 0 131 -14q14 -5 18.5 -10t5.5 -18l4 -48q2 -27 -24 -23q-63 14 -118 14
q-38 0 -54.5 -13.5t-16.5 -46.5v-66h275q14 0 19.5 -5.5t5.5 -19.5v-545q0 -92 -48 -126t-128 -34q-31 0 -53 5q-13 2 -17.5 7.5t-5.5 19.5z" />
    <glyph glyph-name="f_f_j" unicode="ffj" horiz-adv-x="878" 
d="M84 25v383h-45q-24 0 -24 24v46q0 25 24 25h45v55q0 48 15 82t42 51.5t56 25t63 7.5q33 0 60 -6q22 -6 24 -28l4 -48q2 -13 -3 -18.5t-19 -2.5q-22 5 -48 5q-61 0 -61 -60v-63h166v59q0 166 187 166q83 0 132 -14q14 -4 18 -9t6 -18l4 -49q2 -13 -3.5 -18.5t-19.5 -3.5
q-80 13 -126 13q-65 0 -65 -61v-65h275q24 0 24 -25v-546q0 -48 -14 -81t-40.5 -49t-55 -22.5t-66.5 -6.5q-30 0 -53 5q-12 2 -16.5 7.5t-6.5 19.5l-5 55q-2 14 3.5 19.5t20.5 4.5q28 -3 38 -3q19 0 30.5 2.5t21 14t9.5 33.5v477h-165v-383q0 -25 -25 -25h-83q-25 0 -25 25
v383h-166v-383q0 -25 -25 -25h-83q-25 0 -25 25z" />
    <glyph glyph-name="f_b" unicode="fb" horiz-adv-x="837" 
d="M84 25v383h-45q-24 0 -24 24v46q0 25 24 25h45v59q0 93 50.5 129.5t138.5 36.5q123 0 218 -19q14 -3 19.5 -8.5t5.5 -18.5v-107l-4 -81q37 21 98 21h2q171 0 171 -164v-196q0 -93 -52.5 -130t-144.5 -37h-10q-93 0 -143 33.5t-50 124.5v477q-52 6 -105 6q-32 0 -46.5 -14
t-14.5 -48v-64h66q26 0 22 -25l-6 -47q-1 -13 -7.5 -18t-20.5 -5h-54v-383q0 -13 -6 -18.5t-13 -6t-27 -0.5h-62q-25 0 -25 25zM579 94h5q34 0 50.5 14.5t16.5 49.5v194q0 35 -15.5 49.5t-47.5 14.5h-4q-35 0 -51.5 -14.5t-16.5 -49.5v-195q0 -35 15 -49t48 -14z" />
    <glyph glyph-name="f_h" unicode="fh" horiz-adv-x="836" 
d="M84 25v383h-45q-24 0 -24 24v46q0 25 24 25h45v59q0 93 50.5 129.5t138.5 36.5q127 0 218 -20q14 -3 19.5 -8.5t6.5 -18.5v-108l-3 -80q29 22 89 22h4q172 0 172 -166v-324q0 -25 -25 -25h-85q-24 0 -24 25v329q0 35 -14 48.5t-47 13.5h-3q-33 0 -48.5 -14t-15.5 -49
v-328q0 -25 -25 -25h-84q-25 0 -25 25v598q-55 6 -105 6q-32 0 -46.5 -13.5t-14.5 -46.5v-66h66q26 0 22 -25l-6 -47q-1 -13 -7.5 -18t-20.5 -5h-54v-383q0 -25 -25 -25h-83q-25 0 -25 25z" />
    <glyph glyph-name="f_k" unicode="fk" horiz-adv-x="826" 
d="M84 25v383h-45q-24 0 -24 24v46q0 25 24 25h45v59q0 93 49 129.5t142 36.5q121 0 219 -22q23 -5 23 -27v-348q13 0 20 -2l113 160q9 12 15 15.5t19 2.5l90 -8q30 -4 13 -28l-136 -176q28 -19 58 -77l99 -183q11 -23 -14 -26l-88 -12q-25 -4 -36 20l-85 174
q-14 29 -27 36.5t-41 8.5v-211q0 -25 -25 -25h-84q-25 0 -25 25v598q-60 6 -105 6q-31 0 -46 -14t-15 -47v-65h66q26 0 22 -25l-6 -47q-1 -13 -7.5 -18t-20.5 -5h-54v-383q0 -25 -25 -25h-83q-25 0 -25 25z" />
    <glyph glyph-name="f_t" unicode="ft" horiz-adv-x="668" 
d="M84 25v383h-45q-24 0 -24 24v46q0 25 24 25h45v59q0 166 183 166q28 0 50 -4q13 -3 17.5 -8t6.5 -19l4 -49q2 -14 -3.5 -19t-20.5 -3q-24 3 -43 3q-61 0 -61 -60v-66h166v106q0 24 24 25l85 8q14 2 19 -3t5 -19v-117h91q25 0 26 -24l5 -47q1 -14 -4 -19t-20 -5h-98v-261
q0 -30 9.5 -38.5t41.5 -8.5q12 0 31 2t26 2q11 2 16 -2.5t4 -15.5l-6 -57q-3 -24 -24 -29q-36 -6 -70 -6q-86 0 -123.5 31t-37.5 122v261h-166v-383q0 -25 -25 -25h-83q-25 0 -25 25z" />
    <glyph glyph-name="f_i" unicode="fi" horiz-adv-x="582" 
d="M84 25v383h-45q-24 0 -24 24v46q0 25 24 25h45v61q0 164 187 164q89 0 134 -15q13 -4 17.5 -9t6.5 -18l4 -49q2 -13 -3.5 -19.5t-19.5 -2.5q-65 14 -128 14q-65 0 -65 -60v-66h275q25 0 25 -25v-453q0 -25 -25 -25h-84q-25 0 -25 25v383h-166v-383q0 -25 -25 -25h-83
q-25 0 -25 25z" />
    <glyph glyph-name="f_l" unicode="fl" horiz-adv-x="617" 
d="M383 623q-55 6 -105 6q-61 0 -61 -59v-67h66q26 0 22 -25l-6 -47q-1 -13 -7.5 -18t-20.5 -5h-54v-383q0 -25 -25 -25h-83q-25 0 -25 25v383h-45q-24 0 -24 24v46q0 25 24 25h45v59q0 93 50.5 129.5t138.5 36.5q131 0 220 -20q13 -3 18.5 -9t5.5 -18v-533q0 -30 8 -39
t34 -9q4 0 15.5 1t14.5 1q12 0 16.5 -4t2.5 -18l-6 -56q-1 -13 -6.5 -18.5t-19.5 -7.5q-20 -4 -50 -4q-74 0 -108.5 31t-34.5 120v478z" />
    <glyph glyph-name=".notdef" horiz-adv-x="511" 
d="M6 0v700h500v-700h-500zM256 395l170 255h-340zM456 95v510l-170 -255zM56 95l170 255l-170 255v-510zM86 50h340l-170 255z" />
    <glyph glyph-name=".null" horiz-adv-x="0" 
 />
    <glyph glyph-name="nonmarkingreturn" horiz-adv-x="333" 
 />
    <glyph glyph-name="space" unicode=" " horiz-adv-x="230" 
 />
    <glyph glyph-name="exclam" unicode="!" horiz-adv-x="264" 
d="M64 233v439q0 14 5.5 19.5t19.5 5.5h86q14 0 19 -5.5t5 -19.5v-439q0 -13 -5.5 -18.5t-18.5 -5.5h-86q-14 0 -19.5 5t-5.5 19zM64 25v65q0 14 5.5 19.5t19.5 5.5h86q24 0 24 -25v-65q0 -14 -5 -19.5t-19 -5.5h-86q-14 0 -19.5 5.5t-5.5 19.5z" />
    <glyph glyph-name="quotedbl" unicode="&#x22;" horiz-adv-x="437" 
d="M255 476v222q0 14 5 19.5t19 5.5h71q13 0 18.5 -5.5t5.5 -19.5v-222q0 -25 -24 -25h-71q-24 0 -24 25zM63 476v222q0 14 5 19.5t19 5.5h70q14 0 19.5 -5.5t5.5 -19.5v-222q0 -14 -5.5 -19.5t-19.5 -5.5h-70q-24 0 -24 25z" />
    <glyph glyph-name="numbersign" unicode="#" horiz-adv-x="790" 
d="M81 165v38q0 25 24 25h142v122h-142q-24 0 -24 25v36q0 13 5.5 18.5t18.5 5.5h142v134q0 25 24 25h37q25 0 25 -25v-134h132v134q0 25 24 25h38q24 0 24 -25v-134h133q25 0 25 -24v-36q0 -25 -25 -25h-133v-122h133q25 0 25 -25v-38q0 -24 -25 -24h-133v-120
q0 -25 -24 -25h-38q-24 0 -24 25v120h-132v-120q0 -25 -25 -25h-37q-24 0 -24 25v120h-142q-13 0 -18.5 5.5t-5.5 18.5zM333 228h132v122h-132v-122z" />
    <glyph glyph-name="dollar" unicode="$" 
d="M89 56l-6 60q-2 14 3 19t19 3q73 -14 145 -14q49 0 70.5 18t21.5 59v23q0 39 -15.5 56t-51.5 24l-21 5q-46 10 -72 19t-51 28t-35.5 51.5t-10.5 81.5v26q0 82 37.5 122.5t114.5 49.5v76q0 14 5.5 19.5t19.5 5.5h27q25 0 25 -25v-74q52 -1 89 -11q14 -3 19 -9.5t7 -20.5
l6 -53q2 -14 -3 -18t-18 -1q-62 11 -110 11q-45 0 -66 -16.5t-21 -56.5v-24q0 -34 15 -49t49 -22l20 -4q94 -20 133 -57.5t39 -130.5v-34q0 -89 -39 -130t-120 -49v-75q0 -14 -5.5 -19.5t-19.5 -5.5h-27q-25 0 -25 25v74q-68 1 -123 14q-14 4 -19 10t-6 19z" />
    <glyph glyph-name="percent" unicode="%" horiz-adv-x="939" 
d="M260 1l324 695q10 22 33 22h46q26 0 15 -23l-323 -695q-11 -22 -33 -22h-46q-14 0 -17.5 5t1.5 18zM44 383v197q0 123 160 123h2q156 0 156 -124v-196q0 -124 -160 -124h-2q-156 0 -156 124zM197 343h10q46 0 46 44v193q0 43 -45 43h-8q-47 0 -47 -43v-193q0 -44 44 -44z
M577 118v197q0 123 160 123h1q156 0 156 -124v-196q0 -124 -159 -124h-2q-156 0 -156 124zM730 78h9q47 0 47 43v194q0 43 -45 43h-8q-48 0 -48 -43v-194q0 -43 45 -43z" />
    <glyph glyph-name="ampersand" unicode="&#x26;" horiz-adv-x="677" 
d="M48 174v33q0 125 98 172l23 12l-4 3q-31 32 -43 64.5t-12 82.5v15q0 80 50.5 116.5t125.5 36.5h15q74 0 123 -36t49 -115v-27q0 -110 -86 -154l-25 -12l108 -115l56 75q16 21 36 1l48 -45q17 -16 1 -37l-57 -76l90 -96q19 -19 -4 -33l-52 -35q-26 -17 -44 2l-65 69
l-13 -14q-35 -42 -80.5 -57.5t-117.5 -15.5q-115 0 -167.5 45t-52.5 141zM284 442l24 12q27 13 35 32t8 50v23q0 57 -56 57h-4q-58 0 -58 -58v-19q0 -45 26 -71zM178 207v-35q0 -79 92 -79q78 0 116 52l9 12l-147 156l-15 -7q-34 -16 -44.5 -39.5t-10.5 -59.5z" />
    <glyph glyph-name="quotesingle" unicode="'" horiz-adv-x="247" 
d="M63 476v222q0 14 5 19.5t19 5.5h73q14 0 19.5 -5.5t5.5 -19.5v-222q0 -14 -5.5 -19.5t-19.5 -5.5h-73q-24 0 -24 25z" />
    <glyph glyph-name="parenleft" unicode="(" horiz-adv-x="393" 
d="M308 -27h-90q-15 0 -22 6t-13 17q-106 170 -106 352q0 184 106 354l3 4q2 5 2.5 5.5t3 4t4 4t5 2t7 2t8.5 0.5h93q14 0 17 -8t-3 -15q-118 -177 -118 -352q0 -169 116 -352q14 -24 -13 -24z" />
    <glyph glyph-name="parenright" unicode=")" horiz-adv-x="388" 
d="M170 -27h-89q-28 0 -14 24q117 186 117 352q0 173 -119 352q-6 7 -3 15t17 8h93q11 0 18 -3.5t9 -6.5t7 -12q105 -171 105 -354t-105 -352q-5 -8 -7.5 -11.5t-10 -7.5t-18.5 -4z" />
    <glyph glyph-name="asterisk" unicode="*" horiz-adv-x="523" 
d="M153 331l-27 19q-21 14 -5 33l77 97l-124 35q-23 7 -15 30l10 31q9 22 32 14l120 -38l-2 120q0 14 5 19.5t18 5.5h35q14 0 19.5 -5.5t5.5 -19.5l-2 -120l120 39q24 8 32 -14l10 -32q8 -23 -15 -30l-123 -35l78 -97q15 -19 -5 -33l-28 -19q-12 -8 -19.5 -7t-15.5 13
l-73 98l-73 -98q-14 -21 -35 -6z" />
    <glyph glyph-name="plus" unicode="+" 
d="M224 127v135h-137q-25 0 -25 24v54q0 14 5.5 19.5t19.5 5.5h137v135q0 25 24 25h57q24 0 24 -25v-135h138q25 0 25 -25v-54q0 -24 -25 -24h-138v-135q0 -14 -5 -19.5t-19 -5.5h-57q-14 0 -19 5.5t-5 19.5z" />
    <glyph glyph-name="comma" unicode="," horiz-adv-x="261" 
d="M120 -105h-68q-27 0 -13 28q40 73 40 164v9q0 14 5 19.5t19 5.5h76q14 0 19 -5.5t5 -19.5v-9q0 -97 -43 -168q-15 -24 -40 -24z" />
    <glyph glyph-name="hyphen" unicode="-" horiz-adv-x="366" 
d="M33 258v56q0 14 5 19.5t19 5.5h252q14 0 19.5 -5.5t5.5 -19.5v-56q0 -25 -25 -25h-252q-14 0 -19 5.5t-5 19.5z" />
    <glyph glyph-name="period" unicode="." horiz-adv-x="265" 
d="M61 25v71q0 14 5 19.5t19 5.5h95q14 0 19 -5.5t5 -19.5v-71q0 -14 -5 -19.5t-19 -5.5h-95q-14 0 -19 5.5t-5 19.5z" />
    <glyph glyph-name="slash" unicode="/" horiz-adv-x="395" 
d="M34 24l208 649q5 14 11 19t20 5h66q27 0 19 -24l-209 -649q-5 -14 -10.5 -19t-19.5 -5h-66q-26 0 -19 24z" />
    <glyph glyph-name="zero" unicode="0" horiz-adv-x="554" 
d="M58 176v345q0 99 56.5 143.5t163.5 44.5h3q107 0 161 -44t54 -144v-345q0 -100 -56.5 -144t-163.5 -44h-4q-106 0 -160 44t-54 144zM272 100h6q43 0 63 18t20 59v349q0 42 -18 59.5t-61 17.5h-5q-44 0 -64 -18t-20 -59v-349q0 -42 18 -59.5t61 -17.5z" />
    <glyph glyph-name="one" unicode="1" horiz-adv-x="345" 
d="M147 25v537l-75 -33q-28 -13 -35 11l-16 53q-8 27 13 37l124 57q23 10 40 10h59q24 0 24 -25v-647q0 -25 -24 -25h-86q-24 0 -24 25z" />
    <glyph glyph-name="two" unicode="2" horiz-adv-x="532" 
d="M54 25v203q0 50 10.5 82t36.5 51t54.5 28t79.5 18l33 6q41 7 58.5 23t17.5 58v23q0 50 -22.5 66.5t-70.5 16.5h-4q-64 0 -141 -17q-14 -3 -18.5 1.5t-3.5 19.5l6 56q2 13 8 19t18 10q63 17 138 17h3q113 0 166 -41t53 -144v-33q0 -51 -10.5 -84t-36 -51.5t-51.5 -27
t-75 -17.5l-39 -6q-42 -7 -58.5 -21.5t-16.5 -53.5v-115h268q25 0 22 -25l-7 -62q-2 -14 -7.5 -19.5t-19.5 -5.5h-366q-25 0 -25 25z" />
    <glyph glyph-name="three" unicode="3" horiz-adv-x="500" 
d="M45 36l-6 62q-2 14 2.5 18.5t19.5 2.5q85 -16 146 -16h6q57 0 78 17t21 71v31q0 50 -18.5 67.5t-64.5 17.5h-89q-14 0 -19.5 5.5t-5.5 19.5v59q0 24 25 24h77q49 0 68.5 17t19.5 63v26q0 45 -18.5 62t-67.5 17h-3q-70 0 -142 -14q-14 -2 -18.5 2t-3.5 19l6 56
q1 13 6.5 19t19.5 10q53 14 137 14h5q113 0 163.5 -42.5t50.5 -142.5v-27q0 -47 -20 -80t-53 -45q80 -24 80 -148v-36q0 -106 -52 -150t-170 -44h-6q-77 0 -148 16q-14 4 -19 9.5t-7 19.5z" />
    <glyph glyph-name="four" unicode="4" horiz-adv-x="518" 
d="M31 211l-9 54q-2 17 12 45l190 380q6 12 13.5 14t20.5 -3l76 -26q21 -6 10 -31l-94 -176l-93 -176h174v112q0 25 25 25h83q25 0 25 -24v-380q0 -25 -25 -25h-83q-25 0 -25 25v161h-276q-13 0 -17.5 5.5t-6.5 19.5z" />
    <glyph glyph-name="five" unicode="5" horiz-adv-x="505" 
d="M47 39l-7 63q-1 13 3.5 17.5t19.5 2.5q114 -19 164 -19q55 0 76.5 17t21.5 70v34q0 55 -19 73.5t-69 18.5h-157q-14 0 -19.5 5.5t-5.5 19.5v331q0 25 25 25h314q13 0 18 -5.5t7 -19.5l6 -55q1 -14 -4.5 -19.5t-19.5 -5.5h-214v-167h57q111 0 162 -45.5t51 -153.5v-43
q0 -107 -55.5 -149.5t-168.5 -42.5q-84 0 -160 19q-25 5 -26 29z" />
    <glyph glyph-name="six" unicode="6" horiz-adv-x="533" 
d="M58 172v350q0 99 52.5 141.5t156.5 42.5h4q82 0 139 -13q14 -4 19 -9.5t7 -18.5l6 -59q2 -13 -2.5 -17.5t-18.5 -1.5q-85 13 -135 13h-3q-50 0 -72.5 -17.5t-22.5 -60.5v-53l-1 -58q34 23 99 23h4q85 0 138 -45t53 -141v-76q0 -98 -53.5 -141t-157.5 -43h-6
q-102 0 -154 42.5t-52 141.5zM267 100h3q43 0 62 17t19 62v69q0 45 -16.5 62.5t-58.5 17.5h-6q-42 0 -61.5 -18t-19.5 -62v-69q0 -45 17.5 -62t60.5 -17z" />
    <glyph glyph-name="seven" unicode="7" horiz-adv-x="464" 
d="M50 27l251 564h-255q-28 0 -24 25l7 56q2 14 7 19.5t18 5.5h360q14 0 19 -5.5t5 -19.5v-52q0 -29 -8 -47l-238 -551q-5 -13 -12 -17.5t-22 -4.5h-91q-28 0 -17 27z" />
    <glyph glyph-name="eight" unicode="8" horiz-adv-x="552" 
d="M53 179v45q0 114 79 144q-64 31 -64 130v33q0 178 208 178h8q99 0 149 -42.5t50 -135.5v-33q0 -96 -63 -128q79 -28 79 -146v-45q0 -104 -53 -147.5t-168 -43.5h-8q-115 0 -166 43.5t-51 147.5zM272 415h4q43 0 61 18t18 61v33q0 43 -16.5 61t-59.5 18h-3
q-44 0 -61.5 -18t-17.5 -61v-33q0 -44 16.5 -61.5t58.5 -17.5zM271 96h7q48 0 68 17.5t20 69.5v43q0 49 -18.5 67.5t-66.5 18.5h-7q-49 0 -68.5 -19t-19.5 -68v-40q0 -53 18.5 -71t66.5 -18z" />
    <glyph glyph-name="nine" unicode="9" horiz-adv-x="533" 
d="M91 35l-7 60q-1 14 4 19.5t18 2.5q79 -14 139 -14h3q51 0 74 16.5t23 58.5v58l1 63q-32 -23 -98 -23h-6q-91 0 -140.5 44t-49.5 147v55q0 101 55 144t157 43h5q206 0 206 -182v-350q0 -103 -55 -144.5t-171 -41.5h-5q-72 0 -128 15q-14 4 -19 9.5t-6 19.5zM257 381h6
q43 0 62 17t19 61v67q0 45 -18 62.5t-60 17.5h-3q-43 0 -62 -17.5t-19 -62.5v-66q0 -45 17 -62t58 -17z" />
    <glyph glyph-name="colon" unicode=":" horiz-adv-x="265" 
d="M61 340v71q0 14 5 19.5t19 5.5h95q14 0 19 -5.5t5 -19.5v-71q0 -14 -5 -19.5t-19 -5.5h-95q-14 0 -19 5.5t-5 19.5zM61 25v71q0 14 5 19.5t19 5.5h95q14 0 19 -5.5t5 -19.5v-71q0 -14 -5 -19.5t-19 -5.5h-95q-14 0 -19 5.5t-5 19.5z" />
    <glyph glyph-name="semicolon" unicode=";" horiz-adv-x="274" 
d="M64 340v71q0 14 5.5 19.5t19.5 5.5h95q14 0 19 -5.5t5 -19.5v-71q0 -14 -5 -19.5t-19 -5.5h-95q-14 0 -19.5 5.5t-5.5 19.5zM125 -105h-68q-25 0 -13 28q40 73 40 164v9q0 14 5 19.5t19 5.5h76q14 0 19 -5.5t5 -19.5v-9q0 -102 -43 -168q-15 -24 -40 -24z" />
    <glyph glyph-name="less" unicode="&#x3c;" 
d="M97 275v76q0 25 21 38l318 217q21 14 21 -11v-83q0 -25 -20 -38l-235 -160l235 -162q20 -13 20 -38v-83q0 -14 -4.5 -17t-16.5 4l-318 219q-21 13 -21 38z" />
    <glyph glyph-name="equal" unicode="=" 
d="M73 185v54q0 24 25 24h359q14 0 19.5 -5t5.5 -19v-54q0 -24 -25 -24h-359q-14 0 -19.5 5t-5.5 19zM73 389v53q0 25 25 25h359q14 0 19.5 -5.5t5.5 -19.5v-53q0 -14 -5.5 -19.5t-19.5 -5.5h-359q-14 0 -19.5 5.5t-5.5 19.5z" />
    <glyph glyph-name="greater" unicode="&#x3e;" 
d="M97 30v84q0 24 21 38l234 161l-234 160q-21 13 -21 38v83q0 26 22 11l318 -216q20 -15 20 -38v-77q0 -25 -20 -38l-319 -218q-21 -14 -21 12z" />
    <glyph glyph-name="question" unicode="?" horiz-adv-x="445" 
d="M124 210v68q0 34 4 56.5t18 40.5t22.5 25t33.5 26q25 18 33.5 25t17 23.5t8.5 38.5v19q0 40 -20 54t-57 14q-61 0 -121 -10q-14 -2 -18.5 2t-2.5 18l6 56q1 23 25 28q48 12 116 12q101 0 153 -40t52 -135v-29q0 -36 -11.5 -62.5t-24 -39.5t-41.5 -35q-3 -3 -18 -13.5
t-18.5 -14.5l-12 -14t-11 -21t-2.5 -25v-67q0 -14 -5.5 -19t-18.5 -5h-83q-14 0 -19 5t-5 19zM124 25v65q0 25 24 25h83q24 0 24 -25v-65q0 -25 -24 -25h-83q-24 0 -24 25z" />
    <glyph glyph-name="at" unicode="@" horiz-adv-x="787" 
d="M600 131h3q30 0 41.5 13.5t11.5 56.5v230q0 58 -26 77.5t-95 19.5h-252q-91 0 -122 -17t-31 -80v-328q0 -77 19.5 -102.5t80.5 -25.5q33 0 75 6q8 1 11 -2.5t2 -13.5l-5 -35q-2 -13 -14 -18q-22 -9 -78 -9q-85 0 -126 42.5t-41 129.5v355q0 90 48 129.5t149 39.5h285
q102 0 149.5 -39t47.5 -130v-208q0 -97 -30.5 -130.5t-101.5 -33.5t-99 34q-38 -32 -108 -32h-10q-72 0 -110.5 28.5t-38.5 103.5v122q0 75 41 103.5t114 28.5h8q78 0 133 -19q17 -6 17 -27v-222q0 -47 52 -47zM463 191v178q-24 6 -70 6q-43 0 -59 -14t-16 -57v-112
q0 -33 16.5 -46t51.5 -13h6q36 0 53.5 12.5t17.5 45.5z" />
    <glyph glyph-name="A" unicode="A" horiz-adv-x="524" 
d="M484 4l-86 -9q-13 -1 -18.5 2.5t-7.5 17.5l-29 142h-168l-27 -143q-4 -22 -27 -19l-82 9q-14 2 -18.5 7t-2.5 18l138 643q2 14 8.5 19.5t20.5 5.5h154q25 0 29 -25l137 -643q3 -13 -2 -18t-19 -7zM329 254l-67 338h-4l-69 -338h140z" />
    <glyph glyph-name="B" unicode="B" horiz-adv-x="546" 
d="M279 0h-189q-25 0 -25 25v647q0 25 25 25h166q121 0 171.5 -41.5t50.5 -143.5v-15q0 -95 -63 -124q90 -31 90 -152v-32q0 -105 -52.5 -147t-173.5 -42zM348 491v28q0 44 -19 60t-69 16h-62v-182h62q49 0 68.5 16.5t19.5 61.5zM375 190v36q0 48 -20 66t-73 18h-84v-200h86
q50 0 70.5 16.5t20.5 63.5z" />
    <glyph glyph-name="C" unicode="C" horiz-adv-x="474" 
d="M58 180v337q0 100 56 144.5t166 44.5q60 0 122 -13q13 -3 18 -8.5t7 -19.5l6 -57q2 -13 -3 -17.5t-18 -2.5q-75 12 -125 12q-49 0 -71.5 -19t-22.5 -64v-331q0 -46 20 -64.5t70 -18.5q71 0 132 13q14 3 19.5 -2t3.5 -18l-6 -61q-3 -24 -25 -29q-57 -15 -132 -15
q-109 0 -163 44t-54 145z" />
    <glyph glyph-name="D" unicode="D" horiz-adv-x="552" 
d="M261 0h-171q-25 0 -25 25v647q0 25 25 25h177q117 0 172 -44.5t55 -145.5v-316q0 -100 -57.5 -145.5t-175.5 -45.5zM362 192v318q0 43 -20.5 62t-68.5 19h-73v-479h67q50 0 72.5 19t22.5 61z" />
    <glyph glyph-name="E" unicode="E" horiz-adv-x="497" 
d="M65 25v647q0 14 5.5 19.5t19.5 5.5h328q14 0 20 -5t8 -18l7 -58q3 -25 -24 -25h-229v-176h176q25 0 25 -24v-58q0 -24 -25 -24h-176v-197h237q28 0 24 -25l-10 -64q-1 -13 -7.5 -18t-20.5 -5h-333q-25 0 -25 25z" />
    <glyph glyph-name="F" unicode="F" horiz-adv-x="471" 
d="M65 25v647q0 25 25 25h328q14 0 19.5 -5t7.5 -18l7 -58q3 -25 -24 -25h-228v-194h170q15 0 20 -5t4 -19l-7 -59q-1 -24 -26 -24h-161v-265q0 -25 -25 -25h-85q-25 0 -25 25z" />
    <glyph glyph-name="G" unicode="G" horiz-adv-x="544" 
d="M58 180v337q0 100 57 144.5t172 44.5q39 0 76 -4t55 -8l17 -3q14 -4 19 -9.5t6 -19.5l7 -56q1 -13 -3.5 -17t-19.5 -2q-71 13 -156 13h-3q-51 0 -72.5 -20t-21.5 -68v-323q0 -48 19.5 -67t70.5 -19h2q27 0 47.5 1.5t27.5 3.5l7 1v187h-50q-14 0 -19.5 5.5t-5.5 19.5v54
q0 14 5.5 19.5t19.5 5.5h149q24 0 24 -25v-327q0 -22 -24 -32q-58 -25 -182 -25q-114 0 -169 44t-55 145z" />
    <glyph glyph-name="H" unicode="H" horiz-adv-x="578" 
d="M65 25v647q0 25 25 25h85q25 0 25 -25v-256h178v256q0 25 25 25h85q25 0 25 -25v-647q0 -25 -25 -25h-85q-25 0 -25 25v282h-178v-282q0 -25 -25 -25h-85q-25 0 -25 25z" />
    <glyph glyph-name="I" unicode="I" horiz-adv-x="265" 
d="M65 25v647q0 25 25 25h85q25 0 25 -25v-647q0 -25 -25 -25h-85q-25 0 -25 25z" />
    <glyph glyph-name="J" unicode="J" horiz-adv-x="408" 
d="M24 28l-6 61q-2 13 3.5 18.5t18.5 2.5q39 -7 81 -7q51 0 71 18.5t20 61.5v489q0 25 25 25h86q24 0 24 -25v-491q0 -101 -53 -145.5t-159 -44.5q-52 0 -86 8q-24 7 -25 29z" />
    <glyph glyph-name="K" unicode="K" horiz-adv-x="540" 
d="M65 25v647q0 25 25 25h85q25 0 25 -25v-268q11 0 35 -4l133 278q9 24 34 21l85 -8q23 -1 13 -26l-153 -304q40 -29 77 -121l96 -201q11 -26 -14 -29l-89 -13q-25 -4 -32 21l-82 186q-27 65 -45.5 81t-57.5 17v-277q0 -25 -25 -25h-85q-25 0 -25 25z" />
    <glyph glyph-name="L" unicode="L" horiz-adv-x="441" 
d="M65 25v647q0 25 25 25h85q25 0 25 -25v-560h194q16 0 21 -4.5t4 -18.5l-8 -64q-1 -25 -27 -25h-294q-25 0 -25 25z" />
    <glyph glyph-name="M" unicode="M" horiz-adv-x="706" 
d="M65 25v647q0 25 25 25h103q23 0 32 -23l80 -186l49 -123h4q15 43 47 120l78 189q9 23 32 23h102q24 0 24 -25v-647q0 -25 -24 -25h-80q-24 0 -24 25v195q0 201 8 287h-4q-21 -59 -49 -118l-76 -169q-11 -21 -30 -21h-15q-19 0 -30 21l-76 167q-32 66 -52 120h-4
q9 -95 9 -286v-196q0 -14 -5.5 -19.5t-19.5 -5.5h-79q-25 0 -25 25z" />
    <glyph glyph-name="N" unicode="N" horiz-adv-x="581" 
d="M65 25v647q0 25 25 25h89q22 0 31 -23l125 -299q51 -122 63 -165h4q-11 110 -11 297v165q0 25 24 25h77q24 0 24 -25v-647q0 -25 -25 -25h-89q-21 0 -31 23l-122 293q-53 120 -66 170h-4q11 -116 11 -308v-153q0 -25 -24 -25h-76q-25 0 -25 25z" />
    <glyph glyph-name="O" unicode="O" horiz-adv-x="577" 
d="M58 177v343q0 100 57.5 144.5t172.5 44.5h6q114 0 170 -45t56 -144v-343q0 -100 -58 -144.5t-173 -44.5h-6q-115 0 -170 44t-55 145zM283 100h6q50 0 73 20t23 63v336q0 44 -21.5 64t-70.5 20h-5q-50 0 -72.5 -20.5t-22.5 -63.5v-336q0 -44 20.5 -63.5t69.5 -19.5z" />
    <glyph glyph-name="P" unicode="P" horiz-adv-x="534" 
d="M65 25v647q0 25 25 25h179q121 0 171 -42.5t50 -153.5v-42q0 -112 -51.5 -155.5t-174.5 -43.5h-64v-235q0 -25 -25 -25h-85q-25 0 -25 25zM200 367h67q51 0 71 16.5t20 66.5v56q0 54 -19 71t-73 17h-66v-227z" />
    <glyph glyph-name="Q" unicode="Q" horiz-adv-x="577" 
d="M58 177v343q0 100 57 144.5t172 44.5h7q113 0 168 -45t55 -144v-343q0 -139 -120 -176q0 -32 14 -43.5t45 -11.5q24 0 60 6q13 2 18.5 -3.5t3.5 -19.5l-7 -44q-4 -22 -21 -28q-29 -9 -78 -9q-146 0 -157 141h-23q-94 6 -144 49t-50 139zM281 100h6q50 0 72.5 19t22.5 61
v344q0 42 -20 60.5t-69 18.5h-7q-49 0 -71 -19t-22 -60v-344q0 -42 20 -61t68 -19z" />
    <glyph glyph-name="R" unicode="R" horiz-adv-x="540" 
d="M65 25v647q0 25 25 25h178q121 0 171 -42t50 -153v-26q0 -62 -22.5 -99t-69.5 -60q28 -20 59 -101l64 -187q8 -22 -17 -25l-87 -8q-24 -3 -31 22l-58 186q-13 43 -28 56t-57 13h-42v-248q0 -25 -25 -25h-85q-25 0 -25 25zM200 376h67q51 0 71 16.5t20 66.5v49
q0 52 -19 69t-73 17h-66v-218z" />
    <glyph glyph-name="S" unicode="S" horiz-adv-x="498" 
d="M52 37l-7 63q-1 13 4 17.5t20 2.5q96 -17 151 -17q57 0 79 17.5t22 68.5v22q0 49 -16.5 68t-64.5 30l-17 4q-47 10 -74 20t-53 29.5t-37 52.5t-11 83v25q0 101 52 142t158 41q67 0 123 -14q14 -4 19 -10t6 -19l6 -56q2 -13 -2.5 -18t-18.5 -2q-61 13 -123 13
q-45 0 -66.5 -17t-21.5 -62v-16q0 -40 16.5 -57t62.5 -27l16 -4q51 -11 79.5 -22t53.5 -32t35 -55.5t10 -87.5v-33q0 -110 -51.5 -153t-171.5 -43q-88 0 -154 17q-23 6 -24 29z" />
    <glyph glyph-name="T" unicode="T" horiz-adv-x="467" 
d="M165 25v566h-129q-14 0 -19 5.5t-4 19.5l5 56q2 14 7.5 19.5t18.5 5.5h377q13 0 18 -5.5t7 -19.5l6 -56q3 -25 -23 -25h-129v-561q0 -17 -5 -23.5t-19 -6.5h-86q-25 0 -25 25z" />
    <glyph glyph-name="U" unicode="U" horiz-adv-x="562" 
d="M61 176v496q0 25 25 25h85q25 0 25 -25v-493q0 -42 19 -60.5t64 -18.5t66 18.5t21 60.5v493q0 25 25 25h85q25 0 25 -25v-496q0 -188 -221 -188h-5q-106 0 -160 44t-54 144z" />
    <glyph glyph-name="V" unicode="V" horiz-adv-x="511" 
d="M159 24l-142 643q-5 24 19 26l89 8q13 1 18.5 -4t7.5 -19l69 -338q23 -118 34 -213h6q13 98 35 211l68 340q3 15 8 19.5t19 3.5l84 -8q24 -3 20 -26l-143 -643q-5 -24 -30 -24h-132q-25 0 -30 24z" />
    <glyph glyph-name="W" unicode="W" horiz-adv-x="777" 
d="M129 25l-107 644q-4 25 22 26l79 5q13 1 18.5 -3.5t7.5 -21.5l55 -348q15 -110 20 -185h4q8 87 25 182l62 339q4 24 28 24h95q25 0 28 -24l63 -342q9 -54 24 -179h4q12 131 20 183l54 350q2 17 8 21.5t19 3.5l75 -5q25 -1 22 -25l-106 -645q-4 -25 -29 -25h-116
q-14 0 -20 5.5t-8 19.5l-57 311q-14 74 -28 196h-4q-8 -101 -28 -200l-57 -307q-2 -14 -8 -19.5t-20 -5.5h-117q-14 0 -20.5 5.5t-7.5 19.5z" />
    <glyph glyph-name="X" unicode="X" horiz-adv-x="500" 
d="M12 34l158 331l-147 298q-11 25 15 27l89 10q13 1 19 -2.5t11 -16.5l35 -79l19.5 -45l18 -42t13.5 -32t6 -16q5 21 59 137l34 76q9 23 32 20l85 -10q25 -3 15 -26l-148 -300l157 -330q12 -26 -15 -27l-88 -10q-23 -3 -31 20l-46 102q-11 24 -24 55.5l-22.5 54.5t-9.5 24
q-1 -1 -10 -22.5l-23 -55t-25 -57.5l-45 -101q-9 -23 -32 -20l-85 10q-26 1 -15 27z" />
    <glyph glyph-name="Y" unicode="Y" horiz-adv-x="502" 
d="M180 25v282l-174 357q-11 24 17 26l89 10q23 3 31 -20l71 -152l35 -84h2q12 32 36 84l72 153q6 13 12.5 16.5t19.5 2.5l87 -10q25 -1 15 -26l-177 -358v-281q0 -25 -25 -25h-86q-14 0 -19.5 5.5t-5.5 19.5z" />
    <glyph glyph-name="Z" unicode="Z" horiz-adv-x="496" 
d="M28 25v17q0 21 11 44l246 505h-215q-26 0 -23 24l7 58q2 14 8 19t19 5h344q14 0 19.5 -5.5t5.5 -19.5v-13q0 -21 -11 -44l-245 -503h247q26 0 23 -25l-8 -62q-3 -25 -28 -25h-375q-25 0 -25 25z" />
    <glyph glyph-name="bracketleft" unicode="[" horiz-adv-x="379" 
d="M98 -62v815q0 25 24 25h167q24 0 24 -25v-31q0 -25 -24 -25h-77v-700h77q24 0 24 -25v-34q0 -25 -24 -25h-167q-24 0 -24 25z" />
    <glyph glyph-name="backslash" unicode="\" horiz-adv-x="395" 
d="M243 24l-209 649q-4 13 0.5 18.5t18.5 5.5h67q13 0 19 -5t11 -19l208 -649q4 -13 0 -18.5t-19 -5.5h-66q-13 0 -19.5 5t-10.5 19z" />
    <glyph glyph-name="bracketright" unicode="]" horiz-adv-x="379" 
d="M66 -62v34q0 25 25 25h76v700h-76q-25 0 -25 25v31q0 25 25 25h166q24 0 24 -25v-815q0 -25 -24 -25h-166q-25 0 -25 25z" />
    <glyph glyph-name="asciicircum" unicode="^" horiz-adv-x="544" 
d="M42 399l162 280q11 18 32 18h69q22 0 32 -18l162 -280q13 -25 -16 -25h-56q-22 0 -36 25l-121 208l-123 -208q-14 -25 -36 -25h-52q-30 0 -17 25z" />
    <glyph glyph-name="underscore" unicode="_" horiz-adv-x="452" 
d="M-24 -137v34q0 13 5 18.5t19 5.5h452q14 0 19 -5.5t5 -18.5v-34q0 -14 -5 -19.5t-19 -5.5h-452q-14 0 -19 5.5t-5 19.5z" />
    <glyph glyph-name="grave" unicode="`" horiz-adv-x="277" 
d="M126 671l-79 130q-14 24 16 24h67q13 0 19.5 -4.5t11.5 -17.5l58 -130q5 -13 1.5 -18t-17.5 -5h-44q-13 0 -19.5 4.5t-13.5 16.5z" />
    <glyph glyph-name="a" unicode="a" horiz-adv-x="494" 
d="M39 141v19q0 83 49.5 114t146.5 37l72 3v35q0 36 -15.5 50.5t-50.5 14.5q-59 0 -131 -17q-28 -8 -26 20l4 48q3 23 26 29q56 18 133 18q90 0 140 -37.5t50 -131.5v-286q0 -25 -23 -35q-72 -31 -180 -31q-100 0 -147.5 32.5t-47.5 117.5zM168 162v-14q0 -31 16 -45t53 -14
q42 0 70 8v129q-45 -1 -70 -3q-37 -4 -53 -16t-16 -45z" />
    <glyph glyph-name="b" unicode="b" horiz-adv-x="512" 
d="M58 146v546q0 26 24 27l84 8q14 0 19 -4.5t5 -19.5v-132l-3 -78q36 22 97 22h3q171 0 171 -168v-192q0 -93 -52.5 -130t-144.5 -37h-9q-95 0 -144.5 33.5t-49.5 124.5zM253 94h6q67 0 67 64v194q0 35 -15 49.5t-48 14.5h-5q-34 0 -51 -14.5t-17 -49.5v-195q0 -35 15 -49
t48 -14z" />
    <glyph glyph-name="c" unicode="c" horiz-adv-x="411" 
d="M381 88l-5 -53q-1 -13 -6.5 -19.5t-19.5 -11.5q-45 -13 -113 -13h-4q-179 0 -179 169v183q0 169 180 169h5q60 0 108 -12q24 -5 25 -30l4 -45q1 -17 -4 -21t-21 -1q-55 10 -94 10h-5q-65 0 -65 -68v-181q0 -37 16 -52t50 -15h5q37 0 97 12q15 3 21 -1.5t5 -19.5z" />
    <glyph glyph-name="d" unicode="d" horiz-adv-x="513" 
d="M54 153v194q0 50 15.5 85t42.5 52t54.5 24t58.5 7h3q56 0 96 -22q-3 44 -3 80v130q0 14 5.5 19t19.5 5l83 -8q25 -1 25 -27v-542q0 -93 -51.5 -127.5t-146.5 -34.5h-9q-92 0 -142.5 36t-50.5 129zM249 94h6q33 0 49.5 14.5t16.5 49.5v194q0 64 -64 64h-4
q-34 0 -50.5 -14.5t-16.5 -49.5v-194q0 -36 15 -50t48 -14z" />
    <glyph glyph-name="e" unicode="e" horiz-adv-x="490" 
d="M54 159v187q0 91 51 130t151 39h9q94 0 139.5 -36.5t45.5 -113.5v-12q0 -78 -38 -108.5t-120 -30.5q-56 0 -109 12v-60q0 -43 19 -58.5t72 -15.5q65 0 135 19q12 4 18.5 -2t5.5 -19l-5 -48q-2 -15 -8.5 -21.5t-21.5 -11.5q-45 -18 -141 -18h-8q-93 0 -144 37t-51 131z
M183 357v-45q31 -11 84 -11q32 0 45 12.5t13 39.5v9q0 32 -14 45.5t-51 13.5h-5q-38 0 -55 -14.5t-17 -49.5z" />
    <glyph glyph-name="f" unicode="f" horiz-adv-x="335" 
d="M84 408h-45q-24 0 -24 24v46q0 25 24 25h45v59q0 166 181 166q42 0 62 -6q13 -4 17 -9t6 -17l4 -49q2 -27 -24 -23q-22 5 -52 5q-61 0 -61 -62v-64h85q14 0 19 -5.5t4 -19.5l-6 -47q-1 -13 -7.5 -18t-20.5 -5h-74v-383q0 -25 -25 -25h-83q-25 0 -25 25v383z" />
    <glyph glyph-name="g" unicode="g" horiz-adv-x="500" 
d="M23 -74v19q0 48 23.5 79.5t60.5 44.5q-45 22 -45 70v10q0 51 52 70q-61 35 -61 121v21q0 87 53 120.5t145 33.5h10q92 0 143 -33.5t51 -120.5v-21q0 -155 -200 -155q-16 0 -34 -2q-45 -6 -45 -39v-2q0 -23 16.5 -32.5t64.5 -9.5h5q117 0 174.5 -32t57.5 -123v-19
q0 -92 -59.5 -125t-178.5 -33t-176 33t-57 125zM249 279h8q69 0 69 63v17q0 34 -16.5 48t-50.5 14h-8q-69 0 -69 -62v-17q0 -63 67 -63zM154 -58v-10q0 -39 24.5 -52t78.5 -13q56 0 81.5 12.5t25.5 52.5v10q0 39 -24.5 51t-79.5 12t-80.5 -12t-25.5 -51z" />
    <glyph glyph-name="h" unicode="h" horiz-adv-x="513" 
d="M61 25v667q0 26 24 27l84 8q15 0 20 -4.5t5 -19.5v-130l-3 -80q31 22 89 22h4q171 0 171 -167v-323q0 -25 -24 -25h-85q-24 0 -24 25v329q0 35 -14 48.5t-47 13.5h-3q-33 0 -48.5 -14t-15.5 -49v-328q0 -25 -24 -25h-85q-24 0 -24 25z" />
    <glyph glyph-name="i" unicode="i" horiz-adv-x="259" 
d="M58 613v59q0 25 24 25h95q24 0 24 -25v-59q0 -14 -5 -19t-19 -5h-95q-14 0 -19 5t-5 19zM63 25v448q0 25 24 26l84 8q13 1 19 -5t6 -20v-457q0 -25 -24 -25h-85q-24 0 -24 25z" />
    <glyph glyph-name="j" unicode="j" horiz-adv-x="266" 
d="M64 613v59q0 25 25 25h95q24 0 24 -25v-59q0 -14 -5 -19t-19 -5h-95q-14 0 -19.5 5t-5.5 19zM-12 -196l-6 56q-1 14 5 19.5t19 3.5q20 -2 21 -2q21 0 31.5 12t10.5 45v535q0 25 25 26l84 8q25 3 25 -24v-553q0 -47 -13.5 -80t-36.5 -48.5t-46 -22t-50 -6.5t-47 4
q-13 2 -17 7.5t-5 19.5z" />
    <glyph glyph-name="k" unicode="k" horiz-adv-x="504" 
d="M61 25v669q0 24 23 25l86 8q24 1 24 -23v-373q14 0 20 -2l114 160q8 12 14 15.5t19 2.5l90 -8q31 -4 13 -28l-135 -176q28 -21 57 -77l99 -183q11 -23 -14 -26l-87 -12q-26 -4 -36 20l-85 174q-14 29 -27 36.5t-42 8.5v-211q0 -25 -24 -25h-85q-24 0 -24 25z" />
    <glyph glyph-name="l" unicode="l" horiz-adv-x="293" 
d="M59 145v547q0 26 23 27l86 8q14 1 19.5 -4t5.5 -19v-556q0 -30 8 -39t34 -9q5 0 16 1t15 1q12 0 16 -4t3 -18l-7 -56q-1 -13 -6.5 -18.5t-19.5 -7.5q-20 -4 -50 -4q-74 0 -108.5 31t-34.5 120z" />
    <glyph glyph-name="m" unicode="m" horiz-adv-x="759" 
d="M61 25v422q0 24 22 34q72 31 171 31h4q90 0 132 -41q42 41 130 41h5q85 0 130.5 -36t45.5 -130v-321q0 -25 -24 -25h-85q-25 0 -25 25v327q0 35 -14 48t-42 13h-4q-61 0 -61 -61v-327q0 -25 -24 -25h-82q-25 0 -25 25v327q0 34 -14.5 47.5t-45.5 13.5h-1q-36 0 -60 -10
v-378q0 -25 -24 -25h-85q-24 0 -24 25z" />
    <glyph glyph-name="n" unicode="n" horiz-adv-x="512" 
d="M61 25v421q0 25 22 35q72 31 182 31q92 0 140.5 -37t48.5 -131v-319q0 -25 -24 -25h-85q-25 0 -25 25v320q0 38 -14 53t-51 15q-40 0 -61 -10v-378q0 -25 -24 -25h-85q-24 0 -24 25z" />
    <glyph glyph-name="o" unicode="o" horiz-adv-x="507" 
d="M54 155v192q0 94 52.5 131t144.5 37h9q92 0 143 -37t51 -131v-192q0 -93 -53 -130t-145 -37h-9q-92 0 -142.5 37t-50.5 130zM249 94h6q66 0 66 65v193q0 35 -15 49.5t-48 14.5h-5q-34 0 -50.5 -14.5t-16.5 -49.5v-193q0 -35 15.5 -50t47.5 -15z" />
    <glyph glyph-name="p" unicode="p" horiz-adv-x="511" 
d="M58 -190v542q0 49 14.5 82t43 50t61 24t77.5 7h11q92 0 142.5 -37t50.5 -130v-193q0 -167 -173 -167h-3q-62 0 -95 21q3 -43 3 -79v-131q0 -27 -29 -24l-79 7q-24 3 -24 28zM253 94h6q66 0 66 64v194q0 35 -15 49.5t-48 14.5h-5q-34 0 -50.5 -14t-16.5 -49v-195
q0 -35 15 -49.5t48 -14.5z" />
    <glyph glyph-name="q" unicode="q" horiz-adv-x="511" 
d="M321 -201v131l3 80q-35 -22 -97 -22q-173 0 -173 167v193q0 93 52.5 130t144.5 37h9q96 0 145 -35.5t49 -131.5v-538q0 -25 -25 -28l-79 -7q-29 -3 -29 24zM249 94h4q34 0 51 14.5t17 49.5v194q0 35 -15 49.5t-48 14.5h-5q-34 0 -50.5 -14.5t-16.5 -48.5v-195
q0 -35 15 -49.5t48 -14.5z" />
    <glyph glyph-name="r" unicode="r" horiz-adv-x="347" 
d="M58 25v327q0 93 41.5 126.5t129.5 33.5q50 0 76 -8q24 -7 25 -27l5 -65q1 -13 -5 -17.5t-19 -2.5q-34 7 -64 7q-19 0 -29.5 -2.5t-18.5 -14t-8 -33.5v-324q0 -25 -24 -25h-85q-24 0 -24 25z" />
    <glyph glyph-name="s" unicode="s" horiz-adv-x="446" 
d="M46 42l-4 50q-2 14 4 20t20 3q76 -18 145 -18h2q37 0 52.5 9.5t15.5 37.5v7q0 25 -12.5 35.5t-49.5 17.5l-15 4q-87 17 -123.5 47t-36.5 103v12q0 82 50 112t134 30h2q71 0 120 -15q22 -7 25 -29l4 -46q1 -14 -4 -20t-19 -3q-61 14 -116 14h-4q-33 0 -47.5 -9.5
t-14.5 -33.5v-6q0 -19 11.5 -30t48.5 -19l16 -4q84 -17 122 -49t38 -102v-21q0 -46 -14.5 -76.5t-43 -45.5t-60 -20.5t-76.5 -5.5h-3q-95 0 -139 16q-25 9 -28 35z" />
    <glyph glyph-name="t" unicode="t" horiz-adv-x="373" 
d="M89 147v261h-53q-14 0 -19 5t-5 19v46q0 14 5 19.5t19 5.5h53v105q0 14 5 20t19 7l83 7q14 0 19.5 -4.5t5.5 -18.5v-116h91q14 0 20 -5.5t7 -18.5l5 -47q0 -14 -4.5 -19t-19.5 -5h-99v-261q0 -30 9.5 -38.5t41.5 -8.5q13 0 31.5 2t25.5 2q11 2 16 -2.5t4 -15.5l-6 -57
q-3 -24 -24 -29q-34 -6 -70 -6q-85 0 -122.5 31.5t-37.5 121.5z" />
    <glyph glyph-name="u" unicode="u" horiz-adv-x="512" 
d="M58 158v315q0 25 23 26l85 8q13 1 19 -5t6 -20v-317q0 -38 14.5 -53t51.5 -15q36 0 60 10v375q0 14 5.5 20t18.5 5l86 -8q24 -1 24 -26v-416q0 -25 -23 -35q-70 -31 -181 -31q-92 0 -140.5 37t-48.5 130z" />
    <glyph glyph-name="v" unicode="v" horiz-adv-x="445" 
d="M126 24l-104 450q-5 24 21 25l83 8q13 1 18.5 -4.5t8.5 -20.5l40 -186q19 -97 28 -177h4q17 111 30 177l40 186q3 14 9 20t19 5l79 -8q26 -2 21 -25l-104 -450q-5 -24 -30 -24h-133q-25 0 -30 24z" />
    <glyph glyph-name="w" unicode="w" horiz-adv-x="715" 
d="M114 24l-91 450q-4 23 22 26l83 7q24 1 28 -24l30 -189q11 -60 23 -173h4q8 47 34 170l43 187q4 23 27 23h84q14 0 19.5 -5t8.5 -18l42 -190q27 -128 34 -167h4q6 48 23 172l31 190q1 14 7 19.5t20 4.5l79 -7q27 -3 22 -25l-90 -452q-4 -23 -27 -23h-119q-23 0 -27 23
l-44 200q-10 46 -24 152h-4q-12 -92 -24 -150l-45 -201q-4 -24 -28 -24h-116q-25 0 -29 24z" />
    <glyph glyph-name="x" unicode="x" horiz-adv-x="439" 
d="M17 30l130 230l-116 214q-12 21 14 24l90 9q21 1 29 -21l29 -60l30 -73q18 48 30 73l29 60q5 13 11 17.5t19 3.5l85 -9q27 -2 14 -24l-117 -213l127 -231q12 -22 -14 -26l-92 -8q-13 -1 -19 3.5t-12 17.5l-30 65q-8 17 -35 84q0 -1 -6 -15l-15 -34.5l-15 -34.5l-31 -65
q-6 -13 -11.5 -17.5t-18.5 -3.5l-91 8q-26 4 -14 26z" />
    <glyph glyph-name="y" unicode="y" horiz-adv-x="512" 
d="M182 -196l-6 53q-2 14 2.5 19.5t16.5 3.5q32 -4 59 -4q21 0 33.5 3t23 17t10.5 40v86q-26 -22 -86 -22h-4q-173 0 -173 167v306q0 25 23 26l85 8q25 0 25 -25v-313q0 -34 14 -48.5t47 -14.5h3q62 0 62 61v315q0 14 5.5 19.5t19.5 5.5l85 -8q14 -1 19 -6.5t5 -18.5v-535
q0 -50 -14.5 -84t-42 -51t-57.5 -24t-69 -7q-46 0 -68 6q-16 4 -18 25z" />
    <glyph glyph-name="z" unicode="z" horiz-adv-x="450" 
d="M33 25v9q0 24 12 44l187 326h-163q-14 0 -18 5t-3 18l6 53q1 14 7 18.5t20 4.5h297q25 0 25 -24v-6q0 -22 -12 -43l-187 -324h193q14 0 18.5 -5.5t3.5 -18.5l-8 -59q-1 -13 -7.5 -18t-20.5 -5h-326q-24 0 -24 25z" />
    <glyph glyph-name="braceleft" unicode="{" horiz-adv-x="363" 
d="M115 62v172q0 39 -14.5 53t-45.5 14q-12 0 -17 4.5t-5 18.5v57q0 15 5.5 20.5t18.5 5.5q30 0 44 14t14 53v156q0 87 35.5 117.5t117.5 30.5h5q24 0 24 -25v-47q0 -25 -24 -25h-9q-21 0 -29.5 -8t-8.5 -26v-174q0 -96 -62 -121q62 -24 62 -122v-185q0 -18 8.5 -26t29.5 -8
h9q24 0 24 -25v-47q0 -25 -24 -25h-8q-81 0 -115.5 30.5t-34.5 117.5z" />
    <glyph glyph-name="bar" unicode="|" horiz-adv-x="276" 
d="M88 -171v1038q0 25 24 25h52q24 0 24 -25v-1038q0 -25 -24 -25h-52q-24 0 -24 25z" />
    <glyph glyph-name="braceright" unicode="}" horiz-adv-x="363" 
d="M66 -61v47q0 25 25 25h8q21 0 29.5 8t8.5 26v185q0 98 62 122q-62 25 -62 121v174q0 18 -8.5 26t-29.5 8h-8q-25 0 -25 25v47q0 25 25 25h4q83 0 118 -30.5t35 -117.5v-156q0 -39 14.5 -53t44.5 -14q13 0 18 -5.5t5 -20.5v-57q0 -14 -5 -18.5t-17 -4.5q-31 0 -45.5 -14
t-14.5 -53v-172q0 -88 -34 -118t-116 -30h-7q-25 0 -25 25z" />
    <glyph glyph-name="asciitilde" unicode="~" horiz-adv-x="526" 
d="M100 269l-20 23q-18 18 0 38q39 46 98 46q30 0 59.5 -20l56.5 -39.5t51 -19.5q20 0 35 15q17 16 33 1l26 -26q15 -16 -2 -37q-42 -53 -101 -53q-39 0 -91.5 40t-74.5 40q-16 0 -34 -12q-19 -13 -36 4z" />
    <glyph glyph-name="exclamdown" unicode="&#xa1;" horiz-adv-x="264" 
d="M200 268v-439q0 -14 -5.5 -19.5t-19.5 -5.5h-86q-14 0 -19 5.5t-5 19.5v439q0 14 5.5 19t18.5 5h86q14 0 19.5 -5t5.5 -19zM200 476v-65q0 -14 -5.5 -19.5t-19.5 -5.5h-86q-24 0 -24 25v65q0 14 5 19.5t19 5.5h86q14 0 19.5 -5.5t5.5 -19.5z" />
    <glyph glyph-name="cent" unicode="&#xa2;" 
d="M252 8v82q-141 17 -141 166v164q0 146 141 165v87q0 14 5.5 19.5t19.5 5.5h29q24 0 24 -25v-86q54 -1 78 -9q26 -7 28 -29l6 -54q1 -12 -5.5 -15.5t-20.5 -0.5q-44 11 -104 11q-36 0 -51.5 -15.5t-15.5 -55.5v-153q0 -40 16 -56t51 -16q62 0 106 11q15 5 22 1t6 -17
l-6 -59q-2 -22 -28 -29q-29 -9 -82 -11v-81q0 -25 -24 -25h-29q-25 0 -25 25z" />
    <glyph glyph-name="sterling" unicode="&#xa3;" 
d="M57 25v58q0 24 25 24h61v215h-43q-25 0 -25 24v27q0 24 25 24h43v133q0 175 202 175q54 0 77 -7q13 -4 18 -9t6 -18l4 -49q1 -14 -4.5 -19.5t-19.5 -3.5q-25 7 -70 7q-41 0 -60 -17t-19 -55v-137h85q25 0 25 -24v-27q0 -24 -25 -24h-85v-215h197q25 0 25 -24v-58
q0 -25 -25 -25h-392q-14 0 -19.5 5.5t-5.5 19.5z" />
    <glyph glyph-name="currency" unicode="&#xa4;" horiz-adv-x="723" 
d="M657 87l-25 -26q-18 -18 -34 0l-84 80q-71 -51 -158 -51q-80 0 -156 49l-82 -80q-18 -17 -35 0l-26 26q-17 17 0 34l83 82q-50 66 -50 152q0 83 50 151l-85 82q-17 17 0 34l27 27q18 17 35 0l83 -82q75 49 156 49q82 0 156 -50l84 81q17 17 34 0l26 -26q18 -17 0 -35
l-84 -81q51 -71 51 -150q0 -80 -49 -149l83 -83q17 -17 0 -34zM356 188q71 0 120.5 48t49.5 117q0 68 -49.5 116t-120.5 48q-70 0 -119.5 -48t-49.5 -116t50 -116.5t119 -48.5z" />
    <glyph glyph-name="yen" unicode="&#xa5;" 
d="M209 25v146h-69q-14 0 -19 5.5t-5 18.5v27q0 14 5 19t19 5h69v47h-69q-14 0 -19 5.5t-5 18.5v27q0 14 5 19t19 5h40l-139 295q-11 22 17 26l88 11q23 3 32 -20l71 -153q17 -39 29 -74h2q21 55 30 73l72 155q6 13 12.5 16.5t19.5 2.5l87 -11q25 -3 15 -26l-142 -295h42
q14 0 19 -5t5 -19v-27q0 -13 -5 -18.5t-19 -5.5h-71v-47h71q14 0 19 -5t5 -19v-27q0 -13 -5 -18.5t-19 -5.5h-71v-146q0 -25 -25 -25h-86q-14 0 -19.5 5.5t-5.5 19.5z" />
    <glyph glyph-name="brokenbar" unicode="&#xa6;" horiz-adv-x="266" 
d="M83 469v398q0 14 5 19.5t19 5.5h51q14 0 19.5 -5.5t5.5 -19.5v-398q0 -25 -25 -25h-51q-14 0 -19 5.5t-5 19.5zM83 -171v398q0 14 5 19.5t19 5.5h51q14 0 19.5 -5.5t5.5 -19.5v-398q0 -25 -25 -25h-51q-14 0 -19 5.5t-5 19.5z" />
    <glyph glyph-name="section" unicode="&#xa7;" 
d="M59 -66l-6 63q-2 13 3 18t19 2q69 -15 141 -15q64 0 89 11.5t25 51.5v9q0 33 -17 45t-59 20l-14 3q-43 8 -67 14t-50.5 18.5t-39 30.5t-21 47t-8.5 71v220q0 88 53.5 125.5t156.5 37.5q75 0 124 -13q14 -3 19 -9t7 -20l6 -58q2 -14 -3 -18t-18 -1q-62 12 -130 12
q-27 0 -43 -2.5t-29.5 -17t-13.5 -42.5v-5q0 -39 16 -51t62 -20l13 -3q54 -12 83 -21.5t55 -29t36 -50.5t10 -81v-215q0 -92 -54.5 -131.5t-167.5 -39.5q-92 0 -152 15q-13 4 -18 9.5t-7 19.5zM250 237l11 -2q58 -10 70 -20q-1 15 -1 35v41q0 38 -15 52t-51 21l-20 4
q-51 9 -62 18q1 -22 1 -46v-24q0 -42 15 -57.5t52 -21.5z" />
    <glyph glyph-name="dieresis" unicode="&#xa8;" horiz-adv-x="915" 
d="M423 660v-60q0 -14 -5 -19.5t-19 -5.5h-68q-14 0 -19 5.5t-5 19.5v60q0 14 5.5 19t18.5 5h68q13 0 18.5 -5t5.5 -19zM608 660v-60q0 -14 -5 -19.5t-19 -5.5h-68q-14 0 -19 5.5t-5 19.5v60q0 14 5 19t19 5h68q14 0 19 -5t5 -19z" />
    <glyph glyph-name="copyright" unicode="&#xa9;" horiz-adv-x="824" 
d="M79 176v345q0 100 54.5 144t166.5 44h224q111 0 166 -44.5t55 -143.5v-345q0 -100 -55 -144t-167 -44h-223q-112 0 -166.5 44t-54.5 144zM299 63h225q71 0 103.5 25t32.5 85v352q0 61 -33 86t-103 25h-225q-70 0 -103 -25t-33 -86v-352q0 -60 32.5 -85t103.5 -25z
M423 556q39 0 71 -8q16 -5 17 -21l3 -30q2 -12 -2.5 -16t-17.5 -2q-34 6 -66 6q-45 0 -45 -38v-193q0 -38 43 -38q35 0 72 7q11 3 15.5 -0.5t3.5 -13.5l-4 -37q-1 -16 -16 -21q-35 -10 -80 -10q-61 0 -92 26.5t-31 86.5v189q0 60 32 86.5t97 26.5z" />
    <glyph glyph-name="ordfeminine" unicode="&#xaa;" horiz-adv-x="372" 
d="M29 358v7q0 53 37.5 73t111.5 23l42 1v14q0 18 -8.5 25t-29.5 7q-37 0 -101 -11q-11 -2 -16 1.5t-4 14.5l3 32q2 18 16 21q41 15 108 15q72 0 107.5 -24.5t35.5 -87.5v-161q0 -18 -17 -27q-48 -21 -140 -21q-77 0 -111 20.5t-34 77.5zM136 368v-5q0 -17 9 -23t30 -6t45 3
v62q-21 0 -45 -2q-15 -1 -21.5 -3t-12 -8t-5.5 -18z" />
    <glyph glyph-name="guillemotleft" unicode="&#xab;" horiz-adv-x="516" 
d="M135 76l-80 156q-11 22 0 44l80 155q12 22 33 22h58q28 0 17 -23l-89 -174l93 -179q11 -23 -17 -23h-62q-21 0 -33 22zM338 76l-80 156q-11 22 0 44l80 155q11 22 33 22h57q28 0 17 -23l-88 -174l92 -179q11 -23 -17 -23h-61q-22 0 -33 22z" />
    <glyph glyph-name="logicalnot" unicode="&#xac;" 
d="M74 284v57q0 13 5 18.5t19 5.5h358q14 0 19 -5.5t5 -18.5v-187q0 -25 -24 -25h-55q-24 0 -24 25v106h-279q-14 0 -19 5t-5 19z" />
    <glyph glyph-name="registered" unicode="&#xae;" horiz-adv-x="506" 
d="M59 407v188q0 57 30.5 82t94.5 25h141q65 0 93.5 -24.5t28.5 -82.5v-188q0 -58 -30.5 -83t-94.5 -25h-143q-63 0 -91.5 25t-28.5 83zM174 343h152q38 0 55.5 13t17.5 47v196q0 33 -16.5 45.5t-51.5 12.5h-152q-36 0 -54 -12.5t-18 -45.5v-196q0 -34 16.5 -47t50.5 -13z
M179 399v202q0 10 10 10h66q38 0 55.5 -14t17.5 -50v-9q0 -32 -27 -46q19 -19 24 -38l15 -47q3 -12 -8 -15l-26 -5q-13 -3 -15 7l-13 52q-5 16 -10.5 22t-18.5 6h-20v-75q0 -10 -11 -10h-29q-10 0 -10 10zM229 512h21q15 0 21.5 4t6.5 18v14q0 14 -5.5 18.5t-20.5 4.5h-23
v-59z" />
    <glyph glyph-name="macron" unicode="&#xaf;" horiz-adv-x="498" 
d="M108 728v29q0 24 25 24h232q25 0 25 -24v-29q0 -25 -25 -25h-232q-25 0 -25 25z" />
    <glyph glyph-name="degree" unicode="&#xb0;" horiz-adv-x="338" 
d="M49 569v39q0 56 31.5 77.5t86.5 21.5h7q55 0 85 -21t30 -78v-39q0 -57 -31.5 -78.5t-86.5 -21.5h-7q-55 0 -85 21.5t-30 78.5zM166 523q31 0 46 10.5t15 37.5v39q0 26 -13 35.5t-42 9.5q-31 0 -46 -9.5t-15 -35.5v-40q0 -27 13 -37t42 -10z" />
    <glyph glyph-name="plusminus" unicode="&#xb1;" 
d="M457 343h-127v-130q0 -14 -6.5 -19t-22.5 -5h-52q-13 0 -18.5 5.5t-5.5 18.5v130h-127q-16 0 -20.5 8t-4.5 30v41q0 24 25 24h127v134q0 14 5 19t17 5h58q25 0 25 -24v-134h127q17 0 21 -7.5t4 -30.5v-40q0 -14 -5.5 -19.5t-19.5 -5.5zM457 0h-359q-14 0 -19.5 5.5
t-5.5 19.5v53q0 24 25 24h359q14 0 19.5 -5t5.5 -19v-53q0 -14 -5.5 -19.5t-19.5 -5.5z" />
    <glyph glyph-name="two.superior" unicode="&#xb2;" horiz-adv-x="392" 
d="M46 400v123q0 58 29 80.5t102 35.5l17 3q20 3 29 11t9 26v19q0 22 -12 30.5t-40 8.5h-3q-41 0 -93 -7q-12 -2 -16 1t-3 15l5 41q3 19 22 22q41 8 82 8h3q88 0 128 -26t40 -90v-22q0 -62 -27.5 -83t-97.5 -33l-17 -3q-24 -4 -33 -12.5t-9 -29.5v-56h166q13 0 17 -4.5
t3 -15.5l-5 -42q-2 -11 -6.5 -15.5t-16.5 -4.5h-251q-22 0 -22 20z" />
    <glyph glyph-name="three.superior" unicode="&#xb3;" horiz-adv-x="378" 
d="M40 405l-5 44q-2 12 2.5 15.5t17.5 2.5q59 -8 101 -8h5q32 0 44.5 9.5t12.5 33.5v20q0 23 -10 32t-38 9h-60q-12 0 -16.5 4.5t-4.5 15.5v41q0 11 4.5 15.5t16.5 4.5h54q28 0 38.5 9t10.5 32v12q0 21 -10.5 30.5t-38.5 9.5h-2q-59 0 -98 -8q-13 -1 -16.5 2t-2.5 14l5 43
q1 17 22 21q38 8 93 8h5q79 0 118.5 -28.5t39.5 -92.5v-11q0 -56 -46 -76q50 -18 50 -86v-27q0 -65 -39.5 -93t-127.5 -28h-5q-62 0 -98 7q-12 2 -16 7t-6 16z" />
    <glyph glyph-name="acute" unicode="&#xb4;" horiz-adv-x="277" 
d="M197 801l-78 -130q-13 -21 -34 -21h-43q-27 0 -16 23l57 130q10 22 32 22h67q30 0 15 -24z" />
    <glyph glyph-name="mu" unicode="&#xb5;" horiz-adv-x="530" 
d="M63 -197v675q0 25 25 25h84q25 0 25 -25v-325q0 -30 10.5 -43t35.5 -13q28 0 52.5 14.5t37.5 33.5v333q0 25 25 25h84q25 0 25 -25v-453q0 -14 -5.5 -19.5t-19.5 -5.5h-73q-15 0 -19 4.5t-7 17.5l-3 23h-4q-39 -38 -89 -42q-27 -3 -52 5q1 -38 1 -67v-138q0 -25 -25 -25
h-83q-25 0 -25 25z" />
    <glyph glyph-name="paragraph" unicode="&#xb6;" horiz-adv-x="613" 
d="M461 25v647q0 25 25 25h34q25 0 25 -25v-647q0 -25 -25 -25h-34q-25 0 -25 25zM312 25v273h-75q-169 0 -169 160v83q0 156 169 156h135q24 0 24 -25v-647q0 -25 -24 -25h-36q-24 0 -24 25z" />
    <glyph glyph-name="periodcentered" unicode="&#xb7;" horiz-adv-x="247" 
d="M55 281v85q0 14 5.5 19.5t19.5 5.5h87q14 0 19 -5.5t5 -19.5v-85q0 -13 -5.5 -18.5t-18.5 -5.5h-87q-25 0 -25 24z" />
    <glyph glyph-name="cedilla" unicode="&#xb8;" horiz-adv-x="395" 
d="M74 -226v25q0 21 25 16q58 -12 87 -12q71 0 71 43q0 27 -20 35t-73 8h-2q-24 0 -24 25v106h69v-73q65 -1 97 -29t32 -74q0 -53 -37.5 -81t-96.5 -28q-56 0 -91 9q-37 7 -37 30z" />
    <glyph glyph-name="one.superior" unicode="&#xb9;" horiz-adv-x="270" 
d="M102 400v308l-38 -16q-27 -11 -31 8l-10 41q-6 20 12 29l78 35q17 7 33 7h49q22 0 22 -20v-392q0 -20 -22 -20h-71q-22 0 -22 20z" />
    <glyph glyph-name="ordmasculine" unicode="&#xba;" horiz-adv-x="383" 
d="M40 374v93q0 115 145 115h16q142 0 142 -115v-93q0 -115 -144 -115h-16q-143 0 -143 115zM187 337h7q37 0 37 37v87q0 25 -6.5 36.5t-28.5 11.5h-7q-37 0 -37 -36v-87q0 -25 7 -37t28 -12z" />
    <glyph glyph-name="guillemotright" unicode="&#xbb;" horiz-adv-x="514" 
d="M70 79l88 172l-91 177q-13 25 15 25h63q21 0 32 -22l80 -155q11 -22 0 -44l-80 -156q-11 -22 -32 -22h-60q-27 0 -15 25zM271 79l88 172l-91 177q-12 25 15 25h62q22 0 33 -22l80 -155q11 -22 0 -44l-80 -156q-11 -22 -33 -22h-59q-28 0 -15 25z" />
    <glyph glyph-name="onequarter" unicode="&#xbc;" horiz-adv-x="774" 
d="M409 131l-6 36q-2 16 9 37l125 221q7 16 30 9l64 -20q17 -6 7 -25l-52 -83l-70 -115h97v51q0 11 4.5 15.5t16.5 6.5l70 8q21 3 21 -17v-235q0 -11 -4.5 -15.5t-16.5 -4.5h-70q-21 0 -21 20v91h-183q-11 0 -15 4.5t-6 15.5zM147 1l323 695q11 22 33 22h46q14 0 17.5 -5
t-1.5 -18l-324 -695q-10 -22 -33 -22h-46q-26 0 -15 23zM99 285v308l-38 -16q-27 -11 -31 8l-10 41q-6 20 12 29l78 35q17 7 33 7h49q22 0 22 -20v-392q0 -20 -22 -20h-71q-22 0 -22 20z" />
    <glyph glyph-name="onehalf" unicode="&#xbd;" horiz-adv-x="804" 
d="M145 1l323 695q11 22 33 22h46q14 0 17.5 -5t-1.5 -18l-324 -695q-10 -22 -33 -22h-45q-27 0 -16 23zM99 285v308l-38 -16q-27 -11 -31 8l-10 41q-6 20 12 29l78 35q17 7 33 7h49q22 0 22 -20v-392q0 -20 -22 -20h-71q-22 0 -22 20zM461 20v123q0 58 29 80.5t102 35.5
l17 3q38 6 38 38v18q0 21 -12 30t-40 9h-3q-42 0 -92 -7q-12 -2 -16 1t-3 15l4 41q3 19 22 22q41 8 82 8h3q88 0 128 -26t40 -90v-20q0 -62 -27.5 -84t-97.5 -34l-17 -3q-24 -4 -33 -12.5t-9 -29.5v-56h166q13 0 17.5 -4.5t2.5 -15.5l-5 -42q-2 -11 -6.5 -15.5t-16.5 -4.5
h-251q-22 0 -22 20z" />
    <glyph glyph-name="threequarters" unicode="&#xbe;" horiz-adv-x="859" 
d="M231 1l324 695q10 22 33 22h45q27 0 16 -23l-323 -695q-11 -22 -33 -22h-46q-14 0 -17.5 5t1.5 18zM37 290l-5 44q-2 12 2.5 15.5t17.5 2.5q59 -8 101 -8h5q32 0 44.5 9t12.5 32v24q0 22 -10 30.5t-38 8.5h-61q-21 0 -21 20v41q0 20 21 20h55q28 0 38 9t10 31v14
q0 21 -9.5 30t-38.5 9h-2q-51 0 -99 -8q-12 -2 -15.5 1.5t-2.5 14.5l5 43q1 11 5.5 15.5t16.5 7.5q28 6 85 6h3q86 0 127 -28.5t41 -92.5v-11q0 -56 -46 -76q50 -18 50 -86v-27q0 -65 -40.5 -93t-132.5 -28h-3q-58 0 -94 7q-12 2 -16 7t-6 16zM494 131l-6 36q-2 14 9 37
l125 221q7 17 30 9l64 -20q18 -6 7 -25l-52 -83l-69 -115h96v51q0 11 4.5 15.5t16.5 6.5l70 8q21 3 21 -17v-235q0 -11 -4.5 -15.5t-16.5 -4.5h-70q-21 0 -21 20v91h-182q-11 0 -15.5 4.5t-6.5 15.5z" />
    <glyph glyph-name="questiondown" unicode="&#xbf;" horiz-adv-x="445" 
d="M321 291v-68q0 -34 -4 -56.5t-18 -40.5t-22.5 -25t-33.5 -26q-25 -18 -33.5 -25t-17 -23.5t-8.5 -38.5v-19q0 -40 20 -54t57 -14q61 0 121 10q14 2 18.5 -2t2.5 -18l-6 -56q-1 -23 -25 -28q-48 -12 -116 -12q-101 0 -153 40t-52 135v29q0 36 11.5 62.5t24 39.5t41.5 35
q3 3 18 13.5t18.5 14.5l12 14t11 21t2.5 25v67q0 13 5 18.5t19 5.5h83q13 0 18.5 -5.5t5.5 -18.5zM321 476v-65q0 -25 -24 -25h-83q-24 0 -24 25v65q0 25 24 25h83q24 0 24 -25z" />
    <glyph glyph-name="Agrave" unicode="&#xc0;" horiz-adv-x="524" 
d="M484 4l-86 -9q-13 -1 -18.5 2.5t-7.5 17.5l-29 142h-168l-27 -143q-4 -22 -27 -19l-82 9q-14 2 -18.5 7t-2.5 18l138 643q2 14 8.5 19.5t20.5 5.5h154q25 0 29 -25l137 -643q3 -13 -2 -18t-19 -7zM329 254l-67 338h-4l-69 -338h140zM207 779l-79 130q-13 24 16 24h67
q13 0 19.5 -4.5t11.5 -17.5l58 -130q5 -13 1.5 -18t-17.5 -5h-44q-13 0 -19.5 4.5t-13.5 16.5z" />
    <glyph glyph-name="Aacute" unicode="&#xc1;" horiz-adv-x="524" 
d="M484 4l-86 -9q-13 -1 -18.5 2.5t-7.5 17.5l-29 142h-168l-27 -143q-4 -22 -27 -19l-82 9q-14 2 -18.5 7t-2.5 18l138 643q2 14 8.5 19.5t20.5 5.5h154q25 0 29 -25l137 -643q3 -13 -2 -18t-19 -7zM329 254l-67 338h-4l-69 -338h140zM395 909l-78 -130q-13 -21 -34 -21
h-43q-27 0 -16 23l57 130q10 22 32 22h67q30 0 15 -24z" />
    <glyph glyph-name="Acircumflex" unicode="&#xc2;" horiz-adv-x="524" 
d="M484 4l-86 -9q-13 -1 -18.5 2.5t-7.5 17.5l-29 142h-168l-27 -143q-4 -22 -27 -19l-82 9q-14 2 -18.5 7t-2.5 18l138 643q2 14 8.5 19.5t20.5 5.5h154q25 0 29 -25l137 -643q3 -13 -2 -18t-19 -7zM329 254l-67 338h-4l-69 -338h140zM120 785l82 113q15 20 39 20h44
q24 0 38 -20l83 -113q16 -22 -12 -22h-56q-14 0 -20.5 4t-15.5 16l-42 58l-41 -57q-13 -21 -35 -21h-53q-27 0 -11 22z" />
    <glyph glyph-name="Atilde" unicode="&#xc3;" horiz-adv-x="524" 
d="M484 4l-86 -9q-13 -1 -18.5 2.5t-7.5 17.5l-29 142h-168l-27 -143q-4 -22 -27 -19l-82 9q-14 2 -18.5 7t-2.5 18l138 643q2 14 8.5 19.5t20.5 5.5h154q25 0 29 -25l137 -643q3 -13 -2 -18t-19 -7zM329 254l-67 338h-4l-69 -338h140zM127 780l-20 29q-11 14 1 29
q28 42 87 42q31 0 71 -22t65 -22q24 0 42 22q15 17 26 -2l20 -30q9 -13 -2 -30q-32 -48 -88 -48q-31 0 -69.5 22t-64.5 22q-21 0 -45 -17q-13 -11 -23 5z" />
    <glyph glyph-name="Adieresis" unicode="&#xc4;" horiz-adv-x="524" 
d="M484 4l-86 -9q-13 -1 -18.5 2.5t-7.5 17.5l-29 142h-168l-27 -143q-4 -22 -27 -19l-82 9q-14 2 -18.5 7t-2.5 18l138 643q2 14 8.5 19.5t20.5 5.5h154q25 0 29 -25l137 -643q3 -13 -2 -18t-19 -7zM329 254l-67 338h-4l-69 -338h140zM227 847v-60q0 -14 -5 -19.5t-19 -5.5
h-68q-14 0 -19 5.5t-5 19.5v60q0 13 5.5 18.5t18.5 5.5h68q13 0 18.5 -5.5t5.5 -18.5zM412 847v-60q0 -14 -5 -19.5t-19 -5.5h-68q-14 0 -19 5.5t-5 19.5v60q0 13 5 18.5t19 5.5h68q14 0 19 -5.5t5 -18.5z" />
    <glyph glyph-name="Aring" unicode="&#xc5;" horiz-adv-x="524" 
d="M484 4l-86 -9q-13 -1 -18.5 2.5t-7.5 17.5l-29 142h-168l-27 -143q-4 -22 -27 -19l-82 9q-14 2 -18.5 7t-2.5 18l138 643q2 14 8.5 19.5t20.5 5.5h154q25 0 29 -25l137 -643q3 -13 -2 -18t-19 -7zM329 254l-67 338h-4l-69 -338h140zM149 831v35q0 90 101 90h25
q101 0 101 -90v-35q0 -89 -102 -89h-24q-101 0 -101 89zM254 799h15q24 0 34 7t10 27v25q0 25 -8.5 33t-34.5 8h-15q-27 0 -35.5 -8t-8.5 -33v-18q0 -26 8 -33.5t35 -7.5z" />
    <glyph glyph-name="AE" unicode="&#xc6;" horiz-adv-x="849" 
d="M407 237v282l-151 -282h151zM776 0h-345q-24 0 -24 25v114h-200l-64 -117q-11 -22 -36 -22h-83q-31 0 -16 26l363 649q12 22 36 22h363q14 0 20 -5t8 -18l7 -58q3 -25 -24 -25h-245v-176h186q14 0 19 -5.5t5 -18.5v-58q0 -13 -5 -18.5t-19 -5.5h-186v-197h253
q28 0 24 -25l-10 -64q-1 -13 -7 -18t-20 -5z" />
    <glyph glyph-name="Ccedilla" unicode="&#xc7;" horiz-adv-x="474" 
d="M143 -214v25q0 21 25 16q58 -12 87 -12q71 0 71 43q0 27 -20 35t-73 8h-2q-24 0 -24 25v70q-75 11 -112 55.5t-37 128.5v337q0 100 56 144.5t166 44.5q60 0 122 -13q13 -3 18 -8.5t7 -19.5l6 -57q2 -13 -3 -17.5t-18 -2.5q-75 12 -125 12q-49 0 -71.5 -19t-22.5 -64v-331
q0 -46 20 -64.5t70 -18.5q71 0 132 13q14 3 19.5 -2t3.5 -18l-6 -61q-3 -24 -25 -29q-57 -15 -131 -15v-32q65 -1 97 -29t32 -74q0 -53 -37.5 -81t-96.5 -28q-57 0 -91 9q-37 7 -37 30z" />
    <glyph glyph-name="Egrave" unicode="&#xc8;" horiz-adv-x="497" 
d="M65 25v647q0 14 5.5 19.5t19.5 5.5h328q14 0 20 -5t8 -18l7 -58q3 -25 -24 -25h-229v-176h176q25 0 25 -24v-58q0 -24 -25 -24h-176v-197h237q28 0 24 -25l-10 -64q-1 -13 -7.5 -18t-20.5 -5h-333q-25 0 -25 25zM211 779l-79 130q-13 24 16 24h67q13 0 19.5 -4.5
t11.5 -17.5l58 -130q5 -13 1.5 -18t-17.5 -5h-44q-13 0 -19.5 4.5t-13.5 16.5z" />
    <glyph glyph-name="Eacute" unicode="&#xc9;" horiz-adv-x="497" 
d="M65 25v647q0 14 5.5 19.5t19.5 5.5h328q14 0 20 -5t8 -18l7 -58q3 -25 -24 -25h-229v-176h176q25 0 25 -24v-58q0 -24 -25 -24h-176v-197h237q28 0 24 -25l-10 -64q-1 -13 -7.5 -18t-20.5 -5h-333q-25 0 -25 25zM398 909l-78 -130q-13 -21 -34 -21h-43q-27 0 -16 23
l57 130q10 22 32 22h67q30 0 15 -24z" />
    <glyph glyph-name="Ecircumflex" unicode="&#xca;" horiz-adv-x="497" 
d="M65 25v647q0 14 5.5 19.5t19.5 5.5h328q14 0 20 -5t8 -18l7 -58q3 -25 -24 -25h-229v-176h176q25 0 25 -24v-58q0 -24 -25 -24h-176v-197h237q28 0 24 -25l-10 -64q-1 -13 -7.5 -18t-20.5 -5h-333q-25 0 -25 25zM123 785l82 113q15 20 39 20h44q24 0 38 -20l83 -113
q16 -22 -12 -22h-56q-14 0 -20.5 4t-15.5 16l-42 58l-41 -57q-13 -21 -35 -21h-53q-27 0 -11 22z" />
    <glyph glyph-name="Edieresis" unicode="&#xcb;" horiz-adv-x="497" 
d="M65 25v647q0 14 5.5 19.5t19.5 5.5h328q14 0 20 -5t8 -18l7 -58q3 -25 -24 -25h-229v-176h176q25 0 25 -24v-58q0 -24 -25 -24h-176v-197h237q28 0 24 -25l-10 -64q-1 -13 -7.5 -18t-20.5 -5h-333q-25 0 -25 25zM230 847v-60q0 -14 -5 -19.5t-19 -5.5h-68q-14 0 -19 5.5
t-5 19.5v60q0 13 5 18.5t19 5.5h68q14 0 19 -5.5t5 -18.5zM415 847v-60q0 -14 -5 -19.5t-19 -5.5h-68q-14 0 -19 5.5t-5 19.5v60q0 13 5.5 18.5t18.5 5.5h68q13 0 18.5 -5.5t5.5 -18.5z" />
    <glyph glyph-name="Igrave" unicode="&#xcc;" horiz-adv-x="265" 
d="M65 25v647q0 25 25 25h85q25 0 25 -25v-647q0 -25 -25 -25h-85q-25 0 -25 25zM78 779l-79 130q-14 24 16 24h67q13 0 19.5 -4.5t11.5 -17.5l58 -130q5 -13 1.5 -18t-17.5 -5h-44q-13 0 -19.5 4.5t-13.5 16.5z" />
    <glyph glyph-name="Iacute" unicode="&#xcd;" horiz-adv-x="265" 
d="M65 25v647q0 25 25 25h85q25 0 25 -25v-647q0 -25 -25 -25h-85q-25 0 -25 25zM265 909l-78 -130q-13 -21 -34 -21h-43q-27 0 -16 23l57 130q10 22 32 22h67q30 0 15 -24z" />
    <glyph glyph-name="Icircumflex" unicode="&#xce;" horiz-adv-x="265" 
d="M65 25v647q0 25 25 25h85q25 0 25 -25v-647q0 -25 -25 -25h-85q-25 0 -25 25zM-10 785l82 113q15 20 39 20h44q24 0 38 -20l83 -113q16 -22 -12 -22h-56q-14 0 -20.5 4t-15.5 16l-42 58l-41 -57q-13 -21 -35 -21h-53q-27 0 -11 22z" />
    <glyph glyph-name="Idieresis" unicode="&#xcf;" horiz-adv-x="265" 
d="M65 25v647q0 25 25 25h85q25 0 25 -25v-647q0 -25 -25 -25h-85q-25 0 -25 25zM97 847v-60q0 -14 -5 -19.5t-19 -5.5h-68q-14 0 -19 5.5t-5 19.5v60q0 13 5.5 18.5t18.5 5.5h68q13 0 18.5 -5.5t5.5 -18.5zM282 847v-60q0 -14 -5 -19.5t-19 -5.5h-68q-14 0 -19 5.5t-5 19.5
v60q0 13 5 18.5t19 5.5h68q14 0 19 -5.5t5 -18.5z" />
    <glyph glyph-name="Eth" unicode="&#xd0;" horiz-adv-x="557" 
d="M14 353v29q0 25 24 25h32v265q0 25 25 25h177q117 0 172 -44.5t55 -145.5v-316q0 -100 -57.5 -145.5t-175.5 -45.5h-171q-25 0 -25 25v303h-32q-24 0 -24 25zM367 192v318q0 43 -20.5 62t-68.5 19h-73v-184h39q24 0 24 -25v-29q0 -25 -24 -25h-39v-216h67q50 0 72.5 19
t22.5 61z" />
    <glyph glyph-name="Ntilde" unicode="&#xd1;" horiz-adv-x="581" 
d="M65 25v647q0 25 25 25h89q22 0 31 -23l125 -299q51 -122 63 -165h4q-11 110 -11 297v165q0 25 24 25h77q24 0 24 -25v-647q0 -25 -25 -25h-89q-21 0 -31 23l-122 293q-53 120 -66 170h-4q11 -116 11 -308v-153q0 -25 -24 -25h-76q-25 0 -25 25zM157 780l-20 29
q-11 14 1 29q28 42 87 42q31 0 71 -22t65 -22q24 0 42 22q15 17 26 -2l20 -30q9 -13 -2 -30q-32 -48 -88 -48q-31 0 -69.5 22t-64.5 22q-21 0 -45 -17q-13 -11 -23 5z" />
    <glyph glyph-name="Ograve" unicode="&#xd2;" horiz-adv-x="577" 
d="M58 177v343q0 100 57.5 144.5t172.5 44.5h6q114 0 170 -45t56 -144v-343q0 -100 -58 -144.5t-173 -44.5h-6q-115 0 -170 44t-55 145zM283 100h6q50 0 73 20t23 63v336q0 44 -21.5 64t-70.5 20h-5q-50 0 -72.5 -20.5t-22.5 -63.5v-336q0 -44 20.5 -63.5t69.5 -19.5z
M233 778l-79 130q-13 24 16 24h67q13 0 19.5 -4.5t11.5 -17.5l58 -130q5 -13 1.5 -18t-17.5 -5h-44q-13 0 -19.5 4.5t-13.5 16.5z" />
    <glyph glyph-name="Oacute" unicode="&#xd3;" horiz-adv-x="577" 
d="M58 177v343q0 100 57.5 144.5t172.5 44.5h6q114 0 170 -45t56 -144v-343q0 -100 -58 -144.5t-173 -44.5h-6q-115 0 -170 44t-55 145zM283 100h6q50 0 73 20t23 63v336q0 44 -21.5 64t-70.5 20h-5q-50 0 -72.5 -20.5t-22.5 -63.5v-336q0 -44 20.5 -63.5t69.5 -19.5z
M421 908l-78 -130q-13 -21 -34 -21h-43q-27 0 -16 23l57 130q10 22 32 22h67q30 0 15 -24z" />
    <glyph glyph-name="Ocircumflex" unicode="&#xd4;" horiz-adv-x="577" 
d="M58 177v343q0 100 57.5 144.5t172.5 44.5h6q114 0 170 -45t56 -144v-343q0 -100 -58 -144.5t-173 -44.5h-6q-115 0 -170 44t-55 145zM283 100h6q50 0 73 20t23 63v336q0 44 -21.5 64t-70.5 20h-5q-50 0 -72.5 -20.5t-22.5 -63.5v-336q0 -44 20.5 -63.5t69.5 -19.5z
M146 784l82 113q15 20 39 20h44q24 0 38 -20l83 -113q16 -22 -12 -22h-56q-14 0 -20.5 4t-15.5 16l-42 58l-41 -57q-13 -21 -35 -21h-53q-27 0 -11 22z" />
    <glyph glyph-name="Otilde" unicode="&#xd5;" horiz-adv-x="577" 
d="M58 177v343q0 100 57.5 144.5t172.5 44.5h6q114 0 170 -45t56 -144v-343q0 -100 -58 -144.5t-173 -44.5h-6q-115 0 -170 44t-55 145zM283 100h6q50 0 73 20t23 63v336q0 44 -21.5 64t-70.5 20h-5q-50 0 -72.5 -20.5t-22.5 -63.5v-336q0 -44 20.5 -63.5t69.5 -19.5z
M153 779l-20 29q-11 14 1 29q28 42 87 42q31 0 71 -22t65 -22q24 0 42 22q15 17 26 -2l20 -30q9 -13 -2 -30q-32 -48 -88 -48q-31 0 -69.5 22t-64.5 22q-21 0 -45 -17q-13 -11 -23 5z" />
    <glyph glyph-name="Odieresis" unicode="&#xd6;" horiz-adv-x="577" 
d="M58 177v343q0 100 57.5 144.5t172.5 44.5h6q114 0 170 -45t56 -144v-343q0 -100 -58 -144.5t-173 -44.5h-6q-115 0 -170 44t-55 145zM283 100h6q50 0 73 20t23 63v336q0 44 -21.5 64t-70.5 20h-5q-50 0 -72.5 -20.5t-22.5 -63.5v-336q0 -44 20.5 -63.5t69.5 -19.5z
M253 846v-60q0 -14 -5 -19.5t-19 -5.5h-68q-14 0 -19 5.5t-5 19.5v60q0 14 5.5 19t18.5 5h68q13 0 18.5 -5t5.5 -19zM438 846v-60q0 -14 -5 -19.5t-19 -5.5h-68q-14 0 -19 5.5t-5 19.5v60q0 14 5 19t19 5h68q14 0 19 -5t5 -19z" />
    <glyph glyph-name="multiply" unicode="&#xd7;" 
d="M107 109l-39 40q-18 17 0 35l135 130l-136 132q-17 17 0 35l39 40q18 18 35 1l138 -133l134 131q17 18 35 0l39 -40q17 -17 0 -34l-135 -132l135 -130q17 -18 0 -35l-39 -40q-10 -11 -17 -11t-17 11l-135 131l-137 -132q-18 -18 -35 1z" />
    <glyph glyph-name="Oslash" unicode="&#xd8;" horiz-adv-x="575" 
d="M81 -53l34 84q-57 45 -57 147v341q0 100 57 145t172 45h6q55 0 94 -10l19 47q9 23 31 23h36q29 0 18 -23l-34 -80q60 -47 60 -147v-341q0 -100 -57.5 -145t-171.5 -45h-7q-53 0 -94 9l-22 -50q-6 -13 -11.5 -18t-18.5 -5h-35q-27 0 -19 23zM282 100h5q63 0 79 28t16 109
v229q0 43 -2 63t-10 40t-26.5 27t-51.5 7h-6q-62 0 -77.5 -28.5t-15.5 -108.5v-229q0 -44 1.5 -63.5t10 -40t26.5 -27t51 -6.5z" />
    <glyph glyph-name="Ugrave" unicode="&#xd9;" horiz-adv-x="562" 
d="M61 176v496q0 25 25 25h85q25 0 25 -25v-493q0 -42 19 -60.5t64 -18.5t66 18.5t21 60.5v493q0 25 25 25h85q25 0 25 -25v-496q0 -188 -221 -188h-5q-106 0 -160 44t-54 144zM225 779l-79 130q-13 24 16 24h67q13 0 19.5 -4.5t11.5 -17.5l58 -130q5 -13 1.5 -18t-17.5 -5
h-44q-13 0 -19.5 4.5t-13.5 16.5z" />
    <glyph glyph-name="Uacute" unicode="&#xda;" horiz-adv-x="562" 
d="M61 176v496q0 25 25 25h85q25 0 25 -25v-493q0 -42 19 -60.5t64 -18.5t66 18.5t21 60.5v493q0 25 25 25h85q25 0 25 -25v-496q0 -188 -221 -188h-5q-106 0 -160 44t-54 144zM412 909l-78 -130q-13 -21 -34 -21h-43q-27 0 -16 23l57 130q10 22 32 22h67q30 0 15 -24z" />
    <glyph glyph-name="Ucircumflex" unicode="&#xdb;" horiz-adv-x="562" 
d="M61 176v496q0 25 25 25h85q25 0 25 -25v-493q0 -42 19 -60.5t64 -18.5t66 18.5t21 60.5v493q0 25 25 25h85q25 0 25 -25v-496q0 -188 -221 -188h-5q-106 0 -160 44t-54 144zM137 785l82 113q15 20 39 20h44q24 0 38 -20l83 -113q16 -22 -12 -22h-56q-14 0 -20.5 4
t-15.5 16l-42 58l-41 -57q-13 -21 -35 -21h-53q-27 0 -11 22z" />
    <glyph glyph-name="Udieresis" unicode="&#xdc;" horiz-adv-x="562" 
d="M61 176v496q0 25 25 25h85q25 0 25 -25v-493q0 -42 19 -60.5t64 -18.5t66 18.5t21 60.5v493q0 25 25 25h85q25 0 25 -25v-496q0 -188 -221 -188h-5q-106 0 -160 44t-54 144zM245 847v-60q0 -14 -5 -19.5t-19 -5.5h-68q-14 0 -19 5.5t-5 19.5v60q0 13 5.5 18.5t18.5 5.5
h68q13 0 18.5 -5.5t5.5 -18.5zM430 847v-60q0 -14 -5 -19.5t-19 -5.5h-68q-14 0 -19 5.5t-5 19.5v60q0 13 5 18.5t19 5.5h68q14 0 19 -5.5t5 -18.5z" />
    <glyph glyph-name="Yacute" unicode="&#xdd;" horiz-adv-x="502" 
d="M180 25v282l-174 357q-11 24 17 26l89 10q23 3 31 -20l71 -152l35 -84h2q12 32 36 84l72 153q6 13 12.5 16.5t19.5 2.5l87 -10q25 -1 15 -26l-177 -358v-281q0 -25 -25 -25h-86q-14 0 -19.5 5.5t-5.5 19.5zM385 909l-78 -130q-13 -21 -34 -21h-43q-27 0 -16 23l57 130
q10 22 32 22h67q30 0 15 -24z" />
    <glyph glyph-name="Thorn" unicode="&#xde;" horiz-adv-x="534" 
d="M65 25v647q0 25 25 25h85q25 0 25 -25v-91h69q120 0 170.5 -41.5t50.5 -146.5v-47q0 -105 -52.5 -147t-173.5 -42h-64v-132q0 -14 -6 -19.5t-22 -5.5h-82q-25 0 -25 25zM200 264h68q56 0 73 19.5t17 77.5v42q0 43 -20.5 59t-76.5 16h-61v-214z" />
    <glyph glyph-name="germandbls" unicode="&#xdf;" horiz-adv-x="550" 
d="M60 25v518q0 93 52 129.5t144 36.5h15q92 0 140.5 -38t48.5 -138v-42q0 -82 -35 -113q37 -15 56 -47.5t19 -96.5v-66q0 -52 -13.5 -88t-39 -54t-53.5 -25t-65 -7q-31 0 -51 3q-14 2 -18 8t-6 21l-5 51q-1 12 3.5 16.5t16.5 3.5q38 -2 43 -2q28 0 42 17.5t14 62.5v52
q0 47 -14 63.5t-49 16.5h-24q-24 0 -24 24v51q0 24 23 24h4q48 0 48 72v53q0 46 -14 62.5t-49 16.5h-9q-34 0 -50.5 -14.5t-16.5 -49.5v-521q0 -25 -25 -25h-83q-25 0 -25 25z" />
    <glyph glyph-name="agrave" unicode="&#xe0;" horiz-adv-x="494" 
d="M39 141v19q0 83 49.5 114t146.5 37l72 3v35q0 36 -15.5 50.5t-50.5 14.5q-59 0 -131 -17q-28 -8 -26 20l4 48q3 23 26 29q56 18 133 18q90 0 140 -37.5t50 -131.5v-286q0 -25 -23 -35q-72 -31 -180 -31q-100 0 -147.5 32.5t-47.5 117.5zM168 162v-14q0 -31 16 -45t53 -14
q42 0 70 8v129q-45 -1 -70 -3q-37 -4 -53 -16t-16 -45zM197 608l-79 130q-13 24 16 24h67q13 0 19.5 -4.5t11.5 -17.5l58 -130q5 -13 1.5 -18t-17.5 -5h-44q-13 0 -19.5 4.5t-13.5 16.5z" />
    <glyph glyph-name="aacute" unicode="&#xe1;" horiz-adv-x="494" 
d="M39 141v19q0 83 49.5 114t146.5 37l72 3v35q0 36 -15.5 50.5t-50.5 14.5q-59 0 -131 -17q-28 -8 -26 20l4 48q3 23 26 29q56 18 133 18q90 0 140 -37.5t50 -131.5v-286q0 -25 -23 -35q-72 -31 -180 -31q-100 0 -147.5 32.5t-47.5 117.5zM168 162v-14q0 -31 16 -45t53 -14
q42 0 70 8v129q-45 -1 -70 -3q-37 -4 -53 -16t-16 -45zM385 738l-78 -130q-13 -21 -34 -21h-43q-27 0 -16 23l57 130q10 22 32 22h67q30 0 15 -24z" />
    <glyph glyph-name="acircumflex" unicode="&#xe2;" horiz-adv-x="494" 
d="M39 141v19q0 83 49.5 114t146.5 37l72 3v35q0 36 -15.5 50.5t-50.5 14.5q-59 0 -131 -17q-28 -8 -26 20l4 48q3 23 26 29q56 18 133 18q90 0 140 -37.5t50 -131.5v-286q0 -25 -23 -35q-72 -31 -180 -31q-100 0 -147.5 32.5t-47.5 117.5zM168 162v-14q0 -31 16 -45t53 -14
q42 0 70 8v129q-45 -1 -70 -3q-37 -4 -53 -16t-16 -45zM110 614l82 113q15 20 39 20h44q24 0 38 -20l83 -113q16 -22 -12 -22h-56q-14 0 -20.5 4t-15.5 16l-42 58l-41 -57q-13 -21 -35 -21h-53q-27 0 -11 22z" />
    <glyph glyph-name="atilde" unicode="&#xe3;" horiz-adv-x="494" 
d="M39 141v19q0 83 49.5 114t146.5 37l72 3v35q0 36 -15.5 50.5t-50.5 14.5q-59 0 -131 -17q-28 -8 -26 20l4 48q3 23 26 29q56 18 133 18q90 0 140 -37.5t50 -131.5v-286q0 -25 -23 -35q-72 -31 -180 -31q-100 0 -147.5 32.5t-47.5 117.5zM168 162v-14q0 -31 16 -45t53 -14
q42 0 70 8v129q-45 -1 -70 -3q-37 -4 -53 -16t-16 -45zM117 609l-20 29q-11 14 1 29q29 42 87 42q31 0 71 -22t65 -22q24 0 42 22q15 17 26 -2l20 -30q9 -13 -2 -30q-32 -48 -88 -48q-31 0 -69.5 22t-64.5 22q-21 0 -45 -17q-13 -11 -23 5z" />
    <glyph glyph-name="adieresis" unicode="&#xe4;" horiz-adv-x="494" 
d="M39 141v19q0 83 49.5 114t146.5 37l72 3v35q0 36 -15.5 50.5t-50.5 14.5q-59 0 -131 -17q-28 -8 -26 20l4 48q3 23 26 29q56 18 133 18q90 0 140 -37.5t50 -131.5v-286q0 -25 -23 -35q-72 -31 -180 -31q-100 0 -147.5 32.5t-47.5 117.5zM168 162v-14q0 -31 16 -45t53 -14
q42 0 70 8v129q-45 -1 -70 -3q-37 -4 -53 -16t-16 -45zM217 676v-60q0 -14 -5 -19.5t-19 -5.5h-68q-14 0 -19 5.5t-5 19.5v60q0 14 5.5 19t18.5 5h68q13 0 18.5 -5t5.5 -19zM402 676v-60q0 -14 -5 -19.5t-19 -5.5h-68q-14 0 -19 5.5t-5 19.5v60q0 14 5 19t19 5h68
q14 0 19 -5t5 -19z" />
    <glyph glyph-name="aring" unicode="&#xe5;" horiz-adv-x="494" 
d="M39 141v19q0 83 49.5 114t146.5 37l72 3v35q0 36 -15.5 50.5t-50.5 14.5q-59 0 -131 -17q-28 -8 -26 20l4 48q3 23 26 29q56 18 133 18q90 0 140 -37.5t50 -131.5v-286q0 -25 -23 -35q-72 -31 -180 -31q-100 0 -147.5 32.5t-47.5 117.5zM168 162v-14q0 -31 16 -45t53 -14
q42 0 70 8v129q-45 -1 -70 -3q-37 -4 -53 -16t-16 -45zM139 660v35q0 90 101 90h25q101 0 101 -90v-35q0 -89 -102 -89h-24q-101 0 -101 89zM244 628h15q24 0 34 7t10 27v25q0 25 -8.5 33t-34.5 8h-15q-27 0 -35.5 -8t-8.5 -33v-18q0 -26 8 -33.5t35 -7.5z" />
    <glyph glyph-name="ae" unicode="&#xe6;" horiz-adv-x="739" 
d="M39 142v18q0 74 41 106t117 41q18 2 110 7v34q0 36 -15.5 51t-51.5 15q-58 0 -130 -18q-15 -4 -21 0.5t-5 19.5l4 48q2 20 26 30q55 17 133 17q82 0 122 -39q49 42 136 42h9q94 0 139.5 -36t45.5 -114v-10q0 -78 -37.5 -108.5t-120.5 -30.5q-57 0 -108 13v-60
q0 -44 18.5 -60t72.5 -16q66 0 134 19q12 4 19 -2.5t5 -18.5l-5 -47q-2 -24 -29 -34q-45 -18 -123 -18h-9q-96 0 -144 48q-51 -48 -149 -48q-89 0 -136.5 34t-47.5 117zM433 357v-44q35 -11 85 -11q30 0 43.5 12.5t13.5 39.5v8q0 30 -14.5 44t-49.5 14h-5q-38 0 -55.5 -14
t-17.5 -49zM168 160v-9q0 -32 16 -46t53 -14q44 0 57 20t13 70v45q-39 0 -70 -3q-38 -4 -53.5 -16t-15.5 -47z" />
    <glyph glyph-name="ccedilla" unicode="&#xe7;" horiz-adv-x="411" 
d="M96 -214v25q0 21 25 16q58 -12 87 -12q71 0 71 43q0 27 -20 35t-73 8h-2q-24 0 -24 25v74q-106 29 -106 160v183q0 169 180 169h5q60 0 108 -12q24 -5 25 -30l4 -45q1 -17 -4 -21t-21 -1q-55 10 -94 10h-5q-65 0 -65 -68v-181q0 -37 16 -52t50 -15h5q37 0 97 12
q15 3 21 -1.5t5 -19.5l-5 -53q-1 -13 -6.5 -19.5t-19.5 -11.5q-45 -13 -113 -13h-8v-32q65 -1 97 -29t32 -74q0 -53 -37.5 -81t-96.5 -28q-56 0 -91 9q-37 7 -37 30z" />
    <glyph glyph-name="egrave" unicode="&#xe8;" horiz-adv-x="490" 
d="M54 159v187q0 91 51 130t151 39h9q94 0 139.5 -36.5t45.5 -113.5v-12q0 -78 -38 -108.5t-120 -30.5q-56 0 -109 12v-60q0 -43 19 -58.5t72 -15.5q65 0 135 19q12 4 18.5 -2t5.5 -19l-5 -48q-2 -15 -8.5 -21.5t-21.5 -11.5q-45 -18 -141 -18h-8q-93 0 -144 37t-51 131z
M183 357v-45q31 -11 84 -11q32 0 45 12.5t13 39.5v9q0 32 -14 45.5t-51 13.5h-5q-38 0 -55 -14.5t-17 -49.5zM198 608l-79 130q-13 24 16 24h67q13 0 19.5 -4.5t11.5 -17.5l58 -130q5 -13 1.5 -18t-17.5 -5h-44q-13 0 -19.5 4.5t-13.5 16.5z" />
    <glyph glyph-name="eacute" unicode="&#xe9;" horiz-adv-x="490" 
d="M54 159v187q0 91 51 130t151 39h9q94 0 139.5 -36.5t45.5 -113.5v-12q0 -78 -38 -108.5t-120 -30.5q-56 0 -109 12v-60q0 -43 19 -58.5t72 -15.5q65 0 135 19q12 4 18.5 -2t5.5 -19l-5 -48q-2 -15 -8.5 -21.5t-21.5 -11.5q-45 -18 -141 -18h-8q-93 0 -144 37t-51 131z
M183 357v-45q31 -11 84 -11q32 0 45 12.5t13 39.5v9q0 32 -14 45.5t-51 13.5h-5q-38 0 -55 -14.5t-17 -49.5zM386 738l-78 -130q-13 -21 -34 -21h-43q-27 0 -16 23l57 130q10 22 32 22h67q30 0 15 -24z" />
    <glyph glyph-name="ecircumflex" unicode="&#xea;" horiz-adv-x="490" 
d="M54 159v187q0 91 51 130t151 39h9q94 0 139.5 -36.5t45.5 -113.5v-12q0 -78 -38 -108.5t-120 -30.5q-56 0 -109 12v-60q0 -43 19 -58.5t72 -15.5q65 0 135 19q12 4 18.5 -2t5.5 -19l-5 -48q-2 -15 -8.5 -21.5t-21.5 -11.5q-45 -18 -141 -18h-8q-93 0 -144 37t-51 131z
M183 357v-45q31 -11 84 -11q32 0 45 12.5t13 39.5v9q0 32 -14 45.5t-51 13.5h-5q-38 0 -55 -14.5t-17 -49.5zM111 614l82 113q15 20 39 20h44q24 0 38 -20l83 -113q16 -22 -12 -22h-56q-14 0 -20.5 4t-15.5 16l-42 58l-41 -57q-13 -21 -35 -21h-53q-27 0 -11 22z" />
    <glyph glyph-name="edieresis" unicode="&#xeb;" horiz-adv-x="490" 
d="M54 159v187q0 91 51 130t151 39h9q94 0 139.5 -36.5t45.5 -113.5v-12q0 -78 -38 -108.5t-120 -30.5q-56 0 -109 12v-60q0 -43 19 -58.5t72 -15.5q65 0 135 19q12 4 18.5 -2t5.5 -19l-5 -48q-2 -15 -8.5 -21.5t-21.5 -11.5q-45 -18 -141 -18h-8q-93 0 -144 37t-51 131z
M183 357v-45q31 -11 84 -11q32 0 45 12.5t13 39.5v9q0 32 -14 45.5t-51 13.5h-5q-38 0 -55 -14.5t-17 -49.5zM218 676v-60q0 -14 -5 -19.5t-19 -5.5h-68q-14 0 -19 5.5t-5 19.5v60q0 14 5 19t19 5h68q14 0 19 -5t5 -19zM403 676v-60q0 -14 -5 -19.5t-19 -5.5h-68
q-14 0 -19 5.5t-5 19.5v60q0 14 5.5 19t18.5 5h68q13 0 18.5 -5t5.5 -19z" />
    <glyph glyph-name="igrave" unicode="&#xec;" horiz-adv-x="259" 
d="M76 608l-79 130q-14 24 16 24h67q13 0 19.5 -4.5t11.5 -17.5l58 -130q5 -13 1.5 -18t-17.5 -5h-44q-13 0 -19.5 4.5t-13.5 16.5zM63 25v448q0 25 24 26l84 8q25 3 25 -24v-458q0 -25 -24 -25h-85q-24 0 -24 25z" />
    <glyph glyph-name="iacute" unicode="&#xed;" horiz-adv-x="259" 
d="M263 738l-78 -130q-13 -21 -34 -21h-43q-27 0 -16 23l57 130q10 22 32 22h67q30 0 15 -24zM63 25v448q0 25 24 26l84 8q25 3 25 -24v-458q0 -25 -24 -25h-85q-24 0 -24 25z" />
    <glyph glyph-name="icircumflex" unicode="&#xee;" horiz-adv-x="259" 
d="M63 25v448q0 25 24 26l84 8q25 3 25 -24v-458q0 -25 -24 -25h-85q-24 0 -24 25zM-12 614l82 113q15 20 39 20h44q24 0 38 -20l83 -113q16 -22 -12 -22h-56q-14 0 -20.5 4t-15.5 16l-42 58l-41 -57q-13 -21 -35 -21h-53q-27 0 -11 22z" />
    <glyph glyph-name="idieresis" unicode="&#xef;" horiz-adv-x="259" 
d="M96 676v-60q0 -14 -5 -19.5t-19 -5.5h-68q-14 0 -19 5.5t-5 19.5v60q0 14 5 19t19 5h68q14 0 19 -5t5 -19zM281 676v-60q0 -14 -5 -19.5t-19 -5.5h-68q-14 0 -19 5.5t-5 19.5v60q0 14 5.5 19t18.5 5h68q13 0 18.5 -5t5.5 -19zM63 25v448q0 25 24 26l84 8q25 3 25 -24
v-458q0 -25 -24 -25h-85q-24 0 -24 25z" />
    <glyph glyph-name="eth" unicode="&#xf0;" horiz-adv-x="511" 
d="M144 570l-10 23q-9 23 13 32l57 24q-6 7 -37 38q-11 11 -8 20.5t21 11.5l79 8q25 2 42 -15l17 -16l49 20q14 6 21 3.5t13 -17.5l8 -21q6 -14 3 -21t-17 -13l-28 -12q87 -130 87 -312v-174q0 -92 -51.5 -126.5t-146.5 -34.5h-9q-92 0 -142.5 36t-50.5 129v194
q0 168 173 168h3q40 0 63 -9q-16 42 -42 82l-74 -31q-9 -4 -15 -4t-10 4t-8 13zM249 94h6q33 0 49.5 14.5t16.5 49.5v183q0 41 -15.5 58t-48.5 17h-4q-34 0 -50.5 -14.5t-16.5 -49.5v-194q0 -36 15 -50t48 -14z" />
    <glyph glyph-name="ntilde" unicode="&#xf1;" horiz-adv-x="512" 
d="M61 25v421q0 25 22 35q72 31 182 31q92 0 140.5 -37t48.5 -131v-319q0 -25 -24 -25h-85q-25 0 -25 25v320q0 38 -14 53t-51 15q-40 0 -61 -10v-378q0 -25 -24 -25h-85q-24 0 -24 25zM122 609l-20 29q-11 14 1 29q29 42 87 42q32 0 71 -22t65 -22q24 0 42 22q15 17 26 -2
l20 -30q9 -13 -2 -30q-32 -48 -88 -48q-31 0 -69.5 22t-64.5 22q-21 0 -45 -17q-13 -11 -23 5z" />
    <glyph glyph-name="ograve" unicode="&#xf2;" horiz-adv-x="507" 
d="M54 155v192q0 94 52.5 131t144.5 37h9q92 0 143 -37t51 -131v-192q0 -93 -53 -130t-145 -37h-9q-92 0 -142.5 37t-50.5 130zM249 94h6q66 0 66 65v193q0 35 -15 49.5t-48 14.5h-5q-34 0 -50.5 -14.5t-16.5 -49.5v-193q0 -35 15.5 -50t47.5 -15zM199 608l-79 130
q-14 24 16 24h67q13 0 19.5 -4.5t11.5 -17.5l58 -130q5 -13 1.5 -18t-17.5 -5h-44q-13 0 -19.5 4.5t-13.5 16.5z" />
    <glyph glyph-name="oacute" unicode="&#xf3;" horiz-adv-x="507" 
d="M54 155v192q0 94 52.5 131t144.5 37h9q92 0 143 -37t51 -131v-192q0 -93 -53 -130t-145 -37h-9q-92 0 -142.5 37t-50.5 130zM249 94h6q66 0 66 65v193q0 35 -15 49.5t-48 14.5h-5q-34 0 -50.5 -14.5t-16.5 -49.5v-193q0 -35 15.5 -50t47.5 -15zM387 738l-78 -130
q-13 -21 -34 -21h-43q-27 0 -16 23l57 130q10 22 32 22h67q30 0 15 -24z" />
    <glyph glyph-name="ocircumflex" unicode="&#xf4;" horiz-adv-x="507" 
d="M54 155v192q0 94 52.5 131t144.5 37h9q92 0 143 -37t51 -131v-192q0 -93 -53 -130t-145 -37h-9q-92 0 -142.5 37t-50.5 130zM249 94h6q66 0 66 65v193q0 35 -15 49.5t-48 14.5h-5q-34 0 -50.5 -14.5t-16.5 -49.5v-193q0 -35 15.5 -50t47.5 -15zM112 614l82 113
q15 20 39 20h44q24 0 38 -20l83 -113q16 -22 -12 -22h-56q-14 0 -20.5 4t-15.5 16l-42 58l-41 -57q-13 -21 -35 -21h-53q-27 0 -11 22z" />
    <glyph glyph-name="otilde" unicode="&#xf5;" horiz-adv-x="507" 
d="M54 155v192q0 94 52.5 131t144.5 37h9q92 0 143 -37t51 -131v-192q0 -93 -53 -130t-145 -37h-9q-92 0 -142.5 37t-50.5 130zM249 94h6q66 0 66 65v193q0 35 -15 49.5t-48 14.5h-5q-34 0 -50.5 -14.5t-16.5 -49.5v-193q0 -35 15.5 -50t47.5 -15zM119 609l-20 29
q-11 14 1 29q28 42 87 42q31 0 71 -22t65 -22q24 0 42 22q15 17 26 -2l20 -30q9 -13 -2 -30q-32 -48 -88 -48q-31 0 -69.5 22t-64.5 22q-21 0 -45 -17q-13 -11 -23 5z" />
    <glyph glyph-name="odieresis" unicode="&#xf6;" horiz-adv-x="507" 
d="M54 155v192q0 94 52.5 131t144.5 37h9q92 0 143 -37t51 -131v-192q0 -93 -53 -130t-145 -37h-9q-92 0 -142.5 37t-50.5 130zM249 94h6q66 0 66 65v193q0 35 -15 49.5t-48 14.5h-5q-34 0 -50.5 -14.5t-16.5 -49.5v-193q0 -35 15.5 -50t47.5 -15zM219 676v-60
q0 -14 -5 -19.5t-19 -5.5h-68q-14 0 -19 5.5t-5 19.5v60q0 14 5.5 19t18.5 5h68q13 0 18.5 -5t5.5 -19zM404 676v-60q0 -14 -5 -19.5t-19 -5.5h-68q-14 0 -19 5.5t-5 19.5v60q0 14 5 19t19 5h68q14 0 19 -5t5 -19z" />
    <glyph glyph-name="divide" unicode="&#xf7;" 
d="M210 461v63q0 25 24 25h87q24 0 24 -25v-63q0 -25 -24 -25h-87q-24 0 -24 25zM63 287v53q0 25 25 25h379q14 0 19.5 -5.5t5.5 -19.5v-53q0 -14 -5.5 -19.5t-19.5 -5.5h-379q-14 0 -19.5 5.5t-5.5 19.5zM210 101v64q0 13 5 18.5t19 5.5h87q13 0 18.5 -5.5t5.5 -18.5v-64
q0 -13 -5.5 -18.5t-18.5 -5.5h-87q-14 0 -19 5.5t-5 18.5z" />
    <glyph glyph-name="oslash" unicode="&#xf8;" horiz-adv-x="507" 
d="M79 -53l33 73q-58 40 -58 135v193q0 93 52 130t144 37h10q42 0 67 -6l19 43q7 14 12 18.5t18 4.5h36q29 0 18 -23l-32 -71q56 -40 56 -133v-193q0 -93 -53 -130t-145 -37h-10q-37 0 -62 4l-20 -45q-6 -14 -12 -18.5t-19 -4.5h-36q-29 0 -18 23zM249 94h6q33 0 49.5 14.5
t16.5 49.5v195q0 35 -15 49t-48 14h-5q-34 0 -50.5 -14t-16.5 -49v-195q0 -35 15 -49.5t48 -14.5z" />
    <glyph glyph-name="ugrave" unicode="&#xf9;" horiz-adv-x="512" 
d="M58 158v315q0 25 23 26l85 8q13 1 19 -5t6 -20v-317q0 -38 14.5 -53t51.5 -15q36 0 60 10v375q0 14 5.5 20t18.5 5l86 -8q24 -1 24 -26v-416q0 -25 -23 -35q-70 -31 -181 -31q-92 0 -140.5 37t-48.5 130zM199 608l-79 130q-14 24 16 24h67q13 0 19.5 -4.5t11.5 -17.5
l58 -130q5 -13 1.5 -18t-17.5 -5h-44q-13 0 -19.5 4.5t-13.5 16.5z" />
    <glyph glyph-name="uacute" unicode="&#xfa;" horiz-adv-x="512" 
d="M58 158v315q0 25 23 26l85 8q13 1 19 -5t6 -20v-317q0 -38 14.5 -53t51.5 -15q36 0 60 10v375q0 14 5.5 20t18.5 5l86 -8q24 -1 24 -26v-416q0 -25 -23 -35q-70 -31 -181 -31q-92 0 -140.5 37t-48.5 130zM386 738l-78 -130q-13 -21 -34 -21h-43q-27 0 -16 23l57 130
q10 22 32 22h67q30 0 15 -24z" />
    <glyph glyph-name="ucircumflex" unicode="&#xfb;" horiz-adv-x="512" 
d="M58 158v315q0 25 23 26l85 8q13 1 19 -5t6 -20v-317q0 -38 14.5 -53t51.5 -15q36 0 60 10v375q0 14 5.5 20t18.5 5l86 -8q24 -1 24 -26v-416q0 -25 -23 -35q-70 -31 -181 -31q-92 0 -140.5 37t-48.5 130zM111 614l82 113q15 20 39 20h44q24 0 38 -20l83 -113
q16 -22 -12 -22h-56q-14 0 -20.5 4t-15.5 16l-42 58l-41 -57q-13 -21 -35 -21h-53q-27 0 -11 22z" />
    <glyph glyph-name="udieresis" unicode="&#xfc;" horiz-adv-x="512" 
d="M58 158v315q0 25 23 26l85 8q13 1 19 -5t6 -20v-317q0 -38 14.5 -53t51.5 -15q36 0 60 10v375q0 14 5.5 20t18.5 5l86 -8q24 -1 24 -26v-416q0 -25 -23 -35q-70 -31 -181 -31q-92 0 -140.5 37t-48.5 130zM218 676v-60q0 -14 -5 -19.5t-19 -5.5h-68q-14 0 -19 5.5t-5 19.5
v60q0 14 5 19t19 5h68q14 0 19 -5t5 -19zM403 676v-60q0 -14 -5 -19.5t-19 -5.5h-68q-14 0 -19 5.5t-5 19.5v60q0 14 5.5 19t18.5 5h68q13 0 18.5 -5t5.5 -19z" />
    <glyph glyph-name="yacute" unicode="&#xfd;" horiz-adv-x="512" 
d="M182 -196l-6 53q-2 14 2.5 19.5t16.5 3.5q32 -4 59 -4q21 0 33.5 3t23 17t10.5 40v86q-26 -22 -86 -22h-4q-173 0 -173 167v306q0 25 23 26l85 8q25 0 25 -25v-313q0 -34 14 -48.5t47 -14.5h3q62 0 62 61v315q0 14 5.5 19.5t19.5 5.5l85 -8q14 -1 19 -6.5t5 -18.5v-535
q0 -50 -14.5 -84t-42 -51t-57.5 -24t-69 -7q-46 0 -68 6q-16 4 -18 25zM386 738l-78 -130q-13 -21 -34 -21h-43q-27 0 -16 23l57 130q10 22 32 22h67q30 0 15 -24z" />
    <glyph glyph-name="thorn" unicode="&#xfe;" horiz-adv-x="514" 
d="M63 -190v881q0 14 5 19.5t19 7.5l85 8q13 2 18.5 -3.5t5.5 -20.5v-140l-2 -68q24 21 85 21h3q179 0 179 -165v-196q0 -166 -181 -166h-3q-59 0 -83 21q2 -31 2 -69v-141q0 -27 -29 -24l-80 7q-24 3 -24 28zM260 94h2q35 0 52 13t17 47v204q0 34 -15 46t-49 12h-4
q-34 0 -50.5 -12t-16.5 -46v-205q0 -34 15 -46.5t49 -12.5z" />
    <glyph glyph-name="ydieresis" unicode="&#xff;" horiz-adv-x="512" 
d="M182 -196l-6 53q-2 14 2.5 19.5t16.5 3.5q32 -4 59 -4q21 0 33.5 3t23 17t10.5 40v86q-26 -22 -86 -22h-4q-173 0 -173 167v306q0 25 23 26l85 8q25 0 25 -25v-313q0 -34 14 -48.5t47 -14.5h3q62 0 62 61v315q0 14 5.5 19.5t19.5 5.5l85 -8q14 -1 19 -6.5t5 -18.5v-535
q0 -50 -14.5 -84t-42 -51t-57.5 -24t-69 -7q-46 0 -68 6q-16 4 -18 25zM404 676v-60q0 -14 -5 -19.5t-19 -5.5h-68q-14 0 -19 5.5t-5 19.5v60q0 14 5 19t19 5h68q14 0 19 -5t5 -19zM219 676v-60q0 -14 -5 -19.5t-19 -5.5h-68q-14 0 -19 5.5t-5 19.5v60q0 14 5.5 19t18.5 5
h68q13 0 18.5 -5t5.5 -19z" />
    <glyph glyph-name="Amacron" unicode="&#x100;" horiz-adv-x="524" 
d="M484 4l-86 -9q-13 -1 -18.5 2.5t-7.5 17.5l-29 142h-168l-27 -143q-4 -22 -27 -19l-82 9q-14 2 -18.5 7t-2.5 18l138 643q2 14 8.5 19.5t20.5 5.5h154q25 0 29 -25l137 -643q3 -13 -2 -18t-19 -7zM329 254l-67 338h-4l-69 -338h140zM121 783v29q0 24 25 24h232
q25 0 25 -24v-29q0 -25 -25 -25h-232q-25 0 -25 25z" />
    <glyph glyph-name="amacron" unicode="&#x101;" horiz-adv-x="494" 
d="M39 141v19q0 83 49.5 114t146.5 37l72 3v35q0 36 -15.5 50.5t-50.5 14.5q-59 0 -131 -17q-28 -8 -26 20l4 48q3 23 26 29q56 18 133 18q90 0 140 -37.5t50 -131.5v-286q0 -25 -23 -35q-72 -31 -180 -31q-100 0 -147.5 32.5t-47.5 117.5zM168 162v-14q0 -31 16 -45t53 -14
q42 0 70 8v129q-45 -1 -70 -3q-37 -4 -53 -16t-16 -45zM111 612v29q0 24 25 24h232q25 0 25 -24v-29q0 -25 -25 -25h-232q-25 0 -25 25z" />
    <glyph glyph-name="Abreve" unicode="&#x102;" horiz-adv-x="524" 
d="M484 4l-86 -9q-13 -1 -18.5 2.5t-7.5 17.5l-29 142h-168l-27 -143q-4 -22 -27 -19l-82 9q-14 2 -18.5 7t-2.5 18l138 643q2 14 8.5 19.5t20.5 5.5h154q25 0 29 -25l137 -643q3 -13 -2 -18t-19 -7zM329 254l-67 338h-4l-69 -338h140zM131 910h39q20 0 26 -23q8 -50 66 -50
q56 0 66 49q3 14 7 19t17 5h40q14 0 18.5 -5.5t2.5 -18.5q-20 -128 -151 -128q-133 0 -151 127q-3 25 20 25z" />
    <glyph glyph-name="abreve" unicode="&#x103;" horiz-adv-x="494" 
d="M39 141v19q0 83 49.5 114t146.5 37l72 3v35q0 36 -15.5 50.5t-50.5 14.5q-59 0 -131 -17q-28 -8 -26 20l4 48q3 23 26 29q56 18 133 18q90 0 140 -37.5t50 -131.5v-286q0 -25 -23 -35q-72 -31 -180 -31q-100 0 -147.5 32.5t-47.5 117.5zM168 162v-14q0 -31 16 -45t53 -14
q42 0 70 8v129q-45 -1 -70 -3q-37 -4 -53 -16t-16 -45zM121 739h39q20 0 26 -23q8 -50 66 -50q56 0 66 49q3 14 7 19t17 5h40q14 0 18.5 -5.5t2.5 -18.5q-20 -128 -151 -128q-133 0 -151 127q-3 25 20 25z" />
    <glyph glyph-name="Aogonek" unicode="&#x104;" horiz-adv-x="524" 
d="M495 -224h-15q-139 0 -139 110q0 62 54 109q-12 -1 -16.5 3t-6.5 17l-29 142h-168l-27 -143q-4 -22 -27 -19l-82 9q-14 2 -18.5 7t-2.5 18l138 643q2 14 8.5 19.5t20.5 5.5h154q25 0 29 -25l137 -643q1 -12 -1 -17q0 -1 -2 -3q-75 -58 -75 -109q0 -43 61 -43h10
q13 0 17.5 -4.5t4.5 -15.5v-41q0 -12 -5.5 -16t-19.5 -4zM329 254l-67 338h-4l-69 -338h140z" />
    <glyph glyph-name="aogonek" unicode="&#x105;" horiz-adv-x="494" 
d="M418 -204h-15q-139 0 -139 110q0 50 34 89q-27 -4 -64 -4q-100 0 -147.5 32.5t-47.5 117.5v19q0 83 49.5 114t146.5 37l72 3v35q0 36 -15.5 50.5t-50.5 14.5q-59 0 -131 -17q-28 -8 -26 20l4 48q3 23 26 29q56 18 133 18q90 0 140 -37.5t50 -131.5v-286q0 -23 -19 -33
q-68 -55 -68 -104q0 -43 61 -43h10q13 0 17.5 -4.5t4.5 -15.5v-41q0 -12 -5.5 -16t-19.5 -4zM168 162v-14q0 -31 16 -45t53 -14q42 0 70 8v129q-45 -1 -70 -3q-37 -4 -53 -16t-16 -45z" />
    <glyph glyph-name="Cacute" unicode="&#x106;" horiz-adv-x="474" 
d="M58 180v337q0 100 56 144.5t166 44.5q60 0 122 -13q13 -3 18 -8.5t7 -19.5l6 -57q2 -13 -3 -17.5t-18 -2.5q-75 12 -125 12q-49 0 -71.5 -19t-22.5 -64v-331q0 -46 20 -64.5t70 -18.5q71 0 132 13q14 3 19.5 -2t3.5 -18l-6 -61q-3 -24 -25 -29q-57 -15 -132 -15
q-109 0 -163 44t-54 145zM404 909l-78 -130q-13 -21 -34 -21h-43q-27 0 -16 23l57 130q10 22 32 22h67q30 0 15 -24z" />
    <glyph glyph-name="cacute" unicode="&#x107;" horiz-adv-x="411" 
d="M381 88l-5 -53q-1 -13 -6.5 -19.5t-19.5 -11.5q-45 -13 -113 -13h-4q-179 0 -179 169v183q0 169 180 169h5q60 0 108 -12q24 -5 25 -30l4 -45q1 -17 -4 -21t-21 -1q-55 10 -94 10h-5q-65 0 -65 -68v-181q0 -37 16 -52t50 -15h5q37 0 97 12q15 3 21 -1.5t5 -19.5zM356 738
l-78 -130q-13 -21 -34 -21h-43q-27 0 -16 23l57 130q10 22 32 22h67q30 0 15 -24z" />
    <glyph glyph-name="Ccircumflex" unicode="&#x108;" horiz-adv-x="474" 
d="M58 180v337q0 100 56 144.5t166 44.5q60 0 122 -13q13 -3 18 -8.5t7 -19.5l6 -57q2 -13 -3 -17.5t-18 -2.5q-75 12 -125 12q-49 0 -71.5 -19t-22.5 -64v-331q0 -46 20 -64.5t70 -18.5q71 0 132 13q14 3 19.5 -2t3.5 -18l-6 -61q-3 -24 -25 -29q-57 -15 -132 -15
q-109 0 -163 44t-54 145zM129 785l82 113q15 20 39 20h44q24 0 38 -20l83 -113q16 -22 -12 -22h-56q-14 0 -20.5 4t-15.5 16l-42 58l-41 -57q-13 -21 -35 -21h-53q-27 0 -11 22z" />
    <glyph glyph-name="ccircumflex" unicode="&#x109;" horiz-adv-x="411" 
d="M381 88l-5 -53q-1 -13 -6.5 -19.5t-19.5 -11.5q-45 -13 -113 -13h-4q-179 0 -179 169v183q0 169 180 169h5q60 0 108 -12q24 -5 25 -30l4 -45q1 -17 -4 -21t-21 -1q-55 10 -94 10h-5q-65 0 -65 -68v-181q0 -37 16 -52t50 -15h5q37 0 97 12q15 3 21 -1.5t5 -19.5zM86 614
l82 113q15 20 39 20h44q24 0 38 -20l83 -113q16 -22 -12 -22h-56q-14 0 -20.5 4t-15.5 16l-42 58l-41 -57q-13 -21 -35 -21h-53q-27 0 -11 22z" />
    <glyph glyph-name="Cdotaccent" unicode="&#x10a;" horiz-adv-x="474" 
d="M58 180v337q0 100 56 144.5t166 44.5q60 0 122 -13q13 -3 18 -8.5t7 -19.5l6 -57q2 -13 -3 -17.5t-18 -2.5q-75 12 -125 12q-49 0 -71.5 -19t-22.5 -64v-331q0 -46 20 -64.5t70 -18.5q71 0 132 13q14 3 19.5 -2t3.5 -18l-6 -61q-3 -24 -25 -29q-57 -15 -132 -15
q-109 0 -163 44t-54 145zM207 782v59q0 25 24 25h81q24 0 24 -25v-59q0 -25 -24 -25h-81q-24 0 -24 25z" />
    <glyph glyph-name="cdotaccent" unicode="&#x10b;" horiz-adv-x="411" 
d="M381 88l-5 -53q-1 -13 -6.5 -19.5t-19.5 -11.5q-45 -13 -113 -13h-4q-179 0 -179 169v183q0 169 180 169h5q60 0 108 -12q24 -5 25 -30l4 -45q1 -17 -4 -21t-21 -1q-55 10 -94 10h-5q-65 0 -65 -68v-181q0 -37 16 -52t50 -15h5q37 0 97 12q15 3 21 -1.5t5 -19.5zM164 611
v59q0 25 24 25h81q24 0 24 -25v-59q0 -25 -24 -25h-81q-24 0 -24 25z" />
    <glyph glyph-name="Ccaron" unicode="&#x10c;" horiz-adv-x="474" 
d="M58 180v337q0 100 56 144.5t166 44.5q60 0 122 -13q13 -3 18 -8.5t7 -19.5l6 -57q2 -13 -3 -17.5t-18 -2.5q-75 12 -125 12q-49 0 -71.5 -19t-22.5 -64v-331q0 -46 20 -64.5t70 -18.5q71 0 132 13q14 3 19.5 -2t3.5 -18l-6 -61q-3 -24 -25 -29q-57 -15 -132 -15
q-109 0 -163 44t-54 145zM218 777l-88 114q-16 22 13 22h56q13 0 19.5 -4t15.5 -16l39 -52l41 52q10 12 16.5 16t19.5 4h52q29 0 13 -22l-88 -114q-14 -19 -37 -19h-37q-14 0 -20 3.5t-15 15.5z" />
    <glyph glyph-name="ccaron" unicode="&#x10d;" horiz-adv-x="411" 
d="M381 88l-5 -53q-1 -13 -6.5 -19.5t-19.5 -11.5q-45 -13 -113 -13h-4q-179 0 -179 169v183q0 169 180 169h5q60 0 108 -12q24 -5 25 -30l4 -45q1 -17 -4 -21t-21 -1q-55 10 -94 10h-5q-65 0 -65 -68v-181q0 -37 16 -52t50 -15h5q37 0 97 12q15 3 21 -1.5t5 -19.5zM177 606
l-88 114q-16 22 13 22h56q14 0 20 -4t15 -16l39 -52l41 52q10 12 16.5 16t19.5 4h52q29 0 13 -22l-88 -114q-14 -19 -37 -19h-37q-14 0 -20 3.5t-15 15.5z" />
    <glyph glyph-name="Dcaron" unicode="&#x10e;" horiz-adv-x="552" 
d="M261 0h-171q-25 0 -25 25v647q0 25 25 25h177q117 0 172 -44.5t55 -145.5v-316q0 -100 -57.5 -145.5t-175.5 -45.5zM362 192v318q0 43 -20.5 62t-68.5 19h-73v-479h67q50 0 72.5 19t22.5 61zM213 777l-88 114q-16 22 13 22h56q14 0 20 -4t15 -16l39 -52l41 52
q10 12 16.5 16t19.5 4h52q29 0 13 -22l-88 -114q-14 -19 -37 -19h-37q-14 0 -20 3.5t-15 15.5z" />
    <glyph glyph-name="dcaron" unicode="&#x10f;" horiz-adv-x="517" 
d="M54 153v194q0 50 15.5 85t42.5 52t54.5 24t58.5 7h3q56 0 96 -22q-3 44 -3 80v130q0 14 5.5 19t19.5 5l83 -8q25 -1 25 -27v-542q0 -93 -51.5 -127.5t-146.5 -34.5h-9q-92 0 -142.5 36t-50.5 129zM249 94h6q33 0 49.5 14.5t16.5 49.5v194q0 64 -64 64h-4
q-34 0 -50.5 -14.5t-16.5 -49.5v-194q0 -36 15 -50t48 -14zM586 581h-55q-27 0 -13 28q37 69 37 154v10q0 25 24 25h63q14 0 19.5 -5.5t5.5 -19.5v-10q0 -95 -41 -158q-6 -9 -9.5 -12.5t-11.5 -7.5t-19 -4z" />
    <glyph glyph-name="Dcroat" unicode="&#x110;" horiz-adv-x="557" 
d="M14 353v29q0 25 24 25h32v265q0 25 25 25h177q117 0 172 -44.5t55 -145.5v-316q0 -100 -57.5 -145.5t-175.5 -45.5h-171q-25 0 -25 25v303h-32q-24 0 -24 25zM367 192v318q0 43 -20.5 62t-68.5 19h-73v-184h39q24 0 24 -25v-29q0 -25 -24 -25h-39v-216h67q50 0 72.5 19
t22.5 61z" />
    <glyph glyph-name="dcroat" unicode="&#x111;" horiz-adv-x="521" 
d="M225 597v29q0 25 24 25h72v52q0 14 5.5 19t19.5 5l83 -8q25 -1 25 -27v-41h29q25 0 25 -25v-29q0 -25 -25 -25h-29v-422q0 -93 -51.5 -127.5t-146.5 -34.5h-9q-92 0 -142.5 36t-50.5 129v194q0 50 15.5 85t42.5 52t54.5 24t58.5 7h3q56 0 96 -22q-3 43 -3 79h-72
q-24 0 -24 25zM249 94h6q33 0 49.5 14.5t16.5 49.5v194q0 64 -64 64h-4q-34 0 -50.5 -14.5t-16.5 -49.5v-194q0 -36 15 -50t48 -14z" />
    <glyph glyph-name="Emacron" unicode="&#x112;" horiz-adv-x="497" 
d="M65 25v647q0 14 5.5 19.5t19.5 5.5h328q14 0 20 -5t8 -18l7 -58q3 -25 -24 -25h-229v-176h176q25 0 25 -24v-58q0 -24 -25 -24h-176v-197h237q28 0 24 -25l-10 -64q-1 -13 -7.5 -18t-20.5 -5h-333q-25 0 -25 25zM124 783v29q0 24 25 24h232q25 0 25 -24v-29
q0 -25 -25 -25h-232q-25 0 -25 25z" />
    <glyph glyph-name="emacron" unicode="&#x113;" horiz-adv-x="490" 
d="M54 159v187q0 91 51 130t151 39h9q94 0 139.5 -36.5t45.5 -113.5v-12q0 -78 -38 -108.5t-120 -30.5q-56 0 -109 12v-60q0 -43 19 -58.5t72 -15.5q65 0 135 19q12 4 18.5 -2t5.5 -19l-5 -48q-2 -15 -8.5 -21.5t-21.5 -11.5q-45 -18 -141 -18h-8q-93 0 -144 37t-51 131z
M183 357v-45q31 -11 84 -11q32 0 45 12.5t13 39.5v9q0 32 -14 45.5t-51 13.5h-5q-38 0 -55 -14.5t-17 -49.5zM112 612v29q0 24 25 24h232q25 0 25 -24v-29q0 -25 -25 -25h-232q-25 0 -25 25z" />
    <glyph glyph-name="Ebreve" unicode="&#x114;" horiz-adv-x="497" 
d="M65 25v647q0 14 5.5 19.5t19.5 5.5h328q14 0 20 -5t8 -18l7 -58q3 -25 -24 -25h-229v-176h176q25 0 25 -24v-58q0 -24 -25 -24h-176v-197h237q28 0 24 -25l-10 -64q-1 -13 -7.5 -18t-20.5 -5h-333q-25 0 -25 25zM134 910h39q20 0 26 -23q8 -50 66 -50q56 0 66 49
q3 14 7 19t17 5h40q14 0 18.5 -5.5t2.5 -18.5q-20 -128 -151 -128q-133 0 -151 127q-3 25 20 25z" />
    <glyph glyph-name="ebreve" unicode="&#x115;" horiz-adv-x="490" 
d="M54 159v187q0 91 51 130t151 39h9q94 0 139.5 -36.5t45.5 -113.5v-12q0 -78 -38 -108.5t-120 -30.5q-56 0 -109 12v-60q0 -43 19 -58.5t72 -15.5q65 0 135 19q12 4 18.5 -2t5.5 -19l-5 -48q-2 -15 -8.5 -21.5t-21.5 -11.5q-45 -18 -141 -18h-8q-93 0 -144 37t-51 131z
M183 357v-45q31 -11 84 -11q32 0 45 12.5t13 39.5v9q0 32 -14 45.5t-51 13.5h-5q-38 0 -55 -14.5t-17 -49.5zM122 739h39q20 0 26 -23q8 -50 66 -50q56 0 66 49q3 14 7 19t17 5h40q14 0 18.5 -5.5t2.5 -18.5q-20 -128 -151 -128q-133 0 -151 127q-3 25 20 25z" />
    <glyph glyph-name="Edotaccent" unicode="&#x116;" horiz-adv-x="497" 
d="M65 25v647q0 14 5.5 19.5t19.5 5.5h328q14 0 20 -5t8 -18l7 -58q3 -25 -24 -25h-229v-176h176q25 0 25 -24v-58q0 -24 -25 -24h-176v-197h237q28 0 24 -25l-10 -64q-1 -13 -7.5 -18t-20.5 -5h-333q-25 0 -25 25zM200 782v59q0 25 24 25h81q24 0 24 -25v-59q0 -25 -24 -25
h-81q-24 0 -24 25z" />
    <glyph glyph-name="edotaccent" unicode="&#x117;" horiz-adv-x="490" 
d="M54 159v187q0 91 51 130t151 39h9q94 0 139.5 -36.5t45.5 -113.5v-12q0 -78 -38 -108.5t-120 -30.5q-56 0 -109 12v-60q0 -43 19 -58.5t72 -15.5q65 0 135 19q12 4 18.5 -2t5.5 -19l-5 -48q-2 -15 -8.5 -21.5t-21.5 -11.5q-45 -18 -141 -18h-8q-93 0 -144 37t-51 131z
M183 357v-45q31 -11 84 -11q32 0 45 12.5t13 39.5v9q0 32 -14 45.5t-51 13.5h-5q-38 0 -55 -14.5t-17 -49.5zM188 611v59q0 25 24 25h81q24 0 24 -25v-59q0 -25 -24 -25h-81q-24 0 -24 25z" />
    <glyph glyph-name="Eogonek" unicode="&#x118;" horiz-adv-x="497" 
d="M436 -228h-15q-139 0 -139 110q0 67 66 118h-258q-25 0 -25 25v647q0 14 5.5 19.5t19.5 5.5h328q14 0 20 -5t8 -18l7 -58q3 -25 -24 -25h-229v-176h176q25 0 25 -24v-58q0 -24 -25 -24h-176v-197h237q28 0 24 -25l-10 -64q-3 -17 -12 -21q-71 -56 -71 -106q0 -43 61 -43
h10q13 0 17.5 -4.5t4.5 -15.5v-41q0 -12 -5.5 -16t-19.5 -4z" />
    <glyph glyph-name="eogonek" unicode="&#x119;" horiz-adv-x="490" 
d="M409 -214h-15q-139 0 -139 110q0 55 41 96q-13 -1 -39 -1h-8q-93 0 -144 37t-51 131v187q0 91 51 130t151 39h9q94 0 139.5 -36.5t45.5 -113.5v-12q0 -78 -38 -108.5t-120 -30.5q-56 0 -109 12v-60q0 -43 19 -58.5t72 -15.5q65 0 135 19q12 4 18.5 -2t5.5 -19l-5 -48
q-4 -23 -21 -30q-66 -54 -66 -102q0 -43 61 -43h10q13 0 17.5 -4.5t4.5 -15.5v-41q0 -12 -5.5 -16t-19.5 -4zM183 357v-45q31 -11 84 -11q32 0 45 12.5t13 39.5v9q0 32 -14 45.5t-51 13.5h-5q-38 0 -55 -14.5t-17 -49.5z" />
    <glyph glyph-name="Ecaron" unicode="&#x11a;" horiz-adv-x="497" 
d="M65 25v647q0 14 5.5 19.5t19.5 5.5h328q14 0 20 -5t8 -18l7 -58q3 -25 -24 -25h-229v-176h176q25 0 25 -24v-58q0 -24 -25 -24h-176v-197h237q28 0 24 -25l-10 -64q-1 -13 -7.5 -18t-20.5 -5h-333q-25 0 -25 25zM211 777l-88 114q-16 22 13 22h56q14 0 20 -4t15 -16
l39 -52l41 52q10 12 16.5 16t19.5 4h52q29 0 13 -22l-88 -114q-14 -19 -37 -19h-37q-14 0 -20 3.5t-15 15.5z" />
    <glyph glyph-name="ecaron" unicode="&#x11b;" horiz-adv-x="490" 
d="M54 159v187q0 91 51 130t151 39h9q94 0 139.5 -36.5t45.5 -113.5v-12q0 -78 -38 -108.5t-120 -30.5q-56 0 -109 12v-60q0 -43 19 -58.5t72 -15.5q65 0 135 19q12 4 18.5 -2t5.5 -19l-5 -48q-2 -15 -8.5 -21.5t-21.5 -11.5q-45 -18 -141 -18h-8q-93 0 -144 37t-51 131z
M183 357v-45q31 -11 84 -11q32 0 45 12.5t13 39.5v9q0 32 -14 45.5t-51 13.5h-5q-38 0 -55 -14.5t-17 -49.5zM199 606l-88 114q-16 22 13 22h56q14 0 20 -4t15 -16l39 -52l41 52q10 12 16.5 16t19.5 4h52q29 0 13 -22l-88 -114q-14 -19 -37 -19h-37q-14 0 -20 3.5t-15 15.5z
" />
    <glyph glyph-name="Gcircumflex" unicode="&#x11c;" horiz-adv-x="544" 
d="M58 180v337q0 100 57 144.5t172 44.5q39 0 76 -4t55 -8l17 -3q14 -4 19 -9.5t6 -19.5l7 -56q1 -13 -3.5 -17t-19.5 -2q-71 13 -156 13h-3q-51 0 -72.5 -20t-21.5 -68v-323q0 -48 19.5 -67t70.5 -19h2q27 0 47.5 1.5t27.5 3.5l7 1v187h-50q-14 0 -19.5 5.5t-5.5 19.5v54
q0 14 5.5 19.5t19.5 5.5h149q24 0 24 -25v-327q0 -22 -24 -32q-58 -25 -182 -25q-114 0 -169 44t-55 145zM132 785l82 113q15 20 39 20h44q24 0 38 -20l83 -113q16 -22 -12 -22h-56q-14 0 -20.5 4t-15.5 16l-42 58l-41 -57q-13 -21 -35 -21h-53q-27 0 -11 22z" />
    <glyph glyph-name="gcircumflex" unicode="&#x11d;" horiz-adv-x="500" 
d="M23 -74v19q0 48 23.5 79.5t60.5 44.5q-45 22 -45 70v10q0 51 52 70q-61 35 -61 121v21q0 87 53 120.5t145 33.5h10q92 0 143 -33.5t51 -120.5v-21q0 -155 -200 -155q-16 0 -34 -2q-45 -6 -45 -39v-2q0 -23 16.5 -32.5t64.5 -9.5h5q117 0 174.5 -32t57.5 -123v-19
q0 -92 -59.5 -125t-178.5 -33t-176 33t-57 125zM249 279h8q69 0 69 63v17q0 34 -16.5 48t-50.5 14h-8q-69 0 -69 -62v-17q0 -63 67 -63zM154 -58v-10q0 -39 24.5 -52t78.5 -13q56 0 81.5 12.5t25.5 52.5v10q0 39 -24.5 51t-79.5 12t-80.5 -12t-25.5 -51zM114 614l82 113
q15 20 39 20h44q24 0 38 -20l83 -113q16 -22 -12 -22h-56q-14 0 -20.5 4t-15.5 16l-42 58l-41 -57q-13 -21 -35 -21h-53q-27 0 -11 22z" />
    <glyph glyph-name="Gbreve" unicode="&#x11e;" horiz-adv-x="544" 
d="M58 180v337q0 100 57 144.5t172 44.5q39 0 76 -4t55 -8l17 -3q14 -4 19 -9.5t6 -19.5l7 -56q1 -13 -3.5 -17t-19.5 -2q-71 13 -156 13h-3q-51 0 -72.5 -20t-21.5 -68v-323q0 -48 19.5 -67t70.5 -19h2q27 0 47.5 1.5t27.5 3.5l7 1v187h-50q-14 0 -19.5 5.5t-5.5 19.5v54
q0 14 5.5 19.5t19.5 5.5h149q24 0 24 -25v-327q0 -22 -24 -32q-58 -25 -182 -25q-114 0 -169 44t-55 145zM144 910h39q20 0 26 -23q8 -50 66 -50q56 0 66 49q3 14 7 19t17 5h40q14 0 18.5 -5.5t2.5 -18.5q-20 -128 -151 -128q-133 0 -151 127q-3 25 20 25z" />
    <glyph glyph-name="gbreve" unicode="&#x11f;" horiz-adv-x="500" 
d="M23 -74v19q0 48 23.5 79.5t60.5 44.5q-45 22 -45 70v10q0 51 52 70q-61 35 -61 121v21q0 87 53 120.5t145 33.5h10q92 0 143 -33.5t51 -120.5v-21q0 -155 -200 -155q-16 0 -34 -2q-45 -6 -45 -39v-2q0 -23 16.5 -32.5t64.5 -9.5h5q117 0 174.5 -32t57.5 -123v-19
q0 -92 -59.5 -125t-178.5 -33t-176 33t-57 125zM249 279h8q69 0 69 63v17q0 34 -16.5 48t-50.5 14h-8q-69 0 -69 -62v-17q0 -63 67 -63zM154 -58v-10q0 -39 24.5 -52t78.5 -13q56 0 81.5 12.5t25.5 52.5v10q0 39 -24.5 51t-79.5 12t-80.5 -12t-25.5 -51zM125 739h39
q20 0 26 -23q8 -50 66 -50q56 0 66 49q3 14 7 19t17 5h40q14 0 18.5 -5.5t2.5 -18.5q-20 -128 -151 -128q-133 0 -151 127q-3 25 20 25z" />
    <glyph glyph-name="Gdotaccent" unicode="&#x120;" horiz-adv-x="544" 
d="M58 180v337q0 100 57 144.5t172 44.5q39 0 76 -4t55 -8l17 -3q14 -4 19 -9.5t6 -19.5l7 -56q1 -13 -3.5 -17t-19.5 -2q-71 13 -156 13h-3q-51 0 -72.5 -20t-21.5 -68v-323q0 -48 19.5 -67t70.5 -19h2q27 0 47.5 1.5t27.5 3.5l7 1v187h-50q-14 0 -19.5 5.5t-5.5 19.5v54
q0 14 5.5 19.5t19.5 5.5h149q24 0 24 -25v-327q0 -22 -24 -32q-58 -25 -182 -25q-114 0 -169 44t-55 145zM210 782v59q0 25 24 25h81q24 0 24 -25v-59q0 -25 -24 -25h-81q-24 0 -24 25z" />
    <glyph glyph-name="gdotaccent" unicode="&#x121;" horiz-adv-x="500" 
d="M23 -74v19q0 48 23.5 79.5t60.5 44.5q-45 22 -45 70v10q0 51 52 70q-61 35 -61 121v21q0 87 53 120.5t145 33.5h10q92 0 143 -33.5t51 -120.5v-21q0 -155 -200 -155q-16 0 -34 -2q-45 -6 -45 -39v-2q0 -23 16.5 -32.5t64.5 -9.5h5q117 0 174.5 -32t57.5 -123v-19
q0 -92 -59.5 -125t-178.5 -33t-176 33t-57 125zM249 279h8q69 0 69 63v17q0 34 -16.5 48t-50.5 14h-8q-69 0 -69 -62v-17q0 -63 67 -63zM154 -58v-10q0 -39 24.5 -52t78.5 -13q56 0 81.5 12.5t25.5 52.5v10q0 39 -24.5 51t-79.5 12t-80.5 -12t-25.5 -51zM191 611v59
q0 25 24 25h81q24 0 24 -25v-59q0 -25 -24 -25h-81q-24 0 -24 25z" />
    <glyph glyph-name="uni0122" unicode="&#x122;" horiz-adv-x="544" 
d="M58 180v337q0 100 57 144.5t172 44.5q39 0 76 -4t55 -8l17 -3q14 -4 19 -9.5t6 -19.5l7 -56q1 -13 -3.5 -17t-19.5 -2q-71 13 -156 13h-3q-51 0 -72.5 -20t-21.5 -68v-323q0 -48 19.5 -67t70.5 -19h2q27 0 47.5 1.5t27.5 3.5l7 1v187h-50q-14 0 -19.5 5.5t-5.5 19.5v54
q0 14 5.5 19.5t19.5 5.5h149q24 0 24 -25v-327q0 -22 -24 -32q-58 -25 -182 -25q-114 0 -169 44t-55 145zM269 -276h-55q-27 0 -13 28q37 69 37 154v10q0 25 24 25h63q14 0 19.5 -5.5t5.5 -19.5v-10q0 -95 -41 -158q-6 -9 -9.5 -12.5t-11.5 -7.5t-19 -4z" />
    <glyph glyph-name="uni0123" unicode="&#x123;" horiz-adv-x="500" 
d="M23 -74v19q0 48 23.5 79.5t60.5 44.5q-45 22 -45 70v10q0 51 52 70q-61 35 -61 121v21q0 87 53 120.5t145 33.5h10q92 0 143 -33.5t51 -120.5v-21q0 -155 -200 -155q-16 0 -34 -2q-45 -6 -45 -39v-2q0 -23 16.5 -32.5t64.5 -9.5h5q117 0 174.5 -32t57.5 -123v-19
q0 -92 -59.5 -125t-178.5 -33t-176 33t-57 125zM249 279h8q69 0 69 63v17q0 34 -16.5 48t-50.5 14h-8q-69 0 -69 -62v-17q0 -63 67 -63zM154 -58v-10q0 -39 24.5 -52t78.5 -13q56 0 81.5 12.5t25.5 52.5v10q0 39 -24.5 51t-79.5 12t-80.5 -12t-25.5 -51zM275 587h-55
q-27 0 -13 28q37 69 37 154v10q0 25 24 25h63q14 0 19.5 -5.5t5.5 -19.5v-10q0 -95 -41 -158q-6 -9 -9.5 -12.5t-11.5 -7.5t-19 -4z" />
    <glyph glyph-name="Hcircumflex" unicode="&#x124;" horiz-adv-x="578" 
d="M65 25v647q0 25 25 25h85q25 0 25 -25v-256h178v256q0 25 25 25h85q25 0 25 -25v-647q0 -25 -25 -25h-85q-25 0 -25 25v282h-178v-282q0 -25 -25 -25h-85q-25 0 -25 25zM146 785l82 113q15 20 39 20h44q24 0 38 -20l83 -113q16 -22 -12 -22h-56q-14 0 -20.5 4t-15.5 16
l-42 58l-41 -57q-13 -21 -35 -21h-53q-27 0 -11 22z" />
    <glyph glyph-name="hcircumflex" unicode="&#x125;" horiz-adv-x="513" 
d="M61 25v667q0 26 24 27l84 8q15 0 20 -4.5t5 -19.5v-130l-3 -80q31 22 89 22h4q171 0 171 -167v-323q0 -25 -24 -25h-85q-24 0 -24 25v329q0 35 -14 48.5t-47 13.5h-3q-33 0 -48.5 -14t-15.5 -49v-328q0 -25 -24 -25h-85q-24 0 -24 25zM115 789l82 113q15 20 39 20h44
q24 0 38 -20l83 -113q16 -22 -12 -22h-56q-14 0 -20.5 4t-15.5 16l-42 58l-41 -57q-13 -21 -35 -21h-53q-27 0 -11 22z" />
    <glyph glyph-name="Hbar" unicode="&#x126;" horiz-adv-x="588" 
d="M22 541v29q0 25 25 25h23v77q0 25 25 25h85q25 0 25 -25v-77h178v77q0 25 25 25h85q25 0 25 -25v-77h23q24 0 24 -25v-29q0 -25 -24 -25h-23v-491q0 -25 -25 -25h-85q-25 0 -25 25v282h-178v-282q0 -25 -25 -25h-85q-25 0 -25 25v491h-23q-25 0 -25 25zM205 416h178v100
h-178v-100z" />
    <glyph glyph-name="hbar" unicode="&#x127;" horiz-adv-x="513" 
d="M5 594v29q0 25 24 25h32v44q0 26 24 27l84 8q15 0 20 -4.5t5 -19.5v-55h69q25 0 25 -25v-29q0 -25 -25 -25h-69l-3 -76q31 22 89 22h4q171 0 171 -167v-323q0 -25 -24 -25h-85q-24 0 -24 25v329q0 35 -14 48.5t-47 13.5h-3q-33 0 -48.5 -14t-15.5 -49v-328q0 -25 -24 -25
h-85q-24 0 -24 25v544h-32q-24 0 -24 25z" />
    <glyph glyph-name="Itilde" unicode="&#x128;" horiz-adv-x="265" 
d="M65 25v647q0 25 25 25h85q25 0 25 -25v-647q0 -25 -25 -25h-85q-25 0 -25 25zM-2 780l-20 29q-11 14 1 29q29 42 87 42q32 0 71 -22t65 -22q24 0 42 22q15 17 26 -2l20 -30q9 -13 -2 -30q-32 -48 -88 -48q-31 0 -69.5 22t-64.5 22q-21 0 -45 -17q-13 -11 -23 5z" />
    <glyph glyph-name="itilde" unicode="&#x129;" horiz-adv-x="259" 
d="M-4 609l-20 29q-11 14 1 29q29 42 87 42q32 0 71 -22t65 -22q24 0 42 22q15 17 26 -2l20 -30q9 -13 -2 -30q-32 -48 -88 -48q-31 0 -69.5 22t-64.5 22q-21 0 -45 -17q-13 -11 -23 5zM63 25v448q0 25 24 26l84 8q25 3 25 -24v-458q0 -25 -24 -25h-85q-24 0 -24 25z" />
    <glyph glyph-name="Imacron" unicode="&#x12a;" horiz-adv-x="265" 
d="M65 25v647q0 25 25 25h85q25 0 25 -25v-647q0 -25 -25 -25h-85q-25 0 -25 25zM-9 783v29q0 24 25 24h232q25 0 25 -24v-29q0 -25 -25 -25h-232q-25 0 -25 25z" />
    <glyph glyph-name="imacron" unicode="&#x12b;" horiz-adv-x="259" 
d="M-11 612v29q0 24 25 24h232q25 0 25 -24v-29q0 -25 -25 -25h-232q-25 0 -25 25zM63 25v448q0 25 24 26l84 8q25 3 25 -24v-458q0 -25 -24 -25h-85q-24 0 -24 25z" />
    <glyph glyph-name="Ibreve" unicode="&#x12c;" horiz-adv-x="265" 
d="M65 25v647q0 25 25 25h85q25 0 25 -25v-647q0 -25 -25 -25h-85q-25 0 -25 25zM1 910h39q20 0 26 -23q8 -50 66 -50q56 0 66 49q3 14 7 19t17 5h40q14 0 18.5 -5.5t2.5 -18.5q-20 -128 -151 -128q-133 0 -151 127q-3 25 20 25z" />
    <glyph glyph-name="ibreve" unicode="&#x12d;" horiz-adv-x="259" 
d="M-1 739h39q20 0 26 -23q8 -50 66 -50q56 0 66 49q3 14 7 19t17 5h40q14 0 18.5 -5.5t2.5 -18.5q-20 -128 -151 -128q-133 0 -151 127q-3 25 20 25zM63 25v448q0 25 24 26l84 8q25 3 25 -24v-458q0 -25 -24 -25h-85q-24 0 -24 25z" />
    <glyph glyph-name="Iogonek" unicode="&#x12e;" horiz-adv-x="265" 
d="M185 -229h-15q-139 0 -139 110q0 68 68 119h-9q-25 0 -25 25v647q0 25 25 25h85q25 0 25 -25v-647q0 -17 -10 -23q-73 -56 -73 -107q0 -43 61 -43h10q13 0 17.5 -4.5t4.5 -15.5v-41q0 -12 -5.5 -16t-19.5 -4z" />
    <glyph glyph-name="iogonek" unicode="&#x12f;" horiz-adv-x="259" 
d="M181 -229h-15q-139 0 -139 110q0 68 67 119h-7q-24 0 -24 25v448q0 25 24 26l84 8q13 1 19 -5t6 -20v-457q0 -20 -12 -24q-71 -56 -71 -106q0 -43 61 -43h10q13 0 17.5 -4.5t4.5 -15.5v-41q0 -12 -5.5 -16t-19.5 -4zM58 613v59q0 25 24 25h95q24 0 24 -25v-59
q0 -14 -5 -19t-19 -5h-95q-14 0 -19 5t-5 19z" />
    <glyph glyph-name="Idotaccent" unicode="&#x130;" horiz-adv-x="265" 
d="M65 25v647q0 25 25 25h85q25 0 25 -25v-647q0 -25 -25 -25h-85q-25 0 -25 25zM67 782v59q0 25 24 25h81q24 0 24 -25v-59q0 -25 -24 -25h-81q-24 0 -24 25z" />
    <glyph glyph-name="dotlessi" unicode="&#x131;" horiz-adv-x="259" 
d="M63 25v448q0 25 24 26l84 8q25 3 25 -24v-458q0 -25 -24 -25h-85q-24 0 -24 25z" />
    <glyph glyph-name="IJ" unicode="&#x132;" horiz-adv-x="673" 
d="M65 25v647q0 25 25 25h85q25 0 25 -25v-647q0 -25 -25 -25h-85q-25 0 -25 25zM289 28l-6 61q-2 13 3.5 18.5t18.5 2.5q38 -7 81 -7q51 0 71 18.5t20 61.5v489q0 25 25 25h86q24 0 24 -25v-491q0 -101 -53 -145.5t-159 -44.5q-52 0 -86 8q-24 7 -25 29z" />
    <glyph glyph-name="ij" unicode="&#x133;" horiz-adv-x="516" 
d="M58 613v59q0 25 24 25h95q24 0 24 -25v-59q0 -14 -5 -19t-19 -5h-95q-14 0 -19 5t-5 19zM63 25v448q0 25 24 26l84 8q13 1 19 -5t6 -20v-457q0 -25 -24 -25h-85q-24 0 -24 25zM315 613v59q0 25 25 25h95q24 0 24 -25v-59q0 -14 -5 -19t-19 -5h-95q-14 0 -19.5 5t-5.5 19z
M239 -196l-6 56q-1 14 5 19.5t19 3.5q20 -2 21 -2q21 0 31.5 12t10.5 45v535q0 25 25 26l84 8q25 3 25 -24v-553q0 -47 -13.5 -80t-36.5 -48.5t-46 -22t-50 -6.5t-47 4q-13 2 -17 7.5t-5 19.5z" />
    <glyph glyph-name="Jcircumflex" unicode="&#x134;" horiz-adv-x="408" 
d="M24 28l-6 61q-2 13 3.5 18.5t18.5 2.5q39 -7 81 -7q51 0 71 18.5t20 61.5v489q0 25 25 25h86q24 0 24 -25v-491q0 -101 -53 -145.5t-159 -44.5q-52 0 -86 8q-24 7 -25 29zM138 785l82 113q15 20 39 20h44q24 0 38 -20l83 -113q16 -22 -12 -22h-56q-14 0 -20.5 4t-15.5 16
l-42 58l-41 -57q-13 -21 -35 -21h-53q-27 0 -11 22z" />
    <glyph glyph-name="jcircumflex" unicode="&#x135;" horiz-adv-x="266" 
d="M-12 -196l-6 56q-1 14 5 19.5t19 3.5q20 -2 21 -2q21 0 31.5 12t10.5 45v535q0 25 25 26l84 8q25 3 25 -24v-553q0 -47 -13.5 -80t-36.5 -48.5t-46 -22t-50 -6.5t-47 4q-13 2 -17 7.5t-5 19.5zM-6 615l82 113q15 20 39 20h44q24 0 38 -20l83 -113q16 -22 -12 -22h-56
q-14 0 -20.5 4t-15.5 16l-42 58l-41 -57q-13 -21 -35 -21h-53q-27 0 -11 22z" />
    <glyph glyph-name="uni0136" unicode="&#x136;" horiz-adv-x="540" 
d="M65 25v647q0 25 25 25h85q25 0 25 -25v-268q11 0 35 -4l133 278q9 24 34 21l85 -8q23 -1 13 -26l-153 -304q40 -29 77 -121l96 -201q11 -26 -14 -29l-89 -13q-25 -4 -32 21l-82 186q-27 65 -45.5 81t-57.5 17v-277q0 -25 -25 -25h-85q-25 0 -25 25zM265 -276h-55
q-27 0 -13 28q37 69 37 154v10q0 25 24 25h63q14 0 19.5 -5.5t5.5 -19.5v-10q0 -95 -41 -158q-6 -9 -9.5 -12.5t-11.5 -7.5t-19 -4z" />
    <glyph glyph-name="uni0137" unicode="&#x137;" horiz-adv-x="504" 
d="M61 25v669q0 24 23 25l86 8q24 1 24 -23v-373q14 0 20 -2l114 160q8 12 14 15.5t19 2.5l90 -8q31 -4 13 -28l-135 -176q28 -21 57 -77l99 -183q11 -23 -14 -26l-87 -12q-26 -4 -36 20l-85 174q-14 29 -27 36.5t-42 8.5v-211q0 -25 -24 -25h-85q-24 0 -24 25zM237 -276
h-55q-27 0 -13 28q37 69 37 154v10q0 25 24 25h63q14 0 19.5 -5.5t5.5 -19.5v-10q0 -95 -41 -158q-6 -9 -9.5 -12.5t-11.5 -7.5t-19 -4z" />
    <glyph glyph-name="Lacute" unicode="&#x139;" horiz-adv-x="441" 
d="M65 25v647q0 25 25 25h85q25 0 25 -25v-560h194q16 0 21 -4.5t4 -18.5l-8 -64q-1 -25 -27 -25h-294q-25 0 -25 25zM267 909l-78 -130q-13 -21 -34 -21h-43q-27 0 -16 23l57 130q10 22 32 22h67q30 0 15 -24z" />
    <glyph glyph-name="lacute" unicode="&#x13a;" horiz-adv-x="293" 
d="M59 145v547q0 26 23 27l86 8q14 1 19.5 -4t5.5 -19v-556q0 -30 8 -39t34 -9q5 0 16 1t15 1q12 0 16 -4t3 -18l-7 -56q-1 -13 -6.5 -18.5t-19.5 -7.5q-20 -4 -50 -4q-74 0 -108.5 31t-34.5 120zM258 918l-78 -130q-13 -21 -34 -21h-43q-27 0 -16 23l57 130q10 22 32 22h67
q30 0 15 -24z" />
    <glyph glyph-name="uni013B" unicode="&#x13b;" horiz-adv-x="441" 
d="M65 25v647q0 25 25 25h85q25 0 25 -25v-560h194q16 0 21 -4.5t4 -18.5l-8 -64q-1 -25 -27 -25h-294q-25 0 -25 25zM221 -276h-55q-27 0 -13 28q37 69 37 154v10q0 25 24 25h63q14 0 19.5 -5.5t5.5 -19.5v-10q0 -95 -41 -158q-6 -9 -9.5 -12.5t-11.5 -7.5t-19 -4z" />
    <glyph glyph-name="uni013C" unicode="&#x13c;" horiz-adv-x="293" 
d="M59 145v547q0 26 23 27l86 8q14 1 19.5 -4t5.5 -19v-556q0 -30 8 -39t34 -9q5 0 16 1t15 1q12 0 16 -4t3 -18l-7 -56q-1 -13 -6.5 -18.5t-19.5 -7.5q-20 -4 -50 -4q-74 0 -108.5 31t-34.5 120zM146 -276h-55q-27 0 -13 28q37 69 37 154v10q0 25 24 25h63q14 0 19.5 -5.5
t5.5 -19.5v-10q0 -95 -41 -158q-6 -9 -9.5 -12.5t-11.5 -7.5t-19 -4z" />
    <glyph glyph-name="Lcaron" unicode="&#x13d;" horiz-adv-x="441" 
d="M65 25v647q0 25 25 25h85q25 0 25 -25v-560h194q16 0 21 -4.5t4 -18.5l-8 -64q-1 -25 -27 -25h-294q-25 0 -25 25zM319 580h-55q-27 0 -13 28q37 69 37 154v10q0 25 24 25h63q14 0 19.5 -5.5t5.5 -19.5v-10q0 -95 -41 -158q-6 -9 -9.5 -12.5t-11.5 -7.5t-19 -4z" />
    <glyph glyph-name="lcaron" unicode="&#x13e;" horiz-adv-x="293" 
d="M59 145v547q0 26 23 27l86 8q14 1 19.5 -4t5.5 -19v-556q0 -30 8 -39t34 -9q5 0 16 1t15 1q12 0 16 -4t3 -18l-7 -56q-1 -13 -6.5 -18.5t-19.5 -7.5q-20 -4 -50 -4q-74 0 -108.5 31t-34.5 120zM304 581h-55q-27 0 -13 28q37 69 37 154v10q0 25 24 25h63q14 0 19.5 -5.5
t5.5 -19.5v-10q0 -95 -41 -158q-6 -9 -9.5 -12.5t-11.5 -7.5t-19 -4z" />
    <glyph glyph-name="Ldot" unicode="&#x13f;" horiz-adv-x="441" 
d="M65 25v647q0 25 25 25h85q25 0 25 -25v-560h194q16 0 21 -4.5t4 -18.5l-8 -64q-1 -25 -27 -25h-294q-25 0 -25 25zM276 346v59q0 25 24 25h81q24 0 24 -25v-59q0 -25 -24 -25h-81q-24 0 -24 25z" />
    <glyph glyph-name="ldot" unicode="&#x140;" horiz-adv-x="323" 
d="M233 264v58q0 25 25 25h60q25 0 25 -25v-58q0 -25 -25 -25h-60q-25 0 -25 25zM59 145v547q0 26 23 27l86 8q14 1 19.5 -4t5.5 -19v-556q0 -30 8 -39t34 -9q5 0 16 1t15 1q12 0 16 -4t3 -18l-7 -56q-1 -13 -6.5 -18.5t-19.5 -7.5q-20 -4 -50 -4q-74 0 -108.5 31t-34.5 120
z" />
    <glyph glyph-name="Lslash" unicode="&#x141;" horiz-adv-x="446" 
d="M70 25v228l-18 -12q-13 -9 -20 -7.5t-15 13.5l-15 23q-8 12 -7 19t14 15l61 41v327q0 25 25 25h85q25 0 25 -25v-236l70 48q13 8 20.5 7t15.5 -14l13 -20q9 -13 7.5 -21t-13.5 -16l-113 -76v-232h194q16 0 21 -4.5t4 -18.5l-8 -64q-1 -25 -27 -25h-294q-25 0 -25 25z" />
    <glyph glyph-name="lslash" unicode="&#x142;" horiz-adv-x="313" 
d="M11 235l-15 23q-8 12 -7 19t14 15l66 44v356q0 26 23 27l86 8q14 1 19.5 -4t5.5 -19v-277l58 39q13 9 20.5 7.5t15.5 -14.5l13 -20q15 -23 -6 -37l-101 -68v-186q0 -30 8 -39t34 -9q5 0 16 1t15 1q12 0 16 -4t3 -18l-7 -56q-1 -13 -6.5 -18.5t-19.5 -7.5q-20 -4 -50 -4
q-74 0 -108.5 31t-34.5 120v99l-23 -15q-13 -9 -20 -7.5t-15 13.5z" />
    <glyph glyph-name="Nacute" unicode="&#x143;" horiz-adv-x="581" 
d="M65 25v647q0 25 25 25h89q22 0 31 -23l125 -299q51 -122 63 -165h4q-11 110 -11 297v165q0 25 24 25h77q24 0 24 -25v-647q0 -25 -25 -25h-89q-21 0 -31 23l-122 293q-53 120 -66 170h-4q11 -116 11 -308v-153q0 -25 -24 -25h-76q-25 0 -25 25zM424 909l-78 -130
q-13 -21 -34 -21h-43q-27 0 -16 23l57 130q10 22 32 22h67q30 0 15 -24z" />
    <glyph glyph-name="nacute" unicode="&#x144;" horiz-adv-x="512" 
d="M61 25v421q0 25 22 35q72 31 182 31q92 0 140.5 -37t48.5 -131v-319q0 -25 -24 -25h-85q-25 0 -25 25v320q0 38 -14 53t-51 15q-40 0 -61 -10v-378q0 -25 -24 -25h-85q-24 0 -24 25zM390 738l-78 -130q-13 -21 -34 -21h-43q-27 0 -16 23l57 130q10 22 32 22h67
q30 0 15 -24z" />
    <glyph glyph-name="uni0145" unicode="&#x145;" horiz-adv-x="581" 
d="M65 25v647q0 25 25 25h89q22 0 31 -23l125 -299q51 -122 63 -165h4q-11 110 -11 297v165q0 25 24 25h77q24 0 24 -25v-647q0 -25 -25 -25h-89q-21 0 -31 23l-122 293q-53 120 -66 170h-4q11 -116 11 -308v-153q0 -25 -24 -25h-76q-25 0 -25 25zM285 -276h-55
q-27 0 -13 28q37 69 37 154v10q0 25 24 25h63q14 0 19.5 -5.5t5.5 -19.5v-10q0 -95 -41 -158q-6 -9 -9.5 -12.5t-11.5 -7.5t-19 -4z" />
    <glyph glyph-name="uni0146" unicode="&#x146;" horiz-adv-x="512" 
d="M61 25v421q0 25 22 35q72 31 182 31q92 0 140.5 -37t48.5 -131v-319q0 -25 -24 -25h-85q-25 0 -25 25v320q0 38 -14 53t-51 15q-40 0 -61 -10v-378q0 -25 -24 -25h-85q-24 0 -24 25zM238 -276h-55q-27 0 -13 28q37 69 37 154v10q0 25 24 25h63q14 0 19.5 -5.5t5.5 -19.5
v-10q0 -95 -41 -158q-6 -9 -9.5 -12.5t-11.5 -7.5t-19 -4z" />
    <glyph glyph-name="Ncaron" unicode="&#x147;" horiz-adv-x="581" 
d="M65 25v647q0 25 25 25h89q22 0 31 -23l125 -299q51 -122 63 -165h4q-11 110 -11 297v165q0 25 24 25h77q24 0 24 -25v-647q0 -25 -25 -25h-89q-21 0 -31 23l-122 293q-53 120 -66 170h-4q11 -116 11 -308v-153q0 -25 -24 -25h-76q-25 0 -25 25zM238 777l-88 114
q-16 22 13 22h56q13 0 19.5 -4t15.5 -16l39 -52l41 52q10 12 16.5 16t19.5 4h52q29 0 13 -22l-88 -114q-14 -19 -37 -19h-37q-14 0 -20 3.5t-15 15.5z" />
    <glyph glyph-name="ncaron" unicode="&#x148;" horiz-adv-x="512" 
d="M61 25v421q0 25 22 35q72 31 182 31q92 0 140.5 -37t48.5 -131v-319q0 -25 -24 -25h-85q-25 0 -25 25v320q0 38 -14 53t-51 15q-40 0 -61 -10v-378q0 -25 -24 -25h-85q-24 0 -24 25zM203 606l-88 114q-16 22 13 22h56q14 0 20 -4t15 -16l39 -52l41 52q10 12 16.5 16
t19.5 4h52q29 0 13 -22l-88 -114q-14 -19 -37 -19h-37q-14 0 -20 3.5t-15 15.5z" />
    <glyph glyph-name="napostrophe" unicode="&#x149;" horiz-adv-x="512" 
d="M61 25v421q0 25 22 35q72 31 182 31q92 0 140.5 -37t48.5 -131v-319q0 -25 -24 -25h-85q-25 0 -25 25v320q0 38 -14 53t-51 15q-40 0 -61 -10v-378q0 -25 -24 -25h-85q-24 0 -24 25zM127 586h-55q-27 0 -13 28q37 69 37 154v10q0 25 24 25h63q14 0 19.5 -5.5t5.5 -19.5
v-10q0 -95 -41 -158q-6 -9 -9.5 -12.5t-11.5 -7.5t-19 -4z" />
    <glyph glyph-name="Eng" unicode="&#x14a;" horiz-adv-x="581" 
d="M65 25v647q0 25 25 25h88q22 0 30 -23l130 -299q42 -101 60 -165h4q-11 110 -11 297v165q0 25 24 25h77q24 0 24 -25v-746q0 -77 -23 -126q-4 -8 -6.5 -11t-10 -7t-19.5 -4h-61q-14 0 -17 8t4 16q28 47 28 130v68h-7q-13 0 -19.5 4.5t-11.5 18.5l-127 293
q-50 119 -63 170h-4q11 -116 11 -308v-153q0 -25 -24 -25h-76q-25 0 -25 25z" />
    <glyph glyph-name="eng" unicode="&#x14b;" horiz-adv-x="512" 
d="M320 -63v408q0 38 -14 53t-51 15q-40 0 -61 -10v-378q0 -25 -24 -25h-85q-24 0 -24 25v421q0 25 22 35q72 31 182 31q92 0 140.5 -37t48.5 -131v-403q0 -97 -50 -132.5t-143 -35.5h-4q-14 0 -18.5 6t-6.5 22l-6 52q-1 13 4.5 18t19.5 5h4q31 0 48.5 11.5t17.5 49.5z" />
    <glyph glyph-name="Omacron" unicode="&#x14c;" horiz-adv-x="577" 
d="M58 177v343q0 100 57.5 144.5t172.5 44.5h6q114 0 170 -45t56 -144v-343q0 -100 -58 -144.5t-173 -44.5h-6q-115 0 -170 44t-55 145zM283 100h6q50 0 73 20t23 63v336q0 44 -21.5 64t-70.5 20h-5q-50 0 -72.5 -20.5t-22.5 -63.5v-336q0 -44 20.5 -63.5t69.5 -19.5z
M147 782v29q0 24 25 24h232q25 0 25 -24v-29q0 -25 -25 -25h-232q-25 0 -25 25z" />
    <glyph glyph-name="omacron" unicode="&#x14d;" horiz-adv-x="507" 
d="M54 155v192q0 94 52.5 131t144.5 37h9q92 0 143 -37t51 -131v-192q0 -93 -53 -130t-145 -37h-9q-92 0 -142.5 37t-50.5 130zM249 94h6q66 0 66 65v193q0 35 -15 49.5t-48 14.5h-5q-34 0 -50.5 -14.5t-16.5 -49.5v-193q0 -35 15.5 -50t47.5 -15zM113 612v29q0 24 25 24
h232q25 0 25 -24v-29q0 -25 -25 -25h-232q-25 0 -25 25z" />
    <glyph glyph-name="Obreve" unicode="&#x14e;" horiz-adv-x="577" 
d="M58 177v343q0 100 57.5 144.5t172.5 44.5h6q114 0 170 -45t56 -144v-343q0 -100 -58 -144.5t-173 -44.5h-6q-115 0 -170 44t-55 145zM283 100h6q50 0 73 20t23 63v336q0 44 -21.5 64t-70.5 20h-5q-50 0 -72.5 -20.5t-22.5 -63.5v-336q0 -44 20.5 -63.5t69.5 -19.5z
M157 909h39q20 0 26 -23q8 -50 66 -50q56 0 66 49q3 14 7 19t17 5h40q14 0 18.5 -5.5t2.5 -18.5q-20 -128 -151 -128q-133 0 -151 127q-3 25 20 25z" />
    <glyph glyph-name="obreve" unicode="&#x14f;" horiz-adv-x="507" 
d="M54 155v192q0 94 52.5 131t144.5 37h9q92 0 143 -37t51 -131v-192q0 -93 -53 -130t-145 -37h-9q-92 0 -142.5 37t-50.5 130zM249 94h6q66 0 66 65v193q0 35 -15 49.5t-48 14.5h-5q-34 0 -50.5 -14.5t-16.5 -49.5v-193q0 -35 15.5 -50t47.5 -15zM123 739h39q20 0 26 -23
q8 -50 66 -50q56 0 66 49q3 14 7 19t17 5h40q14 0 18.5 -5.5t2.5 -18.5q-20 -128 -151 -128q-133 0 -151 127q-3 25 20 25z" />
    <glyph glyph-name="Ohungarumlaut" unicode="&#x150;" horiz-adv-x="577" 
d="M58 177v343q0 100 57.5 144.5t172.5 44.5h6q114 0 170 -45t56 -144v-343q0 -100 -58 -144.5t-173 -44.5h-6q-115 0 -170 44t-55 145zM283 100h6q50 0 73 20t23 63v336q0 44 -21.5 64t-70.5 20h-5q-50 0 -72.5 -20.5t-22.5 -63.5v-336q0 -44 20.5 -63.5t69.5 -19.5z
M326 781l46 150q4 14 10.5 19t19.5 5h49q27 0 16 -22l-74 -154q-11 -22 -33 -22h-14q-27 0 -20 24zM182 781l34 150q2 14 7.5 19t19.5 5h44q27 0 19 -23l-56 -152q-8 -23 -31 -23h-15q-27 0 -22 24z" />
    <glyph glyph-name="ohungarumlaut" unicode="&#x151;" horiz-adv-x="507" 
d="M54 155v192q0 94 52.5 131t144.5 37h9q92 0 143 -37t51 -131v-192q0 -93 -53 -130t-145 -37h-9q-92 0 -142.5 37t-50.5 130zM249 94h6q66 0 66 65v193q0 35 -15 49.5t-48 14.5h-5q-34 0 -50.5 -14.5t-16.5 -49.5v-193q0 -35 15.5 -50t47.5 -15zM292 611l46 150
q4 14 10.5 19t19.5 5h49q27 0 16 -22l-74 -154q-11 -22 -33 -22h-14q-27 0 -20 24zM148 611l34 150q2 14 7.5 19t19.5 5h44q27 0 19 -23l-56 -152q-8 -23 -31 -23h-15q-27 0 -22 24z" />
    <glyph glyph-name="OE" unicode="&#x152;" horiz-adv-x="796" 
d="M58 178v341q0 100 57.5 145t171.5 45h3q48 0 100 -12h327q14 0 20 -5t7 -18l8 -58q3 -25 -24 -25h-245v-176h185q14 0 19 -5.5t5 -18.5v-58q0 -13 -5 -18.5t-19 -5.5h-185v-197h252q29 0 25 -25l-10 -64q-2 -14 -8 -18.5t-20 -4.5h-336q-46 -12 -101 -12h-4
q-113 0 -168 44.5t-55 145.5zM281 100h5q40 0 62 12v480q-22 11 -58 11h-4q-48 0 -70.5 -19.5t-22.5 -61.5v-342q0 -42 20 -61t68 -19z" />
    <glyph glyph-name="oe" unicode="&#x153;" horiz-adv-x="756" 
d="M54 155v192q0 93 52 130.5t144 37.5h10q79 0 127 -39q46 39 130 39h10q185 0 185 -150v-10q0 -78 -38 -109t-120 -31q-60 0 -109 13v-60q0 -44 19 -60t72 -16q63 0 135 19q12 4 18.5 -2t5.5 -19l-5 -48q-4 -23 -30 -33q-45 -18 -142 -18q-88 0 -131 36q-49 -39 -131 -39
h-10q-91 0 -141.5 37t-50.5 130zM445 357v-44q37 -11 85 -11q31 0 44 13t13 40v8q0 31 -15.5 44.5t-49.5 13.5h-6q-37 0 -54 -14.5t-17 -49.5zM249 94h6q66 0 66 65v193q0 35 -15 49.5t-48 14.5h-5q-34 0 -50.5 -14.5t-16.5 -49.5v-193q0 -36 15 -50.5t48 -14.5z" />
    <glyph glyph-name="Racute" unicode="&#x154;" horiz-adv-x="540" 
d="M65 25v647q0 25 25 25h178q121 0 171 -42t50 -153v-26q0 -62 -22.5 -99t-69.5 -60q28 -20 59 -101l64 -187q8 -22 -17 -25l-87 -8q-24 -3 -31 22l-58 186q-13 43 -28 56t-57 13h-42v-248q0 -25 -25 -25h-85q-25 0 -25 25zM200 376h67q51 0 71 16.5t20 66.5v49
q0 52 -19 69t-73 17h-66v-218zM395 909l-78 -130q-13 -21 -34 -21h-43q-27 0 -16 23l57 130q10 22 32 22h67q30 0 15 -24z" />
    <glyph glyph-name="racute" unicode="&#x155;" horiz-adv-x="347" 
d="M58 25v327q0 93 41.5 126.5t129.5 33.5q50 0 76 -8q24 -7 25 -27l5 -65q1 -13 -5 -17.5t-19 -2.5q-34 7 -64 7q-19 0 -29.5 -2.5t-18.5 -14t-8 -33.5v-324q0 -25 -24 -25h-85q-24 0 -24 25zM328 738l-78 -130q-13 -21 -34 -21h-43q-27 0 -16 23l57 130q10 22 32 22h67
q30 0 15 -24z" />
    <glyph glyph-name="uni0156" unicode="&#x156;" horiz-adv-x="540" 
d="M65 25v647q0 25 25 25h178q121 0 171 -42t50 -153v-26q0 -62 -22.5 -99t-69.5 -60q28 -20 59 -101l64 -187q8 -22 -17 -25l-87 -8q-24 -3 -31 22l-58 186q-13 43 -28 56t-57 13h-42v-248q0 -25 -25 -25h-85q-25 0 -25 25zM200 376h67q51 0 71 16.5t20 66.5v49
q0 52 -19 69t-73 17h-66v-218zM277 -276h-55q-27 0 -13 28q37 69 37 154v10q0 25 24 25h63q14 0 19.5 -5.5t5.5 -19.5v-10q0 -95 -41 -158q-6 -9 -9.5 -12.5t-11.5 -7.5t-19 -4z" />
    <glyph glyph-name="uni0157" unicode="&#x157;" horiz-adv-x="347" 
d="M58 25v327q0 93 41.5 126.5t129.5 33.5q50 0 76 -8q24 -7 25 -27l5 -65q1 -13 -5 -17.5t-19 -2.5q-34 7 -64 7q-19 0 -29.5 -2.5t-18.5 -14t-8 -33.5v-324q0 -25 -24 -25h-85q-24 0 -24 25zM101 -276h-55q-27 0 -13 28q37 69 37 154v10q0 25 24 25h63q14 0 19.5 -5.5
t5.5 -19.5v-10q0 -95 -41 -158q-6 -9 -9.5 -12.5t-11.5 -7.5t-19 -4z" />
    <glyph glyph-name="Rcaron" unicode="&#x158;" horiz-adv-x="540" 
d="M65 25v647q0 25 25 25h178q121 0 171 -42t50 -153v-26q0 -62 -22.5 -99t-69.5 -60q28 -20 59 -101l64 -187q8 -22 -17 -25l-87 -8q-24 -3 -31 22l-58 186q-13 43 -28 56t-57 13h-42v-248q0 -25 -25 -25h-85q-25 0 -25 25zM200 376h67q51 0 71 16.5t20 66.5v49
q0 52 -19 69t-73 17h-66v-218zM208 777l-88 114q-16 22 13 22h56q13 0 19.5 -4t15.5 -16l39 -52l41 52q10 12 16.5 16t19.5 4h52q29 0 13 -22l-88 -114q-14 -19 -37 -19h-37q-14 0 -20 3.5t-15 15.5z" />
    <glyph glyph-name="rcaron" unicode="&#x159;" horiz-adv-x="347" 
d="M58 25v327q0 93 41.5 126.5t129.5 33.5q50 0 76 -8q24 -7 25 -27l5 -65q1 -13 -5 -17.5t-19 -2.5q-34 7 -64 7q-19 0 -29.5 -2.5t-18.5 -14t-8 -33.5v-324q0 -25 -24 -25h-85q-24 0 -24 25zM142 606l-88 114q-16 22 13 22h56q13 0 19.5 -4t15.5 -16l39 -52l41 52
q10 12 16.5 16t19.5 4h52q29 0 13 -22l-88 -114q-14 -19 -37 -19h-37q-14 0 -20 3.5t-15 15.5z" />
    <glyph glyph-name="Sacute" unicode="&#x15a;" horiz-adv-x="498" 
d="M52 37l-7 63q-1 13 4 17.5t20 2.5q96 -17 151 -17q57 0 79 17.5t22 68.5v22q0 49 -16.5 68t-64.5 30l-17 4q-47 10 -74 20t-53 29.5t-37 52.5t-11 83v25q0 101 52 142t158 41q67 0 123 -14q14 -4 19 -10t6 -19l6 -56q2 -13 -2.5 -18t-18.5 -2q-61 13 -123 13
q-45 0 -66.5 -17t-21.5 -62v-16q0 -40 16.5 -57t62.5 -27l16 -4q51 -11 79.5 -22t53.5 -32t35 -55.5t10 -87.5v-33q0 -110 -51.5 -153t-171.5 -43q-88 0 -154 17q-23 6 -24 29zM376 909l-78 -130q-13 -21 -34 -21h-43q-27 0 -16 23l57 130q10 22 32 22h67q30 0 15 -24z" />
    <glyph glyph-name="sacute" unicode="&#x15b;" horiz-adv-x="446" 
d="M46 42l-4 50q-2 14 4 20t20 3q76 -18 145 -18h2q37 0 52.5 9.5t15.5 37.5v7q0 25 -12.5 35.5t-49.5 17.5l-15 4q-87 17 -123.5 47t-36.5 103v12q0 82 50 112t134 30h2q71 0 120 -15q22 -7 25 -29l4 -46q1 -14 -4 -20t-19 -3q-61 14 -116 14h-4q-33 0 -47.5 -9.5
t-14.5 -33.5v-6q0 -19 11.5 -30t48.5 -19l16 -4q84 -17 122 -49t38 -102v-21q0 -46 -14.5 -76.5t-43 -45.5t-60 -20.5t-76.5 -5.5h-3q-95 0 -139 16q-25 9 -28 35zM354 738l-78 -130q-13 -21 -34 -21h-43q-27 0 -16 23l57 130q10 22 32 22h67q30 0 15 -24z" />
    <glyph glyph-name="Scircumflex" unicode="&#x15c;" horiz-adv-x="498" 
d="M52 37l-7 63q-1 13 4 17.5t20 2.5q96 -17 151 -17q57 0 79 17.5t22 68.5v22q0 49 -16.5 68t-64.5 30l-17 4q-47 10 -74 20t-53 29.5t-37 52.5t-11 83v25q0 101 52 142t158 41q67 0 123 -14q14 -4 19 -10t6 -19l6 -56q2 -13 -2.5 -18t-18.5 -2q-61 13 -123 13
q-45 0 -66.5 -17t-21.5 -62v-16q0 -40 16.5 -57t62.5 -27l16 -4q51 -11 79.5 -22t53.5 -32t35 -55.5t10 -87.5v-33q0 -110 -51.5 -153t-171.5 -43q-88 0 -154 17q-23 6 -24 29zM101 785l82 113q15 20 39 20h44q24 0 38 -20l83 -113q16 -22 -12 -22h-56q-14 0 -20.5 4
t-15.5 16l-42 58l-41 -57q-13 -21 -35 -21h-53q-27 0 -11 22z" />
    <glyph glyph-name="scircumflex" unicode="&#x15d;" horiz-adv-x="446" 
d="M46 42l-4 50q-2 14 4 20t20 3q76 -18 145 -18h2q37 0 52.5 9.5t15.5 37.5v7q0 25 -12.5 35.5t-49.5 17.5l-15 4q-87 17 -123.5 47t-36.5 103v12q0 82 50 112t134 30h2q71 0 120 -15q22 -7 25 -29l4 -46q1 -14 -4 -20t-19 -3q-61 14 -116 14h-4q-33 0 -47.5 -9.5
t-14.5 -33.5v-6q0 -19 11.5 -30t48.5 -19l16 -4q84 -17 122 -49t38 -102v-21q0 -46 -14.5 -76.5t-43 -45.5t-60 -20.5t-76.5 -5.5h-3q-95 0 -139 16q-25 9 -28 35zM79 614l82 113q15 20 39 20h44q24 0 38 -20l83 -113q16 -22 -12 -22h-56q-14 0 -20.5 4t-15.5 16l-42 58
l-41 -57q-13 -21 -35 -21h-53q-27 0 -11 22z" />
    <glyph glyph-name="Scedilla" unicode="&#x15e;" horiz-adv-x="498" 
d="M129 -214v25q0 21 25 16q58 -12 87 -12q71 0 71 43q0 27 -20 35t-73 8h-2q-24 0 -24 25v66q-74 4 -117 16q-23 6 -24 29l-7 63q-1 13 4 17.5t20 2.5q96 -17 151 -17q57 0 79 17.5t22 68.5v22q0 49 -16.5 68t-64.5 30l-17 4q-47 10 -74 20t-53 29.5t-37 52.5t-11 83v25
q0 101 52 142t158 41q67 0 123 -14q14 -4 19 -10t6 -19l6 -56q2 -13 -2.5 -18t-18.5 -2q-61 13 -123 13q-45 0 -66.5 -17t-21.5 -62v-16q0 -40 16.5 -57t62.5 -27l16 -4q51 -11 79.5 -22t53.5 -32t35 -55.5t10 -87.5v-33q0 -103 -44.5 -146.5t-146.5 -48.5v-33q65 -1 97 -29
t32 -74q0 -53 -37.5 -81t-96.5 -28q-57 0 -91 9q-37 7 -37 30z" />
    <glyph glyph-name="scedilla" unicode="&#x15f;" horiz-adv-x="446" 
d="M105 -214v25q0 21 25 16q58 -12 87 -12q71 0 71 43q0 27 -20 35t-73 8h-2q-24 0 -24 25v67q-69 4 -95 14q-25 9 -28 35l-4 50q-2 14 4 20t20 3q76 -18 145 -18h2q37 0 52.5 9.5t15.5 37.5v7q0 25 -12.5 35.5t-49.5 17.5l-15 4q-87 17 -123.5 47t-36.5 103v12q0 82 50 112
t134 30h2q71 0 120 -15q22 -7 25 -29l4 -46q1 -14 -4 -20t-19 -3q-61 14 -116 14h-4q-33 0 -47.5 -9.5t-14.5 -33.5v-6q0 -19 11.5 -30t48.5 -19l16 -4q84 -17 122 -49t38 -102v-21q0 -82 -45 -113.5t-127 -34.5v-32q65 -1 97 -29t32 -74q0 -53 -37.5 -81t-96.5 -28
q-57 0 -91 9q-37 7 -37 30z" />
    <glyph glyph-name="Scaron" unicode="&#x160;" horiz-adv-x="498" 
d="M52 37l-7 63q-1 13 4 17.5t20 2.5q96 -17 151 -17q57 0 79 17.5t22 68.5v22q0 49 -16.5 68t-64.5 30l-17 4q-47 10 -74 20t-53 29.5t-37 52.5t-11 83v25q0 101 52 142t158 41q67 0 123 -14q14 -4 19 -10t6 -19l6 -56q2 -13 -2.5 -18t-18.5 -2q-61 13 -123 13
q-45 0 -66.5 -17t-21.5 -62v-16q0 -40 16.5 -57t62.5 -27l16 -4q51 -11 79.5 -22t53.5 -32t35 -55.5t10 -87.5v-33q0 -110 -51.5 -153t-171.5 -43q-88 0 -154 17q-23 6 -24 29zM189 777l-88 114q-16 22 13 22h56q14 0 20 -4t15 -16l39 -52l41 52q10 12 16.5 16t19.5 4h52
q29 0 13 -22l-88 -114q-14 -19 -37 -19h-37q-14 0 -20 3.5t-15 15.5z" />
    <glyph glyph-name="scaron" unicode="&#x161;" horiz-adv-x="446" 
d="M46 42l-4 50q-2 14 4 20t20 3q76 -18 145 -18h2q37 0 52.5 9.5t15.5 37.5v7q0 25 -12.5 35.5t-49.5 17.5l-15 4q-87 17 -123.5 47t-36.5 103v12q0 82 50 112t134 30h2q71 0 120 -15q22 -7 25 -29l4 -46q1 -14 -4 -20t-19 -3q-61 14 -116 14h-4q-33 0 -47.5 -9.5
t-14.5 -33.5v-6q0 -19 11.5 -30t48.5 -19l16 -4q84 -17 122 -49t38 -102v-21q0 -46 -14.5 -76.5t-43 -45.5t-60 -20.5t-76.5 -5.5h-3q-95 0 -139 16q-25 9 -28 35zM168 606l-88 114q-16 22 13 22h56q13 0 19.5 -4t15.5 -16l39 -52l41 52q10 12 16.5 16t19.5 4h52
q29 0 13 -22l-88 -114q-14 -19 -37 -19h-37q-14 0 -20 3.5t-15 15.5z" />
    <glyph glyph-name="uni0162" unicode="&#x162;" horiz-adv-x="467" 
d="M136 -214v25q0 21 25 16q58 -12 87 -12q71 0 71 43q0 27 -20 35t-73 8h-2q-24 0 -24 25v74h-10q-25 0 -25 25v566h-129q-14 0 -19 5.5t-4 19.5l5 56q2 14 7.5 19.5t18.5 5.5h377q13 0 18 -5.5t7 -19.5l6 -56q3 -25 -23 -25h-129v-561q0 -17 -5 -23.5t-19 -6.5h-7v-41
q65 -1 97 -29t32 -74q0 -53 -37.5 -81t-96.5 -28q-56 0 -91 9q-37 7 -37 30z" />
    <glyph glyph-name="uni0163" unicode="&#x163;" horiz-adv-x="373" 
d="M90 -214v25q0 21 25 16q58 -12 87 -12q71 0 71 43q0 27 -20 35t-73 8h-2q-24 0 -24 25v82q-65 27 -65 139v261h-53q-14 0 -19 5t-5 19v46q0 14 5 19.5t19 5.5h53v105q0 14 5 20t19 7l83 7q14 0 19.5 -4.5t5.5 -18.5v-116h91q14 0 20 -5.5t7 -18.5l5 -47q0 -14 -4.5 -19
t-19.5 -5h-99v-261q0 -30 9.5 -38.5t41.5 -8.5q13 0 31.5 2t25.5 2q11 2 16 -2.5t4 -15.5l-6 -57q-3 -24 -24 -29q-34 -6 -70 -6q-18 0 -26 1v-36q65 -1 97 -29t32 -74q0 -53 -37.5 -81t-96.5 -28q-56 0 -91 9q-37 7 -37 30z" />
    <glyph glyph-name="Tcaron" unicode="&#x164;" horiz-adv-x="467" 
d="M165 25v566h-129q-14 0 -19 5.5t-4 19.5l5 56q2 14 7.5 19.5t18.5 5.5h377q13 0 18 -5.5t7 -19.5l6 -56q3 -25 -23 -25h-129v-561q0 -17 -5 -23.5t-19 -6.5h-86q-25 0 -25 25zM180 777l-88 114q-16 22 13 22h56q13 0 19.5 -4t15.5 -16l39 -52l41 52q10 12 16.5 16t19.5 4
h52q29 0 13 -22l-88 -114q-14 -19 -37 -19h-37q-14 0 -20 3.5t-15 15.5z" />
    <glyph glyph-name="tcaron" unicode="&#x165;" horiz-adv-x="373" 
d="M89 147v261h-53q-14 0 -19 5t-5 19v46q0 14 5 19.5t19 5.5h53v105q0 14 5 20t19 7l83 7q14 0 19.5 -4.5t5.5 -18.5v-116h91q14 0 20 -5.5t7 -18.5l5 -47q0 -14 -4.5 -19t-19.5 -5h-99v-261q0 -30 9.5 -38.5t41.5 -8.5q13 0 31.5 2t25.5 2q11 2 16 -2.5t4 -15.5l-6 -57
q-3 -24 -24 -29q-34 -6 -70 -6q-85 0 -122.5 31.5t-37.5 121.5zM361 572h-55q-27 0 -13 28q37 69 37 154v10q0 25 24 25h63q14 0 19.5 -5.5t5.5 -19.5v-10q0 -95 -41 -158q-6 -9 -9.5 -12.5t-11.5 -7.5t-19 -4z" />
    <glyph glyph-name="Tbar" unicode="&#x166;" horiz-adv-x="467" 
d="M165 25v566h-129q-14 0 -19 5.5t-4 19.5l5 56q2 14 7.5 19.5t18.5 5.5h377q13 0 18 -5.5t7 -19.5l6 -56q3 -25 -23 -25h-129v-561q0 -17 -5 -23.5t-19 -6.5h-86q-25 0 -25 25zM106 789v29q0 25 24 25h206q24 0 24 -25v-29q0 -25 -24 -25h-206q-24 0 -24 25z" />
    <glyph glyph-name="tbar" unicode="&#x167;" horiz-adv-x="373" 
d="M35 256v29q0 25 24 25h30v98h-53q-14 0 -19 5t-5 19v46q0 14 5 19.5t19 5.5h53v105q0 14 5 20t19 7l83 7q14 0 19.5 -4.5t5.5 -18.5v-116h91q14 0 20 -5.5t7 -18.5l5 -47q0 -14 -4.5 -19t-19.5 -5h-99v-98h72q25 0 25 -25v-29q0 -25 -25 -25h-72v-84q0 -30 9.5 -38.5
t41.5 -8.5q13 0 31.5 2t25.5 2q11 2 16 -2.5t4 -15.5l-6 -57q-3 -24 -24 -29q-34 -6 -70 -6q-85 0 -122.5 31.5t-37.5 121.5v84h-30q-24 0 -24 25z" />
    <glyph glyph-name="Utilde" unicode="&#x168;" horiz-adv-x="562" 
d="M61 176v496q0 25 25 25h85q25 0 25 -25v-493q0 -42 19 -60.5t64 -18.5t66 18.5t21 60.5v493q0 25 25 25h85q25 0 25 -25v-496q0 -188 -221 -188h-5q-106 0 -160 44t-54 144zM145 780l-20 29q-11 14 1 29q29 42 87 42q31 0 71 -22t65 -22q24 0 42 22q15 17 26 -2l20 -30
q9 -13 -2 -30q-32 -48 -88 -48q-31 0 -69.5 22t-64.5 22q-21 0 -45 -17q-13 -11 -23 5z" />
    <glyph glyph-name="utilde" unicode="&#x169;" horiz-adv-x="512" 
d="M58 158v315q0 25 23 26l85 8q13 1 19 -5t6 -20v-317q0 -38 14.5 -53t51.5 -15q36 0 60 10v375q0 14 5.5 20t18.5 5l86 -8q24 -1 24 -26v-416q0 -25 -23 -35q-70 -31 -181 -31q-92 0 -140.5 37t-48.5 130zM119 609l-20 29q-11 14 1 29q28 42 87 42q31 0 71 -22t65 -22
q24 0 42 22q15 17 26 -2l20 -30q9 -13 -2 -30q-32 -48 -88 -48q-31 0 -69.5 22t-64.5 22q-21 0 -45 -17q-13 -11 -23 5z" />
    <glyph glyph-name="Umacron" unicode="&#x16a;" horiz-adv-x="562" 
d="M61 176v496q0 25 25 25h85q25 0 25 -25v-493q0 -42 19 -60.5t64 -18.5t66 18.5t21 60.5v493q0 25 25 25h85q25 0 25 -25v-496q0 -188 -221 -188h-5q-106 0 -160 44t-54 144zM138 783v29q0 24 25 24h232q25 0 25 -24v-29q0 -25 -25 -25h-232q-25 0 -25 25z" />
    <glyph glyph-name="umacron" unicode="&#x16b;" horiz-adv-x="512" 
d="M58 158v315q0 25 23 26l85 8q13 1 19 -5t6 -20v-317q0 -38 14.5 -53t51.5 -15q36 0 60 10v375q0 14 5.5 20t18.5 5l86 -8q24 -1 24 -26v-416q0 -25 -23 -35q-70 -31 -181 -31q-92 0 -140.5 37t-48.5 130zM112 612v29q0 24 25 24h232q25 0 25 -24v-29q0 -25 -25 -25h-232
q-25 0 -25 25z" />
    <glyph glyph-name="Ubreve" unicode="&#x16c;" horiz-adv-x="562" 
d="M61 176v496q0 25 25 25h85q25 0 25 -25v-493q0 -42 19 -60.5t64 -18.5t66 18.5t21 60.5v493q0 25 25 25h85q25 0 25 -25v-496q0 -188 -221 -188h-5q-106 0 -160 44t-54 144zM148 910h39q20 0 26 -23q8 -50 66 -50q56 0 66 49q3 14 7 19t17 5h40q14 0 18.5 -5.5t2.5 -18.5
q-20 -128 -151 -128q-133 0 -151 127q-3 25 20 25z" />
    <glyph glyph-name="ubreve" unicode="&#x16d;" horiz-adv-x="512" 
d="M58 158v315q0 25 23 26l85 8q13 1 19 -5t6 -20v-317q0 -38 14.5 -53t51.5 -15q36 0 60 10v375q0 14 5.5 20t18.5 5l86 -8q24 -1 24 -26v-416q0 -25 -23 -35q-70 -31 -181 -31q-92 0 -140.5 37t-48.5 130zM122 739h39q20 0 26 -23q8 -50 66 -50q56 0 66 49q3 14 7 19t17 5
h40q14 0 18.5 -5.5t2.5 -18.5q-20 -128 -151 -128q-133 0 -151 127q-3 25 20 25z" />
    <glyph glyph-name="Uring" unicode="&#x16e;" horiz-adv-x="562" 
d="M61 176v496q0 25 25 25h85q25 0 25 -25v-493q0 -42 19 -60.5t64 -18.5t66 18.5t21 60.5v493q0 25 25 25h85q25 0 25 -25v-496q0 -188 -221 -188h-5q-106 0 -160 44t-54 144zM167 831v35q0 90 101 90h25q101 0 101 -90v-35q0 -89 -102 -89h-24q-101 0 -101 89zM272 799h15
q24 0 34 7t10 27v25q0 25 -8.5 33t-34.5 8h-15q-27 0 -35.5 -8t-8.5 -33v-18q0 -26 8 -33.5t35 -7.5z" />
    <glyph glyph-name="uring" unicode="&#x16f;" horiz-adv-x="512" 
d="M58 158v315q0 25 23 26l85 8q13 1 19 -5t6 -20v-317q0 -38 14.5 -53t51.5 -15q36 0 60 10v375q0 14 5.5 20t18.5 5l86 -8q24 -1 24 -26v-416q0 -25 -23 -35q-70 -31 -181 -31q-92 0 -140.5 37t-48.5 130zM140 660v35q0 90 101 90h25q101 0 101 -90v-35q0 -89 -102 -89
h-24q-101 0 -101 89zM245 628h15q24 0 34 7t10 27v25q0 25 -8.5 33t-34.5 8h-15q-27 0 -35.5 -8t-8.5 -33v-18q0 -26 8 -33.5t35 -7.5z" />
    <glyph glyph-name="Uhungarumlaut" unicode="&#x170;" horiz-adv-x="562" 
d="M61 176v496q0 25 25 25h85q25 0 25 -25v-493q0 -42 19 -60.5t64 -18.5t66 18.5t21 60.5v493q0 25 25 25h85q25 0 25 -25v-496q0 -188 -221 -188h-5q-106 0 -160 44t-54 144zM318 782l46 150q4 14 10.5 19t19.5 5h49q27 0 16 -22l-74 -154q-11 -22 -33 -22h-14
q-27 0 -20 24zM174 782l34 150q2 14 7.5 19t19.5 5h44q27 0 19 -23l-56 -152q-8 -23 -31 -23h-15q-27 0 -22 24z" />
    <glyph glyph-name="uhungarumlaut" unicode="&#x171;" horiz-adv-x="512" 
d="M58 158v315q0 25 23 26l85 8q13 1 19 -5t6 -20v-317q0 -38 14.5 -53t51.5 -15q36 0 60 10v375q0 14 5.5 20t18.5 5l86 -8q24 -1 24 -26v-416q0 -25 -23 -35q-70 -31 -181 -31q-92 0 -140.5 37t-48.5 130zM291 611l46 150q4 14 10.5 19t19.5 5h49q27 0 16 -22l-74 -154
q-11 -22 -33 -22h-14q-27 0 -20 24zM147 611l34 150q2 14 7.5 19t19.5 5h44q27 0 19 -23l-56 -152q-8 -23 -31 -23h-15q-27 0 -22 24z" />
    <glyph glyph-name="Uogonek" unicode="&#x172;" horiz-adv-x="562" 
d="M339 -226h-15q-139 0 -139 110q0 59 51 106q-87 7 -131 51.5t-44 134.5v496q0 25 25 25h85q25 0 25 -25v-493q0 -42 19 -60.5t64 -18.5t66 18.5t21 60.5v493q0 25 25 25h85q25 0 25 -25v-496q0 -168 -176 -186q-54 -49 -54 -92t61 -43h10q13 0 17.5 -4.5t4.5 -15.5v-41
q0 -12 -5.5 -16t-19.5 -4z" />
    <glyph glyph-name="uogonek" unicode="&#x173;" horiz-adv-x="512" 
d="M425 -208h-15q-139 0 -139 110q0 51 37 92q-28 -3 -61 -3q-92 0 -140.5 37t-48.5 130v315q0 25 23 26l85 8q13 1 19 -5t6 -20v-317q0 -38 14.5 -53t51.5 -15q36 0 60 10v375q0 14 5.5 20t18.5 5l86 -8q24 -1 24 -26v-416q0 -25 -23 -35h-1q-70 -56 -70 -106q0 -43 61 -43
h10q13 0 17.5 -4.5t4.5 -15.5v-41q0 -12 -5.5 -16t-19.5 -4z" />
    <glyph glyph-name="Wcircumflex" unicode="&#x174;" horiz-adv-x="777" 
d="M129 25l-107 644q-4 25 22 26l79 5q13 1 18.5 -3.5t7.5 -21.5l55 -348q15 -110 20 -185h4q8 87 25 182l62 339q4 24 28 24h95q25 0 28 -24l63 -342q9 -54 24 -179h4q12 131 20 183l54 350q2 17 8 21.5t19 3.5l75 -5q25 -1 22 -25l-106 -645q-4 -25 -29 -25h-116
q-14 0 -20 5.5t-8 19.5l-57 311q-14 74 -28 196h-4q-8 -101 -28 -200l-57 -307q-2 -14 -8 -19.5t-20 -5.5h-117q-14 0 -20.5 5.5t-7.5 19.5zM248 785l82 113q15 20 39 20h44q24 0 38 -20l83 -113q16 -22 -12 -22h-56q-14 0 -20.5 4t-15.5 16l-42 58l-41 -57q-13 -21 -35 -21
h-53q-27 0 -11 22z" />
    <glyph glyph-name="wcircumflex" unicode="&#x175;" horiz-adv-x="715" 
d="M114 24l-91 450q-4 23 22 26l83 7q24 1 28 -24l30 -189q11 -60 23 -173h4q8 47 34 170l43 187q4 23 27 23h84q14 0 19.5 -5t8.5 -18l42 -190q27 -128 34 -167h4q6 48 23 172l31 190q1 14 7 19.5t20 4.5l79 -7q27 -3 22 -25l-90 -452q-4 -23 -27 -23h-119q-23 0 -27 23
l-44 200q-10 46 -24 152h-4q-12 -92 -24 -150l-45 -201q-4 -24 -28 -24h-116q-25 0 -29 24zM215 614l82 113q15 20 39 20h44q24 0 38 -20l83 -113q16 -22 -12 -22h-56q-14 0 -20.5 4t-15.5 16l-42 58l-41 -57q-13 -21 -35 -21h-53q-27 0 -11 22z" />
    <glyph glyph-name="Ycircumflex" unicode="&#x176;" horiz-adv-x="502" 
d="M180 25v282l-174 357q-11 24 17 26l89 10q23 3 31 -20l71 -152l35 -84h2q12 32 36 84l72 153q6 13 12.5 16.5t19.5 2.5l87 -10q25 -1 15 -26l-177 -358v-281q0 -25 -25 -25h-86q-14 0 -19.5 5.5t-5.5 19.5zM110 785l82 113q15 20 39 20h44q24 0 38 -20l83 -113
q16 -22 -12 -22h-56q-14 0 -20.5 4t-15.5 16l-42 58l-41 -57q-13 -21 -35 -21h-53q-27 0 -11 22z" />
    <glyph glyph-name="ycircumflex" unicode="&#x177;" horiz-adv-x="512" 
d="M182 -196l-6 53q-2 14 2.5 19.5t16.5 3.5q32 -4 59 -4q21 0 33.5 3t23 17t10.5 40v86q-26 -22 -86 -22h-4q-173 0 -173 167v306q0 25 23 26l85 8q25 0 25 -25v-313q0 -34 14 -48.5t47 -14.5h3q62 0 62 61v315q0 14 5.5 19.5t19.5 5.5l85 -8q14 -1 19 -6.5t5 -18.5v-535
q0 -50 -14.5 -84t-42 -51t-57.5 -24t-69 -7q-46 0 -68 6q-16 4 -18 25zM111 614l82 113q15 20 39 20h44q24 0 38 -20l83 -113q16 -22 -12 -22h-56q-14 0 -20.5 4t-15.5 16l-42 58l-41 -57q-13 -21 -35 -21h-53q-27 0 -11 22z" />
    <glyph glyph-name="Ydieresis" unicode="&#x178;" horiz-adv-x="502" 
d="M180 25v282l-174 357q-11 24 17 26l89 10q23 3 31 -20l71 -152l35 -84h2q12 32 36 84l72 153q6 13 12.5 16.5t19.5 2.5l87 -10q25 -1 15 -26l-177 -358v-281q0 -25 -25 -25h-86q-14 0 -19.5 5.5t-5.5 19.5zM403 847v-60q0 -14 -5 -19.5t-19 -5.5h-68q-14 0 -19 5.5
t-5 19.5v60q0 13 5.5 18.5t18.5 5.5h68q13 0 18.5 -5.5t5.5 -18.5zM218 847v-60q0 -14 -5 -19.5t-19 -5.5h-68q-14 0 -19 5.5t-5 19.5v60q0 13 5 18.5t19 5.5h68q14 0 19 -5.5t5 -18.5z" />
    <glyph glyph-name="Zacute" unicode="&#x179;" horiz-adv-x="496" 
d="M28 25v17q0 21 11 44l246 505h-215q-26 0 -23 24l7 58q2 14 8 19t19 5h344q14 0 19.5 -5.5t5.5 -19.5v-13q0 -21 -11 -44l-245 -503h247q26 0 23 -25l-8 -62q-3 -25 -28 -25h-375q-25 0 -25 25zM389 909l-78 -130q-13 -21 -34 -21h-43q-27 0 -16 23l57 130q10 22 32 22
h67q30 0 15 -24z" />
    <glyph glyph-name="zacute" unicode="&#x17a;" horiz-adv-x="450" 
d="M33 25v9q0 24 12 44l187 326h-163q-14 0 -18 5t-3 18l6 53q1 14 7 18.5t20 4.5h297q25 0 25 -24v-6q0 -22 -12 -43l-187 -324h193q14 0 18.5 -5.5t3.5 -18.5l-8 -59q-1 -13 -7.5 -18t-20.5 -5h-326q-24 0 -24 25zM364 738l-78 -130q-13 -21 -34 -21h-43q-27 0 -16 23
l57 130q10 22 32 22h67q30 0 15 -24z" />
    <glyph glyph-name="Zdotaccent" unicode="&#x17b;" horiz-adv-x="496" 
d="M28 25v17q0 21 11 44l246 505h-215q-26 0 -23 24l7 58q2 14 8 19t19 5h344q14 0 19.5 -5.5t5.5 -19.5v-13q0 -21 -11 -44l-245 -503h247q26 0 23 -25l-8 -62q-3 -25 -28 -25h-375q-25 0 -25 25zM192 782v59q0 25 24 25h81q24 0 24 -25v-59q0 -25 -24 -25h-81
q-24 0 -24 25z" />
    <glyph glyph-name="zdotaccent" unicode="&#x17c;" horiz-adv-x="450" 
d="M33 25v9q0 24 12 44l187 326h-163q-14 0 -18 5t-3 18l6 53q1 14 7 18.5t20 4.5h297q25 0 25 -24v-6q0 -22 -12 -43l-187 -324h193q14 0 18.5 -5.5t3.5 -18.5l-8 -59q-1 -13 -7.5 -18t-20.5 -5h-326q-24 0 -24 25zM167 611v59q0 25 24 25h81q24 0 24 -25v-59
q0 -25 -24 -25h-81q-24 0 -24 25z" />
    <glyph glyph-name="Zcaron" unicode="&#x17d;" horiz-adv-x="496" 
d="M28 25v17q0 21 11 44l246 505h-215q-26 0 -23 24l7 58q2 14 8 19t19 5h344q14 0 19.5 -5.5t5.5 -19.5v-13q0 -21 -11 -44l-245 -503h247q26 0 23 -25l-8 -62q-3 -25 -28 -25h-375q-25 0 -25 25zM203 777l-88 114q-16 22 13 22h56q14 0 20 -4t15 -16l39 -52l41 52
q10 12 16.5 16t19.5 4h52q29 0 13 -22l-88 -114q-14 -19 -37 -19h-37q-14 0 -20 3.5t-15 15.5z" />
    <glyph glyph-name="zcaron" unicode="&#x17e;" horiz-adv-x="450" 
d="M33 25v9q0 24 12 44l187 326h-163q-14 0 -18 5t-3 18l6 53q1 14 7 18.5t20 4.5h297q25 0 25 -24v-6q0 -22 -12 -43l-187 -324h193q14 0 18.5 -5.5t3.5 -18.5l-8 -59q-1 -13 -7.5 -18t-20.5 -5h-326q-24 0 -24 25zM178 606l-88 114q-16 22 13 22h56q13 0 19.5 -4t15.5 -16
l39 -52l41 52q10 12 16.5 16t19.5 4h52q29 0 13 -22l-88 -114q-14 -19 -37 -19h-37q-14 0 -20 3.5t-15 15.5z" />
    <glyph glyph-name="longs" unicode="&#x17f;" horiz-adv-x="315" 
d="M86 25v383h-47q-24 0 -24 24v46q0 25 24 25h47v59q0 166 191 166q40 0 55 -6q14 -3 18.5 -8t5.5 -18l4 -49q2 -14 -3.5 -19.5t-19.5 -3.5q-24 5 -53 5q-65 0 -65 -63v-541q0 -25 -25 -25h-83q-25 0 -25 25z" />
    <glyph glyph-name="uni018F" unicode="&#x18f;" horiz-adv-x="573" 
d="M510 504v-314q0 -106 -54.5 -154t-172.5 -48h-20q-218 0 -218 196v186q0 24 24 24h306v104q0 60 -23.5 80.5t-92.5 20.5q-75 0 -173 -25q-11 -3 -15 3t-2 19l6 56q3 21 22 28q60 26 172 26h12q111 0 170 -45.5t59 -156.5zM375 191v96h-198v-104q0 -41 19 -62t70 -21h12
q55 0 76 20t21 71z" />
    <glyph glyph-name="florin" unicode="&#x192;" 
d="M90 -196l-6 56q-1 14 5 19t19 4q22 -2 25 -2q30 0 46.5 11.5t16.5 44.5v471h-47q-24 0 -24 24v46q0 25 24 25h47v59q0 166 191 166q31 0 55 -6q14 -3 18 -7.5t6 -18.5l4 -49q2 -14 -3.5 -19t-19.5 -4q-30 5 -52 5q-65 0 -65 -60v-66h87q26 0 23 -25l-6 -47
q-1 -13 -7.5 -18t-20.5 -5h-76v-470q0 -165 -180 -165q-17 0 -37 4q-13 2 -17.5 7.5t-5.5 19.5z" />
    <glyph glyph-name="Acaron" unicode="&#x1cd;" horiz-adv-x="524" 
d="M484 4l-86 -9q-13 -1 -18.5 2.5t-7.5 17.5l-29 142h-168l-27 -143q-4 -22 -27 -19l-82 9q-14 2 -18.5 7t-2.5 18l138 643q2 14 8.5 19.5t20.5 5.5h154q25 0 29 -25l137 -643q3 -13 -2 -18t-19 -7zM329 254l-67 338h-4l-69 -338h140zM208 777l-88 114q-16 22 13 22h56
q13 0 19.5 -4t15.5 -16l39 -52l41 52q10 12 16.5 16t19.5 4h52q29 0 13 -22l-88 -114q-14 -19 -37 -19h-37q-14 0 -20 3.5t-15 15.5z" />
    <glyph glyph-name="acaron" unicode="&#x1ce;" horiz-adv-x="494" 
d="M39 141v19q0 83 49.5 114t146.5 37l72 3v35q0 36 -15.5 50.5t-50.5 14.5q-59 0 -131 -17q-28 -8 -26 20l4 48q3 23 26 29q56 18 133 18q90 0 140 -37.5t50 -131.5v-286q0 -25 -23 -35q-72 -31 -180 -31q-100 0 -147.5 32.5t-47.5 117.5zM168 162v-14q0 -31 16 -45t53 -14
q42 0 70 8v129q-45 -1 -70 -3q-37 -4 -53 -16t-16 -45zM199 606l-88 114q-16 22 13 22h56q14 0 20 -4t15 -16l39 -52l41 52q10 12 16.5 16t19.5 4h52q29 0 13 -22l-88 -114q-14 -19 -37 -19h-37q-14 0 -20 3.5t-15 15.5z" />
    <glyph glyph-name="AEacute" unicode="&#x1fc;" horiz-adv-x="849" 
d="M407 237v282l-151 -282h151zM776 0h-345q-24 0 -24 25v114h-200l-64 -117q-11 -22 -36 -22h-83q-31 0 -16 26l363 649q12 22 36 22h363q14 0 20 -5t8 -18l7 -58q3 -25 -24 -25h-245v-176h186q14 0 19 -5.5t5 -18.5v-58q0 -13 -5 -18.5t-19 -5.5h-186v-197h253
q28 0 24 -25l-10 -64q-1 -13 -7 -18t-20 -5zM612 909l-78 -130q-13 -21 -34 -21h-43q-27 0 -16 23l57 130q10 22 32 22h67q30 0 15 -24z" />
    <glyph glyph-name="aeacute" unicode="&#x1fd;" horiz-adv-x="739" 
d="M39 142v18q0 74 41 106t117 41q18 2 110 7v34q0 36 -15.5 51t-51.5 15q-58 0 -130 -18q-15 -4 -21 0.5t-5 19.5l4 48q2 20 26 30q55 17 133 17q82 0 122 -39q49 42 136 42h9q94 0 139.5 -36t45.5 -114v-10q0 -78 -37.5 -108.5t-120.5 -30.5q-57 0 -108 13v-60
q0 -44 18.5 -60t72.5 -16q66 0 134 19q12 4 19 -2.5t5 -18.5l-5 -47q-2 -24 -29 -34q-45 -18 -123 -18h-9q-96 0 -144 48q-51 -48 -149 -48q-89 0 -136.5 34t-47.5 117zM433 357v-44q35 -11 85 -11q30 0 43.5 12.5t13.5 39.5v8q0 30 -14.5 44t-49.5 14h-5q-38 0 -55.5 -14
t-17.5 -49zM168 160v-9q0 -32 16 -46t53 -14q44 0 57 20t13 70v45q-39 0 -70 -3q-38 -4 -53.5 -16t-15.5 -47zM502 738l-78 -130q-13 -21 -34 -21h-43q-27 0 -16 23l57 130q10 22 32 22h67q30 0 15 -24z" />
    <glyph glyph-name="Oslashacute" unicode="&#x1fe;" horiz-adv-x="575" 
d="M422 909l-78 -130q-13 -21 -34 -21h-43q-27 0 -16 23l57 130q10 22 32 22h67q30 0 15 -24zM81 -53l34 84q-57 45 -57 147v341q0 100 57 145t172 45h6q55 0 94 -10l19 47q9 23 31 23h36q29 0 18 -23l-34 -80q60 -47 60 -147v-341q0 -100 -57.5 -145t-171.5 -45h-7
q-53 0 -94 9l-22 -50q-6 -13 -11.5 -18t-18.5 -5h-35q-27 0 -19 23zM282 100h5q63 0 79 28t16 109v229q0 43 -2 63t-10 40t-26.5 27t-51.5 7h-6q-62 0 -77.5 -28.5t-15.5 -108.5v-229q0 -44 1.5 -63.5t10 -40t26.5 -27t51 -6.5z" />
    <glyph glyph-name="oslashacute" unicode="&#x1ff;" horiz-adv-x="507" 
d="M385 752l-78 -130q-13 -21 -34 -21h-43q-27 0 -16 23l57 130q10 22 32 22h67q30 0 15 -24zM79 -53l33 73q-58 40 -58 135v193q0 93 52 130t144 37h10q42 0 67 -6l19 43q7 14 12 18.5t18 4.5h36q29 0 18 -23l-32 -71q56 -40 56 -133v-193q0 -93 -53 -130t-145 -37h-10
q-37 0 -62 4l-20 -45q-6 -14 -12 -18.5t-19 -4.5h-36q-29 0 -18 23zM249 94h6q33 0 49.5 14.5t16.5 49.5v195q0 35 -15 49t-48 14h-5q-34 0 -50.5 -14t-16.5 -49v-195q0 -35 15 -49.5t48 -14.5z" />
    <glyph glyph-name="uni0218" unicode="&#x218;" horiz-adv-x="498" 
d="M52 37l-7 63q-1 13 4 17.5t20 2.5q96 -17 151 -17q57 0 79 17.5t22 68.5v22q0 49 -16.5 68t-64.5 30l-17 4q-47 10 -74 20t-53 29.5t-37 52.5t-11 83v25q0 101 52 142t158 41q67 0 123 -14q14 -4 19 -10t6 -19l6 -56q2 -13 -2.5 -18t-18.5 -2q-61 13 -123 13
q-45 0 -66.5 -17t-21.5 -62v-16q0 -40 16.5 -57t62.5 -27l16 -4q51 -11 79.5 -22t53.5 -32t35 -55.5t10 -87.5v-33q0 -110 -51.5 -153t-171.5 -43q-88 0 -154 17q-23 6 -24 29zM238 -276h-55q-27 0 -13 28q37 69 37 154v10q0 25 24 25h63q14 0 19.5 -5.5t5.5 -19.5v-10
q0 -95 -41 -158q-6 -9 -9.5 -12.5t-11.5 -7.5t-19 -4z" />
    <glyph glyph-name="uni0219" unicode="&#x219;" horiz-adv-x="446" 
d="M46 42l-4 50q-2 14 4 20t20 3q76 -18 145 -18h2q37 0 52.5 9.5t15.5 37.5v7q0 25 -12.5 35.5t-49.5 17.5l-15 4q-87 17 -123.5 47t-36.5 103v12q0 82 50 112t134 30h2q71 0 120 -15q22 -7 25 -29l4 -46q1 -14 -4 -20t-19 -3q-61 14 -116 14h-4q-33 0 -47.5 -9.5
t-14.5 -33.5v-6q0 -19 11.5 -30t48.5 -19l16 -4q84 -17 122 -49t38 -102v-21q0 -46 -14.5 -76.5t-43 -45.5t-60 -20.5t-76.5 -5.5h-3q-95 0 -139 16q-25 9 -28 35zM203 -276h-55q-27 0 -13 28q37 69 37 154v10q0 25 24 25h63q14 0 19.5 -5.5t5.5 -19.5v-10q0 -95 -41 -158
q-6 -9 -9.5 -12.5t-11.5 -7.5t-19 -4z" />
    <glyph glyph-name="uni021A" unicode="&#x21a;" horiz-adv-x="467" 
d="M165 25v566h-129q-14 0 -19 5.5t-4 19.5l5 56q2 14 7.5 19.5t18.5 5.5h377q13 0 18 -5.5t7 -19.5l6 -56q3 -25 -23 -25h-129v-561q0 -17 -5 -23.5t-19 -6.5h-86q-25 0 -25 25zM209 -276h-55q-27 0 -13 28q37 69 37 154v10q0 25 24 25h63q14 0 19.5 -5.5t5.5 -19.5v-10
q0 -95 -41 -158q-6 -9 -9.5 -12.5t-11.5 -7.5t-19 -4z" />
    <glyph glyph-name="uni021B" unicode="&#x21b;" horiz-adv-x="373" 
d="M89 147v261h-53q-14 0 -19 5t-5 19v46q0 14 5 19.5t19 5.5h53v105q0 14 5 20t19 7l83 7q14 0 19.5 -4.5t5.5 -18.5v-116h91q14 0 20 -5.5t7 -18.5l5 -47q0 -14 -4.5 -19t-19.5 -5h-99v-261q0 -30 9.5 -38.5t41.5 -8.5q13 0 31.5 2t25.5 2q11 2 16 -2.5t4 -15.5l-6 -57
q-3 -24 -24 -29q-34 -6 -70 -6q-85 0 -122.5 31.5t-37.5 121.5zM185 -276h-55q-27 0 -13 28q37 69 37 154v10q0 25 24 25h63q14 0 19.5 -5.5t5.5 -19.5v-10q0 -95 -41 -158q-6 -9 -9.5 -12.5t-11.5 -7.5t-19 -4z" />
    <glyph glyph-name="Adotaccent" unicode="&#x226;" horiz-adv-x="524" 
d="M484 4l-86 -9q-13 -1 -18.5 2.5t-7.5 17.5l-29 142h-168l-27 -143q-4 -22 -27 -19l-82 9q-14 2 -18.5 7t-2.5 18l138 643q2 14 8.5 19.5t20.5 5.5h154q25 0 29 -25l137 -643q3 -13 -2 -18t-19 -7zM329 254l-67 338h-4l-69 -338h140zM197 782v59q0 25 24 25h81
q24 0 24 -25v-59q0 -25 -24 -25h-81q-24 0 -24 25z" />
    <glyph glyph-name="adotaccent" unicode="&#x227;" horiz-adv-x="494" 
d="M39 141v19q0 83 49.5 114t146.5 37l72 3v35q0 36 -15.5 50.5t-50.5 14.5q-59 0 -131 -17q-28 -8 -26 20l4 48q3 23 26 29q56 18 133 18q90 0 140 -37.5t50 -131.5v-286q0 -25 -23 -35q-72 -31 -180 -31q-100 0 -147.5 32.5t-47.5 117.5zM168 162v-14q0 -31 16 -45t53 -14
q42 0 70 8v129q-45 -1 -70 -3q-37 -4 -53 -16t-16 -45zM188 611v59q0 25 24 25h81q24 0 24 -25v-59q0 -25 -24 -25h-81q-24 0 -24 25z" />
    <glyph glyph-name="dotlessj" unicode="&#x237;" horiz-adv-x="266" 
d="M-12 -196l-6 56q-1 14 5 19.5t19 3.5q20 -2 21 -2q21 0 31.5 12t10.5 45v535q0 25 25 26l84 8q25 3 25 -24v-553q0 -47 -13.5 -80t-36.5 -48.5t-46 -22t-50 -6.5t-47 4q-13 2 -17 7.5t-5 19.5z" />
    <glyph glyph-name="uni0259" unicode="&#x259;" horiz-adv-x="494" 
d="M441 344v-187q0 -91 -51.5 -130t-150.5 -39h-10q-94 0 -139.5 36.5t-45.5 113.5v26q0 78 38 109t120 31q54 0 109 -13v53q0 43 -19 58.5t-72 15.5q-65 0 -135 -19q-12 -4 -18.5 2.5t-5.5 19.5l5 40q2 15 8.5 21t20.5 12q52 18 143 18h8q93 0 144 -37t51 -131zM311 154v49
q-31 11 -84 11q-32 0 -45 -13t-13 -40v-13q0 -31 14.5 -45t50.5 -14h6q37 0 54 15t17 50z" />
    <glyph glyph-name="circumflex" unicode="&#x2c6;" horiz-adv-x="307" 
d="M12 676l82 113q15 20 39 20h44q24 0 38 -20l83 -113q16 -22 -12 -22h-56q-14 0 -20.5 4t-15.5 16l-42 58l-41 -57q-13 -21 -35 -21h-53q-27 0 -11 22z" />
    <glyph glyph-name="caron" unicode="&#x2c7;" horiz-adv-x="308" 
d="M101 663l-88 114q-16 22 13 22h56q14 0 20 -4t15 -16l39 -52l41 52q10 12 16.5 16t19.5 4h52q29 0 13 -22l-88 -114q-14 -19 -37 -19h-37q-14 0 -20 3.5t-15 15.5z" />
    <glyph glyph-name="breve" unicode="&#x2d8;" horiz-adv-x="484" 
d="M111 816h39q20 0 26 -23q8 -50 66 -50q56 0 66 49q3 14 7 19t17 5h40q14 0 18.5 -5.5t2.5 -18.5q-20 -128 -151 -128q-133 0 -151 127q-3 25 20 25z" />
    <glyph glyph-name="dotaccent" unicode="&#x2d9;" horiz-adv-x="310" 
d="M83 698v59q0 25 24 25h81q24 0 24 -25v-59q0 -25 -24 -25h-81q-24 0 -24 25z" />
    <glyph glyph-name="ring" unicode="&#x2da;" horiz-adv-x="458" 
d="M116 744v35q0 90 101 90h25q101 0 101 -90v-35q0 -89 -102 -89h-24q-101 0 -101 89zM221 712h15q24 0 34 7t10 27v25q0 25 -8.5 33t-34.5 8h-15q-27 0 -35.5 -8t-8.5 -33v-18q0 -26 8 -33.5t35 -7.5z" />
    <glyph glyph-name="ogonek" unicode="&#x2db;" horiz-adv-x="300" 
d="M243 -236h-15q-139 0 -139 110q0 80 96 138l35 -2l24 -2q6 -1 8 -4.5t-2 -6.5q-75 -58 -75 -109q0 -43 61 -43h10q13 0 17.5 -4.5t4.5 -15.5v-41q0 -12 -5.5 -16t-19.5 -4z" />
    <glyph glyph-name="tilde" unicode="&#x2dc;" horiz-adv-x="499" 
d="M113 732l-20 29q-11 14 1 29q28 42 87 42q31 0 71 -22t65 -22q24 0 42 22q15 17 26 -2l20 -30q9 -13 -2 -30q-32 -48 -88 -48q-31 0 -69.5 22t-64.5 22q-21 0 -45 -17q-13 -11 -23 5z" />
    <glyph glyph-name="hungarumlaut" unicode="&#x2dd;" horiz-adv-x="455" 
d="M215 669l46 150q4 14 10.5 19t19.5 5h49q27 0 16 -22l-74 -154q-11 -22 -33 -22h-14q-27 0 -20 24zM71 669l34 150q2 14 7.5 19t19.5 5h44q27 0 19 -23l-56 -152q-8 -23 -31 -23h-15q-27 0 -22 24z" />
    <glyph glyph-name="dotbelowcomb" unicode="&#x323;" horiz-adv-x="310" 
d="M83 -139v59q0 25 24 25h81q24 0 24 -25v-59q0 -13 -5 -18.5t-19 -5.5h-81q-13 0 -18.5 5.5t-5.5 18.5z" />
    <glyph glyph-name="uni0394" unicode="&#x394;" horiz-adv-x="505" 
d="M18 24l174 649q7 24 31 24h57q25 0 31 -24l174 -649q3 -13 -1 -18.5t-18 -5.5h-429q-14 0 -18.5 5.5t-0.5 18.5zM137 99h228l-113 439z" />
    <glyph glyph-name="uni03A9" unicode="&#x3a9;" horiz-adv-x="667" 
d="M24 25v56q0 24 25 24h95q-40 43 -40 129v288q0 100 57 143.5t171 43.5h7q114 0 169 -44t55 -143v-288q0 -83 -43 -129h98q25 0 25 -24v-56q0 -14 -5.5 -19.5t-19.5 -5.5h-207q-14 0 -19 5.5t-5 19.5v53q0 19 16 33q25 22 25 65v341q0 40 -21.5 56.5t-69.5 16.5h-3
q-49 0 -72 -16.5t-23 -56.5v-341q0 -46 25 -64q16 -16 16 -34v-53q0 -14 -5.5 -19.5t-19.5 -5.5h-206q-14 0 -19.5 5.5t-5.5 19.5z" />
    <glyph glyph-name="uni03BC" unicode="&#x3bc;" horiz-adv-x="507" 
d="M63 -197v675q0 25 25 25h84q25 0 25 -25v-325q0 -30 10.5 -43t35.5 -13q28 0 52.5 14.5t37.5 33.5v333q0 25 25 25h84q25 0 25 -25v-453q0 -14 -5.5 -19.5t-19.5 -5.5h-73q-15 0 -19 4.5t-7 17.5l-3 23h-4q-39 -38 -89 -42q-27 -3 -52 5q1 -38 1 -67v-138q0 -25 -25 -25
h-83q-25 0 -25 25z" />
    <glyph glyph-name="pi" unicode="&#x3c0;" horiz-adv-x="681" 
d="M147 25v372h-64q-25 0 -25 25v49q0 24 25 24h515q14 0 19 -5.5t5 -18.5v-49q0 -14 -5 -19.5t-19 -5.5h-72v-372q0 -25 -24 -25h-80q-25 0 -25 25v372h-119v-372q0 -25 -25 -25h-81q-25 0 -25 25z" />
    <glyph glyph-name="uni1E62" unicode="&#x1e62;" horiz-adv-x="497" 
d="M52 37l-7 63q-1 13 4 17.5t20 2.5q96 -17 151 -17q57 0 79 17.5t22 68.5v22q0 49 -16.5 68t-64.5 30l-17 4q-47 10 -74 20t-53 29.5t-37 52.5t-11 83v25q0 101 52 142t158 41q67 0 123 -14q14 -4 19 -10t6 -19l6 -56q2 -13 -2.5 -18t-18.5 -2q-61 13 -123 13
q-45 0 -66.5 -17t-21.5 -62v-16q0 -40 16.5 -57t62.5 -27l16 -4q51 -11 79.5 -22t53.5 -32t35 -55.5t10 -87.5v-33q0 -110 -51.5 -153t-171.5 -43q-88 0 -154 17q-23 6 -24 29zM187 -144v59q0 25 24 25h81q24 0 24 -25v-59q0 -14 -5 -19t-19 -5h-81q-13 0 -18.5 5t-5.5 19z
" />
    <glyph glyph-name="uni1E63" unicode="&#x1e63;" horiz-adv-x="446" 
d="M46 42l-4 50q-2 14 4 20t20 3q76 -18 145 -18h2q37 0 52.5 9.5t15.5 37.5v7q0 25 -12.5 35.5t-49.5 17.5l-15 4q-87 17 -123.5 47t-36.5 103v12q0 82 50 112t134 30h2q71 0 120 -15q22 -7 25 -29l4 -46q1 -14 -4 -20t-19 -3q-61 14 -116 14h-4q-33 0 -47.5 -9.5
t-14.5 -33.5v-6q0 -19 11.5 -30t48.5 -19l16 -4q84 -17 122 -49t38 -102v-21q0 -46 -14.5 -76.5t-43 -45.5t-60 -20.5t-76.5 -5.5h-3q-95 0 -139 16q-25 9 -28 35zM160 -143v59q0 25 24 25h81q24 0 24 -25v-59q0 -13 -5.5 -18.5t-18.5 -5.5h-81q-14 0 -19 5.5t-5 18.5z" />
    <glyph glyph-name="Wgrave" unicode="&#x1e80;" horiz-adv-x="777" 
d="M129 25l-107 644q-4 25 22 26l79 5q13 1 18.5 -3.5t7.5 -21.5l55 -348q15 -110 20 -185h4q8 87 25 182l62 339q4 24 28 24h95q25 0 28 -24l63 -342q9 -54 24 -179h4q12 131 20 183l54 350q2 17 8 21.5t19 3.5l75 -5q25 -1 22 -25l-106 -645q-4 -25 -29 -25h-116
q-14 0 -20 5.5t-8 19.5l-57 311q-14 74 -28 196h-4q-8 -101 -28 -200l-57 -307q-2 -14 -8 -19.5t-20 -5.5h-117q-14 0 -20.5 5.5t-7.5 19.5zM336 779l-79 130q-13 24 16 24h67q13 0 19.5 -4.5t11.5 -17.5l58 -130q5 -13 1.5 -18t-17.5 -5h-44q-13 0 -19.5 4.5t-13.5 16.5z
" />
    <glyph glyph-name="wgrave" unicode="&#x1e81;" horiz-adv-x="715" 
d="M114 24l-91 450q-4 23 22 26l83 7q24 1 28 -24l30 -189q11 -60 23 -173h4q8 47 34 170l43 187q4 23 27 23h84q14 0 19.5 -5t8.5 -18l42 -190q27 -128 34 -167h4q6 48 23 172l31 190q1 14 7 19.5t20 4.5l79 -7q27 -3 22 -25l-90 -452q-4 -23 -27 -23h-119q-23 0 -27 23
l-44 200q-10 46 -24 152h-4q-12 -92 -24 -150l-45 -201q-4 -24 -28 -24h-116q-25 0 -29 24zM303 608l-79 130q-14 24 16 24h67q13 0 19.5 -4.5t11.5 -17.5l58 -130q5 -13 1.5 -18t-17.5 -5h-44q-13 0 -19.5 4.5t-13.5 16.5z" />
    <glyph glyph-name="Wacute" unicode="&#x1e82;" horiz-adv-x="777" 
d="M129 25l-107 644q-4 25 22 26l79 5q13 1 18.5 -3.5t7.5 -21.5l55 -348q15 -110 20 -185h4q8 87 25 182l62 339q4 24 28 24h95q25 0 28 -24l63 -342q9 -54 24 -179h4q12 131 20 183l54 350q2 17 8 21.5t19 3.5l75 -5q25 -1 22 -25l-106 -645q-4 -25 -29 -25h-116
q-14 0 -20 5.5t-8 19.5l-57 311q-14 74 -28 196h-4q-8 -101 -28 -200l-57 -307q-2 -14 -8 -19.5t-20 -5.5h-117q-14 0 -20.5 5.5t-7.5 19.5zM523 909l-78 -130q-13 -21 -34 -21h-43q-27 0 -16 23l57 130q10 22 32 22h67q30 0 15 -24z" />
    <glyph glyph-name="wacute" unicode="&#x1e83;" horiz-adv-x="715" 
d="M114 24l-91 450q-4 23 22 26l83 7q24 1 28 -24l30 -189q11 -60 23 -173h4q8 47 34 170l43 187q4 23 27 23h84q14 0 19.5 -5t8.5 -18l42 -190q27 -128 34 -167h4q6 48 23 172l31 190q1 14 7 19.5t20 4.5l79 -7q27 -3 22 -25l-90 -452q-4 -23 -27 -23h-119q-23 0 -27 23
l-44 200q-10 46 -24 152h-4q-12 -92 -24 -150l-45 -201q-4 -24 -28 -24h-116q-25 0 -29 24zM490 738l-78 -130q-13 -21 -34 -21h-43q-27 0 -16 23l57 130q10 22 32 22h67q30 0 15 -24z" />
    <glyph glyph-name="Wdieresis" unicode="&#x1e84;" horiz-adv-x="777" 
d="M129 25l-107 644q-4 25 22 26l79 5q13 1 18.5 -3.5t7.5 -21.5l55 -348q15 -110 20 -185h4q8 87 25 182l62 339q4 24 28 24h95q25 0 28 -24l63 -342q9 -54 24 -179h4q12 131 20 183l54 350q2 17 8 21.5t19 3.5l75 -5q25 -1 22 -25l-106 -645q-4 -25 -29 -25h-116
q-14 0 -20 5.5t-8 19.5l-57 311q-14 74 -28 196h-4q-8 -101 -28 -200l-57 -307q-2 -14 -8 -19.5t-20 -5.5h-117q-14 0 -20.5 5.5t-7.5 19.5zM355 847v-60q0 -14 -5 -19.5t-19 -5.5h-68q-14 0 -19 5.5t-5 19.5v60q0 13 5.5 18.5t18.5 5.5h68q13 0 18.5 -5.5t5.5 -18.5z
M540 847v-60q0 -14 -5 -19.5t-19 -5.5h-68q-14 0 -19 5.5t-5 19.5v60q0 13 5 18.5t19 5.5h68q14 0 19 -5.5t5 -18.5z" />
    <glyph glyph-name="wdieresis" unicode="&#x1e85;" horiz-adv-x="715" 
d="M114 24l-91 450q-4 23 22 26l83 7q24 1 28 -24l30 -189q11 -60 23 -173h4q8 47 34 170l43 187q4 23 27 23h84q14 0 19.5 -5t8.5 -18l42 -190q27 -128 34 -167h4q6 48 23 172l31 190q1 14 7 19.5t20 4.5l79 -7q27 -3 22 -25l-90 -452q-4 -23 -27 -23h-119q-23 0 -27 23
l-44 200q-10 46 -24 152h-4q-12 -92 -24 -150l-45 -201q-4 -24 -28 -24h-116q-25 0 -29 24zM323 676v-60q0 -14 -5 -19.5t-19 -5.5h-68q-14 0 -19 5.5t-5 19.5v60q0 14 5.5 19t18.5 5h68q13 0 18.5 -5t5.5 -19zM508 676v-60q0 -14 -5 -19.5t-19 -5.5h-68q-14 0 -19 5.5
t-5 19.5v60q0 14 5 19t19 5h68q14 0 19 -5t5 -19z" />
    <glyph glyph-name="uni1E9E" unicode="&#x1e9e;" horiz-adv-x="622" 
d="M64 25v492q0 100 57 144.5t173 44.5h14q124 0 215 -30q24 -8 15 -32l-93 -245q47 -12 73.5 -29.5t41.5 -53.5t15 -95v-36q0 -109 -53 -151.5t-166 -42.5q-35 0 -52 2q-22 3 -25 30l-6 61q-1 13 4 17.5t19 2.5q13 -1 47 -1q56 0 77.5 16.5t21.5 61.5v41q0 46 -15.5 62.5
t-63.5 25.5l-53 10q-24 7 -12 41l90 233q-40 6 -84 6h-10q-51 0 -73 -18.5t-22 -60.5v-496q0 -25 -24 -25h-86q-25 0 -25 25z" />
    <glyph glyph-name="uni1EB8" unicode="&#x1eb8;" horiz-adv-x="497" 
d="M65 25v647q0 14 5.5 19.5t19.5 5.5h328q14 0 20 -5t8 -18l7 -58q3 -25 -24 -25h-229v-176h176q25 0 25 -24v-58q0 -24 -25 -24h-176v-197h237q28 0 24 -25l-10 -64q-1 -13 -7.5 -18t-20.5 -5h-333q-25 0 -25 25zM200 -143v59q0 25 24 25h81q24 0 24 -25v-59
q0 -13 -5.5 -18.5t-18.5 -5.5h-81q-14 0 -19 5.5t-5 18.5z" />
    <glyph glyph-name="uni1EB9" unicode="&#x1eb9;" horiz-adv-x="490" 
d="M54 159v187q0 91 51 130t151 39h9q94 0 139.5 -36.5t45.5 -113.5v-12q0 -78 -38 -108.5t-120 -30.5q-56 0 -109 12v-60q0 -43 19 -58.5t72 -15.5q65 0 135 19q12 4 18.5 -2t5.5 -19l-5 -48q-2 -15 -8.5 -21.5t-21.5 -11.5q-45 -18 -141 -18h-8q-93 0 -144 37t-51 131z
M183 357v-45q31 -11 84 -11q32 0 45 12.5t13 39.5v9q0 32 -14 45.5t-51 13.5h-5q-38 0 -55 -14.5t-17 -49.5zM187 -143v59q0 25 24 25h81q24 0 24 -25v-59q0 -13 -5 -18.5t-19 -5.5h-81q-13 0 -18.5 5.5t-5.5 18.5z" />
    <glyph glyph-name="uni1ECC" unicode="&#x1ecc;" horiz-adv-x="577" 
d="M58 177v343q0 100 57.5 144.5t172.5 44.5h6q114 0 170 -45t56 -144v-343q0 -100 -58 -144.5t-173 -44.5h-6q-115 0 -170 44t-55 145zM283 100h6q50 0 73 20t23 63v336q0 44 -21.5 64t-70.5 20h-5q-50 0 -72.5 -20.5t-22.5 -63.5v-336q0 -44 20.5 -63.5t69.5 -19.5z
M223 -143v59q0 25 24 25h81q24 0 24 -25v-59q0 -13 -5 -18.5t-19 -5.5h-81q-13 0 -18.5 5.5t-5.5 18.5z" />
    <glyph glyph-name="uni1ECD" unicode="&#x1ecd;" horiz-adv-x="507" 
d="M54 155v192q0 94 52.5 131t144.5 37h9q92 0 143 -37t51 -131v-192q0 -93 -53 -130t-145 -37h-9q-92 0 -142.5 37t-50.5 130zM249 94h6q66 0 66 65v193q0 35 -15 49.5t-48 14.5h-5q-34 0 -50.5 -14.5t-16.5 -49.5v-193q0 -35 15.5 -50t47.5 -15zM190 -143v59q0 25 24 25
h81q24 0 24 -25v-59q0 -13 -5.5 -18.5t-18.5 -5.5h-81q-14 0 -19 5.5t-5 18.5z" />
    <glyph glyph-name="endash" unicode="&#x2013;" horiz-adv-x="510" 
d="M33 258v57q0 14 5 19t19 5h396q14 0 19 -5t5 -19v-57q0 -25 -24 -25h-396q-24 0 -24 25z" />
    <glyph glyph-name="emdash" unicode="&#x2014;" horiz-adv-x="1023" 
d="M33 258v57q0 14 5 19t19 5h908q14 0 19.5 -5t5.5 -19v-57q0 -14 -5.5 -19.5t-19.5 -5.5h-908q-14 0 -19 5.5t-5 19.5z" />
    <glyph glyph-name="quoteleft" unicode="&#x2018;" horiz-adv-x="261" 
d="M141 723h68q27 0 13 -28q-39 -71 -39 -164v-9q0 -14 -5.5 -19.5t-19.5 -5.5h-75q-14 0 -19.5 5.5t-5.5 19.5v9q0 97 43 168q15 24 40 24z" />
    <glyph glyph-name="quoteright" unicode="&#x2019;" horiz-adv-x="261" 
d="M120 497h-68q-27 0 -13 28q40 75 40 164v9q0 14 5 19.5t19 5.5h76q14 0 19 -5.5t5 -19.5v-9q0 -97 -43 -168q-17 -24 -40 -24z" />
    <glyph glyph-name="quotesinglbase" unicode="&#x201a;" horiz-adv-x="261" 
d="M120 -105h-68q-27 0 -13 28q40 73 40 164v9q0 14 5 19.5t19 5.5h76q14 0 19 -5.5t5 -19.5v-9q0 -97 -43 -168q-15 -24 -40 -24z" />
    <glyph glyph-name="quotedblleft" unicode="&#x201c;" horiz-adv-x="444" 
d="M323 723h69q26 0 12 -28q-39 -74 -39 -164v-9q0 -14 -5 -19.5t-19 -5.5h-76q-14 0 -19 5.5t-5 19.5v9q0 102 43 168q15 24 39 24zM141 723h68q27 0 13 -28q-39 -71 -39 -164v-9q0 -14 -5.5 -19.5t-19.5 -5.5h-75q-14 0 -19.5 5.5t-5.5 19.5v9q0 97 43 168q15 24 40 24z
" />
    <glyph glyph-name="quotedblright" unicode="&#x201d;" horiz-adv-x="444" 
d="M303 497h-69q-26 0 -12 28q39 76 39 164v9q0 14 5.5 19.5t19.5 5.5h75q14 0 19.5 -5.5t5.5 -19.5v-9q0 -101 -44 -168q-6 -9 -9.5 -12.5t-11 -7.5t-18.5 -4zM120 497h-68q-27 0 -13 28q40 75 40 164v9q0 14 5 19.5t19 5.5h76q14 0 19 -5.5t5 -19.5v-9q0 -97 -43 -168
q-17 -24 -40 -24z" />
    <glyph glyph-name="quotedblbase" unicode="&#x201e;" horiz-adv-x="444" 
d="M303 -105h-68q-27 0 -13 28q40 73 40 164v9q0 14 5 19.5t19 5.5h75q14 0 19.5 -5.5t5.5 -19.5v-9q0 -97 -43 -168q-15 -24 -40 -24zM120 -105h-68q-27 0 -13 28q40 73 40 164v9q0 14 5 19.5t19 5.5h76q14 0 19 -5.5t5 -19.5v-9q0 -97 -43 -168q-15 -24 -40 -24z" />
    <glyph glyph-name="dagger" unicode="&#x2020;" horiz-adv-x="522" 
d="M213 25v431h-116q-24 0 -24 25v41q0 14 5.5 19t18.5 5h116v126q0 14 5.5 19.5t19.5 5.5h45q25 0 25 -25v-126h117q25 0 25 -24v-41q0 -25 -25 -25h-117v-431q0 -14 -5.5 -19.5t-19.5 -5.5h-45q-25 0 -25 25z" />
    <glyph glyph-name="daggerdbl" unicode="&#x2021;" horiz-adv-x="522" 
d="M213 25v124h-116q-14 0 -19 5.5t-5 19.5v40q0 25 24 25h116v217h-116q-24 0 -24 25v41q0 14 5.5 19t18.5 5h116v126q0 14 5.5 19.5t19.5 5.5h45q25 0 25 -25v-126h117q25 0 25 -24v-41q0 -25 -25 -25h-117v-217h117q25 0 25 -25v-40q0 -14 -5.5 -19.5t-19.5 -5.5h-117
v-124q0 -14 -5.5 -19.5t-19.5 -5.5h-45q-25 0 -25 25z" />
    <glyph glyph-name="bullet" unicode="&#x2022;" horiz-adv-x="279" 
d="M51 312v69q0 21 14 38.5t38 17.5h72q22 0 37 -17t15 -39v-69q0 -23 -15.5 -37.5t-36.5 -14.5h-72q-22 0 -37 14.5t-15 37.5z" />
    <glyph glyph-name="ellipsis" unicode="&#x2026;" horiz-adv-x="825" 
d="M609 25v71q0 14 5.5 19.5t19.5 5.5h95q14 0 19 -5.5t5 -19.5v-71q0 -14 -5 -19.5t-19 -5.5h-95q-14 0 -19.5 5.5t-5.5 19.5zM340 25v71q0 14 5.5 19.5t19.5 5.5h95q14 0 19 -5.5t5 -19.5v-71q0 -14 -5 -19.5t-19 -5.5h-95q-14 0 -19.5 5.5t-5.5 19.5zM72 25v71
q0 14 5 19.5t19 5.5h95q14 0 19 -5.5t5 -19.5v-71q0 -14 -5 -19.5t-19 -5.5h-95q-14 0 -19 5.5t-5 19.5z" />
    <glyph glyph-name="perthousand" unicode="&#x2030;" horiz-adv-x="1328" 
d="M260 1l324 695q10 22 33 22h46q14 0 17 -5t-2 -18l-323 -695q-11 -22 -33 -22h-46q-14 0 -17.5 5t1.5 18zM44 383v197q0 123 160 123q158 0 158 -124v-196q0 -124 -160 -124h-2q-156 0 -156 124zM197 343h10q46 0 46 43v194q0 43 -45 43h-8q-47 0 -47 -43v-194
q0 -43 44 -43zM967 118v197q0 123 159 123q158 0 158 -124v-196q0 -124 -159 -124h-3q-155 0 -155 124zM577 118v197q0 123 160 123q157 0 157 -124v-196q0 -124 -159 -124h-2q-156 0 -156 124zM1120 78h9q47 0 47 43v194q0 43 -45 43h-8q-48 0 -48 -43v-194q0 -43 45 -43z
M730 78h9q47 0 47 43v194q0 43 -45 43h-8q-48 0 -48 -43v-194q0 -43 45 -43z" />
    <glyph glyph-name="guilsinglleft" unicode="&#x2039;" horiz-adv-x="313" 
d="M135 76l-80 156q-11 22 0 44l80 155q12 22 33 22h58q28 0 17 -23l-89 -174l93 -179q11 -23 -17 -23h-62q-21 0 -33 22z" />
    <glyph glyph-name="guilsinglright" unicode="&#x203a;" horiz-adv-x="313" 
d="M70 79l88 172l-91 177q-13 25 15 25h63q21 0 32 -22l80 -155q11 -22 0 -44l-80 -156q-11 -22 -32 -22h-60q-27 0 -15 25z" />
    <glyph glyph-name="fraction" unicode="&#x2044;" horiz-adv-x="206" 
d="M-106 1l323 695q11 22 33 22h46q14 0 17.5 -5t-1.5 -18l-324 -695q-10 -22 -33 -22h-45q-27 0 -16 23z" />
    <glyph glyph-name="zero.superior" unicode="&#x2070;" horiz-adv-x="414" 
d="M48 499v195q0 63 41 93.5t113 30.5h10q154 0 154 -124v-195q0 -125 -158 -125h-6q-154 0 -154 125zM202 458h9q46 0 46 44v192q0 44 -45 44h-8q-47 0 -47 -44v-192q0 -44 45 -44z" />
    <glyph glyph-name="four.superior" unicode="&#x2074;" horiz-adv-x="389" 
d="M27 511l-6 36q-2 15 10 37l125 221q7 16 29 9l64 -20q18 -6 8 -25l-52 -83l-70 -115h97v51q0 11 4 16t17 6l70 8q21 3 21 -17v-235q0 -11 -4.5 -15.5t-16.5 -4.5h-70q-12 0 -16.5 4.5t-4.5 15.5v91h-183q-11 0 -15.5 4.5t-6.5 15.5z" />
    <glyph glyph-name="five.superior" unicode="&#x2075;" horiz-adv-x="382" 
d="M41 407l-6 46q-1 10 3 13.5t17 2.5q63 -10 116 -10q32 0 44.5 9.5t12.5 32.5v22q0 26 -10.5 36t-41.5 10h-109q-12 0 -17 4t-5 15v204q0 11 4.5 15.5t15.5 4.5h228q21 0 22 -20l4 -40q1 -11 -3 -15t-17 -4h-142v-83h32q151 0 151 -121v-33q0 -64 -41.5 -92.5
t-125.5 -28.5q-71 0 -111 9q-20 5 -21 23z" />
    <glyph glyph-name="six.superior" unicode="&#x2076;" horiz-adv-x="399" 
d="M49 497v198q0 122 158 122h3q56 0 90 -9q13 -3 16.5 -7t5.5 -15l5 -43q1 -10 -2.5 -13.5t-15.5 -1.5q-52 9 -99 9h-4q-51 0 -51 -43v-17l-1 -31q23 9 55 9h5q63 0 102 -29.5t39 -92.5v-36q0 -62 -40.5 -92.5t-111.5 -30.5h-3q-151 0 -151 123zM198 457h6q45 0 45 42v35
q0 42 -42 42h-8q-44 0 -44 -42v-35q0 -42 43 -42z" />
    <glyph glyph-name="seven.superior" unicode="&#x2077;" horiz-adv-x="348" 
d="M42 404l165 328h-164q-12 0 -17.5 4.5t-4.5 14.5l7 41q2 12 5.5 16t15.5 4h255q12 0 16.5 -4t4.5 -16v-32q0 -22 -7 -38l-158 -330q-5 -10 -10.5 -13t-18.5 -2l-73 6q-26 2 -16 21z" />
    <glyph glyph-name="eight.superior" unicode="&#x2078;" horiz-adv-x="415" 
d="M45 500v23q0 65 49 85q-38 21 -38 77v12q0 121 154 121h1q148 0 148 -121v-12q0 -54 -38 -75q49 -19 49 -87v-23q0 -67 -40.5 -96.5t-121.5 -29.5h-3q-80 0 -120 29.5t-40 96.5zM201 453h12q47 0 47 43v30q0 22 -10 32.5t-35 10.5h-13q-48 0 -48 -43v-30q0 -43 47 -43z
M204 644h5q25 0 35 9t10 32v15q0 22 -9.5 32t-33.5 10h-6q-24 0 -34 -10t-10 -32v-15q0 -23 9.5 -32t33.5 -9z" />
    <glyph glyph-name="nine.superior" unicode="&#x2079;" horiz-adv-x="399" 
d="M77 406l-6 42q-1 11 3.5 15t16.5 2q52 -7 96 -7h4q54 0 54 40v20l1 36q-23 -9 -53 -9h-5q-65 0 -104.5 29.5t-39.5 92.5v29q0 61 41 91.5t111 30.5h4q151 0 151 -122v-198q0 -66 -41 -94.5t-126 -28.5h-2q-46 0 -84 7q-12 3 -16 7.5t-5 16.5zM192 624h8q45 0 45 43v29
q0 42 -43 42h-7q-45 0 -45 -42v-29q0 -43 42 -43z" />
    <glyph glyph-name="plus.superior" unicode="&#x207a;" horiz-adv-x="404" 
d="M50 554v40q0 20 22 20h85v82q0 19 21 19h47q22 0 22 -19v-82h84q22 0 22 -20v-40q0 -12 -5 -16t-17 -4h-84v-80q0 -12 -5 -16t-17 -4h-47q-12 0 -16.5 4t-4.5 16v80h-85q-22 0 -22 20z" />
    <glyph glyph-name="minus.superior" unicode="&#x207b;" horiz-adv-x="368" 
d="M50 554v40q0 20 21 20h224q22 0 22 -20v-40q0 -12 -5 -16t-17 -4h-224q-12 0 -16.5 4t-4.5 16z" />
    <glyph glyph-name="equal.superior" unicode="&#x207c;" horiz-adv-x="383" 
d="M58 620v42q0 20 22 20h223q12 0 16.5 -4.5t4.5 -15.5v-42q0 -11 -4.5 -15.5t-16.5 -4.5h-223q-22 0 -22 20zM58 484v42q0 12 5 16t17 4h223q12 0 16.5 -4t4.5 -16v-42q0 -11 -4.5 -15.5t-16.5 -4.5h-223q-22 0 -22 20z" />
    <glyph glyph-name="parenleft.superior" unicode="&#x207d;" horiz-adv-x="318" 
d="M244 363h-77q-18 0 -29 19q-74 102 -74 214q0 109 74 215q11 18 31 18h77q12 0 14 -7t-2 -10q-84 -115 -84 -217q0 -96 81 -213q6 -7 4 -13t-15 -6z" />
    <glyph glyph-name="parenright.superior" unicode="&#x207e;" horiz-adv-x="316" 
d="M150 363h-78q-13 0 -15 6t4 13q82 119 82 213q0 102 -84 217q-2 2 -3 6t2.5 7.5t12.5 3.5h78q19 0 31 -18q72 -104 72 -215q0 -113 -72 -214q-14 -19 -30 -19z" />
    <glyph glyph-name="n.superior" unicode="&#x207f;" horiz-adv-x="388" 
d="M46 285v251q0 18 15 23q52 22 141 22q145 0 145 -114v-182q0 -11 -4.5 -15.5t-16.5 -4.5h-72q-12 0 -16.5 4.5t-4.5 15.5v189q0 35 -37 35q-19 0 -35 -4v-220q0 -11 -4.5 -15.5t-16.5 -4.5h-73q-21 0 -21 20z" />
    <glyph glyph-name="zero.inferior" unicode="&#x2080;" horiz-adv-x="414" 
d="M48 -6v195q0 63 41 93.5t113 30.5h10q154 0 154 -124v-195q0 -125 -158 -125h-6q-154 0 -154 125zM202 -47h9q46 0 46 44v192q0 44 -45 44h-8q-47 0 -47 -44v-192q0 -44 45 -44z" />
    <glyph glyph-name="one.inferior" unicode="&#x2081;" horiz-adv-x="270" 
d="M102 -105v308l-38 -16q-27 -11 -31 8l-10 41q-6 20 12 29l78 35q17 7 33 7h49q22 0 22 -20v-392q0 -20 -22 -20h-71q-22 0 -22 20z" />
    <glyph glyph-name="two.inferior" unicode="&#x2082;" horiz-adv-x="392" 
d="M46 -105v123q0 58 29 80.5t102 35.5l17 3q20 3 29 11t9 26v19q0 22 -12 30.5t-40 8.5h-3q-41 0 -93 -7q-12 -2 -16 1t-3 15l5 41q3 19 22 22q41 8 82 8h3q88 0 128 -26t40 -90v-22q0 -62 -27.5 -83t-97.5 -33l-17 -3q-24 -4 -33 -12.5t-9 -29.5v-56h166q13 0 17 -4.5
t3 -15.5l-5 -42q-2 -11 -6.5 -15.5t-16.5 -4.5h-251q-22 0 -22 20z" />
    <glyph glyph-name="three.inferior" unicode="&#x2083;" horiz-adv-x="378" 
d="M40 -100l-5 44q-2 12 2.5 15.5t17.5 2.5q59 -8 101 -8h5q32 0 44.5 9.5t12.5 33.5v20q0 23 -10 32t-38 9h-60q-12 0 -16.5 4.5t-4.5 15.5v41q0 11 4.5 15.5t16.5 4.5h54q28 0 38.5 9t10.5 32v12q0 21 -10.5 30.5t-38.5 9.5h-2q-59 0 -98 -8q-13 -1 -16.5 2t-2.5 14l5 43
q1 17 22 21q38 8 93 8h5q79 0 118.5 -28.5t39.5 -92.5v-11q0 -56 -46 -76q50 -18 50 -86v-27q0 -65 -39.5 -93t-127.5 -28h-5q-62 0 -98 7q-12 2 -16 7t-6 16z" />
    <glyph glyph-name="four.inferior" unicode="&#x2084;" horiz-adv-x="389" 
d="M27 6l-6 36q-2 15 10 37l125 221q7 16 29 9l64 -20q18 -6 8 -25l-52 -83l-70 -115h97v51q0 11 4 16t17 6l70 8q21 3 21 -17v-235q0 -11 -4.5 -15.5t-16.5 -4.5h-70q-12 0 -16.5 4.5t-4.5 15.5v91h-183q-11 0 -15.5 4.5t-6.5 15.5z" />
    <glyph glyph-name="five.inferior" unicode="&#x2085;" horiz-adv-x="382" 
d="M41 -98l-6 46q-1 10 3 13.5t17 2.5q63 -10 116 -10q32 0 44.5 9.5t12.5 32.5v22q0 26 -10.5 36t-41.5 10h-109q-12 0 -17 4t-5 15v204q0 11 4.5 15.5t15.5 4.5h228q21 0 22 -20l4 -40q1 -11 -3 -15t-17 -4h-142v-83h32q151 0 151 -121v-33q0 -64 -41.5 -92.5
t-125.5 -28.5q-71 0 -111 9q-20 5 -21 23z" />
    <glyph glyph-name="six.inferior" unicode="&#x2086;" horiz-adv-x="399" 
d="M49 -8v198q0 122 158 122h3q56 0 90 -9q13 -3 16.5 -7t5.5 -15l5 -43q1 -10 -2.5 -13.5t-15.5 -1.5q-52 9 -99 9h-4q-51 0 -51 -43v-17l-1 -31q23 9 55 9h5q63 0 102 -29.5t39 -92.5v-36q0 -62 -40.5 -92.5t-111.5 -30.5h-3q-151 0 -151 123zM198 -48h6q45 0 45 42v35
q0 42 -42 42h-8q-44 0 -44 -42v-35q0 -42 43 -42z" />
    <glyph glyph-name="seven.inferior" unicode="&#x2087;" horiz-adv-x="348" 
d="M42 -101l165 328h-164q-12 0 -17.5 4.5t-4.5 14.5l7 41q2 12 5.5 16t15.5 4h255q12 0 16.5 -4t4.5 -16v-32q0 -22 -7 -38l-158 -330q-5 -10 -10.5 -13t-18.5 -2l-73 6q-26 2 -16 21z" />
    <glyph glyph-name="eight.inferior" unicode="&#x2088;" horiz-adv-x="415" 
d="M45 -5v23q0 65 49 85q-38 21 -38 77v12q0 121 154 121h1q148 0 148 -121v-12q0 -54 -38 -75q49 -19 49 -87v-23q0 -67 -40.5 -96.5t-121.5 -29.5h-3q-80 0 -120 29.5t-40 96.5zM201 -52h12q47 0 47 43v30q0 22 -10 32.5t-35 10.5h-13q-48 0 -48 -43v-30q0 -43 47 -43z
M204 139h5q25 0 35 9t10 32v15q0 22 -9.5 32t-33.5 10h-6q-24 0 -34 -10t-10 -32v-15q0 -23 9.5 -32t33.5 -9z" />
    <glyph glyph-name="nine.inferior" unicode="&#x2089;" horiz-adv-x="399" 
d="M77 -99l-6 42q-1 11 3.5 15t16.5 2q53 -7 96 -7h4q54 0 54 40v20l1 36q-23 -9 -53 -9h-5q-65 0 -104.5 29.5t-39.5 92.5v29q0 61 41 91.5t111 30.5h4q151 0 151 -122v-198q0 -66 -41 -94.5t-126 -28.5h-2q-46 0 -84 7q-12 3 -16 7.5t-5 16.5zM192 119h8q45 0 45 43v29
q0 42 -43 42h-7q-45 0 -45 -42v-29q0 -43 42 -43z" />
    <glyph glyph-name="plus.inferior" unicode="&#x208a;" horiz-adv-x="404" 
d="M50 49v40q0 20 22 20h85v82q0 19 21 19h47q22 0 22 -19v-82h84q22 0 22 -20v-40q0 -12 -5 -16t-17 -4h-84v-80q0 -12 -5 -16t-17 -4h-47q-12 0 -16.5 4t-4.5 16v80h-85q-22 0 -22 20z" />
    <glyph glyph-name="minus.inferior" unicode="&#x208b;" horiz-adv-x="368" 
d="M50 49v40q0 20 21 20h224q22 0 22 -20v-40q0 -12 -5 -16t-17 -4h-224q-12 0 -16.5 4t-4.5 16z" />
    <glyph glyph-name="equal.inferior" unicode="&#x208c;" horiz-adv-x="383" 
d="M58 115v42q0 20 22 20h223q12 0 16.5 -4.5t4.5 -15.5v-42q0 -11 -4.5 -15.5t-16.5 -4.5h-223q-22 0 -22 20zM58 -21v42q0 12 5 16t17 4h223q12 0 16.5 -4t4.5 -16v-42q0 -11 -4.5 -15.5t-16.5 -4.5h-223q-22 0 -22 20z" />
    <glyph glyph-name="parenleft.inferior" unicode="&#x208d;" horiz-adv-x="318" 
d="M244 -142h-77q-18 0 -29 19q-74 102 -74 214q0 109 74 215q11 18 31 18h77q12 0 14 -7t-2 -10q-84 -115 -84 -217q0 -96 81 -213q6 -7 4 -13t-15 -6z" />
    <glyph glyph-name="parenright.inferior" unicode="&#x208e;" horiz-adv-x="316" 
d="M150 -142h-78q-13 0 -15 6t4 13q82 119 82 213q0 102 -84 217q-2 2 -3 6t2.5 7.5t12.5 3.5h78q19 0 31 -18q72 -104 72 -215q0 -113 -72 -214q-14 -19 -30 -19z" />
    <glyph glyph-name="franc" unicode="&#x20a3;" horiz-adv-x="565" 
d="M106 25v68h-27q-14 0 -19 5t-5 19v39q0 14 5 19.5t19 5.5h27v491q0 25 25 25h345q14 0 19.5 -5t6.5 -18l5 -58q3 -25 -25 -25h-241v-194h195q27 0 24 -24l-4 -59q-1 -24 -26 -24h-189v-109h30q25 0 25 -25v-39q0 -24 -25 -24h-30v-68q0 -25 -24 -25h-86q-25 0 -25 25z
" />
    <glyph glyph-name="Euro" unicode="&#x20ac;" 
d="M125 181v56h-42q-24 0 -24 25v28q0 14 5 19.5t19 5.5h42v74h-42q-13 0 -18.5 5.5t-5.5 18.5v29q0 25 24 25h42v50q0 100 54.5 144.5t159.5 44.5q78 0 121 -12q24 -5 25 -28l6 -57q2 -14 -3 -18t-18 -2q-88 11 -119 11q-47 0 -69 -19t-22 -60v-54h82q14 0 19.5 -5.5
t5.5 -19.5v-29q0 -24 -25 -24h-82v-74h82q14 0 19.5 -5.5t5.5 -19.5v-28q0 -25 -25 -25h-82v-54q0 -43 20 -61.5t67 -18.5q30 0 61.5 3t47.5 6l17 3q15 2 20 -2t4 -18l-7 -61q-1 -13 -6 -19t-19 -10q-59 -13 -133 -13q-103 0 -155 44.5t-52 144.5z" />
    <glyph glyph-name="uni2116" unicode="&#x2116;" horiz-adv-x="936" 
d="M596 466v108q0 108 148 108h7q146 0 146 -108v-108q0 -107 -148 -107h-6q-70 0 -108.5 23.5t-38.5 83.5zM743 437h6q38 0 38 29v115q0 28 -37 28h-6q-39 0 -39 -28v-115q0 -29 38 -29zM599 262v38q0 15 15 15h265q9 0 12 -3t3 -12v-38q0 -15 -15 -15h-265q-15 0 -15 15z
M65 25v647q0 25 25 25h89q22 0 30 -23l121 -299q38 -96 59 -165h3q-11 128 -11 297v165q0 25 25 25h76q25 0 25 -25v-647q0 -25 -25 -25h-88q-14 0 -20.5 5t-10.5 18l-119 293q-49 125 -61 170h-4q11 -116 11 -308v-153q0 -25 -24 -25h-76q-25 0 -25 25z" />
    <glyph glyph-name="uni2117" unicode="&#x2117;" horiz-adv-x="824" 
d="M291 167v367q0 20 19 20h100q70 0 99.5 -25t29.5 -88v-30q0 -64 -30.5 -89.5t-101.5 -25.5h-29v-129q0 -20 -20 -20h-48q-19 0 -19 20zM378 371h34q22 0 31.5 8.5t9.5 30.5v33q0 23 -9.5 31.5t-33.5 8.5h-32v-112zM79 176v345q0 100 54.5 144t166.5 44h224
q111 0 166 -44.5t55 -143.5v-345q0 -100 -55 -144t-167 -44h-223q-112 0 -166.5 44t-54.5 144zM299 63h225q71 0 103.5 25t32.5 85v352q0 61 -33 86t-103 25h-225q-70 0 -103 -25t-33 -86v-352q0 -60 32.5 -85t103.5 -25z" />
    <glyph glyph-name="trademark" unicode="&#x2122;" horiz-adv-x="659" 
d="M299 361v323q0 13 12 13h49q11 0 17 -12l36 -85q16 -37 28 -69l28 68l35 86q5 12 20 12h45q13 0 13 -13v-323q0 -13 -13 -13h-40q-13 0 -13 13v75q0 141 4 155h-2l-39 -90l-18 -44q-5 -11 -17 -11h-6q-10 0 -16 11l-20 43q-24 52 -40 93h-2q5 -25 5 -156v-76
q0 -13 -13 -13h-41q-12 0 -12 13zM105 361v281h-60q-13 0 -12 13l4 29q1 13 13 13h179q13 0 14 -13l4 -29q1 -13 -12 -13h-61v-281q0 -13 -12 -13h-43q-14 0 -14 13z" />
    <glyph glyph-name="Omega" unicode="&#x2126;" horiz-adv-x="667" 
d="M24 25v56q0 24 25 24h95q-40 43 -40 129v288q0 100 57 143.5t171 43.5h7q114 0 169 -44t55 -143v-288q0 -83 -43 -129h98q25 0 25 -24v-56q0 -14 -5.5 -19.5t-19.5 -5.5h-207q-14 0 -19 5.5t-5 19.5v53q0 19 16 33q25 22 25 65v341q0 40 -21.5 56.5t-69.5 16.5h-3
q-49 0 -72 -16.5t-23 -56.5v-341q0 -46 25 -64q16 -16 16 -34v-53q0 -14 -5.5 -19.5t-19.5 -5.5h-206q-14 0 -19.5 5.5t-5.5 19.5z" />
    <glyph glyph-name="estimated" unicode="&#x212e;" horiz-adv-x="839" 
d="M229 350v-229q78 -75 193 -75q158 0 254 152l43 -25q-72 -98 -138.5 -135.5t-158.5 -37.5q-152 0 -245.5 98.5t-93.5 251.5q0 157 94.5 254.5t244.5 97.5q63 0 121.5 -21.5t107.5 -63t78.5 -110.5t29.5 -157h-530zM229 397h383v182q-85 77 -193 77q-107 0 -190 -77v-182z
" />
    <glyph glyph-name="arrowleft" unicode="&#x2190;" horiz-adv-x="792" 
d="M686 275v-49q0 -14 -5.5 -19t-19.5 -5h-388l136 -157q9 -11 5.5 -19.5t-16.5 -8.5h-70q-20 0 -30.5 4.5t-22.5 17.5l-152 177q-17 20 -17 36t17 35l146 169q16 18 27 23.5t31 5.5h66q14 0 17 -8.5t-7 -19.5l-136 -157h394q14 0 19.5 -5.5t5.5 -19.5z" />
    <glyph glyph-name="arrowup" unicode="&#x2191;" horiz-adv-x="792" 
d="M426 -11h-60q-14 0 -19.5 5.5t-5.5 19.5v417l-151 -133q-11 -9 -19.5 -6t-8.5 16v61q0 21 5 31.5t24 26.5l177 155q26 23 54 -2l185 -159q15 -12 18.5 -21.5t3.5 -30.5v-66q0 -13 -8.5 -16t-19.5 6l-151 133v-412q0 -14 -5 -19.5t-19 -5.5z" />
    <glyph glyph-name="arrowright" unicode="&#x2192;" horiz-adv-x="792" 
d="M106 227v49q0 14 5.5 19t19.5 5h388l-136 157q-9 11 -5.5 19.5t16.5 8.5h70q20 0 30.5 -4.5t22.5 -17.5l152 -177q17 -20 17 -36t-17 -35l-146 -169q-16 -18 -27 -23.5t-31 -5.5h-66q-14 0 -17 8.5t7 19.5l136 157h-394q-14 0 -19.5 5.5t-5.5 19.5z" />
    <glyph glyph-name="arrowdown" unicode="&#x2193;" horiz-adv-x="792" 
d="M366 597h59q14 0 19.5 -5.5t5.5 -19.5v-417l152 133q10 9 18.5 6.5t8.5 -16.5v-60q0 -22 -4.5 -32t-23.5 -27l-178 -154q-27 -23 -54 1l-185 159q-15 12 -18.5 21.5t-3.5 30.5v66q0 13 9 16.5t19 -6.5l151 -132v411q0 14 5.5 19.5t19.5 5.5z" />
    <glyph glyph-name="partialdiff" unicode="&#x2202;" horiz-adv-x="552" 
d="M62 173v80q0 181 193 181h4q61 0 94 -22q-2 32 -2 59v56q0 39 -22.5 55.5t-70.5 16.5q-26 0 -58 -4q-13 -2 -18 2.5t-4 18.5l7 56q1 24 24 28q18 5 55 5q109 0 164 -42t55 -142v-348q0 -99 -53.5 -141t-155.5 -42h-5q-103 0 -155 42t-52 141zM267 100h3q39 0 60 14.5
t21 53.5v94q0 39 -18.5 53.5t-55.5 14.5h-9q-37 0 -57 -14.5t-20 -53.5v-94q0 -39 19 -53.5t57 -14.5z" />
    <glyph glyph-name="Delta" unicode="&#x2206;" horiz-adv-x="505" 
d="M18 24l174 649q7 24 31 24h57q25 0 31 -24l174 -649q3 -13 -1 -18.5t-18 -5.5h-429q-14 0 -18.5 5.5t-0.5 18.5zM137 99h228l-113 439z" />
    <glyph glyph-name="product" unicode="&#x220f;" horiz-adv-x="571" 
d="M70 -234v906q0 25 25 25h383q24 0 24 -25v-906q0 -25 -24 -25h-75q-25 0 -25 25v821h-184v-821q0 -14 -5.5 -19.5t-19.5 -5.5h-74q-25 0 -25 25z" />
    <glyph glyph-name="summation" unicode="&#x2211;" horiz-adv-x="526" 
d="M63 -171v31q0 22 9 47l139 336q7 14 1 31l-123 308q-9 22 -9 47v43q0 25 24 25h335q24 0 24 -25v-53q0 -14 -5 -19.5t-19 -5.5h-222l125 -309q8 -22 0 -46l-131 -332h226q24 0 24 -25v-53q0 -14 -5 -19.5t-19 -5.5h-349q-25 0 -25 25z" />
    <glyph glyph-name="minus" unicode="&#x2212;" 
d="M62 287v53q0 25 25 25h380q14 0 19.5 -5.5t5.5 -19.5v-53q0 -14 -5.5 -19.5t-19.5 -5.5h-380q-14 0 -19.5 5.5t-5.5 19.5z" />
    <glyph glyph-name="radical" unicode="&#x221a;" horiz-adv-x="606" 
d="M248 25l-64 385h-92q-25 0 -25 24v42q0 25 25 25h154q14 0 20.5 -5.5t7.5 -19.5l44 -295l108 590q2 14 8 19.5t20 5.5h62q14 0 18.5 -5.5t2.5 -19.5l-151 -746q-2 -14 -8.5 -19.5t-20.5 -5.5h-81q-14 0 -20 5.5t-8 19.5z" />
    <glyph glyph-name="infinity" unicode="&#x221e;" horiz-adv-x="839" 
d="M80 262v41q0 91 50.5 126t139.5 35h17q91 0 133 -42q43 42 138 42h17q89 0 136.5 -34.5t47.5 -126.5v-41q0 -91 -50.5 -126.5t-139.5 -35.5h-16q-95 0 -134 42q-43 -42 -138 -42h-16q-89 0 -137 35t-48 127zM555 193h8q47 0 69.5 13.5t22.5 52.5v52q0 38 -19.5 50.5
t-64.5 12.5h-8q-47 0 -69 -12.5t-22 -50.5v-53q0 -39 18.5 -52t64.5 -13zM268 193h8q47 0 69.5 13.5t22.5 52.5v52q0 38 -19 50.5t-65 12.5h-8q-47 0 -69 -12.5t-22 -50.5v-53q0 -39 19 -52t64 -13z" />
    <glyph glyph-name="integral" unicode="&#x222b;" horiz-adv-x="361" 
d="M-13 -196l-5 56q-3 26 24 23q22 -2 25 -2q30 0 46.5 11.5t16.5 44.5v625q0 166 190 166q30 0 56 -6q14 -3 18.5 -8t5.5 -18l4 -49q1 -14 -4 -19t-20 -4q-25 5 -51 5q-66 0 -66 -60v-631q0 -165 -180 -165q-18 0 -36 4q-13 2 -17.5 7.5t-6.5 19.5z" />
    <glyph glyph-name="approxequal" unicode="&#x2248;" 
d="M119 182l-20 23q-18 18 0 38q39 46 98 46q30 0 59.5 -19.5t56.5 -39.5t51 -20q20 0 35 15q17 16 33 1l26 -26q15 -16 -2 -37q-42 -53 -101 -53q-39 0 -91.5 40t-74.5 40q-16 0 -34 -12q-19 -13 -36 4zM119 399l-20 23q-18 18 0 38q39 46 98 46q30 0 59.5 -20l56.5 -39.5
t51 -19.5q20 0 35 15q17 16 33 1l26 -26q15 -16 -2 -37q-42 -53 -101 -53q-39 0 -91.5 40t-74.5 40q-16 0 -34 -12q-19 -13 -36 4z" />
    <glyph glyph-name="notequal" unicode="&#x2260;" 
d="M124 54l46 107h-72q-14 0 -19.5 5t-5.5 19v54q0 24 25 24h115l44 101h-159q-14 0 -19.5 5.5t-5.5 19.5v53q0 25 25 25h202l57 130q6 14 12.5 16.5t20.5 -2.5l30 -11q22 -9 13 -32l-45 -101h69q14 0 19.5 -5.5t5.5 -19.5v-53q0 -14 -5.5 -19.5t-19.5 -5.5h-111l-45 -101
h156q14 0 19.5 -5t5.5 -19v-54q0 -24 -25 -24h-199l-59 -137q-9 -22 -32 -13l-30 11q-14 5 -16.5 11.5t3.5 20.5z" />
    <glyph glyph-name="lessequal" unicode="&#x2264;" 
d="M97 25v57q0 24 25 24h230l-236 185q-19 16 -19 41v79q0 25 21 38l318 214q22 15 22 -12v-82q0 -25 -21 -38l-239 -162l241 -192q19 -16 19 -40v-112q0 -25 -25 -25h-311q-25 0 -25 25z" />
    <glyph glyph-name="greaterequal" unicode="&#x2265;" 
d="M97 25v112q0 24 19 40l241 192l-239 162q-21 13 -21 38v82q0 27 22 12l318 -214q21 -13 21 -38v-79q0 -25 -19 -41l-236 -185h230q25 0 25 -24v-57q0 -25 -25 -25h-311q-25 0 -25 25z" />
    <glyph glyph-name="uni24B9" unicode="&#x24b9;" horiz-adv-x="824" 
d="M287 160v379q0 14 14 14h114q66 0 97.5 -26t31.5 -85v-184q0 -59 -32.5 -85.5t-99.5 -26.5h-111q-14 0 -14 14zM376 220h41q25 0 32 15.5t7 58.5v141q0 45 -37 45h-43v-260zM79 176v345q0 100 54.5 144t166.5 44h224q111 0 166 -44.5t55 -143.5v-345q0 -100 -55 -144
t-167 -44h-223q-112 0 -166.5 44t-54.5 144zM299 63h225q71 0 103.5 25t32.5 85v352q0 61 -33 86t-103 25h-225q-70 0 -103 -25t-33 -86v-352q0 -60 32.5 -85t103.5 -25z" />
    <glyph glyph-name="lozenge" unicode="&#x25ca;" horiz-adv-x="490" 
d="M233 -209l-176 448q-9 23 -1 46l178 480q8 24 16 0l178 -480q8 -23 -1 -46l-177 -448q-8 -23 -17 0zM242 -40l114 304l-113 325l-115 -327z" />
    <glyph glyph-name="fi" unicode="&#xfb01;" horiz-adv-x="580" 
d="M84 25v383h-45q-24 0 -24 24v46q0 25 24 25h45v61q0 164 187 164q89 0 134 -15q13 -4 17.5 -9t6.5 -18l4 -49q2 -13 -3.5 -19.5t-19.5 -2.5q-65 14 -128 14q-65 0 -65 -60v-66h275q25 0 25 -25v-453q0 -25 -25 -25h-84q-25 0 -25 25v383h-166v-383q0 -25 -25 -25h-83
q-25 0 -25 25z" />
    <glyph glyph-name="fl" unicode="&#xfb02;" horiz-adv-x="617" 
d="M383 623q-55 6 -105 6q-61 0 -61 -59v-67h66q26 0 22 -25l-6 -47q-1 -13 -7.5 -18t-20.5 -5h-54v-383q0 -25 -25 -25h-83q-25 0 -25 25v383h-45q-24 0 -24 24v46q0 25 24 25h45v59q0 93 50.5 129.5t138.5 36.5q131 0 220 -20q13 -3 18.5 -9t5.5 -18v-533q0 -30 8 -39
t34 -9q4 0 15.5 1t14.5 1q12 0 16.5 -4t2.5 -18l-6 -56q-1 -13 -6.5 -18.5t-19.5 -7.5q-20 -4 -50 -4q-74 0 -108.5 31t-34.5 120v478z" />
    <glyph glyph-name="EmptyFrame" horiz-adv-x="824" 
d="M79 176v345q0 100 54.5 144t166.5 44h224q111 0 166 -44.5t55 -143.5v-345q0 -100 -55 -144t-167 -44h-223q-112 0 -166.5 44t-54.5 144zM299 63h225q71 0 103.5 25t32.5 85v352q0 61 -33 86t-103 25h-225q-70 0 -103 -25t-33 -86v-352q0 -60 32.5 -85t103.5 -25z" />
    <glyph glyph-name="parenleft.alt" horiz-adv-x="379" 
d="M98 40v611q0 83 34.5 111t134.5 28h22q24 0 24 -25v-52q0 -14 -5.5 -19.5t-18.5 -5.5h-31q-29 0 -37.5 -5.5t-8.5 -25.5v-624q0 -18 8.5 -24t35.5 -6h33q24 0 24 -25v-51q0 -14 -5.5 -19.5t-18.5 -5.5h-19q-101 0 -136.5 27t-35.5 111z" />
    <glyph glyph-name="parenright.alt" horiz-adv-x="379" 
d="M66 -73v51q0 14 5.5 19.5t19.5 5.5h32q28 0 36 6t8 24v624q0 20 -8.5 25.5t-37.5 5.5h-30q-25 0 -25 25v52q0 14 5.5 19.5t19.5 5.5h21q100 0 134.5 -28t34.5 -111v-611q0 -85 -35 -111.5t-137 -26.5h-18q-25 0 -25 25z" />
    <glyph glyph-name="germandbls.versal" horiz-adv-x="982" 
d="M52 37l-7 63q-1 13 4 17.5t20 2.5q96 -17 151 -17q57 0 79 17.5t22 68.5v22q0 49 -16.5 68t-64.5 30l-17 4q-47 10 -74 20t-53 29.5t-37 52.5t-11 83v25q0 101 52 142t158 41q67 0 123 -14q14 -4 19 -10t6 -19l6 -56q2 -13 -2.5 -18t-18.5 -2q-61 13 -123 13
q-45 0 -66.5 -17t-21.5 -62v-16q0 -40 16.5 -57t62.5 -27l16 -4q51 -11 79.5 -22t53.5 -32t35 -55.5t10 -87.5v-33q0 -110 -51.5 -153t-171.5 -43q-88 0 -154 17q-23 6 -24 29zM537 37l-7 63q-1 13 4 17.5t20 2.5q96 -17 151 -17q57 0 79 17.5t22 68.5v22q0 49 -16.5 68
t-64.5 30l-17 4q-47 10 -74 20t-53 29.5t-37 52.5t-11 83v25q0 101 52 142t158 41q67 0 123 -14q14 -4 19 -10t6 -19l6 -56q2 -13 -2.5 -18t-18.5 -2q-61 13 -123 13q-45 0 -66.5 -17t-21.5 -62v-16q0 -40 16.5 -57t62.5 -27l16 -4q51 -11 79.5 -22t53.5 -32t35 -55.5
t10 -87.5v-33q0 -110 -51.5 -153t-171.5 -43q-88 0 -154 17q-23 6 -24 29z" />
    <glyph glyph-name="A.001" horiz-adv-x="562" 
d="M501 521v-496q0 -25 -25 -25h-85q-25 0 -25 25v204h-170v-204q0 -25 -25 -25h-85q-25 0 -25 25v496q0 100 55.5 144t162.5 44h11q105 0 158 -44t53 -144zM196 523v-186h170v186q0 43 -17 61.5t-62 18.5h-7q-46 0 -65 -18.5t-19 -61.5z" />
    <glyph glyph-name="E.001" horiz-adv-x="490" 
d="M417 4q-65 -8 -153 -8q-118 0 -162 42t-44 144v332q0 105 46 146t161 41q41 0 77.5 -1.5t51.5 -3.5l16 -2q14 -2 20.5 -6.5t7.5 -16.5l8 -58q3 -25 -23 -25q-1 0 -55 3.5t-94 3.5q-50 0 -65.5 -15.5t-15.5 -63.5v-101h176q25 0 25 -24v-58q0 -24 -25 -24h-176v-127
q0 -45 14.5 -59.5t63.5 -14.5q32 0 68.5 2t61.5 3.5t28 1.5q28 0 25 -24l-10 -63q-2 -13 -7.5 -17.5t-19.5 -6.5z" />
    <glyph glyph-name="F.001" horiz-adv-x="467" 
d="M268 701q41 0 77.5 -2t52.5 -4l16 -2q14 -2 19.5 -6.5t7.5 -16.5l7 -58q3 -25 -24 -25l-52 4q-52 4 -98 4q-47 0 -62.5 -16t-15.5 -60v-122h177q15 0 20 -5t4 -19l-6 -59q-2 -14 -7.5 -19t-18.5 -5h-169v-265q0 -25 -25 -25h-85q-25 0 -25 25v488q0 106 46.5 147
t160.5 41z" />
    <glyph glyph-name="L.001" horiz-adv-x="437" 
d="M393 114q13 1 18 -3.5t4 -16.5l-8 -67q-1 -12 -6.5 -17t-19.5 -7q-47 -7 -102 -7q-125 0 -171.5 40t-46.5 149v487q0 25 25 25h85q25 0 25 -25v-473q0 -61 14.5 -76t71.5 -15z" />
    <glyph glyph-name="Agrave.001" horiz-adv-x="562" 
d="M501 521v-496q0 -25 -25 -25h-85q-25 0 -25 25v204h-170v-204q0 -25 -25 -25h-85q-25 0 -25 25v496q0 100 55.5 144t162.5 44h11q105 0 158 -44t53 -144zM196 523v-186h170v186q0 43 -17 61.5t-62 18.5h-7q-46 0 -65 -18.5t-19 -61.5zM226 779l-79 130q-14 24 16 24h67
q13 0 19.5 -4.5t11.5 -17.5l58 -130q5 -13 1.5 -18t-17.5 -5h-44q-13 0 -19.5 4.5t-13.5 16.5z" />
    <glyph glyph-name="Aacute.001" horiz-adv-x="562" 
d="M501 521v-496q0 -25 -25 -25h-85q-25 0 -25 25v204h-170v-204q0 -25 -25 -25h-85q-25 0 -25 25v496q0 100 55.5 144t162.5 44h11q105 0 158 -44t53 -144zM196 523v-186h170v186q0 43 -17 61.5t-62 18.5h-7q-46 0 -65 -18.5t-19 -61.5zM413 909l-78 -130q-13 -21 -34 -21
h-43q-27 0 -16 23l57 130q10 22 32 22h67q30 0 15 -24z" />
    <glyph glyph-name="Acircumflex.001" horiz-adv-x="562" 
d="M501 521v-496q0 -25 -25 -25h-85q-25 0 -25 25v204h-170v-204q0 -25 -25 -25h-85q-25 0 -25 25v496q0 100 55.5 144t162.5 44h11q105 0 158 -44t53 -144zM196 523v-186h170v186q0 43 -17 61.5t-62 18.5h-7q-46 0 -65 -18.5t-19 -61.5zM138 785l82 113q15 20 39 20h44
q24 0 38 -20l83 -113q16 -22 -12 -22h-56q-14 0 -20.5 4t-15.5 16l-42 58l-41 -57q-13 -21 -35 -21h-53q-27 0 -11 22z" />
    <glyph glyph-name="Atilde.001" horiz-adv-x="562" 
d="M501 521v-496q0 -25 -25 -25h-85q-25 0 -25 25v204h-170v-204q0 -25 -25 -25h-85q-25 0 -25 25v496q0 100 55.5 144t162.5 44h11q105 0 158 -44t53 -144zM196 523v-186h170v186q0 43 -17 61.5t-62 18.5h-7q-46 0 -65 -18.5t-19 -61.5zM146 780l-20 29q-11 14 1 29
q29 42 87 42q32 0 71 -22t65 -22q24 0 42 22q15 17 26 -2l20 -30q9 -13 -2 -30q-32 -48 -88 -48q-31 0 -69.5 22t-64.5 22q-21 0 -45 -17q-13 -11 -23 5z" />
    <glyph glyph-name="Adieresis.001" horiz-adv-x="562" 
d="M501 521v-496q0 -25 -25 -25h-85q-25 0 -25 25v204h-170v-204q0 -25 -25 -25h-85q-25 0 -25 25v496q0 100 55.5 144t162.5 44h11q105 0 158 -44t53 -144zM196 523v-186h170v186q0 43 -17 61.5t-62 18.5h-7q-46 0 -65 -18.5t-19 -61.5zM246 847v-60q0 -14 -5 -19.5
t-19 -5.5h-68q-14 0 -19 5.5t-5 19.5v60q0 13 5 18.5t19 5.5h68q14 0 19 -5.5t5 -18.5zM431 847v-60q0 -14 -5 -19.5t-19 -5.5h-68q-14 0 -19 5.5t-5 19.5v60q0 13 5.5 18.5t18.5 5.5h68q13 0 18.5 -5.5t5.5 -18.5z" />
    <glyph glyph-name="Amacron.001" horiz-adv-x="562" 
d="M501 521v-496q0 -25 -25 -25h-85q-25 0 -25 25v204h-170v-204q0 -25 -25 -25h-85q-25 0 -25 25v496q0 100 55.5 144t162.5 44h11q105 0 158 -44t53 -144zM196 523v-186h170v186q0 43 -17 61.5t-62 18.5h-7q-46 0 -65 -18.5t-19 -61.5zM139 783v29q0 24 25 24h232
q25 0 25 -24v-29q0 -25 -25 -25h-232q-25 0 -25 25z" />
    <glyph glyph-name="Abreve.001" horiz-adv-x="562" 
d="M501 521v-496q0 -25 -25 -25h-85q-25 0 -25 25v204h-170v-204q0 -25 -25 -25h-85q-25 0 -25 25v496q0 100 55.5 144t162.5 44h11q105 0 158 -44t53 -144zM196 523v-186h170v186q0 43 -17 61.5t-62 18.5h-7q-46 0 -65 -18.5t-19 -61.5zM149 910h39q20 0 26 -23
q8 -50 66 -50q56 0 66 49q3 14 7 19t17 5h40q14 0 18.5 -5.5t2.5 -18.5q-20 -128 -151 -128q-133 0 -151 127q-3 25 20 25z" />
    <glyph glyph-name="Aring.001" horiz-adv-x="562" 
d="M501 521v-496q0 -25 -25 -25h-85q-25 0 -25 25v204h-170v-204q0 -25 -25 -25h-85q-25 0 -25 25v496q0 100 55.5 144t162.5 44h11q105 0 158 -44t53 -144zM196 523v-186h170v186q0 43 -17 61.5t-62 18.5h-7q-46 0 -65 -18.5t-19 -61.5zM168 831v35q0 90 101 90h25
q101 0 101 -90v-35q0 -89 -102 -89h-24q-101 0 -101 89zM273 799h15q24 0 34 7t10 27v25q0 25 -8.5 33t-34.5 8h-15q-27 0 -35.5 -8t-8.5 -33v-18q0 -26 8 -33.5t35 -7.5z" />
    <glyph glyph-name="Aogonek.001" horiz-adv-x="562" 
d="M488 -227h-15q-139 0 -139 110q0 68 65 117h-8q-25 0 -25 25v204h-170v-204q0 -25 -25 -25h-85q-25 0 -25 25v496q0 100 55.5 144t162.5 44h11q105 0 158 -44t53 -144v-496q0 -19 -12 -23q-69 -55 -69 -105q0 -43 61 -43h10q13 0 17.5 -4.5t4.5 -15.5v-41q0 -12 -5.5 -16
t-19.5 -4zM196 523v-186h170v186q0 43 -17 61.5t-62 18.5h-7q-46 0 -65 -18.5t-19 -61.5z" />
    <glyph glyph-name="Acaron.001" horiz-adv-x="562" 
d="M501 521v-496q0 -25 -25 -25h-85q-25 0 -25 25v204h-170v-204q0 -25 -25 -25h-85q-25 0 -25 25v496q0 100 55.5 144t162.5 44h11q105 0 158 -44t53 -144zM196 523v-186h170v186q0 43 -17 61.5t-62 18.5h-7q-46 0 -65 -18.5t-19 -61.5zM227 777l-88 114q-16 22 13 22h56
q14 0 20 -4t15 -16l39 -52l41 52q10 12 16.5 16t19.5 4h52q29 0 13 -22l-88 -114q-14 -19 -37 -19h-37q-14 0 -20 3.5t-15 15.5z" />
    <glyph glyph-name="Adotaccent.001" horiz-adv-x="562" 
d="M501 521v-496q0 -25 -25 -25h-85q-25 0 -25 25v204h-170v-204q0 -25 -25 -25h-85q-25 0 -25 25v496q0 100 55.5 144t162.5 44h11q105 0 158 -44t53 -144zM196 523v-186h170v186q0 43 -17 61.5t-62 18.5h-7q-46 0 -65 -18.5t-19 -61.5zM216 782v59q0 25 24 25h81
q24 0 24 -25v-59q0 -25 -24 -25h-81q-24 0 -24 25z" />
    <glyph glyph-name="AE.001" horiz-adv-x="793" 
d="M721 3q-65 -7 -153 -7q-118 0 -161.5 42t-43.5 144v47h-169v-204q0 -25 -24 -25h-84q-25 0 -25 25v496q0 100 55 144t161 44h10q91 0 142 -42q47 34 140 34q41 0 77.5 -1.5t51.5 -3.5l16 -2q14 -2 20.5 -6.5t7.5 -16.5l8 -58q3 -25 -23 -25l-54 4q-54 3 -95 3
q-50 0 -65.5 -15.5t-15.5 -63.5v-101h176q13 0 18.5 -5.5t5.5 -18.5v-58q0 -13 -5.5 -18.5t-18.5 -5.5h-176v-84v-5v-38q0 -45 14.5 -59.5t62.5 -14.5q33 0 69.5 2t61.5 3.5t28 1.5q28 0 25 -24l-10 -64q-2 -13 -7.5 -17.5t-19.5 -6.5zM194 526v-189h169v189q0 43 -16.5 60
t-61.5 17h-8q-46 0 -64.5 -17.5t-18.5 -59.5z" />
    <glyph glyph-name="AEacute.001" horiz-adv-x="793" 
d="M721 3q-65 -7 -153 -7q-118 0 -161.5 42t-43.5 144v47h-169v-204q0 -25 -24 -25h-84q-25 0 -25 25v496q0 100 55 144t161 44h10q91 0 142 -42q47 34 140 34q41 0 77.5 -1.5t51.5 -3.5l16 -2q14 -2 20.5 -6.5t7.5 -16.5l8 -58q3 -25 -23 -25l-54 4q-54 3 -95 3
q-50 0 -65.5 -15.5t-15.5 -63.5v-101h176q13 0 18.5 -5.5t5.5 -18.5v-58q0 -13 -5.5 -18.5t-18.5 -5.5l-176 -84v-43q0 -45 14.5 -59.5t62.5 -14.5q33 0 69.5 2t61.5 3.5t28 1.5q28 0 25 -24l-10 -64q-2 -13 -7.5 -17.5t-19.5 -6.5zM194 526v-189h169v189q0 43 -16.5 60
t-61.5 17h-8q-46 0 -64.5 -17.5t-18.5 -59.5zM564 909l-78 -130q-13 -21 -34 -21h-43q-27 0 -16 23l57 130q10 22 32 22h67q30 0 15 -24z" />
    <glyph glyph-name="Egrave.001" horiz-adv-x="490" 
d="M417 4q-65 -8 -153 -8q-118 0 -162 42t-44 144v332q0 105 46 146t161 41q41 0 77.5 -1.5t51.5 -3.5l16 -2q14 -2 20.5 -6.5t7.5 -16.5l8 -58q3 -25 -23 -25q-1 0 -55 3.5t-94 3.5q-50 0 -65.5 -15.5t-15.5 -63.5v-101h176q25 0 25 -24v-58q0 -24 -25 -24h-176v-127
q0 -45 14.5 -59.5t63.5 -14.5q32 0 68.5 2t61.5 3.5t28 1.5q28 0 25 -24l-10 -63q-2 -13 -7.5 -17.5t-19.5 -6.5zM213 779l-79 130q-14 24 16 24h67q13 0 19.5 -4.5t11.5 -17.5l58 -130q5 -13 1.5 -18t-17.5 -5h-44q-13 0 -19.5 4.5t-13.5 16.5z" />
    <glyph glyph-name="Eacute.001" horiz-adv-x="490" 
d="M417 4q-65 -8 -153 -8q-118 0 -162 42t-44 144v332q0 105 46 146t161 41q41 0 77.5 -1.5t51.5 -3.5l16 -2q14 -2 20.5 -6.5t7.5 -16.5l8 -58q3 -25 -23 -25q-1 0 -55 3.5t-94 3.5q-50 0 -65.5 -15.5t-15.5 -63.5v-101h176q25 0 25 -24v-58q0 -24 -25 -24h-176v-127
q0 -45 14.5 -59.5t63.5 -14.5q32 0 68.5 2t61.5 3.5t28 1.5q28 0 25 -24l-10 -63q-2 -13 -7.5 -17.5t-19.5 -6.5zM400 909l-78 -130q-13 -21 -34 -21h-43q-27 0 -16 23l57 130q10 22 32 22h67q30 0 15 -24z" />
    <glyph glyph-name="Ecircumflex.001" horiz-adv-x="490" 
d="M417 4q-65 -8 -153 -8q-118 0 -162 42t-44 144v332q0 105 46 146t161 41q41 0 77.5 -1.5t51.5 -3.5l16 -2q14 -2 20.5 -6.5t7.5 -16.5l8 -58q3 -25 -23 -25q-1 0 -55 3.5t-94 3.5q-50 0 -65.5 -15.5t-15.5 -63.5v-101h176q25 0 25 -24v-58q0 -24 -25 -24h-176v-127
q0 -45 14.5 -59.5t63.5 -14.5q32 0 68.5 2t61.5 3.5t28 1.5q28 0 25 -24l-10 -63q-2 -13 -7.5 -17.5t-19.5 -6.5zM125 785l82 113q15 20 39 20h44q24 0 38 -20l83 -113q16 -22 -12 -22h-56q-14 0 -20.5 4t-15.5 16l-42 58l-41 -57q-13 -21 -35 -21h-53q-27 0 -11 22z" />
    <glyph glyph-name="Ecaron.001" horiz-adv-x="490" 
d="M417 4q-65 -8 -153 -8q-118 0 -162 42t-44 144v332q0 105 46 146t161 41q41 0 77.5 -1.5t51.5 -3.5l16 -2q14 -2 20.5 -6.5t7.5 -16.5l8 -58q3 -25 -23 -25q-1 0 -55 3.5t-94 3.5q-50 0 -65.5 -15.5t-15.5 -63.5v-101h176q25 0 25 -24v-58q0 -24 -25 -24h-176v-127
q0 -45 14.5 -59.5t63.5 -14.5q32 0 68.5 2t61.5 3.5t28 1.5q28 0 25 -24l-10 -63q-2 -13 -7.5 -17.5t-19.5 -6.5zM213 777l-88 114q-16 22 13 22h56q14 0 20 -4t15 -16l39 -52l41 52q10 12 16.5 16t19.5 4h52q29 0 13 -22l-88 -114q-14 -19 -37 -19h-37q-14 0 -20 3.5
t-15 15.5z" />
    <glyph glyph-name="Edieresis.001" horiz-adv-x="490" 
d="M417 4q-65 -8 -153 -8q-118 0 -162 42t-44 144v332q0 105 46 146t161 41q41 0 77.5 -1.5t51.5 -3.5l16 -2q14 -2 20.5 -6.5t7.5 -16.5l8 -58q3 -25 -23 -25q-1 0 -55 3.5t-94 3.5q-50 0 -65.5 -15.5t-15.5 -63.5v-101h176q25 0 25 -24v-58q0 -24 -25 -24h-176v-127
q0 -45 14.5 -59.5t63.5 -14.5q32 0 68.5 2t61.5 3.5t28 1.5q28 0 25 -24l-10 -63q-2 -13 -7.5 -17.5t-19.5 -6.5zM232 847v-60q0 -14 -5 -19.5t-19 -5.5h-68q-14 0 -19 5.5t-5 19.5v60q0 13 5 18.5t19 5.5h68q14 0 19 -5.5t5 -18.5zM417 847v-60q0 -14 -5 -19.5t-19 -5.5
h-68q-14 0 -19 5.5t-5 19.5v60q0 13 5.5 18.5t18.5 5.5h68q13 0 18.5 -5.5t5.5 -18.5z" />
    <glyph glyph-name="Emacron.001" horiz-adv-x="490" 
d="M417 4q-65 -8 -153 -8q-118 0 -162 42t-44 144v332q0 105 46 146t161 41q41 0 77.5 -1.5t51.5 -3.5l16 -2q14 -2 20.5 -6.5t7.5 -16.5l8 -58q3 -25 -23 -25q-1 0 -55 3.5t-94 3.5q-50 0 -65.5 -15.5t-15.5 -63.5v-101h176q25 0 25 -24v-58q0 -24 -25 -24h-176v-127
q0 -45 14.5 -59.5t63.5 -14.5q32 0 68.5 2t61.5 3.5t28 1.5q28 0 25 -24l-10 -63q-2 -13 -7.5 -17.5t-19.5 -6.5zM126 783v29q0 24 25 24h232q25 0 25 -24v-29q0 -25 -25 -25h-232q-25 0 -25 25z" />
    <glyph glyph-name="Ebreve.001" horiz-adv-x="490" 
d="M417 4q-65 -8 -153 -8q-118 0 -162 42t-44 144v332q0 105 46 146t161 41q41 0 77.5 -1.5t51.5 -3.5l16 -2q14 -2 20.5 -6.5t7.5 -16.5l8 -58q3 -25 -23 -25q-1 0 -55 3.5t-94 3.5q-50 0 -65.5 -15.5t-15.5 -63.5v-101h176q25 0 25 -24v-58q0 -24 -25 -24h-176v-127
q0 -45 14.5 -59.5t63.5 -14.5q32 0 68.5 2t61.5 3.5t28 1.5q28 0 25 -24l-10 -63q-2 -13 -7.5 -17.5t-19.5 -6.5zM136 910h39q20 0 26 -23q8 -50 66 -50q56 0 66 49q3 14 7 19t17 5h40q14 0 18.5 -5.5t2.5 -18.5q-20 -128 -151 -128q-133 0 -151 127q-3 25 20 25z" />
    <glyph glyph-name="Edotaccent.001" horiz-adv-x="490" 
d="M417 4q-65 -8 -153 -8q-118 0 -162 42t-44 144v332q0 105 46 146t161 41q41 0 77.5 -1.5t51.5 -3.5l16 -2q14 -2 20.5 -6.5t7.5 -16.5l8 -58q3 -25 -23 -25q-1 0 -55 3.5t-94 3.5q-50 0 -65.5 -15.5t-15.5 -63.5v-101h176q25 0 25 -24v-58q0 -24 -25 -24h-176v-127
q0 -45 14.5 -59.5t63.5 -14.5q32 0 68.5 2t61.5 3.5t28 1.5q28 0 25 -24l-10 -63q-2 -13 -7.5 -17.5t-19.5 -6.5zM202 782v59q0 25 24 25h81q24 0 24 -25v-59q0 -25 -24 -25h-81q-24 0 -24 25z" />
    <glyph glyph-name="Eogonek.001" horiz-adv-x="490" 
d="M425 -227h-15q-139 0 -139 110q0 65 62 115q-42 -2 -69 -2q-118 0 -162 42t-44 144v332q0 105 46 146t161 41q41 0 77.5 -1.5t51.5 -3.5l16 -2q14 -2 20.5 -6.5t7.5 -16.5l8 -58q3 -25 -23 -25q-1 0 -55 3.5t-94 3.5q-50 0 -65.5 -15.5t-15.5 -63.5v-101h176q25 0 25 -24
v-58q0 -24 -25 -24h-176v-127q0 -45 14.5 -59.5t63.5 -14.5q32 0 68.5 2t61.5 3.5t28 1.5q28 0 25 -24l-10 -63q-3 -16 -10 -19q0 -1 -2 -3q-75 -58 -75 -109q0 -43 61 -43h10q13 0 17.5 -4.5t4.5 -15.5v-41q0 -12 -5.5 -16t-19.5 -4z" />
    <glyph glyph-name="uni1EB8.001" horiz-adv-x="490" 
d="M417 4q-65 -8 -153 -8q-118 0 -162 42t-44 144v332q0 105 46 146t161 41q41 0 77.5 -1.5t51.5 -3.5l16 -2q14 -2 20.5 -6.5t7.5 -16.5l8 -58q3 -25 -23 -25q-1 0 -55 3.5t-94 3.5q-50 0 -65.5 -15.5t-15.5 -63.5v-101h176q25 0 25 -24v-58q0 -24 -25 -24h-176v-127
q0 -45 14.5 -59.5t63.5 -14.5q32 0 68.5 2t61.5 3.5t28 1.5q28 0 25 -24l-10 -63q-2 -13 -7.5 -17.5t-19.5 -6.5zM200 -143v59q0 25 24 25h81q24 0 24 -25v-59q0 -13 -5.5 -18.5t-18.5 -5.5h-81q-14 0 -19 5.5t-5 18.5z" />
    <glyph glyph-name="Lacute.001" horiz-adv-x="437" 
d="M393 114q13 1 18 -3.5t4 -16.5l-8 -67q-1 -12 -6.5 -17t-19.5 -7q-47 -7 -102 -7q-125 0 -171.5 40t-46.5 149v487q0 25 25 25h85q25 0 25 -25v-473q0 -61 14.5 -76t71.5 -15zM261 909l-78 -130q-13 -21 -34 -21h-43q-27 0 -16 23l57 130q10 22 32 22h67q30 0 15 -24z
" />
    <glyph glyph-name="Lcaron.001" horiz-adv-x="437" 
d="M393 114q13 1 18 -3.5t4 -16.5l-8 -67q-1 -12 -6.5 -17t-19.5 -7q-47 -7 -102 -7q-125 0 -171.5 40t-46.5 149v487q0 25 25 25h85q25 0 25 -25v-473q0 -61 14.5 -76t71.5 -15zM310 580h-55q-27 0 -13 28q37 69 37 154v10q0 25 24 25h63q14 0 19.5 -5.5t5.5 -19.5v-10
q0 -95 -41 -158q-6 -9 -9.5 -12.5t-11.5 -7.5t-19 -4z" />
    <glyph glyph-name="uni013B.001" horiz-adv-x="437" 
d="M393 114q13 1 18 -3.5t4 -16.5l-8 -67q-1 -12 -6.5 -17t-19.5 -7q-47 -7 -102 -7q-125 0 -171.5 40t-46.5 149v487q0 25 25 25h85q25 0 25 -25v-473q0 -61 14.5 -76t71.5 -15zM217 -276h-55q-27 0 -13 28q37 69 37 154v10q0 25 24 25h63q14 0 19.5 -5.5t5.5 -19.5v-10
q0 -95 -41 -158q-6 -9 -9.5 -12.5t-11.5 -7.5t-19 -4z" />
    <glyph glyph-name="Lslash.001" horiz-adv-x="437" 
d="M6 247l-15 23q-8 12 -7 19t14 15l63 42v326q0 25 25 25h85q25 0 25 -25v-235l60 41q13 9 20.5 7.5t15.5 -14.5l13 -20q15 -23 -6 -37l-103 -69v-146q0 -61 14.5 -76t71.5 -15l111 6q13 1 18 -3.5t4 -16.5l-8 -67q-1 -12 -6.5 -17t-19.5 -7q-47 -7 -102 -7
q-125 0 -171.5 40t-46.5 149v69l-20 -13q-13 -9 -20 -7.5t-15 13.5z" />
    <glyph glyph-name="Ldot.001" horiz-adv-x="437" 
d="M393 114q13 1 18 -3.5t4 -16.5l-8 -67q-1 -12 -6.5 -17t-19.5 -7q-47 -7 -102 -7q-125 0 -171.5 40t-46.5 149v487q0 25 25 25h85q25 0 25 -25v-473q0 -61 14.5 -76t71.5 -15zM269 346v59q0 25 24 25h81q24 0 24 -25v-59q0 -25 -24 -25h-81q-24 0 -24 25z" />
    <glyph glyph-name="Scedilla.alt" horiz-adv-x="498" 
d="M220 -193h-46q-26 0 -12 28q38 76 39 157q-74 3 -125 16q-23 6 -24 29l-7 63q-1 13 4 17.5t20 2.5q96 -17 151 -17q57 0 79 17.5t22 68.5v22q0 49 -16.5 68t-64.5 30l-17 4q-47 10 -74 20t-53 29.5t-37 52.5t-11 83v25q0 101 52 142t158 41q67 0 123 -14q14 -4 19 -10
t6 -19l6 -56q2 -13 -2.5 -18t-18.5 -2q-61 13 -123 13q-45 0 -66.5 -17t-21.5 -62v-16q0 -40 16.5 -57t62.5 -27l16 -4q51 -11 79.5 -22t53.5 -32t35 -55.5t10 -87.5v-33q0 -92 -35.5 -136t-114.5 -55q-1 -99 -44 -165q-15 -24 -39 -24z" />
    <glyph glyph-name="Ccedilla.alt" horiz-adv-x="474" 
d="M240 -193h-46q-26 0 -12 28q38 76 39 159q-82 9 -122.5 53.5t-40.5 132.5v337q0 100 56 144.5t166 44.5q60 0 122 -13q13 -3 18 -8.5t7 -19.5l6 -57q2 -13 -3 -17.5t-18 -2.5q-75 12 -125 12q-49 0 -71.5 -19t-22.5 -64v-331q0 -46 20 -64.5t70 -18.5q71 0 132 13
q14 3 19.5 -2t3.5 -18l-6 -61q-3 -24 -25 -29q-32 -9 -84 -13q-2 -93 -44 -162q-15 -24 -39 -24z" />
    <glyph glyph-name="a.1" horiz-adv-x="547" 
d="M54 155v189q0 94 49 131t142 37h7q107 0 179 -31q23 -10 23 -35v-300q0 -38 13 -47.5t44 -6.5q13 2 17.5 -2t3.5 -17l-5 -52q-2 -14 -6 -20t-16 -9q-18 -4 -40 -4q-69 0 -95 37q-43 -37 -130 -37h-4q-182 0 -182 167zM247 94h7q67 0 67 65v245q-24 9 -66 9h-3
q-37 0 -51.5 -15t-14.5 -53v-186q0 -36 15 -50.5t46 -14.5z" />
    <glyph glyph-name="e.1" horiz-adv-x="497" 
d="M433 90l-5 -48q-3 -24 -29 -33q-47 -18 -149 -18h-9q-187 0 -187 169v189q0 166 190 166h17q86 0 135.5 -36.5t49.5 -129.5v-114q0 -13 -5 -18.5t-19 -5.5h-239v-52q0 -36 16.5 -51.5t53.5 -15.5h5q83 0 151 19q12 4 18.5 -2t5.5 -19zM319 297v62q0 34 -15.5 48t-48.5 14
h-8q-64 0 -64 -62v-62h136z" />
    <glyph glyph-name="f.1" horiz-adv-x="335" 
d="M291 408h-74v-476q0 -91 -40.5 -125t-107.5 -34q-25 0 -45 4q-12 2 -16.5 7.5t-6.5 19.5l-5 56q-2 14 4 20t20 3q18 -2 21 -2q20 0 31.5 10.5t11.5 43.5v473h-45q-24 0 -24 24v46q0 25 24 25h45v59q0 166 187 166q31 0 55 -6q14 -3 18.5 -8t5.5 -18l4 -49q1 -14 -4 -19
t-20 -4q-25 5 -52 5q-61 0 -61 -60v-66h85q26 0 23 -25l-6 -47q-1 -13 -7.5 -18t-20.5 -5z" />
    <glyph glyph-name="f.s" horiz-adv-x="311" 
d="M60 25v537q0 166 187 166q39 0 54 -6q14 -3 18 -8t6 -18l4 -49q2 -14 -3.5 -19.5t-19.5 -3.5q-24 5 -52 5q-62 0 -62 -62v-64h86q26 0 22 -25l-6 -47q-1 -13 -7.5 -18t-20.5 -5h-74v-383q0 -25 -24 -25h-84q-24 0 -24 25z" />
    <glyph glyph-name="g.1" horiz-adv-x="511" 
d="M180 -193l-6 50q-3 26 24 23q48 -4 58 -4q32 0 50.5 11.5t18.5 49.5v85q-32 -22 -94 -22h-3q-174 0 -174 167v181q0 93 52.5 130t145.5 37h8q94 0 144 -35t50 -129v-410q0 -50 -14.5 -85t-41.5 -52t-57 -24t-69 -7q-40 0 -68 6q-23 5 -24 28zM252 103h3q66 0 66 65v185
q0 35 -15 49t-49 14h-3q-34 0 -51 -14.5t-17 -48.5v-186q0 -35 15.5 -49.5t50.5 -14.5z" />
    <glyph glyph-name="hh" horiz-adv-x="515" 
d="M61 25v453q0 25 24 25h85q24 0 24 -25v-163h126v163q0 25 25 25h85q24 0 24 -25v-453q0 -25 -24 -25h-85q-25 0 -25 25v182h-126v-182q0 -25 -24 -25h-85q-24 0 -24 25z" />
    <glyph glyph-name="l.1" horiz-adv-x="260" 
d="M63 25v668q0 13 5.5 18.5t19.5 7.5l84 8q25 1 25 -24v-678q0 -25 -25 -25h-84q-25 0 -25 25z" />
    <glyph glyph-name="t.s" horiz-adv-x="344" 
d="M60 147v462q0 14 5 19.5t18 6.5l85 7q14 1 19 -3.5t5 -18.5v-117h91q14 0 20 -5.5t7 -18.5l5 -47q0 -14 -4.5 -19t-19.5 -5h-99v-261q0 -30 9.5 -38.5t41.5 -8.5q13 0 31.5 2t25.5 2q11 2 16 -2.5t4 -15.5l-6 -57q-1 -24 -24 -29q-34 -6 -70 -6q-85 0 -122.5 31.5
t-37.5 121.5z" />
    <glyph glyph-name="y.1" horiz-adv-x="445" 
d="M140 -192l22 78l35 114h-39q-25 0 -30 24l-106 451q-5 23 21 24l84 8q13 1 18.5 -4.5t7.5 -19.5l41 -187q21 -111 29 -177h4q12 92 29 177l39 187q3 14 9 19.5t19 4.5l80 -8q25 -1 20 -25l-155 -678q-5 -24 -29 -23l-80 7q-26 3 -19 28z" />
    <glyph glyph-name="agrave.1" horiz-adv-x="547" 
d="M54 155v189q0 94 49 131t142 37h7q107 0 179 -31q23 -10 23 -35v-300q0 -38 13 -47.5t44 -6.5q13 2 17.5 -2t3.5 -17l-5 -52q-2 -14 -6 -20t-16 -9q-18 -4 -40 -4q-69 0 -95 37q-43 -37 -130 -37h-4q-182 0 -182 167zM247 94h7q67 0 67 65v245q-24 9 -66 9h-3
q-37 0 -51.5 -15t-14.5 -53v-186q0 -36 15 -50.5t46 -14.5zM201 608l-79 130q-13 24 16 24h67q13 0 19.5 -4.5t11.5 -17.5l58 -130q5 -13 1.5 -18t-17.5 -5h-44q-13 0 -19.5 4.5t-13.5 16.5z" />
    <glyph glyph-name="aacute.1" horiz-adv-x="547" 
d="M54 155v189q0 94 49 131t142 37h7q107 0 179 -31q23 -10 23 -35v-300q0 -38 13 -47.5t44 -6.5q13 2 17.5 -2t3.5 -17l-5 -52q-2 -14 -6 -20t-16 -9q-18 -4 -40 -4q-69 0 -95 37q-43 -37 -130 -37h-4q-182 0 -182 167zM247 94h7q67 0 67 65v245q-24 9 -66 9h-3
q-37 0 -51.5 -15t-14.5 -53v-186q0 -36 15 -50.5t46 -14.5zM388 738l-78 -130q-13 -21 -34 -21h-43q-27 0 -16 23l57 130q10 22 32 22h67q30 0 15 -24z" />
    <glyph glyph-name="acircumflex.1" horiz-adv-x="547" 
d="M54 155v189q0 94 49 131t142 37h7q107 0 179 -31q23 -10 23 -35v-300q0 -38 13 -47.5t44 -6.5q13 2 17.5 -2t3.5 -17l-5 -52q-2 -14 -6 -20t-16 -9q-18 -4 -40 -4q-69 0 -95 37q-43 -37 -130 -37h-4q-182 0 -182 167zM247 94h7q67 0 67 65v245q-24 9 -66 9h-3
q-37 0 -51.5 -15t-14.5 -53v-186q0 -36 15 -50.5t46 -14.5zM120 614l82 113q15 20 39 20h44q24 0 38 -20l83 -113q16 -22 -12 -22h-56q-14 0 -20.5 4t-15.5 16l-42 58l-41 -57q-13 -21 -35 -21h-53q-27 0 -11 22z" />
    <glyph glyph-name="atilde.1" horiz-adv-x="547" 
d="M54 155v189q0 94 49 131t142 37h7q107 0 179 -31q23 -10 23 -35v-300q0 -38 13 -47.5t44 -6.5q13 2 17.5 -2t3.5 -17l-5 -52q-2 -14 -6 -20t-16 -9q-18 -4 -40 -4q-69 0 -95 37q-43 -37 -130 -37h-4q-182 0 -182 167zM247 94h7q67 0 67 65v245q-24 9 -66 9h-3
q-37 0 -51.5 -15t-14.5 -53v-186q0 -36 15 -50.5t46 -14.5zM125 609l-20 29q-11 14 1 29q28 42 87 42q31 0 71 -22t65 -22q24 0 42 22q15 17 26 -2l20 -30q9 -13 -2 -30q-32 -48 -88 -48q-31 0 -69.5 22t-64.5 22q-21 0 -45 -17q-13 -11 -23 5z" />
    <glyph glyph-name="adieresis.1" horiz-adv-x="547" 
d="M54 155v189q0 94 49 131t142 37h7q107 0 179 -31q23 -10 23 -35v-300q0 -38 13 -47.5t44 -6.5q13 2 17.5 -2t3.5 -17l-5 -52q-2 -14 -6 -20t-16 -9q-18 -4 -40 -4q-69 0 -95 37q-43 -37 -130 -37h-4q-182 0 -182 167zM247 94h7q67 0 67 65v245q-24 9 -66 9h-3
q-37 0 -51.5 -15t-14.5 -53v-186q0 -36 15 -50.5t46 -14.5zM224 676v-60q0 -14 -5 -19.5t-19 -5.5h-68q-14 0 -19 5.5t-5 19.5v60q0 14 5 19t19 5h68q14 0 19 -5t5 -19zM409 676v-60q0 -14 -5 -19.5t-19 -5.5h-68q-14 0 -19 5.5t-5 19.5v60q0 14 5.5 19t18.5 5h68
q13 0 18.5 -5t5.5 -19z" />
    <glyph glyph-name="amacron.1" horiz-adv-x="547" 
d="M54 155v189q0 94 49 131t142 37h7q107 0 179 -31q23 -10 23 -35v-300q0 -38 13 -47.5t44 -6.5q13 2 17.5 -2t3.5 -17l-5 -52q-2 -14 -6 -20t-16 -9q-18 -4 -40 -4q-69 0 -95 37q-43 -37 -130 -37h-4q-182 0 -182 167zM247 94h7q67 0 67 65v245q-24 9 -66 9h-3
q-37 0 -51.5 -15t-14.5 -53v-186q0 -36 15 -50.5t46 -14.5zM118 612v29q0 24 25 24h232q25 0 25 -24v-29q0 -25 -25 -25h-232q-25 0 -25 25z" />
    <glyph glyph-name="abreve.1" horiz-adv-x="547" 
d="M54 155v189q0 94 49 131t142 37h7q107 0 179 -31q23 -10 23 -35v-300q0 -38 13 -47.5t44 -6.5q13 2 17.5 -2t3.5 -17l-5 -52q-2 -14 -6 -20t-16 -9q-18 -4 -40 -4q-69 0 -95 37q-43 -37 -130 -37h-4q-182 0 -182 167zM247 94h7q67 0 67 65v245q-24 9 -66 9h-3
q-37 0 -51.5 -15t-14.5 -53v-186q0 -36 15 -50.5t46 -14.5zM128 739h39q20 0 26 -23q8 -50 66 -50q56 0 66 49q3 14 7 19t17 5h40q14 0 18.5 -5.5t2.5 -18.5q-20 -128 -151 -128q-133 0 -151 127q-3 25 20 25z" />
    <glyph glyph-name="aring.1" horiz-adv-x="547" 
d="M54 155v189q0 94 49 131t142 37h7q107 0 179 -31q23 -10 23 -35v-300q0 -38 13 -47.5t44 -6.5q13 2 17.5 -2t3.5 -17l-5 -52q-2 -14 -6 -20t-16 -9q-18 -4 -40 -4q-69 0 -95 37q-43 -37 -130 -37h-4q-182 0 -182 167zM247 94h7q67 0 67 65v245q-24 9 -66 9h-3
q-37 0 -51.5 -15t-14.5 -53v-186q0 -36 15 -50.5t46 -14.5zM146 660v35q0 90 101 90h25q101 0 101 -90v-35q0 -89 -102 -89h-24q-101 0 -101 89zM251 628h15q24 0 34 7t10 27v25q0 25 -8.5 33t-34.5 8h-15q-27 0 -35.5 -8t-8.5 -33v-18q0 -26 8 -33.5t35 -7.5z" />
    <glyph glyph-name="aogonek.1" horiz-adv-x="547" 
d="M506 -234h-15q-139 0 -139 110q0 67 66 118q-32 8 -48 31q-43 -37 -130 -37h-4q-182 0 -182 167v189q0 94 49 131t142 37h7q107 0 179 -31q23 -10 23 -35v-300q0 -38 13 -47.5t44 -6.5q13 2 17.5 -2t3.5 -17l-5 -52q-2 -14 -6 -20t-16 -9h-2q-65 -54 -65 -102
q0 -43 61 -43h10q13 0 17.5 -4.5t4.5 -15.5v-41q0 -12 -5.5 -16t-19.5 -4zM247 94h7q67 0 67 65v245q-24 9 -66 9h-3q-37 0 -51.5 -15t-14.5 -53v-186q0 -36 15 -50.5t46 -14.5z" />
    <glyph glyph-name="acaron.1" horiz-adv-x="547" 
d="M54 155v189q0 94 49 131t142 37h7q107 0 179 -31q23 -10 23 -35v-300q0 -38 13 -47.5t44 -6.5q13 2 17.5 -2t3.5 -17l-5 -52q-2 -14 -6 -20t-16 -9q-18 -4 -40 -4q-69 0 -95 37q-43 -37 -130 -37h-4q-182 0 -182 167zM247 94h7q67 0 67 65v245q-24 9 -66 9h-3
q-37 0 -51.5 -15t-14.5 -53v-186q0 -36 15 -50.5t46 -14.5zM207 606l-88 114q-16 22 13 22h56q14 0 20 -4t15 -16l39 -52l41 52q10 12 16.5 16t19.5 4h52q29 0 13 -22l-88 -114q-14 -19 -37 -19h-37q-14 0 -20 3.5t-15 15.5z" />
    <glyph glyph-name="adotaccent.1" horiz-adv-x="547" 
d="M54 155v189q0 94 49 131t142 37h7q107 0 179 -31q23 -10 23 -35v-300q0 -38 13 -47.5t44 -6.5q13 2 17.5 -2t3.5 -17l-5 -52q-2 -14 -6 -20t-16 -9q-18 -4 -40 -4q-69 0 -95 37q-43 -37 -130 -37h-4q-182 0 -182 167zM247 94h7q67 0 67 65v245q-24 9 -66 9h-3
q-37 0 -51.5 -15t-14.5 -53v-186q0 -36 15 -50.5t46 -14.5zM196 611v59q0 25 24 25h81q24 0 24 -25v-59q0 -25 -24 -25h-81q-24 0 -24 25z" />
    <glyph glyph-name="ae.1" horiz-adv-x="746" 
d="M682 90l-5 -47q-2 -24 -29 -34q-45 -18 -123 -18h-9q-96 0 -144 48q-51 -48 -149 -48q-89 0 -136.5 34t-47.5 117v18q0 74 41 106t117 41q18 2 110 7v34q0 36 -15.5 51t-51.5 15q-58 0 -130 -18q-15 -4 -21 0.5t-5 19.5l4 48q2 20 26 30q55 17 133 17q82 0 122 -39
q50 43 132 43h8q87 0 137 -36.5t50 -129.5v-114q-2 -14 -7 -19t-18 -5h-238v-43q0 -44 15.5 -60t54.5 -16q87 0 155 19q12 4 19 -2.5t5 -18.5zM569 297v62q0 62 -64 62h-6q-66 0 -66 -60v-64h136zM168 160v-9q0 -32 16 -46t53 -14q44 0 57 20t13 70v45q-39 0 -70 -3
q-38 -4 -53.5 -16t-15.5 -47z" />
    <glyph glyph-name="aeacute.1" horiz-adv-x="746" 
d="M682 90l-5 -47q-2 -24 -29 -34q-45 -18 -123 -18h-9q-96 0 -144 48q-51 -48 -149 -48q-89 0 -136.5 34t-47.5 117v18q0 74 41 106t117 41q18 2 110 7v34q0 36 -15.5 51t-51.5 15q-58 0 -130 -18q-15 -4 -21 0.5t-5 19.5l4 48q2 20 26 30q55 17 133 17q82 0 122 -39
q50 43 132 43h8q87 0 137 -36.5t50 -129.5v-114q-2 -14 -7 -19t-18 -5h-238v-43q0 -44 15.5 -60t54.5 -16q87 0 155 19q12 4 19 -2.5t5 -18.5zM569 297v62q0 62 -64 62h-6q-66 0 -66 -60v-64h136zM168 160v-9q0 -32 16 -46t53 -14q44 0 57 20t13 70v45q-39 0 -70 -3
q-38 -4 -53.5 -16t-15.5 -47zM502 738l-78 -130q-13 -21 -34 -21h-43q-27 0 -16 23l57 130q10 22 32 22h67q30 0 15 -24z" />
    <glyph glyph-name="egrave.1" horiz-adv-x="497" 
d="M433 90l-5 -48q-3 -24 -29 -33q-47 -18 -149 -18h-9q-187 0 -187 169v189q0 166 190 166h17q86 0 135.5 -36.5t49.5 -129.5v-114q0 -13 -5 -18.5t-19 -5.5h-239v-52q0 -36 16.5 -51.5t53.5 -15.5h5q83 0 151 19q12 4 18.5 -2t5.5 -19zM319 297v62q0 34 -15.5 48t-48.5 14
h-8q-64 0 -64 -62v-62h136zM200 608l-79 130q-14 24 16 24h67q13 0 19.5 -4.5t11.5 -17.5l58 -130q5 -13 1.5 -18t-17.5 -5h-44q-13 0 -19.5 4.5t-13.5 16.5z" />
    <glyph glyph-name="eacute.1" horiz-adv-x="497" 
d="M433 90l-5 -48q-3 -24 -29 -33q-47 -18 -149 -18h-9q-187 0 -187 169v189q0 166 190 166h17q86 0 135.5 -36.5t49.5 -129.5v-114q0 -13 -5 -18.5t-19 -5.5h-239v-52q0 -36 16.5 -51.5t53.5 -15.5h5q83 0 151 19q12 4 18.5 -2t5.5 -19zM319 297v62q0 34 -15.5 48t-48.5 14
h-8q-64 0 -64 -62v-62h136zM387 738l-78 -130q-13 -21 -34 -21h-43q-27 0 -16 23l57 130q10 22 32 22h67q30 0 15 -24z" />
    <glyph glyph-name="ecircumflex.1" horiz-adv-x="497" 
d="M433 90l-5 -48q-3 -24 -29 -33q-47 -18 -149 -18h-9q-187 0 -187 169v189q0 166 190 166h17q86 0 135.5 -36.5t49.5 -129.5v-114q0 -13 -5 -18.5t-19 -5.5h-239v-52q0 -36 16.5 -51.5t53.5 -15.5h5q83 0 151 19q12 4 18.5 -2t5.5 -19zM319 297v62q0 34 -15.5 48t-48.5 14
h-8q-64 0 -64 -62v-62h136zM112 614l82 113q15 20 39 20h44q24 0 38 -20l83 -113q16 -22 -12 -22h-56q-14 0 -20.5 4t-15.5 16l-42 58l-41 -57q-13 -21 -35 -21h-53q-27 0 -11 22z" />
    <glyph glyph-name="ecaron.1" horiz-adv-x="497" 
d="M433 90l-5 -48q-3 -24 -29 -33q-47 -18 -149 -18h-9q-187 0 -187 169v189q0 166 190 166h17q86 0 135.5 -36.5t49.5 -129.5v-114q0 -13 -5 -18.5t-19 -5.5h-239v-52q0 -36 16.5 -51.5t53.5 -15.5h5q83 0 151 19q12 4 18.5 -2t5.5 -19zM319 297v62q0 34 -15.5 48t-48.5 14
h-8q-64 0 -64 -62v-62h136zM201 606l-88 114q-16 22 13 22h56q14 0 20 -4t15 -16l39 -52l41 52q10 12 16.5 16t19.5 4h52q29 0 13 -22l-88 -114q-14 -19 -37 -19h-37q-14 0 -20 3.5t-15 15.5z" />
    <glyph glyph-name="edieresis.1" horiz-adv-x="497" 
d="M433 90l-5 -48q-3 -24 -29 -33q-47 -18 -149 -18h-9q-187 0 -187 169v189q0 166 190 166h17q86 0 135.5 -36.5t49.5 -129.5v-114q0 -13 -5 -18.5t-19 -5.5h-239v-52q0 -36 16.5 -51.5t53.5 -15.5h5q83 0 151 19q12 4 18.5 -2t5.5 -19zM319 297v62q0 34 -15.5 48t-48.5 14
h-8q-64 0 -64 -62v-62h136zM220 676v-60q0 -14 -5 -19.5t-19 -5.5h-68q-14 0 -19 5.5t-5 19.5v60q0 14 5 19t19 5h68q14 0 19 -5t5 -19zM405 676v-60q0 -14 -5 -19.5t-19 -5.5h-68q-14 0 -19 5.5t-5 19.5v60q0 14 5.5 19t18.5 5h68q13 0 18.5 -5t5.5 -19z" />
    <glyph glyph-name="emacron.1" horiz-adv-x="497" 
d="M433 90l-5 -48q-3 -24 -29 -33q-47 -18 -149 -18h-9q-187 0 -187 169v189q0 166 190 166h17q86 0 135.5 -36.5t49.5 -129.5v-114q0 -13 -5 -18.5t-19 -5.5h-239v-52q0 -36 16.5 -51.5t53.5 -15.5h5q83 0 151 19q12 4 18.5 -2t5.5 -19zM319 297v62q0 34 -15.5 48t-48.5 14
h-8q-64 0 -64 -62v-62h136zM114 612v29q0 24 25 24h232q25 0 25 -24v-29q0 -25 -25 -25h-232q-25 0 -25 25z" />
    <glyph glyph-name="ebreve.1" horiz-adv-x="497" 
d="M433 90l-5 -48q-3 -24 -29 -33q-47 -18 -149 -18h-9q-187 0 -187 169v189q0 166 190 166h17q86 0 135.5 -36.5t49.5 -129.5v-114q0 -13 -5 -18.5t-19 -5.5h-239v-52q0 -36 16.5 -51.5t53.5 -15.5h5q83 0 151 19q12 4 18.5 -2t5.5 -19zM319 297v62q0 34 -15.5 48t-48.5 14
h-8q-64 0 -64 -62v-62h136zM124 739h39q20 0 26 -23q8 -50 66 -50q56 0 66 49q3 14 7 19t17 5h40q14 0 18.5 -5.5t2.5 -18.5q-20 -128 -151 -128q-133 0 -151 127q-3 25 20 25z" />
    <glyph glyph-name="edotaccent.1" horiz-adv-x="497" 
d="M433 90l-5 -48q-3 -24 -29 -33q-47 -18 -149 -18h-9q-187 0 -187 169v189q0 166 190 166h17q86 0 135.5 -36.5t49.5 -129.5v-114q0 -13 -5 -18.5t-19 -5.5h-239v-52q0 -36 16.5 -51.5t53.5 -15.5h5q83 0 151 19q12 4 18.5 -2t5.5 -19zM319 297v62q0 34 -15.5 48t-48.5 14
h-8q-64 0 -64 -62v-62h136zM190 611v59q0 25 24 25h81q24 0 24 -25v-59q0 -25 -24 -25h-81q-24 0 -24 25z" />
    </font>
</defs>
</svg>
