<?xml version="1.0" standalone="no"?>
<!DOCTYPE svg PUBLIC "-//W3C//DTD SVG 1.1//EN" "http://www.w3.org/Graphics/SVG/1.1/DTD/svg11.dtd" >
<svg>
<metadata>
Created by FontForge 20090622 at Fri Oct 14 17:50:19 2016
 By deploy user
Copyright (c) 2016 by Tom Nikosey. All rights reserved.
</metadata>
<defs>
<font id="." horiz-adv-x="860" >
  <font-face 
    font-family="Slenderz Medium"
    font-weight="500"
    font-stretch="normal"
    units-per-em="2048"
    panose-1="0 0 0 0 0 0 0 0 0 0"
    ascent="1536"
    descent="-512"
    x-height="1001"
    cap-height="1477"
    bbox="-73.5556 -502 1655 1616"
    underline-thickness="102"
    underline-position="-102"
    unicode-range="U+0020-U+25FC"
  />
<missing-glyph horiz-adv-x="748" 
d="M68 0v1365h544v-1365h-544zM136 68h408v1229h-408v-1229z" />
    <glyph glyph-name=".notdef" horiz-adv-x="748" 
d="M68 0v1365h544v-1365h-544zM136 68h408v1229h-408v-1229z" />
    <glyph glyph-name="glyph1" horiz-adv-x="0" 
 />
    <glyph glyph-name="glyph2" horiz-adv-x="682" 
 />
    <glyph glyph-name="space" unicode=" " horiz-adv-x="616" 
 />
    <glyph glyph-name="exclam" unicode="!" horiz-adv-x="550" 
d="M295 379q-4 0 -6 2q-4 0 -6 2q-20 5 -27 16l-8 21v14q-2 4 -2 8v15q-6 55 -8 174q-2 4 -2 8q0 19 -3 31v110q0 4 -1 20t-1 23v25l-4 65v76q0 1 -1 4t-1 4v103l2 117v20q0 2 1 6t1 6q-2 2 -2 6q0 13 2 15l4 69q0 4 3 7q0 3 1 13.5t1 12.5v2l6 47q0 7 2 9q0 10 2 14l4 4
q0 4 2 6q0 16 16 16h11q13 0 16 -6l2 -2l6 -10q4 -4 4 -8l2 -4l11 -35v-39q-3 -18 -3 -37l-6 -82v-147q2 -4 2 -10v-80q2 -37 2 -72v-76q2 -2 2 -14v-2q3 -12 3 -35q0 -6 -3 -12v-2q3 -3 3 -9v-55q3 -12 0 -31q0 -44 2 -71v-19q2 -6 2 -26v-33q2 -8 2 -18q0 -5 2 -7t2 -10
q0 -32 -2 -61v-2q0 -3 -1 -8.5t-1 -8.5q0 -12 -2 -18q0 -8 -4 -12q0 -4 -7 -11l-2 -2q0 -10 -8 -14q-2 -2 -10 -2zM291 -16h-27q-4 0 -12 4l-2 2h-2q-4 0 -12 4l-3 4q-28 20 -38 49v4q-2 2 -2 12v7q0 6 2 8v2q7 24 20 37q5 8 21 14q18 9 22 10q2 0 4 2q0 2 2 2v2q2 17 21 23
h18q24 0 46 -13t34 -34q0 -1 1 -3t1 -3q2 -4 2 -13v-2l2 -6v-4q0 -8 -2 -16l-4 -21q0 -1 -1 -3t-1 -3l-6 -12q-11 -21 -21 -29q-15 -15 -32 -18zM287 47l8 -6v4q0 8 2 14v9q2 2 2 4v16q0 4 -2 10v4q-2 2 -2 7q0 -1 -1 -2.5t-1 -2.5h-2l-10 -14v-2q-2 0 -2 -2v-14q2 -2 2 -9
l2 -8q2 -2 2 -4q2 0 2 -4z" />
    <glyph glyph-name="quotedbl" unicode="&#x22;" horiz-adv-x="606" 
d="M219 979q-12 0 -24 6l-3 2q-3 2 -4 4l-8 13q0 1 -1 3t-1 3q-2 2 -2 8v4q-4 14 -6 78v12q-3 6 0 16v35q0 27 -2 41q0 6 -1 22t-1 25q-2 6 -2 15v34q0 25 -2 52v22q0 21 2 33q0 12 2 16v15q0 6 2 8q0 2 1 5.5t1 4.5l6 8q3 7 8 9l6 4h17q6 0 8 -2q9 -3 12 -9h2l4 -6l11 -10
q4 -8 4 -14q0 -13 2 -29v-57l1 -7q1 -7 1 -10v-33q2 -10 2 -38q0 -4 1 -8t1 -5v-32q0 -7 -2 -11q4 -8 4 -10q4 -8 0 -20v-48q-3 -13 0 -26v-6q3 -10 0 -17q0 -6 2 -10v-4q4 -8 4 -16q0 -15 -2 -29v-2l-4 -14q0 -3 -2 -5q0 -11 -14 -14l-2 -2q-4 -4 -21 -4zM410 981h-4l-25 6
q-4 0 -8 4q-8 8 -11 17q-4 8 -4 10v6q-4 28 -4 78v28q0 13 2 17v6q0 6 2 10v60q0 14 2 20v12q0 1 -1 5t-1 6q0 6 2 8v4q0 6 2 8v23q3 3 3 20q0 4 1 13t1 14v14q0 2 1 5.5t1 4.5q0 5 4 21v6q0 9 4 25l2 10v2q0 2 1 5.5t1 4.5q3 7 10 10q13 13 23 13q7 0 16 -9q2 0 2 -2
q8 -4 10 -10l13 -14q2 -4 2 -12v-29q0 -15 -2 -23q0 -2 -1 -7t-1 -7v-37q0 -5 -1 -14t-1 -10v-52q-2 -10 -2 -22v-2l-5 -27q2 -2 2 -6q4 -8 0 -20q0 -7 -2 -9v-20l-2 -4q3 -6 0 -15q-3 -12 0 -24v-19q0 -4 -2 -6v-12q0 -1 1 -2t1 -2q2 -2 2 -4q3 -13 0 -29q-2 -2 -2 -6v-2
q0 -4 -2 -6q0 -6 -2 -10q0 -3 -4 -7q-3 -7 -10 -10q-6 -6 -14 -6z" />
    <glyph glyph-name="numbersign" unicode="#" horiz-adv-x="786" 
d="M401 -33q-8 0 -14 6l-4 4q-25 18 -18 46q2 4 2 10v8q0 6 2 8q0 4 2 6l14 101l18 123v18q3 9 3 16q0 4 2 6q4 12 4 52v2l8 78q0 8 2 16q0 5 1 13t1 9v5h-18l-39 -2h-123q0 -7 -2 -11v-6q0 -3 -1 -13t-1 -18q-2 -2 -2 -10l-7 -100v-10q-2 -4 -2 -9v-14q0 -3 -1 -12t-1 -15
v-2q-3 -24 0 -47v-22q0 -1 1 -6t1 -7v-8q0 -21 -2 -39q0 -29 -2 -45q-1 -7 -1.5 -17t-1 -15.5t-1.5 -8.5v-10q-2 -2 -2 -10q0 -14 -10 -19q0 -6 -2 -8l-2 -4q-4 -8 -12 -8l-3 -2q-9 0 -12 6l-14 8l-12 8l-5 7q-6 21 -6 49v6q-2 2 -2 8t2 10q0 4 -1 28t-1 44q0 61 6 178v21
q2 6 2 16v8q-4 28 5 51q0 4 4 50l-37 4h-17q-1 0 -2 1t-2 1q-22 3 -24 4v-2h-8q-10 0 -13 6q-16 0 -16 20v2q0 9 4 13l2 2q6 6 14 6q1 0 3 1t3 1l19 4h4q2 0 15 -1t18 -1h8q3 0 11 -1t14 -1q2 0 5 -1t5 -1q0 42 6 90q6 68 6 88v2q0 15 4 47q6 34 6 53q0 17 2 23q0 10 2 16
v33h-24l-2 2l-35 2h-18q-1 0 -3.5 1t-3.5 1h-8q-6 0 -10 4q-12 4 -12 15v14l4 8l2 2l10 6l6 5q1 0 4.5 1t5.5 1h29q13 0 21 -2h43v2l2 16q8 64 16 162q0 26 6 47q-2 4 -2 12l2 4q0 6 2 8v3q0 6 2 10q0 16 8 82q0 6 3 24q0 5 1 14l1 9v4l6 37l4 28v7q0 6 2 10q0 8 4 12
q0 2 1 4.5t1 3.5v2q0 9 4 13l2 2q2 2 10 6l13 2h4q6 0 10 -4l6 -8q0 -1 1 -2.5t1 -2.5l2 -6q4 -4 4 -12v-8l9 -35q2 -10 2 -16l-7 -97q0 -7 -1 -17t-2.5 -22.5t-2.5 -19.5q-1 -10 -2.5 -23l-2.5 -22t-1 -12v-2l-6 -54q0 -16 -6 -71l-6 -66v-10l-2 -4v-15q4 0 18 -1t23 -1h51
q19 0 31 -2h38v13q-2 4 -2 10l2 18q4 49 7 179q0 20 2 32v25q0 12 2 16v2l6 90q0 26 4 50l6 53v6q0 6 2 8q0 8 2 10h2l2 9q0 4 4 8q3 14 19 14q10 0 22 -10q0 -2 2 -2l4 -6v-2l7 -9v-10l12 -35v-18q0 -4 -4 -74q0 -5 -1 -24.5t-1 -32.5q-4 -40 -4 -55v-37q-2 -8 -2 -23
q0 -35 -2 -74t-2 -77v-54q24 0 32 2h6q4 2 17 2h10q1 0 3.5 1.5t4.5 1.5h4q6 4 15 4l6 2h4q1 0 4.5 1t5.5 1q4 0 8 -4q11 0 11 -9q10 -20 6 -28q-4 -5 -13 -10q-5 -5 -6 -5q0 -2 -4 -2q-20 -6 -78 -12l-2 -2h-12q-2 0 -6.5 -1t-7.5 -1h-11l-6 -162v-2l-10 -117v-20l2 -4v-37
q6 0 8 2h60q1 0 3.5 1t4.5 1h39q8 -2 16 -2h4q9 0 15 -6q4 0 8 -4l2 -2q8 -8 4 -19q-2 -2 -2 -4l-4 -6l-2 -2q-12 -12 -27 -12h-16q-22 0 -53 -2q-32 0 -52 -2h-14q0 -19 -2 -35l-4 -29v-6q-2 -4 -2 -8v-8q0 -3 -1 -14t-1 -19q0 -1 -1 -5t-1 -7q-11 -67 -13 -107q0 -6 -2 -8
q0 -1 -1 -5t-1 -5v-2q0 -33 -6 -45l-6 -43q0 -11 -2 -15v-2q0 -18 -2 -24q-2 -23 -18 -72l-6 -15.5t-4.5 -12t-2.5 -5.5q-4 -17 -16 -22l-2 -2l-2 -3q-4 -8 -13 -8zM248 551h121q24 0 32 2h27v16q2 10 2 25q0 34 2 57q0 10 1 27.5t1 21.5q0 52 6 121v29q2 8 2 18v27h-69
q-3 0 -11 1t-12 1h-47q-2 0 -5.5 1t-4.5 1h-14l-7 -68l-6 -79l-4 -41q-2 -23 -8 -60v-24q0 -27 -2 -47v-2q0 -1 -1 -4.5t-1 -4.5q-2 -4 -2 -12v-6z" />
    <glyph glyph-name="dollar" unicode="$" horiz-adv-x="948" 
d="M467 -217q-2 0 -4.5 1t-3.5 1q-29 15 -33 31l-2 2q-6 27 -6 49v4q0 1 -1 3.5t-1 4.5v25l-4 92q-10 -2 -29 -2h-2q-23 2 -37 2h-2q-110 18 -156 53q-41 25 -65 60l-17 24q-2 2 -2 4q-5 10 -2 21q0 11 -6 20q-2 2 -2 8v2q0 10 10 17q1 0 4 1t5 1t10 -4l14 -8l21 -13l2 -2
q25 -25 37 -49l2 -2h2q5 -3 8 -8l2 -2q4 -4 6 -4q4 -4 6 -4q4 -4 4 -7q73 -30 181 -30h2q0 41 -2 61q0 16 -1.5 41t-1.5 33v2q-2 2 -2 6v51q-2 6 -2 19v75q-2 18 -2 52v10v29v63q-2 23 -2 55q-2 55 -2 115v2q2 16 2 68l-22 16l-27 25l-10 8l-4 4q-5 3 -8 8h-2q0 1 -2 2t-3 2
l-55 64l-6 6l-14 22l-2 2q-56 122 -56 252q0 40 6 70h3q8 35 51 84l6 8q0 2 2 2q13 17 20 19q82 52 154 67l2 2q-1 4 -2 19t-2 22v2q0 2 -1 14.5t-1 20.5q-4 20 -4 41v2q-4 4 -4 10q0 4 2 6v3q-2 2 -2 10v22q0 6 2 8q10 17 26 17q7 0 13 -6l4 -4l6 -9q8 -3 8 -14l4 -4
l25 -53v-6q6 -30 10 -97h10q79 -13 121 -32h2l17 -9l4 -4q4 -4 8 -4q15 -5 18 -14l21 -12q4 -4 4 -7h2l4 -4q4 -4 4 -12v-12q0 -14 -10 -17q-1 0 -3 -1t-3 -1q-10 0 -13 6l-6 3l-12 6q-6 0 -14 8q-1 0 -2 1t-2 1t-3.5 1t-3.5 1l-75 31q-56 11 -64 12q0 -53 -2 -90
q0 -21 -2 -31v-2q-2 -37 -2 -70v-2l-8 -94q-2 -57 -6 -71v-23q-2 -4 -2 -12l-7 -185l91 -71q76 -58 133 -121l30 -33l2 -2q38 -59 43 -76q7 -12 11 -28q0 -1 4 -17l4 -10v-4q8 -47 8 -117v-16q0 -2 -1 -5.5t-1 -4.5v-7l-2 -6q-2 -2 -2 -4q-6 -51 -31 -82q-57 -77 -143 -127
l-2 -2l-8 -4l-27 -10l-27 -12q-27 -12 -49 -15l-18 -2q0 -57 -2 -104v-2q0 -11 -1 -29.5t-1 -24.5v-6q-2 -2 -2 -12q0 -14 -11 -20v-9l-2 -6q-3 -7 -10 -10q-1 0 -3 -1t-3 -1zM492 123l4 -41q61 9 125 35l6 4q38 29 59 59l23 37q13 55 16 113v2q3 27 -4 57q-12 69 -51 127
q-29 45 -101 105v2q-23 21 -84 65q0 -9 -1 -28t-1 -27q0 -9 -1 -22t-1 -15q0 -9 4 -21v-106q0 -3 1 -13t1 -16v-55l-2 -4v-4q2 -12 2 -51q0 -20 5 -127v-76zM311 958l15 -20q28 -36 73 -78v2q0 6 1 17t1 14v6q0 3 1 7.5t1 6.5l5 52q-2 4 -2 12l4 16q7 65 14 195q2 25 2 63v6
q0 19 2 25v78q-81 -17 -133 -88l-2 -2q-24 -31 -27 -70q-6 -53 5.5 -118.5t29.5 -106.5q7 -14 10 -17z" />
    <glyph glyph-name="percent" unicode="%" horiz-adv-x="1277" 
d="M942 -31q-34 0 -68 11h-2l-20 10q-12 5 -25 18l-28 23q0 1 -1 2t-1 2l-6 6q0 1 -1.5 2t-1.5 2q-27 41 -36 61l-9 19v2q-43 142 -43 248q0 19 9 80v6q0 4 2 4l6 20q22 79 55 127q17 30 47 54q5 5 23 14q-6 3 -6 10q-3 13 8 21l14 6q15 6 21 6q2 2 12 2q19 0 31 -2h20
q4 0 8 -4h11l4 -2l14 -4h4q64 -34 117.5 -112.5t73.5 -168.5l2 -8q4 -12 4 -49q3 -27 0 -39q0 -13 -4 -41v-4l-2 -2l-19 -103q-1 -8 -10 -34l-6 -13q-24 -64 -56 -104q-40 -49 -86 -58q-24 -8 -55 -8zM334 772q-61 0 -117 47q0 1 -1 2t-1 2l-12 17l-2 2l-13 18l-2 2l-18 33
q0 1 -1 3.5t-1 4.5q0 1 -1 3t-1 3l-6 19l-13 37q-4 4 -4 8l-4 20q-2 0 -2 2q-20 144 -14 234l12 67q2 2 2 4l8 25q25 66 58 107q20 20 49 36q47 21 74 21h2q1 0 4 1t4 1t4 -1t4 -1h10q1 0 2 -1t2 -1l15 -4q6 0 8 -2h4l16 -6q11 -3 17 -9l2 -2q2 0 6 -4h2l2 -2l8 -6l2 -2
q40 -44 70 -129.5t39 -179.5v-8q0 -56 -8 -84l-4 -39q-3 -3 -3 -4q-4 -12 -4 -19q-14 -46 -24 -72v-2l-19 -39q-2 0 -2 -2q-31 -50 -69 -75q-39 -25 -80 -25zM823 158l8 -15q29 -51 65.5 -83.5t64.5 -32.5q26 0 55 36l8 19l23 41l6 12q2 4 2 10q0 1 1 2.5t1 2.5l2 6
q10 28 16 63l4 17v2q0 2 4 10q0 14 2 24t2 27v2q7 72 -4 131q0 11 -2 17v8q-2 2 -2 6v4q-1 1 -2 5.5t-2 6.5l-8 31q-5 27 -20 49q-3 2 -3 4q-1 4 -4.5 9t-3.5 6l-4 4q0 1 -10 14h-2q-32 39 -62 59l-16 7q0 -3 -4 -3h-10q-24 -7 -35 -18h-2q-42 -25 -60 -72q-30 -64 -38 -135
q-4 -46 -2 -74v-2q3 -103 26 -182zM375 -80q-2 0 -4.5 1t-3.5 1q-23 16 -31 27q-2 2 -2 4q-5 20 -4 35t4 20q-3 6 0 12v3q0 4 4 12q0 4 2 4q19 72 100 270q0 2 2 4q0 5 4 17q5 5 5 8q0 6 6 12q0 1 1 4t2.5 7t2.5 6q2 10 10 26q2 8 23 56l6 12q0 1 3 7.5l5 10.5l6 17v2l14 37
l25 61q28 64 39 100v2q16 46 49 119q0 1 1 4t1 4q10 29 17 41l8 23q2 2 2 8l4 6l4 10l18 52q0 6 2 10l9 14q22 62 63 187l16 57v2q0 3 3 6q0 4 4 8v4l2 2l26 99q0 4 2 4q9 27 9 43q0 4 2 4l6 37l6 24v7q0 10 8 18v6q0 6 6 12q4 4 9.5 6t9.5 3h4q9 0 16 -7l4 -4v-2
q4 -8 4 -12q4 -4 4 -8t2 -6q0 -2 3.5 -23t3.5 -24v-2q-2 -27 -21 -101l-35 -125v-2l-20 -63l-55 -158q0 -5 -3 -8l-2 -6q0 -1 -1 -3t-1 -3t-1 -3.5t-1 -3.5l-2 -8q-2 -2 -2 -4q-11 -33 -59 -151l-35 -89l-47 -114q0 -1 -1 -2t-1 -2q-4 -8 -4 -17q0 -1 -1 -3t-1 -3l-2 -4
l-19 -47v-2l-12 -25l-2 -6q0 -2 -2 -4q-4 -5 -8 -22l-13 -31q-2 0 -2 -2q0 -4 -2 -8q0 -3 -4 -7l-2 -2l-12 -36l-37 -93q-4 -16 -18 -45l-9 -20q-11 -20 -22 -53q-6 -12 -6 -19l-2 -2q-5 -18 -9 -27l-16 -45q-8 -30 -14 -43v-2q-8 -28 -8 -41l-2 -2l-3 -16q-5 -10 -10 -12
l-2 -11q0 -9 -10 -12q-1 0 -3 -1t-3 -1zM223 1014l4 -19q43 -128 84 -155h2q12 -9 25 -9q12 0 29 7q0 4 4 4q0 5 6 8l18 24q0 3 2 5l11 16q0 1 1 3t1 3l22 53q0 7 2 9v2q2 2 2 6l2 2q8 40 8 49v4q14 61 11 129v21q-2 2 -2 6v12q-4 16 -4 37q-3 30 -13 57v2q-2 6 -8 19
q0 1 -1 4t-1 4l-4 8l-4 4l-35 70q-7 10 -25 24l-8 9h-2q-4 4 -4 6h-2q-2 0 -4 2l-33 -6q-28 -12 -53 -48v-2q-28 -50 -41 -110q-4 -36 -4 -68q-3 -92 10 -174q2 -4 2 -10l2 -4v-4z" />
    <glyph glyph-name="ampersand" unicode="&#x26;" horiz-adv-x="1124" 
d="M432 -33q-8 0 -12 4q-48 8 -101 35q-52 30 -94 72q-51 42 -69 86q-37 90 -37 182q0 41 2 66q3 86 24 141q51 135 158 223q15 18 72 62q-59 112 -82 186q-37 106 -43 211v2q-3 114 24 156q6 10 31 22q35 22 43 25q68 26 123 26q34 0 55 -8q47 -17 84 -61.5t49 -98.5
q11 -48 11 -106q0 -47 -4 -70q-12 -91 -54 -145q-72 -92 -139 -146l2 -2v-2l27 -53l172 -305q59 167 108 207q54 45 113 45q37 0 53 -2l4 -2l13 -4q5 0 8 -6q23 -9 39 -31l2 -2l8 -10q4 -4 4 -11t-4 -12q-4 -8 -14 -8q-1 0 -4 1t-5 1l-47 27q-54 4 -57 4q-19 0 -25 -2
l-12 -7l-12 -12q0 -1 -1 -2t-1 -2l-13 -12q-41 -79 -96 -258l60 -90l61 -93q38 -51 45 -65l8 -10q5 -5 9 -13l4 -6h2q6 -12 6 -14h2q0 -2 2 -2l14 -21v-2l2 -2q4 -4 4 -12q0 -19 -16 -27q-1 0 -3.5 -1t-4.5 -1q-4 0 -8 4l-7 4q-3 0 -10 7q-4 0 -8 4l-14 14q-44 44 -80 86
q-71 97 -101 143q-47 -123 -112 -200.5t-141 -102.5q-6 -4 -17 -4zM207 317v-8q20 -99 26 -108q53 -73 119 -123q60 -43 119 -49q2 0 2 -2q7 0 25 16q2 1 24 23l35 51q36 73 59 153l21 70l6 25q-6 12 -31 47q-92 146 -209 366l-20 -16l-47 -45q-54 -57 -72 -86
q-21 -41 -26 -62l-5 -12q-23 -84 -26 -197v-2q-3 -29 0 -41zM389 1018q26 -69 53 -125q31 25 54 51v2q97 117 88 266l-13 60l-5.5 26.5t-3.5 16.5t-1 6q-21 43 -45 61q0 2 -2 2q-6 8 -16 13q-21 6 -43 6q-36 0 -82 -19l-27 -16q-8 -31 -8 -80q0 -47 4 -74q14 -112 47 -196z
" />
    <glyph glyph-name="quotesingle" unicode="'" horiz-adv-x="389" 
d="M213 952q-2 0 -10 4l-2 2h-2q-9 3 -19 13l-2 2l-4 6q-4 8 -4 10v19l4 75v7q0 23 2 28v17q0 2 1 6t1 6q0 11 -2 27v28l-4 33q0 1 -1 4t-1 4v33q-4 7 0 14v19l-4 32v13q0 1 -1 3t-1 3v8q0 19 2 33v31q0 1 1 4t1 4q0 6 4 10q0 2 4 6q3 7 10 10q2 2 7 2q2 2 8 2h8q4 0 6 -2
q4 0 10 -6l6 -8l13 -12q8 -6 8 -41v-35q2 0 2 -4v-10q0 -1 1 -4.5t1 -4.5v-18q0 -5 1 -14.5t1 -12.5q0 -1 1 -3.5t1 -4.5v-18q0 -3 4 -49q3 -9 0 -37v-2l2 -4q2 -6 2 -21q0 -2 -1 -4.5t-1 -3.5v-25q0 -2 -2 -4q0 -10 -2 -16v-35q0 -2 -1 -4.5t-1 -3.5v-8q0 -1 -1 -3t-1 -3
v-5q0 -1 1 -3t1 -3v-14q0 -3 -8 -35v-2q-1 -1 -2 -3l-1.5 -3t-0.5 -2l-6 -10l-2 -2q-4 -9 -13 -9q-2 0 -2 -2l-4 -2q-1 0 -4 -1t-4 -1z" />
    <glyph glyph-name="parenleft" unicode="(" horiz-adv-x="514" 
d="M387 -344q-2 0 -10 4q-4 0 -6 2l-23 8l-4 4q-11 11 -18 29l-9 16q0 5 -2 7v2q-4 4 -4 6l-2 4q0 2 -2 2q0 1 -1 3t-1 3l-2 6l-2 2q-67 122 -139 299l-2 4q-11 34 -13 41l-10 35l-8 37l-12 92q0 1 -1 10t-1 17q0 14 -2 22q-9 123 -9 125q-2 48 2 125v2l13 137q0 3 1 8t1 7
v12q0 13 4 25v6q2 8 2 24v2l2 13q0 1 1 2t1 2t1 3t1 3v4l10 66v2l4 20q42 194 46 201q0 2 6 20l14 41v6q0 7 6 13l4 8q0 1 1 3t1 3l43 92l11 25q19 38 26 57q13 32 17 51q8 24 8 25q2 2 2 6v2q0 2 4 10q0 2 1 6t1 5v2l6 18q0 6 6 12q11 11 23 11q4 0 10 -3q8 -3 12 -14v-2
q0 -2 1 -6.5t1 -7.5q4 -4 4 -8v-7q0 -1 -1 -3t-1 -3v-4q0 -53 -4 -63v-2q-16 -50 -49 -123l-59 -140q0 -2 -1 -4.5t-1 -3.5l-19 -57q-4 -20 -4 -27q-22 -102 -26 -137q-3 -3 -3 -6v-10q0 -4 -2 -4v-17q0 -2 -2 -2q-25 -165 -28 -264l-8 -135q0 -2 1 -12t1 -11t1 -3t1 -3v-4
q0 -36 2 -59v-37q0 -2 2 -2l8 -70v-2q0 -6 -2 -8v-4q4 -4 4 -8q0 -1 -1 -3.5t-1 -3.5q0 -2 2 -2q0 -5 2.5 -20.5t3.5 -24.5q12 -50 33 -116l14 -41q0 -3 4 -11l8 -20l25 -55l14 -25q12 -16 15 -27q29 -53 47 -102q18 -50 20 -59l2 -2q7 -26 4 -35h-2v-4l2 -2v-4
q5 -15 -4 -21q-6 -6 -12 -6z" />
    <glyph glyph-name="parenright" unicode=")" horiz-adv-x="503" 
d="M113 -377h-4q-14 0 -17 10l-12 29q0 2 -1 4.5t-1 3.5q0 12 10 37q0 2 1 5.5t1 4.5q0 7 6 13q0 2 1 4.5t1 3.5l2 2l4 14q0 3 5 8l2 2q81 202 114 299v7l6 24q5 10 5 15h2q0 3 2 14t2 14q0 2 2 4l8 39l18 88q6 30 6 43v2q8 58 11 119q4 68 2 119q0 88 -2 131q-4 12 -4 27
v22q-5 14 -7 43v14q-5 41 -8 54l-2 8v2l-2 18q-13 93 -45 203l-20 64l-2 6q-2 2 -2 8q-2 2 -2 6q-3 3 -3 4l-16 47l-24 68q-21 42 -27 63l-19 39l-14 33q0 2 -2 4l-2 4l-2 2l-2 4q0 5 -2 5q-2 3 -3 7l-1.5 6t-1.5 3v2l-6 14q0 1 -1 3t-1 3t-1.5 4t-1.5 5q0 5 1.5 9t3 6.5
t4.5 4.5t5 3t5 2l2 1q1 0 3 1t3 1q2 0 10 -4l4 -4q10 -3 13 -10q2 0 6 -4l4 -6l4 -4l41 -50q0 -2 2 -2q30 -59 55 -118q9 -19 47 -125l7 -21l22 -74q23 -81 43 -178q0 -1 1 -2t1 -2v-12q4 -4 4 -8q0 -11 2 -15v-4q18 -108 25 -272q3 -39 -4 -135v-35q0 -18 -4 -58v-6h-2
q0 -4 -1 -10t-1 -8q-2 -4 -2 -12v-9q0 -2 -2 -4l-11 -71l-4 -17v-4l-4 -8q-7 -41 -10 -53l-35 -131q0 -3 -4 -15q0 -1 -1 -4t-1 -4q0 -2 -4 -10q0 -1 -1 -4.5t-1 -5.5t-2 -4v-2l-13 -31v-2q-1 -2 -12 -29q-11 -32 -14 -37l-10 -22l-7 -19q-4 -4 -4 -8v-2q-16 -37 -47 -92
q0 -2 -1 -4.5t-1 -3.5l-12 -25l-12 -24q0 -5 -2 -7l-7 -14q0 -2 -4 -6l-8 -6l-4 -8q-1 -1 -2 -3t-2 -2q-3 -9 -12 -12z" />
    <glyph glyph-name="asterisk" unicode="*" horiz-adv-x="894" 
d="M250 754q-6 0 -14 4q-7 7 -10.5 25.5t1.5 31.5q4 7 9 10q0 2 2 4q0 3 4 7v2l2 2l63 118q0 3 6 15q2 12 13 26q6 19 10 25l4 10l8 31q0 8 2 12q0 3 1 9l1 6q-2 2 -2 4l-4 4q-2 0 -2 2q-2 0 -4 2l-14 12h-2l-2 4q-17 10 -54 27l-18 8h-2q-8 0 -12 4q-7 0 -15 4l-28 8l-29 7
q-2 0 -5.5 0.5l-10 1.5l-13.5 2q-1 0 -4 1t-4 1q-6 0 -12 2q-9 0 -11 2l-4 2h-2q-12 0 -18 12l-2 6q-4 14 10 21l4 2q2 2 8 2q4 2 13 2q14 2 34 2h7q42 -5 53 -8q27 -5 35 -8l26 -7h2l25 -8l47 -18l12 -6q2 0 6 -4h2v4l3 4q2 6 2 31q0 5 1 16t1 18v31q0 6 2 8q0 6 1 18t1 19
q2 2 2 10q0 11 4 43q4 20 4 25v6q0 6 2 8v2q0 12 6 15l2 4q3 16 21 16q12 0 22 -10l2 -2q4 -4 4 -6q7 -7 7 -15v-2q12 -18 12 -35q0 -24 -2 -57q0 -25 -2 -37q0 -4 -1 -12t-1 -10v-27q0 -25 -2 -37q0 -6 -1 -13.5t-1 -8.5v-15l-7 -55l25 6l10 4q2 0 2 2l31 9q6 6 12 6
q29 6 45 18h2l25 10q4 4 14 9q2 2 8 2q0 4 7 4l12 4q8 4 10 4t4 2h2q1 0 19 6q6 6 12 6q4 4 12 4l9 2q3 5 14 9l20 6h2q16 2 21 2q6 0 12 -6q10 -3 10 -17v-4q0 -20 -16 -26h-4q0 -2 -2 -2q-3 -3 -8 -3q-36 -18 -60 -24h-4l-14 -6q-2 -2 -6 -2q-8 -4 -11 -4q-5 -5 -10 -5
q0 -2 -4 -2l-16 -8q-4 -4 -6 -4l-21 -8l-24 -12h-7q-4 -4 -8 -4q-2 -2 -8 -2l-14 -7h-4q-9 -5 -35 -12q-1 0 -3 -1t-3 -1h-4q-1 0 -4.5 -1t-4.5 -1q0 -2 2 -2q9 -6 9 -14l4 -7l10 -14q4 -4 4 -8l2 -4l10 -17l6 -12q17 -28 19 -31q4 -4 10 -16q4 -8 10 -14l11 -19l6 -8
q2 0 10 -8q19 -15 27 -37q12 -16 12 -35v-2q3 -16 -6 -22l-2 -6q-3 -13 -17 -13h-6l-26 8q-9 4 -11 9l-4 6l-6 6l-4 8v2q-49 52 -74 98h-2l-4 9q-2 2 -2 4l-4 6q-4 4 -8 12l-6 8v2q-7 7 -15 23q0 1 -1 3t-1 3q-4 4 -4 6t-2 4q0 1 -1 3t-1 3l-10 13q0 -3 -4 -15q-4 -4 -4 -8
l-2 -4l-2 -4l-11 -20l-18 -37q-2 -12 -19 -35l-12 -21l-4 -8q-4 -8 -4 -10v-2q-13 -21 -35 -49l-18 -25v-2l-6 -6q-6 -6 -15 -6l-2 -4q-8 -4 -12 -4z" />
    <glyph glyph-name="plus" unicode="+" horiz-adv-x="1333" 
d="M723 111q-19 0 -37 18q-6 6 -6 14q0 1 -1 3.5t-1 3.5v2l-2 10v2q-2 4 -2 10v10q-3 35 -6 170v21q-6 8 -2 33v10q0 2 1 17t1 28v24q0 5 -1 25.5t-1 26.5v10q0 14 -2 22v7h-62q-9 0 -18 -3h-181l-63 5l-33 2q-25 2 -43 2q-4 0 -8 2h-2q-8 0 -10 2q-2 0 -6 1t-5 1
q-11 4 -14 12l-2 6q-3 8 2 17q6 6 14 6q4 2 11 2h8l29 4h34q7 0 18 -1t13 -1h23q10 0 29 -1t24 -1h145q36 4 95 4v123q-3 3 -3 10l3 10q0 24 -3 107v51q0 22 3 63q0 34 2 48q0 8 1 18.5t1 13.5v13q0 2 1 4.5t1 3.5v2l4 6q0 4 4 12q4 4 10.5 6t11.5 2h4q14 0 17 -10l6 -6
l2 -2q4 -8 4 -12q14 -29 14 -37q0 -11 3 -64q0 -23 -3 -47v-32q0 -9 3 -21v-16q0 -29 0.5 -50t1 -30t0.5 -10v-23q2 -16 2 -80q2 -25 2 -51h14q6 0 12 2h4q19 0 29 2h68q6 2 30 2q45 0 68 2q2 0 6 1t6 1h68q2 2 6 2h14q6 2 25 2q21 0 35 -2h26q7 0 9 -2h2q8 0 10 -2
q6 0 8 -2q13 0 16 -12q4 -11 -8 -19l-8 -8q-4 -4 -6 -4q-12 -4 -23 -4h-8q-2 -2 -8 -2h-12q-30 0 -162 -6h-39q-6 -2 -23 -2q-37 0 -41 -2h-30q-25 0 -39 -2h-39q-2 0 -5.5 -1t-4.5 -1v-2q-2 -6 -2 -17v-4q2 -4 2 -8v-2q2 -10 2 -33q0 -10 -2 -12v-2q2 -2 2 -6v-39
q0 -9 -2 -15q3 -12 0 -28q0 -43 2 -66v-80q2 -6 2 -10q0 -6 2 -8v-4q2 -10 -2 -51v-11q-2 -16 -2 -28v-9q-3 -13 -13 -20q0 -4 -4 -8l-2 -2q-6 -6 -14 -6z" />
    <glyph glyph-name="comma" unicode="," horiz-adv-x="405" 
d="M111 -303h-9q-9 0 -12 6l-6 6q-2 0 -2 2l-6 8q-4 4 -4 11q0 6 2 10v6q0 6 6 12q4 18 14 39l10 29v2q0 4 5 14q0 9 4 13q0 6 4 10q0 1 2 6.5t2 9.5l4 8v2q0 1 1 3.5t1 3.5q1 1 4 24q0 2 2 4q4 12 4 27q0 2 2 15t4 20v10q0 6 2 8q0 1 1 3t1 3v6l3 9v8l2 6q4 13 8 51v14l2 5
q0 2 1 5.5t1 4.5l6 29q0 10 4 22q1 2 1.5 5.5t1.5 6.5t3 6q0 7 8 15l5 4q3 6 14 6h14q10 -3 12 -8q11 -4 11 -14l2 -3q10 -13 10 -20q0 -8 -2 -16q0 -11 -2 -17q0 -12 -2 -20q-4 -12 -4 -17v-12q0 -1 -1 -4t-1 -4q0 -13 -2 -25q-4 -16 -4 -20q0 -8 -2 -10v-7q0 -2 -1.5 -7
t-1.5 -9l-8 -55v-2l-10 -33v-6q0 -9 -4 -21q0 -4 -4 -8l-4 -16q0 -1 -1 -3t-1 -3q0 -2 -2 -2l-2 -5q0 -6 -2 -10v-2q0 -1 -1 -3t-1 -3q-2 -3 -6 -12t-5 -11l-2 -4q0 -4 -6 -16q-2 0 -2 -2v-4l-6 -14q0 -2 -1 -6t-1 -5q-2 0 -2 -2v-4q-3 -5 -21 -31l-10 -12l-6 -4l-2 -2
q-8 -4 -12 -4z" />
    <glyph glyph-name="hyphen" unicode="-" 
d="M610 702l-37 -4q-24 0 -30 2l-123 -6q-6 -2 -19 -2l-36 2q-13 0 -21 -2h-12h-64h-2q-8 2 -20 6l-2 2l-8 -2l-48 2h-2l-8 2l-10 -4l-29 7q-4 0 -6 2q-6 0 -10 2l-2 2q-7 -2 -15 6q0 9 3 14v2q0 10 4 12q5 11 10 11q4 4 8 4h6h13q4 2 8 2h2h39q4 0 14.5 -1t15.5 -1
q8 2 21 2l16 -2l10 -2h18t15.5 -0.5t11.5 -1t8 -0.5h3l24 4q2 -2 15 -2q3 0 9.5 -2t10.5 -2l70 4l16 2l68 2l4 -2q2 2 6 2q2 0 6.5 -1t7.5 -1l101 6q2 2 8 2q18 0 41 2h12q4 -4 8 -4h4q2 0 6 -1t5 -1l2 -2l4 2q12 -4 12 -16v-5q0 -4 -2 -4q-1 -7 -10 -20q-3 -6 -12 -8
q-1 0 -2.5 -1t-2.5 -1l-20 2q-67 -7 -113 -9z" />
    <glyph glyph-name="period" unicode="." horiz-adv-x="438" 
d="M203 -8q-1 0 -3 1t-3 1h-4q-9 0 -11 2h-6l-18 6l-8 4l-5 4q0 1 -1 2t-1 2q-23 41 0 70l2 2l15 16q0 2 2 2l18 17l2 2q0 4 2 6l2 4v2q0 6 5.5 10.5t11.5 4.5q4 2 8 2h14q44 0 68 -35v-2q2 -1 6 -9l2 -8v-12q0 -8 -4 -14q0 -7 -4 -15q-2 0 -2 -4l-6 -10l-6 -8l-13 -17
l-2 -2q-4 -5 -26 -16q-4 -2 -17 -2q-1 0 -3 -1t-3 -1q-8 -4 -12 -4z" />
    <glyph glyph-name="slash" unicode="/" horiz-adv-x="657" 
d="M160 -80h-4q-7 0 -13 6q-20 20 -20 35q-7 25 4 51v11h2v6l2 4q0 8 2 10q17 83 60 264v4q2 2 2 4q0 1 1 5t1 6q4 8 4 18q0 4 4 8q1 2 2 10t2 11q6 28 10 37l4 16l15 57v2l12 37q0 4 8 43l14 56q3 27 21 102l26 111q3 9 3 18q2 2 2 4t1 6t1 6l4 9v2q4 12 4 28l2 4q1 2 2 6
t2 5q10 30 10 51v2q2 2 2 4l4 14l39 176q0 3 4 31q4 16 4 23v6l3 4q0 4 2 6q0 4 4 12l22 101l12 55q0 8 15 68v4q0 2 4 10v8q0 7 6 10q5 13 6 15q0 6 4 10q8 8 21 8q4 0 12 -4q7 -2 10 -12q1 -2 1.5 -5t1 -5t1.5 -3q2 -6 2 -16v-4q2 -33 2 -53v-2q-2 -27 -18 -107l-8 -37
l-6 -32l-13 -58l-12 -61l-18 -78l-15 -72q-1 -2 -2 -8.5t-2 -9.5q0 -1 -1 -4.5t-1 -5.5v-5l-51 -223l-27 -110l-2 -4q-2 -4 -2 -17v-8l-12 -49l-6 -21q-2 -2 -2 -4v-8q-5 -25 -17 -61l-4 -15q0 -4 -4 -8q0 -4 -2.5 -15.5t-3.5 -17.5l-2 -10l-2 -2l-27 -106q0 -2 -1 -6.5
t-1 -6.5l-2 -6q0 -2 -1 -4.5t-1 -3.5t-1 -4t-1 -4q0 -20 -10 -35l-10 -49q0 -3 -1 -8t-1 -7l-2 -6v-4q-2 -4 -2 -10q0 -3 -1 -7.5t-1 -6.5q-5 -26 -27 -93l-14 -49v-2l-7 -14q0 -4 -4 -4l-6 -6l-6 -13q-2 -5 -12 -10z" />
    <glyph glyph-name="zero" unicode="0" horiz-adv-x="915" 
d="M494 -12q-89 0 -172 47q-19 13 -37 28q-2 0 -2 3l-31 32h-2q-5 10 -6 11q-14 18 -35 49q0 2 -2 2l-8 22q-37 79 -49 121l-11 39v2q-45 248 -39 477q0 17 13 150v14v2l8 43q26 146 57 238q21 58 43 98v2q25 30 47 49q31 28 56 41v4q-4 15 14 19q36 8 51 8h4q8 -2 23 -2h2
q1 0 2 1t2 1h2q4 4 10 4q1 0 3.5 1t4.5 1q17 0 21 -18q6 0 22 -4q2 -1 2 -3l21 -8q1 -1 4 -2t4 -2t4 -2t4 -2h8q5 -3 13.5 -7.5t11.5 -6.5l2 -2q139 -109 197 -279q36 -104 45 -340l2 -12v-2q0 -20 -4 -78v-18q0 -7 -1 -20t-1 -19q0 -29 -2 -39q-2 -37 -13 -92
q-14 -100 -37 -199q-6 -25 -24 -90q-46 -132 -74 -180q-41 -72 -106 -78q-28 -4 -47 -4zM195 944q-9 -68 -9 -156v-2q-3 -221 31 -385v-2q2 -17 16 -65l5 -8q42 -130 81 -181q35 -44 77 -71.5t79 -28.5q33 0 52.5 5.5t26 12.5t15.5 21q11 21 13 31v2l30 76q13 30 19 49v2
l4 8l4 12q3 14 13 55l16 66v2q2 7 4.5 18.5t3.5 14.5q0 1 1 3t1 3q0 4 2 6q0 18 8 57l10 64q18 172 15 297v2q0 39 -2 55l-6 43v2q-3 44 -9 70q-12 80 -30 129q-3 10 -17 45q-2 0 -2 2q-3 12 -20 41q-66 110 -111 143q-51 32 -84 43v2q-25 8 -29 9l-6 -2l-4 -2
q-64 -27 -80 -52q-40 -68 -61 -147q-36 -117 -57 -289z" />
    <glyph glyph-name="one" unicode="1" horiz-adv-x="706" 
d="M547 -35q-4 0 -12 4l-9 6q-17 11 -22 21q-6 12 -6 29v6q-2 2 -2 8v14q-2 2 -2 8v9q-4 60 -7 184q0 13 -1 43t-1 47v2q-2 23 -2 60v163q0 6 -1 32.5t-1 39.5q-2 18 -2 31q0 6 -1 24t-1 29q-2 18 -2 51v111q0 6 -2 10v12q0 15 2 19v4q0 8 -2 12v100q2 14 2 64v70v49l-12 -8
q-11 -9 -27 -13q0 -2 -4 -2l-22 -8h-2q-2 -2 -7 -2h-8q-6 -2 -16 -2h-23q-8 -2 -20 -2h-10q-9 0 -13 2h-16q-10 0 -12 2h-17q-2 0 -5 1t-5 1q-6 0 -14 8q-4 8 -4 15v2q0 4 4 12l4 4q8 4 10 4q6 6 12 6q8 2 29 2h31q2 0 5 -1t5 -1h29q0 2 6 2q7 1 35 8l12 7q0 1 1 2t1 2
l10 10l4 6l2 2l2 4q0 2 4 6q2 0 2 2q1 2 3 2q3 5 8 19q0 10 6 16v8q4 8 4 13q0 4 2 6q-2 2 -2 10q0 6 6 29l4 14q3 20 8 27q0 12 13 18q2 2 2 4l2 2q4 4 14 4q6 0 8 -2h2q7 0 15 -4l10 -10q0 -4 2 -4q4 -8 4 -10v-4q10 -20 10 -33v-35q-2 -12 -2 -35q0 -27 -2 -43
q0 -10 -1 -29t-1 -24v-211q2 -23 2 -115q2 -51 2 -102v-113q0 -16 4 -20v-8q2 -14 2 -54v-14q-2 -4 -2 -14v-6q0 -13 2 -21v-113q0 -75 2 -114v-68q0 -39 2 -55v-2q0 -13 3 -19v-4q0 -6 2 -10v-12v-72q0 -3 -1 -9.5t-1 -10.5q-3 -41 -3 -45v-7q-2 -4 -2 -10q0 -11 -8 -16v-2
q0 -2 -2 -4q0 -11 -4 -15q-6 -6 -12 -6z" />
    <glyph glyph-name="two" unicode="2" horiz-adv-x="921" 
d="M676 -23h-68q-397 9 -493 54q-8 4 -11 10q0 10 2 14l5 6q3 8 28 56l31 45q2 2 2 4l41 51l45 72l10 18q1 1 3.5 5.5t4.5 6.5q16 31 23 41l86 148q70 125 92 168q59 115 92 190v2l15 33q2 10 12 29l2 8l2 2l16 53q0 2 2 2l7 19q7 23 20 80l4 22q6 53 -10 133
q-15 80 -39 115q-16 26 -49 43h-6l-2 2l-8 4q-5 0 -13 4q-36 4 -49 4q-51 0 -94 -12q-26 -9 -74 -41q-51 -46 -84 -82q0 -6 -8 -14l-2 -2l-2 -4l-2 -2v-2q0 -1 -1 -2.5t-1 -2.5l-4 -4q0 -4 -6 -10l-5 -10q-6 -12 -10 -16l-4 -7q-3 -5 -8 -8q-12 -6 -18 -6q-8 0 -13.5 5.5
t-5.5 12.5v17l2 4q0 4 4 12q0 6 2 8l8 21v2q43 73 56 86h2q83 77 166 100q59 17 106 17t107 -17q58 -17 94 -65v-2q33 -53 49 -132t10 -137v-8l-4 -16q0 -15 -4 -31q-57 -194 -154 -377q-22 -47 -102 -188q-10 -19 -18 -31q0 -4 -4 -8l-5 -8v-2l-45 -78q-13 -23 -16 -25
q-4 -8 -8 -12l-4 -8l-21 -35l-26 -45l-7 -12l-2 -2l-4 -6l-43 -64h-2q-43 -64 -65 -106l-6 -11h2q4 0 8 -2q26 -4 90 -8q25 -2 47 -2h51q148 -8 217 -8q27 0 55 -1t29 -1q4 -2 6 -2h3q8 -2 20 -2h4l6 -2l8 -2h9q7 0 14 -7q7 -13 -2 -22q-6 -6 -10 -6l-13 -6q-4 -4 -8 -4z
" />
    <glyph glyph-name="three" unicode="3" horiz-adv-x="917" 
d="M338 -39q-47 0 -55 4q-53 18 -95 50.5t-61 64.5v2q-23 44 -41 92v2q0 1 -1 4.5t-1 5.5q-1 2 -2 7t-2 6q0 2 -2 4q0 1 -1 5t-1 8.5t2 8.5q0 4 -2 6v11l-2 4q-3 8 0 16q3 10 16 10q10 0 16 -6l27 -18q4 0 4 -4q16 -16 27 -43l10 -27v-4q4 -4 4 -12q4 -4 8 -15q1 0 2 -2
t2 -2v-2l5 -8q2 -2 2 -4q2 -2 4 -6q70 -101 164 -101h4q102 3 221 95l4 6q34 34 57 76l8 18q11 18 11 23v4q20 52 26 116q2 24 -2 64q-12 93 -49 166q-54 105 -106 129q-9 4 -70 18q-32 5 -50.5 9.5t-36 16t-20.5 27.5q-3 17 13 21q1 0 9 2l20 5l20 5h2q26 3 53 10l41 13
l21 10q18 9 71 51q0 1 1 3t1 3l17 17q17 52 20 147q3 80 -10 139q-5 34 -31 84l-4 9h-2q-4 8 -4 10q-6 6 -6 10q-2 0 -2 2q-42 39 -70 55t-73 25q-12 4 -35 4q-30 0 -54 -8q-56 -15 -106 -53q-2 -2 -4 -2q0 -3 -8 -11q-2 -2 -4 -2q-2 -5 -9 -8l-2 -2q-2 -2 -2 -4l-4 -4
q-9 -9 -14 -19l-8 -8l-2 -4q-10 -10 -21 -10q-14 0 -20 12q-2 2 -2 8q0 12 12 33q0 6 4 10l14 17q47 53 78 69l2 2q85 39 172 39q21 0 33 -2q133 -18 221 -135q32 -49 43 -119q8 -47 8 -110q0 -122 -30 -187q-2 -4 -6.5 -10t-10 -12l-12 -12.5l-11 -11t-8.5 -7.5l-4 -4
q-66 -51 -137 -74q107 -26 172 -116l33 -52v-2q35 -72 41 -96l6 -31q0 -8 4 -22v-2l2 -12v-3q3 -58 0 -116q0 -11 -4 -23l-2 -4v-2q0 -8 -2 -10q-6 -47 -27 -84v-2q-55 -95 -129 -156h-2l-4 -4l-30 -20q-22 -13 -29 -15l-49 -20q-2 0 -2 -2q-70 -20 -113 -23q-28 -4 -49 -4z
" />
    <glyph glyph-name="four" unicode="4" horiz-adv-x="962" 
d="M614 -29h-4q-9 0 -16 11q-4 2 -6 2q-15 10 -17 14l-2 2q-8 19 -8 43v12q0 1 -1 4t-1 4v11q0 96 2 188v57q0 2 -1 5t-1 4q0 3 1 9t1 9v31h-37q-20 0 -56 -1t-50 -1l-4 -2h-4l-45 -4q-23 -2 -39 -2q-16 -2 -47 -2q-47 0 -101 4q-34 4 -47 8q-46 13 -61 51q-14 33 2 66v2
q35 54 51 92l57 104q7 14 8 15q0 6 5 6q0 4 4 8l8 12q0 4 4 8l12 21l6 10v2q1 5 6 12l5 7l36 61l13 18q68 121 114 211l35 70q4 12 8 16l2 5v2q33 71 50 112v2q1 1 16 53v5q5 7 10 45q2 6 2 14v6q0 6 4 10v9l2 10v2q0 8 7 12q7 10 22 10q10 0 16 -6l3 -4q7 12 20 12
q9 0 25 -16l2 -4l6 -12q2 -4 2 -11l12 -28q6 -18 6 -19v-18q5 -23 8 -80v-2l3 -115q0 -1 1 -19.5t1 -35.5q2 -20 2 -78v-92q0 -78 -2 -152v-53l-1 -6q-1 -6 -1 -12t-1.5 -34t-1.5 -50v-13q0 -1 1.5 -3t1.5 -3v-6q0 -20 -3 -47q0 -3 -1 -7.5t-1 -6.5v-17q0 -14 -1 -32.5
t-1 -22.5v-12q0 -1 -1 -3t-1 -3v-23q73 -6 82 -6q20 0 56 4h2q2 0 6 2q4 0 4 2h10q2 2 6 2q4 4 10 4q8 0 13.5 -5.5t5.5 -12.5v-2q0 -4 -4 -8l-10 -17q0 -1 -5 -6q-14 -8 -47 -14h-10q-4 -2 -16 -2h-2q-6 -2 -19 -2h-4q-1 0 -8 0.5t-18 1t-21 0.5h-35v-82q0 -4 -2 -10v-33
q-3 -21 0 -47v-21q0 -4 1 -10.5t1 -9.5q2 -19 -4 -88q-2 -25 -2 -45l-2 -4v-11q0 -9 -10 -16v-2q0 -1 -1 -4t-1 -4q-4 -11 -15 -15zM223 422h66q89 4 137 10h2q21 0 21 2h6q10 0 16 2h33q27 2 53 2h8q0 8 1 26t1 23q0 1 1 8t1 11v106q0 3 1 17.5t1 23.5v52q0 5 1 22.5
t1 28.5v71q0 9 2 15v30q-2 0 -2 5q0 3 1 7t1 5v65q0 8 1.5 30.5t1.5 37.5q0 12 -1.5 42t-1.5 50v29q0 5 -0.5 10t-1 8t-0.5 4v105l-6 -15q-15 -40 -65 -147q-15 -35 -35 -66q-4 -8 -4 -10l-101 -180h-2l-10 -16q-3 -11 -12 -25l-129 -231l-21 -39t-20 -37t-14 -23
q-13 -13 -17 -30q0 -1 -1 -4.5t-1 -4.5l2 -2h4v-2l58 -12h2q8 -2 14 -2t8 -2z" />
    <glyph glyph-name="five" unicode="5" horiz-adv-x="921" 
d="M391 -27h-4q-105 14 -158 64q-42 37 -69 82q-18 35 -19 39q-3 12 0 18q-6 12 -6 25q-1 2 -2 7.5t-2 6.5q-11 11 0 25q8 4 14 4q5 0 13 -4l16 -15q19 -16 23 -22q16 -18 32 -51l13 -17q0 -1 1 -3t1 -3l10 -10q0 -2 2 -2l4 -8h2l6 -5l6 -6q0 -2 2 -2l5 -6q77 -57 145 -57
q19 0 27 2q80 15 172 115l6 8q32 45 51 92q14 42 16 57q15 75 17 146q0 33 -4 65q-15 93 -47 162q-39 73 -95 111q-67 46 -178 49q-11 0 -31 -4l-36 -13q-51 -21 -72 -26q-2 0 -5 -1t-5 -1q-6 -2 -13 -2h-6q-37 11 -47 35t-6 63l2 43q14 172 14 250q0 12 -1 32.5t-1 28.5
q-3 71 0 111v10q0 12 2 16v13q2 12 11 16q73 47 139 47q22 0 57 -6q80 -8 101 -8q54 -4 127 -4q2 2 8 2h14q4 2 8 2h19q23 6 30 6q2 2 9 2q24 0 24 -20q0 -16 -12 -19q-29 -10 -31 -10l-18 -6h-2q-70 -13 -97 -13q-5 0 -198 13q-6 0 -16 1t-15 1q-40 0 -56.5 -13t-19.5 -47
q0 -13 4 -59q2 -23 2 -53q0 -87 -12 -266q0 -15 -4 -35v-41q0 -6 -2 -8v-3h6q3 0 13 2t24.5 4.5t24.5 4.5l38 8q5 1 19.5 3.5t21.5 2.5q10 2 33 2q56 0 117 -22q96 -41 162 -125q15 -19 28 -41l2 -4v-2q29 -57 37 -91l6 -28q0 -13 5 -23v-2l2 -12q9 -66 6 -125q0 -19 -2 -27
v-6q0 -4 -2 -6q3 -48 -17 -102q-48 -123 -116 -197q0 -2 -2 -2l-31 -29l-25 -18q-25 -19 -47 -27q-51 -23 -90 -32h-2l-37 -5q-20 -2 -39 -2z" />
    <glyph glyph-name="six" unicode="6" horiz-adv-x="966" 
d="M465 2h-10q-94 0 -191 57q-24 16 -37 31l-30 33v2q-23 32 -39 68l-11 22q-19 50 -28 133q-4 8 -4 10v33q9 210 57 379q0 2 2 2l43 129h2l14 35v2q56 122 101 203v2q7 7 10 16q27 46 51 78l76 123l8 18l4 6q0 1 1 4.5t1 4.5t1 2t1 2l2 4v2l7 6q4 22 10 33v2q0 9 10 16
l12 6q1 0 4 1t5 1q4 0 8 -4q8 -3 8 -14q2 -6 2 -31v-10l-6 -25v-2q-24 -70 -47 -108q-25 -46 -45 -74l-64 -106q-60 -117 -108 -244q-23 -64 -33 -96q111 97 213 114q36 4 53 4q118 0 236 -86l10 -8l2 -2q23 -28 43 -65q23 -43 29 -70q12 -50 12 -98q3 -130 -21 -224
q-12 -48 -36 -92q-65 -107 -144 -164h-2q-93 -58 -182 -61zM262 178q27 -39 70 -71.5t82 -38.5q18 -5 41 -5q64 0 129 33q15 6 37 25q54 58 61 67l27 48l6 8q30 77 39 125q6 25 6 37q0 6 2 8q2 118 0 123v2q-21 138 -78 209l-27 24l-22 16q-22 13 -41 19q-38 10 -72 10
q-12 0 -18 -2l-39 -4q-8 -4 -12 -4q-22 -7 -25 -10q-100 -50 -139 -105h-2q-28 -40 -47 -86l-2 -2l-13 -31q0 -1 -1 -3t-1 -3l-2 -2l-6 -8l-2 -4q-9 -71 -12 -129q0 -27 4 -59q21 -133 57 -187z" />
    <glyph glyph-name="seven" unicode="7" horiz-adv-x="972" 
d="M272 -49q-14 0 -18 14l-2 4q-2 0 -2 2q-8 11 -8 21q0 2 -2 2v6q0 11 4 31v6l6 20q0 1 4 17q0 4 2 8q0 6 2 12q0 1 1 3t1 3v2q48 213 88 361l2 8q5 22 12 37q3 6 3 8l8 23q0 2 1 5.5t1 4.5v2q2 12 18 43l41 98v2l21 43q0 2 2 2l53 125v2l39 92l12 33l51 137l9 29q0 1 1 2
t1 2l12 25l10 28l4 13v2q1 3 4 7t4 5v2h2l27 66q0 4 2 4l8 18q21 64 21 78h-6q-47 0 -74 -2h-35q-68 -2 -186 -2h-101q-82 3 -106 6h-10q-7 0 -14.5 2t-8.5 2q-18 5 -24 12q-6 3 -9 9l-2 6q-3 9 4 16q4 8 13 8h10q2 2 6 2q1 0 3.5 -1t4.5 -1h23q7 0 23 1t22 1q55 -2 174 -2
l221 4h80q39 -2 55 -59q12 -50 -2 -86q-4 -12 -8 -18v-4l-8 -23h-2l-60 -156l-45 -123q-10 -29 -61 -137q-4 -16 -10 -30q0 -1 -1 -3.5t-1 -3.5q0 -2 -2 -2l-27 -61v-2l-6 -10l-8 -23q-2 -2 -2 -4l-5 -4l-28 -74q-2 0 -2 -2l-8 -18q-2 -2 -2 -4l-3 -2l-8 -19q-1 -5 -5.5 -18
l-6.5 -19l-45 -139l-8 -29q0 -9 -15 -59l-18 -70q0 -13 -6 -28v-2q0 -3 -1 -10.5t-1 -10.5q0 -1 -1 -4t-1 -4v-4q-5 -28 -35 -127l-21 -64l-8 -20l-2 -2q-5 -9 -10 -12l-4 -5q0 -4 -4 -8q0 -6 -5.5 -11t-11.5 -5z" />
    <glyph glyph-name="eight" unicode="8" horiz-adv-x="946" 
d="M530 -45h-16q-81 0 -176 29q-8 2 -29 12l-8 4l-29 16q-2 0 -2 2l-41 29l-14 14q-15 13 -39 45l-16 19v2l-13 20l-2 3q-61 152 -55 268v2q1 8 8 36.5t11 47.5v6q0 1 1 3t1 3l10 23q44 89 90 141q31 35 72 61l18 13q3 10 10 12l6 4l21 6q-39 17 -84 53h-2l-23 21q0 2 -2 2
l-18 22v3l-27 36q-2 0 -2 5l-4 8q0 1 -1 2t-1 2q-14 32 -24 65l-7 9l-4 22v2q-4 29 -4 84q0 91 25 158q8 19 37 65l2 6q10 17 16 23q51 51 111 82q39 19 75 24q57 5 88 5q19 0 23 -2q20 0 37 -7q1 0 4 -1t4 -1h6q19 -8 23 -8t6 -2q4 0 6 -2l4 -2q10 -3 14 -18l5 -2
q67 -46 116 -142q48 -91 54 -192v-9q0 -1 -3 -4l-8 -47q0 -8 -6 -32q0 -5 -2 -5v-4l-18 -45q-22 -46 -58 -94q-32 -32 -39 -37q-36 -31 -82 -53q97 -34 146 -86q69 -78 92 -227l2 -11l2 -2v-55q0 -37 -4 -49q-2 -20 -10 -55q-13 -60 -37 -119q-10 -31 -27 -56
q-52 -81 -88 -108q-52 -40 -121 -43zM344 70q71 -48 131 -54q6 0 18.5 -1t18.5 -1q50 0 82 19l16 18l35 45v2l2 2q10 13 15 25h2l2 6q23 51 30 74v2q1 4 2.5 7.5t2 5.5t1 3t0.5 2l5 8q0 1 8 37q4 24 4 29q8 74 8 100q0 24 -4 60l-6 30v5q0 6 -2 10q-2 2 -2 8l-11 37
q-14 41 -32 61v2q-3 6 -9.5 13.5t-7.5 9.5l-20 20q-72 57 -119 68q-41 9 -94 12h-2q-4 2 -12 2q-11 0 -17 -2l-12 -6l-2 -2q-78 -44 -115 -96q-49 -64 -76 -158q-8 -36 -8 -76q3 -111 35 -190l6 -12l3.5 -7l4.5 -9t4 -5l2 -2q37 -47 113 -102zM487 817q20 0 23 -12q9 0 18 6
q2 0 2 2q20 8 45 23l3 2l22 16l2 2v2q22 26 43 55l10 17l11 22l14 31q19 60 22 133v2q3 12 3 21q-3 0 -3 4v6q0 2 -1 6t-1 6v19q-2 4 -2 10q0 4 -2 4q-3 33 -16 59l-4 11q-4 12 -19 30q-50 66 -71 78q-31 18 -60 27l-20 6q-2 2 -4 2l-8 4q-2 0 -2 2h-11q-6 2 -12 2
q-9 0 -12 6q-67 -6 -111 -30q-51 -29 -92 -101q-16 -32 -23 -59q-12 -53 -12 -109q0 -21 4 -61l8 -37q26 -62 68.5 -117.5t79.5 -75.5q34 -17 59 -22v2h8q9 2 17 3.5t11 2t5 0.5v-2q2 2 8 2z" />
    <glyph glyph-name="nine" unicode="9" horiz-adv-x="952" 
d="M391 -37h-2q-13 0 -16 14l-8 43v7q5 30 22 69q0 6 4 10v3l4 8q0 2 1 4.5t1 3.5t1 2t1 2q0 2 4 6q5 5 5 10l2 2l2 7q0 4 4 12l2 4q179 380 223 498v2l4 8v4q-86 -59 -168 -59q-14 0 -22 2q-107 9 -219 104q-54 45 -82 105q-37 73 -52 165q-15 99 -6 166v2l13 37
q6 23 14 39q69 142 156 189q71 38 161 38q48 0 82 -12q100 -35 191 -129q29 -25 41 -49q37 -57 53 -102q8 -27 8 -35q0 -9 6 -27v-2l2 -12q4 -50 4 -72q0 -27 -4 -67q0 -13 -2 -17q0 -2 -1 -6t-1 -6v-6l-2 -4l-2 -2q-5 -35 -27 -97l-79 -207l-7 -18l-8 -22v-5l-12 -28v-4
l-23 -52l-22 -51q-14 -25 -25 -51l-20 -41l-19 -41l-51 -100l-35 -68l-41 -88l-2 -2l-12 -29q-4 -8 -12 -16l-4 -8l-8 -21q-3 -10 -17 -10zM326 745q52 -35 79 -47t66 -18q3 0 10 -1t11 -1q73 0 153 96l4 4l2 2q4 0 4 4l2 2q0 6 7 9q0 2 2 4q4 4 4 8l6 10l4 4v2l20 35l5 8
q0 2 2 2l2 6l10 11q18 69 20 110q3 44 0 72q-15 107 -63 178q-57 84 -129 127q-67 39 -141 39q-5 0 -15 -1t-14 -1q-14 -3 -31 -12l-2 -2q-20 -6 -29 -15h-2l-45 -43v-2l-14 -14q-24 -35 -55 -102v-9l-13 -28q-6 -86 9.5 -179t44.5 -149q19 -34 59 -80h2l4 -6q13 -6 21 -23z
" />
    <glyph glyph-name="colon" unicode=":" horiz-adv-x="491" 
d="M268 6h-20q-2 0 -10 4q-2 0 -2 2q-7 0 -9 2h-4l-12 6q-6 6 -6 9l-2 2q-24 24 -27 45v6l2 16q0 9 6 15l2 2q10 14 23 24l14 11h2l21 12q4 4 10 4h6l4 6q8 8 15 8h14q1 0 3 -1t3 -1q4 0 6 -2q22 -5 39 -24t23 -46v-8l-2 -12v-8q0 -3 -5 -8v-4q-2 -2 -2 -7l-2 -2
q-8 -16 -18 -22q-4 -8 -10 -10q-7 -7 -25 -13h-2q-18 -6 -35 -6zM260 866h-14q-17 0 -25 4h-2q-8 0 -12 4q-5 0 -14 9l-5 4q-6 0 -6 6l-2 4q-17 26 -6 53q6 12 10 15q0 1 1 2t1 2l9 6l12 8l8 6h2l14 8l2 2q4 2 25 9q6 6 12 6h13l2 2q10 0 18 -12v-5l2 -2l4 -4l4 -4
q6 -6 6 -8q28 -35 13 -82q0 -6 -6 -12q-11 -9 -37 -17q-2 -2 -6 -2h-4q-8 -2 -19 -2zM262 82l4 -4v-2q2 -3 4 -5t3.5 -3t2.5 -2v2l3 4v4q0 6 2 10q4 7 0 18v15l-11 -10v-3q-8 -5 -8 -10q-2 -2 -2 -4q2 -4 2 -10z" />
    <glyph glyph-name="semicolon" unicode=";" horiz-adv-x="491" 
d="M121 -313q-2 0 -5 1t-5 1q-7 7 -9 12q0 4 -6 10q0 2 -1 5t-1 5q0 9 4 17l4 4q0 2 2 4q0 1 5 6q1 6 22 53l6 15q0 12 8 20q2 4 2 6q0 4 3 7l8 22q0 4 4 12q0 1 0.5 3.5t2 11l3.5 20.5l2 4l6 33q4 26 8 37v10q0 4 2 8l2 4v9q0 5 5 10v10q0 4 2 6v4l12 60q0 2 4 14
q-3 6 0 12q0 2 2 4l8 33q2 0 2 2l2 6v2l4 11l9 18q0 13 12 17q2 0 2 2h2q2 4 12 4h4l4 -2h2q10 0 17 -11q0 -2 2 -2q4 -8 4 -10l8 -16v-6q0 -6 -6 -33q0 -9 -4 -25q-4 -12 -4 -14v-6l-4 -17q0 -9 -8 -45q0 -6 -2 -8v-14l-17 -80q0 -3 -0.5 -5.5l-1.5 -7.5l-2 -10l-6 -16v-12
l-4 -19v-2l-4 -6q0 -8 -2 -10l-6 -17q0 -4 -3 -4v-4l-6 -16q0 -1 -1 -2t-1 -2l-8 -17l-6 -12q0 -6 -6 -18l-4 -4q0 -5 -2 -5l-9 -14v-4q-1 0 -2 -3q-1 -2 -2 -3q0 -1 -1 -3t-1 -3q-8 -12 -22 -27l-2 -2q-6 -6 -10 -6q-3 -6 -9 -6q-4 -4 -10 -4h-4q-2 -2 -6 -2zM268 868
q-6 0 -22 4h-4q-3 0 -13 5l-4 4q-7 0 -10 6h-2l-10 8v2l-2 2l-4 4q-19 34 -19 49q0 7 6 19q4 11 13 14q11 8 32 12q2 2 4 2q2 2 11 2q3 3 8 3q0 7 6 10l12 12q2 4 13 4h14v-2q8 0 10 -4q42 -12 51 -61v-17l-2 -2v-8q0 -6 -2 -8l-6 -13q-3 -11 -16 -24l-13 -10l-20 -9h-6v-2
q-10 -2 -25 -2zM268 944q0 -1 1 -2t1 -2v2q2 4 2 10q-2 -2 -6 -2v-4z" />
    <glyph glyph-name="less" unicode="&#x3c;" horiz-adv-x="1312" 
d="M1135 92q-7 0 -25 6l-29 11q-6 0 -10 4q-6 0 -14 4l-4 2h-2l-11 4l-6 4l-133 63q-133 65 -184 86l-6 3h-2q-51 19 -72 32l-12 6l-29 17l-88 63l-43 35q-58 46 -103 74l-4 2q-3 3 -36 22q-65 29 -80 58q-14 21 -9 39q5 20 28 41t81 51q1 0 3 1t3 1q4 2 10 6h2l9 4q4 4 6 4
l14 6l6 4l4 3l4 2q4 4 7 4q19 7 59 28l20 11l68 32l203 99q57 25 84 41l4 4l8 4q3 2 21 8l4 2l2 2l147 74l57 33l31 18l17 10l2 2l2 2q9 9 14 9h6q3 0 6 -3l6 -2q3 0 7 -4l2 -2q8 -8 8 -14q0 -1 -1 -3t-1 -3q0 -6 -6 -12v-3q-20 -19 -27 -24q-65 -42 -104 -59l-283 -142
l-117 -59l-112 -51l-19 -13h-2l-20 -10v-2q-74 -33 -76 -33q-94 -40 -119 -65l41 -25l37 -24h2l20 -15l5 -2h2l38 -24l17 -13l16 -14q2 -1 6 -4.5t7 -5.5l6 -2l24.5 -18.5t30.5 -24.5l12 -11h2l13 -10l2 -2q5 -3 8 -8l47 -33q54 -39 115 -59l14 -6q4 -4 10 -4q2 0 4 -2
l21 -9h2l33 -14l67 -31q2 0 2 -2q15 -10 23 -10l28 -14q8 -3 22 -11.5t21 -11.5l23 -12l43 -23l57 -28l19 -9l5 -3q4 -3 5 -5l20 -10q11 -5 11 -20q-3 -13 -19 -13q-3 0 -8 -1t-8 -1q-4 -2 -12 -2z" />
    <glyph glyph-name="equal" unicode="=" horiz-adv-x="1333" 
d="M618 739q-3 0 -7.5 1t-6.5 1t-7.5 -1t-8.5 -1h-170q-2 0 -12 1t-17 1h-22l-66 4l-35 3q-2 0 -2 2q-8 1 -20 3.5t-15 2.5q-4 2 -8 2h-6q-2 0 -4.5 1t-3.5 1h-4q-1 1 -7.5 2.5t-9.5 3.5q-8 4 -10 8l-2 4q-3 10 0 19q6 6 12 6q8 4 17 4h16q10 4 23 4q4 0 16 -1t18 -1
q12 -2 31 -2q34 0 80 -4h254q7 1 15.5 1.5t13.5 1t8 1.5h86q0 2 4 2h29q2 2 4 2q3 0 7 -1t5 -1h2q1 0 3.5 1t4.5 1h41q13 8 39 8q45 0 68 2h76q2 2 4 2h12q3 0 8.5 1t7.5 1h60q27 0 35 -2h6q2 0 10 -4h6q8 0 12 -8q6 -6 4 -14q-4 -22 -22 -29q-12 -4 -21 -4h-30
q-13 0 -172 -6h-21q0 -2 -4 -2h-39q-8 0 -24 -4q-20 -4 -25 -4h-66q-6 0 -13.5 -1.5t-8.5 -1.5h-31q-12 -2 -26 -2q-1 0 -3.5 -1t-3.5 -1h-77q-1 0 -3.5 -1t-3.5 -1zM696 389q-30 0 -69 2h-54q-16 0 -28 2q-1 0 -3 -1t-3 -1q-2 0 -4 2h-9q-6 0 -28 1t-35 1q-18 2 -43 2
q-4 0 -4 2q-3 0 -16 1t-15 1h-14q-4 0 -6 2q-25 7 -60 11q-20 4 -24 4h-9q-2 0 -2 2q-37 6 -41 6q-1 0 -3 1t-3 1q-2 0 -6 1t-6 1l-8 6l-6 6q-11 4 -11 11l-2 6q-4 11 2 16q3 6 11 6q4 4 14 4h6l31 2h4l63 -8q0 -2 2 -2q54 -12 74 -12l4 -2q11 0 15 -2h18q14 -2 37 -2
q25 -2 55 -2h21q72 -2 137 -2h84q8 2 33 2q3 0 7 -1t5 -1t3.5 1t4.5 1h47q1 0 2 -1t2 -1q8 2 27 2q45 0 68 2h73q2 2 4 2h19q1 0 3.5 1t4.5 1h59q14 -2 29 -2h10q5 0 13 -4q2 0 10 -4q10 -3 10 -17q0 -13 -12 -16v-2q-4 -15 -17 -15h-14q-2 0 -5.5 -1t-4.5 -1h-8
q-2 0 -5.5 -1t-5.5 -1q-1 0 -4 1t-4 1q-30 -3 -160 -6h-24q-3 0 -9.5 -1t-9.5 -1h-127q-7 0 -16 -1t-10 -1h-62z" />
    <glyph glyph-name="greater" unicode="&#x3e;" horiz-adv-x="1351" 
d="M201 119q-10 0 -15 8q-5 11 0 16l11 21q0 4 2 4q13 15 43 33l4 2l2 2l8 6q2 0 2 2l10 6q2 0 4 2l4 4q146 89 359 201l6 4q2 2 4 2l47 23l45 22l43 19l109 47q14 7 53 20l125 43h2l53 10l19 5l-56 28h-2q-6 4 -22 8q-25 7 -37 17q-29 10 -29 12l-14 4l-10 6h-4l-70 35
q-4 0 -4 2l-21 10h-2q-131 82 -213 125l-73 31l-4 2l-13 6q-1 0 -3 1t-3 1h-6q-89 38 -137 62q-40 16 -74 33q-42 19 -90 47l-6 4l-4 2q-9 5 -11 8q-1 1 -3 2l-3 1.5t-2 0.5l-6 4l-20 14q-1 1 -3.5 4t-4.5 7t-1 8l-2 8q-3 6 5 14q3 7 12 7h2q8 0 10 -2q3 -3 4 -3q2 0 10 -4
q9 0 15 -6l2 -2q1 0 3 -1t3 -1l31 -14q6 -2 32 -15q83 -41 134 -61l67 -29q73 -33 100 -43l82 -34q105 -50 187 -105l10 -6q22 -13 29 -16h2q27 -15 96 -35q81 -25 127 -47q56 -26 72 -58q8 -10 4 -28q-6 -22 -37 -37q-39 -20 -84 -31h-2q-2 0 -14 -4l-15 -6h-2l-35 -10
l-22 -9l-35 -12l-6 -2l-80 -31l-18 -8l-5 -2q-2 -2 -8 -2l-61 -29q-12 -6 -69.5 -32.5t-86.5 -42.5l-12 -7q-17 -10 -21 -10q-4 -4 -12 -8l-10 -6l-4 -2q-6 0 -35 -19q-16 -8 -18 -10l-56 -31l-12 -6l-18 -10q-15 -14 -31 -20l-70 -41l-41 -25q-48 -30 -55 -31q0 -2 -2 -2
q-8 -8 -17 -10h-6l-6 -4q-2 0 -4 -2q-6 -4 -16 -4z" />
    <glyph glyph-name="question" unicode="?" horiz-adv-x="792" 
d="M350 375q-4 0 -8 4l-31 18q-2 0 -6 4q-14 19 -20 58q0 1 -1 2t-1 2v4q-2 2 -2 8v6q-5 8 -5 21q-3 130 84 276l2 4v2q11 17 33 43l23 31h2l47 60l22 30q40 68 48 84q20 48 28 90q11 68 8 117q0 14 -2 18q-2 2 -2 9q0 3 -1 7.5t-1 6.5v10l-6 17l-4 8v4q0 2 -2 2v6l-16 27
q-2 0 -2 2l-5 2l-8 10q-71 41 -151 41h-8q-23 0 -54 -8q-2 -2 -6 -2q-2 0 -6 -1t-6 -1q0 -2 -4 -2q-58 -25 -80 -47v-2q-3 -2 -29 -37v-2l-33 -64l-6 -8q-1 -1 -2.5 -4t-3.5 -4l-2 -2q0 -1 -1 -3t-1 -3h-2q0 -3 -2 -5l-6 -10q-3 -7 -6 -8q-8 -8 -17 -8q-2 0 -2 2l-10 2
q-6 0 -10 5t-4 11q0 7 2 13v2q-3 6 4 16v4q12 54 16 60q34 63 78 98t131 55q47 12 74 12h16q79 0 156 -30q2 0 2 -2l33 -21q1 0 2 -1t2 -1q36 -39 59 -131q19 -88 10 -141q-6 -44 -41 -119l-6 -21l-8 -14q-9 -18 -27 -45l-14 -18q-2 -2 -2 -4l-2 -2q0 -3 -2 -3l-39 -49
l-8 -10v-2q-1 -3 -4.5 -7l-7 -8t-9.5 -11.5l-12 -14.5q-33 -39 -59 -82q-7 -14 -13 -20q0 -1 -1 -4.5t-1 -4.5l-6 -12q-6 -6 -6 -10v-2l-16 -47q-6 -20 -6 -29v-6l-2 -38t-2 -30t-1 -16v-6q0 -22 5 -47v-6l4 -19v-4q0 -8 -4 -16l2 -19q0 -10 -9 -16q-4 -4 -10 -4zM362 -4
q-4 0 -12.5 1t-13.5 1h-6q-9 0 -15 6q-4 0 -12 4q-2 0 -6 4l-8 8q-9 3 -13 11l-2 6v2q-9 43 2 74l5 6l12 14l2 2l6 4l4 2q19 9 29 11q16 4 18 4h4q4 4 11 4v2q16 8 18 8q6 0 21 -6h2l4 -2h2l6 -4q4 0 4 -2q2 0 4 -2q24 -15 38.5 -40.5t10.5 -54.5q0 -8 -12 -20l-6 -6
q0 -2 -2 -2l-6 -4q-17 -12 -23 -13l-8 -4h-2l-25 -8q-15 -6 -31 -6zM358 63v-6h2l2 -2h11l2 2q4 0 6 2h2l4 2h2q0 2 4 2l2 5l2 2q-2 2 -2 8q-2 2 -2 4l-10 18l-6 4q-4 0 -8 -2q-5 0 -10 -1l-5 -1q2 -4 2 -10v-18q2 -2 2 -9z" />
    <glyph glyph-name="at" unicode="@" horiz-adv-x="1398" 
d="M694 -51q-54 0 -106 12q-170 36 -363 223l-12 13q0 2 -2 2q-34 44 -61 94q-31 50 -46 86q-23 61 -34 117q-19 108 -19 198q0 52 6 105q1 8 3.5 21l6.5 34.5t7 40.5q2 7 5.5 22t4.5 21l25 111v2q47 142 88 202v2q102 138 272 209q124 45 260 45q49 0 98 -6q32 -3 74 -16
q42 -14 68 -29q60 -28 94 -55l33 -25q76 -80 135 -186l8 -8l27 -72v-2q30 -123 30 -223q0 -74 -14 -129q-45 -174 -149 -293q-43 -51 -123 -98h-2l-13 -7q-28 -14 -41 -14q-78 0 -117 28.5t-59 100.5q-6 18 -6 47q-4 -4 -8 -12q-34 -55 -64 -88q-20 -26 -45 -35
q-53 -27 -100 -27q-3 0 -9.5 1t-10.5 1q-64 9 -107 52v2q-39 42 -66 125q-3 8 -8 32v5q0 12 -2 24v2q-4 36 -4 39v25q0 23 4 73v13l6 22q48 161 109 236q10 12 59 51q0 2 2 2l7 4h2l20 10v2q89 32 148 35q49 0 90 -12q21 -7 49 -27t39 -33l4 -2l6 19q0 2 2 2q2 6 8 12l6 21
q3 8 15 12h2q8 0 12 -4q8 0 14 -6t6 -25q5 -10 5 -12q3 -18 -2.5 -38.5t-10.5 -27.5l-2 -6v-4l-6 -35q-23 -103 -29 -125q-62 -216 -47 -348v-2q6 -58 37 -74q8 -4 19 -4q27 0 67 29h2q66 42 107 111q64 115 86 241q18 105 18 178q0 28 -4 68q-8 40 -16 63q-12 36 -27 62
q-110 196 -227 256q-104 49 -228 49q-64 0 -114 -16q-167 -49 -289 -174q-15 -12 -41 -58q-2 -2 -3.5 -5.5t-2.5 -4.5q-31 -66 -51 -141q-17 -56 -19 -70q-1 -2 -2 -5l-1.5 -4.5t-0.5 -2.5l-2 -17v-2q-27 -137 -33 -211v-2q-4 -23 -4 -57q0 -6 -2 -8q17 -143 23 -162
q50 -176 151 -305q10 -12 43 -45l37 -33q39 -31 64 -45q67 -42 137 -61q46 -14 57 -15h2q20 -4 45 -4h13q72 4 140 22t97 40h2q56 32 113 92l37 37q9 12 16 14l4 6v2q4 2 8 10q4 4 4 7q0 2 2 2q13 17 17 24q2 2 3.5 5.5t2.5 4.5q8 4 12 4q9 0 11 -2q12 -8 8 -20l-25 -70
l-2 -4q-26 -41 -92 -104l-2 -2l-23 -17l-6 -6l-26 -16q-30 -22 -33 -23q-151 -63 -281 -63zM532 426l19 -4h14q23 0 43 8l2 2q1 0 2 1t2 1h2l37 41q10 16 15 19l16 30l12 25q36 73 56 143v2l4 8l6 17q0 3 2.5 10l3.5 10q10 25 10 33v4l4 8l17 52l6 22q0 11 12 31l27 53v2
l8 17q4 4 4 6l-6 10v2q-1 0 -2 1t-2 1q-6 10 -25 29l-12 10q-42 39 -102 39h-11q-70 0 -137 -49q-22 -17 -45 -54q-47 -77 -68 -176l-4 -20q-2 -8 -2 -19v-2q-2 -68 9 -141.5t28 -108.5t55 -63z" />
    <glyph glyph-name="A" unicode="A" horiz-adv-x="962" 
d="M72 -2h-13q-4 0 -12 4l-2 2q-6 6 -6 14q-2 2 -2 9v10q0 8 -2 12q-3 38 0 55q7 53 43 211l72 322l6 31q19 87 28 118q29 132 64 267l4 14q0 2 2 2v6l20 119q45 260 109 285q8 4 23 4q46 0 83 -72q32 -59 39 -104v-4q0 -4 13 -33v-2l2 -2l2 -6q10 -34 24 -95q4 -20 4 -22
l9 -27v-2l2 -4l4 -23l6 -24q8 -41 18 -68v-6q0 -6 2 -8q0 -2 1 -6t1 -6v-2q2 -2 2 -11q13 -46 17 -67l4 -19q14 -72 47 -202l10 -41v-2q0 -13 19 -76l24 -100l13 -41v-2l8 -29q4 -8 4 -10q3 -8 45 -170l22 -88l9 -29q4 -15 -2 -23l2 -8v-12q10 -13 0 -23q-6 -6 -15 -6
q-6 0 -10 2l-37 29q0 2 -2 2q-10 15 -28 68q0 3 -3 6l-4 10v2l-2 6q-4 8 -4 17q-4 4 -4 10q0 4 -4 12q-2 2 -2 4q-58 207 -70 256h-84q-2 -2 -6 -2h-2q-2 0 -7 -1t-7 -1q-3 0 -7.5 1t-6.5 1q-5 0 -7 2h-71q-2 0 -12 -1t-17 -1h-98q-29 0 -58 -2h-16q-2 -2 -8 -2h-60
l-32 -143l-15 -62l-12 -57l-25 -111v-4q0 -6 -2 -8q0 -1 -1 -3t-1 -3q0 -4 -2 -6l-2 -4v-2h-2l-2 -7q0 -9 -6 -12q-6 -6 -14 -6zM215 549v-4l-16 -66q4 2 8 2q23 2 49 2q10 0 12 2h4l47 2h17q35 0 76 2q21 0 39 -2h2q2 2 6 2h61q2 0 7.5 -1t7.5 -1h83q2 2 11 2h10l-45 181v2
l-2 10l-6 27q-3 9 -8 34l-3 9q-14 51 -24 102l-33 141v4q0 2 -1 6.5t-2.5 10.5l-2.5 10q-2 6 -3.5 14t-2.5 16t-2 11l-49 180q-10 25 -19 68l-18 69q-12 -26 -21 -65l-2 -10q-1 -1 -8 -39q0 -2 -1 -6.5t-1 -6.5q-1 -13 -12 -55l-11 -47q-4 -20 -4 -25v-2l-4 -12l-2 -4v-4
q-12 -38 -14 -45q-4 -8 -4 -10v-2l-2 -9q-18 -64 -58 -235q-2 -10 -7 -32.5t-7 -35.5l-12 -49l-21 -86l-2 -16l-6 -27q-4 -8 -4 -12z" />
    <glyph glyph-name="B" unicode="B" horiz-adv-x="983" 
d="M340 10h-12q-51 0 -86.5 11.5t-52 30.5t-23 36.5t-6.5 36.5q0 24 2 49q0 7 4 23q0 3 1 11t1 9v2q2 12 2 55v21l4 102v2l2 31q21 278 23 332q3 66 0 100v41l-15 193q-8 81 -8 106q-6 99 -2 137v29q0 23 4 29q1 4 1.5 8.5t1 7t1.5 4.5q0 8 2 10v3q0 4 2 8q6 14 29 14h2
q3 6 12 6q8 2 25 2q6 0 8 2h35q20 2 61 2q112 0 193 -16h10q18 -8 51 -16h4l29 -15q40 -19 66 -45l18 -16l10 -10v-3q37 -46 52 -86q17 -44 20 -100q3 -53 -8 -113l-6 -26q0 -11 -9 -23q-2 -4 -8 -22q-4 -8 -4 -10q0 -5 -2 -7l-22 -41q0 -6 -2 -8l-11 -14l-2 -2
q-71 -83 -125 -115q-1 0 -3 -1t-3 -1t-3.5 -1t-7.5 -3.5t-9 -3.5q-21 -7 -23 -8l-2 -2q-4 0 -8 -4q72 -12 121 -33q122 -55 182 -217v-4l2 -13q6 -38 6 -69q0 -49 -10 -97q-5 -39 -16 -81q-38 -91 -76 -134q-17 -17 -53 -41h-2q-70 -36 -164 -45l-111 -6q-80 0 -92 -2z
M268 61q55 -8 80 -8q14 1 49.5 6.5t44.5 6.5q38 6 56 6h2q17 0 49 4q52 8 76 16l34 14l7 3q18 13 51 55l4 4l3.5 7t2.5 7h2l6 21l10 24l11 33q16 85 16 152q0 34 -8 92q-4 20 -10 35l-13 24q-16 27 -22 33q-27 34 -64 55l-32 17l-9 4q-20 8 -24 8h-2q-105 26 -160 29
q-39 0 -86 2h-29l-6 2h-24l-11 -138l-3.5 -67l-2 -39t-0.5 -12v-2l-4 -62q0 -43 -2 -82q0 -8 -1 -24t-1 -23q0 -33 -2 -47q-3 -121 12 -156zM287 854v-98q4 2 8 2q4 2 10 2l27 4h4q1 0 6 1l12.5 2.5l12.5 2.5q20 4 24 4h2q59 6 76 12q25 7 78 27q26 11 41 23h2q46 34 78 86
v2l8 10l6 10q41 106 41 182q0 33 -10 88v3q-2 4 -6 14l-17 37q-2 2 -2 4v2l-4 8q-4 4 -4 6l-29 37l-6 6l-4 4q-2 1 -12 11l-15 10h-2q-45 27 -82 35l-20 4q-2 0 -4 2h-10q-3 1 -10 2t-9 2h-6l-47 6h-168q-4 0 -6 2h-14q2 0 2 -4l2 -10v-13q0 -2 4 -18l10 -74v-2
q4 -72 16 -194q12 -96 17 -240z" />
    <glyph glyph-name="C" unicode="C" horiz-adv-x="983" 
d="M662 -12q-58 0 -140 16q-66 15 -110 41q-59 35 -121 92.5t-96 106.5q-6 6 -19 32l-16 33q0 2 -2 2q-55 202 -70 383q-4 29 -4 94q0 72 4 111q0 25 2 39v12q6 57 14 88l13 37q2 2 2 6l2 9l2 4q23 51 45 88q2 10 16 24v2q0 4 4 4q7 14 52 70q90 90 153 135l35 21l10 6
q13 9 17 10q21 12 45 19q60 22 88 26h2l35 4q18 2 37 2h2q96 -12 147 -57q37 -27 63 -78q3 -3 3 -4t1.5 -3.5t4 -7.5l4.5 -9l4 -7q2 -2 2 -4q3 -13 0 -20l10 -35q7 -14 -2 -23q-6 -6 -12 -6q-4 0 -12 4l-9 7q-27 23 -32 30q-5 6 -27 39l-12 23q-4 4 -4 6q-1 0 -5 4
q-2 2 -2 4q-4 0 -4 4l-4 4q0 1 -1 2t-1 2q-10 10 -12 11q0 2 -2 2q-66 51 -137 51q-21 0 -31 -2q-65 -9 -180 -88l-8 -6q-31 -27 -60 -56l-16 -16l-37 -43q-45 -58 -68 -103l-20 -49q-24 -87 -29 -151q-2 -33 -2 -113v-59q8 -90 21 -191l4 -16q2 -8 2 -21q6 -18 6 -34
l10 -52q2 -8 2 -18l25 -88l10 -25q36 -62 96 -124t113 -95q32 -17 86 -33l8 -2q1 0 3.5 -1t4.5 -1q1 -1 7 -3t8 -3h2q46 -6 84 -6q39 0 69 6q35 7 60 29q17 12 53 67l4 9q2 2 2 8q2 2 2 6t6 10l4 15q0 6 2 8q0 6 2 8l2 4q6 14 29 14q4 0 12 -4l5 -10v-2q4 -8 4 -25v-6
q0 -10 -2 -16q0 -1 -1 -3t-1 -3q-12 -63 -33 -84q-64 -64 -148 -82q-35 -6 -75 -6z" />
    <glyph glyph-name="D" unicode="D" horiz-adv-x="1097" 
d="M236 -12q-31 0 -37 4q-36 14 -46 45t-6 86q0 2 -1 4.5t-1 3.5l2 31l13 418q0 2 2 2q0 18 2 32v35q2 33 2 62v12q0 13 4 29v10q6 80 6 135q4 61 4 111q0 3 1 46t1 83v231q0 23 2 29v22l2 4q6 18 23 25h6q8 0 10 -2l4 -4l31 8h4q6 0 12 2q4 0 32 1t52 1h37q7 0 11 -2
q2 2 8 2q23 0 33 -2q176 -20 290 -111q103 -83 183 -284l6 -10v-5q18 -58 35 -151v-12q4 -54 4 -74q0 -94 -15 -201q-9 -47 -24 -98q-38 -137 -97 -232q-70 -113 -159 -176q-107 -71 -242 -96h-2l-53 -6h-43q0 -2 -4 -2l-35 -2.5l-36 -2.5t-21 -1zM236 121v-72q88 0 155 6
q121 12 187 58q97 67 165 161q15 19 29 54q33 67 47 102v2q19 52 19 57l2 3l4 12q18 93 24 143h2q0 5 2 20t2 17q0 1 1.5 4t1.5 4v49q2 19 2 60l-2 2q-6 126 -46 252q-6 21 -18 45l-16 33l-27 51q-36 53 -72 92l-32 29l-39 26q-107 58 -185 64l-123 6h-40l-13 2h-2
q-18 0 -24 2v-6q2 -3 6 -23q0 -2 1 -6.5t1 -5.5q18 -108 18 -123q0 -18 1 -58t1 -61q0 -20 -1 -64t-1 -67q0 -49 -12 -301v-2q-3 -14 -6 -141q-10 -277 -10 -348v-39q0 -29 -2 -39z" />
    <glyph glyph-name="E" unicode="E" horiz-adv-x="886" 
d="M420 -27q-110 0 -197 33q-10 3 -10 12l-2 11q-2 2 -2 4q0 5 4 51v18q2 20 2 45v43q0 14 1 54t1 65v121l-4 92q0 53 -2 84q0 16 -1 40.5t-1 29.5q-1 40 -2.5 81t-2.5 63.5t-1 23.5v16q0 3 -1 9t-1 8v28q0 1 -1 3t-1 3v43q-2 4 -2 9v16l-2 78q-5 5 -5 8v25q-3 92 -18 264
q-5 36 5 71.5t32 44.5q1 0 3 1.5t3 1.5h2q3 0 7.5 1t6.5 1q67 6 166 6q76 0 115 -2q114 -6 129 -6q1 0 4 -3h10q5 0 11 -1l6 -1h6q8 -2 14 -2q13 0 17 -12l2 -6q7 -15 -9 -23l-4 -2q-1 0 -4 -1t-4 -1t-4 -1t-4 -1h-12q-41 -2 -74 -2q-159 6 -211 6q-117 0 -135 -6q0 -2 1 -7
t1 -7q10 -45 10 -62l10 -127l3.5 -55t2.5 -31t1 -10v-14q0 -2 1 -6t1 -6v-17q2 -4 2 -8q4 -49 12 -285h74q1 0 9 -1t13 -1h62q11 0 22 -1t12 -1q3 0 12 -1t15 -1q1 0 4 1t4 1h19q14 -2 24 -2h4q2 0 4 -2q4 2 11 2q2 0 4 -2h67q1 0 4.5 1t4.5 1q14 0 28 -2l2 -2h13
q11 -3 16 -8q2 0 4 -2l6 -6q2 -3 1.5 -8.5t-3.5 -8.5l-6 -10q-3 -10 -14 -10q-1 0 -4.5 -1t-4.5 -1h-10q-14 -2 -80 -2h-28q-2 0 -4 2h-31q-4 0 -6 2h-86q-9 0 -13 2h-30q-2 0 -4 2h-68q-19 0 -33 2q-1 0 -4.5 1t-5.5 1q2 -25 2 -170v-14q0 -3 1 -10.5t1 -10.5q0 -1 1 -3
t1 -3q2 -23 2 -80q0 -6 -1 -13t-1 -9v-25q2 -2 2 -4v-115q0 -1 -1 -4t-1 -4q3 -27 0 -74q0 -106 -6 -153q4 0 6 -2q14 -4 31 -4h2q40 -4 55 -4q3 0 8.5 -0.5t9.5 -0.5t7 1l37 2l37 4v2q49 5 159 20q15 4 60 10q10 0 16 3h31q1 0 4 -1.5t4 -1.5h18q6 0 11.5 -4t5.5 -10
q3 -13 -8 -20q-22 -11 -27 -11q-24 -8 -43 -8l-10 -2h-2l-9 -2q-2 -2 -4 -2h-12q-8 -4 -12 -4h-6q-4 0 -7 -1t-4 -1q-137 -25 -237 -25z" />
    <glyph glyph-name="F" unicode="F" horiz-adv-x="780" 
d="M217 -6q-4 0 -12 4l-8 8l-4 2q-14 14 -17 21q-6 14 -6 39v10q-2 2 -2 6v22q-2 4 -2 13q0 4 2 6v2q-3 92 12 330v6q0 12 2 20v21q0 1 1 4t1 4q2 4 2 25q-4 23 2 43q2 12 2 43q3 21 3 47q0 1 1 3t1 3q0 4 1 20t1 21v6h-4q-11 5 -11 6l-2 2q-6 6 -6 12q0 9 8 17l6 6l9 4v68
l-7 120q-4 89 -10 121v2q0 2 -1 6.5t-1 6.5l-2 4v2l-6 26q-4 10 -12 43q0 7 -4 19l-17 69q-4 8 -4 11l-2 24q-3 60 37 103q39 45 94 45h72q0 2 4 2h18q102 0 127 2h29l37 4h2q17 0 57 4q10 0 20 1t11 1h2l10 2q2 2 6 2h27q2 0 5 1t5 1h2q3 0 11 -4l6 -4q6 -3 6 -12
q3 -8 -4 -15q-3 -3 -6 -4.5t-6.5 -2t-4.5 -1.5h-4l-12 -6h-4q-6 0 -8 -2l-33.5 -7t-21.5 -3.5t-9 -1.5q-92 -9 -127 -11q-45 0 -78 -2q-48 0 -77 -2q-8 0 -34.5 -1t-41.5 -1h-4q-25 0 -31 -8q-9 -11 2 -43q0 -1 1 -3t1 -3v-16l6 -23q46 -182 58 -280l2 -47q2 -47 2 -93v-33
q4 -33 2 -53h2q4 0 11.5 1t10.5 1h129q3 0 15.5 -1t21.5 -1l2 -2q2 2 4 2h19q4 0 6 -2q0 2 4 2q1 0 3.5 -1t4.5 -1h37q8 -2 31 -2h20q4 0 6 -2h7q2 2 6 2h45q14 -2 26 -6q2 -2 4 -2q3 0 7 -4q8 -4 8 -14q0 -9 -6 -15q-6 -16 -27 -16h-2q-1 0 -4 -1t-4 -1h-123q-1 0 -3 1
t-3 1h-19q-1 0 -4.5 1t-5.5 1h-104q-9 0 -13 2h-116v-68q0 -3 -1 -7.5t-1 -6.5v-6q0 -1 -1 -3t-1 -3q0 -14 -3 -41v-17l-8 -131q0 -5 -1 -14.5t-1 -13.5v-19q0 -22 -6 -37v-63q0 -2 -1 -6t-1 -6v-31q0 -2 1 -6t1 -6q0 -14 -6 -113q-1 -11 -2 -24.5l-1.5 -20.5t-0.5 -10v-5
q0 -1 -1 -2t-1 -2l-4 -18q0 -10 -6 -16v-2q-2 -2 -2 -9t-7 -14q-3 -6 -12 -6z" />
    <glyph glyph-name="G" unicode="G" horiz-adv-x="1128" 
d="M705 -33h-29q-163 3 -230 37q-108 51 -180 166q-58 93 -102 262q-7 33 -10 60l-7 57q-6 71 -6 90v35q4 80 11 137q-2 2 -2 10l8 43q59 277 139 420q22 36 72 96l6 9q0 2 2 2q23 23 26 24q58 41 88.5 56.5t79.5 25.5q12 4 37 4q37 0 66 -10q26 -7 70 -31.5t63 -40.5l8 -6
l12 -10l7 -8l2 -4q6 -4 10 -7.5t6.5 -7t3.5 -4.5q0 -2 2 -4q25 -28 29 -39l8 -8l4 -6q6 -23 -6 -35q-6 -6 -12 -6q-10 0 -13 6l-12 12l-6 4q-12 12 -14 15q-1 1 -3 2t-2 2l-20 20q-71 55 -90 66q-76 45 -125 45q-4 0 -12 -1t-11 -1v-2q-75 -15 -159 -115q-40 -49 -60 -100
v-2q-71 -149 -106 -334l-6 -41v-12q-4 -24 -4 -29q-3 -131 14 -295q18 -159 57 -235q47 -106 135 -191q23 -23 41 -29h2q81 -32 156 -32h12q12 -2 35 -2q48 0 94 6q23 3 37 8q1 0 3 1t3 1q19 7 38 20.5t22 20.5q30 80 24 219q0 11 -4 47v8q0 13 -4 41l-1 13q-2 14 -3.5 31
t-1.5 26q-3 38 -6.5 67t-4.5 39t-1 13q-3 18 0 43v53q0 19 -3 30.5t-10 16t-13 5.5t-19 1q-2 0 -6.5 -1t-6.5 -1h-53q-45 0 -72 2h-40l-11 2l-2 2h-6q-2 -2 -8 -2q-5 0 -9 -1l-3 -1l-2 -2q-1 0 -4.5 -1t-4.5 -1q-10 0 -14 8q-10 11 2 23l8 6q34 16 41 18q14 2 94 2
q5 0 11 -1t8 -1q1 0 3 1t3 1h23q5 0 11 1.5t7 1.5q58 10 86 10q68 0 80 -39q15 -40 6 -121q-6 -55 -6 -90v-2l26 -275v-16q0 -53 -4 -84q-3 -41 -12 -68q-14 -43 -41 -67q-44 -34 -82 -48t-96 -20q-36 -4 -61 -4z" />
    <glyph glyph-name="H" unicode="H" horiz-adv-x="1138" 
d="M981 -16h-2q-22 4 -33 22q-18 25 -14 53q-2 2 -2 7v20q-4 58 -10 250v35q0 14 -2 22v137l-5 45q0 35 -2 43v5q0 19 -2 39v2l-4 77h-14q-19 0 -31 -2h-29q-8 -2 -22 -2l-4 -2h-12q-6 -2 -19 -2h-14q-10 -2 -33 -2h-8q-1 0 -4.5 -1t-5.5 -1q-3 0 -16 -1t-17 -1
q-6 -2 -10 -2l-45 -4l-50 -2h-8q-2 0 -6 -1t-6 -1h-6q-2 0 -4.5 -1t-3.5 -1h-37q-36 0 -54 -2q-8 0 -16.5 -1t-9.5 -1h-35q-15 0 -40.5 2t-29.5 2h-8q0 -21 -6 -68v-24q0 -30 -2 -50q0 -5 -1 -11t-1 -7q0 -2 -2 -4h2v-10q-1 -2 -1.5 -7t-1 -11.5t-1.5 -10.5q0 -17 -2 -25
q0 -6 -2 -12v-8q0 -3 -1 -14t-1 -17q-2 -2 -2 -10l-6 -102v-5l-1 -5q-2 -4 -2 -9v-4q6 -22 -4 -41q-2 -16 -2 -47v-20q0 -2 1 -7.5t1 -7.5v-6q0 -21 -2 -39q0 -29 -2 -47v-2q-1 -7 -1.5 -16t-1 -14.5t-1.5 -8.5v-10q-2 -2 -2 -8q0 -14 -10 -19v-6l-2 -6q-2 -7 -12 -12h-5
q-8 0 -14 6q-4 2 -6 4q-1 1 -5 3t-6 3.5t-5 5t-4 6.5v2q-1 2 -7 25v10q-2 2 -2 8v31q-3 82 9 252v4q0 10 1 25t1 22q4 28 4 41v2q0 3 1 10.5t1 10.5q4 36 4 49q0 12 2 18q0 3 1 10t1 9q0 18 6 92q0 54 4 94q1 16 1.5 36.5t1 32.5t1.5 19v33q0 14 2 18v45q2 14 2 41
q-2 2 -2 11l2 14q0 87 -8 158q0 5 -1 13t-1 11v19q-2 4 -2 8v18l-10 94q-8 40 -8 54q0 6 -4 26q-5 15 -5 21q-2 12 -2 14t-2 2v39q-3 6 0 16q7 17 29 17q8 0 12 -8q1 0 2 -1t2 -1q2 -2 2 -4l2 -5q7 -4 7 -6l2 -2q4 -8 4 -10q24 -42 24 -47l4 -12l8.5 -37t8.5 -47l12 -119v-2
q1 -15 2 -27t1 -17l1 -5q2 -4 2 -9v-6q1 -4 4 -133v-14q0 -1 1 -4.5t1 -5.5v-7q0 -34 -4 -186h29l6 -1q5 -1 10 -1h66q35 2 70 2h2q1 0 3.5 1t4.5 1h4q3 0 44.5 2t51.5 2q0 2 2 2h29q4 0 10.5 1t9.5 1h6q8 4 29 4h6q1 0 3.5 1t4.5 1h21q1 0 3 1.5t3 1.5h8q2 -3 4 -3
q6 3 17 3l49 4h10q3 0 10 1t13 1h18q16 4 27 4h20q0 2 -1 6t-1 6v43q0 8 -2 12v72q-2 2 -2 8v15q0 20 -2 43q0 12 -1 51t-1 69v18t-0.5 12.5t-1 7.5t-0.5 5v2v25q0 59 2 96v51q0 34 2 50v26q0 6 2 8q0 7 2 11l4 20q3 9 13 12l12 5q1 0 3 1t3 1q2 0 10 -4q6 -6 6 -13
q4 -4 4 -8q5 -5 5 -10v-2q0 -1 1 -2t1 -2l14 -47v-5q0 -17 1 -50t1 -46q2 -27 2 -117q0 -3 1 -15t1 -19v-21q0 -99 4 -135v-16q0 -1 1 -5t1 -6v-6q2 -12 2 -55q2 -16 2 -57q2 -16 2 -45q0 -37 2 -41v-105q0 -1 1 -5t1 -7q2 -2 2 -4v-8q3 -18 3 -48v-30q0 -11 2 -17v-100
q0 -65 2 -100v-17q5 -10 2 -33v-12q0 -33 2 -49v-2q0 -2 1 -8.5t1 -9.5q2 -8 2 -23v-70q-2 -4 -2 -18q0 -8 -1 -23t-1 -20v-6q-2 -2 -2 -8q0 -13 -11 -19v-6l-2 -6q-4 -12 -16 -12z" />
    <glyph glyph-name="I" unicode="I" horiz-adv-x="389" 
d="M236 -4h-3q-8 0 -12 4l-14 8l-10 8q-4 4 -4 9q-9 21 -9 41v2q-2 4 -2 14v14q-6 80 -8 246v49q-2 12 -2 41v72q0 10 2 16v19q-4 18 -4 90q0 14 -2 26q0 13 -1 35.5t-1 28.5q0 84 -2 98v84q0 31 -2 47v19q0 71 -2 159v50q-2 2 -2 6v16q0 59 2 96q0 14 0.5 26t1 18t0.5 8
q0 4 1 22t1 27v28l2 11v6l4 12v2q0 8 6 14q9 9 21 9q13 0 22 -15l6 -12q2 -2 2 -8q2 -4 2 -8l15 -43v-7q0 -41 2 -94v-172q2 -8 2 -65q0 -58 2 -68v-27q2 -2 2 -8q0 -59 2 -110q2 -33 2 -90v-99q1 -1 1.5 -3.5t1 -6.5t1.5 -6v-86q0 -1 1 -9t1 -12v-34q0 -7 -2 -15v-6
q3 -16 0 -41q0 -63 2 -98v-62q0 -31 2 -49v-2q0 -10 2 -14v-6q0 -1 1 -6t1 -7v-6q3 -23 0 -69l-2 -17q-2 -25 -2 -45v-4q-2 -4 -2 -12q0 -12 -10 -17v-2q0 -4 -2 -6l-2 -4q-3 -10 -12 -10z" />
    <glyph glyph-name="J" unicode="J" horiz-adv-x="686" 
d="M201 -68q-6 0 -17 1t-16 1h-2l-31 7h-2q-19 7 -37 16q-64 52 -82 121l-14 72q-3 9 0 18l-4 14q-4 11 4 19q4 4 12 4h4l25 -8q1 0 3 -1t3 -1q5 0 10 -5q23 -23 27 -51l2 -4q2 -2 2 -6q2 -2 2 -8q2 -2 2 -6h2l2 -4q2 -6 2 -13q37 -88 74 -100q13 -8 41 -8q43 0 111 24
q2 2 4 2l34 19l25 16l23 27q7 7 20 41v4q10 17 10 27q11 44 19 98l12 121l6 157v133q0 55 -2 84v27q0 52 -10 260v47q-2 12 -2 27l-2 6v23q-2 39 -2 118q-2 31 -2 54q0 2 2 4q0 2 1 18t1 23v41q0 2 2 4v4q0 8 2 12q0 6 4 10q1 3 2 6.5t1.5 5.5t0.5 3v2q0 6 6 12q10 10 23 10
q1 0 4.5 -1t5.5 -1q10 -3 10 -16h2q2 -8 2 -21v-14l4 -14q11 -39 11 -50v-2q0 -5 1 -24t1 -29v-39l6 -149q0 -4 1 -18t1 -23q2 -16 2 -41l4 -62v-61q2 -27 3.5 -51t2 -33t0.5 -12v-29q0 -3 1 -9t1 -9v-7q0 -24 1 -74.5t1 -76.5q0 -97 -6 -186q-3 -78 -14 -148v-4
q-2 -2 -2 -12v-13q0 -6 -2 -10q-4 -34 -11 -53q0 -8 -4 -16l-4 -11v-4l-2 -2l-16 -47q-4 -4 -4 -8q-2 0 -2 -4l-6 -6q0 -4 -5 -9q-9 -19 -28 -32q-55 -44 -129 -72l-15 -6l-14 -4l-2 -2q-2 0 -5.5 -1t-4.5 -1q-2 0 -6 -1t-6 -1q-21 -7 -37 -7q-7 0 -21 -1t-20 -1z" />
    <glyph glyph-name="K" unicode="K" horiz-adv-x="983" 
d="M844 -53q-17 0 -27 2h-2q-6 0 -8 2l-4 2q-2 0 -6 4q0 1 -1 2t-1 2q-4 4 -4 6l-41 60l-19 28q0 1 -1 2t-1 2l-10 15l-2 2q-4 8 -8 12q-10 10 -13 18q-27 33 -45 68q-12 10 -33 39q-11 16 -12 16l-2 2l-49 66v2l-61 86q-5 5 -5 6l-6 10q-4 0 -4 5q-4 8 -12 16q-4 8 -4 10
q-2 0 -2 2l-21 31q-5 3 -8 8l-6 10q-16 32 -37 62l-35 55q-3 3 -14 25l-6 8q0 2 -2 4v2q-4 4 -4 6v2l-4 4l-29 64l-12 30v3l-2 4h-2l-3 -2v-7q0 -8 -2 -18q0 -5 -1 -33.5t-1 -50.5v-6q0 -2 1 -6t1 -6v-7q3 -17 0 -47q0 -3 -1 -7.5t-1 -6.5v-14q0 -40 -2 -58v-14q0 -4 -2 -6
q1 -4 1 -10.5t-0.5 -15.5t-0.5 -15q-2 -33 -2 -98q0 -3 -1 -9.5t-1 -9.5v-45q-3 -26 0 -47v-23q0 -4 1 -10.5t1 -9.5q2 -10 -2 -66v-22q-4 -36 -4 -39v-6q0 -2 -2 -4v-8q0 -11 -8 -19q0 -1 -1 -3t-1 -3q0 -6 -4 -10q-3 -8 -15 -8q-4 0 -6 2l-10 4q-4 0 -4 2q-1 0 -2 1t-2 1
q-13 9 -17 18q-6 10 -6 29l-2 8q0 1 -1 3.5t-1 4.5v29q0 7 -1 45.5t-1.5 81.5t0.5 123v37q0 3 1 11t1 13v31q2 10 2 37q2 12 2 35q0 2 1 7.5t1 8.5v201q0 5 1 23.5t1 29.5v70q0 3 1 9t1 9v109q3 43 0 131q0 18 -2 28v50q0 1 -1 3.5t-1 4.5t1 7t1 7v2q-2 16 -2 94v27
q0 5 -1 13t-1 11v89q0 1 1 3.5t1 4.5q0 8 4 16q0 12 13 17h2q2 2 8 2h6q7 0 12 -5l4 -4q7 -7 7 -10l6 -10q0 -2 1 -4.5t1 -3.5v-2q10 -35 14 -39q4 -8 4 -11l6 -96v-61q0 -11 1 -30t1 -25v-29q0 -7 1 -17t1 -12v-74q0 -49 3 -61v-141l41.5 39l34 32t16.5 17v2l8 8
q21 21 24 29q4 4 5 4l26 28q4 8 15 19h2l32 45l9 8q25 33 30 37q0 2 8 10q4 6 15 20t14 19q0 2 2 4q4 3 6 5.5l3.5 4.5t2.5 3v2l11 16q0 2 4 6q2 0 6 4l22 31q13 15 60 82v2l14 20l6 11l4 4l35 47l13 18q11 23 26 41l6 8l15 15q6 6 16 6q4 0 12 -4l2 -2q11 -4 11 -15v-12
q0 -2 -1 -4.5t-1 -3.5v-2q-5 -30 -11 -39l-28 -47q-5 -9 -23 -31l-18 -31l-4 -4l-11 -14l-8 -12q-4 -4 -29 -39q-3 -4 -20 -29l-8 -12h-2q0 -4 -2 -6l-80 -103l-43 -49l-6 -6q0 -4 -2 -6q-5 -11 -19 -21q-1 -3 -8 -10l-4 -4q-6 -12 -25 -31l-2 -2q-3 -5 -8 -8l-14 -18
l-25 -29l-14 -16q-5 -5 -6 -5l-2 -4l-4 -6l-5 -4q-1 0 -3 -1t-3 -1q0 -1 -2.5 -3.5t-3.5 -4.5h-2l-8 -8l-16 -13l-3 -2q-14 -14 -18 -16l4 -4q4 -4 4 -8q10 -29 23 -49v-3q9 -23 20.5 -46l12.5 -25q2 -2 2 -4l20 -33h2q45 -79 57 -96q5 -5 9 -13t6 -8q2 -2 2 -4
q100 -143 102 -145l4 -4q4 -7 47 -72l15 -14q6 -5 16 -23l8 -10l9 -15v-2q8 -4 8 -10l10 -12l12 -21l6 -6q0 -1 1 -2t1 -2l13 -16l6 -8v-2l39 -54v-2l8 -10q8 -8 14 -18v-2l9 -17q4 -2 12 -10l4 -4q8 -9 18 -37q4 -10 4 -18v-3q0 -14 -12 -22q-8 -8 -16 -8z" />
    <glyph glyph-name="L" unicode="L" horiz-adv-x="778" 
d="M264 -29h-26q-16 3 -33 11l-2 2v2q-11 5 -13 16q-2 2 -2 6t-2 10v2l-6 50v18q-2 6 -2 16t-4 60l-4 47l-6 133v41q-1 16 -2 61.5t-2 67.5v21q-2 6 -2 18v55v29q0 1 -1 3.5t-1 4.5t1 6t1 6v5q-2 53 -2 94v28q0 207 -2 283q-2 18 -2 82v31q0 82 2 129q0 10 2 20v33l2 53v6
q0 1 1 4.5t1 4.5l4 8v4l6 8l2 2q4 4 12 4h2l4 2h7q6 0 10 -2l2 -2l8 -8q4 -4 4 -8q2 -2 2 -4q17 -27 17 -37q0 -46 2 -97q0 -42 -2 -79v-78l2 -2v-250q2 -35 2 -80h2v-55q0 -47 2 -88q0 -55 2 -88l6 -185v-92q0 -12 1 -33t1 -28v-13q4 -12 4 -18v-4q0 -17 2 -27v-28h2v-27
q0 -4 2 -6v-6q0 -1 1 -15t1 -28h2v-13l-2 -4l4 -16l2 -4q0 -1 -1 -3t-1 -3h21q12 -2 31 -2l77 6l35 2h2q2 0 9 1t12 1q6 2 16 2q73 6 111 6q23 0 33 -2q43 0 59 -4l16 -4q7 0 15 -8q6 0 8 -2q10 -3 10 -15q4 -15 -10 -18q-4 -4 -8 -4q-6 -6 -19 -6q-3 0 -10.5 1t-11.5 1
q-2 0 -7 1t-6 1h-6q-6 0 -8 2h-37q-326 -15 -342 -15z" />
    <glyph glyph-name="M" unicode="M" horiz-adv-x="1392" 
d="M1214 -23q-8 0 -14 9l-8 10q-11 14 -18 31q-3 2 -3 4q-4 27 -4 71v17q0 1 -1 4t-1 4v41q0 90 2 145l4 193q3 46 3 82q0 19 1 46.5t1 35.5l-2 8v4q0 2 1 13t1 16v30q-2 13 -2 76v39l-5 141v37q-1 5 -1.5 13t-1 13t-1.5 7v2q-6 95 -20 186l-2 33l-13 -41v-4
q-12 -42 -12 -59q0 -1 -1 -3t-1 -3l-6 -29l-8 -27q0 -6 -4 -14q-2 -2 -2 -4l-15 -60l-12 -38v-2l-10 -31l-111 -350l-20 -60q-11 -28 -15 -43q0 -2 -1 -4.5t-1 -3.5l-4 -12l-12 -33l-39 -109l-31 -86l-10 -30q-18 -56 -22 -64l-35 -100l-2 -2l-6 -29v-2q-3 -13 -13 -16
q0 -1 -1 -4.5t-1 -4.5q-6 -6 -6 -12q0 -8 -5.5 -13t-12.5 -5q-11 0 -15 8h-2q-14 4 -14 18v7q0 6 2 10q-2 2 -2 6v4q-2 16 -2 68v10q-2 6 -2 16v2q-2 6 -2 17v6q-60 214 -203 473l-4 10l-2 2l-31 58l-24 45l-25 55q-19 44 -47 129q-5 5 -19 72q-37 120 -49 180q-4 10 -14 51
v-41q0 -3 -1 -7.5t-1 -6.5v-6q0 -62 -2 -103v-33l-12 -331q0 -7 -1 -32.5t-1 -37.5v-45q0 -25 -2 -33q0 -125 -5 -196v-50q2 -29 2 -51v-135l3 -4v-12q-3 -9 -3 -17q4 -8 0 -16v-35q0 -2 -1 -4.5t-1 -3.5q-9 -17 -22 -17q-2 -2 -6 -2q-9 0 -13 7q-4 4 -8 12v4l-4 14
q-6 3 -6 13v8q0 2 -1 5.5t-1 4.5l-18 92l-2 2q-5 138 -5 199q0 4 1 35t1 57q0 17 1.5 66t1.5 81q0 26 2 46v71l4 66v67l6 146v61q0 67 16 185q15 100 43 155q0 14 7 27.5t22 13.5h4q9 6 20 6q7 0 11 -2q33 -10 41 -55q4 -19 12 -92q1 -17 3.5 -40.5t2.5 -29.5l2 -2
q0 -6 6 -24q4 -12 4 -15l2 -6l25 -90q6 -18 6 -27q0 -2 4 -22l4 -6v-4q6 -26 31 -107q3 -8 10 -35l15 -37l10 -26q2 0 2 -2q51 -112 92 -183q2 -2 2 -4q4 -12 19 -32q2 -2 2 -7l6 -8l10 -20q0 -2 2 -2l25 -49q2 -6 41 -80l10 -19v-2l18 -39l10 -19.5t11 -25.5q11 -26 28 -84
l15 43l41 119l43 121l39 123q56 171 92 293q5 14 6 16q0 2 1 7.5t1 6.5q0 4 2 4l6 19v10l25 125q4 11 8 37q7 53 22 117q12 53 37 98t60 45q6 0 18 -4q26 -10 44.5 -46.5t23.5 -78.5q2 -2 2 -4q1 -3 5 -23.5t5 -29.5l2 -15l10 -90v-2q0 -28 2 -51v-10q2 0 2 -2l9 -115v-31
q0 -1 -1 -3t-1 -3q4 -32 4 -86v-278q0 -4 -1 -16t-1 -17v-21l-5 -102v-41q0 -9 1.5 -23.5t1.5 -17.5q0 -35 -9 -176q-1 -18 -2 -38.5l-1.5 -31.5t-0.5 -16v-4q0 -2 -2 -4v-25q0 -1 -1 -3t-1 -3q-3 -9 -8 -14v-11q0 -4 -1 -10t-1 -8v-2q-4 -11 -12 -14q-3 -3 -7 -3z" />
    <glyph glyph-name="N" unicode="N" horiz-adv-x="1067" 
d="M233 -47h-6q-13 0 -16 10l-25 55q-2 3 -2 5q-4 25 -4 79q0 29 -2 33v15q0 3 1 8t1 8q-2 2 -2 6t2 16v11q-2 2 -2 6t2 16v15q0 563 -8 782l-2 16v2q0 78 2 123v109l4 106q2 36 16 56t39 20q33 0 76 -43q24 -28 47 -74q9 -18 13 -22q2 -2 2 -4q38 -72 88 -205l127 -334
q93 -249 155 -397q4 -15 15 -33l16 -41l10 -27l17 -37v-2l43 -84l14 -26l25 -43q0 5 -1 15.5t-1 15.5l-7 172q0 14 -1 37t-1 32q0 54 -2 66v2l-6 135q0 4 -1 11.5t-1 10.5l-2 15v2q0 23 -2 33v16l-18 301q-9 135 -9 160q-10 188 -6 209v6q-2 12 -2 24q0 7 2 9v39q3 52 4 55
v12q6 19 25 25h6q6 0 8 -2q4 -2 8 -13q7 -21 9 -45q0 -1 1 -4.5t1 -5.5v-10q2 -6 2 -19q4 -11 6 -39q0 -4 1 -12t1 -12q4 -22 10 -74v-12l19 -303q10 -123 24 -367l10 -176q9 -339 -36 -422q0 -1 -1 -2t-1 -2q-12 -6 -17 -6q-12 0 -29.5 10.5t-23.5 16.5l-2 2
q-62 86 -148 272q-88 193 -153 362l-144 390l-2 2q-7 26 -32 77h-2q-9 33 -39 101q-1 4 -2.5 7.5t-2.5 5.5l-1.5 3t-0.5 2q-1 4 -3.5 9t-4 8.5t-2.5 7.5q0 6 -6 18l-4 6q-6 14 -37 64q-4 -217 -2 -338q0 -32 2 -57v-2q0 -9 2 -13v-35q0 -14 1 -41t1 -36v-2q0 -105 2 -158v-2
q0 -96 4 -127v-2q0 -136 -8 -273q-1 -29 -2.5 -63.5l-2.5 -56t-1 -23.5l-4 -45v-2q0 -9 -6 -18l-2 -25q0 -14 -2 -18v-5q3 -17 -11 -24z" />
    <glyph glyph-name="O" unicode="O" horiz-adv-x="1128" 
d="M551 -63q-31 0 -45 2q-122 19 -205 102q-31 27 -43 47q-39 57 -59 105l-23 57q0 2 -1 5t-1 5l-6 12v2q-23 70 -47 162q-1 7 -3 19l-3.5 21t-1.5 11v5q-16 77 -19 139q-6 187 8 323q0 3 9 64l8 45v2l14 47q5 18 8 25v2q21 68 54 135q7 17 26 47q25 41 33 47
q89 100 176 121q49 13 111 20h2q23 0 41 -4h4l10 -4q3 0 14.5 -2.5t16.5 -3.5q16 -4 18 -4v-2q1 0 2 1t2 1l4 -2l21 -6h2q76 -32 98 -51q91 -85 142 -205q58 -135 83 -342q14 -99 11 -180q-6 -227 -64 -422l-16 -41v-2q-7 -11 -12 -27l-7 -14q-77 -145 -163 -201
q-94 -61 -199 -61zM455 14q46 -16 90 -16q55 0 119 22q5 0 14 9l18 10q24 15 33 24q24 24 41 48l10 14l6 6q38 62 54 98q0 5 2 7l16 36q31 120 47 236q19 139 19 229q0 68 -11 152l-4 16v2l-6 43q-35 178 -69 258q-28 64 -56 107q-51 63 -88 98l-16 10l-4 4l-11 5l-2 2
l-28 14q-1 0 -4 1t-4 1q-2 0 -5 1t-4 1h-100q0 -2 -4 -2h-16l-17 -6q-6 0 -10 -2h-4q-2 -1 -4.5 -2t-3.5 -1.5t-2 -0.5q-2 0 -2 -2q-130 -74 -195 -219q-45 -106 -72 -304v-57q-4 -46 -4 -51q0 -41 2 -78q2 -18 2 -47q2 -20 2 -45q9 -111 31 -211q11 -51 27 -96
q46 -133 94 -203q63 -91 119 -111z" />
    <glyph glyph-name="P" unicode="P" horiz-adv-x="862" 
d="M233 -4h-6q-8 0 -12 4q-2 2 -4.5 6.5t-3.5 5.5v2q0 1 -1 3t-1 3l-2 11v2q-4 4 -4 18q0 1 1 3t1 3q-4 4 -4 6q-4 33 -7.5 57.5t-4.5 31t-1 8.5q-2 31 -2 192v125q2 51 2 109v248q2 68 2 139v26q0 25 -2 31v4q0 16 -6 80q0 11 -4 51q-10 105 -0.5 178.5t45.5 108.5
q29 29 72 29q36 0 96 -13q47 -12 64 -12h12q6 -2 22 -2l9 2h6q64 -6 98 -18q5 0 47 -23l8 -4l4 -2q57 -50 91 -102q11 -14 14 -31l2 -4q30 -52 33 -105q14 -106 -13 -225v-2l-14 -39l-12 -31v-2q-19 -34 -29 -45q-39 -55 -65 -78h-2l-31 -24l-6 -6q-26 -18 -31 -21
q-77 -35 -152 -35h-12q-53 2 -98 17h-2l-29 14q-12 6 -18 15q-3 3 -11 6v-97q0 -9 -1 -21.5t-1 -14.5l2 -9v-30q0 -1 -1 -2t-1 -2q0 -113 -2 -193v-43q0 -13 -1 -33.5t-1 -25.5q0 -111 -4 -131v-43q0 -1 -1 -3.5t-1 -3.5v-16l-4 -18v-13q-4 -6 -23 -16zM399 719l7 -2
q10 0 14 -2h10q117 9 184 76q55 58 95 192l2 10q6 34 6 90q-2 4 -2 15l-6 57q-16 77 -47 129q-21 40 -39 55q-58 52 -142 58q-123 12 -176 12h-18q-9 -2 -13 -6q-10 -12 -2 -80q2 -8 2 -27v-157q0 -1 -1 -3t-1 -3v-93q5 -5 2 -8l-2 -31v-243l33 -6q2 0 4 -2l70 -25l12 -4
q1 0 3 -1t3 -1h2z" />
    <glyph glyph-name="Q" unicode="Q" horiz-adv-x="1212" 
d="M932 -53q-6 0 -10 2h-2q-23 0 -33 2q-4 0 -8 2h-7q-5 1 -12.5 1.5t-12 1t-7.5 1.5h-9l-32 6q-4 2 -8 2q-1 0 -4.5 1t-4.5 1l-39 8l-6 5q-1 0 -5 1t-5 1t-3 1t-3 1h-2l-2 2h-4q-7 0 -13 6q-6 0 -8 2h-2q-56 -30 -94 -33q-4 0 -13.5 -1t-13.5 -1q-86 0 -190 55
q-30 16 -51 33q-59 52 -78 76v2q-19 28 -23 35l-10 16l-8 8v4q-47 87 -64 127v4q0 3 -4 11l-6 20l-2 6v6q-25 62 -31 119q-22 152 -14 287q0 26 6 61q0 17 2 25q0 3 1 8.5t1 7.5v2q5 34 17 74q7 27 45 139l24 54l25 49q2 0 2 4q2 0 2 2q81 119 164 186q58 42 112 70
q20 11 43 20h3q0 6 5 10.5t11 4.5h27l20 6l4 2h6q12 0 17 -10q0 -1 1 -3t1 -3q77 -20 106 -39q108 -71 170 -185q68 -129 101 -325q14 -80 14 -172q-3 -210 -51 -410l-2 -2q0 -4 -2 -8l-11 -33h-2l-14 -43q-70 -133 -180 -219l37 -12l41 -11q4 0 4 -2h2q12 0 24 -2h2l4 -2h2
q7 0 9 -2h6q6 0 10 -2h4q6 0 8 -2h54q2 0 4 2h16q8 0 10 2l6 2h5l2 2l16 6h2l6 3l10 4l2 2q4 2 11 2q6 0 8 -2q14 0 18 -15l2 -12v-2q0 -13 -14 -20v-3q-4 -4 -8 -4q-4 -4 -8 -4q-32 -14 -93 -20h-16q-2 0 -5 -1t-5 -1zM387 96q72 -60 150 -73q18 -3 36 -3q10 0 45 5l-2 2
q-9 3 -14 8h-2q-7 0 -10 6l-2 2l-31 20l-12 11l-2 2l-15 16l-4 4v2q-4 2 -4 13v8q0 8 8 16t17 8q2 2 8 2t10 -2l10 -2h5q5 -1 18 -14q0 -4 4 -4l4 -4l29 -25q14 -7 18 -10l43 -23q9 0 11 -2h2q1 0 3 1t3 1l24 25l29 27q30 45 33 51q2 6 10 14q2 2 2 4l2 2q36 74 47 103v8
l14 35q25 102 41 235q15 150 15 219q-6 77 -15 146l-4 12v2l-8 43q-45 163 -82 240q-20 47 -63 96q-34 37 -107 88q-2 0 -10 4l-8 4q-1 1 -5 2.5l-9 3.5t-9 5q-4 0 -4 2h-6l-20 6l-11 -6l-88 -54h-2l-2 -2l-14 -8l-4 -6l-10 -4l-11 -10l-8 -7v-2l-12 -10
q-125 -131 -178 -258q-53 -130 -68 -338v-12q0 -68 2 -80v-2l6 -68l13 -79q13 -73 45 -168l34 -76q55 -98 115 -152z" />
    <glyph glyph-name="R" unicode="R" horiz-adv-x="978" 
d="M803 -12q-18 0 -31 10l-6 4q-2 0 -10 4v2q-48 39 -99 107h-2v2l-10 14l-4 6q-2 4 -4 4q-4 4 -4 9q0 6 -4 10q-2 0 -2 4l-6 12q-11 23 -13 29q0 2 -2 4l-6 14q-5 8 -22 51l-19 41q0 2 -1 6t-1 5l-2 2l-16 57q-11 18 -11 33l-4 6q-2 4 -2 10v4l-6 21q-4 8 -4 12v8l-27 92
q0 1 -1 5t-1 6q-1 1 -2 6t-2 6l-2 4q-2 4 -2 8v6q-6 19 -8 29l-6 21q0 6 -4 18l-8 31q0 2 -1.5 6t-1.5 6q-2 2 -2 6h-28q-40 0 -90 4h-23l-8 2h-14q0 -9 1 -29t1 -30v-123q-3 -50 0 -100v-41q4 -28 4 -43q0 -90 -2 -174q0 -20 -1 -45t-1 -29q-2 -8 -2 -17v-2q-2 -10 -2 -28
v-4l-7 -13l-2 -12q0 -3 -1 -7.5t-1 -6.5q4 -15 -8 -21q-2 -2 -8 -2q-11 0 -14 6l-11 13q-16 19 -18 30q-6 24 -6 52v18q-2 2 -2 6v35q-2 2 -2 8v21q-2 43 -2 249q0 33 -1 116t-1 134v72q0 17 -2 25v59q2 10 2 29v178q2 12 2 35q0 59 -2 104v80q0 78 20 119q21 47 72 53
q35 2 69 2h15q7 0 57 -4q7 0 18.5 -1t16.5 -1q16 -2 35 -2q47 -3 88 -12q39 -8 61 -19h2l21 -8q50 -22 94 -59l2 -3l22 -24q3 -2 3 -4q42 -77 51 -180q12 -102 -6 -164q-11 -36 -56 -103l-6 -8h-2q-16 -20 -27 -26q-52 -41 -87.5 -59.5t-88.5 -31.5h-2l-39 -8l17 -51l18 -66
q0 -1 1 -3.5t1 -4.5q6 -12 6 -22q11 -25 23 -78q0 -1 1 -3t1 -3q2 -2 2 -8q2 -2 2 -7l16 -55l21 -61l18 -58v-4q9 -5 9 -10l10 -22v-3q2 -6 2 -12q9 -11 16 -33v-2l2 -8q9 -9 11 -18l2 -2q6 -18 24 -45q0 -1 1 -3t1 -3l2 -3q14 -14 15 -22l12 -16l2 -3l14 -12q23 -23 29 -35
l14 -14q1 0 2 -3q1 -2 2 -3q4 -4 4 -10l5 -6q2 -4 2 -13q0 -8 -11 -12l-16 -8q-2 -2 -6 -2zM281 782h2q59 2 96 2q133 0 186 17q95 26 160 119q28 44 37 92q7 64 -0.5 130.5t-26.5 108.5l-2 2q0 4 -6 13l-2 4l-16 20q-57 43 -164 70q-119 29 -193 29h-10q-41 0 -51 -15
q-6 -8 -10 -57q0 -29 4 -39v-129q-2 -6 -2 -23l2 -10v-4q0 -76 -2 -111v-122q-2 -35 -2 -97z" />
    <glyph glyph-name="S" unicode="S" horiz-adv-x="884" 
d="M391 -37q-14 0 -22 2q-15 0 -19 2q-18 0 -24 2q-50 12 -95.5 37.5t-66.5 52.5q-35 48 -45 70l-8 16q-9 17 -7 25l-4 6l-6 14q-8 11 2 21q3 6 13 6h6l37 -14l6 -4q11 -9 32 -41l7 -11q2 -2 2 -4l4 -6q2 0 2 -2l2 -4l8 -8v-4q2 0 2 -2l4 -4l6 -9q81 -81 164 -84h6
q90 0 191 84l6 5q31 38 43 71v2q5 12 14 43q7 68 2 119q-3 28 -14 49q-27 70 -74 123q-27 38 -110 109l-140 123l-26 24v2l-25 27h-2q-23 36 -33 41q0 1 -1 2t-1 2l-6 8l-2 4q0 1 -1 2t-1 2q-30 45 -45 84v2l-8 27v4q-10 82 10 178q19 102 55 156q17 28 74 73l8 7q9 9 27 18
q90 44 166 53q4 0 10.5 1t9.5 1q33 0 66 -10q25 -6 57 -27t45 -38l4 -5q4 -4 4 -8l2 -2l7 -10q8 -8 8 -18q2 0 2 -5q8 -21 8 -26q2 -2 2 -6l2 -4v-4q0 -5 -2 -7q-6 -18 -20 -24h-7q-6 0 -10 4q-6 3 -6 10h-2q-4 4 -4 8q0 1 -1 3t-1 3q-5 2 -10 11l-2 4q-1 1 -2 3l-1.5 3
t-0.5 2q-28 32 -48 49q-53 39 -102 39h-12q-79 -9 -162 -80q-39 -32 -57 -74q-23 -52 -33 -122.5t-4 -116.5l4 -21l2 -2q0 -8 6 -20q29 -63 92 -135q69 -81 119 -123q85 -75 133 -125q12 -4 35 -33h2l2 -2q39 -44 49 -65q2 0 2 -3l25 -49q19 -44 28 -104q2 -8 2 -29v-2
q0 -4 -2 -6q6 -53 -10 -96q-38 -92 -115 -160q-7 -7 -30 -20l-4 -5h-2l-25 -14q-22 -12 -49 -20q-53 -16 -96 -19q-6 -2 -21 -2z" />
    <glyph glyph-name="T" unicode="T" horiz-adv-x="690" 
d="M317 -18h-8q-44 20 -41 71v10q-3 10 0 17v2q0 3 -1 26t-1 42q0 58 6 178v4q0 12 2 18v12q0 17 2 25q0 5 1.5 15t1.5 16v2l6 69q0 17 4 37v4q0 5 0.5 16l1.5 31.5t2 38.5q0 41 4 91q0 19 6 100v18q0 15 2 19v4q0 9 1 21t1 14v57l2 12q0 9 1 32.5t1 37.5q0 13 -1 42t-1 46
q0 21 -2 33v37q0 41 -2 59v33q0 2 -1 11t-1 15q-2 12 -2 23q0 19 -2 29v34q-2 2 -2 7v10q-2 0 -6.5 1t-7.5 1h-15q-6 0 -8 2h-22q-4 2 -21 2h-4l-6 2q-17 0 -53 4q-6 0 -16 1l-9 1q-12 0 -18 2h-9q-6 0 -8 2h-2l-43 6l-8 2h-2l-6 3h-4l-23 6h-4q-8 0 -10 2q-2 0 -2 2l-4 2
l-4 2l-2 2q-3 1 -7 10q-3 7 0 14q3 10 13 13q4 2 12 2h2l16 4h7q30 -6 36 -6q3 0 11 -1t14 -1q16 -4 27 -4q4 0 8 -2h6q2 0 6 -1t6 -1q46 -3 68 -7h14q31 -2 57 -3.5t35.5 -2t12.5 -0.5q22 0 34 -2h27q4 2 12 2q11 0 15 -2h16q4 0 14 1t13 1h30q15 0 43 4h13q4 2 18 2l19 4
h4q3 0 6 3q1 0 3.5 1t4.5 1q18 6 37 6q2 0 4 2q1 0 5 1t7 1h8q1 0 3.5 -1t3.5 -1q9 0 12 -6q8 -8 4 -15l-2 -10l-6 -12l-8 -6q-5 0 -7 -2q-1 0 -3 -1t-3 -1q-3 -3 -8 -3h-4q-28 -11 -107 -20h-4q-4 0 -10 -1t-10 -1q-6 -2 -23 -2h-53q-10 0 -16 -2h-47q12 -24 12 -33
q7 -35 10 -96v-2q0 -13 2 -27q0 -8 1 -36.5t1 -49.5v-2q0 -15 0.5 -26.5t1 -17.5t0.5 -7v-4q0 -43 -2 -78v-88q0 -96 -8 -203q0 -26 -8 -102q0 -3 1 -9t1 -8v-8q0 -27 -2 -47q0 -2 -1 -4.5t-1 -3.5q0 -3 -1 -8t-1 -9v-4q0 -23 -4 -55q0 -8 -2 -14v-4q0 -21 -2 -41v-2
q-6 -50 -9 -99v-51q-2 -4 -2 -10v-2q-2 -14 -2 -47q0 -2 1 -9t1 -10v-20q0 -21 -2 -39q0 -29 -2 -45q0 -23 -4 -39v-8q-2 -4 -2 -10q0 -12 -10 -17v-2q0 -6 -2 -8q0 -4 -8 -12q-2 -2 -9 -2z" />
    <glyph glyph-name="U" unicode="U" horiz-adv-x="1105" 
d="M557 -25h-27q-100 0 -194 64q-4 2 -9.5 6.5l-12 10t-9.5 7.5l-20 23q-48 64 -58 94l-20 56l-4 12q-19 54 -35 121v4q0 6 -2 8q0 3 -1 9t-1 9v9q-13 60 -17 96q-9 114 -12 229v82q0 22 2 57l4 115q0 33 2 47q0 21 -2 29v20q3 15 13 189v2q6 58 6 96v2l4 31q0 2 2 4
q0 4 4 12l2 13q0 2 1 5t1 5q2 2 2 4q-3 6 0 12q3 10 17 10q15 0 18 -12l20 -31q0 -1 1 -3t1 -3q7 -21 7 -57v-88l-2 -6q0 -48 -9 -250q-6 -196 -6 -305l2 -13v-16q0 -37 2 -49v-4q0 -17 4 -37v-19l5 -30q2 -25 2 -33q10 -85 24 -147v-3l17 -69q42 -122 81 -168
q57 -75 144 -90q5 0 15.5 -1t15.5 -1q63 0 124 37h3l10 10l12 10q20 17 23 23q16 20 22 30l10 15q0 2 2 2l9 10v2q31 53 47 92l12 33q60 189 84 397q6 44 10 129v19q0 18 2 26v45q4 162 2 213q0 43 -6 113l-8 70q0 10 -1 23.5t-1 17.5q-2 8 -2 14v6q-2 2 -2 6v4q-2 2 -2 6
v15l-2 20v9q0 4 2 6q6 18 28 18q10 0 17 -10l4 -6l2 -6q6 -4 12 -23q26 -73 27 -78v-2q15 -103 18 -213q3 -127 -6 -309q-3 -94 -12 -152q-25 -188 -78 -356q0 -2 -2 -2v-2q0 -1 -5 -11t-7 -18l-17 -39q-54 -92 -143 -168q-90 -78 -166 -84z" />
    <glyph glyph-name="V" unicode="V" horiz-adv-x="974" 
d="M494 2q-31 0 -64 45q-43 62 -57 111l-13 39l-6 10v2l-26 90l-9 29q0 4 -4 20l-4 8v6q0 2 -3.5 13.5t-4.5 17.5q-15 46 -20 76q0 1 -1 4t-1 4q-5 15 -5 19l-2 4v6q-11 33 -22 84q-11 52 -51 203l-11 41l-12 51q-4 8 -8 28q-5 22 -29 101v4q0 1 -2 7.5t-2 8.5l-6 19l-14 39
v2q0 1 -0.5 2.5t-1.5 5t-2 6.5l-41 154q-4 13 -10 34.5t-9 30.5l-6 25l-8 28q-4 15 2 23l-2 10v12q-11 11 0 23q6 6 12 6q9 0 15 -6q4 -4 16 -12l18 -17q10 -13 27 -59q4 -8 4 -12l2 -5q0 -1 1 -4t1 -4t1 -2t1 -2q4 -4 4 -8l2 -10q4 -4 4 -8q0 -1 1.5 -4.5t1.5 -4.5
q1 -2 2 -4.5t1.5 -4t0.5 -3.5q62 -194 139 -491l10 -41q4 -22 8 -29v-2l2 -8q15 -55 25 -103l37 -141v-2q0 -1 6 -25l10 -43l53 -178v-2q0 -6 29 -74l8 -16l17 74l10 37q0 2 2 4q6 18 8 22l6 17q3 13 7 26t6 19t2 8v2l6 16q0 1 1 3t1 3l31 99l10 30l18 58q63 197 82 262
l29 98l2 13l8 24q2 2 2 6l49 189l21 100l12 70l10 59q0 2 2 4v4q0 9 2 13q0 17 6 32l5 21v4q0 4 2 6q0 8 4 12q13 13 26 13q8 0 15 -7q4 -4 4 -12q0 -2 2 -4q2 -6 2 -20q2 -2 2 -9v-12q-2 -2 -2 -8q4 -87 0 -100q-14 -93 -35 -195q-16 -81 -61 -233l-33 -113l-49 -154
l-37 -116l-10 -31q-4 -12 -4 -17q-5 -5 -5 -10v-4q-12 -36 -30 -133q-22 -122 -45.5 -188t-57.5 -95q-12 -14 -30 -14z" />
    <glyph glyph-name="W" unicode="W" horiz-adv-x="1177" 
d="M408 -18q-3 0 -11 4h-4q-8 0 -12 8l-2 2q-3 0 -6 6q-11 18 -11 25q0 5 3 8v4q-3 3 -3 6v2q0 1 -1 2t-1 2q-2 2 -2 8v2h-2q-86 182 -106 252l-2 6v3q0 1 -1 3t-1 3q0 12 -4 16q-4 8 -4 10q0 8 -11 19q-2 2 -2 8q0 10 -4 22v9l-8 71q-4 20 -4 39l-16 90q-3 6 -3 13l-20 75
l-27 99l-8 16v6q0 2 -1 7t-1 6q-2 2 -2 6l-8 22v2q-2 2 -2 6q-2 2 -2 7v2l-4 12l-13 37v2l-4 14l-26 86v2q-11 38 -11 39l-10 37q-4 6 -8 27l-6 20q-2 2 -2 4l-2 6v4q0 1 -1 4.5t-1 4.5q-2 2 -2 6q-13 43 -23 98q-6 46 -6 55q-1 10 -1.5 23t-1 20.5t-1.5 12.5v22q0 6 2 8v11
q0 12 4 20q0 9 10 12l15 4q1 0 2 1.5t2 1.5l4 -3q11 -3 18 -16q7 -4 10 -12v-8q0 -1 1.5 -3.5t1.5 -3.5q12 -22 16 -43q7 -58 14 -94q1 -9 4 -24.5t4 -18.5l15 -73l14 -56l39 -135q0 -1 1 -3.5t1 -4.5q2 -2 2 -4q2 -2 2 -8q2 -5 2 -7q0 -1 1 -3t1 -3q30 -81 64 -198l33 -103
v-4q2 -2 2 -4q0 -4 4 -12v-2q2 -2 2 -6q0 -5 4 -17q4 -16 4 -31v-2q0 -14 2 -22l2 -4v-6q0 -5 4 -25t4 -31v-18l6 -43q10 -56 21 -98v-2q0 -9 4 -17v-4q4 -4 4 -14q0 -1 1 -3.5t1 -4.5q1 -2 2 -6t2 -5l19 -47q6 -6 6 -10q1 -1 2 -3l1.5 -3t0.5 -2l10 -15l2 -4l2 -2l6 -10v2
l13 53v6q2 5 4 14.5l5.5 25l6.5 28.5q17 67 31 88q0 1 1 4t1 4t1 3t1 3q0 9 2 13v6l33 143l28 129q24 110 35 142v14q0 1 -1 2t-1 2l-4 10v2q-1 6 -3.5 15.5t-2.5 11.5l-2 2q-27 104 -49 201l-23 98q-44 136 -41 176q0 1 -2 7t-2 7q-2 6 -2 11v6l2 2q-7 13 0 41v2l2 2v2
q0 9 6 12l15 11q4 4 8 4h26q6 0 10.5 -5.5t4.5 -11.5v-8q2 -4 2 -14q2 -2 2 -8v-19l6 -35q2 -11 5 -30.5t3 -20.5q37 -134 49 -184l11 -39l18 -80l6 25q0 4 2 8l2 4v2q0 6 2 10l8 43l2 6q18 71 25 113q0 8 2 14l2 6q0 29 10 47q12 18 15 39q0 5 2 7v28l10 53l6 23q0 2 4 6
q4 8 13 8q3 6 10 6q2 0 2 -2q23 -3 31.5 -7.5t9.5 -16.5v-6q2 -2 2 -4v-9q0 -6 -2 -8q0 -61 -33 -207v-6q0 -6 -4 -18q0 -2 -1 -8t-1 -7v-2l-6 -28q0 -7 -4 -22.5t-4 -16.5l-17 -45q-11 -25 -14 -41l-10 -47l-9 -35l-6 -31l-10 -47l14 -43l19 -59q49 -144 65 -275v-2
q0 -3 1 -12.5t1 -13.5v-2q0 -9 2 -15v-18q9 -301 15 -334l14 29l6 14q0 1 1 3.5t1 4.5l8 29v2q14 41 23 76v2l4 10q5 12 10 35l2 10l27 117l8 26v4q0 10 6 13l27 98q7 46 14 76l31 176q8 32 8 45v2l6 39l11 51q0 2 1 6t1 6l20 121l8 45l6 47q12 87 37 172q17 56 19 70
l7 23.5t7 11t14 6.5q4 12 13 14l4 4q4 7 10 7l2 -2q8 0 12 -9q0 -2 4 -10q9 -18 9 -22q2 -8 -2 -31v-6l-4 -21v-2l-3 -6l-6 -14q2 -2 2 -8q0 -7 -4 -15q0 -1 -1 -3t-1 -3v-2q-16 -57 -55 -262l-18 -105l-33 -192l-2 -12q0 -13 -8 -41l-7 -33q0 -20 -6 -41q-4 -16 -4 -25
l-14 -73q-16 -79 -37 -166q-1 -10 -18 -78l-60 -168q-18 -54 -20 -57l-7 -15q-19 -38 -34 -49q-11 -8 -29 -8q-29 0 -53 37q-34 48 -43 106v2q-3 23 -15 35q-2 2 -2 8q0 18 -2 41q0 13 -1 31t-1 23v131q-2 2 -2 6v28q-15 120 -45 240l-10 -47l-12 -61l-7 -27v-2l-8 -27
l-8 -33q-4 -16 -4 -18v-2q-4 -16 -4 -23l-10 -43l-4 -18l-43 -184q0 -7 -7 -21q-6 -24 -6 -26v-7q0 -10 -12 -14h-2v-2l-21 -70q0 -2 -1 -6.5t-1 -7.5q-4 -8 -4 -12t-2 -6v-11q0 -4 -2 -6q-4 -8 -8 -10v-2l-4 -6l-2 -2q-3 -10 -14 -10z" />
    <glyph glyph-name="X" unicode="X" horiz-adv-x="1003" 
d="M123 -41h-2q-12 0 -15 8q-18 25 -18 35q0 29 12 51v4q0 4 2 6l2 5v2q0 2 2 4q19 57 115 250v4q1 1 2 3l1.5 3t0.5 2q3 2 8 10t5 12l2 2l14 29l18 29q4 11 20.5 39.5t22.5 36.5q4 13 21 38l53 99l31 53l16 31l-47 76l-4 4q0 2 -2 4q0 6 -8 14q-13 17 -15 25l-16 26
q-4 0 -4 6q-2 2 -2 7l-31 47l-8 14l-70 119l-22 43q-8 11 -17 37l-6 12l-4 2l-4 8q0 2 -1 5.5t-1 4.5q-2 2 -2 7l-39 104h-2q-10 40 -18 51q0 1 -1 3t-1 3l-13 39q-2 5 -4 11t-3 9.5t-1 6.5q-4 4 -4 6q-4 4 -4 12v4q0 1 -1 5t-1 6l-4 12v4q-4 7 0 14q5 13 20 19h6q7 0 11 -2
q0 -4 4 -4q0 -2 2 -2v-2l2 -2h2q6 -4 10 -15h2v-2q14 -16 33 -41q0 -1 1 -2t1 -2l4 -4l41 -102l23 -60l22 -55q0 -4 4 -8q1 -5 15 -33l10 -25q32 -65 73 -129q6 -6 9 -14q8 -8 12 -16q1 -1 3.5 -6t4.5 -7q6 -12 18.5 -32l34 -54l39.5 -63l21 35l6 14l2 6q9 22 16 29l13 24
q0 1 1 3.5t1 3.5l6 10l24 49q0 1 1 3t1 3l9 14q40 78 71 170l19 52l2 6l6 12v2l31 96l2 2q0 5 4 21l6 26q12 48 12 60q0 4 2 6v12l6 11l3 10q0 4 4 12l2 2h2q8 8 20 8q17 0 27 -26q2 -4 2 -13v-4q6 -45 6 -49v-4q-4 -33 -20 -100q-10 -40 -41 -121q-1 -2 -21 -53
q-2 -4 -2 -9h-2q-3 -12 -12 -30l-51 -115l-5 -10l-2 -4v-2l-6 -15l-2 -2q0 -2 -2 -2q-36 -78 -115 -221v-2l29 -51q4 -4 4 -6q1 -1 4.5 -5.5t5.5 -5.5q0 -1 1 -3t1 -3l3 -2l4 -6l24 -39q6 -9 6 -16l4 -8l5 -3l4 -8l16 -30l12 -21q0 -2 2 -2l4 -10q1 -2 2 -3.5t2 -2.5t1 -2
l22 -43l53 -105l11 -18l8 -17l12 -26l2 -2q4 -16 23 -49v-3l10 -20q5 -5 14 -23q26 -64 35 -94q9 -22 14 -43q0 -1 1 -3t1 -3l4 -16v-4q0 -11 -4 -17v-6l2 -4q4 -11 -6 -18l-10 -5q-4 0 -10 3q-4 4 -10 4q-18 4 -25 10q-17 23 -20 41q-5 5 -5 8q0 1 -1 2t-1 2l-2 4
q-2 2 -2 4v2l-2 2q-4 8 -4 11l-51 112q-46 100 -66 140l-2 2v2l-10 18q0 2 -2 5.5t-2 4.5q-2 2 -2 4l-29 56l-37 71l-2 2q0 5 -16 29l-2 4q-5 14 -35 58q-6 15 -18 30l-19 31l-12 -23l-6 -14l-4 -4q0 -4 -2 -6l-2 -4v-2l-27 -49l-16 -27l-4 -6l-11 -21l-22 -39l-2 -2
q-4 -4 -4 -8q0 -6 -7 -10l-22 -43l-57 -102q0 -2 -1 -5t-1 -4q-5 -10 -14.5 -27.5t-14.5 -27.5l-23 -45q0 -10 -10 -25l-2 -10l-2 -6q0 -3 -39 -86l-16 -41l-6 -14q-4 -4 -4 -6q-1 0 -3 -1.5l-4 -3t-4 -2.5q0 -2 -2 -2v-2q-3 -8 -14 -12z" />
    <glyph glyph-name="Y" unicode="Y" horiz-adv-x="841" 
d="M418 -35q-25 3 -37 15l-2 2l-6 8l-4 6l-2 8v6q-2 2 -2 8v7q-4 29 -7 118v13q-4 26 0 34v50q0 22 -2 32v17q0 5 -1 19.5t-1 19.5v47q0 1 -1 5.5t-1 8.5t2 8v56q2 6 2 73v37l4 45q0 2 2 4v9q0 3 1.5 7.5t1.5 6.5q0 4 2 8q-24 31 -35 68v2q0 4 -6 16l-2 2l-2 4v2l-19 51
q-6 12 -6 19l-4 12l-2 6l-27 62l-6 16q-2 2 -2 6v2q-15 30 -20 47q-12 28 -56 113q0 2 -2 4q0 1 -1 3t-1 3l-6 13l-10 20q0 2 -13 27l-26 57v2l-6 8q-6 12 -6 15l-3 2q0 4 -6 10q-4 8 -4 10q-24 43 -41 101q-22 56 -22 71q0 1 -1 2t-1 2q-2 7 2 19v8q-6 10 4 20q3 7 12 7
q3 0 8 -5h2q5 0 7 -2q8 0 14 -6l4 -2q4 0 8 -4q16 -16 25 -43q0 -1 1 -3.5t1 -4.5q2 -2 2 -4l2 -4l4 -6v-2l2 -5l2 -2l2 -6l64 -135l69 -145v-2q15 -19 19 -39q0 -4 4 -8q7 -11 10 -19q1 -1 10 -24q4 -8 4 -9t1 -2t1 -2l35 -82l17 -43l14 -39q22 -51 27 -67l10 -21q0 5 4 13
q0 2 4 6q4 8 4 14q0 2 2 2l12 25l13 26q0 8 6 11v2q2 2 2 4l37 73q36 62 92 187l27 55v6q0 2 2 2l10 21q18 37 45 106l22 60q9 22 17 59q1 2 2 5l1.5 4.5t0.5 2.5l4 9v4l2 2v4q0 2 6 14l6 14v3q0 1 1 3t1 3q6 12 23 12q6 0 10 -2q12 -3 12 -16q5 -5 5 -17v-18q0 -52 -3 -64
q-23 -79 -38 -117q-11 -29 -60 -137q-31 -65 -33 -65l-43 -86l-10 -22.5t-10 -20.5l-12 -29l-7 -8q0 -2 -2 -4v-4l-6 -13l-2 -2v-2q-14 -35 -28 -80q-42 -132 -86 -163q-3 -3 -5 -3v-16q0 -21 -2 -33q0 -6 -1 -13.5t-1 -8.5v-107q2 -23 2 -98q0 -20 -2 -49q4 -4 4 -12v-95
q-3 -22 0 -45v-30q0 -12 3 -21v-12q4 -4 4 -12q0 -23 -2 -43q0 -6 -1 -13t-1 -8q-3 0 -3 -2q0 -4 -2 -6q0 -12 -10 -19h-2q-3 -10 -14 -10z" />
    <glyph glyph-name="Z" unicode="Z" horiz-adv-x="858" 
d="M281 -6q-144 0 -205 20q-13 6 -13 21l3 4v2q0 1 1 4t1 4l32 70q14 25 21 39v4l22 45v2l50 121q11 30 20 61l27 92l20 74l45 166q24 81 66 182l14 35v2l14 29l14.5 25.5t10.5 19.5q4 4 4 8q2 2 2 6l53 92l15 29q109 194 131 274q-16 -2 -41 -2q-78 -4 -125 -4q-37 0 -55 2
q-77 0 -95 2q-11 0 -47 1t-51 1q-5 0 -11 0.5t-9.5 1t-4.5 0.5h-40q-3 3 -7 3h-2q-4 0 -13 1t-13 1h-9q-6 0 -8 2h-2q-14 6 -14 18q0 9 6 12q9 9 18 9q8 2 23 2h14q2 2 7 2q14 1 31.5 1.5t27.5 1t16 1.5h15q12 -2 45 -2q7 0 23 -1t24 -1h149q91 0 170 6h2q29 0 49 -27
q19 -30 7 -57q-34 -84 -125 -256l-2 -2q-5 -5 -15 -25q0 -1 -1 -3t-1 -3q-3 -4 -8 -13t-6 -10v-6q-102 -188 -150 -329l-53 -183v-4q-6 -12 -6 -33q0 -4 -2 -4l-2 -6q-3 -21 -25 -84l-14 -45l-2 -8v-2l-35 -98q0 -7 -4 -15l-2 -4q0 -1 -1 -3.5t-1 -4.5l-2 -4l-4 -4
q-9 -33 -31 -76l-72 -131h2q10 -2 31 -2h27q40 0 65 2h4q4 0 12.5 1t12.5 1q14 0 18 2h5q5 0 17 1t17 1q6 2 15 2q122 9 207 12q10 0 28 1.5t25 1.5q8 0 20 -1.5t15 -1.5q14 0 26 -2h2l11 -4q2 0 4.5 -1t3.5 -1q6 0 8 -2q13 -3 16 -14q0 -15 -12 -21l-23 -8h-110
q-6 -2 -14 -2q-15 0 -29 -2q-159 -12 -268 -12z" />
    <glyph glyph-name="bracketleft" unicode="[" horiz-adv-x="598" 
d="M444 -313q-9 0 -12 6l-12 4q-1 0 -3.5 1t-4.5 1q-8 4 -23 4h-33q-1 0 -3.5 -1t-4.5 -1h-72q-59 0 -88 8q-46 11 -65 51q-14 21 -14 76q0 46 6 96q4 46 4 60l-2 6v70q-2 8 -2 20v215q0 16 -6 139q-7 94 -7 144l-6 157v2q0 23 -2 37v27q0 15 -4 35v12q0 3 1 8.5t1 7.5
l-4 70q-2 4 -2 10v23q0 37 -10 252q-4 32 -4 78q-2 2 -2 8v14q-7 47 -7 72q0 71 43 106q16 13 54 13q23 0 37 -2q52 -3 112 -17h8q7 0 11 -2h10q6 0 8 -2h27q2 0 18 -8q8 -8 4 -19q-3 -9 -12 -12l-8 -2l-15 -4h-4q-8 0 -12 -2h-4q-48 0 -80 4q-2 0 -5.5 0.5l-10 1.5t-11.5 2
q-28 4 -43 4h-4q-16 4 -26 4q-8 0 -16 -2t-9 -2q-3 -14 0 -30q23 -104 23 -127q3 -10 6 -89q0 -4 1 -23t1 -34q2 -14 2 -51l6 -105v-24q0 -2 1 -6t1 -6v-13q0 -2 1 -7.5t1 -8.5q11 -252 12 -301q2 -8 5 -80v-78q0 -3 1 -11.5t1 -12.5q2 -8 2 -17q2 -18 2 -69v-50
q0 -18 2 -30v-86q2 -16 2 -66v-2q-2 -25 -2 -76q0 -52 2 -77q2 -6 2 -19v-160q0 -16 2 -20v-4q38 -21 106 -21h15q8 0 23 1t20 1q43 0 55 -4h8q17 -7 19 -16q15 -15 6 -35q0 -11 -10 -14q-2 -2 -7 -2z" />
    <glyph glyph-name="backslash" unicode="\" horiz-adv-x="675" 
d="M526 -96h-6l-10 4l-4 4l-17 14l-4 4q-12 18 -12 45q-2 6 -2 13q-4 4 -4 10q-2 2 -2 8l-98 256l-5 6q-2 2 -2 4l-10 29q0 2 -2 2q-8 24 -8 31q-6 17 -8 35l-17 75q-6 21 -6 39q-8 38 -8 41l-5 22t-5 22.5t-4 13.5v2l-19 92q-2 4 -2 10l-8 49q-9 54 -12 64v4q0 1 -1 4.5
t-1 5.5q-2 2 -2 10q-4 12 -4 23q-7 21 -7 35q-2 6 -2 14q-2 2 -2 8q-4 15 -8 41q-2 2 -2 6l-2 17q-8 48 -39 178l-14 55l-2 6v4q0 2 -1 5t-1 4q-2 2 -2 6q-18 73 -27 102v2q0 1 -1 4l-2.5 7.5l-2.5 7.5l-8 32l-21 60q0 2 -1 4.5t-1 3.5v2q-2 4 -2 8v4l-2 4q-2 4 -2 11v2
l-2 10q-2 2 -2 8v4q0 6 2 8q5 13 20 19h5q8 0 12 -4l4 -4q2 -1 5 -5l3 -4l6 -6q4 -4 8 -12q26 -35 31 -45l37 -102l14 -56l21 -73v-5q0 -4 4 -20l10 -39q11 -37 21 -88l14 -66v-2q0 -6 2 -8t2 -10q0 -1 1 -4t1 -4t1 -3t1 -3l43 -230q11 -70 12 -80l7 -32v-2q0 -1 1 -4.5
t1 -4.5l4 -12v-2q10 -25 12 -55l4 -27l2 -4v-2q0 -1 1 -5.5t1 -6.5l11 -47v-5l1 -5q1 -5 1 -9v-6l10 -41q9 -39 31 -96l8 -21v-4q4 -4 10 -22l8 -21l23 -53q16 -27 22 -45q18 -43 29 -100q9 -43 6 -74q0 -12 -8 -17q0 -6 -2 -8q0 -8 -2 -12q-5 -8 -17 -8z" />
    <glyph glyph-name="bracketright" unicode="]" horiz-adv-x="575" 
d="M279 -360q-45 0 -68 4q-4 0 -13 1t-12 1q-37 6 -53 6h-6q-4 2 -16 2h-7l-6 2h-20q-16 0 -19 12q-3 13 9 21l12 6q3 1 6.5 3.5t5.5 3.5t4 1q10 2 64 2q3 0 10 -1t10 -1q2 0 4.5 -1t3.5 -1q2 2 9 2q4 0 10 -2h10q58 -10 82 -10l31 4l2 4q3 3 5 10t2 19v18.5t-1.5 22.5
t-1.5 18q-4 28 -4 41v4q-2 2 -2 4q0 13 2 21v258q2 14 2 39v30q-1 14 -1.5 35.5t-1 60t-1.5 68.5q0 51 -2 98t-2 109q0 66 -2 117v116q-2 20 -2 74v17q0 39 -3 57v29q0 73 -2 104v29q0 90 -6 260q0 27 -2 39v30q0 7 -1 17t-1 12l-10 2q-46 4 -133 4h-45q-15 0 -19 2h-2
q-13 0 -16 13l-2 6q-6 13 8 20l4 2q2 2 8 2h2q2 2 9 2h12q86 7 96 7h57q86 0 115 -27q9 -11 6 -37q-3 -17 0 -41v-4q0 -1 1 -9t1 -14v-38q0 -56 2 -109q2 -49 2 -107q3 -12 3 -32v-29l10 -444v-232q0 -33 4 -45v-10q2 -29 2 -100v-27q0 -3 -1 -12t-1 -15v-10q0 -2 1 -15
t1 -22v-86q0 -1 -1 -4t-1 -4v-12q3 -21 0 -74q-2 -51 -2 -139v-33q0 -4 -1 -13.5t-1 -13.5v-2q-2 -12 -2 -26q2 -2 2 -6q6 -22 -6 -41q-14 -26 -50 -35q-33 -8 -81 -8z" />
    <glyph glyph-name="asciicircum" unicode="^" horiz-adv-x="1290" 
d="M1153 455q-4 0 -12 4q-5 5 -15 8l-16 10q0 2 -2 2q-4 7 -10 19l-10 20.5t-5 9.5v4l-2 5q-4 4 -4 8l-2 4l-4 8l-2 4q0 1 -1 2t-1 2q-94 163 -190 312l-5 4q0 1 -1 2t-1 2q-1 2 -10.5 18.5t-11.5 22.5q-20 29 -23 37l-20 38l-43 101l-10 35q-7 21 -13 30q-10 31 -49 127
l-14 33l-17 33l-6 10q-5 -16 -8 -20l-6 -27l-2 -2l-12 -27l-9.5 -22t-6 -13t-1.5 -4q0 -2 -2 -2q-3 -11 -10 -18l-35 -66h-2l-12 -18q-78 -124 -115 -205l-6 -16q-6 -11 -13.5 -28.5t-9.5 -22.5v-7l-8 -16v-4l-2 -2l-53 -129q-16 -41 -31 -72q-31 -61 -45 -84q0 -4 -4 -8v-4
l-6 -8q-2 -5 -6.5 -11t-5.5 -8l-15 -16q-3 -12 -18 -12h-10q-7 0 -12 5t-5 11v2q0 15 6 25q0 4 5 14l2 4q0 1 1 2t1 2q3 3 8 27l12 39q39 87 53 127l9 18l55 141l28 66q5 10 5 12q2 0 2 2l102 174q9 18 12 21l13 20l16 43q3 5 5.5 12l5.5 16l5 15q36 82 64 125t65 62h2
q4 2 11 2q20 0 35.5 -22.5t37.5 -73.5q2 -2 2 -7q0 -2 4 -7.5t5 -8.5l4 -4v-2l4 -8q27 -65 31 -80q6 -11 10 -25l6 -20l4 -8v-2l39 -103q2 -2 2 -6v-2q2 -2 2 -8q4 -4 4 -8q5 -14 8 -19q2 -7 8 -19l7 -14l2 -2q36 -74 71 -127q0 -2 2 -4q0 -2 5.5 -9.5t5.5 -8.5q2 0 4 -2
l33 -51l38 -64l11 -14l6 -11h2l18 -24q0 -2 2 -2q35 -60 60 -117q22 -56 24 -67q0 -4 0.5 -8t1 -6t0.5 -3q2 0 2 -4q6 -14 -2 -22v-11l2 -6q3 -10 -8 -18q-4 -2 -10 -2z" />
    <glyph glyph-name="underscore" unicode="_" horiz-adv-x="1212" 
d="M539 -260h-115q-12 2 -64 2h-53q-19 0 -31 2h-4q-2 -2 -6 -2t-9 1l-5 1q-45 0 -72 2l-37 4l-47 4h-6q-6 0 -8 2h-6q-9 0 -17 4q-9 3 -12 13l-2 6q-3 6 4 16q3 6 12 6q6 2 15 2h4l35 4h2q25 0 41 -2q7 0 17.5 -1t12.5 -1h29q36 -4 57 -4h41q53 -2 103 -2h22q29 0 68 2h160
q6 0 14 2h39q2 2 8 2q4 0 6 -2h6q8 2 45 2h45q47 0 74 2h47q23 0 35 2h19q1 0 4 1.5t4 1.5h73q21 -3 31 -3h10q5 0 7 -2l6 -2h2q4 0 6 -2l4 -2q14 -3 10 -18q-4 -11 -12 -14l-4 -5q-3 -6 -12 -6h-11q-4 -2 -12 -2h-27q-18 -4 -186 -6h-31q-4 -2 -14 -2h-102q-29 0 -45 -2
h-23q-39 -2 -70 -2q-30 0 -75 -2z" />
    <glyph glyph-name="grave" unicode="`" horiz-adv-x="409" 
d="M233 1159q-8 0 -12 4l-2 2q-8 0 -12 11q-7 7 -27 41q-6 6 -6 10l-4 4q-2 0 -2 2q-6 6 -6 12l-4 4q-4 4 -4 6l-11 15q-6 3 -12 12l-2 2q-10 10 -12 14l-6 7l-5 6q-2 2 -2 4h-2q0 1 -1 3t-1 3l-6 8l-4 4q-13 30 -20 37q-9 4 -9 14v2l-6 19q0 2 -2 4l-2 12v2q0 13 2 15
q-4 8 2 14q0 2 4 6q4 12 17 12h4q2 0 6 1.5t6 1.5q5 0 10 -5h2q5 0 9 -4q0 -2 2 -2q9 0 14 -8q6 -3 6 -12v-4l2 -6q4 -8 4 -15q2 -2 2 -6v-2q4 -8 4 -10l11 -15q4 -4 4 -6q4 -4 4 -6q6 -12 18 -24q0 -1 1 -2.5t1 -2.5q10 -7 13 -16l8 -6l6 -6q0 -2 4 -6l6 -11l4 -4v-2l9 -10
l10 -14h2q4 -4 4 -8q2 -2 2 -5l2 -2l4 -6l2 -2l4 -4l2 -2q9 -7 13 -29l2 -10q2 -2 2 -4v-4q0 -7 -9 -16q-1 0 -2 -2t-2 -3l-2 -2l-10 -6h-4q-16 -4 -23 -4z" />
    <glyph glyph-name="a" unicode="a" horiz-adv-x="761" 
d="M334 -47q-2 0 -6 1t-6 1q-51 3 -95 29h-2q-40 29 -78 86l-14 24l-10 23l-6 18q-2 3 -3 7t-1.5 6.5t-1.5 3.5q-2 4 -2 10q-3 3 -3 6l-12 59l-2 21v4q3 125 35 201l2 2q4 7 37 49l4 6l2 2l12 12l2 2q58 43 113 62q38 13 82 16q20 2 55 2q46 0 66 -4h2q9 -6 28 -6l-2 39
q-1 16 -6 46t-6 40l-2 10l-18 94q0 1 -1 3t-1 3q-4 8 -4 11q-5 10 -5 16l-8 19q-4 4 -4 12l-16 29l-2 2l-2 8q-36 45 -72 53h-2q-12 4 -19 4h-26q-46 -8 -80 -22l-8 -7q-19 -9 -25 -14q-31 -31 -33 -35v-2l-2 -4h-2q0 -4 -4 -8l-6 -8l-4 -8l-6 -9l-2 -2q-4 -4 -12 -4h-2
l-13 2q-14 4 -14 17v24l2 6l2 4q13 37 27 48v2q40 34 84 51q52 20 114 26h19q22 0 32 -2h3q49 -11 104 -53q4 -4 4 -6q4 -4 4 -6q4 0 4 -4l4 -6q2 0 4 -2q48 -78 72 -187q6 -30 12 -112v-2q0 -11 4 -19q0 -2 1.5 -4.5t1.5 -3.5q2 -10 2 -33v-2l2 -2q4 -8 4 -29q0 -2 1 -7.5
t1 -6.5q2 -2 2 -8v-21v-14v-2q6 -85 -10 -209v-8q1 -3 1 -6t-0.5 -7.5t-0.5 -7.5v-47q0 -33 2 -49v-18q0 -2 2 -11t2 -12q0 -24 2 -65v-41q0 -9 -6 -15q-2 0 -2 -4l-2 -4q-8 -8 -17 -8q-43 0 -47 20v2q0 1 -1 3.5t-1 3.5q-1 2 -2 4.5t-1.5 4t-0.5 3.5q-2 2 -2 8q-2 4 -2 8v8
l-2 15l-4 -4q-41 -47 -80 -76q-13 -11 -41 -25v-2q-46 -18 -86 -18zM178 272v-10q2 -2 2 -8v-10q2 0 2 -2q26 -118 76 -181q24 -30 59 -47q1 0 5 -1t6 -1q30 0 34 2l17 4l4 5q21 9 47 32l16 17q29 35 35 47q32 49 47 104l7 21q0 10 2 16v270q0 11 -2 15q-44 6 -86 6h-23
q-70 0 -113 -19q-53 -19 -96 -75q-14 -19 -20 -47h-2q-20 -74 -17 -138z" />
    <glyph glyph-name="b" unicode="b" horiz-adv-x="933" 
d="M455 -35h-29q-12 2 -57 17l-23 10l-2 2l-22 16l-3 2q-34 34 -57 76l-2 -4v-25q-4 -25 -4 -26q0 -11 -2 -19q0 -4 -8 -12q0 -4 -2 -6v-2q0 -9 -8 -14q-3 -3 -9 -3q-5 0 -8 3q-23 9 -33 24q-8 10 -8 41q0 2 -2 4v21q-1 2 -1 4v3.5t0.5 3.5t0.5 3l-12 266v2q-2 10 -2 35v12
q-2 6 -2 17v127q0 12 -2 14v4q0 6 -1 30t-1 38q-2 16 -2 30q-4 91 -4 93v6q-3 21 -3 55q0 39 -2 51v137q-2 4 -2 13l2 12v172q0 27 2 39v18q-2 2 -2 5t1 8.5t1 7.5v2l7 104l2 23v2q2 12 2 27v2l8 69q0 4 2 8v7q0 6 2 8l2 6l4 14q0 7 4 11q0 6 4 6q5 8 19 8h10q12 -4 12 -14
q1 -1 1.5 -3t1 -5t1.5 -5q2 -2 2 -10l2 -4v-2l9 -51v-4q0 -69 -4 -105q0 -22 -7 -123v-207l1 -5q1 -5 1 -9v-18q0 -14 3 -82q18 26 32 37v2q51 45 142 71q30 6 57 6h18q45 -6 97 -29t84 -52l16 -17q2 -2 4 -2l16 -20v-2q38 -64 68 -201q28 -124 25 -203q-3 -61 -33 -182
q0 -11 -8 -39q0 -1 -1 -3t-1 -3v-2q-10 -40 -29 -76l-16 -33l-2 -6q-1 -2 -3 -4q-11 -24 -45 -74q-2 0 -2 -2l-6 -6q0 -4 -4 -8l-2 -2l-4 -2q-12 -20 -39 -43v-2q-57 -42 -102 -58q-4 -2 -15 -2q-2 -2 -8 -2q-8 -2 -20 -2zM315 170v-2q42 -66 86 -102q47 -35 88 -35l23 14
q2 0 4 2q1 0 3 1.5l5.5 4t5.5 4.5v2l7 7q8 4 16 12v2q34 44 49 70l25 40q26 53 47 132q20 64 26 149q5 73 5 88q0 9 -5 92q0 7 -6 43l-6 35q0 4 -2 4q-9 39 -14 55l-6 17q-21 47 -31 63l-6 6l-8 17q-37 37 -80 63t-74 31h-10q-18 0 -39 -6h-2q-4 -2 -8 -2q-1 0 -3.5 -1
t-3.5 -1l-4 -2q-49 -25 -86 -62q-19 -19 -30 -49l-2 -2q-8 -16 -23 -61l-8 -19v-10l-2 -6q0 -2 -2 -4q0 -15 -4 -19v-59q0 -4 1 -8l1 -4q2 -2 2 -11v-2q2 -14 2 -51v-18q0 -1 -1 -2t-1 -2l2 -4v-7q0 -1 1 -8t1 -12v-102l4 -109v-23l2 -2v-8l8 -12q17 -26 31 -76l2 -4v-2
l2 -6q0 -1 1 -2t1 -2q0 -2 2 -4l4 -13q2 -2 2 -4l2 -2v-2q4 0 4 -6z" />
    <glyph glyph-name="c" unicode="c" horiz-adv-x="778" 
d="M426 -27q-38 0 -82 13q-34 8 -61 32q-59 45 -111 134v2l-18 36v3q-55 151 -58 290q-3 56 13 152q0 2 1 13t1 18v8q0 2 2 2q3 33 16 65v2l12 31l2 6v2q14 37 31 68q2 6 8 12l2 2q0 4 4 4q11 28 35 52q39 37 101 73q2 0 2 2l22 9l19 6h2l28 6h2q34 6 56 6q3 0 8.5 -1
t7.5 -1q11 0 31 -4q3 0 7.5 -1t6.5 -1q17 0 21 -4q67 -29 92 -80q12 -30 20 -62q0 -3 1 -7.5t1 -6.5v-4q5 -8 0 -19l-2 -2l2 -2v-18q0 -11 -10 -14q-2 -2 -8 -2t-8 2l-11 6q-8 2 -24 14l-4 6l-13 25l-6 16l-2 4q-2 2 -4 7t-2 6v2q0 2 -2 4l-2 6q-43 65 -82 70q-8 2 -24 2
q-44 0 -107 -29l-4 -2l-19 -14q0 -3 -4 -7q-4 -2 -16 -14l-20 -25q-28 -46 -39 -67q-15 -34 -15 -37l-2 -2q-22 -74 -26 -115q-9 -55 -9 -123q0 -70 9 -141l4 -27q2 0 2 -4q0 -3 1 -11.5t1 -10.5q2 -4 2 -8l8 -31q2 -2 2 -6v-6q12 -39 21 -60v-2l6 -16q41 -90 94 -137
q7 -7 31 -23q4 0 12 -4q2 -2 4 -2q40 -8 55 -8q13 0 33 4q25 6 55 22h2q14 9 41 41l2 6l2 5v2l3 4l4 6h2v4q6 12 8 14q0 3 4 11q8 8 20 8q5 0 13 -4q10 -3 10 -17v-4v-14q4 -7 0 -15q-2 0 -2 -2q0 -4 -2 -8v-2q-17 -46 -35 -59q-57 -42 -121 -53q-31 -7 -53 -7z" />
    <glyph glyph-name="d" unicode="d" horiz-adv-x="880" 
d="M453 -12h-17q-34 0 -61 12q-73 26 -125 90q-57 74 -84 162q-25 71 -43 217q0 4 -1 10.5t-1 9.5q0 17 -2 21v49q2 25 2 66q0 3 1 9t1 9v4q4 35 16 105l6 28q0 1 1 2t1 2q31 75 74.5 137t83.5 87q27 15 78 18h10q25 0 31 -2q55 -13 90 -30t88 -54v-2q46 -40 64 -76l12 -24
v157q-2 2 -2 9v14q0 61 -6 172v31q-2 10 -2 20v4q-2 2 -2 6v15q-2 14 -2 51q0 8 -1 25t-1 26v2q0 11 -3 23q-2 14 -2 28q0 33 -2 49v31q0 5 1 10l1 5v4q2 8 2 14v4q0 3 3 6q7 17 24 17q1 0 4 -1t4 -1l8 -5l5 -4l6 -10q4 -8 4 -12l2 -2q0 -1 1 -3t1 -3l12 -35q4 -10 4 -17
l11 -98q2 -10 2 -37q2 -10 2 -35q2 -31 2 -55q0 -4 1 -14t1 -15q2 -12 2 -30q2 -10 2 -41q2 -12 2 -41q2 -35 2 -66v-16q0 -2 1 -5.5t1 -4.5v-6q0 -16 1 -50t1 -53q0 -18 -1 -58t-1 -61q0 -20 -6 -106v-25q0 -33 -2 -51q0 -6 -2 -12q0 -114 -21 -228v-32q0 -2 -1 -5t-1 -4
v-45q-3 -28 0 -49l2 -22q0 -7 4 -15v-8q6 -69 6 -88q0 -4 1.5 -13t1.5 -13q2 -8 2 -19v-12q4 -11 -2 -17q0 -2 -3 -2v-10q0 -11 -6 -14q-4 -4 -10 -4h-6q-34 14 -39 20q-18 21 -18 51v2q0 1 -1 2.5t-1 2.5q-2 4 -2 10v8q0 2 -3 8l-4 -8q-22 -31 -24 -33q-1 -1 -2 -3l-1.5 -3
t-0.5 -2q-2 0 -2 -2q-30 -27 -60 -37q-59 -16 -112 -16zM387 68l4 -5q35 -16 64 -18h4q1 0 3.5 -1t4.5 -1q1 0 4.5 1t5.5 1h8q49 7 54 12q46 49 79 131q10 24 11 31l6 27l8 30l2 9q0 2 1 4.5t1 3.5v2q0 41 2 61v4q0 27 2 35q0 3 1 12t1 15q2 10 2 33q0 7 3 27t4 26q0 4 1 11
t1 9q0 19 4 39q2 12 2 45q0 6 1 22t1 25q0 5 2 5v6q-6 12 -6 16l-11 16q-21 33 -30 58q-44 97 -80 129q-89 77 -170 80h-6q-26 0 -45 -19q-64 -57 -93 -166l-6 -22v-8q-4 -12 -4 -17v-2q-11 -119 -8 -209q3 -110 23 -192q21 -93 61 -168l2 -4q0 -9 18 -29l43 -47z" />
    <glyph glyph-name="e" unicode="e" horiz-adv-x="839" 
d="M397 -47q-83 0 -164 63q-38 25 -69 80q-57 114 -80 277v4q0 15 -2 31v22q-2 6 -2 14q6 113 41 238q33 127 80 195q57 79 161 131q32 17 56 20q38 6 61 6q15 0 35 -4v-2l43 -16l10 -4q2 -2 4 -2q43 -32 86 -86q5 -5 5 -7q0 -1 4 -8t8 -10q0 -2 2 -4l2 -4v-4q29 -42 41 -95
q34 -123 24 -217q-2 -2 -2 -4q0 -8 -2 -14q0 -10 -2 -18v-3q-6 -28 -28 -34q-11 -8 -35 -11q-20 -2 -72 -2h-94q-58 0 -223 7q-35 0 -49 2q-42 0 -48 2h-18v-45q0 -2 1 -5t1 -4v-30q18 -179 78 -287v-2q11 -27 41 -57l4 -3l2 -2l4 -4q0 -2 6 -8h2q36 -24 58.5 -31.5
t58.5 -7.5q26 0 78 27q50 24 78 65q2 0 2 2l2 2v3l2 4l2 4l2 4q3 9 8 14q1 8 10 25l2 2l2 6v2l2 4q2 5 9 8q18 6 20 6q4 0 12 -4q7 -7 7 -12v-12q0 -6 -5 -21l3 -4q0 -2 -1.5 -4.5t-1.5 -3.5l-8 -21q-22 -57 -49 -77q-92 -68 -182 -74q-4 0 -12 -1t-11 -1zM240 551h47
q88 -2 256 -2h32q77 5 82 10q0 1 0.5 2t0.5 3t-1 5v37q0 53 -8 92l-2 9l-2 10l-10 45v2q-24 72 -57 127q-20 32 -37 45h-2q-45 39 -88 39q-16 0 -31 -6q-66 -21 -125 -92q-43 -51 -88 -166l-10 -39q-1 -7 -2.5 -13.5t-3.5 -13t-3 -8.5v-4l-2 -2l-8 -62q0 -8 -4 -16h62
q2 -2 4 -2z" />
    <glyph glyph-name="f" unicode="f" horiz-adv-x="575" 
d="M219 -10h-2q-22 5 -34 20t-11 37q-2 4 -2 8v17q-6 51 -12 272l-2 4v45q0 2 -1 7.5t-1 7.5v213q0 7 -1 31.5t-1 39.5v62q-2 66 -2 133v63h-56q-4 0 -8 2q-12 0 -20 2h-19q-10 0 -14 2h-2q-6 0 -8 2q-13 3 -13 17q-5 5 0 14q0 5 8 8l9 7q12 6 18 6h23q28 0 34 -2h50
q0 6 2 8v43q0 18 2 26v23q0 2 1 6.5t1 5.5v6q0 13 2 15v2l4 57q-5 5 -2 10l4 19q13 120 22 176q0 3 3 13t4 14q2 10 6 18q0 12 4 18v2q10 29 33 66q19 31 59 47q38 10 63 10q19 0 27 -2h10q5 0 13 -4h2q8 0 12 -4l10 -4q4 0 6 -2l4 -2q11 -4 11 -16v-9q0 -6 -6 -11t-13 -5
q-8 0 -18 2h-6q-5 0 -9 2h-4q-12 2 -32 2h-9q-43 -8 -57 -43q-12 -27 -22 -70l-9 -49q-11 -70 -18 -141q0 -12 -2 -18v-19l-8 -194h4q6 0 8 -2h22q5 0 11 -3h84l8 -2q6 0 10 -4q1 0 3 -1t3 -1l4 -4q2 0 2 -4q5 -5 2 -16l-4 -11q0 -2 -4 -6q-6 -6 -16 -6q-1 0 -2 -1t-2 -1
h-94q-17 0 -21 2h-18v-18q-4 -94 -4 -146v-14q2 -6 2 -18v-2q2 -18 2 -70q0 -15 -2 -19v-14l2 -4v-109q0 -4 -2 -6q2 -12 2 -57q0 -39 4 -133v-37q2 -10 2 -41q0 -39 2 -57v-2q0 -13 2 -17v-6q0 -8 2 -12v-6q3 -28 0 -86q-2 -20 -2 -37v-4q0 -2 -2 -2q0 -14 -10 -21l-2 -4
l-2 -4q-3 -10 -17 -10z" />
    <glyph glyph-name="g" unicode="g" horiz-adv-x="839" 
d="M446 -502h-4q-18 0 -24 2q-68 8 -135 33q-32 10 -68 39v2q-13 13 -33 39.5t-26 38.5v4l-2 4q-2 4 -2 10l-2 4q-3 9 -3 17v28q0 6 3 9v4q7 20 24 20q2 0 5 -1t5 -1q9 -3 13 -14l4 -6l2 -6q0 -1 1 -4t1 -5l4 -8q31 -45 31 -47q36 -51 77 -74q61 -30 140 -30q31 0 43 8
q34 20 59 76q2 2 2 4q4 4 8 20v2q36 109 54 258q8 107 10 152q-47 -62 -98 -88q-57 -31 -123 -31q-20 0 -70 8q-47 8 -96 60q-72 72 -115 194q-5 5 -8 21l-2 6v4q-4 8 -4 12q-4 4 -4 8v2q-35 172 -29 340q3 75 33 187l14 47v4l39 68v2l14 16q10 10 11 12l4 4l2 4
q30 27 63 50q8 8 19 12h4q28 17 55 20q32 4 49 4q33 0 78 -10q4 0 14.5 -3.5t14.5 -4.5l18 -8l2 -2l29 -21l2 -2q23 -17 57 -51l12 -16q4 -8 9 -13l8 -10q4 34 8 53q7 44 19 60q3 7 10 10v2l4 4l2 2q8 4 12 4q10 0 12 -4l3 -2q16 -12 20 -20q5 -8 2 -35v-14q0 -9 -2 -13
v-108q-2 -72 -2 -222v-8q0 -35 2 -47v-221q0 -25 -2 -39v-186l-6 -119q-2 -12 -2 -35q-9 -83 -21 -158q0 -14 -4 -30q0 -1 -1 -2t-1 -2t-1 -5t-1 -6q-1 -1 -2.5 -7t-3.5 -9l-2.5 -12.5t-2.5 -13t-1 -7.5q0 -1 -1 -3t-1 -3l-6 -12q0 -1 -1 -4t-1 -4l-19 -50l-8 -16
q0 -2 -2 -2q-62 -89 -123 -109q0 -2 -2 -2t-8 -1t-18.5 -2.5t-28.5 -2.5zM371 23l6 -3h2l16 -6q74 3 117 31q28 16 49 49q7 7 49 84q0 2 2 2v2l4 13l2 6q0 5 5 10q0 10 2 14q0 4 4 8q1 2 2 6t2 5l4 4v219q0 111 -2 168v22q-2 2 -2 9l-2 4q-2 4 -2 12v4q-2 2 -2 6q-2 2 -2 10
q-3 100 -58 170q-40 51 -131 105h-4l-31 8h-2q0 2 -6 2t-10 -2h-4q-21 0 -25 -4q-35 -9 -63 -33q-20 -16 -29 -28q-34 -45 -57 -111q-21 -63 -27 -158q-7 -87 -4 -151v-19q2 -6 2 -14v-18q2 -6 2 -15q0 -20 6 -47v-16l15 -74l4 -8l4 -21q44 -135 106 -205q23 -26 58 -40z
" />
    <glyph glyph-name="h" unicode="h" horiz-adv-x="858" 
d="M707 -33q-7 0 -9 2l-24 11l-4 2q-13 13 -13 36v7q-2 2 -2 8v295q-2 8 -2 43v32q-2 12 -2 48q0 20 -4 86v12q0 18 -2 24v19q-2 2 -2 6q-6 61 -18 121q-20 124 -62 196q0 3 -2 5q0 4 -4 8q0 2 -4 6q0 4 -2 6t-2 4q-8 8 -10 12q-9 9 -11 13l-18 14l-8 2q-6 2 -21 2
q-44 0 -100 -35q-17 -10 -47 -37l-2 -4l-4 -4l-11 -8q-35 -51 -49 -82l-18 -47v-2q-2 -4 -4.5 -12.5t-5.5 -20.5l-4 -16l-2 -8t-2 -6t-1 -3q0 -2 -2 -2v-24q0 -24 -2 -49v-15q0 -1 -1 -4t-1 -4v-129q0 -30 4 -100v-6q0 -1 1 -5t1 -6v-12q0 -4 2 -8v-35l5 -53q0 -1 1 -4.5
t1 -5.5v-11q4 -16 4 -24q5 -40 2 -92q0 -42 -2 -52q0 -10 -2 -16q0 -5 -9 -14q0 -4 -2 -6q0 -12 -8 -17q-2 -2 -8 -2t-8 2q-22 9 -33 25q-8 13 -8 33v6q-2 2 -2 8v14q-2 2 -2 8v9q-1 7 -19 233l-2 31v6q-2 8 -2 35v8q-2 6 -2 18v109q0 14 2 22v17q2 55 2 98v2l11 92
q0 14 6 60q4 36 4 47v24q4 12 4 19q0 10 2 14v17q0 12 2 16q2 16 2 49v2l2 14q6 70 6 175v53q-2 6 -2 14v4l2 4v47q-2 20 -2 54v26q-2 12 -2 27q0 4 -1 24t-1 27q-2 4 -2 10v2q-2 2 -2 9v6q0 4 2 8v22q0 9 2 13q6 16 31 16q6 0 11 -4t5 -10l2 -4q6 -3 6 -8l2 -3q5 -5 5 -12
l5 -10.5t3 -7.5q10 -29 10 -31q6 -34 10 -102q2 -18 2 -127v-60q0 -53 -2 -92q-2 -35 -2 -57v-13q0 -1 -1 -3t-1 -3v-16l-6 -94q10 12 41 39q46 34 65 45h2q73 37 142 37q8 0 16 -2q9 -3 10 -3q5 0 9 -2q38 -20 78 -65.5t59 -89.5q18 -44 31 -123l8 -27q2 -8 2 -10
q7 -29 10 -63q0 -21 2 -35v-8l8 -82v-27q2 -12 2 -61l4 -144v-51q0 -6 -1 -17t-1 -12v-84q4 -16 4 -24q0 -30 -6 -82v-17q-1 -3 -2 -9.5t-2 -8.5q0 -8 -2 -12q-3 -7 -10 -10q-4 -8 -10 -11q-2 -2 -6 -2z" />
    <glyph glyph-name="i" unicode="i" horiz-adv-x="419" 
d="M211 -37q-4 0 -12 4l-9 6l-2 2l-8 11q-11 11 -4 39v10q0 4 2 8q0 6 6 66l9 84q-3 3 -3 8v28q3 12 3 33q0 24 2 51v27q0 15 -2 27q0 4 -1.5 18t-1.5 23l-8 69v2q0 42 -4 78v2q0 4 -2 6v25q0 10 -2 14v2q-2 4 -2 12q0 5 2 7l-4 32v13l-12 121v2q0 18 -2 26v6q-2 2 -2 9v8
q-2 20 -2 69v33l2 41v6q0 4 2 6v7q0 4 2 4l2 6q0 4 6 10q8 8 20 8q13 0 21 -8q0 -4 4 -4q4 -4 4 -8l2 -4q2 0 2 -4l12 -27q2 0 2 -2q5 -15 5 -66q4 -36 4 -78q4 -24 4 -40l10 -103v-8q2 -4 2 -10v-4q4 -26 14 -148v-10q2 -8 2 -41q2 -10 2 -39q0 -2 3 -8q2 -2 2 -4v-8
q2 -10 2 -35v-17q-2 0 -2 -2q2 -2 2 -6v-43q0 -8 -2 -16q3 -10 0 -31q-2 -23 -2 -72v-18q-3 -3 -3 -8v-13q0 -1 -1 -3t-1 -3l-4 -35v-30q-3 -25 -14 -56q-7 -27 -14 -34q-3 -11 -15 -15l-4 -4q-8 -4 -12 -4zM197 1219h-13q-15 5 -32 22l-4 3q-4 3 -5 5l-4 4v2q-10 7 -10 17
l-2 6q-6 6 -6 14v2q-8 31 -8 58v4l6 16q0 4 2 6l2 4v2q9 16 31 29q2 0 4 2l16 6h2q2 0 6 1t6 1q1 0 3.5 1t3.5 1q0 1 1 2.5t1 2.5q0 12 14 16l18 4h4q20 0 27 -14q0 -2 2 -2l2 -2q4 -8 4 -11q19 -32 19 -84v-6q0 -14 -4 -22l-2 -11q0 -12 -2 -20q0 -1 -1.5 -2t-1.5 -2
l-14 -27q-2 -2 -2 -4l-8 -8h-2q-15 -10 -31 -14h-4q-6 -2 -18 -2zM190 1346l7 -23q0 -1 1 -4t1 -4q2 -4 4 -10l6 38v17q0 2 -2 4q-6 6 -6 10l-4 -2l-2 -4l-5 -10v-12z" />
    <glyph glyph-name="j" unicode="j" horiz-adv-x="421" 
d="M33 -487q-51 0 -74 20q-2 0 -2 2l-12 12q-10 10 -6 21l-7 10l-2 6q-8 11 2 21q3 6 13 6h6q8 -4 14 -4q19 -5 21 -6q12 -6 20 -17h2l8 -10l2 -2q2 0 2 -2h3q2 0 2 -2h4q44 7 85 41t66 84v8q8 21 8 27v2l11 49q0 10 2 16q5 29 8 88q2 23 2 47q0 48 -6 125l-12 123l-15 123
v2q0 1 -1 4t-1 4v8q-2 6 -2 19v4q-2 10 -2 23q-2 4 -2 8v8q-2 8 -2 22q-2 4 -2 13q-2 4 -2 10v18q-2 49 -2 123q0 56 2 70v37q0 3 1 9.5t1 8.5l-2 4v21q2 2 2 4l6 110q0 54 2 60v90q0 10 2 14l2 17v4q0 6 2 8q6 14 23 14q6 0 10 -2q6 0 10 -8q5 -5 8 -14l5 -10l4 -7l14 -59
q4 -62 2 -117q0 -42 -2 -73q0 -6 -1 -17t-1 -14q0 -25 -2 -33v-63q0 -13 -1 -35t-1 -33q0 -34 4 -88v-19q0 -8 2 -10v-6l25 -205q6 -41 12 -135v-12q2 -6 2 -17l2 -6v-2q4 -40 4 -67q0 -15 -2 -19v-14l2 -6v-4q-2 -35 -2 -78q0 -9 -4 -21q0 -4 -2 -6q3 -25 -4 -59
q-11 -46 -35 -121q-1 -1 -2 -5t-3.5 -10t-6.5 -12l-9 -14l-2 -2l-6 -8q-3 -8 -12 -17l-39 -36q-5 -5 -6 -5l-14 -8l-7 -4q-16 -8 -18 -8q-53 -16 -94 -16zM199 1219q-7 0 -11 2q-17 5 -34 22l-9 8l-2 2l-2 4q-8 4 -8 17l-4 6q-4 4 -4 12v2q-8 33 -8 58v6l6 16q0 4 2 6l2 4v2
q4 8 31 29h2l16 6q2 2 4 2t6.5 1t6.5 1h4l2 2q0 3 2 5q0 12 12 16l18 4h5q19 0 26 -16q2 0 2 -2l2 -2q2 -1 6 -9q19 -32 19 -86v-6q0 -12 -4 -22q-2 -6 -2 -11q0 -10 -2 -18q-2 -2 -2 -4l-15 -27l-4 -4l-10 -10q-10 -8 -31 -12l-2 -2q-4 0 -10.5 -1t-9.5 -1zM203 1313v-2
l4 -6l6 41v16l-2 2q-6 6 -6 12h-2l-2 -2q-2 -2 -2 -6q-4 -2 -4 -10v-10l4 -25q4 -4 4 -10z" />
    <glyph glyph-name="k" unicode="k" horiz-adv-x="800" 
d="M641 -16q-18 0 -33 6q-7 0 -10 6l-10 14v2l-6 11h-2v2q-5 5 -5 8l-4 4l-2 8q-88 134 -131 193l-4 4q-4 4 -4 6q-2 4 -4 4l-10 14q-18 13 -33 43l-39 47l-18 23q-13 16 -58 47l-4 4l-20 14l-13 9q0 -57 2 -86v-66q0 -29 3 -53v-10q0 -3 1 -8t1 -7v-16l2 -4q3 -30 0 -94v-3
q-2 -8 -2 -22q0 -8 -1 -17t-1 -10q0 -7 -3 -16t-8 -14v-2q-2 0 -2 -5v-2q0 -10 -8 -14t-10 -4q-1 0 -4 1t-4 1q-15 9 -29 23l-2 2q-10 14 -10 47v6q0 1 -1 4t-1 4v21q-6 96 -11 268v4q0 3 -1 14.5t-1 20.5v102q0 8 -1 20t-1 15q0 1 1 4.5t1 5.5v23q0 1 -1 2t-1 2v69
q0 8 -1 19t-1 12q0 28 -1 59t-1 33l-2 9q0 34 -2 59v211q2 23 2 102v72q0 3 1 17t1 22v16q-3 6 0 13v12l2 10l6 92q4 12 4 56l7 67q2 2 2 6v4q0 1 1 4.5t1 4.5q1 2 2 5.5t2 4.5v4q1 3 2 6.5t1.5 5t0.5 2.5q0 2 2 4v4q6 13 22 13q9 0 13 -2q10 -3 10 -13q2 0 2 -2q4 -4 4 -14
l4 -8v-6l10 -50v-4q0 -21 -4 -71v-33q-6 -75 -6 -123q0 -4 -1 -14t-1 -17v-321q0 -37 2 -53q0 -42 2 -52v-123q0 -3 1 -7.5t1 -6.5v-2q2 -14 2 -51q0 -3 -1 -8.5t-1 -8.5v-10q2 -2 2 -6v-10q2 0 2 2l23 20q0 8 6 11q5 4 23 22q2 1 7.5 7t10.5 8l49 49l92 94q29 29 35 33l6 6
l11 8q31 28 49 49l14 14l27 35l20 33l6 10q0 4 2 6l2 2v3l4 8l7 8l2 2q0 4 4 8l2 2q8 8 18 8q19 0 23 -20q4 -8 2 -12q2 -2 2 -4v-5q0 -1 -1 -4t-1 -4v-2l-12 -45q0 -2 -2 -4q-16 -27 -60 -74l-82 -78l-39 -36l-73 -78q-4 -4 -5 -4q-10 -10 -12 -11q0 -4 -4 -8
q-95 -95 -119 -127q2 -2 7 -6.5l11 -10t11 -11.5q4 0 8 -4q5 -5 8 -5l4 -2l2 -2l56 -43l6 -6v-2l29 -31l2 -2l6 -6v-2l4 -4q14 -14 24 -29l62 -77v-2q7 -10 14 -15q21 -28 25 -37l28 -39q3 -3 3 -4q2 -4 8 -10h2l14 -16v-2q18 -25 41 -74v-2q16 -37 19 -47v-2q2 -2 2 -6
q0 -3 -5 -13v-10q0 -8 -5.5 -13t-12.5 -5z" />
    <glyph glyph-name="l" unicode="l" horiz-adv-x="389" 
d="M225 -23q-5 0 -8 3q-23 9 -33 24q-8 10 -8 43q0 2 -2 2v21q0 1 -1 3.5t-1 4.5v6l-12 268v23q-2 6 -2 18v23q-2 12 -2 37q0 29 -2 45v69q-7 87 -7 99q-6 84 -6 102q0 34 -2 61t-2 50q0 12 -2 16v6q0 6 2 14v7q0 26 -2 34v58q-2 2 -2 8v16q3 36 0 99v155l6 105v12
q4 24 4 43v2l9 68v12q0 4 2 8q0 6 2 10v2l4 15q2 2 2 4q0 4 2 4q7 14 20 14q9 0 13 -2q12 -4 12 -14l6 -10q2 -4 2 -15v-6l10 -49v-2q0 -71 -4 -107q0 -28 -2 -51q0 -15 -1 -39.5t-1 -31.5v-60q2 -84 2 -149q0 -2 1 -8t1 -9v-16q0 -58 2 -111l6 -108q0 -41 2 -111
q0 -9 3 -18q2 -2 2 -6v-4q2 -12 2 -50v-32q2 -6 2 -31q2 -10 2 -29v-2q0 -10 -2 -18v-4q2 -10 2 -43l4 -111q0 -1 1 -4t1 -4v-57l4 -56v-20q4 -12 4 -23q4 -28 0 -96v-25q-1 -5 -1.5 -10.5t-1 -9t-1.5 -6.5q0 -11 -2 -17q0 -6 -8 -14q0 -4 -2 -6q0 -10 -9 -16q-3 -3 -8 -3z
" />
    <glyph glyph-name="m" unicode="m" horiz-adv-x="1351" 
d="M686 -18q-4 0 -6 2l-25 10q-2 0 -6 4t-7 13t-4 15l-1 7v10q-2 2 -2 4v281q0 1 -1 3t-1 3v69q0 5 -1 20.5t-1 25.5q0 55 -2 88v6l-4 49q0 29 -15 110v3q-15 103 -57 188v2q-1 1 -2 3l-1.5 3t-0.5 2q-4 4 -4 6q0 1 -1 3t-1 3l-4 7l-13 16l-4 4q-2 3 -18 19l-6 4
q-16 4 -29 4q-28 0 -76 -23q-25 -14 -39 -31l-6 -4q-4 -8 -10 -8q-38 -55 -49 -78q-6 -6 -13 -24q-2 -3 -5 -11.5t-5 -11.5l-12 -37q-2 -15 -6 -22v-2q0 -2 -1 -4.5t-1 -3.5l-2 -4q0 -5 -4 -13q-2 -2 -2 -6q0 -37 2 -72t2 -69q0 -31 2 -84q0 -4 2 -6q0 -7 2 -9v-6
q2 -10 2 -39q0 -3 -1 -7.5t-1 -6.5v-2q0 -2 1 -4.5t1 -3.5v-17q0 -5 1 -14.5t1 -13.5v-13q0 -4 -2 -6q2 -8 2 -30q0 -20 4 -70v-25q0 -2 1 -10t1 -14q0 -23 2 -31v-14l4 -15q2 -8 -2 -49v-6q-2 -6 -2 -22q0 -2 -1 -5t-1 -4q0 -12 -12 -18q-4 -12 -17 -12q-17 0 -34 14
q-17 8 -17 35q0 1 -1 3.5t-1 4.5v4q-5 49 -8 160h-2q0 1 -1 3.5t-1 4.5v25q0 2 -1 7.5t-1 8.5v102q0 1 -1 3.5t-1 3.5q0 33 -2 49q0 8 -1 16.5t-1 9.5v35l-4 39q-5 62 -5 84v8q0 1 -1 3.5t-1 4.5v11q0 1 1 3t1 3v8q0 2 -1 6t-1 6v45v11v77q0 10 -1 27.5t-1 22.5q0 2 1 9
t1 11v8q0 1 -1 4t-1 4q0 7 2 13l7 57l4 27q0 5 1 12t1 10q2 4 2 8v2q0 3 4 11q3 5 8 8v2l4 4q4 4 12 4h5q14 0 20 -6l2 -2l2 -2l4 -4q1 -1 6 -10l9 -17q0 -2 1 -4.5t1 -3.5q0 -5 -1 -16.5t-1 -16.5v-14q0 -4 -1.5 -23.5t-1.5 -29.5q31 47 82 88q42 30 62 37q55 22 106 22
q17 0 25 -2q6 0 14 -2h4q2 -2 6 -2l9 -6q29 -14 69 -64q37 -46 54 -88q4 -10 16 -63l10 30q19 62 68 123q26 32 55 47v3q72 32 141 32q9 0 13 -2q6 0 16 -2q12 0 14 -2h4q41 -15 87.5 -56t66.5 -81v-2q22 -50 35 -115l10 -28l2 -3q7 -34 10 -59q2 -16 2 -35v-2l3 -4l8 -76
v-22q0 -4 -2 -6q4 -24 4 -58q2 -47 2 -137v-39q0 -35 -2 -45v-100q2 -2 2 -6q0 -26 -6 -90q-2 -8 -2 -19q0 -6 -1 -13.5t-1 -8.5q0 -2 -1 -4t-2 -5.5t-2 -5.5q0 -6 -8 -10v-2q-3 -9 -8 -14q-2 0 -5 -1t-5 -1q-6 0 -8 2l-25 12l-8 8q-8 18 -8 45v2q0 1 -1 3.5t-1 4.5v4
q0 1 1 4.5t1 4.5q-2 31 -2 78v102q2 20 2 53q2 20 2 53v2q0 1 -1 3.5t-1 3.5v57q0 8 -1 27.5t-1 31.5l-2 92q-2 10 -2 25q0 5 -1 12l-2 6v5q-6 54 -18 110q-30 117 -68 176l-8 11q-10 10 -12 18l-16 16l-31 17l-6 2q-6 2 -17 2q-30 0 -62 -9.5t-50 -23.5q-15 -11 -29 -31
l-2 -4q0 -2 -4 -6q0 -2 -4 -6v-2q-32 -66 -41 -92q0 -3 -8 -35q-4 -12 -4 -16q0 -1 -1 -3.5t-1 -3.5l-17 -51l-4 -16q0 -4 -2 -6l-2 -6q0 -3 -4 -7v-4q0 -1 -1 -3t-1 -3l-6 -10q0 -10 2 -16v-13q6 -59 6 -76v-20q0 -4 -2 -6l6 -57q0 -91 2 -136v-8q-2 -4 -2 -14q2 0 2 -4
v-11q-2 -10 -2 -40v-97q2 -2 2 -6q2 -18 -4 -82q-2 -6 -2 -14q0 -5 -1 -11t-1 -8q0 -6 -4 -14t-8 -10l-3 -2q-7 -10 -16 -10z" />
    <glyph glyph-name="n" unicode="n" horiz-adv-x="892" 
d="M223 -35q-6 0 -8 2l-25 13q-5 3 -8 8l-4 14v10q-4 4 -4 11v6q-2 4 -2 12q0 4 2 6q-4 48 4 176v4q0 9 2 13v10q0 10 2 18v23q4 25 4 49q0 19 4 29v127q-2 35 -2 73v6q-2 2 -2 9v14q0 12 -2 16v11l-4 37v10q0 6 -12 116v23q-2 4 -2 10q-2 4 -2 10v11q-3 35 0 73v37
q1 9 2 19.5l1.5 15.5t0.5 8v13q0 6 2 8q0 2 4 6v2l4 10q0 2 4 6q7 11 23 11q11 0 20 -13q0 -2 4 -6t4 -14q13 -26 13 -37q2 -8 2 -35q2 -12 2 -33v-2q0 -1 1 -11t1 -17v-2q13 23 27 37q38 44 108 77q37 22 62 25q40 8 59 8q29 0 67 -10q8 0 19 -8l8 -2l6 -4q35 -27 68 -78.5
t47 -96.5q13 -39 25 -118v-2q0 -7 4 -15q0 -2 1 -4.5t1 -3.5l2 -6v-2l4 -25q4 -20 4 -37v-28l2 -6v-4q2 -14 2 -37q0 -9 1 -21t1 -14v-248q0 -5 -1 -18t-1 -23v-2q-2 -18 -2 -53q0 -4 1 -12.5t1 -12.5v-18q0 -27 -6 -76v-16l-4 -17q0 -8 -4 -12q0 -3 -9 -12h-2
q-4 -11 -14 -11h-6l-25 9q-4 4 -6 4q-12 12 -12 37v6q-3 8 0 16v141q2 33 2 117v117q0 55 -2 90q0 6 -1 22t-1 25q-3 56 -12 113q-16 112 -52 196v2l-4 4q-4 8 -4 11l-8 12l-10 18q-2 0 -2 3l-4 6q-6 12 -19 22l-6 4q-32 19 -63 19q-20 0 -41 -6q-15 -3 -45 -23l-5 -2
q-1 0 -6 -3.5t-8 -4.5q-33 -28 -57 -60q-2 -2 -2 -4q-9 -9 -11 -18q-2 -2 -5.5 -8.5t-4.5 -8.5q-8 -14 -24 -53q0 -6 -2 -10q0 -4 -2 -6q0 -2 -2 -2q0 -3 -5 -8v-2l-8 -17q0 -1 -1 -3t-1 -3v-14q0 -5 1 -12l1 -7v-4q0 -1 1 -4t1 -4q2 -4 2 -14q8 -52 11 -148q0 -19 -2 -37
q0 -18 -3 -39q3 -6 3 -14v-2q3 -15 0 -37v-12q-3 -3 -3 -4v-19q0 -4 -1 -13t-1 -13q0 -11 -2 -17q0 -18 -2 -30l-6 -72v-37l-2 -6v-4q-2 -10 -2 -33q0 -2 1 -6t1 -6v-17q0 -16 -2 -28q0 -21 -2 -33q0 -8 -1 -17.5t-1 -11.5q-2 -2 -2 -4v-6q-3 -14 -12 -20q0 -3 -4 -11l-2 -2
q-8 -4 -13 -4z" />
    <glyph glyph-name="o" unicode="o" horiz-adv-x="825" 
d="M446 -45q-38 0 -94 12h-2l-35 13q-2 0 -4 2l-30 18q-17 10 -43 31q-4 4 -7 4q0 2 -2 2l-12 14q-25 28 -55 76q-4 2 -8 10l-13 29q-72 190 -75 356q-2 22 8 119v12l6 35v2q27 113 72 191q23 45 61 80q23 23 61 43h-6q-4 0 -10 -1.5t-8 -1.5t-4.5 -1t-3.5 -1q-16 0 -19 17
q0 15 13 18q38 12 43 17q2 2 6 2q31 8 94 8h2l14 -2q1 0 4 1t4 1t3.5 -1t3.5 -1h2q2 -2 4 -2h10q17 0 25 -4q142 -40 217 -133q55 -72 92 -252l2 -11v-4l4 -43q0 -17 1 -46t1 -36v-2l-6 -67q-5 -67 -29 -158q-13 -49 -22 -74q-42 -111 -76 -159q-48 -72 -107 -97
q-37 -16 -82 -16zM219 201l12 -23q47 -71 121 -121q67 -43 115 -43q8 0 12 2h2q35 2 72 62l6 6l16 31l33 71q13 27 17 39l2 11l2 2q18 70 20 79l6 27l9 29l12 96q2 25 2 72q0 65 -10 137l-6 37l-9 28q-6 28 -12 41v4q-15 41 -37 78l-22 31l-21 21q-2 0 -2 2q-72 63 -123 75
l-26 4h-2l-2 -2q-7 -3 -27 -6q-8 0 -10 -2h-7q-30 -11 -59 -33q-59 -50 -88 -118v-2q-44 -93 -59 -215q-4 -27 -4 -117q12 -164 57 -279z" />
    <glyph glyph-name="p" unicode="p" horiz-adv-x="892" 
d="M217 -489h-20q-19 0 -25 10q-2 0 -2 6l-2 2q-4 4 -4 8q-4 4 -4 10q0 2 -2 4q-11 54 -19 201v35q-2 0 -2 4v148q0 3 1 10.5t1 11.5v21q-2 29 -2 120q-2 68 -2 123q0 8 1 32.5t1 37.5v67q0 5 2 7q1 5 1 19t-1 20v51q0 3 1 7.5t1 6.5v68l2 16q0 20 2 43q0 13 1 63.5t1 88.5
q0 2 1.5 13.5t1.5 18.5v27q0 3 1 7.5t1 6.5l6 86q0 5 2 11v30l4 21q2 8 2 18v4q0 1 1 4.5t1 4.5q4 8 6 10q0 2 2 4q3 10 17 10v2h10q11 0 14 -6q7 -3 10 -10q4 -4 4 -10q15 -29 15 -31q0 -4 -1 -14t-1 -15q55 64 141 94q33 13 66 13q12 0 18 -2q48 -6 105 -37t92 -70
q2 -2 2 -4l16 -25l18 -26q0 -1 1.5 -2t1.5 -2q38 -99 61 -234q29 -135 29 -219q3 -90 -27 -194q-6 -22 -16 -50q0 -2 -2 -2q-20 -37 -50 -82h-2l-34 -34l-5 -7l-4 -4q-39 -32 -88 -61l-20 -10q-2 -2 -8 -2q-49 -17 -72 -17h-10q-104 9 -178 86l-3 2l-26 43l-17 25v2
q-4 6 -8 22v-30q0 -5 1 -11t1 -8v-4q2 -14 2 -59q0 -5 -1 -12t-1 -9v-106q0 -1 -1 -3t-1 -3q2 -10 2 -49q0 -74 2 -109v-14q0 -1 1 -3t1 -3v-37l5 -41v-4q0 -9 2 -13v-4q2 -4 2 -10q4 -10 4 -51q2 -12 2 -21q0 -4 -4 -8q0 -6 -6 -12q-4 -4 -5 -4l-2 -2q-3 -6 -12 -6zM354 88
l8 -8q16 -22 31 -31h2q11 -9 29 -16q20 -8 31 -8h4q43 3 94 32h2q16 10 43 37q59 65 82 133q19 59 22 148q3 74 -6 184q-4 16 -4 33q-2 10 -2 29q-1 4 -1.5 9.5t-1 9t-1.5 5.5l-2 2q-2 17 -7.5 45.5t-6.5 32.5l-6 25q-9 29 -39 96l-13 24q-35 48 -82 83t-79 38q-2 0 -5.5 1
t-5.5 1q-16 0 -43 -10l-6 -2l-14 -8q-57 -41 -88 -90q-21 -32 -35 -72q-9 -20 -18 -72v-2q0 -4 -1.5 -19t-1.5 -24v-37q11 -11 13 -18q7 -19 -2 -47l-2 -8v-2l-2 -19v-10q0 -6 -2 -10v-64l4 -6q13 -153 36 -239t76 -146z" />
    <glyph glyph-name="q" unicode="q" horiz-adv-x="894" 
d="M737 -502q-6 0 -10 2l-14 11q0 2 -4 6t-4 6q-3 3 -3 4l-2 4h-2q-21 56 -36 197v8q0 5 -1.5 14t-1.5 14q-2 8 -2 29q-2 6 -2 37v127q-4 54 -4 119q-2 53 -2 112q-45 -110 -108 -176l-9 -4h-4l-6 -4l-12 -6t-16 -6l-25 -6l-4 -2h-8q-16 -4 -23 -4q-2 0 -6 1t-6 1
q-48 3 -86 20q-25 9 -43 25q-52 35 -96 92q-47 61 -72 135q-27 74 -33 182q-2 14 -2 41q0 13 2 25q0 2 1 7t1 7l8 59q0 11 4 23q3 3 3 8q13 60 45 152q0 6 2 10l18 39v2q54 86 119.5 149t116.5 78q28 8 55 8q3 0 10.5 -1t11.5 -1h11q2 0 5 -1t5 -1q10 0 16 -4
q78 -30 123 -73q0 -3 4 -7q0 23 2 31q-3 6 0 12q0 5 2 7v2q0 2 1 4.5t1 3.5q4 11 13 14l4 2q2 0 6 1t6 1q4 0 8 -2q5 0 13 -8q1 0 2 -1t2 -1l2 -2q4 -8 4 -10q16 -26 16 -33l6 -74v-364q0 -3 1 -8t1 -7v-6q0 -79 -2 -147v-129q0 -53 -2 -88v-50q0 -18 4 -24v-109
q0 -20 2 -32v-82q2 -8 2 -27q0 -50 7 -104v-19q4 -10 4 -39l6 -37l4 -12v-4l2 -4q0 -1 1 -3t1 -3q6 -23 8 -45q0 -1 1 -3t1 -3t0.5 -4.5t0.5 -6.5t-1 -6q0 -8 -6 -14q-3 -10 -8 -12l-6 -5q-13 -8 -23 -8zM393 47l17 -4q3 -1 9.5 -2t8.5 -2q43 3 82 31l2 2q6 3 12 12l6 10
q4 0 7 6l10 15l6 8q0 1 1 2t1 2q28 55 33 74q1 2 2 5.5t2 4.5q12 34 18 68q33 203 35 225q0 30 8 155v84q-14 38 -18 60q-20 73 -51 112q-46 55 -109 70q-8 2 -20 2q-22 0 -41 -8q-40 -22 -84.5 -71.5t-69.5 -100.5v-2q-1 -1 -14 -31l-13 -39q-34 -121 -43 -239
q-2 -23 -2 -64q0 -54 11 -104v-2q13 -63 51 -138l18 -26l37 -47l19 -21l4 -2q2 -2 4 -2q16 -19 45 -35l6 -4q6 0 10 -4z" />
    <glyph glyph-name="r" unicode="r" horiz-adv-x="581" 
d="M233 -33q-2 0 -4 2q-4 0 -6 2h-2q-15 4 -24 13q-3 2 -9 14v4l-2 2l-2 10v2q0 1 -1 4.5t-1 4.5v10q0 2 -1 6t-1 6q-12 21 -12 31q0 30 -2 63q-2 16 -2 80v23q-2 6 -2 12q-6 41 -6 94v2q0 1 -1 4t-1 4v11q-7 73 -7 75q-1 20 -2 33.5t-1 18.5l-1 4q-2 2 -2 6q0 30 -2 67v5
q-4 8 -4 10v2q-2 10 -2 33v18q0 3 -1 10t-1 11q0 12 -2 18v6l2 10q-2 8 -2 27q0 28 -4 68v16q-2 6 -2 27q0 20 -2 32v11q-2 4 -2 10q0 1 -1 3t-1 3q-2 9 2 53v10q2 14 2 29q0 6 2 8v2q0 14 10 17v2q3 10 8 12q8 4 11 4q1 0 3.5 -1t4.5 -1l6 -4q17 -4 24 -14l9 -19v-2l2 -10
v-10q2 -2 2 -8v-5q3 -14 6 -67q0 -18 4 -96q2 -2 2 -9q0 -3 1 -9t1 -9v-20q2 4 5.5 14t6.5 16l4 13q20 49 58 118q2 0 2 2l24 27v2l2 2l7 8q0 2 2 2q20 22 57 47l33 17l51 18q8 4 12 4h25q6 0 12 -6l4 -4q8 -7 4 -18q-2 -7 -10 -11q-1 -1 -3 -2l-3 -1.5t-2 -0.5q-2 0 -2 -2
l-4 -2q-1 0 -4 -1t-4 -1q-16 -5 -23 -12q-1 0 -2 -1t-2 -1q-19 -8 -49 -29q-37 -37 -47 -53l-2 -2q-13 -18 -17 -27v-2q-25 -49 -39 -86q0 -4 -4 -12v-10l-2 -2q-21 -88 -33 -162l-10 -86v-23q3 -15 0 -43q0 -12 -2 -18v-33q0 -6 -1 -15t-1 -10v-20q0 -19 -2 -35
q0 -57 2 -84v-53q0 -25 2 -37v-2q0 -1 1 -4.5t1 -5.5v-10l2 -5v-4q3 -21 0 -65q0 -8 -1 -17t-1 -10v-8l-2 -2q0 -12 -12 -18v-2q-2 -5 -7.5 -9t-9.5 -4z" />
    <glyph glyph-name="s" unicode="s" horiz-adv-x="655" 
d="M244 -43h-17q-10 0 -30 4l-2 2q-17 3 -35 12q-64 40 -94 99q-24 37 -27 65q-4 8 -4 23q-3 10 2 18q0 2 2 2v17q0 11 6 14q8 4 10 4q1 0 3 -1t3 -1q28 -11 35 -20q2 0 2 -2q11 -11 21 -46q1 -1 2 -3l1.5 -3t0.5 -2v-2l2 -2l4 -10l2 -2l4 -4q1 -2 2 -5.5t2 -4.5l23 -37
q1 -1 11 -12t17 -17t17.5 -14t19.5 -11h2q16 -4 31 -4q41 0 119 33l4 4l12 8l17 13l20 22l21 27q23 39 30 69q6 21 6 37q0 103 -86 189q-27 27 -102 88l-8 6l-14 10l-15 10l-8 9l-23 18q-6 6 -8 6l-4 4l-6 6v2h-4q-27 27 -45 48l-6 6l-13 16v2q-36 62 -36 144q0 46 16 86
q11 27 57 79l4 5q2 2 5 2l14 12l4 4q74 36 137 39h17q36 0 63 -12q32 -10 82 -45l6 -7l8 -8v-2l8 -8q5 0 5 -4l14 -19v-2l4 -4q4 -12 2 -16q0 -13 -12 -19q-1 0 -3.5 -1t-4.5 -1q-6 0 -13 7h-4l-8 6l-14 6l-6 8q-5 0 -9 4q-30 16 -41 25q-49 35 -94 35h-4q-71 -3 -113 -56
q-31 -47 -36 -71q-15 -72 14 -129q0 -3 2 -5l12 -18q0 -2 2 -4q54 -60 203 -178q59 -48 98 -105q5 -9 11.5 -18.5l9.5 -14t4 -8.5q21 -47 24 -71v-25v-22q-3 -39 -16 -80q-2 -10 -12 -25q-10 -27 -35 -55h-2q-40 -42 -115 -86l-12 -6l-14 -7h-2l-21 -6h-2l-37 -8q0 -2 -2 -2
q-50 -4 -61 -4z" />
    <glyph glyph-name="t" unicode="t" horiz-adv-x="514" 
d="M324 -23q-36 0 -62 13q-51 23 -72 76q-6 13 -10 34q-4 15 -14 111v6q-2 4 -2 10v6q-2 2 -2 7q-5 64 -8 227v2q0 55 2 127q0 2 2 4q0 2 -1 8t-1 8v5q-2 2 -2 8v57q0 15 2 19v20q0 17 2 29v43q0 12 2 16q-3 17 0 59l4 48q-23 0 -35 2h-12q-6 0 -8 2q-15 0 -23 2
q-3 0 -8.5 1t-7.5 1t-7 1t-6 1h-2q-8 0 -10 2l-2 2l-4 2q-10 3 -10 16v2q0 11 4 17l6 4q4 4 10 4l8 4q2 2 9 2q4 0 6 -2h37q4 -2 12 -2q4 0 6 -2h31q2 -2 6 -2v45q2 8 2 35q3 27 0 45v22q-2 8 -2 21q0 4 1 17t1 22q0 4 1 12.5t1 13.5v2q0 2 1 6.5t1 6.5q0 12 2 18q0 2 4 10
q2 7 10 11q7 10 17 10h4l24 -8l9 -4q10 -12 10 -31q2 -4 2 -8v-15q3 -34 0 -153q0 -49 -2 -76l2 -4h51q8 0 10 -2h54q2 2 8 2h2q12 0 24 -2q11 0 15 -2q4 0 12 -4q6 -3 10 -11q4 -10 -2 -16v-2q-8 -16 -20 -18q-4 -2 -8 -2h-7q-18 -3 -65 -3h-37q-3 3 -6 3h-43v-31
q0 -3 -1 -10l-1 -7v-69q0 -5 -1 -12l-1 -7v-6v-4q-1 -3 -1.5 -12t-0.5 -23v-4v-5.5t-0.5 -12.5t-0.5 -19.5v-31t1 -43.5v-115q2 -33 2 -123q0 -1 1 -4.5t1 -5.5v-33q0 -2 -2 -2q2 -8 2 -21v-4q2 -4 2 -8v-10l-2 -2l4 -49v-15q3 -55 16 -116q1 -3 2 -10t2 -9v-2q2 -2 2 -8v-2
q12 -24 27 -37h2q5 -7 27 -10h6q18 0 47 6h4l2 2h4q2 2 8 2h2l3 2l14 4h12q4 0 12 -4l5 -4q7 -11 4 -20q-4 -7 -11 -11h-2l-10 -6l-2 -2q-2 -1 -5 -2l-4.5 -1.5t-2.5 -0.5l-43 -16q-2 -2 -4 -2q-40 -5 -45 -5z" />
    <glyph glyph-name="u" unicode="u" horiz-adv-x="884" 
d="M729 -25q-20 0 -35 9l-6 8l-4 8v2l-2 6q-4 4 -4 10v7q-4 26 -10 98q-22 -51 -56 -78q-54 -48 -149 -57q-12 -2 -37 -2q-64 0 -129 30q-9 2 -29 19v2l-4 2l-18 20q-20 23 -29 41l-6 13q-1 2 -12 28t-17 43q-4 4 -4 9l-4 24q-20 137 -20 277q0 33 2 51v53q0 13 1 36t1 34
q0 12 -1 32.5t-1 30.5v2q0 13 -2 23q0 10 -1 30t-1 25q0 71 6 107v4q0 8 2 12v8l6 12v2l10 27q0 4 6 10q8 8 19 8q2 0 14 -4q8 -4 8 -14v-2q2 -2 2 -6v-8q2 -4 2 -9v-12q0 -1 -1 -3t-1 -3q0 -5 4 -29q4 -28 4 -37q0 -6 9 -147q0 -8 1 -31t1 -39q0 -13 -1 -46t-1 -52
q-3 -44 0 -82q0 -145 14 -219l12 -45q23 -67 65.5 -116t80.5 -54h22q60 0 115 35q12 6 18 18v2q16 23 25 49v3l12 28v4q0 2 2 4l9 31.5t10 40.5q0 2 2 2q0 3 1 7.5t1 6.5q0 5 4 13l8 59q6 28 10 76v57l4 37q0 4 2 12v9q0 3 3 12v6q0 10 2 18v115q-2 6 -2 21q0 5 -1.5 15
t-1.5 11q-2 2 -2 4q-3 38 0 133q2 35 2 66v4q3 9 3 19q0 4 2 6q2 6 8 12v6q0 4 2 6v2q0 10 10 17h8q5 0 13 -4l3 -4q3 -4 5 -5q15 -15 18 -22q13 -21 8 -55v-9q2 -4 2 -8v-6q2 -4 2 -8v-17q7 -110 7 -202q0 -28 -5 -193v-16q0 -3 -4 -39v-35q2 -4 2 -8v-4q5 -45 5 -80v-39
q2 0 2 -4q2 -2 2 -6q2 -8 2 -21v-43q3 -9 0 -18q0 -25 2 -37v-2q0 -6 2 -8v-33q2 -4 2 -10q4 -2 4 -11q0 -20 -2 -36v-11l-4 -14q0 -6 -6 -12l-9 -6q-5 -9 -14 -9z" />
    <glyph glyph-name="v" unicode="v" horiz-adv-x="720" 
d="M365 -14q-50 0 -78 106l-6 31l-7 24l-2 3l-12 40v9q-2 2 -2 6l-25 65l-6 21l-37 100l-22 74l-16 47l-21 72l-2 6v2q-4 8 -4 22q-22 90 -31 138l-12 71v2l-6 47q-1 14 -2 25.5l-1.5 17t-0.5 7.5v4l-2 4q0 10 2 14v14q0 23 2 27v6q7 21 26 21q1 0 4.5 -1t4.5 -1
q9 -3 12 -13q0 -1 1 -2.5t1 -3.5q2 0 2 -2l2 -6q4 -8 4 -12q0 -1 1 -3t1 -3q2 -2 2 -9q1 -1 6 -16q13 -36 15 -45l24 -135q14 -68 37 -156l2 -6l23 -76l61 -184q3 -11 6 -14q0 -1 1 -3.5t1 -3.5q4 -12 4 -14q4 -4 4 -6q0 -5 11 -27l16 -39l12 -30v-2l7 24l12 31l2 8l8 25
l19 55q4 12 4 14l2 4l2 2v5q9 23 18 55l4 10l53 150q0 3 3 10t4 10q4 8 4 10q0 5 10 35l4 12t4 15l21 74l8 28q0 7 4 23v6q2 11 5.5 26.5l8 35l6.5 28.5q1 4 2 8.5t1.5 7t0.5 4.5q5 25 5 29q4 16 4 23v4l4 14q0 6 8 14q0 1 1 3.5t1 3.5v2q0 6 4 14q8 4 14 4q5 0 13 -4
q2 -4 10 -8q11 -8 16 -19q7 -10 7 -39v-6q2 -4 -3 -14v-16q0 -9 -2 -15v-4q-24 -137 -96 -358l-2 -6q-1 -2 -2 -7t-2.5 -9.5t-3.5 -8.5l-3.5 -10.5t-2.5 -9.5v-3l-6 -16q-15 -34 -23 -67l-37 -105q-15 -43 -20 -51q-19 -63 -31 -121v-2q-1 -1 -6 -45q0 -59 -19 -78l-2 -2
q-19 -16 -36 -16z" />
    <glyph glyph-name="w" unicode="w" horiz-adv-x="1021" 
d="M643 -14q-35 0 -59 37q-17 22 -31 69v12q-4 16 -4 19q0 5 -1 16t-1 15t-6 45v12l-2 2q-2 25 -13 61l-6 21l-41 125l-10 -23q-6 -16 -19.5 -46.5t-19.5 -45.5q-12 -30 -12 -35q0 -1 -1 -3t-1 -3l-19 -63l-6 -37q-9 -54 -18 -72q-12 -57 -49 -84q-17 -10 -33 -10
q-36 0 -55 43q-15 37 -15 74q-4 12 -4 32q0 4 -1 12t-1 11q-2 2 -2 4v16l-4 25v14q-5 44 -8 58l-6 8l-2 20q-13 60 -62 215q-7 12 -14.5 39t-7.5 33l-5 6l-4 13l-4 12l-33 133q0 2 -4 2l-12 70v16q-10 78 -10 80v35q6 21 6 24q0 2 1 4.5t1 3.5q9 15 27 15q6 0 10 -2
q7 0 10 -6l4 -7l2 -4l4 -10l9 -20q0 -4 2 -6q19 -47 20 -56q11 -78 25 -129q11 -46 35 -129l8 -29l10 -28q6 -27 16 -47v-2l56 -187q2 -2 2 -6q0 -8 4 -10v-6l6 -19q0 -2 2 -2l10 -82l8 19q1 6 9 26q0 1 1 3.5t1 3.5l24 65q0 4 6 10q0 2 2 4v5l2 4q4 4 5 4q4 25 22 57
q26 53 51 123q-6 24 -6 31l-2 2q-2 2 -2 6l-8 24l-31 132v2q-16 71 -18 71q-3 21 -7 44.5l-6 34.5t-2 13v11q-4 2 -4 4q0 16 -2 20v29q0 1 1 3t1 3q9 18 29 18q6 0 10 -2q4 0 10 -6l5 -6l2 -2l4 -8q4 -4 4 -8l2 -6q2 -2 2 -9q7 -5 14 -22q2 -6 9 -19.5t8 -17.5v-2
q2 -4 4 -13l5 -22l5 -22l16 -76l19 -64l18 47q6 24 6 27q0 2 2 2q2 22 11 31q6 37 22 76l10 34v2q9 24 9 43q0 5 4 7l2 12q3 9 10 14v2q0 5 4 13q9 6 16 6q2 0 6 -1t7 -1q32 -19 32 -31q8 -25 3 -51v-10l-3 -5v-4q-2 -4 -2 -10q0 -2 -2 -4q-20 -91 -116 -336q0 -2 2 -9.5
t2 -10.5q4 -12 4 -17l59 -182q6 -18 6 -23q6 -17 9 -20l24 -94q6 -6 6 -15l11 45v5l4 6q1 2 3.5 8t2.5 12v8q0 1 3 14.5t5 20.5q1 5 2.5 14l2.5 15t1 10l2 4l6 15q0 4 4 8q0 4 1.5 10.5t3.5 17t4 19.5l2 4l39 141l4 17l2 8q0 2 1 4.5t1 3.5q1 1 2.5 5.5t3.5 6.5q5 29 14 45
l8 25l15 47l10 31q0 8 2 12q0 2 1 7.5t1 6.5q0 4 2 4q7 32 43 121l25 58v2l8 18q4 4 6 4l6 6l4 9l2 2l4 6q4 8 17 8h2q12 0 16 -12l6 -11q11 -17 11 -22q0 -13 -2.5 -24t-6 -19.5t-4.5 -11.5l-2 -7l-2 -4l-2 -6q4 -4 0 -8l-4 -12q-17 -47 -55 -174l-53 -181v-6q0 -1 -3 -4
l-12 -39l-8 -35q-10 -30 -10 -38q0 -3 -2 -5l-23 -86l-10 -49l-33 -127q0 -1 -1 -9.5t-1 -14.5q-11 -75 -26 -98q-10 -15 -23 -21q-21 -12 -39 -12z" />
    <glyph glyph-name="x" unicode="x" horiz-adv-x="800" 
d="M639 -20h-4l-25 4q-4 0 -8 4l-6 6l-6 8q-6 3 -6 12l-35 78l-23 49l-2 4l-12 23q-14 27 -18 39q-14 19 -29 55v2l-10 21q-4 4 -4 8q0 1 -4.5 8l-11 17.5t-11.5 21.5l-16 27l-46 77v2l-6 -10q-18 -37 -47 -82q0 -1 -1 -3t-1 -3l-4 -8q0 -4 -2 -6l-18 -35q-1 -5 -9 -12
q-2 -2 -2 -4t-2 -2l-2 -5v-4q-3 -1 -12 -20l-10 -19v-2l-4 -4q0 -4 -4 -8l-17 -29l-33 -61l-6 -12l-6 -11q0 -2 -4 -6q0 -6 -2 -8q-9 -18 -10 -22q0 -5 -4 -9q-2 -4 -2 -8q0 -6 -2 -8l-15 -33l-6 -14l-4 -6q-16 -8 -18 -8q-2 -2 -9 -2h-4q-6 0 -8 2h-10q-6 0 -10 4
q-15 4 -15 20v4q-2 4 -2 13q-3 10 0 16q2 2 2 6q0 1 1 3t1 3q0 4 2 6l2 7q0 4 4 8q0 1 5 6q3 6 10 6q1 0 3 1t3 1l37 78q0 2 2 4q0 8 8 16q0 2 2 2v2q3 10 8 15l13 24q0 1 1 2t1 2l18 33q3 3 8 13q3 9 8 14q4 8 7 8v4l39 72l38 74l43 73q-6 12 -6 13q-2 2 -2 4q-1 2 -6.5 12
t-7.5 12l-6 8q0 3 -6 15l-7 10q-2 2 -2 6h-2l-20 41q-3 0 -6 6l-6 13l-74 129q0 4 -2 4q0 2 -8 18l-6 10q-7 3 -7 11q-2 2 -2 6l-4 6l-28 59l-9 19q-4 8 -4 10q-2 0 -2 4q-6 9 -6 16l-8 19q-2 4 -2 12v17q0 6 5 11t11 5q2 0 2 2q1 0 6.5 2t8.5 2q4 0 12 -4l8 -4l2 -4l21 -13
l6 -8q17 -40 24 -47v-4l39 -76q4 -5 14 -23t11 -20l59 -106q2 -2 2 -4t2 -2q4 -8 4 -11l2 -4l7 -8l43 -76l16 33l6 10v2l55 101l17 33q6 18 18 38q0 5 2 5q2 9 11 18l34 68l17 34q1 6 14 31q4 8 4 12l4 4q0 5 4 9q0 6 9 10l4 4q0 7 6 10q4 2 10 2q4 0 8 -2h2q14 0 17 -12
q2 -2 2 -8v-2l2 -4q2 -4 -2 -13q-2 -20 -2 -34v-9l-31 -69h-2l-45 -90v-5l-12 -20q-3 -10 -11 -23l-10 -20l-49 -88q-1 -5 -4 -12t-4 -9q-1 0 -2 -1t-2 -1q0 -4 -2 -6l-37 -73l10 -21q9 -11 47 -90q8 -8 10 -16h2q0 -1 1 -2.5t1 -2.5q4 -4 4 -8q12 -16 19 -30q6 -9 6 -15
q2 -2 2 -4l4 -2q4 -4 4 -8q0 -5 8 -17l13 -26q6 -6 8 -14v-3q10 -13 18 -32l35 -72l8 -12q10 -16 13 -31l18 -39h2v-2l6 -8q10 -21 13 -45q6 -28 -2 -39l-9 -6h-2q-3 -10 -14 -10z" />
    <glyph glyph-name="y" unicode="y" horiz-adv-x="747" 
d="M100 -494h-4q-9 0 -16 11q-4 13 6 20l18 14l5 3q2 2 6 2q2 1 8.5 4t11.5 4l15 4h6l8 2q2 2 4 2q4 2 10 2q52 49 86 131v6q1 1 2 4.5t2 5.5l6 15q0 9 17 47q0 1 1 3t1 3l24 76q0 1 1 3.5t1 4.5l13 33v2l18 63q-8 6 -12 21l-4 8v4l-2 2q-4 8 -4 12v2q-43 76 -68 164v4
l-6 19v2q-3 16 -10 33v4l-6 26q-1 3 -3 11.5t-2 11.5q-6 15 -6 24l-6 17q-12 41 -12 43l-21 59l-18 66v8l-2 4q-2 2 -2 6q-2 6 -2 17l-2 2q0 1 -1 3t-1 3q0 2 -2 2l-2 4v14l-11 31v2l-2 12l-4 15q-20 83 -24 90v8q0 8 -4 16q-2 6 -2 15q-5 5 -5 16q-6 22 -10 64q-4 8 -4 18
q-2 6 -2 23l-4 43q-4 8 -2 12q-2 5 2 14l2 6v2q0 11 6 18t14 7q13 0 23 -10q4 0 4 -4h2q0 -1 1 -2t1 -2l2 -3q4 0 4 -4l2 -4l19 -28q0 -1 1 -4.5t1 -4.5q0 -3 1 -8.5l2.5 -13.5t2.5 -12q2 -7 3 -13.5l1.5 -10t1.5 -5.5q8 -38 8 -41l7 -35l2 -2q0 -2 1 -8t1 -10q2 -5 3 -10
l1.5 -7.5t1.5 -3.5l24 -92v-8l2 -2q4 -4 4 -10v-3l21 -69l18 -64v-4q0 -1 1.5 -5.5t3 -11.5t2.5 -13q2 -6 5.5 -19.5l4.5 -17.5q0 -4 2 -4q0 -1 1 -2t1 -2l2 -5v-2l10 -30q2 -2 2 -7v-10q4 -4 4 -10t4 -10l7 -27v-6q2 -2 2 -6l8 -27q0 -4 14 -65q12 -18 12 -45q3 -12 11 -23
l6 -14l8 -13l4 -6l12 47l39 144l6 28q0 3 3 11.5l4 11.5q0 1 1 3t1 3v4q8 20 8 29v6l2 6l6 17l16 59q-3 5 0 10l7 21q23 85 51 211q0 4 4 20q7 33 10 37v2q0 13 4 21l23 94q13 66 18 80v2q0 8 2 10l6 8v2q0 2 4 6q8 8 27 8q12 0 16 -12q2 0 2 -2q9 -9 9 -14q8 -28 8 -33v-2
l-12 -74v-2q-11 -29 -17 -71l-10 -46l-8 -30q-1 -4 -2.5 -12l-2.5 -13.5t-1 -9.5v-2l-25 -96q-11 -39 -18 -82q0 -3 -5 -8q0 -1 -1 -5.5t-1 -5.5q0 -4 -2 -6q0 -1 -1 -7t-1 -7v-4l-75 -291h-2l-41 -139v-4q-5 -10 -5 -23q0 -4 -2 -8l-2 -2l-14 -58l-2 -2l-10 -26v-6
q0 -5 -2 -7l-21 -63l-4 -8v-2l-4 -8q-11 -37 -16 -48l-33 -92q0 -2 -4 -6q-2 -2 -2 -6t-4 -16l-9 -15q-12 -16 -12 -24l-4 -6l-2 -3q0 -4 -4 -8l-2 -2v-2l-4 -4q-49 -46 -92 -57h-2l-50 -10h-4q-5 0 -8 -3h-20z" />
    <glyph glyph-name="z" unicode="z" horiz-adv-x="677" 
d="M84 4q-40 0 -47 25l-2 4q-4 10 1 23.5t25 49.5q20 32 23 41q3 10 12 23q3 13 10 20l170 332l95 168l16 35v2l2 4l35 64l18 26v4l2 4l31 52q0 2 2 2l2 4l4 8q1 1 4.5 6t4.5 8q2 0 2 4q2 0 2 2l14 27l2 2q0 1 1 3t1 3q-4 0 -8 2h-53q-18 0 -34.5 -1t-21.5 -1q-2 0 -6.5 -1
t-7.5 -1h-160q-31 2 -55 2q-5 0 -20 -1t-25 -1q-6 -2 -19 -2q-10 0 -14 -2h-10l-2 2l-19 -6h-4q-8 0 -16 8q-6 11 2 23q20 20 29 20l45 10q9 3 16 3h6q2 2 8 2h21q37 2 174 2h199q38 0 53 -13q0 -2 2 -4q15 -24 -4 -67v-2l-13 -22.5t-16 -25.5q-6 -7 -14 -21t-10 -17v-2
l-21 -33l-12 -21l-51 -96v-2q-10 -15 -27 -49q-10 -19 -14 -25l-37 -73l-94 -177q-17 -46 -37 -69l-13 -25l-12 -24l-8 -15l-2 -6l-35 -65v-2l-10 -17l-33 -65h45l133 4q39 2 74 2q78 0 92 -2h21q10 0 14 -2l20 -2q5 0 7 -2h2l10 -5l6 -6q7 -10 2 -20q-3 -10 -14 -10h-17
q-4 -2 -8 -2h-39q-14 -2 -41 -2l-133 -5q-14 -2 -80 -2q-62 0 -82 -2q-25 -10 -59 -10z" />
    <glyph glyph-name="braceleft" unicode="{" horiz-adv-x="575" 
d="M461 -311h-43q-8 2 -21 2h-51q-51 0 -102 33t-68 77v2q-26 73 -29 201v10q0 1 0.5 7.5l1.5 19t1 27.5v43v3q1 4 2.5 16.5t3.5 31.5l10 104v15q2 45 6 59q3 96 -2 125q-4 40 -76 90q-23 14 -28 37q-6 37 61 100l4 6l19 25l8 10q10 19 12 31l4 10v2l2 2q9 36 12 66v2l5 20
q3 113 -9 260l-6 82v6q-2 2 -2 7v24q0 93 12 152l2 2q5 22 20.5 48t33.5 36q43 27 108 30h10l3 3h6q3 0 8.5 1t7.5 1h4q12 4 25 4h6q4 0 7 -1.5t6.5 -4t4.5 -3.5q8 -8 4 -16q0 -9 -10 -14l-6 -2l-14 -4q0 -2 -4 -2h-2q-1 -1 -13 -5h-2q-18 -3 -34.5 -7t-23.5 -5.5t-9 -1.5
t-2 -2q-47 -14 -56 -80q-4 -50 -4 -84q0 -22 4 -84q0 -25 4 -65q0 -8 1 -17t1 -10q11 -168 9 -233q0 -1 -1 -4t-1 -5t-1 -7.5t-1 -8.5v-6q0 -15 -5 -25q-14 -50 -86 -137l-47 -55l-14 -15q5 -6 24 -20t23 -18q51 -34 72 -60q18 -22 18 -125q0 -10 -4 -22v-27q-3 -70 -6 -90
q-2 -4 -2 -12v-6q0 -2 -1 -5t-1 -4l-2 -4q0 -5 -0.5 -14t-1.5 -25l-2 -32q-9 -92 -6 -164v-27l2 -4v-10q0 -2 1 -7t1 -8v-12l2 -2v-22q2 -26 14 -62v-2l6 -14q0 -4 2 -6q12 -17 13 -23q11 -19 30.5 -32t38.5 -13h45q27 0 31 -2q17 0 27 -2q2 0 4 -2h2l6 -4h2q0 -2 2 -2l6 -2
l8 -4l4 -2q15 -4 15 -17q0 -7 -5.5 -12.5t-13.5 -5.5q-14 0 -20 -2z" />
    <glyph glyph-name="bar" unicode="|" horiz-adv-x="409" 
d="M262 -500q-6 0 -12 6l-8 9q-15 11 -21 20q-6 14 -6 41q0 8 -2 10v25l-2 4v20l-31 342l-2 5v6q0 2 -1 8.5t-1 11.5v23q0 18 -4 30v324q2 68 2 127q0 43 2 76t2 65v33q0 4 1 12t1 11v43q0 10 2 14v72l2 20q2 53 2 225v232q0 3 -1 17t-1 22v30q0 9 -1 32t-1 32v63q0 19 2 21
v12q8 19 25 19q6 0 10 -2q7 -4 10 -9l4 -8v-2l5 -6q6 -6 6 -14v-2q2 -4 2 -11q18 -59 18 -65q0 -5 1 -17t1 -18l6 -100v-195q2 -16 2 -47q0 -57 -2 -104v-86q0 -11 -2 -17v-4q0 -12 2 -16v-9q-2 -18 -2 -79q0 -10 -1 -37t-1 -43q0 -14 -1 -34.5t-1 -27.5q0 -53 -2 -61
q0 -53 -2 -88q-2 -31 -2 -51v-27l2 -2v-70q0 -14 -2 -20v-115q0 -6 -2 -8v-2q2 -18 2 -57v-7q4 -90 8 -131v-12q2 -6 2 -18v-11q4 -20 4 -45v-4q4 -36 9 -63v-15q2 -6 2 -14l6 -27v-4q4 -58 4 -120q0 -58 -2 -66v-18q0 -7 -2 -9q-4 -8 -8 -10v-8q0 -6 -2 -8q0 -13 -11 -17
q-2 -2 -8 -2z" />
    <glyph glyph-name="braceright" unicode="}" horiz-adv-x="655" 
d="M96 -350q-16 0 -16 16q0 31 8 39q11 11 43 25l6 2q1 0 2 1t2 1q4 0 6 2h3l6 4l8 2h4q12 6 20 6q91 31 113 94q19 56 16 181v6q-4 12 -4 51q0 2 -1 9.5t-1 10.5q-2 8 -2 21q-4 28 -4 51q-6 77 -6 113q0 37 2 55q8 96 25 145v2q24 59 112 93l-35 26h-2l-28 23v2
q-7 5 -33 31q-20 32 -35 63v6q0 2 -1 6t-1 6v5q-12 45 -14 79q-2 2 -2 9v26l12 260v68v29q-8 63 -25 108q-4 14 -26 47q-55 44 -72 56v2q-4 0 -8 4q-4 0 -8 4q-2 1 -5.5 2t-4.5 2l-15 6l-12 6l-12 6h-2q-5 0 -13 4q-3 3 -8 13q-6 12 4 22q6 6 12 6q7 0 9 -2h6l20 -4
q4 0 25 -6q61 -18 84 -31q78 -50 106 -108q30 -58 33 -170v-2q0 -7 -1 -29t-1 -37q-2 -6 -2 -18q-10 -170 -10 -213q0 -15 2 -19v-6q0 -12 2 -16v-4q12 -105 45 -131q19 -19 51 -43q50 -43 58 -55q7 -11 6 -21q-1 -21 -19.5 -40.5t-35.5 -29.5t-46 -24q-19 -8 -26 -15
l-4 -20q0 -1 -1.5 -4.5t-1.5 -5.5l-6 -31q-4 -32 -4 -35v-2l-4 -16q-2 -4 -2 -15v-96q2 -4 2 -10q0 -4 -2 -6l6 -66l5.5 -69.5t3.5 -48t2 -28.5t1.5 -16t0.5 -6v-59q0 -5 -5 -35v-6q-8 -46 -18 -78q-9 -26 -14 -33q-13 -25 -25 -37l-2 -2q-55 -40 -141 -65h-2
q-33 -7 -60 -19h-2q-1 0 -3 -1t-3 -1q0 -1 -1 -2t-1 -2l-12 -6h-2q0 -2 -2 -2q-3 -10 -17 -10z" />
    <glyph glyph-name="asciitilde" unicode="~" horiz-adv-x="1331" 
d="M913 471q-12 0 -22 2q-23 3 -49 12l-23 7h-2l-61 26h-2l-60 31l-63 37l-10 6l-17 8l-18 8l-4 4h-2l-23 13q-1 0 -4 1t-4 1l-8 6q-46 17 -99 20h-26l-2 -2q-1 0 -3.5 -1t-4.5 -1h-3q-2 0 -4 -2q-31 -6 -61 -24h-2q-8 -4 -31 -23q-2 0 -2 -2q-9 -3 -29 -23q-16 -16 -22 -18
q0 -2 -6 -8q-4 -6 -15 -10l-14 -15l-4 -4q-4 -2 -10 -2q-13 0 -21 8q-9 9 -2 23l4 4l4 10l7 10l2 2v3l32 43q2 2 4 2q78 70 175 84q42 6 43 6h2q51 -4 98 -19q4 0 8 -2h4q4 0 4 -2q9 0 11 -2q44 -17 135 -67l8 -5q3 -3 13.5 -8.5t15.5 -9.5l36 -20q6 0 31 -15l17 -8h2
l28 -14h8l9 -4q19 -6 20 -7h57l3 2h10q0 3 2 3h6l8 4q2 0 2 2q6 0 10 4q18 9 19 10l24 18l56 56l30 37l13 14q6 6 12 8l6 6q7 10 17 13q7 0 12.5 -5.5t5.5 -13.5l2 -29v-4q-5 -14 -18 -32q-4 -4 -4 -9q-7 -7 -9 -8q0 -2 -2 -2v-2q-4 -4 -4 -6h-2q0 -2 -4 -6l-8 -8
q-80 -83 -184 -107q0 -2 -5 -2h-2q-10 -2 -41 -2z" />
    <glyph glyph-name="uni00A0" unicode="&#xa0;" horiz-adv-x="616" 
 />
    <glyph glyph-name="cent" unicode="&#xa2;" horiz-adv-x="925" 
d="M473 -4q-7 0 -10 6h-2q-17 13 -21 21q-5 7 -2 30v19q0 6 2 8q0 17 2 29q0 22 2 36l5 68q-49 8 -76 16h-2l-9 4h-2l-75 43q0 1 -1 2.5t-1 2.5l-33 30h-2q-48 48 -68 80q-13 19 -24 47q-32 69 -43 127q-14 60 -11 135q3 67 23 150q2 19 8 31l8 26l6 19h3l6 14v8l6 13l2 2
l29 55q0 8 4 10l12 16q79 108 141 154h2l2 2q31 19 52 27h2l6 2l10 4q0 23 2 35q0 8 1 19t1 13q2 4 2 11v4q8 41 8 47v4q0 6 2 8l2 4q0 5 4 13q4 11 9 16q9 6 20 6q17 0 21 -12h2l4 -8v-2l2 -5q2 -2 2 -8v-2l4 -12q0 -2 1 -4.5t1 -3.5q0 -3 1 -9.5t1 -9.5v-34q-2 -16 -2 -43
v-5q0 -1 -1 -3.5t-1 -4.5q10 2 29 2h2q49 -10 63 -14q48 -15 82 -41l4 -4q2 0 4 -2l8 -6v-2q6 -3 9 -9l24 -22q0 -1 1 -2t1 -2l2 -4q4 -12 4 -17q-3 -13 -14 -18q-1 0 -3.5 -1t-4.5 -1q-4 0 -8 4h-2q-17 8 -19 10q-4 0 -8 4l-6 6l-23 11q-8 6 -28 16q-2 0 -4 2
q-59 30 -93 33h-2q-6 2 -16 2h-2q-2 -14 -2 -41q0 -22 2 -51v-2q0 -14 1 -38.5t1 -33.5q0 -60 2 -70v-10q2 -2 2 -8v-16q0 -2 1 -8t1 -9l6 -106q2 -87 6 -94v-5q0 -69 2 -112v-4q3 -6 3 -13l2 -4v-4l4 -49v-2q0 -14 -2 -18v-7l2 -2v-86v-43q-2 -29 -2 -94v-14h18l23 4
q4 0 12 4q1 0 3 1t3 1q56 27 78 49q6 8 37 39l2 2q2 2 4 2l8 10l2 2q8 8 12 9l4 4l11 10q6 6 12 6q2 0 4.5 -1t3.5 -1q10 -7 10 -18q-2 -14 -2 -29q0 -6 -2 -8q-4 -7 -10.5 -16.5t-13.5 -18t-8 -10.5l-5 -4q-4 -4 -6 -4q-1 -2 -2 -3t-1.5 -2t-0.5 -2l-4 -4l-2 -2l-10 -8h-2
q-71 -45 -180 -51v-4q-2 -14 -2 -43v-35q-2 -25 -15 -68l-14 -36l-4 -9l-10 -6l-3 -4l-2 -2q-6 -6 -14 -6zM414 285l26 -15q2 0 6.5 -1t6.5 -1v199q0 2 -1 11t-2.5 32l-3.5 53v2q0 28 -6 97v2q0 41 -6 110v17q-2 2 -2 8v37q0 4 -1 8l-1 4v18q-2 27 -2 54v18q-2 12 -2 47
q-2 14 -2 47q-2 41 -2 76v47l-2 2v10q-18 -6 -41 -26q-53 -48 -98 -119l-9 -16v-2q-8 -8 -8 -15h-2q-58 -137 -67 -252q-6 -62 0 -131v-2q0 -7 8 -26l12 -50q0 -4 2 -6l4 -16l4 -14h2l2 -7q18 -40 31 -59v-2l8 -16l2 -2l35 -41q52 -52 109 -80z" />
    <glyph glyph-name="sterling" unicode="&#xa3;" horiz-adv-x="962" 
d="M412 -10h-158q-4 0 -4 2h-33l-47 6q-6 2 -23 2h-4q-18 6 -26 6h-4q-1 0 -4.5 1t-4.5 1q-4 0 -8 4q-16 0 -16 19v6q0 13 12 16l2 2q4 2 10 2h13q8 2 14 2q19 0 49 -6q11 0 25 -1t18 -1l10 -2h17q-2 4 -2 12q-2 2 -2 9v10q-2 2 -2 6q-7 79 -13 297l-2 4v139q0 90 2 113v37
q0 4 1 12t1 10v50h-88q-9 -3 -20 -3h-8q-2 0 -8 3h-3q-16 0 -16 16q-6 6 -2 14q3 7 10 10q10 5 13 5l16 8h6q23 0 37 2h49q3 0 8.5 1t8.5 1h2q0 31 2 45l12 147l24 154v4l7 25q0 4 4 20v2l4 8q0 21 10 41q0 9 4 13q4 19 23 65l2 2l8 17q59 109 108 147v2l46 27l4 2h4
q1 0 3 1t3 1h2q2 2 4 2q45 10 78 10q14 0 22 -2q30 -3 60 -12q56 -20 86 -41v-2l2 -2l6 -2l2 -2l4 -2q14 -7 16 -15q18 -15 19 -16q4 0 4 -2l2 -2q1 -1 6 -10l2 -11q0 -10 -4 -14q-6 -6 -14 -6h-2q-4 0 -8 2l-17 8q-4 0 -16 8q-2 0 -4 2h-2l-25 13l-37 16q-64 30 -92 33h-2
q-8 2 -23 2q-28 0 -61 -17q-19 -6 -31 -24q-42 -51 -67 -109l-10 -35q-45 -142 -60 -266q-12 -82 -18 -158v-69q34 0 63 -2q19 0 39 -2v2h37l2 -2h35q10 0 16 -2q12 -2 37 -2h49q2 2 8 2h2q21 0 37 -2h17q4 -2 6 -2q6 0 14 -4q4 -4 4 -5l2 -2q10 -10 4 -22l-6 -10
q-1 0 -2 -1t-2 -1q-7 -9 -22 -9h-15q-4 0 -17 -1t-22 -1q-7 0 -27.5 1t-35.5 1h-35q-10 0 -16 2h-27q-21 0 -35 2h-84q-7 0 -10 3h-20q0 -3 -1 -8.5t-1 -8.5q0 -2 -1.5 -5.5t-1.5 -6.5l3 -4v-4q0 -11 -3 -90q0 -5 -1 -13t-1 -10v-4q0 -2 -2 -4q2 -14 2 -66v-2q-2 -25 -2 -76
q0 -48 2 -73q2 -8 2 -31v-18v-29v-8l5 -64v-18q2 -2 2 -6q0 -13 2 -19v-6q4 -40 2 -88q-2 -18 -2 -33v-6h16q55 2 98 2q10 2 33 2h19q4 0 8 2h6q10 0 20 2h50q6 2 26 2q33 0 47 2h2q3 0 7 1t6 1h18q15 0 21 2h4q1 0 4 1.5t4 1.5h53q18 0 27 -3h6q4 0 8 -4q13 0 16 -10
q7 -11 -4 -18v-2q-7 -13 -14 -13q-10 -6 -25 -6h-14q-24 0 -59 -2l-54 -4q-2 0 -5 -1t-5 -1h-24q-6 -2 -19 -2h-37q-6 -2 -16 -2h-27q-8 -2 -16 -2t-19 -1t-14 -1q-10 -2 -16 -2q-35 0 -47 -2z" />
    <glyph glyph-name="yen" unicode="&#xa5;" horiz-adv-x="987" 
d="M502 -25q-2 0 -2 2l-11 3h-2q-10 2 -22 10q-6 6 -6 14q0 1 -1 2t-1 2v2l-2 8v7q-2 2 -2 8v4q-4 40 -7 133v76q3 6 3 12v61q-3 3 -3 9v55h-28q-2 0 -8 1t-9 1q-1 0 -4 -1t-4 -1q-2 0 -4 2h-6q-46 0 -78 4q-2 0 -7.5 1t-8.5 1h-19l-45 6q-4 2 -12 2q-6 0 -10 2q-4 0 -6 2
q-5 0 -12 1.5t-9 1.5h-4q-1 0 -4 1t-4 1q-6 0 -10 4l-6 2q-5 2 -7 4l-2 2q-4 8 -4 12v6q0 15 15 19h2q1 0 3.5 1t4.5 1h4l22 2q2 0 12 -1t15 -1q8 -2 18 -2q5 0 7 -2q2 0 22 -2t27 -2q2 0 4.5 -1t3.5 -1h20q18 -3 33 -3q14 -2 31 -2h16q2 0 12 -1t17 -1h22v33l3 2v37
q2 6 2 84v20l2 7v14l6 51v10h-31q-6 -2 -16 -2h-37q-15 0 -25 -2q-14 0 -22 -2h-66q-31 0 -45 2h-22l-29 2h-2q-1 0 -3.5 1t-4.5 1h-2l-4 2l-7 3q-4 0 -8 4l-4 4q-5 5 -5 12t5 12l4 4q9 9 17 9h4l18 4l4 2q2 0 4.5 -1t3.5 -1h113q13 0 35.5 1t30.5 1h6q2 0 4.5 1t3.5 1h39
q4 2 12 2q-11 19 -20 39l-2 2q0 1 -1 3t-1 3t-1.5 3t-1.5 3q-4 12 -4 16l-8 17q-4 8 -4 14l-16 37l-6 8l-7 15q-26 61 -90 178l-24 45l-2 2l-4 12l-2 4q-7 5 -13 23q-30 45 -55 102l-29 47l-16 31l-12 20l-2 2l-7 9v4q-2 2 -2 8v2q-9 22 -2 33q10 10 21 10q2 0 4.5 -1
t3.5 -1h2l8 -4q7 0 10 -6h3q11 -7 32 -29q1 0 2 -1t2 -1l56 -86v-2l71 -129q16 -24 37 -66q11 -25 42.5 -85l35.5 -68q4 -5 10 -21q4 -4 4 -8q4 -2 7 -8q0 -5 20 -45l27 -51q0 6 4 18l4 6v10l16 33l8 13v2l13 20l2 4l2 2l28 53q0 1 1 2.5t1 2.5l3 2q0 2 2 4l2 4q0 2 4 6
l18 37q25 43 51 98l11 21q0 2 2 2q0 1 1 4t1 4q8 21 16 31l27 47l8 18l4 12l2 2l4 9q8 24 49 84l31 43l8 12l2 2q6 6 13 6l10 10q6 6 12 6q1 0 4 -1t4 -1q10 -3 10 -16q1 -2 3 -4q0 -2 1 -6.5t1 -7.5v-15q-7 -18 -23 -45h-2q0 -1 -1 -4t-1 -4q-2 -2 -2 -4l-2 -4l-4 -4v-2
q-13 -31 -62 -117l-63 -121v-6l-8 -14q-6 -12 -6 -13t-1.5 -2t-1.5 -2l-12 -24v-2l-10 -15l-6 -12v-2l-37 -68q0 -2 -2 -2l-8 -16q-10 -15 -11 -18q-27 -49 -34 -78h-2l-11 -35l-12 -41h53q4 0 6 -2h64q2 0 4.5 -1t3.5 -1h19q4 0 4 -2h20q2 0 4.5 -1t3.5 -1h15q26 -4 37 -8
q7 0 10 -3h8q1 0 3.5 -1t4.5 -1l8 -6l4 -4q9 -5 9 -10q7 -11 -4 -18l-11 -11q-6 -8 -20 -8q-2 0 -4 2h-8q-1 0 -4 1t-5 1l-4 1q-5 1 -10 1q-3 0 -14 1t-19 1h-2l-55 8q-1 0 -4 -1t-4 -1t-3 1t-3 1h-33l-4 3h-84v-23q0 -4 -1 -15t-1 -18q-2 -10 -2 -28v-54q-2 -10 -2 -30v-95
h18q8 2 25 2q4 0 8 -1l4 -1h35q6 2 24 2h99l4 2h12q1 0 4 1.5t4 1.5q16 0 43 -3h19q2 0 4.5 -1t3.5 -1q2 0 5 -1t5 -1l6 -4q8 -4 10 -10q7 -11 -4 -18v-2q-11 -17 -26 -17h-9q-1 0 -3.5 -1t-4.5 -1h-49q-10 -1 -36.5 -2t-39.5 -2h-127q-5 0 -11 -1t-7 -1h-16q0 -22 -2 -45
q0 -4 2 -6v-6q3 -12 0 -29q0 -6 -2 -8q2 -2 2 -6v-35l-2 -6v-25q-3 -25 0 -49v-57q2 -4 2 -11v-4q2 -2 2 -8v-2q2 -8 -2 -37v-12q-2 -6 -2 -23q0 -5 -3 -8q0 -14 -12 -18l-2 -2q-4 -11 -16 -11z" />
    <glyph glyph-name="dieresis" unicode="&#xa8;" horiz-adv-x="552" 
d="M375 1284h-15q-1 0 -3.5 1t-4.5 1v2h-2l-12 4h-4l-4 2v2q-32 16 -41 41v6q0 11 2 21q0 10 6 16q13 16 29 27l20 10v15l4 10q3 8 15 12q1 0 4 1t4 1h12q50 0 84 -37l2 -2q2 -1 8 -14v-4l2 -2l2 -13v-4q0 -10 -2 -18q-3 -18 -12 -33l-8 -10q-13 -17 -29 -23q-8 -4 -24 -8
q-10 -4 -33 -4zM133 1274q-8 0 -12 2h-4q-13 3 -19 14l-4 2q-2 0 -6 4l-2 2q-4 4 -4 9l-6 12q-4 8 -4 12v8q3 37 24 64l6 6l4 6l3 2q6 6 12 6l6 2l2 2l12 15q8 8 23 8h4q2 0 4.5 -1t3.5 -1h10q26 -6 46.5 -30t21.5 -52v-4q0 -6 -2 -10v-2l-2 -11q-4 -8 -8 -10l-6 -4l-13 -16
l-4 -4l-6 -5q-12 -9 -25 -16q-15 -6 -28 -6q-16 -4 -27 -4zM377 1350q7 -7 14 -7h2v35l-8 -6l-10 -8q2 -4 2 -14z" />
    <glyph glyph-name="copyright" unicode="&#xa9;" horiz-adv-x="1384" 
d="M696 -63q-40 0 -84 6q-162 27 -290 129q-18 15 -46 43q-18 18 -36 47l-13 20q-32 50 -37 60h-2l-12 26q-35 78 -53 154l-10 47q0 2 -2 2q-14 136 -11 283q6 143 31 250q14 61 55 151l7 14v2l6 13q16 28 18 30q42 65 88 123q35 38 96 86q55 42 127 62q52 14 105 16h18
q20 2 49 2h21q6 -2 14 -2q3 -1 10 -2t9 -2l8 -2h2q6 -2 10 -2q6 0 27 -6h4q27 -4 104 -29h2l21 -10q2 -2 6 -2l25 -12l2 -2q1 0 2 -1t2 -1q10 -5 22 -17q156 -126 226 -299q58 -139 67 -387v-18q-3 -114 -16 -185q-5 -29 -25 -98q-37 -111 -86 -203q-37 -59 -59 -90
q-107 -119 -209 -158q-93 -38 -193 -38zM528 29q94 -27 187 -27q59 0 106 8q28 6 56 25q2 0 2 2q60 33 92 65l4 4q34 30 41 41l8 11q31 40 78 129h2l16 37q0 4 4 8l17 47l22 74q31 152 31 307q0 21 -4 61v2q0 11 -2 23q0 2 -4 22l-8 76q-17 78 -43 143l-23 54l-25 49
q-90 130 -139 170q-45 34 -96 57q-2 0 -2 2q-8 4 -35 13h-2l-12 4q-10 4 -17 4h-2q-68 12 -106 12q-19 0 -27 -2q-139 -15 -219 -86q-99 -80 -176 -256q-35 -72 -47 -156q-20 -102 -23 -229q-3 -129 8 -195v-6q1 -3 4.5 -16t4.5 -21l10 -45q53 -168 115 -254q41 -56 95 -98
t109 -59zM618 285h-20q-1 0 -3 1t-3 1l-2 2q-39 12 -53 22q-3 0 -5 2l-22 21q-25 25 -49 57v2q-19 32 -21 37q-26 57 -34 102q-15 56 -19 119q0 103 2 133l2 25l2 2l6 25q0 3 1 10t1 10q2 6 2 16t7 17q6 27 16 59v2l6 17v2q48 102 100 151q8 8 41 31l2 2l5 2h2l14 6
q55 19 94 19q23 0 58 -13q51 -16 71 -24l8 -4q4 -4 7 -4l6 -7q6 -3 6 -8l2 -6q8 -19 8 -24v-7q0 -1 -1 -4t-1 -4q-3 -6 -18 -16q-1 0 -4.5 -1t-4.5 -1q-6 0 -12 6q-9 4 -12 14l-6 6l-25 11q-77 26 -90 26h-8q-36 0 -70 -22l-2 -2q-8 -3 -27 -27q-35 -47 -61 -115l-2 -4
q-6 -15 -6 -24q0 -2 -2 -2q-30 -141 -27 -234q4 -79 10 -117q0 -5 7 -24l12 -39l2 -8q0 -2 2 -2v-11q0 -6 2 -10h2l2 -4v-2l4 -8l17 -39l4 -4l2 -2l2 -4q0 -4 2 -6q11 -11 18 -25q28 -28 58 -41l16 -4l12 -4h13q1 0 3 1t3 1q30 0 45 6l20 8l13 8l49 64q25 32 37 41l12 10
q6 6 16 6l10 6q10 5 11 5q7 0 12.5 -5.5t5.5 -13.5v-2q0 -2 -1 -4.5t-1 -3.5q0 -4 -2 -6v-4q0 -1 -2 -6t-4 -7l-6 -12l-11 -14q0 -5 -6 -8q0 -5 -12 -23v-2q-37 -41 -104.5 -68.5t-133.5 -27.5z" />
    <glyph glyph-name="guillemotleft" unicode="&#xab;" horiz-adv-x="675" 
d="M520 51h-33q-8 2 -18 17l-4 6q0 2 -2 2v2l-4 4v2q-4 4 -4 8l-86 162v2l-4 6q-3 11 -9 17q-4 4 -4 8q0 1 -1 2t-1 2l-4 6l-2 4l-10 23l-23 51l-2 2q0 4 -2 6q-6 12 -6 18q-1 2 -5.5 12.5t-9 19.5t-7.5 13q0 3 -3 3q-12 37 -12 51q0 18 15 53v4l2 6l4 8l4 4l8 13v4
q0 11 8 14l14 29l43 72l33 51q3 9 15 24q6 12 6 13q2 0 2 2v2l6 8v2l2 2l41 61q2 2 2 5q13 11 25 34q3 5 6.5 12t5.5 9q3 7 10 10l4 4q8 4 15 4h2q23 0 26 -16q2 -4 2 -8v-13q0 -8 -2 -10q0 -16 -4 -20l-31 -54l-2 -2q-3 -5 -14 -22l-20 -30.5t-15 -20.5l-22 -39v-2
q-49 -74 -56 -92l-6 -13l-4 -8l-2 -2q-33 -81 -33 -90q0 -2 1 -7.5t1 -8.5q2 0 2 -5v-2l7 -6l8 -22v-2l2 -13l4 -6q2 -6 4 -8l12 -27v-4q2 0 2 -4q2 -2 2 -6q9 -15 13 -27q7 -17 37 -71l8 -15q2 -2 2 -6l2 -4q5 -5 8 -14q0 -4 2 -4v-2l18 -37l9 -10l4 -9l4 -2q0 -1 1 -2
t1 -2q9 -16 27 -57v-2q0 -1 6 -25q2 -6 2 -14q0 -10 -6 -14q0 -7 -5.5 -13t-11.5 -6zM303 68q-4 0 -12 4q-9 3 -15 12l-4 6q0 2 -2 2v2l-4 4q-4 4 -4 8l-80 162l-10 21q-8 8 -12 24l-8 15q0 2 -2 2q-12 38 -17 43q-4 8 -4 10q0 4 -4 8l-4 10v2q-10 30 -17 37l-4 6
q-10 30 -10 43v3l12 61q0 4 7 18l2 4v5q8 24 12 30h2q5 14 8 19q0 2 4 10l4 6l54 94q0 3 8 15l6 10q0 4 4 8v2q4 8 8 10l12 23l17 24q3 14 14 31l4 8l11 23q0 2 4 10q4 4 4 6h2l2 4q2 2 2 5l2 2q8 6 22 6q5 0 7 -2l4 -2q5 -2 10 -11v-2q2 -4 2 -6q2 -4 2 -8v-6q3 -29 -2 -39
l-27 -53q-7 -21 -22 -39l-17 -29v-2l-18 -31q-33 -61 -41 -78q0 -2 -2 -4q0 -1 -1 -3t-1 -3l-2 -2l-2 -4q-25 -73 -25 -100v-4q-3 -14 0 -17v-2q0 -1 3 -5t5.5 -9.5t4.5 -11.5l2 -11q4 -4 4 -6q0 -6 6 -12l6 -16q4 -8 4 -11q2 -2 2 -8q7 -11 10 -24l35 -70q6 -12 6 -14
q15 -20 17 -33l16 -31q0 -2 2 -2v-2l6 -12l6 -8l2 -3q17 -29 23 -53q0 -2 1 -5.5t1 -4.5q4 -10 4 -16v-5q3 -7 0 -10q0 -4 -6 -10q-3 -11 -14 -14l-13 -2q-2 0 -6 -1t-6 -1z" />
    <glyph glyph-name="uni00AD" unicode="&#xad;" 
d="M610 702l-37 -4q-24 0 -30 2l-123 -6q-6 -2 -19 -2l-36 2q-13 0 -21 -2h-12h-64h-2q-8 2 -20 6l-2 2l-8 -2l-48 2h-2l-8 2l-10 -4l-29 7q-4 0 -6 2q-6 0 -10 2l-2 2q-7 -2 -15 6q0 9 3 14v2q0 10 4 12q5 11 10 11q4 4 8 4h6h13q4 2 8 2h2h39q4 0 14.5 -1t15.5 -1
q8 2 21 2l16 -2l10 -2h18t15.5 -0.5t11.5 -1t8 -0.5h3l24 4q2 -2 15 -2q3 0 9.5 -2t10.5 -2l70 4l16 2l68 2l4 -2q2 2 6 2q2 0 6.5 -1t7.5 -1l101 6q2 2 8 2q18 0 41 2h12q4 -4 8 -4h4q2 0 6 -1t5 -1l2 -2l4 2q12 -4 12 -16v-5q0 -4 -2 -4q-1 -7 -10 -20q-3 -6 -12 -8
q-1 0 -2.5 -1t-2.5 -1l-20 2q-67 -7 -113 -9z" />
    <glyph glyph-name="registered" unicode="&#xae;" horiz-adv-x="1003" 
d="M528 555q-68 0 -145 25h-2l-31 14l-2 2l-31 18h-2l-39 31q-3 2 -16 19q-27 30 -53 69l-2 2l-12 25v2q-65 165 -62 295q0 27 12 98l2 10l7 21q2 2 2 6q40 106 84 158q23 36 63 65q48 33 90 51q0 18 15 21q40 8 47 8q13 0 79 -8h5q2 0 4 -2q6 0 10 -4h4l4 -2h2q2 0 5 -1
t5 -1h2q3 0 5 -2q12 -3 18 -9h4q88 -50 159.5 -151t102.5 -219l2 -11v-2q2 -16 2 -59q0 -37 -2 -51q-4 -40 -8 -58q-12 -62 -35 -124l-28 -58q-49 -82 -95 -119q-55 -46 -125 -55q-32 -4 -45 -4zM518 614h8q61 0 113 35l20 21l37 49v2l2 2q13 18 15 22l2 7q0 1 1 2t1 2
q24 58 31 80q2 0 2 2q6 15 6 18q0 1 1 4t1 4l6 31q1 4 2.5 12.5l2.5 14t1 8.5v2q6 44 6 90q0 26 -4 80l-6 35v2q0 1 -1 4.5t-1 5.5l-4 10l-10 41q-12 38 -33 72q-9 18 -15 24h-2l-22 25q-65 68 -107 88q-58 23 -79 29l-17 2l-2 -2h-10l-2 -2q-48 -15 -68 -33h-2
q-68 -45 -102 -100q-43 -70 -64 -177q-10 -57 -8 -88v-2q3 -118 43 -219l8 -20l2 -2q3 -9 9 -15q0 -2 2 -2q43 -63 112.5 -111.5t124.5 -52.5zM616 737q-6 0 -8 2q-7 0 -10 6q-4 0 -4 7q-6 6 -19 32l-2 4v3q-6 3 -6 10q-6 6 -6 18l-2 4q-4 8 -4 13v2l-12 16v2q-4 8 -4 10
q-2 3 -9 15.5l-10 17.5q-4 4 -4 6l-6 8q-6 6 -6 15q-8 4 -8 12l-21 31q-2 2 -2 4q-2 0 -2 2q-8 4 -8 10l-10 14l-7 5l3 -2q2 -2 2 -9q2 -4 2 -18v-51q0 -21 2 -31v-25q0 -8 2 -12v-8q4 0 4 -4q3 -15 0 -33q-2 -2 -2 -6l-2 -14v-5q-5 -14 -17 -18q-8 -8 -14 -8q-22 0 -35 10
l-6 4l-4 6q0 4 -2 4l-2 7v4q-2 2 -2 8v2q-6 28 -8 82q-2 4 -2 16v53q0 8 -1.5 17t-1.5 12q-4 16 -4 33q-2 8 -2 37v6q-2 4 -2 8v35q0 34 -2 57v27l4 33v4q0 23 6 37q0 7 7 14h2v2q0 4 4 4l2 2q0 4 6 4l6 2q2 2 6 2t8 -2q1 0 3.5 -1t3.5 -1h6q8 0 20 1t15 1q39 -3 59 -10
q30 -8 55 -20q9 -4 23 -13q22 -14 37 -35q2 0 6 -4t4 -10q2 -2 2 -6q11 -36 -2 -76q-8 -16 -23 -31v-2q-2 0 -2 -2q-2 -6 -12 -16l-6 -4h-2l-15 -12l-4 -4l-4 -3l-10 -6l-12 -6l-10 -6v-2l4 -4l20 -25l4 -6l4 -6l4 -4l31 -49v-2l12 -25l7 -6l6 -10q2 -2 2 -8q4 0 4 -7v-2
l6 -10v-6l4 -8v-2q0 -5 4 -13q8 -4 8 -12q2 -2 2 -8l9 -8q6 -6 6 -27q0 -17 -13 -26l-2 -2q-10 -5 -12 -5l-2 -2q-3 0 -9 -1t-9 -1q-2 -2 -9 -2zM442 1120v-14l4 -33v-6h3q4 2 8 2q6 2 16 2q6 0 10 -2l19 6q0 2 2 2q1 1 10 6q1 0 3.5 3t4.5 4l4 4q2 0 4 6l7 6l10 14l4 19v2
l4 8q-2 4 -2 8v8q-2 2 -2 9q-2 8 -10 20l-9 8l-10 6l-35 15q-13 7 -20 8l-27 6v-41q0 -3 -1 -9.5t-1 -8.5q0 -1 1 -5.5t1 -5.5v-8z" />
    <glyph glyph-name="acute" unicode="&#xb4;" horiz-adv-x="514" 
d="M178 1124q-4 0 -8 4l-16 11q-10 3 -13 12v27l2 4q3 11 29 57q0 4 4 8q0 4 4 8l4 5l4 6l13 14q2 2 4 2q2 9 14 21q4 12 12 22l17 21l4 6l2 2q0 1 1 2t1 2l2 2l4 4l8 10v2h2l21 35q2 0 2 2t2 2q0 9 8 17l10 14l9 16v2l4 4q0 15 14 15q3 6 10 6q19 0 25 -12q1 0 2 -1t2 -1
q6 -6 6 -15l4 -12q2 -4 2 -12l-2 -2q-6 -19 -10 -25v-2l-8 -8l-11 -15q0 -4 -4 -8v-4l-4 -4l-6 -10q-11 -11 -14 -17v-2l-2 -4q0 -1 -1 -2t-1 -2q-5 -10 -21 -26l-12 -17v-2l-14 -16q-2 0 -2 -4q0 -1 -5 -6l-6 -9q0 -2 -2 -2q0 -2 -4 -6q0 -1 -1 -3t-1 -3l-8 -8
q-4 -8 -8 -10q-6 -12 -6 -15l-4 -8l-2 -4q-3 -3 -5 -4l-2 -2q0 -4 -2 -8v-2q0 -14 -12 -29l-6 -8q-4 -13 -17 -13h-2q-2 0 -5 -1t-5 -1z" />
    <glyph glyph-name="cedilla" unicode="&#xb8;" horiz-adv-x="487" 
d="M217 -457h-45q-8 0 -16 2q-7 0 -11 2h-10q-41 18 -55 27l-23 14l-6 2l-8 7q-11 0 -14 12q-4 11 6 18l12 11q4 4 10 4q17 0 27 -2h6q8 0 10 -2l2 -3l4 -2q1 0 2.5 -1t2.5 -1q68 -26 118 -26q3 0 10 1t11 1q2 2 4 2t5.5 1t4.5 1q12 2 21 8q2 0 2 2q4 0 6 2q1 0 4 1t4 1
q0 2 4 2q17 10 25 21q2 0 2 2l8 8v2q6 10 6 31v4q0 18 -14 43v2q-5 16 -31 29q-4 0 -8 2q-2 0 -10.5 1t-10.5 1h-32q-7 0 -31 -4h-16q-8 -2 -23 -2q-42 0 -55 20q-9 13 -2 31l10 18q4 4 4 6v2l2 4l2 2l4 7q0 1 1 2t1 2l25 39l18 26q5 14 25 41q9 12 20 33q0 4 4 8l4 6l5 4
q4 11 16 11q2 0 6.5 -1t5.5 -1q12 -3 15 -9q8 -12 8 -16v-10q-2 -4 -2 -15q0 -12 -4 -20v-2l-41 -70l-35 -57q46 4 63 4q67 0 113 -27q38 -24 47 -90q4 -6 4 -12v-18q-9 -35 -14 -43q-2 -3 -12 -13l-2 -2l-5 -6q-21 -21 -30 -27l-9 -4l-4 -4q-6 -4 -30 -14q-18 -7 -64 -21
l-8 -2h-2l-14 -2q-6 -2 -13 -2q-6 0 -10 -2z" />
    <glyph glyph-name="guillemotright" unicode="&#xbb;" horiz-adv-x="671" 
d="M326 66h-4q-10 3 -13 10q-11 30 2 53v2l4 6q0 4 4 8q21 71 68 154l8 14q2 8 11 17q0 2 4 6q10 20 10 24q0 5 2 7l20 47v2q7 10 7 12q0 1 1 3t1 3q5 14 8 45q2 8 2 35l-4 37q0 1 -1 4.5t-1 5.5v4l-4 13q-2 2 -2 6l-3 8q-4 4 -4 8l-2 6l-34 70l-9 14q-4 4 -4 6q-5 5 -8 15
v4q-16 26 -27 53l-2 4l-16 35l-21 53q-4 8 -4 12q0 1 -1 4t-1 5v4q0 2 -1 5.5t-1 4.5q0 2 -1 5t-1 5q0 7 6 13q13 10 25 10q13 0 22 -15h3l2 -2q0 -1 1 -2t1 -2q2 0 6 -4q0 -2 6 -8l18 -25h2l33 -63v-2l15 -33l16 -31l12 -22l4 -4q0 -2 2 -4q23 -50 31 -58q4 -8 4 -10l2 -2
q4 -8 4 -10q25 -64 29 -99q0 -11 -8 -57v-12q0 -7 -8 -35l-5 -4v-6q0 -1 -1 -3t-1 -3l-10 -29l-4 -6v-2l-4 -8l-4 -7h-2q-2 -13 -12 -28l-43 -76q-3 -10 -11 -23l-4 -10l-2 -2l-2 -6q-2 0 -2 -4q-4 -6 -8 -18v-3q0 -1 -1 -3t-1 -3v-2q0 -6 -4 -10v-4q-2 -2 -2 -4
q-5 -16 -31 -58l-18 -22q-1 0 -2.5 -1t-2.5 -1l-8 -6q-3 -6 -12 -6l-2 2v-2q-8 -4 -12 -4zM150 86h-3q-6 0 -14 8l-14 25q0 2 -1 5t-1 5q0 9 4 25q2 4 2 10q0 1 1 3t1 3v2q0 1 1 3t1 3l2 6l2 4v2q0 5 2 7q23 65 72 155l2 4l4 9q6 18 20 32l15 23l2 2l4 6q2 2 2 4q8 12 8 19
l2 2l6 22v27q0 1 -1 3.5t-1 4.5v2q0 2 2 4l-2 2q0 2 -1 5t-1 5v2q-4 27 -22 62l-11 26q-8 8 -8 17l-12 22q-4 10 -10.5 23.5t-7.5 17.5l-13 25l-8 14l-4 8q0 8 -16 35q-10 17 -13 27l-6 10q0 4 -2 6q0 1 -1 2t-1 2v4l-6 19l-2 2v2q-3 7 0 14q6 12 16 17q2 2 8 2q5 0 17 -6
l10 -9q4 -2 8 -10l2 -2q8 -4 17 -16q17 -17 24 -31l11 -20q6 -8 17 -28.5t17 -29.5v-2l39 -80v-2q4 -4 6 -8q1 -3 4 -7t4.5 -7.5t2.5 -7.5l24 -62v-4q2 -2 2 -4q4 -4 4 -8q9 -48 -2 -84q-3 -11 -16 -31q0 -2 -2 -4q0 -6 -2 -8l-6 -10l-6 -9q0 -6 -5 -6q-6 -6 -6 -10t-2 -4
l-4 -6q0 -4 -4 -4q0 -7 -6 -13v-2q-13 -12 -23 -37q0 -2 -2 -2l-6 -10l-2 -6l-4 -8l-2 -2v-2l-14 -27q0 -4 -2 -6v-4q0 -4 -4 -8v-7l-5 -10q-3 -3 -14 -33q-1 -2 -10 -24l-2 -2q-7 -10 -10 -23q0 -4 -5 -14l-8 -10v-2q-5 -11 -12 -13q0 -4 -4 -8l-4 -4q-8 -4 -12 -4z" />
    <glyph glyph-name="circumflex" unicode="&#x2c6;" horiz-adv-x="536" 
d="M59 1044q-1 0 -4 1.5t-4 1.5l-8 4q-10 7 -10 16q0 2 1 5.5t1 4.5q0 9 6 15q0 20 12 32q12 24 31 47q0 3 4 7q12 23 25 41q4 8 8 12q0 1 2 4t2 4q0 2 2 2l6 12q10 14 19 31q0 2 4 6l4 6q22 31 49 45l18 5h13q0 2 2 2h14q8 0 12 -2h2q2 0 5 -1.5t4 -1.5l20 -10q6 -6 6 -8
q8 -4 10 -8l29 -31q7 -3 10 -10l4 -4l13 -19l18 -22l6 -8l13 -13l24 -36l14 -23q0 -2 3 -2l20 -37l4 -10q6 -10 4 -17v-4l2 -4l2 -6q3 -11 -4 -18q-6 -6 -12 -6q-4 0 -6 2h-8q-13 0 -21 4q-2 0 -2 2l-10 6q-2 0 -6 4l-9 10l-6 8q-2 2 -2 4q-4 4 -4 7q-6 2 -10 10
q-8 9 -26.5 35l-28.5 39l-20 27l-16 20.5t-7 9.5l-2 2q-5 5 -5 6l-4 4l-4 4q-6 3 -6 11l-2 2h-2l-12 14v4h-2l-4 2q0 -6 -7 -10q0 -2 -4 -6l-4 -4l-4 -11h-2l-29 -53l-10 -14l-2 -4l-2 -4l-6 -9v-2l-16.5 -22.5l-20.5 -27.5t-12 -15l-27 -31l-4 -4v-2q-8 -8 -12 -10l-4 -2
v-2q-1 0 -3 -1t-3 -1q-5 -5 -9 -5z" />
    <glyph glyph-name="ring" unicode="&#x2da;" horiz-adv-x="663" 
d="M375 1309l-6 4q-20 -3 -21 -4q-24 0 -39 -9q-12 -7 -16 -22q-3 -6 -3 -8.5t3 -9t4 -9.5l2 -2q0 -27 25 -39l45 -10q2 0 8 6q2 1 5 1.5t4.5 1t2.5 1.5q6 0 6 2l4 15v4h2q-3 7 -2 8l-4 21v2v2v6q0 2 -6 8v4v2h-2q-8 25 -12 25zM356 1350q2 2 15 2h6h8h2q4 0 8 -2
q27 -8 51.5 -34t30.5 -56l2 -3q0 -10 -2 -18q-1 -2 -2 -5l-1.5 -4.5t-0.5 -2.5q-5 -10 -10 -15q-11 -13 -25 -24q-7 0 -16 -6q-28 -11 -45 -13q-14 -2 -51 -2q-17 2 -52 13h-2q-3 0 -7 1t-7 1l-2 4l-8 6l-4 4q0 2 -2 2l-19 21l-2 4q-6 48 12 75q8 3 15 13l6 2h2q0 2 6 2
l43 18q8 2 21 2q12 4 22 4q4 11 8 11z" />
    <glyph glyph-name="tilde" unicode="&#x2dc;" horiz-adv-x="806" 
d="M487 1114h-2q-38 4 -49 8h-2l-49 25h-2l-10 8l-31 23h-2q0 2 -2 2q-4 0 -10 6v2l-9 4q-1 0 -2 1t-2 1l-2 2l-14 10q0 2 -2 2l-2 4l-29 15l-8 -4q-11 -7 -16 -15l-15 -16q0 -2 -2 -2l-14 -19q-4 -8 -8 -12q0 -2 -2 -2l-2 -2q-4 -8 -9 -8l-6 -8l-4 -4q-5 -5 -12 -5h-2
l-10 3q-12 4 -15 12v14q0 6 2 10q0 9 4 13q0 7 5 12q3 18 8 23q12 17 39 40q16 13 49 23q12 4 22 4q22 0 52 -10q8 0 12 -4l2 -2q7 0 76 -51l41 -29h4q2 -2 6 -2l12 -6l4 -2l8 -4h5q3 -3 12 -3l4 3h4q2 1 5.5 2t4.5 2q12 6 19 16q2 2 2 4l2 2l4 4l6 8l6 17l2 2v4q0 17 6 29
l2 6q0 6 4 10v2q0 5 3 8q0 4 4 8q3 7 10 9q3 10 14 10q6 0 8 -2q18 -6 19 -6q6 0 10 -4q10 -10 10 -33v-12q0 -3 -4 -11q-9 -53 -63 -104l-2 -2l-6 -4q-8 0 -17 -9q-6 -6 -14 -6q-2 -2 -4 -2q-18 -6 -35 -6q-6 -2 -21 -2z" />
    <glyph glyph-name="uni2000" unicode="&#x2000;" horiz-adv-x="808" 
 />
    <glyph glyph-name="uni2001" unicode="&#x2001;" horiz-adv-x="1616" 
 />
    <glyph glyph-name="uni2002" unicode="&#x2002;" horiz-adv-x="808" 
 />
    <glyph glyph-name="uni2003" unicode="&#x2003;" horiz-adv-x="1616" 
 />
    <glyph glyph-name="uni2004" unicode="&#x2004;" horiz-adv-x="538" 
 />
    <glyph glyph-name="uni2005" unicode="&#x2005;" horiz-adv-x="404" 
 />
    <glyph glyph-name="uni2006" unicode="&#x2006;" horiz-adv-x="269" 
 />
    <glyph glyph-name="uni2007" unicode="&#x2007;" horiz-adv-x="269" 
 />
    <glyph glyph-name="uni2008" unicode="&#x2008;" horiz-adv-x="202" 
 />
    <glyph glyph-name="uni2009" unicode="&#x2009;" horiz-adv-x="323" 
 />
    <glyph glyph-name="uni200A" unicode="&#x200a;" horiz-adv-x="89" 
 />
    <glyph glyph-name="uni2010" unicode="&#x2010;" 
d="M610 702l-37 -4q-24 0 -30 2l-123 -6q-6 -2 -19 -2l-36 2q-13 0 -21 -2h-12h-64h-2q-8 2 -20 6l-2 2l-8 -2l-48 2h-2l-8 2l-10 -4l-29 7q-4 0 -6 2q-6 0 -10 2l-2 2q-7 -2 -15 6q0 9 3 14v2q0 10 4 12q5 11 10 11q4 4 8 4h6h13q4 2 8 2h2h39q4 0 14.5 -1t15.5 -1
q8 2 21 2l16 -2l10 -2h18t15.5 -0.5t11.5 -1t8 -0.5h3l24 4q2 -2 15 -2q3 0 9.5 -2t10.5 -2l70 4l16 2l68 2l4 -2q2 2 6 2q2 0 6.5 -1t7.5 -1l101 6q2 2 8 2q18 0 41 2h12q4 -4 8 -4h4q2 0 6 -1t5 -1l2 -2l4 2q12 -4 12 -16v-5q0 -4 -2 -4q-1 -7 -10 -20q-3 -6 -12 -8
q-1 0 -2.5 -1t-2.5 -1l-20 2q-67 -7 -113 -9z" />
    <glyph glyph-name="uni2011" unicode="&#x2011;" 
d="M610 702l-37 -4q-24 0 -30 2l-123 -6q-6 -2 -19 -2l-36 2q-13 0 -21 -2h-12h-64h-2q-8 2 -20 6l-2 2l-8 -2l-48 2h-2l-8 2l-10 -4l-29 7q-4 0 -6 2q-6 0 -10 2l-2 2q-7 -2 -15 6q0 9 3 14v2q0 10 4 12q5 11 10 11q4 4 8 4h6h13q4 2 8 2h2h39q4 0 14.5 -1t15.5 -1
q8 2 21 2l16 -2l10 -2h18t15.5 -0.5t11.5 -1t8 -0.5h3l24 4q2 -2 15 -2q3 0 9.5 -2t10.5 -2l70 4l16 2l68 2l4 -2q2 2 6 2q2 0 6.5 -1t7.5 -1l101 6q2 2 8 2q18 0 41 2h12q4 -4 8 -4h4q2 0 6 -1t5 -1l2 -2l4 2q12 -4 12 -16v-5q0 -4 -2 -4q-1 -7 -10 -20q-3 -6 -12 -8
q-1 0 -2.5 -1t-2.5 -1l-20 2q-67 -7 -113 -9z" />
    <glyph glyph-name="figuredash" unicode="&#x2012;" 
d="M610 702l-37 -4q-24 0 -30 2l-123 -6q-6 -2 -19 -2l-36 2q-13 0 -21 -2h-12h-64h-2q-8 2 -20 6l-2 2l-8 -2l-48 2h-2l-8 2l-10 -4l-29 7q-4 0 -6 2q-6 0 -10 2l-2 2q-7 -2 -15 6q0 9 3 14v2q0 10 4 12q5 11 10 11q4 4 8 4h6h13q4 2 8 2h2h39q4 0 14.5 -1t15.5 -1
q8 2 21 2l16 -2l10 -2h18t15.5 -0.5t11.5 -1t8 -0.5h3l24 4q2 -2 15 -2q3 0 9.5 -2t10.5 -2l70 4l16 2l68 2l4 -2q2 2 6 2q2 0 6.5 -1t7.5 -1l101 6q2 2 8 2q18 0 41 2h12q4 -4 8 -4h4q2 0 6 -1t5 -1l2 -2l4 2q12 -4 12 -16v-5q0 -4 -2 -4q-1 -7 -10 -20q-3 -6 -12 -8
q-1 0 -2.5 -1t-2.5 -1l-20 2q-67 -7 -113 -9z" />
    <glyph glyph-name="endash" unicode="&#x2013;" horiz-adv-x="987" 
d="M821 485h-39q-40 0 -71 2h-49q-2 0 -6 1t-5 1h-10q-8 0 -20 3h-15q-8 0 -12 2h-6l-45 2h-47q-2 2 -21 2q-5 0 -14 1t-12 1h-74q-8 2 -33 2q-27 0 -41 -2h-22q-6 -2 -13 -2q-4 0 -4 2q-8 -2 -22 -2h-23q-14 0 -22 -2q-4 0 -13 -1t-14 -1h-4q-2 -2 -8 -2h-6q-7 0 -9 2h-2
q-6 0 -12 6l-4 4q-7 8 -4 18q3 7 10 10l4 3q8 4 12 4l19 8h4l49 6h2q24 0 57 2q3 2 5 2h104q57 0 100 -2q38 0 52 -2h32q11 0 13 -2h14q14 0 20 -2h5q12 0 24 -2q14 -2 47 -2h27q2 -2 4 -2h43q18 0 43 -2h20q7 0 9 -2q8 0 12 -4q6 0 11 -5.5t5 -11.5q0 -8 -6 -14
q-4 -8 -12 -12q-7 -5 -14 -5h-5q-2 -2 -8 -2z" />
    <glyph glyph-name="emdash" unicode="&#x2014;" horiz-adv-x="1114" 
d="M995 485h-20q-55 0 -98 2q-41 0 -66 2h-16l-7 3h-26q-2 0 -5.5 1t-4.5 1q-26 0 -50 4h-28q-4 2 -25 2q-19 0 -31 2h-30q-10 2 -29 2h-10q-28 4 -57 4h-29l-21 2h-49q-7 0 -23 1t-26 1q-9 0 -27.5 -1t-27.5 -1l-33 -2h-14q-12 -2 -31 -2q-23 0 -25 -2h-6q-2 0 -8.5 -1
t-9.5 -1h-15q-14 0 -30 -4h-17q-4 -2 -8 -2h-8q-6 0 -10 2q-10 0 -13 10l-2 4q-3 6 0 16q3 6 13 9l2 2q1 0 3 1t3 1h2l2 2l18 6q16 4 17 4l59 8h4q17 0 33 2q5 0 19 1t22 1q20 2 39 2h111q13 0 47.5 -1t56.5 -1q10 -2 31 -2q8 0 18 -2q29 0 49 -2h47q5 0 7 -2h30q8 -2 21 -2
q6 0 12 -2q17 0 29 -2l67 -4h23q10 0 14 -2h2q23 0 33 -2h14q2 2 8 2h5q12 0 24 -2q4 0 14 -1t17 -1h35q2 -2 6 -2q6 0 10 -4h4q10 0 17 -11q2 -9 -5 -20l-6 -6q-8 -8 -12 -9q-6 -2 -14 -2h-6q-4 -2 -9 -2z" />
    <glyph glyph-name="quoteleft" unicode="&#x2018;" horiz-adv-x="366" 
d="M125 963h-4q-8 0 -10 4l-5 2l-8 4l-2 2q0 2 -2 2l-6 8q-10 10 -10 21v30q2 2 2 4q6 20 6 43v11l2 2q0 6 2 8q0 6 2 19t2 16q0 1 1 3.5t1 4.5v2q2 2 2 4l17 66q0 8 4 18l6 16q-2 2 -2 4v3q0 6 4 14q0 2 2 2q0 4 4 12l4 12q0 1 1 3.5t1 3.5v2l2 4l4 12v2l11 29q0 2 1 4.5
t1 3.5q2 2 2 6v2q0 1 1 3t1 3l4 13v10q2 2 2 4v4l12 25q4 12 8 14q6 10 19 10q2 4 10 4q6 0 10 -2l4 -4q9 -2 17 -10t8 -21v-10q0 -6 -4 -10q0 -12 -16 -74q0 -5 -5 -10q0 -12 -8 -23q0 -2 -1 -5t-1 -5q-2 -2 -2 -6t-4 -8q0 -2 -2 -4v-2q-3 -6 -6 -27q-4 -26 -8 -35
q-6 -12 -6 -24v-4q0 -2 -1.5 -5t-1.5 -4q-2 -4 -2 -6v-8q0 -8 -4 -12h-2q4 -9 0 -13l-2 -4q-6 -11 -8 -47v-6q0 -4 -2 -4q3 -7 0 -10l-2 -6l-4 -25v-6q0 -21 -6 -33q0 -8 -8 -16h-3q0 -2 -2 -4q-6 -6 -20 -6z" />
    <glyph glyph-name="quoteright" unicode="&#x2019;" horiz-adv-x="366" 
d="M137 967q-8 0 -10 4h-4q-2 2 -9 5.5t-10 6.5q-6 6 -6 14v7q-2 2 -2 8v2q0 2 1 5t1 5q0 1 2.5 11l6.5 26.5t10 38.5q0 20 10 35l6 14q0 3 1 7t1 5q0 4 4 8q0 9 2 23q0 2 1 7.5t1 8.5q2 4 2 15q0 2 2 4q5 15 5 28q0 1 1 3.5t1 3.5v8q0 1 1 3.5t1 4.5v10l2 8q0 9 2 11l2 2
v22q2 8 2 27v6q-3 8 0 14v4q0 15 2 27v16v25q0 6 6 12l4 6l2 2q2 3 4 3l4 2q4 4 13 4q8 0 12 -4h2q5 0 12 -7v-2l15 -12q6 -3 6 -8q6 -12 6 -37v-57q0 -11 -4 -31v-23l-2 -2q3 -3 0 -6l-13 -69q0 -8 -8 -35q0 -1 1 -3t1 -3v-2q0 -9 -4 -17q0 -2 -2 -2q0 -8 -4 -12
q0 -2 -1 -7t-1 -7q0 -1 -1 -3.5t-1 -3.5v-2l-2 -4l-4 -12v-2q-8 -19 -10 -31v-6q0 -1 -1 -3t-1 -3l-2 -4l-3 -2v-2q0 -4 -2 -4v-7q0 -1 -1 -3t-1 -3v-8q0 -14 -14 -35q-3 -6 -4 -6q0 -2 -4 -10l-4 -4q-8 -4 -13 -4q-4 -4 -10 -4z" />
    <glyph glyph-name="quotesinglbase" unicode="&#x201a;" horiz-adv-x="348" 
d="M145 -299h-4l-24 6q-11 4 -13 10l-6 13v2q-4 4 -4 10v4q-4 29 2 78q-2 2 -2 8t2 8v13q0 4 2 6v2q0 3 1 8.5t1 7.5q2 2 2 8q0 7 2 9v6q5 15 5 26v2l2 11q0 14 4 30q2 8 2 21v8q0 6 2 8v8q0 3 4 11v10q0 4 2 6l2 2q0 2 0.5 8l1.5 17.5l2 23.5q0 2 1 4.5t1 3.5l2 2
q-2 2 -2 9q0 6 4 10l4 26q0 3 2 12l2 9q0 2 1 7t1 7q3 0 3 4q0 5 4 9q0 7 6 10l2 2q8 8 20 8q13 0 21 -8v-2q1 0 3 -1t3 -1l2 -2q0 -2 2 -2q14 -19 14 -29q0 -19 -2 -35l-8 -37v-20l-8 -43v-12q0 -9 -2 -17q-6 -42 -6 -49q0 -6 -2 -8q0 -3 -4 -23v-8q0 -14 -2 -22l-3 -5v-10
l-2 -6v-6l-2 -6q0 -9 -2 -13q-4 -24 -4 -28v-10q0 -7 -2 -9v-18q4 -4 4 -12v-15l-4 -16v-2q0 -4 -2 -6q0 -6 -2 -8q0 -5 -4 -9q-4 -8 -10 -8l-2 -4q-8 -4 -13 -4z" />
    <glyph glyph-name="quotedblleft" unicode="&#x201c;" horiz-adv-x="577" 
d="M369 981l-7 -2h-14q-4 0 -8 4l-4 2l-6 4v2l-15 13q-6 3 -6 12v28q0 15 6 39v21q7 35 7 43v6l2 4v6l12 72q0 2 6 20q0 5 4 17v6q0 4 4 20q0 5 2 9q0 6 4 10q0 1 1 4t1 4q0 8 4 12v2l3 2q0 2 1 5t1 4v2l12 32l2 2q0 7 2 9l2 4q0 2 2 2q0 4 2 6l4 8q0 4 2 6v9q7 14 19 26v2
l10 10q5 5 6 5l4 2q2 2 6 2h11q7 0 14 -7l2 -2q8 -4 8 -8l2 -2q4 -4 4 -12v-16q0 -7 -4 -11v-4q-2 -5 -9.5 -27.5t-12.5 -31.5q0 -17 -9 -29q-4 -14 -10 -27v-2q0 -1 -1 -3.5t-1 -4.5l-6 -28q0 -38 -12 -68v-10q0 -6 -2 -8q0 -1 -1 -3.5t-1 -3.5v-6l-2 -8v-8l-2 -6l-7 -51
q0 -7 -2 -13v-12l-6 -27v-4q0 -4 -1 -10.5t-1 -9.5q-2 -2 -2 -6v-2q0 -10 -6 -13v-2l-6 -6q-4 -4 -8 -4zM152 977h-13q-6 0 -14 4q-8 3 -12 10l-11 15q-4 4 -4 10v31q0 12 2 24q0 2 1 6.5t1 5.5v9q0 1 1 5t1 5q0 12 7 47v12l12 68q0 4 2 6q2 4 2 6l6 21v4q0 6 4 22l2 2l2 4
v2q0 1 1 2t1 2t1 4.5t1 4.5q0 7 5 12l2 2q0 6 2 10l12 33l2 2v4q0 8 4 12v2l6 11q0 4 2 6v4q0 6 2 8l13 25l2 4l6 6l4 4q3 10 14 10h6q2 2 6 2q9 0 15 -6l4 -4l8 -8q8 -4 8 -18v-9q0 -6 -2 -8q0 -6 -2 -10q-2 -3 -6 -15l-9 -27.5l-7 -21.5q0 -6 -2 -8v-4q0 -4 -2 -8
q0 -2 -2 -2q0 -1 -1.5 -3t-1.5 -3t-1 -3.5t-1 -4.5q-2 0 -2 -5l-4 -12l-4 -12l-4 -12q0 -9 -2 -13q0 -10 -2 -16l-6 -29v-2l-4 -14v-8q0 -7 -2 -9v-4q0 -6 -2 -10q-2 -2 -2 -8v-4l-2 -6l-7 -47v-17q0 -6 -2 -8q0 -2 -1 -7.5t-1 -8.5q0 -2 -1 -5.5t-1 -5.5v-10q-4 -12 -4 -18
q0 -4 -2 -8v-3q0 -4 -4 -12l-2 -2h-2q-3 -10 -16 -10z" />
    <glyph glyph-name="quotedblright" unicode="&#x201d;" horiz-adv-x="598" 
d="M125 954q-6 0 -8 2q-20 8 -25 15q-4 2 -8 10v10l-2 4v11q0 22 16 84q0 6 2 8v8q0 6 4 10v2q0 2 2 2l5 13v4l4 8q0 2 4 10l4 23q0 10 2 16l2 14v2q1 1 2 5t2 6q4 8 4 16q0 4 2 6v2q0 6 2 8v4q0 7 2 9l2 4v4q0 6 2 8v6q2 0 2 4l7 41q0 4 2 10v7q0 3 1 6.5t1 5.5t1 6.5
t1 7.5q2 2 2 10q0 7 4 19v12q0 6 2 8v2q0 5 4 9q0 4 4 8q4 8 8 8l6 4h17q4 0 12 -4l2 -2v-2q1 0 3 -1t3 -1l2 -2q19 -19 19 -33q0 -19 -2 -33q0 -8 -4 -32l-2 -7v-10q0 -8 -2 -12q0 -7 -9 -43v-10l-14 -64q0 -4 -2 -6q0 -1 -1 -3t-1 -3t-2 -8.5t-4 -12.5v-6q0 -3 -1 -7.5
t-1 -6.5l-2 -4q0 -2 -2 -2v-6l-6 -19q0 -2 -3 -2v-4l-4 -12v-2q-4 -9 -8 -27q0 -4 -2 -6v-4q0 -9 -4 -15q-2 -2 -2 -8v-14q0 -14 -8 -33l-8 -16q-3 -12 -17 -12v-3q-8 -4 -12 -4zM340 967q-6 0 -10 2l-21 12q-8 8 -8 14v11q-2 2 -2 6q0 6 2 10l16 72q0 9 5 14v6q0 13 6 19
l4 8v4q0 6 2 8l2 4v4q0 1 0.5 4t1.5 8.5l2 10.5q0 15 6 30q4 20 4 27v6q0 5 4 13v4q0 4 4 12v16q7 21 9 45q0 5 2 11v14l6 29v4q0 4 2 6q0 2 1 6l2.5 10l2.5 10q0 9 6 15l2 2l4 6q6 6 15 6h12q4 0 8 -2l4 -2q2 -2 4 -2q0 -1 1 -2t1 -2h2l7 -10q2 -2 2 -4q10 -10 10 -21
q0 -17 -2 -33v-2q-8 -23 -8 -47v-4q0 -13 -2 -25q-5 -15 -5 -18v-12l-12 -64q0 -6 -8 -30v-7q0 -10 -2 -18q0 -2 -4 -6l-4 -21q0 -2 -2 -2v-4l-4 -12v-2q-6 -12 -9 -27q0 -4 -2 -6v-2q0 -8 -4 -10v-2l-2 -4q0 -2 -1 -5t-1 -4v-14q0 -4 -2 -6l-18 -37q0 -4 -2 -4l-5 -6
l-10 -6q-8 -4 -12 -4z" />
    <glyph glyph-name="quotedblbase" unicode="&#x201e;" horiz-adv-x="575" 
d="M352 -336q-6 0 -8 2l-8 4q-2 0 -2 2l-10 9h-2q-9 9 -9 22v14q0 5 4 9q0 4 1.5 12.5t4.5 27t5 37.5v2q0 1 1 4.5t1 4.5v12q0 2 2 4v6q0 2 2 4q0 6 2 8q0 2 1 7t1 6q0 6 2 10q0 8 2 35q0 2 1 6.5t1 7.5v19q0 3 1 10.5t1 11.5q2 6 2 16v15q0 1 1 3.5t1 4.5v6q0 2 2 4v21
q0 2 2 4v5q1 5 2 18t2 32v23q0 4 4 8l5 29q0 6 3 16t3 12t1 6.5t1 5.5v3q0 4 4 8q0 4 4 8q2 0 2 2l6 6q4 4 12 4h13q9 0 16 -10l2 -2q6 -6 6 -10l9 -15q4 -4 4 -8q0 -17 -2 -35q0 -3 -1 -6.5t-2 -8.5t-2 -9v-15q0 -3 -1 -9t-1 -9v-4q0 -27 -4 -51v-9l-1 -4q-1 -5 -1 -10
q0 -4 -1 -24.5t-1 -38.5q0 -1 -0.5 -3.5t-2 -11t-3.5 -22.5q0 -2 1 -4.5t1 -3.5q0 -13 -2 -21q-2 -2 -2 -8l-6 -27v-2q0 -2 -1 -7t-1 -7t-2 -2l-4 -35q-2 -4 -2 -8v-2q0 -10 -6 -19v-10q0 -2 -1.5 -4.5t-1.5 -3.5q3 -6 0 -12q0 -4 -2 -4q0 -7 -8 -27l-8 -16l-4 -7l-4 -4
q-8 -4 -12 -4l-5 -2q-2 -2 -8 -2zM145 -348h-4l-8 2h-2q-10 4 -18 12q-11 11 -11 29v10q0 2 0.5 5.5t1.5 11.5t2 18l7 47v12q0 1 1 3.5t1 4.5q0 7 2 11q0 13 6 28v9l2 30v33q0 2 1 9t1 10q2 6 2 16v10q0 1 1 3.5t1 4.5v9q0 2 2 4v8q-3 10 2 16q0 2 0.5 7.5t1.5 17.5t2 26
q0 5 2 11v12q0 2 4 10l5 25q0 10 4 26l6 19l4 6q0 4 6 10h2q4 8 12 8q1 0 3 1t3 1q2 0 5.5 -1t5.5 -1q8 0 12 -4l2 -2l6 -8l2 -4l10 -18q1 -2 2 -3.5l2 -3t1 -2.5t-1 -5t-1 -7q0 -1 -1.5 -9t-1.5 -14q-6 -36 -6 -38v-19q0 -1 -1 -3t-1 -3t-1 -12t-1 -15v-16l-2 -4
q3 -5 0 -10q0 -9 -2 -17v-18q-2 -16 -2 -29q0 -2 -0.5 -4t-1.5 -6.5t-2 -11.5q0 -2 -1 -6.5t-1 -6.5t1 -10.5t1 -15.5q-2 -4 -2 -11q0 -1 -1 -2.5t-1 -3.5v-12q0 -2 -1 -4.5t-1 -3.5l-2 -2q0 -11 -2 -15l-4 -32v-6q0 -2 -1 -5t-1 -4v-2q0 -1 -1 -3t-1 -3l-2 -4v-14
q0 -2 1 -4.5t1 -3.5v-2q0 -1 -1 -3.5t-1 -3.5l-9 -28v-2q-3 -8 -10 -19q-4 -12 -16 -12h-2q-4 -4 -11 -4z" />
    <glyph glyph-name="ellipsis" unicode="&#x2026;" horiz-adv-x="1804" 
d="M877 -29q-13 0 -19 2q-12 1 -43 17q-1 0 -3 1t-3 1l-6 6v2l-6 8q-4 4 -4 6t-1 5t-1 4q-3 6 -3 10v10l5 16q0 11 2 15l4 6h2q24 35 57 57q2 0 4 2l15 4q4 4 10 4h6q3 0 6 3q2 0 6.5 1t7.5 1q3 2 5 2q12 4 14 4q9 0 29 -8l20 -7q4 0 8 -4q4 0 4 -2h2q15 -4 15 -18v-6
q31 -45 8 -90q0 -7 -4 -11l-6 -4q-5 -3 -9 -4l-6 -4q-6 -6 -12 -6h-2v-2q-2 0 -4.5 -1t-3.5 -1q-5 -3 -19 -8q-4 -2 -10 -2q-1 0 -3 -1.5t-3 -1.5h-2q-1 0 -4 -1t-4 -1q-10 -2 -29 -2q-8 -2 -20 -2zM1540 -29h-33q-27 0 -41 4h-2q-6 0 -14 5h-6q-4 0 -12 4v2l-15 6
q-7 0 -12 8l-4 6q-2 4 -2 6q-8 44 35 78q11 11 24 16q5 5 8 5q1 0 3.5 1t3.5 1h4q8 2 24 2l6 6l9 6q8 4 10 4q8 0 12 -2q6 0 10 -2q2 0 6 -4q59 -17 97 -70q4 -2 4 -10v-2q0 -6 -4 -18v-3l-4 -6l-7 -8q0 -4 -4 -4l-10 -6q-2 0 -2 -2l-22 -10h-9q-2 0 -6 -2h-2l-35 -9h-2
q-1 0 -4 -1t-4 -1zM307 -16h-22l-2 2h-2q-5 0 -7 2l-14 6q-6 0 -8 2l-6 4q-2 0 -2 2q-38 28 -35 70q0 6 2 8l10 16l8 6q0 2 2 2q3 2 5 2l20 11q-5 7 0 16l4 6l2 2q7 7 14 9q6 4 13 4h20q6 0 10 -2q57 -9 87 -50q10 -3 10 -14q0 -1 1 -4t1 -4q2 -8 2 -14q0 -5 -2 -9l-2 -6
q-2 -6 -13 -22q-2 -2 -2 -4l-8 -9h-2l-20 -16l-2 -2q-25 -14 -62 -14zM877 59v-24l2 -2q2 -2 10 -4q2 0 4 2h14q2 2 8 2h5l14 4l4 2q2 2 4 2l4 4q6 3 6 6v4h-2l-2 4l-12 25l-6 8l-6 4q-1 0 -11 -2t-16 -4q-3 0 -6 -6q-11 -8 -14 -25zM1479 43v-2q15 -10 22 -10q10 -2 35 -2
l6 2q8 0 10 2q1 0 4.5 1t4.5 1h4l2 2l-8 8h-27q-4 0 -16 6l-13 6h-4q-6 0 -6 -2q-1 0 -2 -1t-2 -1q-10 -5 -10 -10zM295 61v-4q18 -16 27 -16q2 0 4 2q0 4 2 6l2 4v23l-4 4q-2 -2 -9 -2l-2 -2q-4 -2 -10 -2q-2 -1 -5 -1.5t-4.5 -1t-2.5 -1.5q2 -2 2 -9z" />
    <glyph glyph-name="uni202F" unicode="&#x202f;" horiz-adv-x="323" 
 />
    <glyph glyph-name="guilsinglleft" unicode="&#x2039;" horiz-adv-x="495" 
d="M360 70q-12 0 -20 8l-10 6h-2l-6 4l-3 2q-5 3 -8 8l-4 4q-23 33 -59 103l-25 41l-2 2q-14 14 -20 26q-14 16 -17 23l-16 25l-6 8q-2 5 -11.5 20t-11.5 23q-5 2 -14 24l-23 56v2q-11 36 -8 57q0 20 10 53q0 5 7 19q2 2 2 6l6 12l4 6l2 2l10 17q0 4 2 6l4 6l52 74
q8 16 18 26q0 5 4 9q0 4 2 4l37 57l10 18l8 15v2q8 8 21 41q0 9 6 12q0 4 2 6q0 4 4 8h2q0 1 1 2t1 2l6 7q3 12 17 12h12q13 0 16 -10q2 -4 2 -11v-16q0 -1 -1 -3t-1 -3v-2q-5 -43 -10 -51q-9 -25 -33 -72q-2 0 -2 -2l-45 -66l-10 -16l-8 -10q0 -4 -2 -4l-39 -60l-6 -12v-2
q-19 -44 -19 -72v-2q-2 -14 -2 -35q2 0 2 -4q3 -1 7 -10q0 -4 2 -8q0 -1 1 -4.5t1 -5.5l4 -11q0 -1 1 -2t1 -2l14 -32l4 -9v-4l19 -28q17 -28 55 -76q0 -1 1 -3t1 -3l2 -2q0 -1 1 -2.5t1 -2.5l4 -4q4 -2 8 -10q0 -1 0.5 -2t1.5 -3.5t2 -4.5q2 0 2 -2l15 -29l8 -12l4 -6l6 -8
l8 -19l15 -29q7 -10 12 -24q2 0 2 -4q4 -4 4 -10q0 -3 -2 -7h2q0 -4 2 -6q0 -14 -12 -20q-2 0 -4.5 -1t-3.5 -1q-8 -4 -15 -4z" />
    <glyph glyph-name="guilsinglright" unicode="&#x203a;" horiz-adv-x="456" 
d="M162 70h-4q-12 0 -15 8l-6 10q-2 2 -2 4t-2 2q0 3 -1 9.5t-1 9.5v6l8 28q0 3 2 5l9 14v4l4 6q0 2 1 4.5t1 3.5h2v2q3 10 37 93l20 43l18 38q0 6 3 15q0 2 2 4q0 4 4 8q0 10 4 14v7l8 28l2 6v7v3q1 3 1 7.5t-1 9.5v2q0 1 -1 4.5t-1 5.5q-2 2 -2 13l-6 20l-6 8l-2 6v4
q-5 5 -5 9q-2 0 -2 2l-6 14l-4 6l-41 70q-2 2 -2 4q-4 6 -6 8l-8 12q-4 4 -4 9l-2 2l-33 65l-19 41l-16 37q-6 15 -6 18h-2q0 1 -1 3.5t-1 3.5v2q-4 4 -4 12v6q-2 6 -2 12q-6 9 -2 17q8 13 20 18h6q9 0 11 -4l4 -2l8 -8q5 -3 8 -8l16 -17q16 -16 21 -26l37 -72l16 -33
l19 -33q0 -2 2 -2l16 -28l25 -43l8 -13q5 -2 8 -12v-2q26 -33 41 -76q4 -24 4 -43q4 -8 4 -12v-18q0 -7 -4 -11v-6l-6 -24h-2l-2 -7v-2q0 -2 -6 -20l-2 -4l-19 -47q0 -4 -4 -8q0 -5 -2 -5q0 -4 -2 -6v-4q-4 -12 -10 -18q-10 -20 -13 -29v-2l-4 -10q0 -2 -2 -4q0 -2 -1 -6
t-1 -5l-2 -4q0 -1 -1 -3t-1 -3l-37 -69l-22 -41q-2 0 -2 -2l-11 -15l-2 -2q-4 -4 -8 -6v-2l-6 -6q-4 -7 -12 -10z" />
    <glyph glyph-name="uni205F" unicode="&#x205f;" horiz-adv-x="404" 
 />
    <glyph glyph-name="Euro" unicode="&#x20ac;" horiz-adv-x="1032" 
d="M713 -51q-38 0 -58 2q-112 9 -213 53l-8 4q-2 0 -2 2q-47 34 -72 62h-2l-30 37v2q-39 52 -64 104q-13 23 -24 57q-31 85 -47 160h-3l-16 119h-6q-6 2 -21 2h-2q-22 3 -28 6q-6 0 -8 2q-1 0 -3.5 1t-3.5 1h-2l-4 4q-12 4 -12 17v6q0 6 6 12l2 2q4 4 12 4h9l6 2q8 2 16 2h2
l15 -2h2q3 0 8.5 -1t7.5 -1q-3 88 4 193q2 8 2 18q0 5 1 13t1 10t1 8t1 10h-10q-4 0 -15 1t-16 1q-6 2 -16 2q-6 0 -8 2h-2q-5 0 -7 2l-6 2q-4 0 -4 2q-12 3 -12 19v2q0 6 6 12l2 2q6 6 19 6h2l16 7h6q20 0 43 -2h4q1 0 3.5 -1.5t4.5 -1.5q3 12 3 17q0 4 2 10.5t2 9.5
q2 0 2 2t1 7t1 8q2 8 5 23t6 27.5t7 24.5l8 27v2q63 167 113 242v2q28 36 51 59l6 8l2 2q17 17 25 19q71 53 147 84q43 15 91 18h2q6 2 22 2q45 0 96 -14l2 -2h2q2 -2 7 -2l2 -2q4 0 6 -2l24 -12h2l23 -17q4 -4 4 -6q7 -2 10 -12l2 -13q0 -11 -10 -18q-2 -2 -8 -2t-10 4
q-3 0 -11 4l-16 8q-1 0 -3 1t-3 1l-4 2q-4 0 -4 3q-46 16 -70 18q-32 4 -45 4q-48 0 -96 -20h-2q-81 -35 -150 -107q-18 -18 -39 -61q-54 -97 -82 -193l-8 -24l-6 -25q-12 -64 -16 -109q14 -2 26 -2h62q9 0 23 -1t16 -1h24q3 0 8 -1t7 -1t4.5 1t3.5 1h65q6 0 8 -2h109
q2 0 5 1t5 1h8q19 0 37 -2h19q8 0 12 -2q1 0 2 -1t2 -1q2 0 10 -4l2 -2q7 -7 7 -12q0 -10 -7 -17l-4 -4l-2 -2q-6 -8 -24 -8q-2 -2 -9 -2h-8q-51 0 -108 -2h-39q-11 0 -17 2h-192q-8 2 -16 2h-7q-23 0 -41 2q-14 -123 -14 -192v-58q10 0 24.5 1t18.5 1h16l89 8h2q20 0 43 2
h2q2 1 4 3h6q8 2 20 2h15q5 0 11.5 1t8.5 1h33q14 -2 43 -2h22q5 0 7 -2h18q14 0 23 -3q16 0 34 -6h2l17 -6l4 -2q6 0 10 -4t4 -6q5 -3 8 -8q4 -13 -4 -19l-2 -4q-8 -8 -12 -10l-8 -4h-12l-9 2q-2 2 -4 2h-6q-70 12 -98 12h-2q-15 0 -21 2h-59q-6 -2 -23 -2q-1 0 -7 -1
t-11 -1h-2q-25 0 -37 -4h-27q-8 -2 -22 -2h-4q-1 0 -6 -1t-9 -1h-2q-2 -2 -8 -2h-20q-2 -2 -8 -2h-9q-25 0 -41 -2h-8l6 -64l6 -18q0 -2 5 -27q14 -41 20 -75q6 -12 6 -23q0 -2 4 -14l2 -4l2 -5q11 -31 35 -83l10 -19q0 -2 1 -4.5t1 -3.5l7 -12l24 -35l2 -2q48 -66 101 -105
l2 -2l14 -10l6 -4l21 -10l32 -15q41 -15 72 -22q14 -2 33 -2h33q84 9 122 33q33 20 50 34l12 9l16 16v2q3 4 11 6v2l4 10q4 11 16 11t16 -11q18 -43 -8 -65q0 -2 -2 -2q-9 -11 -24 -23l-11 -8l-4 -4l-8 -4q-3 -6 -10 -8q-2 0 -4 -2q-2 0 -2 -2q-1 0 -2 -1t-2 -1l-13 -9
l-4 -2q-68 -22 -149 -22z" />
    <glyph glyph-name="trademark" unicode="&#x2122;" horiz-adv-x="858" 
d="M539 979q-5 0 -9 2l-12 6l-8 8q-18 40 -23 60q-6 18 -13.5 45t-13.5 51t-7 27l-19 65v-69q2 -6 2 -17v-4q3 -35 0 -78v-43q-2 -4 -2 -10v-4q0 -6 -4 -10v-7q0 -11 -10 -14q-2 -2 -8 -2q-7 0 -9 2l-6 4q-6 3 -6 8l-6 13q-2 0 -2 2q-4 20 -4 26v19q-2 4 -2 8v8
q-4 72 -4 219v41q0 13 2 19q0 16 2 24q1 26 13.5 40t27.5 14q11 0 26 -11v-2q12 -10 19 -47v-4q14 -56 20 -72l6 -24q12 -42 17 -47q0 -2 2 -4l22 -86v-2q0 -3 2 -3q0 -6 3 -12v-10l4 -4l4 -21l20 62q0 1 1 3t1 3q2 1 4 5.5t5 10t4 7.5q0 6 4 10v2q0 8 4 12q0 1 1 2t1 2v2
l30 80l15 43l8 35v8q0 15 2 25v8q0 8 2 10q4 8 8 12h2q7 7 13 7h6q8 0 12 -7q9 -3 12 -12q2 -4 2 -10q2 -2 2 -8v-2q0 -29 3 -66v-55l2 -27v-12q2 -6 2 -19v-24l2 -4v-31q3 -7 0 -14q2 -6 2 -21q0 -3 1 -10.5t1 -11.5v-11q2 -2 2 -8v-69q0 -4 -2 -6l-2 -5q-4 -8 -8 -8l-5 -2
q-2 -2 -8 -2h-4q-8 0 -14 6q0 1 -3 5t-3 6l-6 10q-3 3 -3 8q0 10 -2 20q-2 8 -2 23v14q0 2 -1 5.5t-1 5.5v6q0 2 -1 9t-1 11v19q-2 4 -2 8v2l-1 7q-1 6 -1 11q0 17 -2 29l-12 -31l-19 -47l-22 -67l-17 -52q0 -2 -4 -6q-10 -10 -32 -10zM207 973h-2q-9 0 -12 6l-7 8l-2 6v4
q-4 8 0 29q0 4 2 4v4q0 9 2 17v112q-5 9 -2 15l2 4q0 2 -1 11.5t-1 16.5q-2 8 -2 33q0 1 -1 4t-1 4v23q0 25 -2 45v12q0 5 -1 9t-1 6v40q-5 0 -8 3h-39q-4 0 -8 2h-12q-7 0 -11 2l-2 2h-4q-6 0 -10 2q-10 3 -10 16v4q0 12 10 19q4 0 6 2q2 0 6 1t6 1t6.5 -1t6.5 -1l10 -2h22
q4 -2 17 -2h98q2 2 8 2h39q2 0 5.5 -1t4.5 -1l9 -9q6 -3 6 -12v-2q0 -6 -6 -12l-4 -4q-4 -4 -13 -4h-8q-17 0 -37 -2h-35q5 -12 5 -19l6 -49v-2q0 -21 2 -33v-33q2 -4 2 -14q0 -21 2 -33v-22q2 -2 2 -8v-5q0 -34 2 -63v-2q0 -13 -2 -27q2 -2 2 -8v-10q0 -4 -2 -6v-13
q0 -4 -2 -8v-6l-4 -14v-4q0 -7 -4 -11v-2q0 -9 -11 -16l-4 -2q-6 -6 -18 -6z" />
    <glyph glyph-name="uni25FC" unicode="&#x25fc;" horiz-adv-x="1034" 
d="M0 1034h1034v-1034h-1034v1034z" />
    </font>
</defs>
</svg>
