<?xml version="1.0" standalone="no"?>
<!DOCTYPE svg PUBLIC "-//W3C//DTD SVG 1.1//EN" "http://www.w3.org/Graphics/SVG/1.1/DTD/svg11.dtd" >
<svg>
<metadata>
Created by FontForge 20090622 at Fri Oct 14 17:49:55 2016
 By deploy user
Copyright (c) 2016 by tom Nikosey. All rights reserved.
</metadata>
<defs>
<font id="." horiz-adv-x="888" >
  <font-face 
    font-family="Slenderz Light"
    font-weight="300"
    font-stretch="normal"
    units-per-em="2048"
    panose-1="0 0 0 0 0 0 0 0 0 0"
    ascent="1536"
    descent="-512"
    x-height="961"
    cap-height="1444"
    bbox="-72 -494 1536 1784"
    underline-thickness="102"
    underline-position="-102"
    unicode-range="U+0020-U+25FC"
  />
<missing-glyph horiz-adv-x="748" 
d="M68 0v1365h544v-1365h-544zM136 68h408v1229h-408v-1229z" />
    <glyph glyph-name=".notdef" horiz-adv-x="748" 
d="M68 0v1365h544v-1365h-544zM136 68h408v1229h-408v-1229z" />
    <glyph glyph-name="glyph1" horiz-adv-x="0" 
 />
    <glyph glyph-name="glyph2" horiz-adv-x="682" 
 />
    <glyph glyph-name="space" unicode=" " horiz-adv-x="696" 
 />
    <glyph glyph-name="exclam" unicode="!" horiz-adv-x="421" 
d="M225 395h-2q-1 0 -3 1t-3 1q-11 3 -18 13q-2 2 -6 14v18h-3v15q-5 49 -8 178l-2 4q0 23 -2 33v108q0 4 -1 20t-1 25v23l-4 65v76q0 2 -1 5.5t-1 4.5v99l2 119v18q2 8 2 18l-2 2q0 9 2 11v2l4 69v2q4 4 4 33l6 47v4q2 2 2 4v3q0 3 3 6v2l2 2q3 10 4 10v2q0 2 2 2h12l2 -2
q4 -4 4 -10h2v-4q0 -2 2 -2v-2l10 -35v-33q0 -6 -1 -19t-1 -18l-6 -82v-143q0 -8 2 -12v-84q2 -35 2 -70v-76q0 -2 2 -2v-16q2 -8 2 -33v-8q-2 -4 -2 -10l2 -2v-54q3 -15 0 -35q0 -32 3 -73q0 -13 2 -19v-61q2 -6 2 -17q0 -8 4 -12v-2q0 -32 -2 -61q0 -13 -2 -17
q0 -14 -2 -16q0 -8 -2 -10q0 -4 -7 -4l-2 -7q0 -2 -2 -8zM217 0h-24l-3 2l-12 4h-2l-4 4q-30 24 -33 41v4q-2 2 -2 8v9l2 4q2 12 17 30q10 10 14 11q13 8 23 8l2 2h8l4 2h4q4 0 4 -2q0 -7 -6 -10l-2 -2l-10 -15q-10 -10 -7 -16v-16q3 -3 3 -7q3 -16 6 -16v-2h2v-2
q13 -16 22 -16q1 0 3 1t3 1q4 1 6.5 3.5t4.5 5.5l2 3v2l-2 4q0 8 2 10q2 0 2 2h-2v6l2 7v14q2 3 -2 18v4h-2q0 1 1 2.5t1 2.5q0 4 -2 6v4h-2q-2 5 -11 10h-6l-4 2q-6 0 -6 2l-2 2h-2v2l2 2q0 10 8 13h16q17 0 35.5 -11t28.5 -28v-2q2 -4 2 -9v-4l2 -8q0 -6 -2 -12l-4 -23
l-6 -12q-10 -21 -17 -25q-14 -14 -24 -14z" />
    <glyph glyph-name="quotedbl" unicode="&#x22;" horiz-adv-x="573" 
d="M205 1004q-9 0 -17 4v2l-8 12v4h-2v6q-2 6 -6 78v16q-2 1 -2 9q2 2 2 4v35q0 7 -1 20t-1 20q-2 14 -2 50q0 1 -1 2t-1 2q0 5 2 6v2q-2 2 -2 8v27q0 24 -2 51v22q0 19 2 31v17q0 3 1 8t1 8l2 4v6h2v4h2l2 4v2h2q0 2 6 2h9l2 -2q2 0 6 -4h2v-4l14 -12v-2q0 -15 2 -31v-74
q2 -10 2 -24v-10q2 -6 2 -37v-13q2 -14 0 -30v-17q0 -4 4 -4v-4q3 -6 0 -14v-33q0 -2 -2 -2q2 -2 2 -12q-3 -17 0 -33v-2q0 -4 2 -6q0 -4 -2 -6v-4q0 -11 2 -17q0 -4 2 -6q0 -1 1 -3.5t1 -4.5q0 -15 -2 -27l-4 -14q-2 -2 -2 -6q0 -2 -2 -2h-4l-2 -2v-2q-1 0 -5 -1t-7 -1z
M393 1006l-24 6v2q-7 5 -7 12h-2v8q-4 20 -4 78v41q0 2 1 5.5t1 4.5v6l2 7v75q0 3 1 9l1 6l-2 4v8h2v12h3v23q0 12 2 26q0 15 2 25v20l2 2q0 13 2 23q0 4 2 6q0 15 2 23q4 12 4 14v4h2v4h2q4 8 14 8q4 0 4 -4h3l4 -2h2v-4h2v-2l12 -16v-29q0 -3 -1 -9.5t-1 -10.5
q-2 -6 -2 -17v-37q-2 -10 -2 -24v-2l-2 -2l2 -2v-2q0 -29 -2 -43v-23l-4 -31q0 -4 2 -4v-4q3 -6 0 -14l-2 -6v-21l-2 -6v-2v-12q-3 -15 0 -31v-14l-2 -4v-21q2 -2 2 -6h2v-2q2 -4 -2 -21v-6l-2 -6q0 -6 -2 -8q0 -2 -2 -4q0 -4 -7 -4h-2l-2 -4q0 -2 -2 -2z" />
    <glyph glyph-name="numbersign" unicode="#" horiz-adv-x="780" 
d="M440 2l-2 -4h-2q-4 4 -6 4q-1 1 -5 6t-4.5 6.5t-3 8t0.5 10.5q2 12 4 14v4q-2 0 -2 2v2q2 2 2 6l2 2v5l14 100l19 123v18q2 6 2 19q6 12 6 57l8 78q0 8 2 14q0 5 1 15t1 12q2 6 2 20h-37l-39 -2h-139v-12q0 -6 -2 -14v-2q0 -19 -2 -33q0 -2 -1 -5.5t-1 -4.5l-6 -103v-10
l-2 -8v-15q0 -3 -1 -12t-1 -14q-3 -27 0 -51v-21q0 -2 1 -7.5t1 -8.5v-4q0 -21 -2 -39q0 -29 -2 -45q0 -11 -1 -25t-1 -16l-2 -4v-2q-2 -6 -2 -15q0 -6 -9 -6l-2 -8v-6l-2 -4h-2l-14 10q-9 6 -10 6q-6 18 -6 45v12q-2 0 -2 2q0 5 2 7v4q0 3 -1 25t-1 42q0 62 6 182v19
q2 6 2 18v9q-4 28 4 47q0 11 4 51q0 3 1 9t1 9h-2l-2 -2q-4 0 -6 2q-27 0 -43 2l-6 2h-15q-18 4 -26 4h-9q-2 0 -2 3l-6 2q-4 0 -4 6v2l2 2h8q0 2 4 2l17 4h35q4 -2 8 -2q14 0 22 -2q6 0 14 -1t11 -1h2q0 10 2 14q0 44 6 92q6 83 6 90q0 12 4 48q7 40 7 55q0 14 2 20
q0 11 2 15v6q0 35 4 45q-8 0 -10 2h-35l-35 4h-23q-6 2 -8 2h-4q-2 0 -2 2h-2q-2 0 -2 2v2q-2 2 0 4v2l2 2h2l10 7h51q4 0 12 -1.5t9 -1.5h22q4 -2 17 -2q0 13 2 19h-2v2l2 16q8 64 16 162q0 21 6 51l-2 2v2q0 1 1 4t1 5q0 6 2 6v14q5 48 11 82q0 15 2 25q0 6 1 14.5t1 9.5
l6 37q3 28 4 29v10q2 4 2 8t2 6l4 17v2l2 2l13 2h2q0 -2 2 -4l4 -13h2v-10l8 -37l2 -12l-6 -96q0 -25 -6 -60q-1 -10 -2.5 -23l-2.5 -22t-1 -12l-7 -55q0 -17 -6 -70l-6 -68v-8l-2 -6v-33h57q11 0 29.5 -1t22.5 -1q18 0 30 -2h31q4 2 10 2q9 0 13 -2q2 14 2 37h-2v2l2 19
q3 35 6 180v31q2 8 2 20v6q0 8 2 12v5l6 92q0 29 4 45l6 55v8h2v8l2 3v2l5 10v2l2 2q0 6 4 6q8 0 12 -8l4 -8q2 0 2 -6v-3l12 -38v-13q0 -3 -4 -73q0 -35 -2 -58q-4 -40 -4 -55v-37q0 -6 -1 -13.5t-1 -8.5q0 -35 -2 -74t-2 -78v-35q0 -23 -2 -37h14q29 0 39 2h4q2 0 3.5 1
t2.5 1h13q10 0 14 2h8q0 2 2 2h2q6 3 13 3l6 2h2l2 2h6l2 -2h2q5 -14 4 -15q0 -4 -4 -4l-2 -2h-2l-2 -2q-21 -6 -76 -12h-2q-10 0 -12 -2h-39l-6 -178l-10 -119v-25l2 -6q0 -31 -2 -49q18 0 28 2h60l4 2h39q10 -2 18 -2h4q4 0 4 -4h6l2 -2v-2q-2 0 -2 -2v-2l-2 -2
q-7 -7 -14 -7h-16q-8 -2 -54 -2q-14 -2 -51 -2h-14q-2 -2 -8 -2h-9v-14q0 -19 -2 -35l-4 -29v-4q0 -2 -1 -5.5t-1 -4.5v-4h-2q3 -12 0 -35q0 -2 -1 -6t-1 -6q-9 -57 -12 -109v-2q-4 -4 -4 -16v-4q0 -28 -6 -39l-6 -45v-14l-3 -5q0 -18 -2 -22q-3 -31 -18 -70q-6 -20 -12 -32
q0 -13 -11 -13h-2l-2 -6h-2v-2zM268 547h138q26 0 34 2h41v33q2 10 2 26q0 33 2 56q0 11 1 28.5t1 22.5q0 41 7 121v26q2 8 2 21q0 37 2 41v2h-109q-6 2 -14 2h-39l-2 2h-33l-8 -82l-6 -80q0 -15 -4 -43q-4 -44 -9 -57v-27q0 -27 -2 -45q0 -6 -2 -8q0 -3 -1 -8.5t-1 -8.5
v-24z" />
    <glyph glyph-name="dollar" unicode="$" horiz-adv-x="921" 
d="M467 -201l-2 -6h-2q-23 15 -25 21q-6 27 -6 45v12h-2v25l-6 110h-4q-12 -2 -39 -2q-23 2 -39 2q-103 15 -149 49q-38 26 -62 56l-16 24q-4 8 0 8q0 2 2 2q0 11 -11 33v4h3l18 -10q2 -1 8 -4.5t8 -5.5q30 -30 35 -45l4 -6q6 -3 6 -5h2v-2q3 0 7 -4q1 -2 2.5 -3.5t1.5 -2.5
q4 -2 12 -10q73 -33 190 -33h19q0 8 -1 35t-1 43q-2 31 -2 74l-2 6v53q-2 6 -2 17v77q-2 18 -2 50v10q0 4 0.5 12t0.5 13t-1 8v59q-2 23 -2 55q-2 55 -2 115q2 20 2 78l-29 22q-6 6 -15.5 13.5t-11.5 9.5l-12 12h-2l-6 6l-4 6h-2q-5 5 -27 30l-33 38h-2l-14 22
q-53 109 -53 244q0 38 6 68q8 27 49 78l6 8q13 13 19 16q77 51 149 66q4 2 14 2v6q-1 4 -1.5 10.5t-1 19t-1.5 21.5q0 9 -4 37q-2 18 -2 41l-2 6v4h-2q0 2 2 2q0 8 -2 10v31q3 6 12 6l4 -4l9 -10h2v-2q0 -2 2 -6l2 -4l24 -54q8 -46 11 -112h24q67 -9 117 -31l16 -8
q8 -8 17 -8q8 -4 8 -9l24 -16v-2q3 0 7 -4l2 -2v-14h-2l-2 2l-9 4l-16 8h-2q-2 0 -4 2q-8 8 -12 8h-3l-75 31l-86 16q0 -59 -2 -110q0 -19 -2 -31q-2 -39 -2 -72l-9 -94q-3 -60 -6 -72v-18q0 -1 -1 -7t-1 -11l-8 -191l98 -78q73 -55 131 -119l31 -32q28 -38 41 -72
q6 -13 10 -27q0 -2 0.5 -4l1.5 -6l2 -8l4 -10q9 -56 9 -117v-12q0 -2 -1 -7.5t-1 -7.5l-2 -6h-3q-3 -51 -28 -82q-52 -72 -137 -123l-9 -4l-26 -10q-18 -12 -27 -12q-28 -11 -45 -13l-35 -6v-12q3 -34 0 -106q0 -10 -1 -29t-1 -27q-2 -6 -2 -18q0 -6 -4 -6h-4l-2 -11v-6z
M467 373q2 -10 2 -56q0 -41 4 -127v-75l4 -60q72 9 148 39l8 6q44 34 63 64q22 32 25 41q15 53 18 117q3 30 -4 63q-15 76 -55 133q-33 50 -102 109q-50 43 -111 86q0 -59 -2 -86q0 -11 -1 -24t-1 -15q0 -7 4 -23v-104q0 -2 1 -12t1 -17v-51q0 -2 -1 -4.5t-1 -3.5zM442 1374
l-18 -4q-90 -24 -145 -96q-28 -36 -31 -80q-6 -55 5 -121.5t30 -109.5q3 -9 12 -21l14 -20q38 -47 103 -103v8q0 4 1 12t1 11v4q0 23 2 31v6q0 8 2 10v2l4 62h-2v2l4 18q7 65 14 195q2 27 2 63v6q0 19 2 23v102z" />
    <glyph glyph-name="percent" unicode="%" horiz-adv-x="1198" 
d="M893 -2q-35 0 -62 8l-22 10q-9 3 -21 15l-28 24l-6 8v3h-2q-24 37 -35 61l-8 18q-41 140 -41 242q0 23 8 78v8l6 21q19 65 53 122q21 33 45 48q37 29 70 34h8q-6 2 -18 2l-6 5h-31q-2 0 -2 2l2 2l12 6q15 6 16 6h11q16 0 30 -2h21v-2h6l8 -2h4l15 -4q61 -32 112.5 -107.5
t71.5 -163.5l2 -8q2 -10 2 -45q3 -28 0 -37q0 -13 -4 -41v-4l-18 -102l-13 -33q-4 -8 -4 -12q-28 -71 -55 -101q-32 -43 -76 -53q-24 -6 -51 -6zM285 801q-55 0 -107 43q-8 12 -14 18l-12 19l-19 34q0 11 -4 11v2l-6 18l-14 41q-3 0 -3 2l-4 21q-19 143 -14 229l12 68l9 24
q29 72 55 101q15 17 45 34q47 19 65 19h7l4 2v-2h18l16 -4l7 -2h2l18 -9q1 -1 3.5 -1.5t3.5 -1t1 -1.5l4 -2l7 -6h4v-2l8 -6h2q37 -44 66 -126t36 -173v-6q0 -50 -6 -80l-6 -41l-6 -18q-15 -53 -23 -72l-18 -39q-30 -50 -68 -74q-29 -20 -69 -20zM760 164l8 -17
q30 -50 69.5 -87t73.5 -37q34 3 68 43l10 20l23 43q4 8 4 10q6 6 6 17l2 6q9 28 18 67q0 5 5 15v6l2 2q1 3 2 14.5t2 16.5q2 12 2 28q6 64 -4 138q0 8 -2 12q0 10 -2 14q0 5 -3 8q0 2 -1 6.5t-1 6.5q-8 21 -8 30q-10 37 -24 54v2q-3 11 -13 18v2q-1 1 -2 2.5t-2 3.5t-4 4.5
t-6 5.5q-42 51 -68 64l-22 8h-2l-2 -2h-12q-33 -11 -46 -22q-40 -25 -63 -76q-33 -67 -41 -141q-4 -47 -2 -78q3 -104 29 -189zM295 1468q-30 -4 -43 -8q-41 -18 -59 -53q-29 -49 -43 -117q-7 -35 -7 -71q-3 -95 13 -179q0 -6 2 -10q0 -6 2 -8l4 -18q47 -139 90 -166
q18 -11 35 -11q11 0 37 11q1 0 3.5 2.5t4.5 3.5q0 2 4 6q19 22 22 31l15 20v6l22 56q0 1 1 3t1 3l2 6l2 4q11 44 11 55q13 60 10 133q0 21 -2 27v14q-4 16 -4 37q-7 36 -15 62q-2 10 -8 22q0 5 -4 12t-6 7v2l-37 69q-9 12 -26 29l-9 8q-2 2 -4 2q-2 2 -2 4l-2 2h-4l-2 2
q-2 2 -4 2zM326 -51l-27 20v2q-2 6 -2.5 14.5t0 14t1.5 10.5l1 6l2 7h-2v2l4 8q-2 0 -2 2q0 1 1 3t1 3q2 2 2 6q14 51 103 270v5l6 12q4 12 4 16q1 1 10 23q1 4 3 9.5l3.5 9.5t3.5 7q1 3 5 12l9.5 21.5t8.5 20.5l6 14q0 1 3 7.5l5 10.5q1 4 3.5 10.5t2.5 8.5l17 37
q14 47 22 59q26 60 39 105q14 41 49 118q1 1 2 5t2 6q8 29 15 36l8 25q1 2 2 5l1.5 4.5t0.5 2.5l6 11l23 59h-2v2l8 16q25 65 63 189l19 57v6l4 8q2 4 2 9q7 23 26 98q4 7 8.5 26t4.5 25q6 25 8 37q4 20 4 23l2 4v8q0 4 4 8l4 12v4q4 4 13 4q4 0 4 -2h2l2 -4q2 -2 2 -8l2 -2
v-4l2 -4q6 -41 6 -45q-3 -39 -18 -98l-35 -125l-21 -64l-55 -160q0 -1 -1 -2.5t-1 -3.5q-4 -8 -4 -12l-4 -8l-2 -10l-60 -152l-34 -88l-48 -115q0 -2 -2 -2q-6 -18 -6 -22l-2 -4l-18 -50l-13 -26l-2 -6v-2q-3 -3 -12 -25q-4 -20 -10 -29q0 -2 -2 -2q0 -2 -2 -4v-6
q0 -2 -2 -2l-2 -2h-2l-13 -41l-36 -92q-7 -21 -19 -45q-6 -13 -8 -19q-7 -13 -23 -55q-8 -16 -8 -22q-5 -20 -8 -23l-16 -47q-15 -38 -15 -45q-10 -30 -10 -45l-4 -17q0 -4 -6 -4l-4 -18z" />
    <glyph glyph-name="ampersand" unicode="&#x26;" horiz-adv-x="1060" 
d="M414 -14q-4 0 -4 4q-57 9 -101 35q-45 23 -92 67q-50 46 -63 80q-37 90 -37 178q0 41 2 66q3 82 24 135q48 129 152 217q14 14 82 68q0 2 -2 4q-66 133 -84 192q-37 104 -43 209q-3 110 22 145q3 7 25 19l41 22q68 27 117 27q32 0 51 -8q43 -15 77 -56t44 -92
q12 -52 12 -108q0 -127 -55 -201q-70 -89 -148 -149l35 -70l190 -338q67 195 115 234q47 41 105 41q35 0 51 -2l12 -5v-2q24 -8 39 -28q5 -10 10 -15v-2h-2l-51 27q-41 6 -61 6q-17 0 -29 -4q-14 -5 -19 -8l-14 -15l-2 -4l-6 -6q-3 -6 -6 -6q-38 -67 -103 -270l64 -99
l61 -92q45 -60 47 -67q3 -2 9 -9t6 -10l6 -8l8 -12q0 -2 2 -4l14 -21l3 -4l2 -2q0 -9 -7 -12h-2l-6 4l-12 8h-2l-14 14q-63 63 -78 84q-29 39 -119 170q-46 -131 -111.5 -214.5t-142.5 -108.5q-2 -1 -4.5 -2t-4 -1.5t-3.5 -0.5zM172 315q18 -99 31 -120q56 -77 121.5 -124.5
t128.5 -56.5h4q10 0 32 19q12 9 27 24q21 27 37 56q34 72 61 155l21 72l8 31q-24 38 -35 53q-111 179 -217 383l-37 -29l-49 -47q-54 -57 -74 -90q-19 -37 -28 -63l-4 -15q-24 -103 -27 -198q-3 -33 0 -50zM346 1403l-33 -23q-10 -31 -10 -88q0 -48 4 -75q12 -100 47 -201
q34 -83 66 -146q42 34 69 68q102 120 93 281l-13 61q-9 48 -12 51q-21 46 -49 68q-9 9 -23 16q-19 8 -49 8q-43 0 -90 -20z" />
    <glyph glyph-name="quotesingle" unicode="'" horiz-adv-x="405" 
d="M207 993l-6 -2q-2 0 -6 4q-12 6 -15 9l-4 6v16l4 78q0 6 -2 8q0 17 4 23v28q2 0 0 33q0 4 -1 14t-1 15q-2 12 -2 37l-2 2v41h-2v2l2 4q0 1 -1 7.5t-1 12.5q0 3 -1 15t-1 18v10l-2 6v9q0 18 2 30v35l2 2v6h2v4h2l2 7h2q0 2 6 2h11q4 -4 4 -5h2v-2l16 -16q2 -2 2 -33
q2 -4 2 -18v-19q0 -14 2 -16v-2q0 -10 2 -18v-31l2 -2v-4q0 -9 2 -17q0 -5 1.5 -21.5t1.5 -29.5q4 -4 0 -37l2 -4v-4q2 -4 2 -16v-2q-2 -3 -2 -7v-24q0 -13 -2 -17q-3 -15 -3 -34v-9q0 -2 -1 -5.5t-1 -6.5q-3 -8 0 -14v-17q0 -10 -6 -28q-6 -12 -6 -15l-4 -4l-2 -2h-4z" />
    <glyph glyph-name="parenleft" unicode="(" horiz-adv-x="512" 
d="M408 -334l-2 2q-3 0 -5 2q-4 0 -8 2q-12 3 -18 9t-15 24l-8 16l-4 11l-2 2l-2 6l-2 4l-2 2l-2 6l-2 4q-65 118 -139 297l-2 6q-5 5 -13 39q-8 24 -8 31l-8 39q-9 53 -12 92q-2 2 -2 25q0 3 -1 10.5t-1 11.5l-9 123q-2 48 2 125l13 139v15q2 4 2 12q0 10 4 22v5q2 10 2 28
l2 12q0 1 1 3.5t1 3.5q2 2 2 8l10 65l4 21q41 197 43 201l6 18l17 45v10q3 3 8 13q0 1 1 3t1 3l41 92l12 24q14 24 27 58l18 53q5 21 9 25q0 4 2 6v6q0 2 2 2q0 4 1 8l1 4l2 4q3 16 6 19v6q4 4 10 4h6v-2q2 -2 2 -4t1 -8t1 -9h2v-8l-2 -6q0 -55 -2 -63q-17 -53 -49 -121
l-59 -142q0 -1 -1 -4.5t-1 -5.5q-14 -36 -19 -57q-4 -20 -4 -27q-21 -97 -28 -139v-4q0 -2 -1 -7t-1 -7q0 -1 -1.5 -9t-1.5 -12q-27 -183 -30 -266l-8 -135q0 -17 4 -29v-4q0 -7 1 -27.5t1 -34.5q2 -8 2 -18l-1 -4q-1 -4 -1 -8l2 -8l8 -70v-6q0 -10 2 -12v-15q6 -25 8 -43
q11 -49 33 -121l14 -41l6 -10q1 -2 2.5 -6t3 -7.5t1.5 -6.5q25 -56 26 -58l5 -9q6 -9 7 -13l3 -2q12 -16 12 -25q26 -42 47 -102q20 -46 20 -58q2 0 2 -4q7 -17 5 -20l-2 -2v-12q0 -5 1 -9.5t1 -5.5z" />
    <glyph glyph-name="parenright" unicode=")" horiz-adv-x="561" 
d="M160 -336q-2 0 -2 2l-13 29q0 13 9 31l4 16v2l4 2q2 4 2 8l2 4l4 17v2l4 2q101 250 117 305l2 6q0 11 6 23q4 12 4 16q6 24 6 33l10 39l19 90q6 41 6 45q6 44 10 121q4 68 2 118q0 91 -2 134q-4 8 -4 24v27q-4 4 -6 41v12q-4 38 -8 55l-2 11l-2 18q-10 80 -47 207l-21 63
l-2 7q0 1 -1 3t-1 3q-1 2 -2 6.5t-2 5.5q-2 5 -7.5 21.5t-8.5 23.5l-25 72q-20 40 -27 61l-18 41q-12 28 -14 31q0 1 -1 3t-1 3l-4 6l-3 4v2l-6 15v2l-8 18v4l-2 2q0 9 10 12l6 -4q8 -4 11 -10h2v-2l4 -6q2 0 2 -2h2v-2l41 -49q32 -63 55 -117q17 -32 47 -125l6 -20l23 -72
q23 -81 43 -178l4 -19v-2q0 -4 4 -20q20 -117 23 -271q4 -32 -4 -135v-35q0 -35 -2 -55l-2 -6q0 -5 -1.5 -10t-1.5 -6q-4 -8 -4 -17v-8l-12 -74q0 -10 -2 -14q0 -1 -1 -3t-1 -3v-2h-2q0 -16 -10 -58l-35 -131q0 -2 -1 -6t-1 -6q-6 -12 -6 -14q0 -5 -4 -17q0 -2 -2 -4
l-13 -30l-10 -31q-13 -31 -16 -35l-11 -25l-6 -18l-4 -8q-10 -23 -45 -94q-1 -1 -1.5 -2.5l-1 -3t-1.5 -1.5q-2 -8 -10 -24l-15 -29q-4 -6 -8 -18q-4 -4 -6 -4h-2l-8 -15q-4 -4 -4 -8z" />
    <glyph glyph-name="asterisk" unicode="*" horiz-adv-x="901" 
d="M264 797l-10 -9q-3 3 -6 17t0 22q4 7 8 7v4l2 2q0 2 2 4l2 2q0 2 2 4v2l66 119v2q0 2 6 14q0 10 10 23v2q6 16 10 24l6 11l9 32q0 9 2 15q0 3 1 8.5t1 7.5v6q-2 2 -2 4q-2 0 -2 2l-11 11h-2q0 2 -2 2l-14 12l-4 4l-57 31l-23 8h-6l-2 2l-19 4l-30 10l-29 6q-2 0 -27 5
q-3 0 -7 1t-5 1q-6 0 -8 2h-6l-2 2h-2q-6 2 -11 2h-2l-2 6v2l4 2h7q2 2 6 2h2q14 2 33 2h6q39 -5 53 -8l33 -8l28 -6l25 -9l43 -16l14 -6v-2h2l2 -2q2 0 4 -2h3l4 -4q10 -5 14 -9v9h2v18l2 6q0 2 1 14t1 21q0 21 2 33v35l2 2q0 24 2 38q0 7 2 11q0 13 4 41q1 5 2 11.5
t2 10.5t1 6v9h2v10h2l6 10q0 6 4 6l12 -6q4 -4 4 -8q2 0 2 -2v-6l2 -2q11 -27 11 -29q0 -24 -2 -57q0 -4 -1.5 -16t-1.5 -19q-2 -10 -2 -25v-26q0 -3 -1 -16t-1 -21q-2 -10 -2 -23v-12l-8 -64q4 -2 12 -10h5l17 3.5t9.5 2t3.5 0.5l13 6l34 11q2 0 2 2h2v2h2q32 8 52 20
l24 11q4 0 6 2v2q1 0 3.5 1t3.5 1q2 0 4 2t8 2v2q2 0 4 2q1 0 4.5 1t5.5 1l4 2q2 2 6 2q1 0 2.5 1t2.5 1q10 2 26 10l2 2q4 0 6 2q1 0 4 1t5 1l12 5h2l2 2q4 4 6 4l23 6q14 2 16 2h2l2 -4h2q2 0 2 -2v-4q0 -9 -6 -11l-4 -2h-4v-2h-2q-2 0 -29.5 -11.5t-32.5 -12.5h-4l-16 -8
h-4l-17 -9h-4q-2 -2 -6 -2l-20 -12q-15 -5 -25 -10l-22 -11h-3q-8 0 -8 -4h-2q-2 0 -4 -2h-4q-6 -6 -14 -6h-4q-9 -7 -35 -12l-6 -2h-2q-5 0 -13 -4h-6q-12 -4 -18 -4v-2q7 -3 20 -23l6 -6v-4l2 -2v-2q0 -4 15 -19v-2l2 -6l12 -18l6 -13q8 -15 21 -32l8 -15l10 -14l12 -20
q7 -7 7 -9t4 -2l4 -4q19 -19 26 -35q11 -22 11 -28v-6q3 -6 -7 -9v-6l-2 -6h-2l-26 8l-4 8l-9 9v4q-2 0 -2 2q-52 55 -75 100l-2 2l-7 8q-2 4 -2 7q-4 4 -8 12t-8 12q-2 2 -6.5 10t-5.5 9q-4 8 -4 10t-4 6q-2 4 -2 8l-23 31l-8 6v-2q0 -2 -1 -6t-1 -6q-2 -2 -2 -4l-4 -7
q0 -2 -2 -4v-2q-1 -4 -5 -10q-4 -8 -4 -10l-4 -6q0 -6 -8 -19l-20 -41q0 -11 -17 -28l-12 -23l-6 -10q0 -2 -1 -5t-1 -5l-2 -3q-4 -11 -31 -45l-18 -24l-7 -6q-2 -2 -4 -2h-4z" />
    <glyph glyph-name="plus" unicode="+" horiz-adv-x="1138" 
d="M580 137l-2 -6q-15 0 -27 12q-2 2 -2 9q-2 2 -2 6l-2 10v6h-2q0 2 2 4v2h-2v8q-3 29 -6 168v25q-6 6 -2 29v10q2 14 2 45v24q0 6 -1 26.5t-1 27.5v8q0 12 -3 24v25q-12 -2 -22 -2h-53q-3 0 -11 -1t-12 -1h-176l-98 6q-23 2 -41 2h-2l-2 2h-6q-7 0 -7 2q-10 0 -12 2h-2
l-2 6v2h4q3 3 8 3h8l29 4h33q12 -2 33 -2h20q8 0 28 -1t27 -1h146q40 4 110 4q-2 16 -2 57v88h-2v2l2 12q0 50 -2 107v49q0 37 2 66q0 31 2 47q0 7 1.5 17.5t1.5 12.5v13q0 4 2 4v2l4 10v2q4 4 16 4v-2q2 0 2 -2q4 -4 4 -8h2l2 -2v-4q1 -4 5 -12.5l7 -14.5t3 -8q0 -28 2 -61
v-48q-2 -14 -2 -34q0 -2 1 -9t1 -12v-16q0 -27 0.5 -48t1 -31t0.5 -11v-23q2 -14 2 -80q2 -33 2 -57v-8h33q6 0 14 2h2q17 0 29 2h10q2 -2 6 -2l4 2h47q6 2 31 2q42 0 65 2q11 0 15 2h61l11 2h14q8 2 24 2q21 0 35 -2h29q4 -2 10 -2q2 0 2 -2h6q2 0 4 -2h5v-2l-7 -4l-6 -6
q-10 -5 -16 -5q-1 0 -4 1t-4 1h-6v-2h-13q-8 0 -164 -6h-24q-11 0 -15 -2h-20q-39 0 -47 -2h-25q-4 0 -19 -1t-22 -1h-18q-13 0 -23 -2h-24v-18q0 -3 -1 -10t-1 -9q2 -2 2 -4v-10q2 -10 2 -33v-8q-2 -2 -2 -8l2 -2v-41q0 -6 -2 -10q3 -9 0 -31q0 -46 2 -66v-78q2 -4 2 -6v-8
q0 -1 1 -4.5t1 -5.5v-2q1 -4 1 -11t-0.5 -18.5t-0.5 -19.5q0 -1 -1 -5t-1 -6q0 -5 -1 -15.5t-1 -14.5v-4q-5 -10 -10 -11z" />
    <glyph glyph-name="comma" unicode="," horiz-adv-x="438" 
d="M111 -303l-13 -2l-8 8l-6 8q0 4 2 8v11l4 2q3 16 14 41q13 30 13 34v3q0 6 4 10v2q0 2 1 4.5t1 3.5q2 2 2 6v2q1 0 8 21q0 1 1 3t1 3l2 6v2q4 0 6 29q7 18 7 32q0 1 2 14t4 19v15h2q0 6 2 8v6l4 14l-2 2l2 6q8 32 8 56v10l2 6v2q0 1 1 2t1 2v2l6 31q0 4 4 19t7 18v4
q0 2 4 6q1 0 2 2t2 2l2 2h6q6 0 8 -4l4 -4h2l2 -2v-4l6 -6q2 -2 3.5 -4.5t2.5 -3.5t1 -2l-1 -5q-1 -5 -1 -8q0 -1 -1.5 -7t-1.5 -11t-4 -21q-2 -6 -2 -18q0 -4 -2 -10v-9q0 -4 -4 -24q-2 -8 -2 -23q0 -2 -2 -4v-8q-2 -4 -2 -16l-8 -56l-10 -34q-3 -3 0 -9v-2q0 -4 -4 -16
l-3 -2q-2 -2 -2 -6v-2q0 -1 -4 -13q-2 -2 -2 -6l-2 -4l-2 -2q0 -6 -2 -10v-4q-3 -5 -7 -15t-5 -12q0 -1 -1 -3t-1 -3q0 -2 -4 -10q-4 -4 -4 -10l-7 -17q0 -1 -1 -3t-1 -3q-2 -2 -2 -8q-3 -9 -16 -25l-10 -12l-2 -2z" />
    <glyph glyph-name="hyphen" unicode="-" 
d="M598 580h-39q-27 0 -29 2h-122q-5 0 -9.5 0.5t-6.5 1t-3 0.5h-37q-3 0 -10.5 1t-11.5 1h-13q-3 0 -11.5 0.5t-23.5 1.5t-28 2q-8 0 -16 4l-9 2h-6l-45 4l-8 2h-12l-27 4l-2 2h-6l-2 2h-2l-4 2h-2q0 2 2 4v9q2 2 8 2v2h6q16 4 18 4h5l38 -4q21 0 31 -2q6 0 14 -1t9 -1h12
l8 -2q16 -2 30.5 -3.5t20.5 -2.5t7 -1h18q10 0 20 -2q13 0 19 -2h70l16 -2h67l9 -2q2 2 6 2q8 0 12 -2h107l4 2q19 0 39 -2h2q14 0 16 -2h10v-2h4l4 -2v-6q-3 -5 -8 -8v-2q0 -2 -6 -2q-1 0 -3 -1t-3 -1h-16q-16 -2 -111 -2z" />
    <glyph glyph-name="period" unicode="." horiz-adv-x="464" 
d="M213 0h-6q-8 2 -12 2h-2l-19 6v2l-4 4q-19 29 0 54l14 16l19 16l8 6l2 3v2l-2 2l2 4v6l2 2h4l4 2h15q36 0 55 -29l2 -2v-2l2 -8v-8q0 -4 -2 -8l-6 -13q0 -2 -1 -4.5t-1 -3.5q0 -2 -4 -6q0 -4 -2 -4l-15 -19q-6 -6 -22 -14q-9 0 -13 -2h-12q0 -4 -6 -4zM207 39q4 -8 16 -8
h4q6 6 6 10l3 2v10q2 0 2 2l2 2h-2q0 4 2 6v5l2 2q-2 2 -2 4v14q2 0 2 2v2l-2 2v-4q-2 -2 -2 -4q-10 -10 -13 -10q-16 -23 -16 -31q2 0 2 -2l-2 -2z" />
    <glyph glyph-name="slash" unicode="/" horiz-adv-x="647" 
d="M143 4l-4 -8h-2q-16 16 -16 24q-6 28 4 48l2 2l-2 2v2l4 8h-2v2l2 6q0 4 2 4q10 59 62 271v6q0 1 1 4t1 4q1 3 2.5 8l2.5 8.5t1 5.5v2q6 9 6 25q4 22 10 35l4 18l15 60l12 37q0 4 10 43q3 21 12 57q3 26 21 100l26 111l5 20v2q0 5 4 13l2 8v2q6 21 6 31v2q0 1 1 3t1 3
l2 2v2q9 29 12 55v2l4 15l39 178q0 10 6 28q4 20 4 25v8q1 2 3 4q1 2 1.5 5t1 5t1.5 3l22 102l12 55l17 70v6q4 4 4 16v2l2 3q5 15 8 18v2q4 4 8 4t6 -2v-2q1 -2 3 -4q2 -4 2 -12h2q3 -3 0 -9v-6q2 -31 2 -53q-2 -21 -19 -104q0 -4 -2.5 -16.5t-3.5 -18.5q-5 -28 -8 -35
l-12 -57l-13 -62l-18 -78l-14 -71q0 -7 -5 -17v-12q-2 0 -2 -4l-51 -223l-26 -111q-5 -5 -5 -24v-5l-12 -49q0 -8 -4 -16q-1 -1 -2 -4.5t-2 -5.5v-7q-7 -32 -16 -61q0 -4 -4 -12v-4h-3q0 -15 -8 -39l-2 -10l-28 -109q0 -6 -2 -10q0 -2 -1.5 -6.5t-1.5 -6.5q0 -1 -1 -5t-1 -7
q-7 -26 -10 -33l-12 -53q0 -6 -2 -10q0 -2 -1 -6t-1 -6q0 -9 -2 -11q0 -10 -2 -12q-3 -23 -25 -92l-14 -49l-6 -15q-4 -4 -9 -4z" />
    <glyph glyph-name="zero" unicode="0" horiz-adv-x="868" 
d="M477 -2q-85 0 -164 43q-5 3 -16 12.5t-18 14.5l-31 32q-5 10 -8 13q-12 15 -33 47l-10 22q-37 83 -47 119l-11 39q-45 245 -39 473q0 17 13 150v14l8 43q26 135 57 235q11 38 41 95q15 21 45 47q43 41 74 47l24 6q-2 0 -5 1t-5 1q-8 2 -26 2q-2 0 -2 2t2 2q41 8 49 8
q10 -2 26 -2h9l2 2l4 2q1 0 3 1t3 1h4q6 0 6 -4l-2 -2l-8 -6h6l37 -8l22 -10q3 0 7 -4l14 -6l2 2q4 -2 8 -4.5t8 -6t6 -4.5q138 -104 193 -270q33 -100 45 -336l2 -14q0 -16 -4 -78v-17q-2 -14 -2 -38q-2 -16 -2 -39q-3 -42 -12 -90q-14 -100 -37 -199l-25 -88
q-38 -118 -74 -176q-37 -66 -92 -72q-16 -2 -47 -2zM387 1444q-13 -3 -16 -6q-65 -25 -88 -58q-40 -64 -62 -149q-36 -121 -57 -291q-8 -63 -8 -160q-3 -239 30 -389q0 -10 2.5 -22t7.5 -27t7 -23l4 -6q41 -132 84 -186q38 -46 84 -74.5t84 -29.5q38 0 60.5 7t30.5 15t17 23
q11 22 15 34l30 76q12 26 19 51l4 11l4 12l13.5 54.5t15.5 68.5l8 33l2 8l2 2q0 22 8 61l10 64q18 148 15 301q0 41 -2 59l-6 43q-3 41 -9 72q-12 78 -30 131q-7 23 -19 47q-7 19 -22 45q-72 117 -115 145q-53 37 -86 48q-15 6 -37 10z" />
    <glyph glyph-name="one" unicode="1" horiz-adv-x="641" 
d="M461 2l-2 -10h-2l-11 8q-14 8 -14 10v2q-6 9 -6 25q0 10 -2 10v23q-2 0 -2 2v10q-3 35 -6 184q0 13 -1 42t-1 46v4q-2 20 -2 56v166q0 6 -1 32.5t-1 40.5q-2 14 -2 29q0 6 -1 25t-1 28q-3 27 -3 51v111q0 8 -2 12v11q0 12 2 16v6q0 8 -2 12v99q2 16 2 65v70v86l-10 -12
l-6 -5l-2 -2l-20 -14q-7 -5 -21 -10q-1 0 -3 -1t-3 -1l-19 -6h-2l-4 -2h-12q-2 -2 -12 -2h-4q-13 0 -21 -2h-28q-5 0 -7 2h-32q-2 2 -9 2h-10q-2 0 -2 2h-6q-2 0 -2 2q-2 0 -2 4v2l4 4h2q8 6 14 6q4 2 23 2h29q2 0 6 -1t6 -1h33l2 2h2q12 2 37 8h2l18 11q0 2 2 4l8 8l2 2
l2 2q0 2 4 6q0 1 3 4l2 4h2l4 8q9 12 12 27q0 2 1 5t1 5q4 4 4 11q4 12 4 18l2 2q0 6 -2 8v6q0 1 6 25l5 14q2 19 6 23q2 2 2 8l2 2h4l4 4v4l2 2h2l4 -2h6q4 0 4 -2l4 -2q0 -1 3 -4q0 -2 2 -4q2 0 2 -6q2 0 2 -4q8 -16 8 -27v-33q0 -8 -1 -21t-1 -16v-43q-4 -40 -4 -53v-211
q2 -23 2 -114q2 -51 2 -103v-112q0 -15 4 -27v-2q2 -14 2 -53v-13q0 -2 -1 -7.5t-1 -8.5v-6q0 -2 1 -9t1 -12v-112q0 -76 2 -115v-68q0 -39 2 -57q0 -16 2 -22q0 -2 1 -6.5t1 -6.5v-10q3 -24 0 -70q0 -14 -2 -20q-2 -27 -2 -47v-2q-2 -4 -2 -15q0 -6 -6 -6l-2 -8v-2z" />
    <glyph glyph-name="two" unicode="2" horiz-adv-x="913" 
d="M682 -18h-66q-399 9 -487 51h-2v2l4 8q3 7 29 51l30 47q8 8 41 54q10 12 48 73l10 19q1 1 3.5 5.5t4.5 6.5q10 23 22 39l87 149q46 78 92 168q50 98 92 193q12 21 16 37l10 26q5 10 5 11q9 22 18 55l8 18q12 41 21 84l4 23q6 54 -10 139q-14 82 -41 119q-16 27 -56 49
l-8 2l-8 4l-12 6q-40 4 -58 4q-44 0 -98 -14q-33 -11 -80 -43q-44 -39 -86 -88l-8 -12l-2 -4h-2q-1 0 -4 -11l-4 -6l-7 -8q-2 -2 -3.5 -5.5t-2.5 -4.5l-12 -25h-2q-8 -4 -12 -4q-2 0 -2 2v12q2 3 2 5l6 16h-2v2l8 20q42 71 53 82q83 77 162 97q53 16 100 16q50 0 103 -16
q55 -15 86 -60q32 -52 47.5 -128t9.5 -130q0 -1 -1 -3t-1 -3q0 -2 -1 -8t-1 -10q0 -13 -4 -29q-55 -182 -152 -375l-104 -188q-2 -5 -16 -29l-5 -10l-4 -8l-45 -78q-4 -5 -8.5 -13.5t-7.5 -11.5q-1 -1 -4 -6t-4 -8l-4 -8l-21 -33q-20 -31 -27 -47l-6 -8q-4 -4 -4 -9h-2v-2
l-43 -63q-20 -24 -69 -107l-5 -10q-10 -16 -8 -18q0 -3 21 -6q6 0 8 -2q36 -6 92 -9q25 -2 47 -2h51q152 -8 217 -8q27 0 55 -1t29 -1l7 -2q10 -2 22 -2l6 -2l13 -2h10q0 -2 -2 -2l-2 -2l-17 -8z" />
    <glyph glyph-name="three" unicode="3" horiz-adv-x="901" 
d="M340 -4q-43 0 -51 2q-49 16 -88 46.5t-58 61.5q-23 44 -39 91q0 2 -1 5.5t-1 4.5q-3 15 -6 18q-4 11 0 11q0 2 2 2q0 4 -4 16v2q0 4 -2 6v8l-2 2v2h2q2 0 2 -2l33 -20q18 -24 23 -39l10 -27q0 -4 8 -20q3 0 6 -10l8 -17q2 -2 2 -4q2 -2 2 -4q80 -111 181 -111h6
q110 3 229 99l6 6q39 41 60 80q4 6 8 18q10 19 12 29q21 59 27 123q2 25 -2 65q-12 99 -51 170q-57 111 -115 138q-25 11 -72 18l-35 8t-26.5 7.5t-24.5 11.5t-8 14v2q1 0 9 2l20 5l20 5q26 3 53 10q29 7 47 15l19 8q45 27 80 59v2l18 21q20 66 23 156q3 78 -11 141
q-9 42 -32 90l-6 8q-1 2 -2 3.5t-2 2.5t-1 2q-7 15 -12 17q-41 41 -71 58t-78 28q-24 4 -39 4q-34 0 -58 -8q-50 -13 -112 -58q-4 0 -15 -14h-2q0 -4 -8 -8l-10 -10v-2l-16 -19q0 -4 -2 -4q-3 0 -3 -2l-2 -2l-2 -4q-4 -4 -8 -4t-6 2v2q0 11 14 31h-2v2l15 16q46 53 73 66
q83 38 166 38q21 0 31 -2q127 -18 209 -129q29 -42 41 -110q8 -47 8 -107q0 -118 -31 -182q-1 -7 -19 -26t-26 -25q-84 -63 -180 -84q-4 -2 -10 -2q1 0 2 -1t2 -1q4 -1 17 -4.5t16 -3.5q118 -24 184 -117q26 -34 33 -49q31 -63 39 -95q6 -24 6 -28q0 -11 4 -25l2 -12
q3 -59 0 -115q0 -8 -4 -20q0 -4 -2 -6v-7h-2q-3 -43 -25 -86q-58 -95 -125 -151l-4 -4l-31 -19q-20 -12 -26 -14l-49 -20q-70 -20 -109 -23q-32 -4 -49 -4z" />
    <glyph glyph-name="four" unicode="4" horiz-adv-x="884" 
d="M594 -16h-2q-1 3 -14 12l-11 6q-6 15 -6 37v20h-2v11v188q0 10 1 30.5t1 30.5l-2 5v16q2 6 2 14v35h-53q-22 0 -59 -1t-52 -1l-6 -2l-45 -4q-23 -2 -39 -2q-14 -2 -45 -2q-46 0 -100 4q-30 4 -45 8q-33 9 -51 41q-10 29 4 53q37 63 51 95l57 104l6 12l6 13q8 9 11 16
q4 4 4 6l12 21q8 12 8 14v2q2 6 8 12l37 64l13 18q37 62 116 213l33 66l2 6l6 12l4 8q33 70 50 115q7 14 16 57q6 11 10 47q1 3 1.5 7t1 6.5t1.5 3.5v10q1 1 2 5.5t2 6.5l2 13v6q4 4 13 4h2l4 -4q4 -4 4 -10h2v-2q0 -3 2 -5v-6q10 -45 8 -51q-9 -52 -30 -111
q-11 -31 -66 -147l-33 -66l-6 -8l-100 -180l-13 -18q-4 -15 -10 -21l-131 -233q-43 -84 -53 -97q-15 -20 -19 -36q-4 -13 -8 -17q3 -6 6 -6q5 0 11 -6l6 -2q22 -8 61 -14q15 -3 19 -3v-2h73q76 4 138 11q20 0 26 2h2q11 0 19 2h30q27 2 54 2q16 0 22 -2q0 33 4 65v19
q2 8 2 18v131q2 18 2 51v50q2 20 2 53v20q0 7 2 13v30l-2 6q0 9 2 9v67q0 8 1.5 30.5t1.5 37.5q0 12 -1.5 43t-1.5 51q0 19 -2 29v43q0 45 -2 96q0 15 -2 25v51q-4 28 0 39q0 4 -2 6v4q0 2 2 2v14l2 15v6q4 8 9 8q4 0 7 -3t3 -5l6 -10h2q0 -1 1 -6t1 -7q8 -17 12 -31
q4 -8 4 -14q2 -4 2 -18q7 -70 7 -80l2 -117q2 -6 2 -55q2 -18 2 -76v-94q3 -40 0 -150q0 -8 -1 -26t-1 -27v-18q0 -6 -4 -84q0 -3 1 -10l1 -7v-8q0 -29 -2 -47v-12q0 -2 -1 -6t-1 -7v-6q0 -43 -2 -55v-12l-3 -2q3 -9 0 -41q79 -8 101 -8q19 0 55 4q3 0 7 1t7 1l3 2h8
q2 0 4 2q4 2 8 2q0 2 2 2v-4l-10 -17q-8 -5 -41 -12h-10q-2 -2 -13 -2h-6q-4 -2 -14 -2h-2l-17 1q-16 1 -32 1q-32 0 -52 2q-2 -25 -2 -80v-28q0 -3 -1 -15t-1 -18q-3 -24 0 -51q0 -1 1 -9t1 -12v-20q2 -16 -4 -86q-2 -25 -2 -45q-2 -6 -2 -15q0 -4 -8 -4l-2 -10v-4
q-2 -2 -2 -6z" />
    <glyph glyph-name="five" unicode="5" horiz-adv-x="917" 
d="M369 0q-106 15 -150 59q-48 41 -67 78l-17 35q0 10 2 14l-2 2q-2 5 -4 15.5t-2 11.5q-5 20 -6 21v2h2l16 -15l23 -20q13 -16 31 -47l14 -23l4 -8l8 -8l6 -8l4 -7h5l6 -6l6 -8q82 -61 155 -61q5 0 15.5 1t15.5 1q90 19 182 121l5 8q35 45 53 96q15 41 18 61q14 58 17 148
q0 33 -4 69q-16 100 -50 164q-38 77 -98 119q-68 48 -186 51q-13 0 -37 -4l-39 -14q-57 -23 -68 -25q-2 0 -5 -1t-5 -1q-6 -2 -10 -2q-31 8 -38.5 27t-4.5 55l2 43q14 168 14 250q0 12 -1 32.5t-1 30.5q-3 69 0 109v10q2 6 2 15q3 16 4 16q68 45 131 45q24 0 54 -6
q72 -8 102 -8q58 -4 131 -4l4 2h15q1 0 4.5 1t5.5 1h18q21 6 29 6h4l4 2l10 -4l-2 -2q-2 0 -2 -2q-22 -7 -26 -8l-21 -7q-62 -12 -94 -12q-21 0 -197 12q-6 0 -16 1t-14 1q-47 0 -68.5 -16.5t-24.5 -56.5q0 -6 1 -27.5t1 -34.5q1 -9 2 -21t2 -20t1 -12q0 -74 -13 -264
q0 -15 -4 -35v-45q-6 -11 -2 -19q3 -6 21 -6q4 0 65 11q13 4 39 8q24 6 39 6q10 2 33 2q55 0 108 -23q95 -38 158 -118l27 -39l2 -4q28 -63 34 -88l2 -10.5t2 -9.5t1 -7q0 -1 2 -10t4 -15l2 -12q9 -66 6 -121q0 -4 -1 -13.5t-1 -12.5v-6q0 -3 -2 -3q3 -47 -17 -104
q-46 -115 -112 -190l-31 -29l-27 -19q-19 -14 -43 -24q-57 -24 -88 -31l-36 -4q-18 -2 -37 -2z" />
    <glyph glyph-name="six" unicode="6" horiz-adv-x="970" 
d="M453 0h-9q-95 0 -182 53q-15 8 -33 29l-30 33q-33 48 -37 63l-10 23q-22 67 -29 137h-2v33q9 208 57 377l41 116l4 13l15 34q72 155 100 203l10 16q18 36 49 78l78 125l10 21q0 2 2 4q0 1 1 2.5t2 4.5t2 5l2 4l6 10q4 24 10 31l2 4v6l12 7h2v-5q0 -1 0.5 -6.5t0.5 -12.5
t-1 -13h2v-2l-6 -25q-21 -66 -45 -106q-30 -50 -45 -72l-63 -109q-66 -126 -111 -245q-25 -64 -39 -127q-4 -13 -8 -39l10 16q4 8 17 21q109 106 219 124q40 5 51 5q115 0 225 -82l10 -9q14 -18 41 -61q20 -37 27 -66q12 -50 12 -96q3 -131 -20 -219q-11 -41 -35 -88
q-63 -106 -139 -158q-83 -54 -176 -57zM190 547l-4 -10q-9 -75 -12 -134q0 -31 4 -59q23 -137 60 -194q32 -45 77.5 -79t85.5 -40q28 -4 43 -4q67 0 136 34q24 12 41 29q42 42 63 70l29 47l6 10q29 73 41 129q6 24 6 39v2h2q3 124 0 133q-21 139 -82 219l-29 27l-24 16
q-38 19 -45 21q-42 10 -76 10h-20l-41 -6q-12 -4 -15 -4l-26 -10q-106 -56 -146 -111q-25 -32 -51 -90q-8 -13 -14 -35q0 -1 -1 -2t-1 -2q-3 -6 -7 -6z" />
    <glyph glyph-name="seven" unicode="7" horiz-adv-x="753" 
d="M197 -12v4h-2l-5 8l-8 16v4q0 19 2 29q0 2 2 4l7 21q0 10 2 16q1 2 2 4.5t1.5 3.5t0.5 2v2q0 5 2 9l2 8q24 125 88 360l2 8q0 10 10 35l4 8l6 25l4 12q0 7 17 41l41 99q21 41 22 47l54 125l38 94q10 24 15 33l51 137l8 31l8 16l4 10l13 29l4 14q0 4 4 8q0 2 4 6l29 68v2
l8 19q29 82 20 94q-6 6 -22 6q-47 0 -74 -2h-35q-68 -2 -186 -2h-98q-87 3 -107 6h-12q-10 0 -14 4h-5q-16 2 -16 8h-2v2l-2 6v2h14v3q1 0 3 -1.5t3 -1.5h27q7 0 23 1.5t20 1.5q82 -3 176 -3l221 5h78q29 0 41 -48q12 -45 -2 -77q0 -2 -1 -4.5l-2.5 -6.5t-2.5 -6l-2 -4
l-8 -22q-23 -54 -62 -156l-45 -123q-9 -25 -61 -139q0 -4 -10 -29l-2 -8l-27 -61l-6 -13q-3 -4 -10 -22l-5 -6l-30 -76l-8 -19v-2l-3 -2h-2q-2 -2 -8 -22l-14 -37l-45 -141q0 -13 -8 -29q0 -17 -15 -60l-18 -71q0 -3 -6 -27v-4q0 -3 -1 -9t-1 -9q-2 -6 -2 -13
q-6 -32 -35 -125l-21 -63l-8 -21q-3 -6 -8 -6l-6 -12q0 -2 -2 -2q-2 -2 -2 -4l-2 -2v-4q0 -2 -2 -2z" />
    <glyph glyph-name="eight" unicode="8" horiz-adv-x="970" 
d="M567 -2h-16q-88 0 -174 29q-10 3 -25 10l-8 4l-29 16q-30 20 -41 31q-2 0 -12 10q-8 8 -22 25t-17 20l-14 19l-12 20q-60 144 -54 262q3 22 19 84v9l10 22q46 89 88 137q26 29 68 58q22 16 41 24h-2q-7 0 -9 -2h-4v2q1 0 2 1t2 1l27 8q16 7 21 7q9 6 14 6q-63 23 -121 67
l-23 21l-18 22l-27 37q-5 14 -6 15q-14 25 -26 69h-2l-4 23q-5 36 -5 84q0 89 23 151q14 30 35 64l4 6q6 12 12 18q54 54 107 80q32 16 69 23q46 4 86 4q19 0 23 -2q20 0 35 -6q2 0 6 -1t6 -1q24 -9 27 -9q2 -2 6 -2l4 -2l6 -6q0 -4 -2 -4q-8 0 -12 2h-5q1 0 3.5 -1t3.5 -1
q4 -4 8 -4q12 -4 14 -6q66 -44 111 -133.5t51 -186.5v-10l-8 -47l-6 -31q0 -1 -1 -3t-1 -3l-19 -45q-18 -41 -55 -90q-16 -19 -35 -35q-56 -45 -109 -61l-22 -4q6 0 8 -2q127 -34 184 -97q65 -71 89 -217l2 -10v-55q0 -37 -2 -47q-1 -13 -11 -56q-13 -56 -37 -116
q-14 -37 -24 -52q-49 -79 -84 -104q-47 -36 -111 -39zM231 227l7 -12l5 -10t5.5 -10t5.5 -7q44 -53 117 -106q79 -49 139 -55q6 0 19 -1t18 -1q55 0 94 22l18 21q31 38 35 47l2 2l17 26l4 7q25 55 31 77q8 19 8 23h2q0 11 8 43l6 31q8 74 8 102q0 25 -4 61l-6 31v2
q0 7 -4 15q0 2 -1 4.5t-1 3.5l-10 37q-18 45 -35 67q-9 15 -19 25l-20 22q-78 59 -127 72q-37 9 -96 12q-2 0 -8 1t-9 1t-9 -1t-9 -1q-8 -3 -19 -10q-84 -49 -120 -102q-47 -64 -78 -162q-10 -48 -10 -80q3 -113 36 -197zM508 815q3 0 7.5 -1t6.5 -1q4 0 11.5 1t11.5 1
q15 0 28 8l48 25l2 2l24 18l4 6q19 22 43 56l13 18l10 25l14 31q22 75 25 139q3 13 0 24v2q0 7 -2 9v12q-2 6 -2 16l-2 17q-5 32 -19 63q-4 8 -4 10q-14 28 -20 35q-49 64 -76 82q-36 21 -64 29l-22 6l-8 4v2h-5q-4 2 -10 2h-2l-14 2h-2v2l6 4h-6q-76 -3 -129 -32
q-56 -35 -99 -107q-15 -24 -24 -65q-12 -52 -12 -107q0 -45 4 -68l4 -18l4 -20q25 -60 69.5 -120t86.5 -83q38 -20 67 -25q2 2 4 2h4q23 4 31 4h4l4 2h2q4 0 6 -1t2 -2v-1v-2q-6 0 -24 -6z" />
    <glyph glyph-name="nine" unicode="9" horiz-adv-x="968" 
d="M412 -10l-9 43q1 13 19 67l6 11l4 10q0 6 4 10v2l10 19l3 6q0 6 4 10l2 4v2q179 380 223 498l4 10q5 18 16 45l19 47q-25 -40 -55 -65q-85 -60 -164 -60q-13 0 -21 2q-104 9 -209 101q-53 43 -78 98q-32 61 -49 162q-15 94 -6 159l10 37q7 22 15 39q64 135 147 180
q72 37 154 37q48 0 78 -12q95 -31 184 -123q35 -40 39 -47q40 -62 51 -100q6 -20 6 -31l8 -31l2 -12q5 -62 5 -70q0 -15 -5 -65q0 -2 -1 -7t-1 -8q0 -2 -1 -7t-1 -7l-2 -4q0 -2 -2 -2q-2 -30 -26 -96l-80 -209q0 -2 -1 -4.5l-2.5 -6.5t-2.5 -6l-9 -26q-12 -27 -12 -33
l-22 -51l-23 -51l-25 -52l-20 -41l-18 -40l-50 -99l-36 -69l-41 -88q-8 -13 -15 -31q-4 -8 -6 -8h-2l-8 -17l-8 -20q0 -2 -2 0zM336 745q54 -38 83 -51.5t70 -19.5q8 -2 23 -2q82 0 168 102q2 0 6 4l6 8l2 5v2h2l4 8q1 2 5 6.5t4 5.5v2l8 8v2q16 32 22 35q0 6 2 10l4 7
q2 3 11 8q16 67 22 119q3 46 0 75q-15 110 -67 185q-56 86 -133 133q-65 39 -152 39h-33q-16 -5 -33 -15q-21 -9 -34 -18q-33 -28 -47 -45l-17 -17q-38 -62 -59 -112h2v-2l-12 -33q-3 -27 -3 -59q0 -176 58 -279q23 -44 61 -82l6 -8q5 -2 12 -9t9 -12z" />
    <glyph glyph-name="colon" unicode=":" horiz-adv-x="446" 
d="M225 -4q-10 0 -18 2h-2q-1 0 -2 1t-2 1q-2 0 -2 2q-9 0 -9 2h-2l-12 6l-2 4q-20 17 -24 39l2 17q0 4 2 6l2 2q12 16 20 22l14 11q18 10 23 10v2h8q4 2 8 2l9 12h16q2 0 4 -2q19 -1 32.5 -17.5t18.5 -41.5v-2l-2 -13q0 -10 -2 -10q0 -4 -2 -6q0 -1 -1 -3t-1 -3
q-12 -17 -14 -19l-8 -8q-7 -5 -21 -10h-2q-15 -6 -31 -6zM203 856q-10 0 -25 6l-2 -2q-2 2 -4 2l-4 4h-4v2l-10 6l-2 5q-14 25 -5 41q0 4 7 8l2 2v2q2 2 4 2l14 10l8 6l15 8q21 9 24 9h2l4 4h15v2h2l2 -6v-2q0 -2 2 -2q2 -2 4 -2l4 -5v-2l4 -4q2 0 2 -2l2 -2q23 -29 8 -69
v-3q-10 -8 -30 -14h-9q-10 -2 -18 -2q-4 -2 -12 -2zM207 47l2 -4q8 -14 20 -18h2q2 -2 9 -2h2l4 4l2 6h2v4l2 6v4q0 4 2 8q3 12 0 27v10l2 2l-2 2l-6 13q-4 0 -6 2l-9 4l-2 -2q-2 -2 -4 -2q-3 -10 -10 -17q-11 -8 -14 -18q-3 -9 0 -15v-6q0 -4 4 -8zM217 883h8q4 0 6 2l2 2
v2h3l-5 6l-2 2v2l-2 2l-2 2q0 2 -4 2v10l-2 9q0 10 -4 14q-2 0 -2 -2q-10 -7 -12 -10q-11 -11 -11 -19h3q0 -2 2 -2v-2q0 -7 10 -14z" />
    <glyph glyph-name="semicolon" unicode=";" horiz-adv-x="516" 
d="M127 -416h-2v2q-5 5 -8 17q0 4 2 6l2 4v2q2 0 2 2v2h2v4h2q0 1 25 58l8 16v2q0 6 4 14q6 12 6 15l10 24v8q3 0 10 41q6 14 9 37q4 26 8 37v12l2 4q2 4 2 11v8h2q2 6 2 18l2 6l12 62q0 10 2 14v10h2v3l11 34l2 6v5q3 6 4 6q7 22 10 22v6h4v2l4 2l2 3l6 -3h5l2 -2
q2 -4 6 -6v-4l8 -18q0 -6 -6 -31q0 -6 -4 -22t-4 -19q-4 -12 -4 -20q0 -7 -9 -43q0 -2 -1 -6t-1 -5v-12l-16 -82q0 -2 -0.5 -4t-1.5 -6.5t-2 -9.5l-6 -19v-10l-4 -18l-5 -7q-2 -2 -2 -4h2v-2q-3 -3 -8 -22l-2 -4q0 -2 -2 -2q3 -3 -4 -17l-10 -20l-6 -15q0 -4 -4 -12l-4 -6
l-3 -2l-8 -16l-4 -7q0 -4 -2 -6v-2q-12 -16 -20 -24v-2l-11 -7l-8 -6h-2q-2 0 -4 2v-2zM272 766q-2 0 -18 4h-8l-10 8h-5v2l-2 2l-10 6l-2 5q-16 26 -16 41q0 6 6 14v4q2 0 4 2q8 6 27 10q4 0 6 2q1 0 3 1t3 1q3 0 10.5 1t11.5 1h7q0 1 -3 4v5l-2 4q-2 0 0 2l13 12h8l2 -2h6
l2 -2q34 -10 43 -53v-2q0 -5 -2 -7v-14l-6 -12q-7 -14 -14 -21q-2 0 -2 -2l-7 -6l-18 -6q-4 0 -6 -2q-8 -2 -21 -2zM258 819q15 -26 27 -26h2v2l4 2v16q0 4 2 6v23h-2v2v2h2q-1 1 -1.5 3.5t-1 3.5t-1.5 1h-4l-2 -2h-2q-1 0 -6.5 -2t-6.5 -2q0 -2 -2 -2q-4 -1 -8.5 -2
t-6.5 -1.5t-3 -0.5q-2 -2 -2 -6q1 0 2 -1t2 -1h4q2 0 2 -7v-4q2 0 2 -4z" />
    <glyph glyph-name="less" unicode="&#x3c;" horiz-adv-x="1226" 
d="M1034 82q-1 0 -2.5 0.5t-6.5 2t-11 3.5l-29 10q-2 0 -14 6v-2l-8 4l-7 3h-2l-10 4l-2 2l-135 65q-123 60 -186 86l-7 2q-35 13 -71 31l-11 6l-28 17l-88 63l-43 33q-57 48 -105 76q-7 7 -41 24q-61 29 -73 53q-10 13 -7 27q4 18 28 36.5t65 41.5q5 3 8 4h2q3 0 14 8
q14 4 15 6v2l16 6l8 5v2q9 3 10 4v2q30 11 62 28l20 11q53 23 68 32l203 99q80 35 88 43v2l8 4l18 8l8 2v2l148 74l57 33l31 18l18 10l5 4q0 2 2 2h2v3q0 2 2 2h6l6 -2v-3l2 -2q2 -2 0 -4v-6l-2 -2q-11 -14 -23 -22q-34 -24 -102 -60l-283 -141l-116 -57l-113 -54l-20 -12
l-21 -10l-74 -33q-111 -47 -139 -84l57 -35l39 -24l23 -15l6 -2l37 -24q2 -1 5 -4t5.5 -4.5t5.5 -2.5q4 -3 15 -14q4 -2 14 -12l6 -2l53 -41l15 -12l14 -11l4 -2v-4l53 -35q61 -45 119 -63l12 -6q12 -4 17 -4l20 -9l33 -14l68 -31v-2q16 -12 26 -12q20 -5 27 -12l43 -23
l22 -12l43 -23l58 -28l18 -8q6 -3 6 -7v-2l13 -4l12 -6v-4q-5 0 -12 -1t-9 -1t-4.5 -1t-3.5 -1z" />
    <glyph glyph-name="equal" unicode="=" horiz-adv-x="1232" 
d="M643 416q-31 0 -68 2h-90l-10 2q-40 0 -63 2q-12 0 -27 1t-18 1q-16 4 -35 4h-15q-29 9 -63 12q-6 0 -14 1t-11 1l-8 2q-40 9 -43 9l-4 2h-2q-6 0 -8 2h-4l-8 10h-5l-2 6v2h5q2 2 8 2h8l31 2l63 -8q63 -14 78 -14q4 -2 18 -2q3 0 9.5 -1t9.5 -1q7 0 20 -1t17 -1
q25 -2 55 -2h20q108 -3 138 -3h86q9 3 30 3q6 0 9 -3h8l4 3h47q2 -1 2 -3q9 3 29 3q46 0 69 2h41q23 0 35 2h12q9 0 11 2h61q12 -2 31 -2h10q4 0 4 -4h8q3 -3 4 -3q2 0 2 -2h-2q-7 0 -10 -14h-2q-2 0 -7.5 -1t-8.5 -1h-21q-2 -2 -6 -2h-2q-32 -4 -166 -4h-4q-4 0 -10.5 -1
t-9.5 -1h-111q-4 0 -16 -1t-19 -1h-26q-54 0 -64 -2zM569 766h-14q-4 0 -4 2q-2 -2 -16 -2h-197l-8 2h-15l-65 4l-35 2q-8 1 -20 3.5t-15 2.5l-10 4h-10v2h-6q-10 0 -15 5h-2l-2 4v2h4q1 0 4 1t7 1h6l14 2q8 2 18 2q4 0 16 -1t19 -1q12 -2 31 -2q34 0 80 -4h217q7 0 20 1
t19 1q31 0 39 2h69q9 0 17 2h2q19 0 31 2q6 0 10 -2h8l4 2h49q5 8 31 8q47 0 70 2h43q22 0 34 2h15q6 2 14 2h59q29 0 31 -2h10l2 -2l9 -2h8v-2q-1 -7 -6 -11.5t-9 -4.5q-10 -5 -14 -5h-8l-2 3h-21q-3 0 -22.5 -1t-62 -2.5t-87.5 -3.5h-4q-14 0 -20 -2h-39q-4 0 -8.5 -1
l-11 -2.5t-9.5 -2.5q-8 -2 -20 -2h-25q-4 0 -19 -1t-22 -1h-22q-12 -2 -31 -2q-18 -2 -33 -2h-69q-2 0 -6 -1t-5 -1z" />
    <glyph glyph-name="greater" unicode="&#x3e;" horiz-adv-x="1228" 
d="M139 82h-2v2l10 20q6 7 39 29l7 4l2 2q2 0 2 2h2q10 7 10 9h2l2 2q1 0 2 1t2 1l2 2q2 0 2 2q134 82 359 200l8 7l47 22l41 21l6 2l41 18l108 47q27 13 52 19q98 37 125 43l55 10q54 14 59 16l-10 6l-84 41q-1 0 -27 11q-27 9 -32 14l-31 12l-14 6q-5 0 -9 4l-4 2h-2
q-15 6 -71 35h-2l-21 11q-105 68 -215 124l-74 33l-6 2q-2 0 -10 4t-10 4h-2l-138 60q-44 18 -71 33q-42 19 -90 47l-6 4l-9 4l-4 4l-10 6l-2 2h-2q-13 13 -21 17q-2 2 -2 4v2l-2 8v2h4q5 -2 7 -2l14 -6h2q2 0 4 -2q6 -6 10 -6l33 -15q15 -5 33 -14q24 -13 133 -64
q3 -1 70 -26q53 -25 98 -43l82 -35q100 -48 184 -104l12 -7q13 -9 29 -16q30 -15 100 -37q170 -52 189 -94q6 -9 2 -16q-3 -16 -29 -29q-47 -23 -78 -29q-6 0 -18 -6q-6 0 -14 -4q-26 -6 -37 -12q-5 -1 -13 -3.5t-10 -2.5l-35 -13l-6 -2q-25 -8 -82 -33l-18 -8l-4 -2h-2
l-68 -31q-150 -71 -158 -75l-12 -6q-17 -11 -18 -11q-1 -1 -15 -8l-10 -6q-7 -2 -39 -21l-18 -10l-55 -30l-13 -7q-15 -10 -18 -10q-18 -18 -29 -18q-39 -26 -72 -43l-40 -25q-49 -30 -54 -31l-4 -4l-12 -6h-6l-10 -6q-3 0 -5 -2t-6 -2z" />
    <glyph glyph-name="question" unicode="?" horiz-adv-x="870" 
d="M399 379l-30 18h-2q-12 18 -19 52q0 6 -2 8v4l-2 2v12h-2q-2 4 -2 14q-3 124 82 269l2 4q11 17 33 43q3 5 11 15.5t11 15.5l47 59l25 31q38 64 47 86q24 56 31 94q11 58 8 121q0 18 -4 26v17q-2 4 -2 10q0 2 -6 20l-4 9v4q0 1 -1.5 3t-1.5 3q-1 3 -18 31l-6 6h-2l-8 12
q-78 45 -164 45h-6q-29 0 -60 -10h-6q-1 -1 -4.5 -2t-5.5 -2q-1 0 -3 -1t-3 -1q-59 -23 -84 -51h-2q-4 -3 -31 -41v-2q-28 -45 -35 -66l-2 -2q-4 0 -4 -8v-2l-4 -4q-4 0 -4 -4l-2 -5v-2l-10 -12v-4q-4 -2 -7 -2l-10 2l-2 2q0 4 2 6q0 6 2 10l-2 2q0 3 2 5q0 1 1 3.5t1 4.5
q12 50 15 53q36 67 75 94q38 32 125 56q48 10 70 10h14q71 0 150 -29l33 -20q0 -2 2 -2q37 -40 55 -123q19 -86 10 -136q-6 -41 -41 -116q0 -6 -4.5 -17t-7.5 -14l-27 -45l-14 -16l-2 -4l-2 -5v-2l-39 -49l-8 -10h-2q-3 -6 -31 -41q-28 -33 -61 -84l-11 -20q-1 0 -2 -2.5
t-2 -6t-2 -4.5l-4 -8q-8 -8 -8 -14l-16 -47q-7 -22 -7 -37v-4q-1 -17 -2 -37t-1.5 -31t-0.5 -16v-6q0 -10 1 -28t1 -22l2 -6l4 -20q0 -10 -6 -10l4 -27q0 -2 -2 -2zM410 0q-3 0 -11 1t-12 1h-8q-4 0 -8 4h-2q-7 0 -11 4h-2v2q-5 2 -12 13v-2h-2q-2 0 -2 2l-2 6q-6 39 2 63
l12 15l2 2l2 2l4 2q15 8 27 10q6 2 14 2q11 0 15 2v2l2 2q1 0 3.5 1t4.5 1q3 6 8 6q1 0 3 -0.5t5.5 -1.5t6.5 -2l4 -2q0 -2 2 -2h4l2 -2h2l2 -2h2q51 -32 43 -80v-2q0 -1 -6 -10l-6 -6h-2l-7 -4q-15 -10 -18 -11l-10 -4l-25 -8q-16 -4 -26 -4zM387 82q2 -2 2 -4v-6
q-4 -15 2 -21v-2q-2 -6 2 -14q3 -6 13 -6q4 -2 10 -2t10 2h4l2 2h4l2 2l4 2h2l2 2h5q4 4 4 6l4 4v-2l2 4l2 2q3 7 -2 12l-2 3v6q0 1 -1 2t-1 2l-2 2l-13 18l-14 15v2q-2 -2 -4 -2q-2 -1 -3.5 -2t-2.5 -2t-2 -1q-21 -3 -21 -6h-2q-6 -3 -6 -18z" />
    <glyph glyph-name="at" unicode="@" horiz-adv-x="1474" 
d="M756 -27q-44 0 -105 11q-168 37 -352 221l-14 12q-41 55 -62 92q-27 46 -43 84q-24 61 -35 113q-18 99 -18 194q0 52 6 105q1 13 19 92l8 45l24 111q39 132 86 198q101 138 267 205q116 43 251 43q66 0 99 -4q35 -5 69 -16q41 -11 66 -27q60 -29 92 -55q9 -5 31 -23
q74 -77 135 -188h2q2 0 2 -2l27 -72q30 -123 30 -221q0 -56 -14 -121q-44 -171 -145 -287q-43 -49 -121 -96l-12 -6q-32 -12 -33 -12q-72 0 -109 24q-33 26 -53 94q-14 49 4 142l-8 -21l-16 -39q-5 -11 -23 -43q-37 -59 -61 -86q-20 -23 -41 -32q-54 -23 -93 -23h-18
q-57 8 -98 49q-39 42 -62 119q-4 9 -8 31q0 18 -2 28q0 10 -1 24t-1 17l-2 6v15q0 40 6 80l-2 2l6 22q48 159 105 230q16 19 59 51l6 4l21 10q86 32 141 35q46 0 84 -12q19 -5 45.5 -24.5t36.5 -31.5l4 -2v-2l6 -8q2 -2 6 -14l2 -2v-6q4 16 8 22l5 14l6 21q4 8 8 8l8 27l2 2
l2 -2l4 -6q2 2 6 2h2q3 -3 3 -13v-4q4 -8 4 -12q5 -23 -11 -55l-4 -9v-6l-8 -32q-16 -86 -27 -125q-51 -168 -51 -297q0 -24 4 -60q6 -65 43 -86q16 -8 29 -8q27 0 78 33q68 42 110 115q66 116 89 247q20 97 20 179q0 39 -6 73q-2 23 -17 66q-13 39 -28 65
q-117 203 -234 260q-111 54 -235 54q-67 0 -119 -19q-166 -47 -295 -176q-13 -13 -43 -61l-6 -11q-35 -78 -53 -145l-21 -72q0 -3 -1 -7t-1 -5l-2 -18q-24 -108 -33 -213q-4 -25 -4 -62l-2 -2q17 -151 23 -172q51 -178 155 -311q1 -1 16 -17.5t27 -27.5l37 -33
q35 -30 66 -47q72 -46 141 -64q39 -12 62 -14q35 -6 49 -6q8 0 12 2q76 5 146 22.5t102 40.5q51 29 114 95l37 39q10 10 15 10l6 8q4 4 12 16l2 4q8 10 21 29q2 2 2 6h2l2 -2l-25 -69q-35 -51 -88 -101l-2 -2l-27 -18v-2l-2 -2l-28 -19q-12 -9 -29 -18q-142 -62 -272 -62z
M586 420l22 -6h17q33 0 53 10l2 2l6 2q23 19 41 45l12 19q2 2 5 7l8 13t8 12l10 23q33 62 57 147l4 11l7 18q0 2 2.5 8t3.5 8q10 30 10 39l4 8q0 1 6 18.5t10 33.5l7 22q6 23 10 27l27 55q1 3 5 9.5t5 9.5t3.5 7t3.5 6t1 3l-6 8q-1 0 -4 6q0 6 -4 6l-2 2q-3 5 -27 29l-12 12
q-47 41 -115 41h-8q-80 0 -150 -53q-28 -21 -47 -55q-47 -76 -69 -182l-5 -21q-2 -10 -2 -22q-2 -72 9.5 -146.5t29.5 -112.5q17 -38 62 -69z" />
    <glyph glyph-name="A" unicode="A" horiz-adv-x="903" 
d="M55 -10h-12l-2 2q-4 4 -4 10q-2 0 -2 2v23q-2 25 -2 51q7 53 43 211l71 321l9 31l26 119q28 128 64 264l4 14q2 4 2 11l20 118q42 249 101 273q8 4 14 4q37 0 68 -55.5t41 -108.5q0 -9 12 -39l2 -4l2 -6q17 -59 25 -92q4 -20 4 -23l8 -29l2 -8q0 -1 0.5 -3l1.5 -6t2 -9
l6 -25q6 -36 19 -69q0 -9 2 -15q0 -2 1 -6t1 -6l2 -4v-2h-2q3 -6 18 -72q0 -6 4 -18q15 -77 47 -203l11 -41q0 -10 18 -80l25 -100l12 -41q0 -11 10 -31l2 -8q3 -10 45 -170l23 -88l8 -31v-10q-2 -2 -4 -2l4 -16q0 -17 4 -21v-2h-2q-28 20 -35 27q-14 21 -26 61l-5 10l-4 11
l-2 8q-1 1 -3 8.5t-3 9.5q-2 0 -2 2l-4 19l-2 2q-24 78 -74 266h-2h-98v-2h-19q-14 0 -14 2h-104q-14 -2 -43 -2h-56q-30 0 -59 -2h-21v-2h-4l-2 2q-8 -2 -37 -2h-28q-2 -2 -4 -2l-35 -152l-14 -61l-13 -58l-24 -112v-8q-2 0 -2 -5q0 -2 -2 -2v-4l-2 -4v-2h-3v-2l-4 -10v-2
q0 -2 -2 -2q0 -2 -2 -2zM401 1403l-10 -21q-4 -10 -8.5 -23t-9 -30.5t-8.5 -28.5l-3 -10q-2 -6 -3.5 -14t-2.5 -16t-2 -11q-2 -6 -2 -12q-3 -25 -12 -53q-2 -7 -5 -24.5t-5 -24.5l-4 -25l-4 -12q-3 -3 -3 -8l-14 -46l-4 -12l-2 -8q-15 -58 -57 -238l-15 -65l-12 -49
q-20 -74 -20 -88l-2 -17l-7 -24q-4 -16 -4 -17l-20 -86q19 0 31 2q20 2 47 2q12 0 16 2q42 0 51 3h12q35 0 76 2q1 0 14 -1t25 -1h8v2h56l2 -2h104q1 0 4 1t4 1q17 0 31 -2l-51 202l-2 11q0 11 -6 26l-9 35l-2 8q-11 41 -24 103q-6 42 -33 143q0 1 -4 29l-10 41l-49 182
q-19 65 -19 67q-21 82 -33 107z" />
    <glyph glyph-name="B" unicode="B" horiz-adv-x="903" 
d="M254 0h-10q-66 0 -107 23q-42 23 -45 75q0 24 2 47q0 9 4 21q0 6 1 14.5t1 9.5q2 14 2 58v20l4 103v2l3 30q18 236 22 332q3 68 0 103v41l-14 192q-8 81 -8 105q-6 107 -3 137v28q0 18 5 23l2 10l1.5 7.5t0.5 4.5q0 9 2 11v6q3 6 14 6h2v-2q4 0 8 4t9 4q6 2 20 2
q12 0 14 2h31q20 2 61 2q110 0 191 -16h4q29 -11 55 -16l29 -15q29 -13 61 -41q11 -8 17 -16q7 -3 10 -10q31 -37 47 -82q17 -41 23 -95q3 -42 -11 -108q-1 -5 -2 -11.5l-1.5 -10t-0.5 -5.5q-2 -13 -8 -18q0 -3 -8 -25q-4 -8 -4 -14l-2 -2l-25 -45q2 0 0 -2l-10 -15
q-63 -74 -121 -110q-1 0 -4 -1t-8.5 -3l-11.5 -4q-3 -2 -12 -6t-11 -5l-4 -2q-4 -4 -12 -4l-64 -18l-6 -2q125 -9 197 -43q116 -52 172 -207l2 -12q6 -38 6 -68q0 -49 -10 -94q-3 -42 -17 -78q-28 -83 -71 -129q-21 -21 -50 -37q-69 -34 -157 -43l-111 -6q-80 0 -94 -2z
M182 18q57 -8 84 -8q13 1 46.5 6t49.5 7q35 6 54 6q17 0 53 4l78 16l37 14l6 5q28 22 57 59l4 6l8 17l9 20l10 25l10 36q17 93 17 154q0 26 -9 96q0 13 -12 37l-12 25q-15 27 -25 37q-29 37 -67 59l-35 16l-8 4l-27 11q-106 25 -164 28h-2q-39 0 -84 2h-24l-9 2h-32
q-2 0 -2 3l6 4l-2 2v2h12q2 2 8 2q2 2 6 2l29 4q2 0 7.5 1t13 2.5l12.5 2.5q20 4 26 4q59 6 80 12l80 27q29 15 43 25q54 41 84 92l8 12l6 12q43 107 43 189q0 34 -10 92q0 4 -8 18l-16 37v4q-3 9 -9 17l-4 2l-28 39q-6 6 -7 6l-2 4q-2 0 -2 2l-14 10q-12 12 -16 12h-2
q-48 27 -86 37l-21 4h-4q-4 2 -10 2q-18 4 -19 5h-6l-49 6h-170q-6 2 -16 2q-4 0 -6 2h-9l-2 2h-6q4 -12 4 -25v-2l2 -10h2v-10q0 -13 2 -23l13 -71q5 -80 16 -197q11 -112 16 -238q0 -77 -2 -116l-12 -160q-6 -99 -6 -121l-4 -63q0 -41 -2 -80q-2 -18 -2 -47q-2 -18 -2 -47
q-4 -151 18 -170q5 -5 6 -5z" />
    <glyph glyph-name="C" unicode="C" horiz-adv-x="1005" 
d="M623 0q-63 0 -136 18q-60 12 -104 39q-58 34 -119.5 89.5t-95.5 105.5q-3 3 -16 29l-17 32q-54 193 -69 379q-9 87 0 203q0 25 2 39v10q6 59 14 88l12 35q0 1 1 3.5t1 4.5l2 10q34 70 45 89q2 7 15 20l2 4h2q9 18 51 70q76 78 152 133l34 20l9 6l16 9q20 11 43 18
q60 23 86 27l35 4q18 2 35 2q96 -13 139 -53q34 -25 61 -74q0 -3 13 -25l4 -6q0 -10 -2 -14q10 -45 12 -47v-2h-2l-8 6l-31 26l-25 39q-11 23 -16 25q0 4 -4 8l-6 8h-2l-4 6q0 3 -2 5q-2 1 -15 14q-73 55 -149 55q-23 0 -33 -2q-70 -9 -188 -92l-9 -6q-8 -7 -59 -58l-18 -16
l-37 -43q-46 -63 -68 -106q-8 -14 -22 -52q-23 -76 -29 -155q-5 -58 -2 -174q7 -109 20 -191q0 -3 1 -9t1 -9q4 -16 4 -21q7 -28 7 -35l10 -51q2 -6 2 -16l24 -90l11 -29q38 -64 99.5 -128.5t115.5 -96.5q48 -23 90 -35l8 -2q1 0 3 -1t3 -1q18 -6 21 -6q47 -6 88 -6
q37 0 71 6q33 6 68 30q19 17 55 74l4 8l2 2q0 1 1 4t1 7l3 6v2l4 4v2q2 3 3.5 9t2.5 7q0 7 2 9v4l2 4q3 6 14 6q2 0 2 -2v-2q0 -1 1 -10.5t1 -16.5q2 0 2 -2l-4 -12v-6q-13 -62 -30 -76q-57 -60 -138 -76q-31 -8 -73 -8z" />
    <glyph glyph-name="D" unicode="D" horiz-adv-x="1062" 
d="M211 -8q-27 0 -29 2q-31 11 -38.5 37.5t-2.5 85.5h-2v2l2 31l13 417q0 21 2 35q0 21 2 35q2 33 2 61v13q0 18 2 26q0 2 1 6.5t1 6.5q4 106 4 135q6 91 6 110q0 61 2 129v232q0 37 2 39v12q3 9 12 12h3q0 -2 1 -5t1 -5q0 -1 1 -2t1 -2l4 -27v-2h2q4 -4 4 -26
q18 -105 18 -121q0 -18 1 -58t1 -61q0 -20 -1 -64t-1 -67q0 -50 -12 -299q-3 -21 -6 -143q-10 -280 -10 -351v-39q0 -28 -2 -34q-5 -85 6 -93v-2q97 3 168 9q119 12 194 59q90 61 170 166q16 25 31 55q39 82 47 107q20 59 20 61l5 12q23 116 26 146q1 9 2.5 18t2.5 14t1 7h2
v57q3 50 0 62q-9 134 -47 256q-5 22 -18 47l-17 32l-28 54q-35 52 -74 94q-15 15 -35 31l-41 28q-108 60 -192 66l-123 6h-39l-12 2h-29q-6 2 -18 2v2l43 10q6 0 14 2q4 0 31.5 1t50.5 1h35q4 0 10.5 -1t9.5 -1v2q21 0 31 -2q178 -21 283 -106q101 -81 178 -279l6 -12
q25 -93 33 -149v-13q4 -54 4 -71q0 -115 -15 -197q-12 -68 -22 -98q-39 -137 -94 -228q-66 -104 -156 -172q-102 -67 -238 -92l-53 -6q-43 0 -45 -2h-2q-71 -6 -90 -6z" />
    <glyph glyph-name="E" unicode="E" horiz-adv-x="827" 
d="M348 -8q-114 0 -190 31q-2 0 -2 2l-2 10q0 5 1 21.5t1 27.5q2 6 2 18q2 23 2 48v43q0 71 2 118v60q0 30 -2 61q0 55 -2 92q0 53 -2 84q0 16 -1 40.5t-1 29.5q-2 47 -3.5 88.5t-2.5 60.5l-1 19v16q-2 6 -2 19v18q0 12 -2 12v2q0 33 -2 43v25l-4 84q-2 0 -2 2v25
q-3 90 -18 266q-5 31 3 61.5t23 36.5h4q6 2 13 2q67 6 166 6q75 0 114 -2q114 -6 129 -6l9 -2h20q1 0 3 -1t3 -1h14q0 -2 3 -2h2l2 -6l-2 -2l-5 -2h-6l-2 -2h-12q-41 -2 -74 -2q-159 6 -211 6q-145 0 -153 -12q0 -5 4 -29q10 -45 10 -58l10 -129q6 -91 6 -94v-16
q0 -2 1.5 -5.5t1.5 -4.5v-21l2 -4q7 -94 14 -303h108q6 0 14 -1t9 -1h8q1 0 4.5 1t5.5 1h23q23 0 31 -4q20 0 32 -2q5 0 5 2h18q15 -2 27 -2h18q10 -2 33 -2h43q2 0 2 2h2q12 0 26 -2q5 0 10 -1l5 -1q6 0 8 -4q2 0 4 -2q2 0 0 -2l-6 -11q-4 0 -8 -2h-13q-12 -2 -77 -2h-29
q-8 2 -23 2h-12q-6 2 -28 2h-66q-4 0 -4 2h-37q-8 2 -49 2h-23q-18 0 -30 2q-11 0 -17 2h-12v-16q2 -20 2 -170v-16q0 -4 1 -12t1 -11v-4h2q2 -20 2 -78q0 -6 -1 -12.5t-1 -7.5v-21l2 -10v-115l-2 -2v-2q3 -26 0 -78q0 -136 -6 -161q0 -2 -2 -2v-2l2 -2h4q1 -1 6 -4.5
t8 -4.5q24 -6 35 -6q10 0 30 -1t30 -1h24l37 4l37 6l160 23q33 8 59 8q6 2 16 2h31v-2h27l-2 -2q-20 -10 -23 -10q-7 -2 -41 -8q-3 0 -8 -1t-6 -1l-8 -2h-17l-6 -3l-2 -2h-10l-8 -2q-132 -24 -236 -24z" />
    <glyph glyph-name="F" unicode="F" horiz-adv-x="886" 
d="M227 -16h-2l-10 8l-4 2q-10 7 -10 12q-6 12 -6 33v16h-2v27q-3 3 -3 8q0 2 3 2v6q-2 53 12 330v6q0 2 1 9t1 10v22q0 2 2 2q2 8 2 31q0 34 2 41l4 47v45l2 2q0 1 0.5 10t1 20t0.5 15v23h-10l-6 2h-2l-2 2h-2q0 4 4 4q0 4 4 4l2 2h2l6 2l4 4v78l-6 121q-3 81 -10 123
q0 6 -4 18v4l-6 27l-5 18t-5 17.5t-3 7.5q0 12 -4 16l-16 80h-4l-2 25q-3 52 32 90q36 39 82 39h68l8 2h19q102 0 129 2q14 0 28 2q4 0 17 1t20 1q13 0 59 4q14 2 29 2h6l13 4h14q4 0 7.5 0.5t5.5 1t3 0.5h11l6 -4v-2q-2 -2 -8 -2l-13 -4v-2h-2q-4 -2 -6 -2h-8
q-57 -13 -62 -13q-80 -8 -127 -10q-18 -2 -77 -2q-23 -2 -78 -2q-18 -2 -76 -2h-4q-31 0 -43 -18q-13 -19 0 -56v-2q0 -12 2 -18l6 -23q49 -203 55 -280q4 -28 4 -137v-25l3 -8q3 -28 0 -64v-6q12 0 20 2h150q20 0 34 -2h2q0 -2 2 -2q3 2 5 2h22l4 -2l2 2h2q0 -2 17 -2h22
q10 -2 35 -2h20q2 0 5.5 -1t5.5 -1q1 0 4 1t4 1h43q18 -2 20 -4q4 0 4 -2q5 0 5 -2q2 0 2 -2t-2 -4q-3 -8 -15 -8h-8v-2h-125q-6 2 -24 2h-7q-1 0 -3 1t-3 1h-102q-6 0 -8 2h-136v-19q0 -6 -1 -31t-1 -36q0 -9 -2 -13v-8h-2q2 -8 -2 -45v-16l-8 -133q0 -19 -2 -27v-21
q0 -20 -4 -32q-2 -23 -2 -68q0 -6 -2 -10v-16q0 -11 2 -17v-12q0 -14 -6 -113q-1 -10 -2 -23l-1.5 -19.5t-0.5 -10.5v-6l-4 -21l-5 -6h-2l-2 -12q0 -4 -2 -6t0 -4v-2z" />
    <glyph glyph-name="G" unicode="G" horiz-adv-x="1083" 
d="M670 -6h-27q-154 3 -223 35q-104 47 -174 161q-62 95 -101 256q-8 34 -10 58l-6 57q-6 67 -6 88v35q4 96 10 141q-2 0 -2 2l8 43q59 274 137 416q14 27 70 94l6 9q18 18 27 24q57 40 86 55t76 25q10 2 32 2q31 0 62 -8q26 -7 69.5 -31.5t57.5 -38.5l8 -6l12 -10l2 -2v-2
l7 -8q3 -2 16 -15l4 -8q23 -23 29 -35l4 -8l4 -4h2q3 -12 -4 -19h-2l-35 35h-2l-21 21q-39 35 -90 67q-80 50 -135 50q-6 0 -26 -5q-83 -19 -168 -120q-44 -59 -62 -105q-70 -142 -106 -340l-6 -41q-3 -6 -3 -12q-2 -12 -2 -31q-3 -147 15 -297q18 -159 57 -241
q46 -104 137 -195q25 -25 49 -31q88 -35 162 -35h13q12 -2 34 -2q49 0 99 9q26 4 39 8l2 -2q21 9 44 26t27 27q33 79 27 225q0 13 -4 49v7q0 15 -4 43q-6 48 -6 69q-3 36 -6.5 65l-5 41t-1.5 13q-3 16 0 39v55q0 43 -15.5 55.5t-45.5 12.5h-64q-46 0 -71 2h-39l-10 2
q-3 0 -3 2h-2q-6 0 -8 -2h-10l-16 -4l-4 -2q-3 0 -3 2l5 4q9 4 18 8.5t12.5 6t5.5 1.5q12 2 93 2q7 0 14 -1t8 -1l2 2h25q10 2 18 2q61 11 84 11q56 0 66 -29q15 -34 6 -113q-10 -82 -6 -96l26 -274v-15q0 -20 -4 -82q-3 -39 -12 -63q-15 -43 -37 -62q-40 -32 -76 -44.5
t-94 -18.5q-36 -4 -59 -4z" />
    <glyph glyph-name="H" unicode="H" horiz-adv-x="1138" 
d="M954 -14q-15 4 -20 14q-7 10 -10.5 25t-1.5 22v2l-2 2v21q-6 61 -11 250v59q0 5 -1 15.5t-1 15.5v106q-2 10 -2 45q0 21 -4 45q0 18 -2 41l-4 96q-2 0 -12.5 -1t-18.5 -1q-18 0 -30 -2q-21 0 -27 -2q-25 0 -29 -2h-16q-2 -2 -12 -2h-17q-10 -2 -33 -2h-8q-4 -2 -10 -2
q-2 0 -16 -1t-19 -1l-8 -2l-45 -4l-49 -2h-10q-4 -2 -11 -2h-12v-2h-39q-35 0 -53 -2q-7 0 -16.5 -1t-10.5 -1h-35q-43 0 -67 4h-6q-5 0 -11 2h-6q-2 -5 -8 -84v-27q0 -29 -2 -47q0 -5 -1 -10t-1 -6q-2 -2 -2 -8l2 -7q-4 -12 -4 -32q0 -4 -1 -12t-1 -11q0 -6 -2 -12v-4
l-2 -2q0 -17 -2 -33v-10l-6 -103q-2 -6 -2 -20v-4q0 -27 -5 -37q-2 -18 -2 -51v-37l2 -4q0 -2 -1 -15t-1 -22q0 -7 -1 -23t-1 -26q-1 -8 -2 -17t-1.5 -14t-0.5 -8v-6q-2 -6 -2 -15q0 -6 -8 -6l-2 -8v-4l-2 -6l-2 -2h-2q-3 5 -8 8q-12 4 -17 12q-2 4 -2 19q0 10 -4 18v31
q-2 60 8 252v4q0 17 4 45q2 14 2 43q2 6 2 22q5 45 5 49q0 2 1 8t1 9q2 8 2 20q0 10 6 92q0 57 4 93q4 86 4 90v33q0 3 1 8.5t1 7.5v45q2 18 2 49h-2v2l2 15q0 88 -8 161v25l-4 22v23l-10 96q-9 36 -9 49q0 9 -4 29l-4 20q-2 12 -2 19q-2 0 -2 2v39h-2v2q3 8 14 8l2 -2v-2
q3 0 5 -2l4 -8h2q2 0 2 -2l2 -4q2 -2 2 -6q24 -39 24 -44q0 -2 1 -6.5t1 -7.5l19 -82l12 -119q2 -53 6 -57v-6q0 -7 0.5 -23.5l1.5 -48.5l2 -61v-27l2 -4q0 -78 -6 -201q10 -2 45 -2q9 0 17 -2h67q35 2 68 2h8l2 2h4q36 0 99 7h30q4 0 11 1t8 1q6 0 12 2t23 2h12l2 2
q18 0 26 2h9l2 -2q4 2 20 2l49 4h13q1 0 6.5 1t11.5 1h25q8 4 20 4h37q0 23 -2 33v53q0 2 -1 6t-1 6v64l-2 2v57q-1 16 -2 58t-2 63q0 47 -2 49v21q0 59 2 96v51q0 4 1 22t1 27v27l2 2v2q0 6 2 8v2q2 17 4 19v2q0 2 2 2l12 4l2 -2q0 -4 2 -6q0 -1 2.5 -3.5t2.5 -4.5l2 -3v-6
l2 -4l14 -47q0 -71 2 -96q2 -27 2 -117v-35q2 -8 2 -20q0 -97 4 -137v-27l2 -4q0 -5 1 -23.5t1 -31.5q0 -38 2 -58v-45q3 -43 4 -45v-100q0 -11 2 -15q0 -3 3 -6v-6q2 -10 2 -45q0 -6 -2 -10q0 -8 2 -14v-25q0 -5 1 -18.5t1 -18.5v-14l-2 -2q2 -6 2 -45q0 -66 2 -101v-20
q2 -4 2 -29v-12q0 -33 2 -51q0 -13 2 -21q0 -4 1 -11t1 -9q2 -12 -2 -68v-18q-2 -18 -2 -45q-2 -6 -2 -15q0 -6 -8 -6l-3 -8v-4l-2 -6z" />
    <glyph glyph-name="I" unicode="I" horiz-adv-x="389" 
d="M211 -4l-2 -2l-2 2l-14 10q-7 2 -11 6q-6 18 -6 37v8q-2 0 -2 2l2 4q0 5 -2 7v10q-5 74 -8 246v47q-2 14 -2 43v71q0 9 2 15v20q-4 20 -4 90v27q-4 40 -4 63q0 85 -2 101v82q0 31 -2 49v16q0 72 -2 160v51l-2 4v17q0 57 2 94q0 15 0.5 26.5t1 17.5t0.5 7q0 4 1 22t1 27
v27l2 12v2l4 15v8q8 4 10 4q6 0 10 -8q4 -4 4 -11l2 -2v-4q2 -2 2 -6l15 -45q0 -43 2 -96v-172q2 -6 2 -64q0 -59 2 -71v-29l2 -2q0 -62 2 -113q0 -17 1 -47t1 -41v-100q0 -5 4 -21v-102q0 -5 1 -16.5t1 -16.5q0 -6 -2 -12v-4l-2 -2q2 -8 2 -43q0 -66 2 -101v-59
q0 -33 2 -51q0 -15 2 -21v-14l2 -6q0 -37 -2 -68v-16q-2 -25 -2 -45q-2 -6 -2 -17q0 -6 -8 -6l-2 -8v-4z" />
    <glyph glyph-name="J" unicode="J" horiz-adv-x="690" 
d="M242 0h-72l-31 6q-27 11 -30 14q-60 45 -76 111l-17 74q-3 3 0 6l4 4l-8 23v2h2l23 -9l8 -2h2q8 -8 15.5 -24t7.5 -23l4 -4v-6q2 0 2 -2q0 -12 4 -12l2 -4q2 -6 2 -11q40 -93 84 -110q16 -8 45 -8q49 0 117 24q2 0 4 2h2v2l37 19l26 18q17 17 25 29q12 15 22 45v2
q10 16 13 29l18 100l12 123l7 157v134q0 57 -2 86v24q0 33 -11 262q0 3 -1 19.5t-1 25.5v29l-2 8v21q-2 39 -2 119q-2 31 -2 51q2 8 2 45q0 22 2 26v15l2 6q0 16 4 16q5 21 7 21v6q4 4 10 4h6v-2q0 -6 2 -6q3 -9 0 -17q2 0 2 -2v-12q0 -2 4 -14l10 -49q0 -34 2 -54v-39
l7 -149q0 -3 1 -17.5t1 -23.5q2 -14 2 -41q2 -14 2 -61q0 -8 1 -29t1 -33q3 -80 6 -98v-27q0 -2 1 -8.5t1 -9.5v-6q0 -19 1 -60t1 -63q0 -114 -6 -213q-3 -66 -15 -146q-2 -4 -2 -20q0 -14 -2 -14q-3 -38 -10 -56q0 -6 -4 -14l-4 -14l-2 -5q-5 -23 -16 -45l-5 -8l-8 -10v-2
q0 -2 -2 -2q-7 -17 -24 -31q-64 -48 -127 -69l-13 -7l-14 -4v-2q-8 0 -10 -2q-3 0 -6 -1t-4 -1q-36 -6 -37 -6z" />
    <glyph glyph-name="K" unicode="K" horiz-adv-x="983" 
d="M877 -35h-3q-18 0 -24 2h-4l-4 2q-2 0 -2 2q-2 0 -2 2v2q-24 32 -43 64l-19 29l-2 2l-10 14q-4 8 -12 16l-11 17q-31 39 -45 67q-6 5 -32 41l-15 19l-49 65l-51 74l-12 14q-3 9 -11 17q-12 18 -16 22q-2 0 -2 2q0 4 -2 6l-25 37h-2l-6 13q-22 37 -39 61l-35 55
q-5 5 -14 23l-6 12l-2 4l-4 6l-2 4l-29 64l-12 31l-11 32q-11 -17 -20 -20l-2 -2q-2 0 -4 2v-2q-2 -8 -2 -19v-18q-1 -7 -1.5 -19t-1 -30.5t-1.5 -32.5v-10q2 -4 2 -10v-7q3 -16 0 -47q0 -8 -2 -12v-16q0 -40 -2 -58v-14q0 -2 -2 -2q3 -15 0 -43q-2 -33 -2 -100
q0 -13 -2 -17v-45q-3 -27 0 -51v-20q2 -8 2 -21q1 -9 -2 -66v-20q-4 -34 -5 -39v-8q-2 -6 -2 -12q0 -7 -6 -7l-2 -10q0 -2 -2 -4t0 -4v-2h-2l-10 4q-1 0 -2 1t-2 1q-10 7 -10 12q-7 9 -7 25q-2 4 -2 12q-2 0 -2 2v4h2v2q-2 1 -2 3v22q0 4 -0.5 26.5t-1 60t-0.5 79.5v82v37
q0 3 1 10.5t1 11.5v33q2 10 2 35l4 37v14v203q0 5 1 23.5t1 29.5v70q0 2 1.5 7.5t1.5 8.5v111q3 43 0 131q0 12 -3 30v54q-2 0 -2 2t1 6t1 6v4q-2 16 -2 94v27q0 6 -1 15t-1 10v88h2v2q2 14 2 18v2q0 1 2 2t3 2h12l4 -4q0 -1 1 -3t1 -3q0 -2 2 -4h2q0 -4 2 -6v-4
q11 -39 19 -47l6 -97v-61q2 -20 2 -55v-29q2 -12 2 -29v-74q0 -53 2 -63v-178l2 4v2h2l4 2l2 2l50 47.5l41 39t20 20.5l8 8q21 21 29 35l28 30q3 10 13 15l2 2l34 45l7 8q4 4 10 13t11 15t9 9l8 10q23 27 31 41q14 16 14 20h3q3 7 6 11q2 2 2 6h2q2 0 6 4l25 33l59 84l16 24
v4h2l6 6l35 50q1 3 11 18q21 34 28 39v2l4 4l2 2l2 2v2h2l9 8q0 3 4 3q2 -1 4 -3l4 -2v-14l-2 -4q-2 -29 -6 -33l-31 -49q-3 -3 -9.5 -14.5t-10.5 -16.5q-18 -23 -21 -30l-14 -17l-6 -12q-4 -4 -29 -39l-23 -31q0 -2 -6 -8q-4 -4 -4 -6v-2l-80 -102l-43 -50l-8 -12v-2
q-4 -6 -18 -20l-7 -7q-4 -4 -4 -6l-2 -2q-2 -6 -22 -26l-6 -7q0 -2 -2 -2h-2q-5 -10 -15 -20q-8 -6 -26 -29l-15 -18h-2l-6 -6v-2l-2 -4l-4 -5h-2l-10 -10l-11 -6q-4 -6 -16 -14l-4 -4q-11 -15 -19 -15l-12 -10l19 -18q12 -37 22 -54q19 -46 35 -73q2 -5 23 -37
q38 -70 59 -99l8 -12l8 -10l54 -79.5l37 -53.5t12 -17h2q5 -10 14.5 -24l20 -28.5t14.5 -20.5l16 -17l15 -18q4 -8 8 -12q4 -8 4 -11l6 -8l4 -2q0 -3 10 -18q7 -7 15 -19l6 -8v-2q2 -1 3.5 -3t4 -6l4.5 -7l8 -11q23 -34 39 -55q1 -3 4 -7t4 -5l13 -17q8 -16 14 -22
q4 -2 8 -8l6 -6q8 -8 15 -29q2 -8 2 -14v-5q0 -4 -8 -6v-2z" />
    <glyph glyph-name="L" unicode="L" horiz-adv-x="778" 
d="M242 2h-23q-20 3 -29 10q-6 6 -8 11q0 6 -2 14l-6 49v18q-2 6 -2 15q0 7 -4 61l-4 47l-6 133v41q-1 16 -2 61.5t-2 67.5v23q-2 4 -2 14v56q0 34 -2 36q0 7 2 11v8q-2 51 -2 92v29q0 170 -3 284q-2 16 -2 80v31q0 82 2 129q0 8 3 20v33l2 54v6q0 2 2 2v4q0 2 2 2l2 8v2
l2 2h8l6 2l2 -2l6 -6q2 0 2 -2v-2q2 -2 2 -4q15 -26 15 -31q0 -45 2 -96q0 -43 -2 -78q0 -64 2 -82v-250l4 -80v-55q0 -47 2 -88q0 -53 2 -88l6 -184v-93q0 -12 1 -32.5t1 -28.5q0 -10 2 -14q0 -3 1 -9t1 -8v-4q0 -16 2 -26q0 -19 2 -29v-29l2 -4v-6q0 -3 4 -43v-12l-2 -2
l7 -23q0 -5 -5 -10q0 -5 3 -8q2 -2 18 -2h16q14 -2 33 -2l80 6l35 2q14 0 22 2q4 0 9 1t6 1q98 4 110 4h33q25 0 57 -4q1 0 3 -0.5t5.5 -1.5t6.5 -2q6 0 6 -4v-2h2q2 0 4 -2h4q2 -2 4 -2q2 -1 2 -3q-2 0 -2 -2q-4 0 -8 -4q-8 -4 -12 -4q-5 0 -21 4h-20l-4 2h-41
q-308 -14 -342 -14z" />
    <glyph glyph-name="M" unicode="M" horiz-adv-x="1392" 
d="M1204 -41h-2l-6 10q-9 12 -18 29q-4 29 -4 74v18q-3 0 -3 2v41q0 63 3 146l4 192q2 31 2 82q2 35 2 84l-2 10q0 2 1 12t1 17v33q-2 12 -2 73v39l-4 144v34q-4 33 -5 37q-6 97 -20 187l-8 127q-1 -11 -17 -64l-20 -67l-2 -7q-12 -54 -12 -63q-6 -14 -9 -31q-1 -4 -2 -8.5
t-1.5 -6.5t-1.5 -4t-1 -3v-2q0 -5 -4 -13q-2 -2 -2 -6l-16 -61l-11 -39l-10 -31l-110 -350l-21 -59q-10 -24 -14 -46l-2 -6l-4 -12q-5 -23 -13 -31l-39 -110l-30 -86l-13 -33q-8 -32 -20 -61l-37 -103v-2l-6 -29q-4 -8 -8 -8l-6 -14q-9 -18 -9 -21l-2 -2q-2 0 -2 2v4l-10 3
l-2 2v6q0 8 2 14q-2 0 -2 2v6q0 4 -1 26t-1 40v16q-2 2 -2 10v9q-2 2 -2 10v8q-57 207 -205 481l-6 11l-31 57l-24 45l-25 55q-22 50 -47 127l-18 70l-50 180l-41 156l-2 -17q0 -23 -2 -43v-90q0 -2 -1 -6t-1 -6v-8q0 -62 -2 -103v-30l-12 -334q0 -7 -1 -31.5t-1 -38.5v-45
q0 -25 -2 -31q0 -139 -4 -196v-51q2 -29 2 -52v-131l2 -8v-10q-3 -13 0 -19q0 -10 -2 -12v-39q-2 -6 -14 -10q-5 5 -5 8q0 2 -2 4l-4 19h-2q-2 0 -2 2v10q0 3 -1 6t-1 4l-20 94q-4 110 -4 197q0 4 1 35t1 57q0 17 1 66.5t1 81.5q0 2 1 18t1 27v69q1 5 1.5 14.5t1 25.5
t1.5 28v68l6 145v61q0 65 16 183q14 95 41 153q3 31 15 31q2 0 6 -4q8 8 18 8h6q19 -6 31 -45q7 -25 10 -88q2 -37 8 -72q0 -8 9 -30q1 -2 2 -7t2 -6l2 -6l24 -90q4 -24 4 -25q5 -20 7 -26l4 -8q7 -33 30 -109q9 -23 9 -29q0 -2 -2 -2q5 -7 18 -41q8 -24 12 -28
q48 -105 95 -185q5 -18 20 -39l6 -12q1 -3 4.5 -9t5.5 -9q0 -2 2 -4l25 -47q2 -6 41 -80l10 -21l19 -41q17 -28 20 -41q32 -92 39 -137l33 94l41 119l43 123l39 123q55 164 94 295q0 2 4 14t4 19l6 18l2 12l25 125l6 37q20 103 23 115q37 131 81 131q9 0 13 -2q20 -7 37 -40
t22 -73v-6q6 -17 10 -51l2 -15l11 -90q0 -28 2 -53l2 -10l8 -115v-31q0 -2 -2 -2q4 -24 4 -90v-278q0 -3 -1 -15t-1 -18v-18l-4 -105v-41q2 -16 2 -41q0 -51 -8 -174q-1 -18 -2 -38.5l-1.5 -31.5t-0.5 -16v-6q-2 -10 -2 -29q-1 -2 -9 -10l-2 -18q0 -5 -1 -11l-1 -6v-4
q0 -2 -2 -2z" />
    <glyph glyph-name="N" unicode="N" horiz-adv-x="1044" 
d="M186 -12h-2l-24 55q-6 25 -6 78v47q0 4 1 12t1 10h-2v17q0 4 1 9l1 5l-2 2v17q0 4 1 10l1 6q0 408 -9 782l-2 17q0 78 2 125v106l5 107q0 59 38 59q27 0 64 -37q28 -35 43 -69q11 -22 16 -27q30 -57 86 -203l127 -334q110 -290 156 -399l14 -33q14 -27 17 -39
q8 -16 12 -28q13 -34 16 -39l43 -86q8 -11 13 -25q32 -56 53 -88h4l6 -10q-8 54 -8 94l-6 172q-2 25 -2 68q-2 33 -2 67q-1 25 -2.5 50.5l-3 50.5t-2.5 36v25l-3 12v2q0 5 -1 16.5t-1 16.5v17l-18 301q-8 120 -8 159q-9 183 -6 207q-2 4 -2 8v25h2v45v22.5t0.5 14.5t1 8
t0.5 4v2q2 0 2 4v8q3 10 12 13h2q6 -25 8 -47q2 0 2 -17q0 -5 1 -12t1 -8q4 -13 7 -39q0 -4 1 -12.5t1 -12.5q5 -25 10 -73v-11l18 -303q14 -168 25 -366l10 -176q2 -41 2 -115q0 -232 -37 -299q-1 0 -2 -1t-2 -1q-8 0 -24 8.5t-19 13.5q-62 86 -145 269q-87 191 -154 362
l-143 389l-35 80q-5 16 -13 35l-16.5 39t-11.5 28q-6 12 -6 17l-8 22q-3 10 -9 23l-4 6q-15 30 -65 109v-2q-6 -120 -6 -240q0 -23 1 -72.5t1 -75.5q0 -34 2 -59v-16q2 -8 2 -31q0 -16 1 -43.5t1 -36.5q0 -105 2 -160q0 -98 4 -129q0 -89 -8 -272q-6 -129 -6 -143l-4 -48
q-2 -9 -7 -14l-2 -29q0 -12 -2 -16q-3 -6 0 -14v-2z" />
    <glyph glyph-name="O" unicode="O" horiz-adv-x="1103" 
d="M551 -37q-29 0 -43 2q-111 15 -195 96q-31 31 -41 45q-33 46 -57 103l-22 55q0 2 -1.5 5.5t-1.5 4.5l-6 15q-26 79 -45 160q-8 32 -8 49h2q-17 69 -20 143q-2 39 -2 111q0 103 10 213q0 17 8 61l8 45l13 45q1 6 4 15l4 12q24 77 53 133q5 12 27 47q19 34 28 43
q89 95 168 117q55 15 109 18h2q23 0 39 -2l12 -4q2 0 7 -1l12 -2.5l12 -2.5q21 -6 22 -6h4l21 -6q74 -26 92 -47q87 -81 137 -199q56 -128 84 -338q13 -111 10 -178q-6 -229 -63 -418l-16 -41q-3 -5 -7 -14.5t-6 -12.5q-3 -11 -4 -12q-76 -141 -160 -197q-89 -57 -190 -57z
M463 1468l-4 -2q-14 -3 -17 -6q-134 -76 -202 -227q-46 -111 -72 -307v-17q0 -9 -1 -23t-1 -18q0 -14 -1 -31.5t-1 -21.5q0 -41 2 -78q2 -18 2 -47q0 -13 1 -29t1 -18q9 -112 31 -213q12 -55 26 -98q41 -123 97 -207q68 -95 127 -117q50 -16 96 -16q55 0 123 22l18 11l19 10
q21 13 34 26q24 24 45 52q0 1 9 10l6 8q36 56 57 107v2l16 36q34 122 50 240q18 135 18 232q0 45 -10 155l-4 15l-6 47q-39 181 -72 258q-25 62 -57 110q-40 53 -93 103l-16 10v2l-16 8l-9 6l-26 13q-4 0 -8 2h-2q-3 0 -5 2h-20q-82 0 -88 -2h-2q-17 0 -23 -2q-3 -7 -22 -7z
" />
    <glyph glyph-name="P" unicode="P" horiz-adv-x="862" 
d="M190 -4h-2q-2 2 -2 6l-2 4v2l-4 19h-2q-3 3 0 6q0 14 -2 16v2q-3 25 -6.5 50t-4.5 34t-1 10q-2 31 -2 193v123q2 53 2 110v246q2 70 2 141q-4 11 0 25q0 27 -2 37q0 16 -6 80l-4 51q-4 39 -4 102q0 54 4 74q6 65 39 98q23 23 61 23q40 0 92 -12q60 -13 68 -13h10
q4 0 12.5 -1t12.5 -1l10 2h2q62 -3 94 -16q3 0 45 -23l10 -4q46 -40 86 -98q13 -16 13 -27l2 -6q29 -48 32 -98q5 -62 5 -76q0 -63 -17 -143l-14 -41l-12 -31l-27 -43q-34 -49 -64 -76l-30 -24q-4 -4 -6 -4l-27 -19q-84 -35 -145 -35h-13q-48 2 -94 17l-31 14q-8 4 -8 8
l-4 2q-5 7 -37 25v-127q-2 -18 -2 -37l2 -10q0 -19 -2 -25v-6q0 -112 -2 -192v-45q0 -11 -1 -32t-1 -26q0 -115 -4 -131v-43q-2 -2 -2 -6v-16q-1 -3 -1.5 -7t-1 -6.5t-1.5 -3.5v-8q-2 -4 -13 -8zM358 686l9 -2h12q1 0 5 -1t7 -1h4q120 9 193 82q56 59 100 201l2 10
q6 53 4 94v14l-6 60q-17 78 -49 133q-21 43 -43 59q-59 56 -152 62q-123 12 -178 12h-16q-18 0 -25 -10q-14 -18 -6 -92q0 -4 1 -13.5t1 -13.5v-154q-2 -4 -2 -8v-100h2l-2 -31v-260h2l45 -8l72 -27q6 0 10 -2q8 -4 10 -4z" />
    <glyph glyph-name="Q" unicode="Q" horiz-adv-x="1245" 
d="M977 -12q-1 0 -3.5 1t-4.5 1h-4q-23 0 -31 2q-4 0 -8 2h-6q-6 1 -13.5 1.5t-12.5 1t-9 1.5h-6l-31 6q-4 2 -10 2q-1 0 -3.5 1t-3.5 1l-38 8q-7 7 -19 7q-2 2 -6 2q0 2 -4 2h-6l-2 2l-2 2l-17 6v-2h-2l-2 2q-51 -32 -94 -35h-25q-86 0 -182 51q-33 17 -47 31
q-55 48 -78 74l-20 35q-2 2 -6.5 8.5l-6.5 9.5l-8 8v2q-40 78 -61 127q0 4 -4 12l-6 21l-2 6l2 2q-24 59 -33 119q-17 126 -17 225q0 10 1 30t1 30q0 5 7 59l4 25v18l16 72q16 58 45 137l25 53l24 47l2 4q88 129 162 183q54 42 111 71q29 15 41 19l14 4h6q-10 5 -10 8l2 2
h14q9 0 15 -2q1 1 22 8q4 0 6 2l2 -2l-2 -2q-2 -2 -4 -2l-6 -6l19 -2q79 -22 106 -39q104 -68 166 -180q63 -117 98 -320q15 -103 15 -170q-3 -204 -52 -405l-4 -8l-10 -33q-11 -36 -14 -39q-74 -142 -199 -236l63 -20l43 -10l3 -2h8q10 0 20 -2l10 -5h3v3l2 -3q4 0 10 -2
h16l2 -2h19q8 -2 20 -2q13 0 19 2h10l4 1q4 1 8 1q10 0 16 2l7 3h6v2l16 6l8 2l13 6h4v2q4 0 4 -4l2 2h2l2 -2l2 -12q0 -6 -8 -9v-2h-2l-2 -2q-2 0 -2 -2h-4q-28 -14 -91 -20h-18q-1 0 -3 -1t-3 -1zM494 1401l-11 -6l-18 -19l-12 -10q-131 -134 -183 -262q-53 -130 -69 -344
v-15q0 -67 2 -81l6 -70l12 -80q14 -80 47 -172q11 -29 35 -78q57 -99 119 -155q75 -64 158 -76q24 -4 38 -4q50 0 93 18q-23 8 -43 19l-13 6l-6 4h-2l-4 4l-31 20l-12 11l-14 16l-2 2q0 1 -1 2t-1 2l-2 2v8q0 2 4.5 6.5t5.5 4.5h6l2 2l2 -2h2l14 -2q4 -2 13 -11q4 -8 8 -8
l2 -2l29 -25q2 -2 4 -2l14 -8l49 -24h4l2 -2l4 -2h3q2 0 4 -2q1 0 2 1t2 1l10 6q2 1 29 24l28 29q27 40 35 55l6 11q6 3 6 8q26 47 52 110l-2 2l14 37q27 98 41 238q17 144 14 223q-3 83 -14 147l-4 15l-8 43q-41 160 -82 244q-19 44 -66 98q-33 38 -113 92l-8 4l-12 6
q-2 0 -4.5 1t-7 3.5t-8.5 3.5q-1 0 -2.5 1t-2.5 1t-3.5 1.5t-4.5 1.5l-26 6l-17 -9l-90 -53l-4 -2l-16 -12q0 -2 -2 -2z" />
    <glyph glyph-name="R" unicode="R" horiz-adv-x="929" 
d="M786 -18l-16 -9q-13 0 -22 9l-3 2h-2l-4 4h-4l-2 2q-54 46 -96 104l-2 2l-10 15v2q-7 8 -9 10v2q0 6 -8 14l-6 15q-9 23 -10 26q0 2 -4 6q-4 8 -4 13q-11 18 -25 51q-4 7 -7 15t-5.5 15.5l-3.5 10.5q-4 8 -4 10l-19 61q-8 12 -8 27q0 1 -1 3t-1 3q-2 2 -2 6l-2 2v9l-8 28
q-2 0 -2 2v11l-27 92q0 2 -1 5t-1 5q-5 16 -6 16l-2 4v11q-3 4 -10 30q0 1 -5 21q-4 8 -4 16q-10 39 -10 45l-2 2v2h2l-2 3v12h-45q-65 0 -88 2h-23l-8 2h-18q-11 0 -15 2q0 -49 2 -78v-121q-3 -51 0 -102v-41q5 -35 5 -41q0 -90 -2 -174q0 -20 -1.5 -45t-1.5 -29
q-2 -10 -2 -16q-2 -12 -2 -31v-2q0 -5 -6 -8l-2 -19q0 -6 -2 -10v-10v-2h-2l-10 14q-14 14 -14 25q-7 21 -7 47q0 20 -2 22v41l-2 2v23q-2 41 -2 250q-2 72 -2 250v71q0 15 -2 25v57q2 10 2 31v176q2 14 2 37q0 59 -2 104v80q0 145 76 154q35 2 72 2q2 2 10 2q18 0 59 -6
q25 0 35 -2q9 0 21 -1t14 -1q41 -3 84 -13q34 -7 61 -16l21 -8q44 -17 90 -57l22 -25q41 -78 50 -174q4 -27 4 -74q0 -52 -11 -86q-14 -41 -53 -96l-6 -8q-1 -1 -9.5 -11t-12.5 -12q-53 -40 -87 -57.5t-86 -30.5q-37 -7 -75 -10l22 -21q14 -38 17 -49q4 -10 11 -37l7 -26
q1 -1 2 -5t2 -6q4 -16 4 -22q4 -9 12.5 -38t10.5 -40q2 -2 2 -6q2 -2 2 -4q0 -1 1 -2t1 -2v-4l16 -58l21 -61l18 -57q0 -1 6 -13q2 0 2 -2l11 -24q2 -6 2 -15l2 -2q5 -4 9.5 -14.5t4.5 -13.5l2 -9v-2q0 -1 5 -7.5t7 -12.5q5 -15 27 -49q0 -5 8 -13t8 -16l17 -20l2 -5
q8 -4 14 -10q24 -24 27 -33l16 -16l4 -4v-8l4 -4v-2l2 -2v-2zM231 735h21q59 2 94 2q128 0 191 17q104 30 170 127q29 48 38 100q5 50 5 63q0 112 -33 183q-3 8 -10 18q0 2 -2 4l-19 23q-63 47 -172 74q-115 28 -195 28h-10q-50 0 -63 -16.5t-15 -69.5q0 -30 5 -45v-123
q0 -4 -1.5 -11.5t-1.5 -12.5l3 -13q0 -57 -3 -110v-33h-2q2 -14 2 -90q-2 -41 -2 -115z" />
    <glyph glyph-name="S" unicode="S" horiz-adv-x="880" 
d="M393 -2q-3 0 -10 1t-10 1q-8 2 -21 2q-6 0 -12.5 1t-7.5 1q-47 12 -91 36.5t-63 49.5q-27 33 -43 66l-8 16q-6 12 -2 16l-8 17l-8 14l2 2l36 -14v-2q12 -9 31 -37l10 -14l5 -7l2 -6l8 -10l4 -4l4 -6l6 -8q85 -85 176 -88h6q94 0 203 86l4 6q36 44 47 78q12 24 15 47
q8 57 2 123q-3 28 -15 55q-27 71 -75 125q-23 34 -111 110l-139 123l-27 25l-27 26q-26 39 -34 43v2q0 3 -4 7q-3 6 -7 8v2q-28 45 -43 82l-8 26q-9 73 10 175q18 94 54 149q17 28 71 70l9 8q12 10 24 16q89 42 160 51h18q38 0 62 -8q23 -6 53.5 -26.5t40.5 -34.5l6 -6
q2 -7 6 -11l-2 -2l4 -4q6 -6 6 -12q0 -4 5 -6l8 -27q0 -2 2 -6v-4q-4 -12 -12 -14l-3 2q0 4 -6 8v2l-8 16v-2h-2l-2 2l-4 8q-4 8 -4 9l-49 51q-57 45 -113 45q-2 0 -7 -1t-7 -1q-86 -9 -172 -84q-40 -37 -60 -78q-25 -55 -35 -128.5t-4 -121.5l7 -22q2 -14 8 -25
q28 -60 94 -139q66 -78 119 -125q74 -61 135 -123q4 -2 35 -33l2 -2q35 -41 49 -63l24 -49q22 -58 27 -101q2 -6 2 -26v-2l-2 -2q7 -48 -8 -93q-38 -89 -113 -155q-5 -5 -26 -19l-7 -4l-24 -14q-29 -14 -45 -19q-49 -15 -94 -18q-3 0 -9.5 -1t-9.5 -1z" />
    <glyph glyph-name="T" unicode="T" horiz-adv-x="669" 
d="M315 4l-2 -2q-33 13 -30 55v19h-2v2l2 4v6q0 2 -1 24.5t-1 41.5q0 58 6 178v20q0 3 1 9t1 8v22q4 16 4 33l6 70q0 18 4 34v7q0 5 0.5 16l1.5 31.5t2 38.5q0 44 4 90q0 25 6 100v37l2 4v33q3 3 3 6v51l2 14q0 9 1 32.5t1 37.5q0 13 -1 43t-1 47q0 2 -1 14t-1 17v39
q0 8 -1.5 28t-1.5 31v33q0 1 -1 11t-1 16q-2 10 -2 22q0 3 -1 13t-1 16q-3 29 0 35q0 4 -2 4v18l2 2v6q-20 0 -32 2h-17l-4 2h-20q-6 2 -27 2l-8 3q-17 0 -53 4q-12 2 -27 2q-10 0 -16 2h-11l-4 2h-2l-43 6l-8 2q-6 2 -12 2l-25 6h-6l-2 2h-2l-4 2l-2 2v4q-2 0 -2 4l2 3h2
q1 0 2 1t2 1h4l18 2q24 -4 39 -4q3 0 23 -5q10 -2 28 -2l3 -2q6 0 12 -2h12q53 -3 68 -6h14q89 -6 104 -6q5 0 17.5 -1t17.5 -1h99l4 2h2l2 -2q1 0 7.5 1t12.5 1q33 0 47 4h13q1 0 6 1t10 1l21 2v2q8 0 12 2q4 0 6 2q30 6 33 6q7 0 10 3q1 0 3 1t3 1q8 0 10 -2h4l3 -3
l-3 -10v-2l-8 -6h-4q0 -2 -2 -2h-2l-2 -2h-8q-29 -10 -107 -21h-2q-14 0 -20 -2q-3 0 -11 -1t-12 -1h-69q-10 -2 -31 -2h-41l2 -6q20 -38 20 -43q8 -42 11 -96q0 -15 2 -29q0 -49 2 -86q0 -15 0.5 -27.5t1 -19t0.5 -8.5q0 -43 -2 -78v-88q0 -97 -8 -203q0 -17 -9 -102
q0 -17 2 -21v-4q0 -27 -2 -45q0 -2 -1 -4.5t-1 -3.5t-1 -6.5t-1 -11.5v-4q0 -24 -4 -56q0 -6 -2 -12v-2q0 -2 -2 -2q3 -12 0 -43q-3 -30 -8 -101v-34q0 -11 -2 -17v-10q-2 -16 -2 -49q0 -15 2 -23v-16q0 -23 -2 -41q0 -4 -1 -19t-1 -24q-1 -7 -1.5 -15.5t-1 -13.5t-1.5 -8
v-6q-2 -6 -2 -14q0 -6 -9 -6l-2 -9v-6q-2 -2 -2 -4z" />
    <glyph glyph-name="U" unicode="U" horiz-adv-x="1075" 
d="M526 -2h-24q-95 0 -187 59q-7 4 -25.5 21t-21.5 22q-45 60 -57 93l-21 55l-4 12q-14 47 -32 119q0 8 -2 12q0 3 -1 8t-1 7v6l2 2q-14 42 -19 98q-9 114 -12 227v82q0 23 2 58l4 114q0 33 2 47v31q-2 6 -2 16q3 21 12 191q6 58 6 98l5 31q3 10 6 10l2 21q0 2 2 4q0 2 1 6
t1 6v2h-2v2l2 2q4 0 4 -4l22 -35q5 -20 5 -53q0 -21 2 -27v-10l-2 -10v-2h2v-10l-2 -11v-2h2v-10q-2 -6 -2 -12q0 -48 -9 -248q-6 -199 -6 -309l2 -12v-15q-4 -30 2 -53q0 -27 2 -39q0 -5 1 -10l1 -6q0 -6 1 -17t1 -16q1 -9 2 -16.5t2 -11.5t1 -5q9 -84 24 -149
q8 -47 16 -72q40 -119 84 -174q61 -79 154 -94q20 -4 33 -4q68 0 135 40q1 0 12 11l15 10q16 16 22 25q6 6 15 18t10 14q3 3 8 13q10 10 12 16q29 49 47 94l13 33q61 187 86 401q6 43 10 131v19q0 4 1 13t1 13v15l2 31v151v62q0 29 -6 114l-8 70q0 9 -1 22.5t-1 16.5
q-3 12 -3 14v8q-2 4 -2 8l-2 7v16l-2 21v6q3 10 15 10l2 -2q0 -1 1 -3t1 -3h2l4 -13h2q2 0 4.5 -7.5t3.5 -8.5q26 -68 27 -76q15 -99 18 -211v-65q0 -107 -6 -242q-3 -93 -12 -151q-31 -206 -78 -353q-2 -2 -2 -4q-9 -19 -12 -28l-15 -37q-60 -98 -141 -164
q-86 -74 -156 -80z" />
    <glyph glyph-name="V" unicode="V" horiz-adv-x="905" 
d="M63 1382q6 -8 12.5 -22.5t11 -28.5t5.5 -16q0 -1 3 -10.5t3 -10.5h2l2 -10q3 -8 4 -8q0 -1 3.5 -10.5t3.5 -10.5q54 -162 139 -491l2 -10q3 -7 8 -30.5t8 -31.5q23 -91 27 -110l37 -142q0 -3 7.5 -31.5t8.5 -37.5l53 -181q2 -7 31 -77q25 -65 29 -90q0 3 8 57q9 50 21 92
l10 39q2 6 5.5 15.5t5.5 16t3 7.5q16 54 16 59q1 5 4.5 12l4.5 9q3 16 30 98l11 31l100 319l29 101l2 12q1 4 3 10l4 11.5t3 7.5l49 190l21 100l12 70l10 59q1 1 2 10.5t2 10.5q0 23 6 29q1 8 2 15l1.5 10.5t0.5 4.5q2 0 2 4v4q7 7 15 7q0 -5 2 -11t2 -22h2q0 -1 -1 -10.5
t-1 -10.5q3 -87 0 -96q-9 -66 -35 -194q-17 -84 -61 -234l-33 -113l-49 -153l-37 -117l-10 -31q-1 -5 -5 -16t-4 -14q-12 -38 -30 -136q-39 -221 -97 -272q-26 -26 -67 29q-40 55 -55 104q-4 14 -15 41l-4 10l-26 91q-1 3 -13 49l-4 10q0 2 -5.5 21.5l-13 46t-10.5 43.5
q-1 3 -2.5 8t-2.5 9t-1 7l-2 6h2q-10 22 -24 90q-23 99 -51 203l-11 41q-2 4 -20 80q-4 17 -29 100q0 3 -4.5 19t-5.5 20l-14 41q0 2 -6 22t-16.5 60l-22.5 86q-7 22 -15.5 54t-9.5 36l-8 29q-3 10 2 10h2l-4 21q0 14 -4 18q5 -5 17.5 -13t16.5 -14z" />
    <glyph glyph-name="W" unicode="W" horiz-adv-x="1083" 
d="M389 -12v-2h-2q-4 4 -12 4q-2 0 -2 2q-2 0 -2 2q-2 0 -2 2q-2 0 -2 2h-2q-9 15 -9 20q2 4 2 13v2l-2 2v6q-2 2 -2 4q0 4 -2 4v4l-2 4q-85 182 -106 250l-2 6l-6 31v2q0 2 -1 4.5t-2 7t-2 7.5q0 1 -1 3t-1 3v2q0 6 -4 22v8l-8 72q-4 16 -4 39l-16 90q-2 4 -2 12l-21 78
l-27 99l-8 18v2q0 6 -4 14v4l-8 25l-2 4v2q0 2 -2 4v4q-4 12 -4 15l-13 37l-4 16l-26 86l-10 39q-4 10 -7.5 23.5t-3.5 15.5q-1 1 -12 41q0 2 -1 5.5t-1 4.5l-2 6v2q0 1 -1 5t-1 5v7q-14 74 -17 96q-6 46 -6 55q-1 10 -1.5 22t-1 20t-1.5 13v23h2v16q3 17 4 17v4l13 4h2
q5 -5 8 -16q1 0 4 -7v-4q0 -2 4 -10q12 -30 12 -37q5 -48 15 -96l8 -43l14 -74l15 -55l39 -137l4 -8l2 -7q0 -4 4 -12v-4q16 -43 63 -199q15 -58 23 -104q0 -1 1 -4t1 -4q4 -8 4 -13l2 -4l4 -18q4 -20 4 -29q0 -16 2 -26l2 -7q0 -4 4 -28q4 -20 4 -29v-16l7 -45
q12 -70 20 -101q0 -8 4 -20q0 -1 1 -2t1 -2t1 -5t1 -6t4 -10q0 -2 1 -6t1 -6l21 -47l6 -12q4 -4 4 -9l10 -14l4 -6q16 -24 21 -41l10 37l12 53v6q2 6 17 68q15 54 18 84q1 1 2 4.5t2 5.5q0 1 1 4t1 4q0 8 2 12v7l33 143l29 129q27 116 35 141q0 9 2 15q-2 2 -2 6t-2 4l-4 10
q-7 29 -9 31q-33 129 -49 198l-18 103q-9 100 -6 133l4 33q0 14 2 16q6 27 6 29v4l2 4q6 6 16 6v-10q2 -6 2 -21h2v-20l7 -37q8 -40 8 -51q9 -102 31 -186l32 -138l2 2v7q1 5 17 73q0 2 2 6q0 1 1 4.5t1 4.5v4h2q0 3 8 49l2 6q17 67 25 115q0 6 2 10q0 2 1 6t1 6q0 26 8 39
l6 45q2 5 2 17q4 4 0 8v8l10 53q2 16 7 21q0 2 2 4l2 2q4 0 4 -2l2 2l2 4h2q19 -3 23 -5t6 -9v-7l2 -4l-2 -2h2v-2l-2 -2h2v-2l-2 -2v-2q0 -61 -33 -207v-6q0 -12 -2 -18q-4 -12 -4 -15v-2l-6 -28q0 -10 -9 -37l-20 -88l-10 -47q0 -4 -3 -15t-4 -18l-8 -33l-10 -49l14 -45
l19 -62q40 -141 55 -270q0 -5 1 -15t1 -14q0 -2 1 -7.5t1 -8.5v-16q6 -265 23 -383q5 18 26 61l13 25q0 4 2 10l8 29q13 39 22 77l4 11q1 4 5 14.5t6 21.5l2 11l26 116l9 29v6h2l20 107q7 43 14 75l31 177q8 32 8 49l7 39l10 49q0 2 1 6t1 6l20 121l8 47l7 47q13 87 36 170
l11 37q16 60 22 64h4l4 6q0 2 2 4q0 3 3 6l4 6h2l6 -12q6 -9 6 -17q3 -11 0 -28q0 -1 -1 -3t-1 -3l-4 -21l-2 -6q0 -2 -1 -5t-1 -5q-4 -8 -4 -15h2q0 -6 -2 -10l-2 -8v-2l-48 -264l-18 -105l-33 -192l-2 -13q0 -9 -8 -41l-6 -34q0 -15 -6 -39q0 -9 -4 -25l-15 -74
q-18 -85 -37 -165q-6 -34 -18 -76q-26 -112 -49 -168q-10 -40 -19 -55l-6 -15q-25 -40 -30 -43q-9 -6 -21 -6q-21 0 -43 31q-32 50 -41 100l-6 43v2q0 18 -2 41q0 11 -1 28.5t-1 22.5v136l-2 2v30q-19 151 -58 293l-6 -20l-18 -80l-12 -62l-7 -26l-8 -29q-1 -5 -2.5 -11
l-3 -11.5t-2.5 -8.5q-1 -4 -2 -8.5t-1.5 -7t-0.5 -4.5v-2l-4 -21l-10 -45l-4 -18l-43 -184q0 -2 -1 -5t-2 -7.5t-2 -8.5q-8 -20 -8 -27v-8q-4 -4 -4 -10v-2l-20 -72q0 -6 -2 -12q-4 -8 -4 -14v-2q-2 -2 -2 -15v-2q-3 -6 -7 -6v2l-2 -6h-2v-4l-2 -2h-2z" />
    <glyph glyph-name="X" unicode="X" horiz-adv-x="841" 
d="M59 -18q-14 17 -14 26q0 29 10 45l2 4v6l2 5q2 2 2 6q19 57 115 250l2 6q13 13 17 30l14 27l18 31q2 9 43 76q3 12 21 36l53 99q6 9 29 55l20 37q-10 20 -51 84l-2 4v2q-1 3 -3 6t-5 6.5t-4 5.5q-11 15 -11 21l-20 29v2q-2 2 -2 4l-2 4l-31 49l-8 14q-92 154 -92 160
q-8 11 -17 37l-8 16l-4 4v2q-1 1 -3 7.5t-3 7.5l-39 104q-8 40 -20 56v2l-15 38l-4 13.5l-3 10t-1 5.5l-4 6l-2 4v2h2l-4 11v6l-4 16v2l-2 2v2q3 7 10 9h2l4 -5l6 -8h4q0 -4 2 -6l4 -4q9 -10 19 -23.5t12 -15.5l4 -6l41 -102q1 -2 4.5 -10l9 -20.5t9.5 -27.5q7 -22 22 -57
l4 -8l15 -33l12 -25q26 -53 74 -131q8 -8 8 -14q10 -10 10 -14l10 -15l107 -174q7 11 10 19l25 43q0 8 6 14q0 4 4 8q4 15 12 23q3 4 7 12t6.5 13.5t3.5 6.5l6 11l26 53v2l9 14q29 59 73 172l19 54l2 6q0 2 1 4.5t1 3.5q4 4 4 6l31 96q1 2 1.5 6t1 9.5t1.5 9.5q3 13 8 24
q12 48 12 64l2 4v10q0 6 4 6v3l5 14v2l2 2q4 4 8 4q9 0 12 -16q2 -2 2 -6v-5q6 -47 6 -49q-4 -35 -20 -98q-10 -37 -41 -123q-11 -34 -21 -51q0 -1 -1 -4t-1 -4q-2 -3 -14 -31l-51 -115q0 -1 -0.5 -2t-1.5 -3.5t-2 -4.5l-2 -6l-7 -12l-2 -4v-3l-114 -221l-4 -6
q19 -43 34 -63l5 -4l10 -15l2 -4l4 -6l24 -39q5 -10 5 -12l8 -15l4 -4l18 -34l13 -21l6 -14l2 -2v-2q1 -1 24 -45l54 -103l10 -20q2 -2 6 -15l14 -28q16 -36 25 -52l10 -22q12 -12 12 -21q22 -50 35 -92q11 -28 15 -43q0 -1 1 -3t1 -3l4 -16q0 -7 -6 -10l2 -9v-6l2 -6v-2h-2
l-17 6q-13 4 -14 6q-6 6 -12.5 19t-6.5 16q-4 8 -4 12h-2l-2 4v3q0 2 -2 4l-2 4q-2 2 -2 8l-53 113q-13 30 -66 139v2l-2 4q-2 2 -5.5 8t-4.5 8q-4 14 -6 15l-29 55l-37 72v2l-20 32l-35 62l-18 29l-33 53l-14 -23l-15 -24q0 -4 -6 -13q-4 -8 -4 -10v-2l-2 -4l-27 -49
l-16 -27l-4 -6l-12 -20l-21 -39q-8 -8 -8 -15v-2h-2l-25 -47q-35 -61 -57 -104l-4 -8l-27 -54q-10 -17 -24 -49q0 -4 -9 -22l-4 -11l-2 -8l-37 -84l-18 -41l-6 -14q-2 -2 -6 -2h-2q-1 0 -4 -6v-2l-3 -2l-2 -4q0 -2 -2 -2z" />
    <glyph glyph-name="Y" unicode="Y" horiz-adv-x="770" 
d="M393 -6h-2q-18 2 -24 8l-7 8l-2 8v11h-2v6q-3 24 -6 119v2q0 2 -1 6t-1 6q-4 22 2 31v51q0 4 -1 17t-1 18v16q-2 10 -2 37v51q-5 10 0 17v53q2 6 2 78v34l4 47q0 9 2 13q0 10 2 12q0 8 2 14q-21 23 -34 68q0 9 -11 25l-2 4l-18 53q-2 3 -3.5 8t-2.5 6q0 3 -4 15l-2 6
l-27 63q-2 1 -6 15v4q-13 17 -23 51q-24 55 -55 115q0 2 -4 10l-6 12l-10 18q-2 6 -13 29l-26 58l-7 12q-1 2 -2.5 4t-2.5 3.5t-1 2.5l-8 16l-4 7q-18 31 -41 100q-15 44 -22 70v4q-3 6 0 6l2 2h2l-2 10l-2 12v2h2q0 -2 6 -2q4 0 6 -2q6 0 10 -4l8 -4q7 -7 14 -21t7 -20
q2 0 2 -6l2 -4h2l2 -4q2 -4 2 -8h2l2 -4l2 -7l64 -137l69 -145l2 -4q12 -16 17 -35l6 -12l8 -17l12 -24l4 -11l35 -82l17 -43q2 -6 7.5 -20t8.5 -21l11 -28l9.5 -24t4.5 -13q20 -34 30 -74q2 36 15 66q6 6 10 22q4 14 12 21q15 30 15 33v2l6 8v2l37 74q43 77 92 186l26 57
l2 8q3 9 11 17q29 65 45 110l22 60l19 59q1 2 1.5 5.5t1 6t1.5 3.5q0 2 2 6l2 4v2l2 6q0 6 2 6l2 2v2l6 17l2 2v4q0 4 6 4q4 0 8 -2v-2l3 -6q3 -3 0 -13h2v-16q0 -53 -2 -57q-20 -67 -39 -117q-21 -59 -60 -135l-31 -66l-43 -86q-3 -6 -7.5 -16l-7.5 -17l-5 -12l-14 -27
l-4 -8q-5 -5 -5 -10q0 -1 -2 -4.5t-2 -5.5q-4 -4 -4 -6q-8 -16 -28 -80q-40 -129 -80 -156q-4 -4 -10 -4v-29q0 -15 -3 -30q0 -6 -1 -14t-1 -11v-106q2 -20 2 -99q0 -20 -2 -49q0 -2 2 -8l3 -2v-31q-3 0 -3 -4l3 -2v-57q-3 -25 0 -47v-31q0 -15 2 -23v-12l2 -8q2 0 2 -2
q0 -23 -2 -41q0 -5 -1 -11l-1 -6q-2 -2 -2 -6q-3 -3 -3 -8q0 -2 -6 -2z" />
    <glyph glyph-name="Z" unicode="Z" horiz-adv-x="729" 
d="M246 0q-143 0 -199 20h-2l2 3v10l33 69q20 34 20 41v2q23 42 23 45l49 125q14 34 21 60q19 63 26 92l21 74l45 166q39 119 65 182l15 35l14 30q13 27 24 41q7 14 7 15v2l51 92l16 29q114 204 135 288v2q2 0 2 4q2 3 2 5h-22q-16 -2 -41 -2q-97 -5 -125 -5q-39 0 -55 2h-2
q-65 0 -92 3q-70 0 -99 2q-6 0 -11.5 0.5t-8.5 1.5h-4h-41q-1 0 -3 1t-3 1q-4 0 -14.5 1t-14.5 1h-12q-1 1 -3 2t-2 2v2q4 2 11 2q6 2 20 2q19 0 19 2h2q14 1 31.5 1.5t27.5 1t16 1.5h13q12 -2 47 -2q7 0 23 -1t24 -1h149q92 0 172 6q23 0 35 -18q13 -19 6 -43
q-37 -93 -124 -254h-3l-14 -31h-2q-14 -23 -14 -31q-96 -174 -150 -334l-53 -182q-8 -16 -8 -41l-2 -6l-25 -84l-14 -45l-2 -8l-35 -100l-6 -11q-2 -4 -2 -12l-2 -4h-4q-8 -35 -31 -80q-63 -120 -82 -145v-2q0 -2 6 -5q2 -2 8 -2q1 0 4 -1t5 -1q12 -2 34 -2h27q41 0 66 2h6
q4 0 11.5 1t10.5 1q17 0 23 2q6 0 18 1.5t17 1.5q6 2 14 2q122 9 207 12q11 0 28 1t23 1q9 0 21 -1t16 -1q12 0 22 -2l13 -4q6 0 8 -2h4q2 -2 6 -2q2 0 2 -2h-2l-22 -9h-107q-6 -2 -12 -2q-17 0 -31 -2q-156 -12 -266 -12z" />
    <glyph glyph-name="bracketleft" unicode="[" horiz-adv-x="763" 
d="M555 -311h-2q-6 6 -21 10h-6q-24 6 -28 6h-35q-2 -2 -17 -2h-4q-12 3 -26 0h-31q-114 0 -135 53q-12 19 -12 70q0 48 6 94q1 10 4.5 31.5t3.5 30.5l-2 8v47q0 1 -1 8t-1 12q2 6 2 19l2 215q1 6 -2 141q-4 54 -4 143l-4 158v39v25q0 19 -4 39v22l2 2l-2 80h-2v23
q1 11 -7 254q-2 16 -2 79l-2 4v17q-6 41 -6 69q0 71 41 97q8 8 41 8q23 0 37 -2q62 -7 111 -19l10 -2q4 0 6 -2h18l2 -2h27q4 0 8 -4v-2h-2l-8 -2l-12 -4h-2q-11 0 -15 -2h-2l-78 6q-12 0 -24 2l-47 8q-10 2 -29 2q-33 0 -39 -12q-5 -16 -2 -41q21 -110 21 -125q4 -20 4 -88
q0 -30 2 -57v-51l4 -105v-24q0 -9 2 -13v-26q6 -146 8 -303q2 -8 2 -78v-80q0 -1 1 -10t1 -15q2 -6 2 -16v-86q0 -2 -0.5 -6t-0.5 -9t1 -10v-8q0 -2 -1 -12.5t-1 -18.5q2 -18 2 -55v-24h-2q2 -12 2 -72q-4 -103 -2 -158q2 -4 2 -16q-2 -6 -2 -15v-2l-2 -143q0 -18 2 -22v-11
q38 -28 123 -28q10 0 14 -2h43q48 0 54 -2h6l6 -5q0 -2 -2 -4h2q11 -13 4 -22v-4z" />
    <glyph glyph-name="backslash" unicode="\" horiz-adv-x="692" 
d="M539 -35v-8h-2l-11 4l-16 14v2q-10 17 -10 39q-2 9 -2 11v4q-2 2 -2 4l-2 2v4q-2 2 -2 6l-101 262l-4 6q-8 31 -12 31v2q-8 19 -8 27q-7 22 -9 35l-16 75q-6 30 -6 39q-8 38 -8 41q-2 9 -7.5 31t-7.5 29l-18 92q-2 4 -2 10q-1 4 -2.5 13l-3 17.5t-2.5 16.5q-7 47 -13 68
q0 2 -1 6t-1 6q-2 4 -2 10q-4 16 -4 23q-6 24 -6 35q-2 6 -2 12q0 2 -1 5t-1 5q-4 15 -8 45q-2 0 -2 2l-2 17q-7 39 -39 180l-15 55l-2 6q0 15 -4 15v2q-23 94 -26 104q0 2 -1 5.5t-2.5 8l-2.5 7.5q-9 27 -9 32q-10 20 -20 60q0 2 -1 4.5t-1 3.5q0 4 -2 4v6q0 2 -1 5.5
t-1 4.5q-2 2 -2 5v2l-2 16h-2v6q4 8 10 10h2v-2l4 -2l8 -10h2v-2l4 -4q2 -2 2 -6q31 -40 31 -43q22 -50 37 -103l16 -55l19 -74q0 -1 1 -4t2.5 -8.5t2.5 -9.5q8 -28 8 -39q11 -37 21 -88l14 -66q0 -12 4 -16q0 -6 4 -14v-5l43 -229q4 -15 14 -80q4 -24 4 -33q0 -2 5 -12
q2 -4 2 -12l2 -4q6 -13 10 -49l4 -29l2 -6q1 -1 1.5 -3.5t1 -6t1.5 -5.5q1 -4 4.5 -21t3.5 -24q0 -2 2 -4v-14l11 -47q6 -26 32 -103l9 -16v-6q2 -1 10 -21l8 -22l23 -53q20 -28 20 -43q22 -49 29 -99q9 -43 6 -69q0 -8 -8 -8v-13q0 -2 -2 -2z" />
    <glyph glyph-name="bracketright" unicode="]" horiz-adv-x="731" 
d="M352 -297q-40 0 -65 4q-4 0 -12.5 1t-12.5 1q-15 1 -33.5 3.5t-21.5 2.5q-6 2 -23 2l-6 2v2q-2 0 -6 -1t-8 -1h-12v2l10 7l12 6q8 2 59 2q13 0 19 -2q3 0 9 -1t9 -1v2h11l8 -2q69 -11 86 -11q36 0 45 15q14 16 6 98q-2 16 -2 43l-2 6v19q0 4 1 11t1 9v238q0 9 1 23.5
t1 17.5q0 1 -1 11t-1 19q0 10 -1 64.5t-1 99.5q0 52 -2 99t-2 108q0 66 -2 117v117q-4 20 -4 73q2 6 2 17t-1 31.5t-1 25.5v29q0 73 -2 104v29q0 62 -7 260q0 6 -1 20t-1 19v31q-2 17 -2 43l-24 4q-62 4 -137 4h-43q-19 0 -21 2h-2l-2 6v2l4 2h10v2h15q73 6 94 6h59
q79 0 103 -22q2 -4 2 -23q-4 -27 0 -47v-22q2 -14 2 -39q0 -58 2 -111q2 -51 2 -108q2 -6 2 -29v-31l10 -442v-232q0 -37 4 -49v-8q2 -27 2 -98v-27q-2 -6 -2 -27v-47q2 -23 2 -71q0 -9 -2 -13v-16h-2q4 -31 2 -80q-2 -51 -2 -139v-33q-2 -6 -2 -27q-2 -14 -2 -28q0 -6 2 -8
q4 -21 -4 -31q-12 -21 -41 -27q-31 -8 -78 -8z" />
    <glyph glyph-name="asciicircum" unicode="^" horiz-adv-x="1136" 
d="M1053 444h-2q-6 9 -19 13l-12 6q-5 6 -10.5 17.5t-9 20t-3.5 9.5q0 4 -2 6q0 1 -1 3t-1 3q-2 0 -2 2l-4 11q-2 0 -2 2l-2 6v2l-2 2h-2q-91 159 -191 313l-6 6q-2 4 -11.5 21.5t-10.5 21.5q-21 29 -21 33l-20 41q-21 43 -43 100l-10 33l-13 33q-20 56 -49 125l-14 35
l-19 34q-18 33 -24 50q-3 -30 -17 -62l-8 -28l-12 -27l-18 -43q-3 -10 -11 -14l-35 -66l-14 -20q-78 -124 -115 -205q-3 -5 -8 -19q-19 -47 -20 -51l-2 -6l-6 -14l-2 -7l-54 -129l-13 -31.5t-10.5 -26t-6.5 -13.5l-21.5 -40.5l-16.5 -30.5t-7 -13l-5 -8l-2 -7l-2 -2h-2
q0 -6 -12 -18l-16 -18v-5l-2 -2h-11q-2 0 -2 2v3q0 9 8 20l-2 2q0 2 4 8l3 6q2 3 3.5 7.5t3.5 12l3 11.5q9 30 12 37q35 78 53 129l9 18l55 140q24 58 28 65q1 2 2 5t2 5t1 3l104 176l10 18l13 21q8 16 18 47q3 5 16 41q34 78 61.5 120t61.5 58q0 2 4 2q20 0 60 -88
q0 -3 10 -23l4 -6l4 -8q13 -29 31 -78l8 -24l8 -23l4 -8l39 -103q0 -6 2 -8q0 -2 1 -5t1 -5v-2h2l-2 -2l11 -23l16 -34h2q28 -60 72 -130q0 -2 5 -11t9 -13h2l33 -51l39 -66q5 -3 10 -12l8 -12l19 -25q35 -54 61 -115q22 -57 23 -63q0 -19 4 -23h2v-8l-4 -2v-18l2 -9
q0 -2 -2 -2z" />
    <glyph glyph-name="underscore" unicode="_" horiz-adv-x="1251" 
d="M557 -197h-111q-14 2 -67 2h-53q-1 0 -12 1t-17 1h-8l-2 -2h-2q-2 0 -5 1t-4 1h-4q-30 0 -71 3l-37 4l-47 4h-8v2h-11l-12 4h-2v2l-2 6v2h4q2 2 8 2h6l35 4q5 0 19 -1t22 -1q12 -2 31 -2q17 0 29 -2q11 0 31.5 -1t25.5 -1h41q53 -2 102 -2h23q30 0 69 2h158q9 0 19 2h59
q6 2 41 2h10q2 0 2 -2q6 2 33 2q49 0 76 2h45q25 0 39 2h14q8 0 12 2h68q16 -2 33 -2h12l4 -2v-2h10l4 -2v-2q0 -2 -2 -2q-6 0 -10 -8l-2 -2h-10q-2 0 -6.5 -1t-6.5 -1h-26q-21 -3 -186 -6h-31q-2 0 -7.5 -1t-7.5 -1h-145q-6 0 -15 -1.5t-10 -1.5q-22 0 -44.5 -1t-24.5 -1
q-31 0 -76 -2z" />
    <glyph glyph-name="grave" unicode="`" horiz-adv-x="464" 
d="M299 1194q-4 0 -6 2l-4 2q-2 0 -2 2l-2 2v2q-7 7 -29 43q-2 0 -2 2v2l-4 4l-4 7h-2q-2 2 -2 6l-2 4l-7 6v2v2h-2l-12 16l-3 4l-9 9l-2 2q-6 6 -10 14q-4 4 -5 4h-2l-4 6v2l-4 4v3v0h-2l-6 10l-2 2q-19 43 -25 43q-2 0 -2 2v4l-8 23l-2 12v16v2l2 2v2q0 2 2 2l2 2v2
q0 3 2 3h9q1 0 3 1t3 1q6 0 6 -5q0 3 2 3v-3v0h2v-2l8 -4q4 0 8 -4q0 -4 2 -8l2 -8l4 -12q3 -3 3 -9q0 -4 2 -6t2 -4q6 -14 14 -22q0 -2 2 -2v-3l2 -2q1 -2 4.5 -7t9 -11.5t7.5 -9.5q4 -4 4 -6q12 -8 12 -19h4h2v-2l6 -8l4 -4q4 -8 8 -12l3 -5q6 -6 6 -8q8 -12 14 -18v0h2
v-2v-2l2 -2q2 0 2 -4h2v-2l6 -11q2 0 2 -2h4v-2l3 -2q5 -5 8 -20l2 -11v-4q0 -4 -4 -4l-2 -2v-2v-2l-2 -2h-7q-12 -4 -18 -4z" />
    <glyph glyph-name="a" unicode="a" horiz-adv-x="761" 
d="M348 -25h-14q-45 3 -86 27q-38 27 -74 82q-10 13 -12 20l-10 23l-7 18q-6 15 -6 17q-2 2 -2 6l-2 6l-12 59l-2 23q3 133 35 195q4 7 37 49l4 6l12 12q55 41 108 60q27 11 76 14q40 4 58 4q31 0 61 -6l31 -6q4 -1 8.5 -1.5t7 -1t4.5 -1.5l-4 61q-1 16 -6 48t-6 40l-2 8
l-19 97l-4 10l-2 6q-4 12 -4 16l-10 23q-2 2 -2 8l-19 33l-4 10q-38 50 -82 61q-20 5 -24 5h-27q-47 -8 -86 -25l-10 -6q-15 -8 -27 -17q-37 -37 -37 -38v-2l-2 -5l-2 -2v-2h-2l-4 -8h-2v-2l-8 -12v-2l-2 -2h-2l-12 2v20l2 6q2 2 2 4q9 28 22 41q40 37 78 50q52 18 111 24
q6 2 16 2q13 0 33 -4q51 -12 96 -49q0 -2 8 -10l8 -11q49 -76 70 -180q6 -30 12 -110q0 -3 2 -12t2 -13l2 -6q2 -10 2 -35l5 -6l4 -23q0 -16 2 -20v-25q3 -2 0 -10v-2q5 -79 -11 -209v-12q3 -3 0 -16v-48q0 -27 3 -51v-18q4 -16 4 -21q0 -26 2 -67v-39q0 -4 -4 -4
q0 -2 -2 -2v-6l-3 -5h-2q-26 2 -30 9v2l-4 10q-2 4 -2 8v4h-2v8h-3v11l-6 59l-2 -4q-19 -29 -26 -37q-39 -45 -78 -74q-11 -9 -37 -22q-41 -17 -78 -17zM461 571h-21q-75 0 -121 -18q-59 -23 -102 -82q-14 -20 -24 -53q-22 -71 -19 -142q0 -12 2 -16q0 -10 2 -16
q30 -127 80 -189q26 -33 66 -51q8 -4 16 -4q33 0 39 2l20 6l4 4q30 17 50 35l12 12l2 2h2l39 54q35 56 49 108l6 23q0 10 2 18v273q0 16 -2 26q-6 2 -12 2q-46 6 -90 6z" />
    <glyph glyph-name="b" unicode="b" horiz-adv-x="802" 
d="M403 -8h-24q-10 2 -53 16l-23 10l-22 17q-50 50 -76 115l-8 20q0 -41 -2 -74q0 -18 -2 -24q0 -21 -3 -27q0 -10 -2 -16q0 -4 -6 -4l-2 -9q0 -4 -2 -6v-6h-2q-19 10 -24 19q-7 9 -7 36v2q-2 0 -2 9v14q-3 3 0 8v4q-3 36 -12 266v5q-2 8 -2 32q0 7 -2 13v123q-2 4 -2 18v20
q0 20 -4 66v33q-1 19 -2 41l-1.5 33.5t-0.5 17.5v6q-2 14 -2 53q0 42 -2 54v141l-2 2v2l2 14v211q2 8 2 17l-2 6v14q2 0 2 4l6 105l2 22q2 14 2 31l8 70v6q2 2 2 6v4l4 8v2l4 17v2q2 2 2 4q4 4 9 4q4 0 6 -2q0 -2 2 -4l1 -5q1 -5 1 -10h2v-4l2 -6l8 -51q0 -73 -4 -105
q0 -35 -6 -122v-207q0 -11 2 -17v-16q0 -57 2 -135q26 45 59 78q51 45 133 67q27 8 56 8q10 0 16 -2q42 -6 91 -28.5t79 -49.5l19 -16l16 -20q36 -61 66 -195q27 -120 24 -199q-3 -61 -33 -182q0 -17 -8 -37l-2 -6v-2q-11 -40 -27 -72l-18 -34l-2 -9q-6 -13 -45 -71
q-8 -7 -10 -15l-2 -2h-2q-15 -24 -39 -45q-51 -40 -99 -55q-4 -2 -10 -2q-4 -2 -10 -2q-6 -2 -19 -2zM236 205q1 -1 4 -10l4 -9q0 -2 4 -6l2 -4q0 -4 2 -6q41 -67 91.5 -106t96.5 -39h2l4 2l25 14q8 3 21 16l6 6l18 17l51 72l25 43q32 65 49 133q22 83 27 153q4 58 4 88
q0 29 -4 95q0 6 -6 43q-8 40 -9 41q-7 30 -16 55l-6 18q-17 42 -35 72h-2l-10 18q-39 40 -85 68.5t-81 32.5h-10q-22 0 -46 -6l-4 -2h-2q-1 0 -5 -1.5t-5 -1.5l-4 -2q-59 -32 -92 -65q-20 -20 -35 -55q-11 -16 -25 -64l-8 -22v-9l-2 -6h-2v-4q0 -4 -0.5 -7.5t-1 -5.5
t-0.5 -3q-2 0 -2 -4v-60q0 -18 4 -22v-4q2 -12 2 -50v-16q-2 -4 -2 -10l2 -6q0 -13 2 -23v-53q0 -2 -2 -2q2 -8 2 -47l4 -109v-22q0 -4 2 -4v-13q8 -8 11 -14q18 -29 30 -72v-4l2 -8z" />
    <glyph glyph-name="c" unicode="c" horiz-adv-x="720" 
d="M410 -8q-33 0 -78 10q-32 8 -56 29q-60 48 -104 131l-20 37q-53 155 -56 286q-3 54 13 150q0 3 1 14t1 17v8q6 29 16 63l12 33l2 6q14 37 31 68l6 8q4 4 4 6h2l2 2q6 23 33 47q36 39 96 74l23 8l18 6l29 6q7 1 26 3t27 2h17q3 0 28 -5q6 -2 15 -2q4 0 7.5 -0.5t5.5 -1
t3 -0.5q65 -30 84 -73q15 -35 18 -58q0 -4 1 -9l1 -5l3 -6v-6q-3 -2 -5 -2l2 -13v-14q0 -2 -2 -2l-10 6q-16 8 -20 12q0 2 -2 2l-13 25l-6 16l-2 4v5h-2l-2 2l-2 10q0 2 -2 2l-4 8q-43 67 -90 76q-20 4 -29 4q-53 0 -115 -33l-4 -2l-22 -18v-2q-12 -8 -21 -19l-20 -24
q-35 -58 -41 -70q-10 -19 -16 -41q-19 -56 -29 -117q-8 -52 -8 -127q0 -78 8 -143l6 -27q0 -16 4 -28q0 -4 2 -6q0 -5 8 -33q0 -10 2 -12q11 -38 21 -62l6 -18q40 -90 98 -142q4 -4 37 -26h4q2 0 2 -2q1 0 5.5 -2t5.5 -2q35 -9 59 -9q13 0 37 4q26 6 59 25q18 6 49 45l2 8
l2 6l2 5h3l4 4q0 2 1 4.5t1 3.5q3 8 6 10v6h2q2 4 8 4h4l2 -2v-8q3 -8 0 -14q2 0 2 -2v-2q-2 0 -2 -7q0 -1 -1 -3t-1 -3q-19 -45 -29 -53q-55 -40 -116 -51q-32 -4 -49 -4z" />
    <glyph glyph-name="d" unicode="d" horiz-adv-x="868" 
d="M430 -12q-12 0 -16 2q-36 0 -56 10q-73 27 -118 86q-52 63 -82 156q-28 90 -41 213q-2 8 -2 22q0 4 -1 11t-1 10v45q0 15 1 36.5t1 28.5q0 13 2 17v4q5 43 16 104l6 29v2q29 73 71 132.5t81 82.5q27 13 71 16h9q22 0 24 -2q56 -14 89.5 -29.5t84.5 -52.5q40 -32 60 -71
q33 -68 41 -90q2 47 2 96v141h-2v14q0 64 -6 175q0 18 -2 30v23l-3 6v16q-2 14 -2 52q-2 16 -2 51q0 1 -1 10.5t-1 15.5q-2 10 -2 25q0 7 -1 25t-1 26v29q0 10 2 12v4q0 4 0.5 8t1 6t0.5 3v6q4 4 9 4h6l4 -4q2 -2 2 -6q2 -2 2 -5h2v-2q0 -6 4 -10l12 -37q4 -8 4 -12l11 -100
q2 -8 2 -35q2 -10 2 -35q2 -31 2 -55q0 -3 1 -13t1 -16q2 -12 2 -31q2 -10 2 -41q2 -12 2 -41q2 -35 2 -65v-16q0 -2 1 -6t1 -5v-6q0 -16 1 -49.5t1 -52.5q0 -18 -1 -57t-1 -60q0 -20 -6 -106v-27q0 -31 -2 -49q0 -6 -2 -8q0 -115 -21 -232v-31q0 -2 -1 -6t-1 -6v-43
q-3 -28 0 -53l2 -21q0 -8 4 -16v-6l7 -88q0 -4 1 -13.5t1 -13.5q2 -8 2 -18v-15q4 -4 0 -4q0 -2 -4 -2v-8v-12h-2q-29 9 -29 12q-17 17 -17 47l-2 4v6h-2v11q-4 20 -8 61l-2 -6l-27 -47q-9 -15 -22 -33l-6 -6q-24 -24 -51 -33q-55 -18 -109 -18zM459 14v-2q57 9 67 19
q47 44 86 139q1 7 11 31l6 24q1 7 3.5 17.5t2.5 13.5l4 12v2q2 2 2 9q0 41 2 61v4q0 27 2 33q0 19 2 29q0 5 1 16.5t1 15.5q0 27 6 54q0 4 1 11t1 9q0 17 5 37q0 5 1 21t1 26q0 31 2 47v2q2 4 2 14q-9 9 -9 17l-10 18q-30 53 -31 58q-49 108 -83 135q-93 81 -179 84h-8
q-31 0 -57 -23q-62 -62 -96 -174l-7 -24v-7q-4 -20 -4 -22q-10 -119 -8 -211q3 -108 23 -197q25 -96 63 -170v-2q3 -8 23 -32l43 -50l26 -20l6 -4q37 -19 72 -21q2 0 6 -1t6 -1t7 1t8 1z" />
    <glyph glyph-name="e" unicode="e" horiz-adv-x="808" 
d="M408 -8h-21q-82 0 -154 57q-41 29 -63 78q-55 99 -80 270q0 17 -2 33v23q0 3 -1 7t-1 5q9 114 39 233q38 133 80 189q52 76 155 129q29 14 50 18q37 6 59 6q17 0 29 -4l43 -18l10 -4h2q42 -33 84 -84q1 -4 14 -25l2 -4v-2q30 -45 41 -94q32 -129 23 -211q-2 -4 -2 -19
q0 -2 -1 -7.5t-1 -8.5q-7 -24 -21 -27q-8 -5 -30 -8q-18 -2 -70 -2h-94q-83 0 -224 6q-18 2 -47 2q-12 0 -22.5 0.5t-17 1t-7.5 0.5h-22q-3 3 -4 3l-2 2h-7q-2 -23 -2 -72l2 -2v-31q21 -183 80 -295q12 -28 45 -61l6 -4v-2l3 -2q5 -11 10 -11h2q38 -25 63 -33t62 -8
q32 0 86 29q47 22 84 68q4 4 6 10l2 4v2l4 8q3 6 4 6l2 2v5q2 6 10 22l4 6l3 6l2 4v2q10 5 12 5l2 -2v-13q0 -6 -4 -22l2 -2l-8 -21q-21 -58 -43 -74q-91 -63 -176 -69zM276 557q88 -2 256 -2h35q80 0 92 16q8 8 5 23v33q0 50 -9 94l-4 20l-10 50q-26 78 -59 131
q-25 35 -41 47q-52 43 -101 43q-19 0 -37 -6q-70 -24 -131 -97q-46 -58 -90 -172l-10 -41l-8 -32l-2 -9q-7 -29 -10 -63q0 -2 -1 -6t-1 -6q-3 -3 -3 -9q0 -8 -2 -12h74q6 -2 10 -2h23q2 0 7 -1t7 -1t5.5 1t4.5 1z" />
    <glyph glyph-name="f" unicode="f" horiz-adv-x="548" 
d="M272 -4h-2q-33 7 -30 41v8h-2v16q-7 56 -13 275l-2 6v41q0 10 -2 16v211q0 7 -1 32t-1 40v61q-2 66 -2 134q0 48 2 77h-4q-4 2 -12 2h-49q-5 0 -7 2v-2h-2l-2 2h-2q-9 0 -24 3h-19q-8 0 -10 2h-6l-2 2h-2v4q-2 2 -2 4h2q2 2 4 2v2h2l12 6h23q27 0 35 -2h65q0 15 2 23v45
q0 18 2 24v23q2 6 2 14v18l2 2l4 64l-2 2l4 18q12 115 23 177q12 46 12 47v2q0 8 2 10l2 4q13 35 31 64q18 26 51 38q37 11 58 11q16 0 26 -2h11q2 0 2 -2l6 -2h8l2 -2l16 -7h2l4 -2v-10h-2q-8 0 -18 2h-6l-4 2h-6q-12 2 -35 2h-10q-52 -9 -70 -53q-18 -40 -25 -74l-8 -49
q-2 -19 -9 -69t-9 -74v-19q-2 -6 -2 -18l-9 -213q5 0 9 2h14l4 -2h25q4 0 8 -2h39l4 -2q1 0 3 1t3 1h35l10 -2q2 0 4 -2q2 0 2 -2q2 0 2 -2h2v-2l-4 -11q-2 -2 -8 -2h-4q0 -2 -2 -2h-109q-1 0 -3.5 1t-4.5 1h-29v-34q-4 -94 -4 -146q0 -10 2 -16v-21q2 -16 2 -67v-19
q-2 -4 -2 -18l2 -4v-105h-2q2 -12 2 -63q0 -17 5 -135v-35q2 -12 2 -41q0 -42 2 -60q0 -14 2 -20v-2q0 -2 1 -7t1 -7v-7q3 -27 0 -84q-2 -20 -2 -36v-5q-3 -10 -11 -10l-2 -6v-4z" />
    <glyph glyph-name="g" unicode="g" horiz-adv-x="856" 
d="M469 -465l-10 -2q-17 0 -21 2q-74 9 -133 31q-32 11 -61 37q-14 14 -33 38.5t-23 34.5q0 1 -1 4.5t-1 4.5l-2 6l-2 6q-2 6 -2 12v4v25q2 0 2 2v6q3 8 8 8q1 0 3.5 -1t3.5 -1v-2q2 -4 4 -6l4 -14h2l4 -13l33 -47q39 -58 84 -80q57 -32 145 -32q34 0 51 10q42 25 68 84
q6 8 10 29q34 102 53 260q10 98 13 163v7q0 22 -2 30l-7 -8q-62 -88 -114 -113q-58 -28 -117 -28q-35 0 -66 8q-47 9 -88 53q-69 72 -112 191q-3 3 -6 18l-2 6q0 2 -1.5 5t-3 7.5t-2.5 6.5q0 1 -1 3t-1 3q-35 168 -28 336q3 76 33 184l14 47q19 39 37 68l12 14l12 14l4 7
q28 25 62 49q5 5 14 8h2q32 18 53 20q32 4 48 4q33 0 75 -10q6 0 25 -8l18 -8l29 -21q31 -23 55 -51l13 -14q4 -8 8 -12l14 -19q5 -10 8 -10l11 -21q0 -1 1 -3t1 -3v8q0 55 10 99q6 43 16 53q0 2 6 2l2 2l5 8l2 2h2l2 -2q13 -10 16 -16q3 -3 0 -27v-12l-2 -4v-2h2v-2l-2 -4
v-111q0 -37 -1 -115.5t-1 -107.5v-8q0 -35 2 -47v-258q-2 -10 -2 -25v-162l-6 -119q0 -6 -1 -17.5t-1 -16.5q-3 -45 -21 -158q0 -9 -4 -29l-4 -12q0 -10 -4 -14q-8 -32 -8 -39l-6 -13q0 -2 -4 -10q-4 -18 -17 -47l-8 -16q-59 -83 -115 -103q-11 -3 -55 -6zM383 25l8 -2
l21 -7q71 0 125 33q27 15 55 53q10 12 49 86q2 0 2 5q2 2 2 4l4 12q2 4 2 8q0 2 4 6q0 17 7 21q0 6 2 8q0 2 4 2q0 2 2 2v150h2q-2 14 -2 77q0 111 -2 170v23q0 1 -1 5.5t-1 6.5q-2 4 -2 10h-2v9q-3 3 -3 6q0 2 -1 3.5t-1 2.5q-1 57 -17.5 104t-47.5 82t-61 58t-72 47l-6 2
l-31 8h-27q-8 0 -17.5 -2t-10.5 -2q-38 -11 -70 -37q-19 -15 -31 -31q-35 -46 -59 -117q-23 -71 -29 -161q-7 -88 -4 -154q0 -12 2 -18v-15q0 -12 2 -18v-14q0 -18 6 -48v-16l17 -82h2l4 -22q47 -139 110 -211q29 -32 66 -47z" />
    <glyph glyph-name="h" unicode="h" horiz-adv-x="862" 
d="M721 -45h-2l-25 10q-6 9 -6 25v12h-2v299q-2 8 -2 41q0 6 -1 17.5t-1 17.5v45q0 26 -4 88v12q-2 10 -2 25q-2 12 -2 24q-5 51 -19 123q-27 136 -63 203q-2 6 -8 12v2l-9 13v2l-14 16q-4 4 -4 8l-27 19l-10 4q-8 2 -26 2q-52 0 -107 -37q-17 -12 -51 -41l-4 -4v-2l-13 -10
q-39 -51 -53 -84l-18 -49q-7 -17 -15 -54q-4 -12 -4 -14l-2 -4v-29q0 -22 -2 -47q0 -8 -2 -12v-92q0 -2 -2 -2q2 -6 2 -48q0 -30 4 -100v-16q2 -4 2 -13v-8q2 -8 2 -35l5 -53v-10q2 -4 2 -12q4 -16 4 -23q4 -61 2 -90q0 -43 -2 -49q0 -11 -2 -17q0 -6 -7 -6l-2 -8
q0 -2 -2 -4v-8h-2q-20 10 -24 20q-6 6 -6 25l-2 10v23h-2v12q-8 65 -19 233l-2 31v6q-2 8 -2 33q0 1 -1 4.5t-1 5.5v146q0 5 1 11t1 7q2 55 2 98l10 95q0 9 4 59l7 47v21q4 16 4 22v15q0 2 1 6t1 6v4q0 10 2 12q2 18 2 53l2 17q6 70 6 174v59q-2 2 -2 8l2 7q0 6 -1 24t-1 27
v51q0 2 -1 12t-1 17v24q0 22 -4 54v14l-2 4v8h2v33v2q3 8 14 8l2 -2q0 -4 2 -6l6 -8q2 0 2 -2l2 -4q2 -2 2 -7q5 -10 9 -22q10 -20 10 -25q6 -38 10 -102q2 -18 2 -127v-59q0 -52 -2 -91q-2 -37 -2 -59q0 -4 -2 -8v-25l-12 -143q23 33 73 74q29 23 64 45q72 35 133 35
q6 0 14 -2q9 -3 13 -3h2q36 -20 74 -63.5t55 -85.5q17 -40 31 -121l8 -26l2 -9q7 -29 10 -61q0 -21 2 -37v-6l8 -82v-21q0 -2 -2 -2q4 -16 4 -65l4 -143v-52q-2 -10 -2 -28v-86q4 -16 4 -23q0 -28 -6 -80q0 -3 -1 -8.5t-1 -7.5q0 -15 -2 -17q0 -6 -2 -8q0 -4 -6 -4l-2 -2
l-2 -6v-2z" />
    <glyph glyph-name="i" unicode="i" horiz-adv-x="442" 
d="M221 -2l-4 -4h-2l-8 6l-8 10q-6 6 0 25v14l2 2q0 19 6 72l8 88l-2 2v29q2 10 2 34q0 25 2 52v26q0 15 -2 29q0 4 -1 18t-1 23l-8 70q0 43 -4 79q0 7 -2 11v20q0 13 -2 19v4q-2 2 -2 6l2 2l-4 39v12l-13 121q0 19 -2 27v10l-2 2v12q-2 20 -2 68v32l2 41v7h2v2q-3 3 0 6v2
l4 8v2q4 4 11 4q8 0 8 -4q4 -4 4 -6h2l2 -4v-2l14 -29q4 -12 4 -61q4 -32 4 -80q5 -20 5 -39l10 -103v-12q2 -2 2 -6v-4q4 -31 14 -148v-12l4 -39v-39q0 -4 4 -12v-8q2 -10 2 -35v-12q0 -1 -1 -3.5t-1 -4.5l2 -5v-43q0 -4 -2 -12v-33q-2 -23 -2 -73v-17q0 -1 -1 -4.5
t-1 -5.5v-8l-2 -8l-4 -35v-29q-3 -23 -14 -55q-4 -23 -13 -31q0 -2 -2 -2q0 -4 -2 -4t-4 2zM203 1249h-8q-7 2 -27 19l-4 4q0 2 -2 2l-2 2l-4 6l-2 2q-2 0 -2 4v2l-7 15q-2 0 -2 2v4q-8 31 -8 55l6 18v2l2 5q7 11 25 22l16 6h2l13 4h18v4q-2 2 -2 7q2 2 4 2v8h2l19 4
q12 0 12 -8q0 -1 1 -2t1 -2h2l2 -2v-2q18 -27 18 -80v-6q0 -15 -4 -19q-2 -8 -2 -14q0 -9 -2 -17l-14 -26l-8 -8q-10 -7 -25 -11h-4q-6 -2 -14 -2zM186 1329l2 -2l2 -7l7.5 -15.5t11.5 -20.5l6 -10h2v2l2 2v4q2 4 2 10v2q0 7 2 15q4 15 8 49v20q0 4 -4 8l-2 3v2q-2 0 -2 2v2
q-2 2 -2 16q-2 0 -4.5 -1t-3.5 -1q-8 -4 -10 -4q-14 -6 -17 -14q-6 -9 -6 -19v-12z" />
    <glyph glyph-name="j" unicode="j" horiz-adv-x="403" 
d="M16 -459q-43 0 -63 17l-12 14q-1 2 -1 5t1 5q0 1 -1 2t-1 2l-2 4q-5 5 -5 7l-4 8v2h2l17 -4q8 0 16 -4q6 -2 17 -13l8 -10l6 -6h2l6 -4h2q6 -2 10 -2q50 8 95 45t71 92v8q8 21 8 29l11 51q0 10 2 14q5 31 8 91q2 23 2 49q0 51 -6 127l-12 123l-15 122q0 7 -2 11v10
q-2 4 -2 14v6q-2 10 -2 25l-2 4v10q-2 6 -2 23q0 3 -1 9.5t-1 10.5h-2v19q-2 49 -2 123q0 53 2 67v37q2 10 2 23l-2 6q0 10 2 14v4l6 111q0 53 2 59v92q0 9 2 11l2 18v8q4 4 8 4h7v-2q2 0 2 -2q6 -6 6 -14h2v-6l2 -2q0 -2 2 -2v-2q14 -46 14 -56q4 -61 2 -114q0 -43 -2 -74
q0 -21 -2 -31q0 -25 -2 -31v-65q-2 -58 2 -158v-16q0 -2 1 -6.5t1 -6.5v-6l25 -204q6 -40 12 -136l1 -4q1 -4 1 -8v-16l2 -9q4 -36 4 -65v-16q0 -2 -1 -8t-1 -11l2 -8q-2 -35 -2 -78q0 -6 -4 -18v-2h-2q4 -37 -4 -62q-12 -63 -35 -121q0 -4 -10 -22l-8 -14l-6 -11
q-1 -2 -11 -12l-39 -37q-6 -2 -18 -10q-4 -4 -6 -4l-12 -6q-47 -17 -93 -17zM182 1247q-4 0 -6 2q-10 3 -26 19l-3 2q-2 0 -2 2q-2 0 -2 2l-2 2l-4 6l-2 2q-2 0 -2 2v2l-6 17h-2v4q-8 31 -8 55v2l6 16v4l2 5q7 11 25 22l16 6q4 0 8 1l4 1q6 2 15 2h6q0 2 -2 2v7l4 4v8l18 4
h2q12 0 12 -10q1 -2 3 -2h2l2 -2v-2q18 -30 18 -82v-7q-2 -12 -4 -16q-2 -10 -2 -16q0 -9 -2 -15l-14 -26l-9 -8q-10 -8 -24 -11l-4 -2q-3 0 -8.5 -1t-8.5 -1zM170 1327v-8q12 -25 20 -35l7 -12q0 2 2 2v2l2 2v4q2 2 2 8v2q0 7 2 15q5 18 8 49v20q0 2 -4 10l-2 3v2h-2v2
q-2 3 -2 18q-2 0 -10 -4q-2 -2 -9 -2q-13 -5 -16 -14q-6 -9 -6 -21v-12l6 -29z" />
    <glyph glyph-name="k" unicode="k" horiz-adv-x="770" 
d="M649 -27q-12 0 -28 4h-3l-10 15l-6 10l-2 4v2v0q-2 0 -2 2t-2 4v2h-2l-4 9q-60 96 -133 196l-4 4q0 2 -3 6t-4 5q-6 6 -10 14q-13 7 -33 41l-38 47l-19 22q-11 16 -61 52q0 1 -25 18q-33 23 -37 29v-10q0 -72 2 -109v-66q0 -37 2 -55v-12q0 -2 1 -5.5t1 -4.5v-19l2 -4
q3 -27 0 -92q-2 -10 -2 -25q-2 -14 -2 -26q0 -9 -2 -15q0 -6 -8 -6v-10l-2 -4v-4l-2 -2v0q-18 9 -27 18q-6 12 -6 39v2v10q-2 0 -2 2v21q-5 47 -10 268v6q-2 6 -2 33v60v43q-2 12 -2 34v9q4 19 0 26v2q0 47 -2 70v31q-4 91 -4 92v8q0 34 -2 61v207q2 25 2 105v71q0 4 1 17
t1 20v17l-2 6v2q2 2 2 16l2 10q0 44 6 93q0 27 4 55l6 67q2 2 2 9v4l2 4l2 8v4q4 8 4 14q2 2 2 5v2q4 4 9 4q4 0 6 -2h2v-4q1 -2 3 -6.5t3 -6.5v-2l1 -3q1 -3 1 -7l10 -51q0 -22 -4 -72v-31q-6 -81 -6 -125q0 -4 -1 -14.5t-1 -15.5v-29v-293v-55q1 -9 1.5 -20.5t1 -19
t1.5 -11.5v-111v-12q0 -4 1 -8l1 -4v-5q2 -12 2 -49q0 -3 -1 -7.5t-1 -6.5v-12l2 -7v-51q13 13 23 25q1 1 3 2t3 2q26 26 26 31q18 15 27 24q10 10 14 10l52 54l92 94q31 31 37 33l2 4l12 10q31 28 49 49q3 3 7.5 8t6.5 7l29 36q3 3 21 33q8 11 8 15v2l4 6v2q2 4 4 6v2h2
l6 10v2l2 2q1 1 3 2l3 1.5t2 0.5q4 0 9 -10v-10h2v-4q0 -2 -2 -2v-4v-2q-2 -10 -5 -20.5l-4.5 -15.5t-1.5 -7h-2q-18 -30 -57 -72l-82 -78l-39 -37l-74 -78l-4 -4q-14 -14 -14 -16t-2 -2q-123 -123 -129 -143q6 0 39 -35l12 -6q1 -1 4 -3.5t4 -3.5l4 -2l56 -43h2v-4l31 -33
l6 -8l2 -2q2 0 2 -2q10 -6 24 -28l62 -78q12 -17 16 -19q21 -28 23 -32l28 -41h2q0 -6 11 -17l14 -16q21 -30 41 -72l9 -25t5 -14.5t2 -5.5q0 -4 2 -4q0 -5 -6 -8l2 -6v-9z" />
    <glyph glyph-name="l" unicode="l" horiz-adv-x="329" 
d="M195 -25l-2 -6q-22 9 -27 19q-6 10 -6 37v2q-2 2 -2 8l2 2q-2 0 -2 2v10q-2 2 -2 12q-4 40 -13 269v22q-2 6 -2 17v24q-2 10 -2 35v45q-2 12 -2 33v39q-6 75 -6 98q-2 29 -3.5 54.5t-2 35t-0.5 10.5q0 37 -2 64t-2 47q0 15 -2 23q0 6 2 12v8q0 29 -2 35v63q-2 0 -2 2v17
q3 35 0 100v154l6 104q0 4 2 10q0 8 1 25t1 20l8 70v12q0 2 2 2v2q0 9 2 11v2l4 14l2 2v4q4 4 9 4q4 0 6 -2h2v-6l6 -10q2 0 2 -6v-6l10 -52q0 -72 -4 -104q0 -3 -1 -21.5t-1 -31.5q-2 -25 -2 -72v-59q2 -84 2 -150v-16q0 -3 1 -9t1 -8q0 -57 2 -110l6 -109q0 -40 2 -110
q0 -17 4 -25v-4q3 -18 3 -49v-33q0 -19 2 -31q0 -22 2 -30q0 -9 -2 -15v-2l-2 -2q4 -12 4 -47l4 -111v-10l2 -10v-45l4 -55v-23q4 -12 4 -20q3 -28 0 -95q-2 -10 -2 -24q-2 -14 -2 -25q0 -10 -2 -16q0 -6 -8 -6v-8q0 -1 -1 -3.5t-1 -3.5z" />
    <glyph glyph-name="m" unicode="m" horiz-adv-x="1310" 
d="M655 -4l-4 -6l-24 10q-2 0 -2 2q-7 7 -7 23v8v4l-2 2v280l-2 7v69q0 7 -1 22t-1 23q0 24 -4 90v7q0 5 -1 22t-1 25q-4 61 -16 114q-16 113 -58 195q-3 9 -8 14q0 4 -4 8q0 1 -1 3.5t-1 3.5l-14 18v2h-2q-2 0 -2 2q-10 14 -21 21l-8 6q-18 6 -37 6q-36 0 -84 -25
q-26 -13 -45 -32v-2h-2q-1 -4 -8 -11h-4q-32 -40 -51 -80l-15 -28q-1 -2 -4 -9t-4 -12l-14 -39q-1 -4 -2 -8.5t-1.5 -6.5t-1.5 -4t-1 -3v-2v-6l-2 -4l-2 -3v-2q0 -8 -5 -8v-2q0 -6 -2 -8v-4q0 -37 2 -72t2 -69q0 -5 3 -84q0 -7 2 -11q0 -4 2 -8v-4q2 -8 2 -37q0 -2 -1 -5.5
t-1 -4.5v-10l2 -4v-17q0 -5 1 -14.5t1 -13.5v-13l-2 -2q2 -6 2 -35q0 -11 1 -33.5t1 -35.5l2 -6v-19q0 -2 1 -10t1 -14q0 -25 2 -35v-15q4 -4 4 -12q2 -7 -2 -45v-6q-2 -6 -2 -25h-2v-8q0 -4 -8 -4v-2l-2 -6l-2 -2q-15 0 -25 10q-4 2 -6.5 7.5t-3.5 10.5v5v6l-2 2v6
q-6 39 -11 162l-2 4v27q0 2 -1 7t-1 7v94q0 10 -2 14q0 4 -1 23t-1 29q0 7 -1 15t-1 9q0 23 -2 37q0 8 -1 21.5t-1 17.5q-4 46 -4 82q0 14 -2 16v10l2 7v12q-2 2 -2 8v51l-2 2l2 13v67q-2 18 -2 49q0 13 2 21v14l-2 2q0 6 2 8v2q0 22 4 58l4 26q2 27 6 31v4q0 2 2 2v2l2 2h2
l3 5v2l2 2h6q6 0 8 -2l10 -11v-2l10 -20q0 -4 -1 -16t-1 -17v-14q0 -34 -4 -70v-27l2 -8v-10q5 21 21 41q35 54 86 96q37 27 59 35q49 21 101 21h22q1 0 10 -3q2 -2 6 -2q2 0 5 -1t4 -1q32 -18 64.5 -60.5t53.5 -86.5q11 -31 27 -117l2 -10l4 16q15 58 23 78q22 66 65 121
q20 26 51 43q64 31 134 31h12q6 -2 14 -2q6 -2 15 -2q38 -13 81 -52.5t64 -78.5q17 -34 35 -113l10 -31q8 -35 10 -57q2 -16 2 -35l2 -6l9 -76v-20l-3 -2q5 -25 5 -62q2 -47 2 -137v-39q0 -31 -2 -41v-104l2 -7q0 -16 -7 -88q-2 -8 -2 -18q0 -5 -0.5 -9t-0.5 -6t-0.5 -3.5
t-0.5 -2.5q0 -8 -2 -12q0 -4 -8 -4v-6h-2v-6l-2 -2l-25 12l-2 2q-6 14 -6 37v8l-2 2v6q2 0 2 4q-2 33 -2 80v103q2 20 2 53q0 13 1 31t1 24l-2 6v60q-2 16 -2 57l-4 94q0 17 -2 23q0 20 -2 24q-5 51 -18 113q-25 117 -70 182l-8 11q-10 15 -10 16l-23 20l-31 19l-10 4
q-6 2 -20 2q-72 0 -125 -35q-21 -21 -31 -37l-2 -6h-2l-6 -12q-30 -62 -41 -96l-11 -33q-4 -20 -4 -21q-10 -21 -18 -55q-1 -3 -1.5 -6t-1 -5t-1 -3t-0.5 -2v-4l-2 -6l-2 -3q-4 -6 -4 -10v-2l-9 -14q0 -10 3 -25v-8q6 -62 6 -76v-20l-2 -2l6 -62q0 -90 2 -135q0 -4 -2 -6
q0 -16 2 -20q0 -5 -2 -11v-137l2 -6q2 -17 -4 -80q-2 -6 -2 -14q0 -4 -0.5 -8t-1 -6t-0.5 -3q0 -8 -2 -10q-2 -4 -9 -4v-4z" />
    <glyph glyph-name="n" unicode="n" horiz-adv-x="837" 
d="M180 -14l-24 12v2q-2 2 -2 10l-4 17v12q-3 3 -3 6v2h3q-5 55 4 180v17q0 2 1 5.5t1 4.5v18q0 3 1 10.5t1 10.5q4 27 4 51q0 19 4 27v131q-2 35 -2 71q0 2 -1 6t-1 5v18q0 6 -1 13t-1 8v8l-4 37v10q0 1 -1 9l-4.5 37.5t-7.5 70.5q0 1 -1 9t-1 13v17l-2 2v12q-3 34 0 72v36
q0 13 1 27t1 16l2 5v10h2v6h2v2l5 10v2h2q0 2 2.5 3t5.5 1h2q4 0 4 -2l2 -4q4 -4 4 -6q2 0 2 -6v-2q12 -24 12 -33q2 -8 2 -35q0 -6 1.5 -18.5t1.5 -16.5v-28q2 -18 2 -56v-12l4 6q20 52 51 88q36 39 102 74q39 20 58 23q27 6 57 6q32 0 63 -8q1 0 15 -7l12 -4
q33 -28 65 -77t44 -91q12 -35 24 -116q0 -7 4 -19q0 -1 1 -4t1 -4l2 -6q0 -9 4 -25l5 -34v-13q0 -2 -0.5 -4.5t-0.5 -4v-5t1 -6.5l2 -6q0 -8 1 -20t1 -17q0 -31 2 -37v-21q0 -2 -2 -2q2 -10 2 -59v-164q-2 -10 -2 -41q-2 -18 -2 -55q0 -17 2 -25v-18q0 -25 -6 -74
q0 -3 -1.5 -8.5t-1.5 -7.5q0 -13 -2 -15q0 -6 -2 -8q0 -6 -6 -6l-4 -6q0 -2 -2 -2l-24 8v2q-7 7 -7 23v12h-2v4h2v6q-3 9 0 142q0 71 2 116v117q0 57 -2 92q-2 12 -2 47q-3 54 -12 115q-21 123 -53 201l-6 8q-2 2 -2 6l-9 16l-12 19l-4 8q-8 14 -23 25l-8 6q-36 22 -71 22
q-26 0 -45 -8q-19 -6 -50 -25l-4 -2l-14 -8q-47 -37 -64 -63q0 -1 -14 -23l-8 -16q-17 -29 -27 -60v-4q-2 -2 -2 -6q0 -2 -2 -2v-2q-1 -1 -2 -3l-1.5 -3t-0.5 -2q-2 0 -2 -2q-6 -12 -6 -17l-4 -6h-2q0 -4 1 -11.5t1 -10.5q0 -17 2 -23q0 -2 1 -6t1 -6q2 -4 2 -10
q6 -43 10 -148q0 -19 -2 -35q0 -4 -1 -17.5t-1 -22.5v-5q2 -2 2 -10v-4q3 -12 0 -33v-10q-2 -2 -2 -8v-17q-2 -10 -2 -28q0 -6 -2 -10q0 -2 -2 -2q3 -9 0 -33l-6 -72v-37q-2 -2 -2 -8q-2 -12 -2 -37q0 -10 2 -14v-15q0 -14 -2 -26q0 -5 -1 -16t-1 -17q-1 -5 -1.5 -11t-1 -10
t-1.5 -6v-12q-5 -10 -11 -10l-2 -4v-4l-2 -2z" />
    <glyph glyph-name="o" unicode="o" horiz-adv-x="851" 
d="M463 -14q-46 0 -90 10l-35 12l-31 19l-43 30l-4 4l-12 15q-32 32 -60 80h-2l-12 28q-71 187 -74 353q-2 17 9 116v11l6 34q24 109 69 189q17 35 58 76q17 16 48.5 35t45.5 24q16 0 16 4v2q2 0 2 -2q11 0 19 4q4 2 6 2q6 0 8 2l-27 2q-22 0 -36 -2l-13 2l-8 -2h-18
q-16 -4 -21 -4h-6v2q39 11 47 19q30 6 90 6l23 -2l2 2h2v-2h10q1 0 4.5 -1t5.5 -1q15 0 23 -2q139 -41 207 -127q56 -74 90 -248l2 -10q0 -6 1 -20t1 -23q4 -62 4 -82l-6 -68q-10 -83 -29 -156q-10 -39 -22 -71q-43 -115 -74 -156q-44 -67 -98 -90q-28 -14 -78 -14zM221 207
l15 -25q49 -77 126 -125q71 -47 121 -47q3 0 9 1t8 1q40 4 84 68l6 8q7 9 18 35l33 70l18 40l3 11q9 27 20 82l8 26l8 29l13 98q2 20 2 62q0 65 -11 151l-6 39l-8 29q-8 31 -14 43v4q-20 51 -39 82l-23 31q-12 15 -24 24q-73 64 -131 80l-35 6v-2q-2 -2 -4 -2q-8 -4 -25 -4
q-2 -1 -5.5 -2t-4.5 -2h-6q-43 -18 -66 -35q-60 -51 -94 -127q-44 -96 -59 -221q-8 -53 -4 -121q12 -163 57 -281z" />
    <glyph glyph-name="p" unicode="p" horiz-adv-x="872" 
d="M207 -463h-21q-10 0 -12 2v2q-4 6 -6 8v5q-2 0 -2 4v4l-2 2v2q-10 50 -19 198v5q0 24 -2 30v172q2 8 2 23q-2 27 -2 119q-2 68 -2 123q0 42 2 69v68q2 5 2 45v51q0 6 2 8v72l3 18v43q1 14 1.5 36.5t1 56t1.5 59.5q0 19 2 33v26q0 8 2 10v5l6 86v8q2 10 2 31q1 3 2 9.5
t2 8.5q0 6 0.5 11t1 7.5t0.5 3.5v5h2v6h2v2l2 2q0 4 2 4v2h2l2 2h6q5 0 5 -2l2 -2l6 -4v-2l2 -2v-2q12 -22 12 -27q0 -43 -2 -68v-12l21 29q55 70 143 100q30 12 61 12q11 0 17 -2q44 -4 98 -34t88 -68l16 -27l19 -26q36 -87 61 -230q27 -126 27 -217q3 -95 -25 -190
q-5 -19 -16 -49q-32 -57 -49 -78l-35 -35l-6 -8q-64 -49 -86 -60l-21 -10h-4q-36 -16 -67 -16h-8q-99 9 -170 80l-27 43l-14 24q-8 17 -15 43l-20 84l-2 6q0 -54 -2 -81q0 -13 -1 -32t-1 -24q0 -1 1 -5.5t1 -6.5v-21q2 -14 2 -59v-18q0 -2 -1 -7t-1 -8v-149q0 -74 2 -109
q0 -2 1 -10t1 -10v-37l4 -43q0 -1 1 -2t1 -2v-12q0 -1 1 -4t1 -5l2 -6q2 -8 2 -51q2 -10 2 -18v-5q0 -3 -8 -6v-4zM205 659q12 -9 14 -16q3 -8 -2 -37q-4 -8 -4 -12l-2 -19v-22q0 -70 2 -72q15 -154 39.5 -242t79.5 -153l6 -6q16 -21 37 -35t33 -18l36 -9h7q47 3 100 35
q18 10 47 39q62 68 86 139q22 61 25 154q3 65 -7 186q-4 20 -4 33l-4 29q0 18 -4 26v3q-6 43 -16 75l-6 25q-11 37 -39 100l-13 27q-38 51 -87.5 88t-86.5 41h-12q-22 0 -49 -10l-6 -2l-17 -9q-60 -45 -94 -96q-21 -31 -37 -76q-3 -6 -5.5 -16l-6.5 -26.5t-8 -30.5v-47
q0 -9 -1 -25t-1 -21z" />
    <glyph glyph-name="q" unicode="q" horiz-adv-x="866" 
d="M739 -487l-12 -7h-2l-14 11v4h-2q-2 0 -2 4h-2l-3 4q-21 56 -36 192v7q0 6 -1 15.5t-1 14.5q-2 8 -2 29q-3 12 -3 35v129q-4 50 -4 119q-2 63 -2 125v79q-55 -172 -137 -258l-6 -2q-4 0 -8 -4q-15 -8 -25 -10l-24 -6l-4 -2h-7q-8 -2 -20 -2h-10q-45 3 -82 18
q-23 10 -39 23q-51 35 -94 90q-46 61 -68 131q-27 71 -33 178q-2 14 -2 39q0 13 2 23q0 10 2 16l8 59q0 4 5 19q0 2 1 4.5t1 3.5q15 73 47 158h-2v2l18 39q52 83 115 145t110 74q16 8 52 8h30q4 -2 11 -2q2 -1 5.5 -2t4.5 -2q73 -26 119 -72q15 -14 34 -47v2q0 25 -2 37
q0 42 2 47v2q-2 2 0 4v4l2 4q0 9 3 9v2l6 2q2 2 6 2h6v-2l4 -4h2v-3l2 -2v-2l9.5 -15t6 -9.5t1.5 -3.5l6 -74v-365q0 -3 1 -8.5t1 -7.5v-4q0 -77 -2 -145v-132q0 -51 -2 -86v-51q0 -20 4 -30v-103q0 -21 2 -33v-57h-2q2 -4 2 -25q2 -8 2 -26q0 -58 6 -107v-18q4 -8 4 -37
l6 -39l4 -14q0 -6 4 -10v-5q7 -21 9 -43q0 -2 1 -4.5t1 -3.5q3 -5 0 -8v-2q1 -1 -4 -8l-3 -2v-4q-2 0 -6 -4zM371 25l22 -5l10.5 -2t8.5 -1.5t4 -0.5q51 3 92 33q8 5 18 19l4 8l7 6l10 14q5 5 10 15q31 64 35 77q0 2 1 5.5t1 5.5q12 35 20 69q33 208 35 228q0 24 8 155v88
q-13 34 -18 60q-22 83 -55 119q-48 60 -119 75q-8 2 -23 2q-27 0 -47 -10q-44 -24 -90 -75t-72 -105q-6 -6 -16 -33l-12 -39q-34 -123 -43 -244q-2 -23 -2 -65q0 -61 10 -109q17 -70 53 -143l21 -29l37 -47l20 -22l6 -4q22 -22 49 -37q2 -2 8 -4t7 -4z" />
    <glyph glyph-name="r" unicode="r" horiz-adv-x="522" 
d="M205 -10v2q-4 0 -6 2q-7 0 -19 6l-4 8v6l-2 11v4h-2v16q-2 4 -2 12q-12 19 -12 27q0 2 -1 23.5t-1 42.5q-2 16 -2 77q0 3 -1 11t-1 12v14q-7 40 -7 92l-2 9v12l-6 76q-3 52 -6 61q0 2 -1 25t-1 45q0 10 -4 10v6q-2 8 -2 31v20q-1 2 -2 9t-2 10v20l2 10v2q-2 6 -2 29
q0 12 -2 35.5t-2 34.5q0 3 -1 7.5t-1 6.5v27q0 23 -2 35v12q-2 2 -2 10l-3 4q-3 16 0 49q0 5 3 11q0 7 1 17t1 13q2 4 2 11q0 4 6 4l2 6l2 2v6h2q4 -4 8 -4q13 -4 17 -10q2 -1 6 -15l2 -10v-12l2 -2v-6q0 -2 4 -68l6 -100l2 -2v-21q2 -6 2 -18v-21q0 -20 2 -28v-43
q2 -4 2 -23q0 -8 2 -12l8 41v10q0 1 1 4t1 4q0 3 3 6q0 2 2 4v6l4 17l2 10q0 4 4 8q3 24 12 41l4 13q27 71 58 114l24 29l2 4l6 8q31 31 56 45q25 15 30 17q16 7 47 16h5l4 2v2h24q2 0 2 -2l4 -4q0 -2 -2 -2l-2 -2q-2 -2 -8 -2v-2l-4 -2h-4q-11 -4 -29 -17q-37 -16 -53 -32
q-25 -20 -51 -54l-2 -4q-10 -10 -19 -28q-22 -46 -39 -91q0 -8 -4 -12v-6l-2 -4q-27 -118 -33 -166l-10 -88v-25q3 -13 0 -41q0 -10 -2 -14q0 -1 -1 -3.5t-1 -4.5l2 -4q0 -15 -2 -25v-39q0 -2 -2 -2q3 -9 0 -39q0 -57 2 -86v-51q0 -27 2 -39v-12q2 -4 2 -12l2 -7
q3 -21 0 -61q-2 -10 -2 -29q-2 -4 -2 -10q0 -4 -8 -4l-4 -10q0 -2 -2 -2z" />
    <glyph glyph-name="s" unicode="s" horiz-adv-x="684" 
d="M266 -10h-16q-9 0 -29 4q-22 6 -31 10q-61 40 -90 94q-21 38 -24 64q-4 4 -4 20v6q2 2 4 2q2 1 0 7v18l2 2q2 -1 8 -4.5l11.5 -6.5t8.5 -7q6 -6 12.5 -22t6.5 -21q4 0 4 -6q2 -2 2 -7l6 -12l4 -4q1 -1 2 -3l1.5 -3t0.5 -2l25 -41l10 -10q9 -10 14.5 -14.5t15 -13
t18.5 -13.5t18 -7q15 -6 37 -6q54 0 127 37l4 2q11 7 12 10q10 5 18 13l21 22l22 29q29 55 33 76q6 24 6 41q0 111 -90 198q-29 32 -104 90l-8 7l-15 10l-14 10l-8 8l-21 19l-10 8h-2q-3 6 -6 6l-2 4h-2q-41 41 -47 49h-2l-13 17v2q-32 66 -32 135q0 48 14 80q12 28 53 74
l4 4q13 7 19 14h2q67 36 129 39h16q27 0 57 -10q18 -6 44 -21.5t32 -23.5l6 -5l6 -6l3 -4l8 -8h2v-2l14 -18v-2l2 -3q7 -7 -2 -12q-1 0 -3 1t-3 1l-2 2q-8 4 -12 8h-2q-1 0 -3.5 1.5t-3.5 1.5l-6 6l-12 8q-29 15 -39 22q-53 39 -102 39h-6q-77 -3 -125 -63q-34 -45 -39 -76
q-17 -74 14 -141h2q0 -6 14 -25q2 -2 2 -4q64 -67 205 -182q59 -44 97 -101l24 -36q21 -50 23 -68v-43q-2 -32 -17 -78q-3 -11 -12 -20q-6 -23 -33 -54q-49 -49 -112 -84l-9 -4q-1 -1 -7 -2.5t-9 -3.5l-21 -6l-36 -8q-50 -4 -60 -4z" />
    <glyph glyph-name="t" unicode="t" horiz-adv-x="458" 
d="M303 -6q-34 0 -53 8q-46 21 -64 70q-4 10 -8 30q-5 16 -14 109q0 4 -2 6v8q0 2 -1 6t-1 5v4q-5 65 -8 227q0 55 2 127v29l-2 4v75q2 4 2 15v35q0 7 1 22t1 21q0 12 2 14v4q-3 15 0 57l4 64h-8q-6 0 -20 1t-23 1q-3 0 -7 2h-6v-2h-2l-2 2q-16 0 -26 2q-2 0 -7 1t-8 1
q-6 2 -14 2h-2l-2 2h-4l-4 2v10q2 3 4 3q0 2 2 2l12 6h2v-2h25q2 0 7.5 -1t8.5 -1h14v-2h15q1 0 8 -1t12 -1h25v59q0 4 1 16t1 19q3 28 0 49q0 14 -2 20v19q0 23 2 39q0 16 2 26q0 11 2 15q0 12 2 14q0 6 2 8q0 4 6 4l4 6q0 2 2 2l25 -8v-2q6 -6 6 -20v-4h2v-17
q3 -29 0 -153q0 -11 -1 -37t-1 -41l2 -6q0 -7 -2 -11h64l2 -2h67q2 0 2 -2h2q0 2 2 2q0 2 2 2h2q13 0 23 -2q10 0 12 -2h4v-4h6v-4q-2 0 -2 -2v-2q-4 -8 -8 -8l-4 -2h-8q-12 -2 -64 -2h-24q-8 0 -10 2h-68v-45q0 -3 -1 -10t-1 -9q0 -49 -2 -67v-21q-2 -8 -2 -45
q-3 -18 0 -117v-114q2 -33 2 -123q0 -8 2 -10v-13q0 -12 -2 -18v-4q2 -8 2 -21q0 -10 2 -12v-6l-2 -4l4 -51v-15q3 -57 16 -118q5 -18 5 -19v-6l2 -2v-4q5 -20 32 -47q14 -10 37 -13q2 -2 8 -2q15 0 50 9h4l6 2l4 2h10v2l15 4h8v-2l4 -4v-2q-2 0 -4 -2l-11 -7l-4 -2
q-2 -2 -6 -2l-45 -18q-16 -2 -45 -2z" />
    <glyph glyph-name="u" unicode="u" horiz-adv-x="794" 
d="M678 -23h-2q-14 0 -25 7h-2l-4 8l-2 6v4q-2 0 -2 2v6q-4 26 -10 101v20q0 1 -1 8t-1 11v34l-6 -20q-33 -85 -72 -121q-57 -45 -143 -53q-10 -2 -33 -2q-68 0 -123 28q-6 2 -25 17l-6 4q-1 2 -6.5 7.5t-7.5 10.5q-17 19 -29 37l-6 12q-21 52 -27 76h-4l-4 25
q-20 160 -20 274q0 4 1 22.5t1 28.5v54q0 12 1 35t1 34q0 12 -1 33t-1 31v24q-4 36 -4 56q0 83 6 104v6q0 6 2 8v9q1 1 2 3l1.5 3t0.5 2q2 2 2 6q7 20 10 23v6h2q4 4 9 4q2 0 4 -2h2q0 -4 2 -8v-17h2q0 -4 -2 -10v-6q0 -9 4 -33t4 -35q0 -55 8 -147q0 -8 1 -30t1 -38
q0 -13 -1 -46t-1 -52q-3 -45 0 -84q0 -149 14 -223l13 -45q22 -69 67 -121q44 -56 90 -62h25q61 0 125 37q16 10 22 27q16 22 25 53l14 31v8q16 48 21 74q4 12 4 18h2l2 2q1 4 8 68q6 28 10 76v57l5 39q2 4 2 10v10q0 6 2 10v9l1 7q1 6 1 11v115q0 4 -1 10.5t-1 9.5
q0 19 -4 31q-3 39 0 133q2 33 2 66q2 8 2 22q3 6 10 6v19q2 4 2 8h4l8 -8l17 -17q6 -14 6 -47v-18h2v-15h2v-16q6 -105 6 -221q0 -54 -4 -172v-16q-1 -3 -1.5 -8.5t-1 -15.5t-1.5 -17v-41l2 -2v-5q4 -32 4 -79v-41q0 -2 2 -4q0 -3 2 -5v-2q2 -6 2 -18q0 -6 -2 -6v-4l2 -2
v-29q0 -2 -2 -2q4 -9 2 -18q0 -25 2 -39v-13q2 -2 2 -12v-20q2 -2 2 -7q0 -4 2 -8l2 -2q0 -21 -2 -37q0 -1 -1 -4t-1 -4q0 -10 -2 -12q0 -4 -2 -6h-6z" />
    <glyph glyph-name="v" unicode="v" horiz-adv-x="632" 
d="M311 -14q-36 0 -59 96q-4 7 -8 29l-6 28l-13 41q-2 4 -2 6v7l-24 67l-6 21l-37 100l-25 74q-14 46 -14 47q-5 11 -13 38.5t-8 32.5l-2 7q-4 16 -4 22q-23 81 -31 137l-12 72l-6 47q-4 27 -4 47v8l-2 7v2h2v43q0 1 1 2t1 2v2q3 8 8 8h4l2 -2q0 -2 2 -4q0 -2 2 -4l4 -13
l2 -2q0 -9 5 -14q0 -2 8 -22l12 -41l25 -136q16 -76 37 -155l2 -8l22 -76l62 -185q1 -1 4 -10t4 -10q4 -17 8 -21q0 -6 10 -26l17 -41l12 -31q11 -25 18 -49q0 4 2 4v4q4 26 19 64l12 32l2 9l6 24q16 51 21 56q0 8 2 12l4 6l2 4q0 1 16 55l6 13l54 151q0 3 4 19l6 12
q0 12 8 31q1 6 10 28l21 74q6 28 8 29q0 18 2 24l2 6l19 91q3 17 6 20q0 13 4 29q1 4 2 10l1.5 9t0.5 5l4 17q0 3 6 6l2 8v4l2 6q-2 2 0 2v2q2 0 2 -2q3 -3 13 -8q10 -7 12 -12q4 -10 4 -31q-3 -8 0 -14l-2 -4v-15l-2 -4l2 -2q0 -4 -2 -10v-4q-25 -141 -96 -357l-2 -8
q-4 -12 -9 -22q-1 -3 -2.5 -8.5l-2.5 -9t-1 -5.5l-6 -14q-1 -4 -9.5 -29.5t-12.5 -40.5l-37 -104q-13 -43 -19 -49l-33 -125q-2 -6 -3 -14.5t-1.5 -19t-1.5 -15.5q0 -54 -14 -70q-15 -12 -29 -12z" />
    <glyph glyph-name="w" unicode="w" horiz-adv-x="866" 
d="M571 -14q-25 0 -41 28q-17 23 -24 64q0 8 -2 12q0 4 -1 11t-1 8q-2 8 -2 30q-3 9 -6 45q0 9 -2 15q-2 21 -13 63l-6 21q-11 48 -49 170q-1 -6 -27 -66q-11 -34 -35 -92q-12 -34 -12 -41q-9 -24 -16 -68q-2 -6 -8 -36q0 -7 -5.5 -33.5t-9.5 -36.5q-15 -56 -41 -76
q-9 -6 -20 -6q-22 0 -35 33q-12 27 -12 69q-2 10 -2 31l-4 27q0 10 -2 18q0 15 -2 25v12q-2 19 -11 66q-2 0 -2 2l-2 20q-13 63 -59 219q-13 31 -21 70l-2 6q0 1 -1 5t-1 5q-1 2 -2 5l-1.5 4.5t-0.5 2.5l-33 136l-12 69l-2 15q-7 73 -6 77v35q1 7 2 12t1.5 6.5t0.5 2.5v6
q3 6 10 6h4q0 -2 2 -2l4 -6l5 -14q4 0 4 -15q0 -1 1 -3.5t1 -4.5q16 -36 18 -51q11 -79 25 -131q17 -84 30 -129q3 -17 9 -31l8 -29l16 -49l51 -186q0 -11 2 -15l2 -6l7 -20q16 -106 16 -164q0 -39 -6 -66l18 66q4 8 4 37l2 6q5 32 13 57q3 13 10 25v6l22 66l5 8q0 2 1 4.5
t1 3.5l2 4l2 2v-2h2q0 18 20 62q34 85 49 129q-8 27 -8 38l-4 5v2q-4 16 -4 22l-31 133l-14 72q-14 77 -14 90v8l-2 6l-2 23v27q3 8 10 8h4q0 -2 2 -2l4 -6l4 -13h2l2 -2l2 -6q2 -4 2 -8q0 -1 1.5 -3t4 -7.5l5.5 -12.5l16 -37q5 -30 12 -57q14 -66 17 -76l26 -114q4 8 4 12
l4 8l27 76q8 24 8 31q6 24 8 28l21 78q10 27 10 35q10 27 10 49l4 14q0 5 5 5h2l2 8l2 4l2 2h-2v2h2q26 -15 26 -19q9 -27 0 -45v-12l-2 -6q0 -4 -2 -10v-2q-21 -96 -108 -338q0 -12 6 -27q0 -8 4 -16l53 -185q1 -4 2.5 -9t2.5 -7.5t1 -3.5q1 -4 2.5 -9t3 -8t1.5 -4l24 -94
l21 -86q0 3 1 9.5t1 9.5q6 6 6 28l2 7l12 63l4 6q3 8 6 27v8l6 33q9 36 9 41l6 16v2l2 2q0 9 10 51v4l37 142q0 2 4 14q0 3 1 7.5t1 6.5q4 8 4 17q13 40 15 43q4 16 8 24l12 50l8 30q2 4 2 11q4 16 4 20q3 13 8.5 31t15 44t15.5 44l23 57l8 19q4 4 6 4h2l6 14l4 6l2 2l3 -2
l6 -12l3.5 -7t2.5 -7q0 -27 -10 -52q-2 -4 -2 -10l-5 -12v-2h2l-4 -13q-33 -112 -49 -174l-51 -182v-8l-12 -41q0 -13 -8 -33q-9 -27 -9 -43l-20 -86l-10 -49l-29 -127q-4 -12 -4 -27q0 -2 -2 -13.5l-2.5 -14.5t-2.5 -13.5t-3 -15t-3.5 -13t-5 -13t-5.5 -10.5t-7 -9.5
t-8 -5.5q-11 -8 -25 -8z" />
    <glyph glyph-name="x" unicode="x" horiz-adv-x="686" 
d="M623 -2l-2 -4h-3l-24 4l-6 6q-4 4 -4 6q-2 0 -2 2v6q-13 22 -37 78l-23 51l-2 3l-12 24l-19 37q-10 16 -28 57q-7 22 -15 27v2q-10 20 -28 49q-11 21 -15 27l-45 78l-14 24l-20 -33q-9 -17 -48 -82l-4 -8q0 -2 -4 -10v-4q-1 -1 -7.5 -13t-12.5 -20q0 -6 -4 -10l-6 -8v-2
l-2 -4q-3 -3 -13 -23l-10 -18l-6 -7v-4h-2q-13 -26 -17 -32l-34 -62q0 -5 -7 -12q0 -4 -4 -8q-6 -12 -6 -15v-2q-9 -12 -12 -26v-2l-2 -2q-4 -6 -4 -17v-2l-23 -45v-2q-4 -4 -6 -4h-6l-2 -2h-4q-2 0 -2 2h-8l-2 2q-1 0 -3.5 -1t-3.5 -1t-2 1t-2 1q-4 0 -4 6q0 2 2 2h6v2
l-8 6q-5 5 -2 13q-2 0 -2 2l2 2v2q0 2 2 2v4q0 2 4 10h-2v2l2 6q0 2 2 2v-2l2 4v3q0 2 2 2q0 2 2 2q1 0 5 1t8 1l43 88v4l6 12q4 4 4 6l6 15l15 24q8 10 20 35q1 4 4.5 8.5t3.5 5.5t6 13q2 2 5 6.5t4 5.5l38 72l39 73l47 84q-7 11 -10 19q-2 2 -2 4q-10 20 -18 28v3
q-2 9 -11 18q-4 4 -4 8q-2 2 -2 6h-2l-24 45h-2l-6 13l-74 131v2l-10 20l-9 15l-4 2v2q-2 2 -2 6q-2 2 -2 6l-31 61l-8 17l-6 12v2l-6 17l-2 6t-1.5 5t-1.5 3.5t-1 2v1.5v2h-2v2q0 2 2 2h-2v16q0 3 2 3q6 0 8 2t6 2t6 -2h2v-2l4 -5l21 -14q15 -35 27 -51l38 -78
q17 -22 23 -41l61 -108q0 -2 5 -7q2 -2 2 -6l6 -8q2 -4 2 -6q7 -11 25.5 -43l29.5 -51l4 -6l2 4q0 8 6 8l23 43l6 12q30 54 53 103l19 32q7 22 20 41v4q3 7 8 13l37 71l17 35q3 13 14 31q1 2 2.5 5.5t2.5 5.5t1 3q0 2 2 2v2l4 4q0 7 2 7h2l6 8l3 2v2q0 2 2 2v-2h10v-2
q0 -2 2 -4v-8q2 0 2 -3q0 -2 -2 -2v-4q-2 -20 -2 -37l-31 -69l-45 -92q-3 -3 -12 -25l-10 -20l-11 -21q-31 -60 -51 -90q0 -4 -6 -16q-1 -1 -2 -3t-2 -3.5t-1.5 -2.5t-0.5 -2v-2l-43 -80l16 -28q5 -7 47 -90q8 -8 11 -17l4 -4q4 -4 4 -8q7 -10 18 -31q2 -2 6 -10q0 -2 4 -10
l4 -4l11 -21q11 -22 12 -26q4 -3 6 -11v-4q11 -11 19 -32l36 -74q7 -7 7 -12q3 -2 7.5 -11t4.5 -16l20 -41q0 -4 4 -4q2 -2 2 -6q10 -17 13 -41q5 -22 0 -27q-2 -2 -6 -2h-2v-4z" />
    <glyph glyph-name="y" unicode="y" horiz-adv-x="661" 
d="M70 -457l-13 -2h-2v2l19 15q2 2 6 2q2 1 5.5 2.5t6.5 2.5t6 1l15 4h4l12 4h4l2 2q4 2 8 2q59 50 97 143v5q0 4 4 8l6 18q0 6 14 43l4 8l25 76q0 1 1 3.5t1 4.5l12 35l23 76q-15 5 -17 16l-4 11v2l-4 8v2q-2 0 -2 2v4q-41 75 -67 164v2l-7 20q-2 14 -10 37l-6 29
q-4 16 -4 20q-6 24 -6 25l-6 20l-13 41l-20 62q-4 8 -11 34t-8 29v6q0 1 -1 4.5t-1 4.5l-2 4q-2 6 -2 14q0 1 -1 3t-1 3q0 6 -4 10l-2 5v8l-10 33l-2 12l-4 16q-14 72 -25 94v2q0 7 -4 19q0 4 -1 9l-1 5l-2 4q-2 2 -2 11q-6 25 -10 65q-7 21 -7 39l-4 43v4l-2 2v2h2v4l-2 2
v2l2 2v3l2 10v4q0 6 7 6l12 -6l4 -6h2l2 -2l2 -4l19 -31q0 -2 3 -16t5 -21q4 -28 4 -29q4 -8 8 -41l8 -37q1 -2 2 -8.5t2 -9.5q4 -12 4 -20l25 -93q0 -1 1 -3t1 -3v-4l4 -6v-4l21 -74l18 -63q0 -1 1 -5l3 -12.5l4 -17.5l8 -35q0 -5 7 -12l2 -4l10 -31q0 -10 2 -18l2 -3
q0 -2 4 -18q6 -9 6 -20q0 -5 2 -11v-2q7 -20 8 -28l17 -70q10 -10 10 -39q3 -16 12 -31q6 -8 6 -12q9 -9 9 -12q12 -20 22 -49l8 34l17 58l39 145l6 29q0 2 6 20q0 1 1 4.5t1 4.5q8 16 8 36l2 7q4 12 6 14l19 70h-2v2l6 20q25 95 51 213q1 2 2 8.5t2 9.5q10 38 10 39v7
q0 2 1.5 6.5t1.5 5.5q2 2 2 4l22 94l19 82v4h2v2q0 4 2 4q1 2 2.5 3.5t1.5 2.5v2q2 3 16 3l2 -5q2 -2 2 -4h2q2 -2 2 -4v-2q8 -21 8 -28v-3l-12 -73l-16 -72q-3 -21 -10 -47q0 -8 -7 -29l-8 -37l-24 -96q-18 -78 -19 -84q-6 -6 -6 -18v-2l-4 -19v-2l-76 -291l-41 -139
q-6 -12 -6 -29v-2l-2 -4l-16 -59l-13 -31v-8l-22 -66q0 -2 -2 -6l-2 -4v-2l-2 -2q-2 -16 -17 -49l-32 -92q-1 -1 -9 -17q0 -6 -2 -10l-8 -14l-14 -27v-2l-4 -6q0 -2 -2 -2q0 -2 -2 -4l-2 -4q-43 -40 -86 -53l-50 -11q-12 0 -16 -2q-6 0 -8 2z" />
    <glyph glyph-name="z" unicode="z" horiz-adv-x="628" 
d="M80 -10q-30 0 -33 16v2q-4 6 27 60q20 37 22 45q1 4 5.5 10.5t4.5 7.5q3 13 11 21l170 331l94 168l16 37l2 4l35 64l19 28l2 7l30 51l7 8l2 2l10 16l2 6v3l14 26l2 2q10 17 10 23q-1 3 -14 6l-4 2q-4 0 -6 2h-59q-28 0 -56 -4h-172q-31 2 -57 2q-7 0 -47 -4h-17
q-12 0 -18 -2l-6 2l-13 -2l-12 -4h-2q0 2 2 2q16 16 19 16l49 10q2 2 8 2h6q4 0 8 2h23q52 3 172 3h199q32 0 43 -9q10 -15 -5 -53q-19 -35 -28 -47q-15 -18 -25 -41l-20 -33l-13 -22q-18 -32 -51 -97q-6 -10 -28 -51l-50 -98q-59 -106 -94 -176q-1 -2 -8 -17t-15.5 -30.5
t-13.5 -20.5l-12 -24l-12 -25l-8 -16l-5 -6q-3 -5 -15 -29.5t-17 -36.5l-11 -18q-10 -18 -20 -38.5l-18 -37.5t-9 -19q40 7 45 7h29l133 4q39 2 72 2q80 0 92 -2h21q8 0 10 -2h4l20 -2l4 -3h5l6 -6v-2h-25v-2h-16q-1 0 -10 -1t-15 -1h-41l-133 -4q-14 -2 -80 -2
q-31 -2 -84 -2q-15 -10 -57 -10z" />
    <glyph glyph-name="braceleft" unicode="{" horiz-adv-x="567" 
d="M455 -248q-4 0 -15 1t-16 1h-74q-50 1 -93.5 31t-61.5 72q-24 78 -27 196v8q0 2 0.5 8.5t1 18.5t0.5 27v43q0 2 6 51l10 104v15l7 55q0 16 1 39.5t1 32.5q0 26 -5 61q-6 48 -81 102q-20 8 -23 25q-4 27 55 86l4 6q12 12 21 27q4 4 8 12q14 20 16 35q0 1 1.5 3t1.5 3l2 6
q12 46 14 70l4 22q3 124 -8 263q-6 54 -6 84l-2 8v24q0 92 12 150q5 20 19 43.5t28 32.5q42 25 102 28h11l6 2q14 0 18 2h6q8 4 21 4h6q2 0 6 -4l2 -2q-2 0 -2 -2l-6 -2l-14 -6h-4q-1 0 -13 -4q-62 -11 -73 -16q-55 -18 -64 -93q-4 -27 -4 -88q0 -53 2 -84q0 -25 4 -65
q0 -8 1 -17t1 -10q10 -155 8 -231q0 -2 -2 -6q0 -2 -1 -8t-1 -11v-8q0 -12 -2 -16q-17 -58 -84 -133q-30 -39 -67 -76q0 -13 57 -58q53 -38 68 -55q14 -18 14 -117q0 -4 -1 -9.5t-1 -8.5q-2 -6 -2 -21v-8q-3 -70 -6 -90q0 -1 -1 -4.5t-1 -5.5v-10l-2 -4l-2 -2q2 -7 -5 -76
q-9 -92 -6 -166q0 -25 2 -31v-12q0 -2 1 -6t1 -6l2 -15v-22q4 -27 17 -66l6 -18q0 -4 2 -6l12 -23q12 -23 36 -38t48 -15q12 -2 45 -2h29q17 0 25 -2q1 0 2 -1t2 -1t2 -1t2 -1l12 -7l8 -4l6 -2q2 0 2 -2l-2 -2h-20q-2 0 -5.5 -1t-4.5 -1z" />
    <glyph glyph-name="bar" unicode="|" horiz-adv-x="409" 
d="M244 -244h-4l-9 8q-12 9 -16 17q0 1 -6 35q0 12 -2 16v21l-2 6v14l-31 346l-2 6v23q-2 8 -2 20q0 19 -4 35v320q2 68 2 127q0 42 2 75t2 66q0 21 2 33v65q0 2 1 6t1 6v3q0 51 2 69h-2l2 23q2 53 2 225v272q-2 12 -2 29v66q-2 12 -2 24v35q2 14 2 22v9q2 6 10 6h7l4 -8
l4 -15h2q2 0 2 -2v-6q2 -2 2 -8l9.5 -35t6.5 -22t2 -7q0 -22 2 -36l7 -99v-194q0 -8 1 -25t1 -22q0 -58 -2 -105v-86q0 -2 -1.5 -7t-1.5 -7v-23l3 -6q-3 -30 -3 -80q-2 -25 -2 -82q-2 -23 -2 -59q0 -15 -0.5 -29t-1 -22.5t-0.5 -10.5q0 -53 -2 -88q-2 -31 -2 -53v-29l2 -4
v-65q0 -5 -1 -10t-1 -7v-118l-2 -4h-2q4 -16 4 -64v-6q4 -90 8 -133v-12q0 -3 1 -9t1 -8v-10q5 -30 5 -45v-4q3 -40 8 -66v-14q0 -2 1 -7t1 -7l6 -29q4 -58 4 -121q0 -57 -2 -63v-21q-3 -6 -8 -6l-2 -14v-7q-2 -4 -2 -8z" />
    <glyph glyph-name="braceright" unicode="}" horiz-adv-x="638" 
d="M125 -254v2q0 23 4 27q6 6 37 20l6 4q6 0 8 2q6 0 8 2v2l9 2h6q14 7 16 7q102 30 127 104q19 58 16 186v9q-4 12 -4 49q0 3 -1 10.5t-1 11.5q-2 8 -2 19q-4 28 -4 51q-6 76 -6 113q0 35 2 53q9 96 25 141q23 60 125 94q-9 18 -56 45l-28 23q-21 17 -29 31q-23 36 -33 59
q0 3 -1 7.5t-1 6.5v4q-12 54 -14 84h-2v27l12 260q3 51 0 72v26q-9 67 -25 115q-9 21 -30 51q-45 39 -74 58q-8 8 -16 8l-17 8l-8 4l-16 8q-2 1 -6 2t-5 2l-4 3h-6q-1 1 -2 3l-1.5 3t-0.5 2v4v2q2 0 2 -2h10l23 -4q2 0 20 -6q63 -20 80 -29q74 -47 101 -102t30 -164
q0 -39 -2 -66q0 -3 -1 -9t-1 -9q-10 -170 -10 -213q0 -19 2 -25q0 -16 2 -22q12 -113 51 -142q10 -10 30 -26.5t22 -18.5q31 -23 44.5 -36.5t12.5 -24.5q-3 -40 -90 -80q-25 -10 -31.5 -18.5t-9.5 -28.5q0 -6 -2 -10q-4 -24 -4 -31q-6 -30 -6 -37q0 -3 -1.5 -7.5t-1.5 -6.5
q-4 -12 -4 -19v-104l2 -2q0 -2 -2 -2q4 -21 7 -72q12 -153 12 -166v-59q0 -5 -1 -17t-1 -18l-2 -4q-8 -42 -19 -76q-3 -20 -12 -29l-21 -34q-53 -39 -137 -64q-41 -8 -63 -18q-6 0 -10 -4l-5 -5q-1 0 -3 -1t-3 -1h-2l-6 -6q-6 -3 -6 -6q0 -2 -2 -2z" />
    <glyph glyph-name="asciitilde" unicode="~" horiz-adv-x="1241" 
d="M838 500q-13 0 -21 2q-6 1 -47 10l-22 6l-62 27l-59 30l-64 37l-12 6q-7 2 -14 9q-1 1 -4 2l-7.5 2.5t-7.5 3.5l-2 2q-2 2 -4 2l-29 16l-2 -2l-10 6q-50 20 -104 23q-23 0 -33 -2l-4 -2h-8l-3 -2q-32 -6 -67 -27q-16 -8 -33 -22l-2 -2l-31 -25q-16 -16 -20 -18h-4v-7
l-2 -2v2q-2 -4 -5 -6.5t-6 -3.5t-4 -2l-14 -14l-2 -2h-4q-6 0 -6 4h-2l4 6l6 12q0 5 4 9l2 2v2l33 43h2q77 67 166 80q28 4 41 4q45 -4 96 -17q4 0 8 -2h2q2 -2 6 -2l7 -2q51 -18 133 -65l10 -7l27 -16l41 -23h2q1 0 26 -14q9 -2 17 -8h2l32 -14q5 0 7 -2h4l2 -2l24 -7
q12 -2 33 -2t31 2q6 0 12 2h4q2 2 4 2q13 3 17 7l8 4l22 12l25 20l55 56l33 37l10 14q1 0 3 1t3 1h2l13 12q2 2 2 4l2 2q2 0 2 -2l2 -28q0 -1 -17 -29q-1 -2 -2.5 -4t-2.5 -3.5t-1 -2.5l-2 -2h-2v-2l-4 -4q0 -3 -4 -7l-2 -4l-8 -8q-80 -80 -178 -104h-4q-10 -2 -39 -2z" />
    <glyph glyph-name="uni00A0" unicode="&#xa0;" horiz-adv-x="696" 
 />
    <glyph glyph-name="cent" unicode="&#xa2;" horiz-adv-x="843" 
d="M463 -141h-2l-4 4q-13 4 -17 12v35l2 2q-2 0 -2 2v4h2v2q0 2 1 14t1 21q2 10 2 35l7 82q-32 4 -88 18l-9 4l-75 43l-33 31q-48 48 -68 78q-14 24 -24 47q-34 82 -41 123q-14 69 -11 131t23 145q3 23 6 29l10 27l7 18l6 14q2 4 2 8q4 8 4 9l2 4l33 61h-2v2l12 17
q83 111 141 149l2 2q32 19 49 25l7 2l16 6v2h4q0 27 2 45q1 5 1.5 12.5t1 12.5t1.5 8v12q8 44 8 51v4l4 9v4h2v2q4 11 9 14l6 2q8 0 8 -2l2 -4q2 -2 2 -6l2 -2l2 -4v-4l4 -15q0 -6 2 -8q0 -3 1 -7.5t1 -6.5q0 -21 -2 -35v-43q-2 -8 -2 -29q14 2 45 2q45 -9 60 -14
q53 -17 78 -39l4 -4h2q0 -2 4 -2l2 -2q0 -4 4 -4l6 -6l25 -25l2 -4q3 -10 -4 -12q-2 2 -7 2l-16 10h-2l-4 4l-6 4l-23 12l-33 17q-57 34 -100 37q-6 2 -18 2q-13 0 -19 -2q-2 -23 -2 -56q0 -22 2 -53q0 -52 2 -72q0 -59 2 -71v-8q0 -7 2 -9v-34q6 -40 9 -105q3 -83 6 -98
q0 -72 2 -113v-6q0 -2 1 -7t1 -7l2 -6l4 -50q0 -4 -1 -9t-1 -7v-10l2 -6v-74l-2 -2q5 -14 2 -45q-2 -31 -2 -96v-31h35l24 4q5 0 17 4q2 2 6 2q50 26 84 53q7 11 35 39q1 0 2 1t2 1q4 2 12 15h2q0 4 4 4h2q1 0 2 1t2 1q0 3 6 6l11 10h2q-2 -12 -2 -31v-2q-13 -23 -31 -41
l-4 -4q-4 -4 -6 -4q-4 -4 -4 -6l-4 -4l-13 -8q-73 -46 -184 -49q0 -1 -1 -4t-1 -5v-8q-2 -14 -2 -45v-33q-6 -40 -14 -63q-6 -19 -15 -37v-4q-1 0 -3 -1t-3 -1h-4l-2 -4v-4zM446 92h5q1 0 2 -1t2 -1v223q0 16 -6 99q0 10 -7 98q0 38 -6 113v10q0 8 -2 10v53q-2 2 -2 4v13
q-2 27 -2 53v18q0 5 -1 21t-1 26q0 30 -2 48q-2 41 -2 75v50l-2 6q0 2 1 5.5t1 4.5v20l-21 -10q-20 -6 -47 -33q-62 -53 -102 -123l-8 -16l-10 -16q-61 -139 -70 -256q-4 -46 -4 -66q0 -23 4 -69q0 -9 8 -33l12 -47q0 -7 2 -9q5 -15 5 -16l6 -14l2 -6q13 -33 32 -64l9 -16
v-2l39 -45q45 -45 112 -84l29 -13z" />
    <glyph glyph-name="sterling" unicode="&#xa3;" horiz-adv-x="958" 
d="M442 -10h-155q-6 2 -25 2h-10l-47 6q-3 0 -12 1t-13 1l-30 6h-7v2h-6v2l-6 2h-4v6q0 2 2 2h2q0 3 4 3v2h17q6 2 12 2q12 0 47 -7q7 -1 22 -2t21 -2h12q13 0 27 -2h16l-6 4h-2q-6 18 -6 27v6h-2v12q0 5 -2 7q-6 64 -12 299l-3 6v133q0 78 3 113q0 24 2 36v23q0 29 2 45v23
h-78q-5 0 -15 -1.5t-14 -1.5h-24v3l-2 -3h-3v3h-10v4l-2 2v2h4l2 2q0 2 2 2h4l19 8q23 0 39 2h47q12 0 16 2h17q0 41 2 57l12 148l25 153v3l6 26l4 19v2l4 10q3 19 10 41q0 4 4 8v4q5 19 23 64l8 16q57 102 104 143q10 8 45 25l5 2q1 0 3 1t3 1q4 0 4 2h2q33 8 74 8h20
q28 -3 55 -12q49 -16 80 -39l4 -4l9 -4l6 -4q5 -1 10 -6q0 -2 2 -4l20 -17q0 -2 2 -2l3 -2q2 0 2 -2l2 -10h-4l-23 10h-2q-4 0 -8 4l-6 4q-5 1 -27 10l-37 19q-74 33 -98 35q-4 0 -12.5 1t-12.5 1q-29 0 -69 -19q-18 -9 -37 -28q-47 -61 -68 -115l-12 -35q-49 -155 -60 -270
q-12 -82 -18 -158v-43q0 -27 -2 -43q37 0 80 -2q18 0 41 -2q4 0 8 2h23q2 -2 8 -2h35q6 0 12 -2q14 -2 41 -2h49q4 0 6 2h4q19 0 35 -2q5 0 10 -1l6 -1h9q2 0 2 -2v-2h4l2 -2v-2l-6 -11q-2 -2 -11 -2h-16q-8 -2 -37 -2q-38 0 -63 2h-52q-4 0 -8 1l-4 1h-51q-9 0 -34.5 1
t-41.5 1q-2 0 -4 -2h-2q-1 0 -6 5h-41v-7q0 -5 -1 -12.5t-1 -11.5q-2 -4 -2 -17l2 -6v-2q0 -33 -2 -90q0 -3 -1 -10t-1 -10v-4h-2q2 -12 2 -72q-2 -27 -2 -78t2 -76q2 -6 2 -28v-56l4 -63q0 -19 2 -23v-20q0 -1 1 -3t1 -3q0 -2 1.5 -32.5t0.5 -53.5q-2 -18 -2 -35
q-2 -6 -2 -12q0 -3 -10 -3v-6h45q57 2 100 2q8 2 31 2h18q7 0 13 2h2q7 0 22 3h6q3 -3 6 -3v3h37q4 2 25 2q33 0 49 2q10 0 14 2h17q16 0 24 2q7 0 11 2h51q20 0 22 -2q9 0 11 -2l4 -2h6q0 -2 -2 -2l-4 -5v-2l-4 -4q-8 -4 -19 -4h-14q-1 0 -8 -0.5l-22 -1.5t-32 -2l-59 -2
l-2 -2h-16q-2 0 -6.5 -1t-6.5 -1h-14q-10 0 -23 -1t-16 -1h-14q-2 0 -13 -1t-16 -1h-16q-6 -1 -18.5 -2t-16.5 -2h-12q-8 0 -26 -1t-24 -1z" />
    <glyph glyph-name="yen" unicode="&#xa5;" horiz-adv-x="899" 
d="M453 -10v-2l-11 2l-16 8q-2 4 -2 6q0 4 -2 6l-2 8v9l-2 2v6q-3 23 -6 131v49q0 17 2 25v61q0 21 -2 23v71h-43q-2 0 -9 1t-10 1h-6v-2l-8 2q-62 0 -78 4q-2 0 -8.5 1t-9.5 1h-17l-45 7q-6 2 -12 2q-13 3 -14 4q-6 0 -14 1t-9 1h-6l-2 2h-6l-4 4h-7l-4 4v6q0 2 2 2h4
q0 2 5 2h4l22 2q3 0 11 -1t14 -1q8 -2 20 -2q18 -6 56 -6q2 -2 26 -2q6 0 17 -1t16 -1q14 -2 33 -2h16q15 0 27 -2h39v22q0 5 2 7v6q-2 2 -2 6v2l2 6v35q2 8 2 88q0 2 1 9t1 11v19l6 51v8q2 6 2 19v2h-51q-4 -2 -13 -2h-38q-15 0 -25 -2q-15 0 -23 -2h-63q-31 0 -45 2h-23
l-28 2h-2l-2 2h-9v2l-6 2h-2l-4 4v2l4 4q2 2 6 2h7l20 6q4 -2 21 -2h100q25 2 65 2h13v2h2q21 0 39 2q29 0 47 2q-20 15 -43 62q0 1 -1 3t-1 3t-1 3t-1 3q-4 4 -4 14l-11 23q-2 2 -2 4v4l-20 45l-2 2l-6 15q-16 41 -93 180l-24 45l-6 14l-4 6q-9 9 -9 19q-33 51 -57 104
l-29 47l-16 31q-12 21 -12 23l-2 2q0 2 -2 2l-2 2v2h2l-4 4v6q-7 17 -3 21q3 2 7 2l4 -2q5 0 8 -3q2 0 4 -2l2 -2q24 -17 33 -26l55 -86l72 -131q15 -20 37 -64l80 -155q7 -7 10 -17q4 -12 6 -14q0 -2 2 -2q3 -11 20 -47q38 -65 48 -105q-3 26 10 55q0 5 4 17q4 8 4 10v6
l16 33l7 12l14 21l2 6v2l29 53l6 8v2l2 5h2l20 43q24 40 51 96l11 22q1 0 6 11q8 20 14 28l27 49l10 19l4 12v2l4 8q18 36 49 82l29 41l10 15q1 0 3 1t3 1t2.5 -1t2.5 -1l4 8l8 8h2l2 -2q0 -6 2 -8q0 -2 1 -5t1 -5v-9q-11 -34 -22 -41v-4l-7 -8q2 -2 0 -2l-2 -4q-2 -2 -2 -6
h-2q-17 -38 -61 -117l-64 -123v-6l-6 -12q-8 -12 -8 -17h-2l-12 -24l-11 -17l-6 -14l-37 -68l-10 -18q-3 -9 -10 -16q-29 -55 -35 -82q-1 -2 -12 -35q-12 -51 -25 -66q4 0 8 2h74l2 -2q0 2 4 2q2 0 7 -1t8 -1h49l2 -2h24q8 -2 25 -2l2 -2h16q16 0 37 -6q2 0 6 -1t5 -1
q4 -2 10 -2q2 -2 6 -2q4 -4 2 -6h2l2 -2h2v-2l-10 -11q-2 -4 -8 -4l-9 2l-2 2h-2v-2l-2 2h-6l-5 2q-4 1 -9 1q-3 0 -14 1t-19 1l-63 8h-2v-2q-1 0 -2.5 1t-2.5 1h-34v2h-103q0 -2 -1 -5t-1 -5v-29q0 -2 -1 -13t-1 -18q-2 -12 -2 -31v-30q0 -2 -1 -9t-1 -12v-143h37q6 2 22 2
q5 0 7 -2h43q2 2 22 2h80q15 0 23 2h14q2 2 6 2q23 0 41 -2h20q2 -2 9 -2l2 -2h4l2 -2h2v-2l-4 -4q-4 -11 -10 -11h-15l-2 -2h-49l-78 -4h-127q-3 0 -8.5 -1t-7.5 -1h-33v-8q0 -1 -0.5 -7.5t-1 -18.5t-0.5 -27q0 -6 2 -12v-3q3 -9 0 -24q0 -1 -1 -3t-1 -3v-8l2 -2v-31l-2 -8
h-2q2 -6 2 -25q-3 -27 0 -53v-60q2 -2 2 -6v-10l2 -2v-4q0 -17 -2 -33v-12q-2 -6 -2 -25h-2v-8q0 -4 -10 -4v-4h-2z" />
    <glyph glyph-name="dieresis" unicode="&#xa8;" horiz-adv-x="778" 
d="M510 1104h-14l-4 2h-3l-12 4l-4 2q-27 14 -33 33q0 8 2 18q0 6 2 8q11 15 25 23l41 20h2l2 3h-2l-6 4h-2q-2 0 -2 4h-4v4l4 10q4 0 6 2h12q43 0 74 -31l2 -2q2 -2 2 -8q2 -2 2 -4v-2l2 -12q0 -9 -2 -15q-4 -20 -8 -26l-8 -11q-9 -13 -23 -16q-8 -4 -24 -8q-6 -2 -27 -2z
M268 1092q-6 0 -10 2h-4q-6 0 -6 8l-8 6q-1 1 -2.5 1.5l-3 1t-1.5 1.5v2q-4 4 -8 19h-2v6q3 34 21 55l10 10v2h2v2h2l18 9q-2 0 0 2l13 14q2 2 10 2h2v-2l2 2h2l2 -2h10q22 -4 38 -24.5t18 -43.5v-2q0 -2 -2 -4v-4l-2 -10l-9 -6q-4 -4 -14 -19l-6 -4q-8 -7 -23 -14
q-12 -6 -24 -6q-16 -4 -25 -4zM494 1145l2 -2h2q12 -15 28 -15q10 0 17 7l2 2v32q1 5 -0.5 13.5t-1.5 9.5v2v4q0 2 2 2q-3 10 -8 10q-2 -2 -5 -2v-2h-2l-2 -2h-2l-6 -8q-4 -8 -8 -8q-23 -16 -23 -25q0 -1 1.5 -3t1.5 -3h4v-2q-4 -8 -2 -10zM276 1155v-10q0 -21 13 -21h2v-2
q1 0 2.5 1.5t3.5 2.5v7l4 4v4h2v2l4 10v8v2l2 4l-4 4v11q-4 4 -4 8l-18 -19q-2 -2 -2 -8z" />
    <glyph glyph-name="copyright" unicode="&#xa9;" horiz-adv-x="1415" 
d="M713 14q-41 0 -82 6q-153 23 -285 125q-10 8 -43 41q-25 30 -35 45q-1 1 -5.5 9t-6.5 10l-37 59l-12 27q-28 63 -53 149l-11 47q-13 130 -10 283q5 132 29 246q11 46 55 149l6 15l6 12q9 21 17 29q42 65 88 120q21 26 92 84q51 39 123 60q44 11 100 14q3 0 9.5 1t9.5 1
q11 0 27.5 1t21.5 1q14 0 18 -2q11 0 15 -2q12 0 16 -2l8 -2q8 -2 14 -2q2 -1 5.5 -1.5t8.5 -2t11 -4.5h6q29 -2 101 -27l24 -12h2l25 -12q2 0 6 -4q14 -7 18 -13q153 -123 224 -293q56 -142 65 -381v-18q-3 -109 -16 -184q-8 -42 -23 -94q-49 -132 -88 -201
q-26 -50 -57 -86q-99 -113 -201 -154q-87 -37 -186 -37zM199 543l12 -45q50 -171 115 -260q45 -59 101.5 -103t111.5 -61q106 -29 192 -29q49 0 111 10q22 5 59 27q69 39 96 70l4 4q31 25 43 43l9 10q44 60 80 131q14 23 18 41h2l18 53q3 12 12.5 40t10.5 36q33 143 33 311
q0 18 -4 64q0 8 -2 22l-4 23l-11 78q-17 83 -43 145l-22 55l-27 49q-93 141 -143 177q-51 39 -99 59q-10 6 -38 14l-13 4q-21 7 -22 7q-71 12 -111 12q-4 0 -13 -1t-13 -1q-139 -14 -230 -90q-103 -86 -178 -262q-32 -63 -49 -162q-20 -99 -23 -230q0 -12 -1 -31.5t-1 -27.5
q0 -65 10 -137v-8q1 -3 4.5 -16t4.5 -21zM635 362h-19l-4 3q-39 13 -53 20l-22 21q-27 27 -48 55q-10 17 -18 35q-3 9 -12 31.5t-14.5 38.5t-8.5 30q-12 52 -16 117q-4 49 2 131l2 24l4 17l2 10l4 18q0 5 1 12t1 9q0 6 4 10q3 16 17 62l6 16q51 105 96 147q6 6 39 29l6 2
l14 6q44 17 89 17q25 0 51 -11q41 -10 69 -24l9 -4h2v-2l8 -6h2l2 -7l6 -18v-8q-4 -4 -12 -8h-2v2q-10 5 -13 14h-2l-2 2l-2 4l-28 12q-86 29 -97 29h-8q-36 0 -80 -27q-14 -7 -32 -32q-41 -56 -62 -119l-2 -2q-8 -16 -8 -31q-32 -134 -29 -235q3 -81 10 -119q0 -3 9 -29
l10 -37q1 -2 2 -5.5t2 -4.5v-8q0 -5 4 -17l4 -4q0 -2 1 -5t1 -5q8 -13 19 -39l4 -6l4 -4q0 -2 -2 -2q21 -28 22 -31q24 -27 66 -47l18 -6q7 0 13 -2h22q23 0 51 8l23 8l14 13l51 65q23 29 33 37l14 12l5 2q2 0 4 -2l4 2l4 4q2 2 6 2h2v3h4v-3q0 -2 -2 -2v-8q-2 -2 -2 -6
l-4 -6l-6 -12l-10 -17l-3 -2l-4 -4v-4q-9 -18 -12 -18q-32 -38 -97 -64.5t-126 -26.5z" />
    <glyph glyph-name="guillemotleft" unicode="&#xab;" horiz-adv-x="720" 
d="M530 6l-6 2q-5 0 -10 8l-4 7v2l-4 4v4h-2l-2 2v2l-88 168l-2 2q-4 14 -13 22q0 3 -4 11l-6 8l-10 22l-23 52q0 1 -1 3.5t-1 4.5q-6 6 -6 14q-5 19 -24 51q-13 33 -13 43q0 17 15 51v5l2 6l6 6l8 16l2 6v2q0 2 2 2l2 3l17 32l43 72l32 53l15 23q8 12 8 14l2 4l4 4l2 4v2
l41 62q13 11 27 39l12 18l2 2q0 2 2 2l8 8h4q13 -2 13 -6v-6q2 0 2 -2v-4q-2 -4 -2 -12q-4 -12 -5 -13l-30 -53v-2q-44 -66 -51 -74l-23 -40q-44 -69 -55 -97l-6 -10q0 -2 -4 -6l-3 -4q-32 -74 -32 -99q0 -10 2 -16q0 -4 2 -6v-4q0 -1 1 -3t1 -3h4l8 -23l2 -16l2 -2h2
q0 -5 4 -13l13 -22v-10h2q2 -2 0 -2v-2l14 -29q6 -14 19.5 -40l17.5 -34l8 -14q2 0 2 -2v-4l4 -6q3 -3 6 -11l2 -8l19 -37l8 -12l6 -8l4 -4q19 -34 27 -56q4 -24 6 -26t2 -10q0 -1 -4 -5h-2v-10h-6q-2 0 -8 -1t-9 -1zM324 25q-3 0 -5 2q-5 0 -8 6l-4 6v2l-4 4v2h-2l-2 2v2
l-82 164l-10 23l-12 22l-9 16q-15 43 -20 48q0 4 -4 16l-4 6q-2 6 -9.5 22.5t-11.5 22.5q-10 30 -10 37v2l12 62q0 2 4 14q4 4 4 8v2q6 20 9 23h2l14 28h-2v2l6 9l53 96l9 12q8 8 8 14v2l2 3l2 6h2l2 2l14 26l17 27l14 29q4 4 4 10l12 22q0 5 2 7l2 2v2l3 2l4 6l2 2
q4 2 10 2l4 -2q2 0 2 -2v-2q2 -2 2 -6v-2q2 0 2 -2v-7q2 -24 -2 -28q-10 -24 -27 -56q-2 -9 -20 -36q-3 -6 -9.5 -16.5t-8.5 -14.5l-19 -31q-29 -53 -41 -80l-2 -4v-4h-2v-4h-2l-2 -4q-25 -69 -25 -109q-3 -14 0 -22v-6q8 -8 13 -23l2 -14l2 -2h2q0 -2 1 -4.5l2.5 -6.5
t2.5 -6t3.5 -8t2.5 -8q4 -4 4 -8v-2v-2v-2q3 -3 15 -27l32 -72l9 -14q14 -27 14 -29l16 -34q2 0 2 -3v-2l6 -10l9 -12q12 -20 22 -49q0 -2 1 -6.5t1 -6.5q1 -2 2 -5l1.5 -4.5t0.5 -2.5v-8l-4 -4h-2v-8h-2l-12 -2q-4 -2 -10 -2z" />
    <glyph glyph-name="uni00AD" unicode="&#xad;" 
d="M598 580h-39q-27 0 -29 2h-122q-5 0 -9.5 0.5t-6.5 1t-3 0.5h-37q-3 0 -10.5 1t-11.5 1h-13q-3 0 -11.5 0.5t-23.5 1.5t-28 2q-8 0 -16 4l-9 2h-6l-45 4l-8 2h-12l-27 4l-2 2h-6l-2 2h-2l-4 2h-2q0 2 2 4v9q2 2 8 2v2h6q16 4 18 4h5l38 -4q21 0 31 -2q6 0 14 -1t9 -1h12
l8 -2q16 -2 30.5 -3.5t20.5 -2.5t7 -1h18q10 0 20 -2q13 0 19 -2h70l16 -2h67l9 -2q2 2 6 2q8 0 12 -2h107l4 2q19 0 39 -2h2q14 0 16 -2h10v-2h4l4 -2v-6q-3 -5 -8 -8v-2q0 -2 -6 -2q-1 0 -3 -1t-3 -1h-16q-16 -2 -111 -2z" />
    <glyph glyph-name="registered" unicode="&#xae;" horiz-adv-x="927" 
d="M496 528q-66 0 -140 23l-32 14l-31 19l-41 32q-4 3 -12 13q-31 34 -54 69l-12 25q-62 160 -59 291q0 24 12 94l2 10l6 19q0 1 1 3t1 3q35 97 80 153q24 35 62 62q41 33 102 53l8 2l6 4h11q0 2 2 2q-7 0 -9 2q-14 2 -22 2q-2 0 -2 2h2q41 9 43 9q27 0 80 -9h4q1 0 4 -1
t4 -1q1 -1 3 -2l3 -1.5t2 -0.5l4 -2q11 0 15 -2h2q4 0 16 -6l2 -2q84 -46 154.5 -145t99.5 -213l2 -11q2 -16 2 -57q0 -37 -2 -51q-6 -46 -8 -56q-15 -75 -35 -122q-16 -37 -27 -56q-53 -87 -90 -112q-55 -45 -116 -54q-14 -2 -43 -2zM463 1409l-25 4q0 -4 -10 -4h-6v-2
q-47 -17 -72 -35q-70 -47 -108 -106q-41 -67 -66 -181q-10 -61 -8 -92q3 -124 43 -225l10 -23q5 -13 12 -20q45 -63 117 -113q70 -52 135 -59h9q64 0 120 39q9 6 25 22l37 52l4 4q11 15 16 26l2 9q24 54 33 81q8 19 8 25h2q0 4 3 17.5t4 19.5q6 21 6 39q6 44 6 92
q0 28 -4 82l-6 33v2q0 4 -5 14q0 2 -1 4.5t-1 3.5l-10 41q-11 36 -35 76q-8 19 -18 29l-23 24q-73 73 -112 92q-40 17 -82 29zM584 709q-2 0 -4 2q-2 0 -2 2q-3 0 -3 2q-5 5 -16 33l-4 6l-4 4v2q0 1 -1 3t-1 3q-4 4 -4 10q0 9 -6 15v6l-15 22l-4 10q-16 32 -22 37v2
q0 2 -2 2q0 1 -1 3t-1 4l-5 6q-2 0 -2 2v2l-6 10q-2 0 -2 2v2l-24 35v2q-1 2 -9 8q-2 0 -2 4q-4 4 -12 17l-14 18l-2 2v4l-4 2v2q0 2 2 2l2 2q0 5 2 5v2h2q0 2 8 2q8 4 12 4q2 0 6 -4q20 3 35 12v2h2q5 0 17 12q5 3 12 13q6 2 6 6l12 18l5 21q4 12 4 16q-2 2 -2 6h2
q-2 2 -2 6v8q-2 0 -2 2v3q-3 14 -17 28l-12 13q-6 0 -6 4l-39 16q-5 5 -23 8l-41 10h-8q4 -4 4 -22q0 -3 -1 -8t-1 -8v-21q0 -5 -1 -11t-1 -7q0 -2 1 -7.5t1 -7.5v-4v-17t0.5 -12.5t1 -8t0.5 -5.5v-2v-10l4 -33q0 -10 1 -23t1 -14l-2 -35l4 -6v-2q2 -2 2 -14v-6q0 -2 -2 -4
h2v-41q0 -17 3 -35v-21q0 -12 2 -18v-2l2 -4v-4l2 -2q3 -9 0 -25q0 -4 -2 -6l-2 -14v-4q0 -7 -11 -7l-2 -2l-2 -4q-14 0 -26 6l-5 7l-2 6v4h-2v8q-5 16 -8 82l-1 4q-1 4 -1 10v53q0 8 -1 18t-1 13q-4 16 -4 33q-2 8 -2 35q0 12 -2 12v37q0 32 -2 57v25l4 33v6q0 21 6 33v4h2
v2l2 2l2 4l2 2h2l6 2q7 0 7 -2l2 -2h14q12 2 33 2q39 -4 55 -10q21 -3 53 -19q15 -6 19 -10q24 -13 37 -35q2 0 4 -2v-2q0 -1 1 -2t1 -2v-2q10 -32 -2 -68q-2 -5 -19 -26l-2 -2q0 -2 -2 -4q-3 -6 -10 -13h-2l-4 -4l-15 -12l-4 -2h-2l-8 -6q-3 -1 -8 -4.5t-6 -4.5l-12 -6
l-3 -2h-6v-2l-6 -2h-6q4 -3 7 -6.5t6.5 -7l4.5 -4.5q1 -2 3 -3.5t2 -2.5l20 -25l4 -6q0 -4 4 -8h2l31 -49l12 -27q0 -2 2 -2t2 -2l2 -2l7 -10l2 -5v-4h2q0 -2 4 -6q0 -1 1 -4t1 -4v-6q4 -4 4 -8q2 -6 10 -23h2v-4q4 -2 4 -6l-2 -2l6 -8v-2q0 -2 4 -2l3 -2q2 -2 2 -15
q0 -12 -9 -14v-2l-2 -2q-4 0 -6 -2q-2 0 -8.5 -1t-9.5 -1q-2 -2 -4 -2z" />
    <glyph glyph-name="acute" unicode="&#xb4;" horiz-adv-x="534" 
d="M168 1055q-8 0 -8 6l-2 2v8l-2 14v2q6 7 14 19q7 6 14 14l6 8l7 9l10 12l10 10v2h2v4l2 2l31 35l16 17q0 6 8 14l3 2h2v4q1 0 3 2t3 2q0 1 1 2t1 2l4 4l6 9l14 14v4l4 2v2l5 6l6 6v6q2 0 2 3v2l2 2l12 14q6 3 6 6v2q2 0 4 2h2l2 -2l4 2h5l12 -14v-2l-2 -4v-11l-2 -2
q-10 -20 -33 -47v-2l-6 -8l-19 -20l-6 -7l-8 -10l-4 -6l-4 -6q-13 -13 -20 -21.5t-8 -10.5l-1 -3q0 -2 -2 -2l-4 -2v-2q0 -2 -2 -2l-10 -10l-25 -29q0 -4 -2 -6l-4 -2l-2 -2q0 -2 -2 -2q-3 -6 -14 -17l-23 -22q0 -2 -2 -2h-4q0 -2 -2 -2z" />
    <glyph glyph-name="cedilla" unicode="&#xb8;" horiz-adv-x="555" 
d="M252 -383h-39q-8 0 -14 2q-7 0 -9 2h-8q-28 9 -53 25l-23 14l-8 4q-2 0 -2 2v2l-4 2h-8v2l12 11h2q19 0 25 -2h2q2 0 2 -3v3h4q2 0 2 -3h2l4 -2l2 -2q74 -26 127 -26h27l4 2q2 1 5.5 2t4.5 2q12 2 25 8l6 4l10 4h2q18 9 31 25q10 10 12 16q9 18 6 41q0 24 -14 49
q-6 26 -41 41q-4 0 -10 2q-4 0 -13 1t-10 1h-32q-9 0 -33 -4h-17q-6 -2 -20 -2q-35 0 -41 15q-5 5 -2 14l10 16q4 8 4 11l2 4l4 6l2 2q2 4 27 39l19 30q1 6 9 19t13 18q7 8 15 22.5t8 16.5l4 4v2l8 9v2h2q12 0 14 -4v-3q4 -2 4 -4v-6q-2 -6 -2 -16q0 -5 -1 -10t-1 -7
l-41 -69l-47 -80h-2v-4q-2 0 -2 -4h2q1 0 4.5 1t5.5 1q4 2 11 2q40 6 71 6q67 0 103 -25q31 -19 43 -81q2 -2 2 -7v-14q-4 -28 -10 -37l-11 -8l-4 -6l-2 -4h-2q-19 -19 -29 -25l-8 -6h-2q-7 -6 -29 -14q-27 -11 -61 -21l-8 -2l-14 -2h-5q-2 -2 -6 -2q-10 0 -16 -2z" />
    <glyph glyph-name="guillemotright" unicode="&#xbb;" horiz-adv-x="737" 
d="M373 14l-8 -8h-3q-7 18 3 41l2 2v4l2 2v2l2 2q2 2 2 4q23 76 67 152l9 16q3 8 8 13l4 8q14 19 14 33l21 47q8 13 8 20q7 16 10 49q2 10 2 39l-4 41l-2 2v6l-2 5l-4 12v6l-6 16h-2l-2 7q-6 17 -37 73l-13 25l-4 2v2q0 2 -2 4v4q-13 21 -26 53l-2 4l-17 35l-20 54v2l-2 2v6
l-2 2v8l-2 12v2l-2 2v2q7 7 12 7q9 0 12 -11h2l2 -2l2 -2q0 -2 2 -2l9 -10q8 -8 18 -23l33 -63l14 -33l18 -35q3 -3 13 -18l4 -8q29 -58 35 -64q0 -1 1 -2t1 -2v-4l2 -2q2 -2 2 -4q24 -57 26 -94q0 -24 -6 -54v-2q-2 -2 -2 -12v-2q0 -11 -6 -29l-4 -6q0 -4 -2 -8v-4l-10 -25
q-1 -2 -2 -5.5t-2 -4.5l-4 -8l-3 -2h-2q0 -7 -12 -31l-45 -80q0 -8 -10 -18v-2l-4 -10l-4 -7q0 -1 -1 -3t-1 -3q-7 -14 -9 -22q0 -2 -2 -4q0 -1 -1 -4t-1 -5v-2q-4 -4 -4 -10v-2q-4 -17 -28 -51l-19 -23l-8 -6h-2q-2 -2 -6 2zM182 31l-6 -4l-14 24v2q0 9 4 21q0 3 1 7.5
t1 6.5l2 6v2l4 8v2l2 5v4q24 71 74 157v2l4 9q7 17 18 28l17 25l2 4q4 4 4 6q9 12 12 27l6 22q2 8 2 23v14q-2 0 -2 2v2l2 2q-2 4 -2 13q-2 0 -2 2v4q-3 22 -24 65l-13 29l-2 2q-4 4 -4 10l-12 27l-18 41q-7 7 -13 22l-10 19q-1 8 -18 41q-2 5 -5 10l-4.5 7.5t-1.5 4.5t-2 4
l-4 4v2l-4 9v4l-2 2l-6 18v2l-2 4v2q3 7 8 9h2q2 0 6 -4q9 -4 11 -9h2q0 -1 1 -2.5t2.5 -3.5t2.5 -4q5 -2 19.5 -17.5t17.5 -23.5l12 -22q10 -14 33 -58l39 -80l6 -12q10 -15 10 -18l24 -64v-4l3 -2q0 -2 2 -4v-2q9 -42 0 -78q-5 -14 -17 -29q0 -4 -2 -8v-2l-8 -12
q0 -4 -4 -4l-2 -2v-4q-6 -6 -10 -17l-5 -6h-2l-8 -16q-16 -20 -24 -41l-6 -10l-5 -9q0 -2 -2 -6l-4 -4v-2l-14 -29v-2q-4 -8 -4 -10v-2q-4 -4 -4 -12v-2q-2 -2 -17 -37l-10 -25q-6 -8 -10 -24l-6 -13q0 -4 -4 -8l-4 -6q0 -2 -5 -2h-2l-4 -8q-2 0 -2 -2v-2z" />
    <glyph glyph-name="circumflex" unicode="&#x2c6;" horiz-adv-x="622" 
d="M121 1079l-8 4q-2 0 -2 2q0 3 2 5q0 4 2 6h-2v2l2 2l2 4q0 19 10 29l31 47q4 4 4 8l26 41l7 10l6 12l8 11l18 34l4 4q0 3 2 5q20 28 46 38q3 3 12 3q2 2 12 2h6q2 2 8 2q5 0 7 -2l6 -2h2l20 -11h2l-2 -2q6 -3 13 -10l30 -33q6 0 6 -8l5 -2l12 -16l18 -25l8 -10l11 -10
l24 -37q7 -7 15 -23l20 -37l6 -12q2 -2 2 -4t-2 -4l2 -8h2v-4h2l2 -7q0 -2 -2 -2q-6 2 -16 2q-8 0 -12 2h-2l-11 7l-8 10l-6 8v2l-4 6h-2l-2 4q0 2 -2 2t-2 2t-2 4l-2 3q-8 9 -26.5 33l-29.5 38q-27 42 -45 60l-2 2v2q-2 2 -2 4l-4 4l-8 6v2q-4 6 -6 8l-13 15v2l-4 4h-2
l-10 8q0 2 -4 2q-3 0 -10 -10q-2 -2 -2 -4v-2l-2 -2h-2l-2 -2v-5l-2 -2l-3 -2h-2l-8 -16l-30 -53q0 -2 -1.5 -4t-3 -5t-2.5 -4t-2 -3l-1.5 -3t-0.5 -2h-2v-2l-4 -4l-2 -2q-6 -11 -17.5 -27l-19.5 -26.5t-10 -12.5l-27 -30l-6 -6l-2 -4h-4l-8 -9z" />
    <glyph glyph-name="ring" unicode="&#x2da;" horiz-adv-x="632" 
d="M307 1008q-8 0 -14 2q-9 0 -17 2q-3 1 -22 10l-8 4l-4 2q-16 8 -27 19v-3l-2 3l-8 10q-52 68 -66 131q-2 4 -2 24q0 4 -1 13t-1 14v4q0 8 2 14q9 57 27 95q9 27 26 47q30 35 54 51l4 4q-4 -2 -15 -2h-4l-2 2l-20 -4l-2 2v2l16 12l41 7h17q0 2 2 2h4l4 4h2q6 0 6 -4v-2
q45 -12 93.5 -44.5t80.5 -78.5l4 -2v-2l10 -27l9 -23q2 -10 2 -28q3 -38 0 -68l-7 -31q-15 -53 -34 -77q-32 -40 -66 -58q-38 -23 -82 -26zM231 1081l9 -8q43 -37 88 -37q17 0 26 6q36 16 64 56l10 18l14 33l4 10l3 6v6l4 43q0 3 2 7v4q0 2 2 2q-6 24 -6 37q-5 34 -23 75
l-6 15l-6 10l-6 10q-4 4 -4 6q-16 20 -27 31q-13 9 -17 10l-10 6q-44 23 -63 23l-13 2h-4l-32 -39q-33 -44 -45 -80q-17 -56 -17 -100q0 -23 6 -47q17 -62 41 -96z" />
    <glyph glyph-name="tilde" unicode="&#x2dc;" horiz-adv-x="659" 
d="M457 1581l-27 -6q-8 0 -14 2l-35 6q-19 6 -35 16l-31 21h-6l-4 2v2l-4 6l-8 6l-4 4q-1 0 -2 1t-2 1q-7 7 -11 7l-2 2l-4 4q-28 16 -43 18q-10 0 -16 -2h-6l-29 -16l-14 -17l-25 -30l-2 -4l-4 -5q0 -2 -2 -4l-10 -10v-4h-2l-11 2l-2 2v4q0 6 2 8l-2 2l2 5v2q2 0 2 2l7 22
q1 2 2 5l1.5 4.5t0.5 2.5q24 27 41 37q19 13 51 19q8 2 20 2q27 -4 54 -12h2l2 -2q1 0 4 -3h2l67 -45l9 -6q8 -8 20 -14v-2q2 0 4 -2h4q5 0 9 -4q2 0 4 -2l6 -2h2l14 -4h4q4 0 6 2q2 0 5 1t4 1q16 10 26 22l6 6v4l11 11l4 6l6 10v2l4 6q2 0 2 4q0 1 1 3t1 3l14 27v2q2 0 2 6
v2q2 0 2 4v2q2 0 2 3q0 2 3 2h4l4 4h2l24 -9v-2l2 -16v-2l-4 -4v-2h2q2 -2 0 -2l-2 -2v-2q-20 -47 -71 -92l-2 -3l-15 -10q-11 -8 -22 -8z" />
    <glyph glyph-name="uni2000" unicode="&#x2000;" horiz-adv-x="892" 
 />
    <glyph glyph-name="uni2001" unicode="&#x2001;" horiz-adv-x="1784" 
 />
    <glyph glyph-name="uni2002" unicode="&#x2002;" horiz-adv-x="892" 
 />
    <glyph glyph-name="uni2003" unicode="&#x2003;" horiz-adv-x="1784" 
 />
    <glyph glyph-name="uni2004" unicode="&#x2004;" horiz-adv-x="594" 
 />
    <glyph glyph-name="uni2005" unicode="&#x2005;" horiz-adv-x="446" 
 />
    <glyph glyph-name="uni2006" unicode="&#x2006;" horiz-adv-x="297" 
 />
    <glyph glyph-name="uni2007" unicode="&#x2007;" horiz-adv-x="297" 
 />
    <glyph glyph-name="uni2008" unicode="&#x2008;" horiz-adv-x="223" 
 />
    <glyph glyph-name="uni2009" unicode="&#x2009;" horiz-adv-x="356" 
 />
    <glyph glyph-name="uni200A" unicode="&#x200a;" horiz-adv-x="99" 
 />
    <glyph glyph-name="uni2010" unicode="&#x2010;" 
d="M598 580h-39q-27 0 -29 2h-122q-5 0 -9.5 0.5t-6.5 1t-3 0.5h-37q-3 0 -10.5 1t-11.5 1h-13q-3 0 -11.5 0.5t-23.5 1.5t-28 2q-8 0 -16 4l-9 2h-6l-45 4l-8 2h-12l-27 4l-2 2h-6l-2 2h-2l-4 2h-2q0 2 2 4v9q2 2 8 2v2h6q16 4 18 4h5l38 -4q21 0 31 -2q6 0 14 -1t9 -1h12
l8 -2q16 -2 30.5 -3.5t20.5 -2.5t7 -1h18q10 0 20 -2q13 0 19 -2h70l16 -2h67l9 -2q2 2 6 2q8 0 12 -2h107l4 2q19 0 39 -2h2q14 0 16 -2h10v-2h4l4 -2v-6q-3 -5 -8 -8v-2q0 -2 -6 -2q-1 0 -3 -1t-3 -1h-16q-16 -2 -111 -2z" />
    <glyph glyph-name="uni2011" unicode="&#x2011;" 
d="M598 580h-39q-27 0 -29 2h-122q-5 0 -9.5 0.5t-6.5 1t-3 0.5h-37q-3 0 -10.5 1t-11.5 1h-13q-3 0 -11.5 0.5t-23.5 1.5t-28 2q-8 0 -16 4l-9 2h-6l-45 4l-8 2h-12l-27 4l-2 2h-6l-2 2h-2l-4 2h-2q0 2 2 4v9q2 2 8 2v2h6q16 4 18 4h5l38 -4q21 0 31 -2q6 0 14 -1t9 -1h12
l8 -2q16 -2 30.5 -3.5t20.5 -2.5t7 -1h18q10 0 20 -2q13 0 19 -2h70l16 -2h67l9 -2q2 2 6 2q8 0 12 -2h107l4 2q19 0 39 -2h2q14 0 16 -2h10v-2h4l4 -2v-6q-3 -5 -8 -8v-2q0 -2 -6 -2q-1 0 -3 -1t-3 -1h-16q-16 -2 -111 -2z" />
    <glyph glyph-name="figuredash" unicode="&#x2012;" 
d="M598 580h-39q-27 0 -29 2h-122q-5 0 -9.5 0.5t-6.5 1t-3 0.5h-37q-3 0 -10.5 1t-11.5 1h-13q-3 0 -11.5 0.5t-23.5 1.5t-28 2q-8 0 -16 4l-9 2h-6l-45 4l-8 2h-12l-27 4l-2 2h-6l-2 2h-2l-4 2h-2q0 2 2 4v9q2 2 8 2v2h6q16 4 18 4h5l38 -4q21 0 31 -2q6 0 14 -1t9 -1h12
l8 -2q16 -2 30.5 -3.5t20.5 -2.5t7 -1h18q10 0 20 -2q13 0 19 -2h70l16 -2h67l9 -2q2 2 6 2q8 0 12 -2h107l4 2q19 0 39 -2h2q14 0 16 -2h10v-2h4l4 -2v-6q-3 -5 -8 -8v-2q0 -2 -6 -2q-1 0 -3 -1t-3 -1h-16q-16 -2 -111 -2z" />
    <glyph glyph-name="endash" unicode="&#x2013;" horiz-adv-x="970" 
d="M805 592h-39q-41 0 -70 2h-51q-1 0 -3 1t-3 1h-14q-3 0 -9.5 1t-9.5 1h-16q-2 0 -5 1t-5 1h-9l-45 2h-43q-4 2 -24 2q-10 2 -27 2h-72q-10 2 -34 2q-27 0 -43 -2h-27q-2 -2 -6 -2v2h-2q-6 -2 -25 -2h-22q-17 0 -25 -2q-4 0 -11.5 -1t-12.5 -1h-11l-2 -2l-2 2l-4 -2v2h-10
v2l-4 4h-2l2 2q2 0 4 2t4 2l2 2h2l23 9l49 6q24 0 57 2h6q3 0 10.5 1t10.5 1h82q57 0 100 -2q9 0 26 -1t23 -1h35q4 0 6 -2h21q12 0 16 -2h8q11 0 21 -2q16 -2 51 -2h16q3 0 6 -3h52q18 0 41 -2h24q0 -2 6 -2h2v-2l4 -2h4l3 -2q0 -1 -3 -4q-3 -5 -8 -8q-2 -2 -6 -2h-10z" />
    <glyph glyph-name="emdash" unicode="&#x2014;" horiz-adv-x="1163" 
d="M1030 580h-22q-54 0 -97 2q-8 0 -30 1t-35 1h-15q-2 2 -10 2h-22q-4 2 -15 2q-23 0 -47 4h-22q-2 2 -31 2q-4 0 -14 1t-17 1h-30q-10 2 -31 2h-8q-28 4 -60 4h-26l-21 2h-49q-6 0 -23 1t-26 1t-28 -1t-29 -1l-33 -2h-15q-5 0 -15.5 -1t-14.5 -1q-27 0 -29 -2h-2
q-10 0 -18 -2h-15q-10 0 -30 -4h-19q-2 0 -4 -2h-2l-2 2q-2 0 -4 -2h-2l-2 2h-4l-2 4v2h2l6 4h2l4 2q12 6 18 6l13 4l61 9q3 0 15 1t20 1q12 2 41 2q20 2 37 2h110q64 0 105 -2q20 0 30 -2h19l49 -4h49q3 -3 6 -3h29q5 0 12 -1t8 -1q7 0 11 -2q16 0 30 -2l68 -4h35l4 -2
q23 0 33 -2h14q6 0 8 2h29l31 -4h39q1 -1 3 -2q3 -1 3 -2l4 -2h8v-2l-6 -6q-4 -4 -6 -4q-4 -2 -11 -2h-8q-2 0 -4 -2z" />
    <glyph glyph-name="quoteleft" unicode="&#x2018;" horiz-adv-x="346" 
d="M170 1229h2v-2q1 0 3 -1t3 -1l15 -8v-3l4 -6v-16l-4 -78q0 -1 1 -3.5t1 -4.5q0 -18 -5 -21v-28v-1q0 -1 -0.5 -3t-0.5 -5.5v-10t1 -15.5q0 -4 1.5 -13t1.5 -14q2 -12 2 -39h2v-41h2v-2l-2 -6q0 -1 1 -7.5t1 -12.5q0 -3 1 -14t1 -19v-10l2 -6v-9q0 -18 -2 -30v-33l-2 -4
v-6h-2v-4h-2l-2 -4v-3h-3q0 -2 -6 -2h-10l-4 5h-2v2q0 2 -2 4l-14 14q-2 2 -2 31q-3 6 -3 18v19q0 16 -2 18v20q-2 10 -2 25v6l-2 2v2q0 9 -2 19q0 28 -2 51q-2 2 0 35l-2 6v2q-2 4 -2 16v2q2 2 2 7v26q0 10 2 14q2 10 2 35v11q2 2 2 10q3 8 0 16v15q0 10 6 28q7 14 7 15v2
l4 2l2 4l4 -2l2 2v2z" />
    <glyph glyph-name="quoteright" unicode="&#x2019;" horiz-adv-x="346" 
d="M166 743h-2v2q-1 0 -3 1.5t-3 1.5l-15 8v2l-4 6v16l4 78q0 1 -1 3.5t-1 4.5q0 18 4 21v28v35q0 4 -1 13t-1 14q-2 12 -2 39h-2v41h-2v2l2 6q0 1 -1 7.5t-1 12.5q0 3 -1 14t-1 19v10l-2 7v8q0 19 2 31v32l2 4v7h2v4h2l2 4v2h2q0 2 7 2h10l4 -4h2v-2q0 -2 2 -4l14 -15
q2 -2 2 -30q2 -4 2 -19v-18q0 -17 2 -19v-20q3 -15 3 -25v-6l2 -2v-2q0 -9 2 -19q0 -28 2 -51q2 -2 0 -35l2 -6v-2q2 -4 2 -16v-2q-2 -2 -2 -6v-27q0 -10 -2 -14q-2 -10 -2 -35v-10q-2 -2 -2 -11q-3 -8 0 -16v-14q0 -8 -7 -29q-6 -12 -6 -14v-2l-4 -2l-2 -4l-4 2l-2 -2v-3z
" />
    <glyph glyph-name="quotesinglbase" unicode="&#x201a;" horiz-adv-x="393" 
d="M207 -297l-6 -2q-2 0 -6 4q-14 7 -15 8l-4 6v17l4 78q0 6 -2 8q0 16 4 22v29q2 0 0 33q0 4 -1 13.5t-1 14.5q-2 12 -2 37l-2 2v41h-2v2l2 4q0 1 -1 8t-1 13q0 4 -1 15.5t-1 17.5v10l-2 6v8q0 19 2 31v35l2 2v6h2v4h2l2 6h2q0 2 6 2h11l4 -4h2v-2l16 -16q2 -2 2 -33
q2 -4 2 -18v-19q0 -14 2 -16v-2q0 -11 2 -19v-30l2 -2v-5q0 -8 2 -16q0 -5 1.5 -21.5t1.5 -29.5q4 -4 0 -37l2 -4v-4q2 -4 2 -17v-2q-2 -2 -2 -6v-24q0 -13 -2 -17q-3 -15 -3 -35v-8q0 -2 -1 -5.5t-1 -6.5q-3 -8 0 -14v-17q0 -10 -6 -28q-6 -12 -6 -15l-4 -4l-2 -2h-4z" />
    <glyph glyph-name="quotedblleft" unicode="&#x201c;" horiz-adv-x="550" 
d="M174 772q-10 0 -16 4l-8 12v7h-3v4q-3 19 -6 78v16q-4 4 0 8v39q0 29 -2 41q0 7 -1 23t-1 26v4q-3 3 0 8q-2 2 -2 9v26q0 24 -2 51v23q0 19 2 31q0 12 2 16v19l2 2v4q0 2 2 2v2q0 2 2 2l2 6h2q2 2 9 2h6l2 -2q6 0 6 -4h2v-2l14 -15v-2q0 -14 2 -30v-56l1 -6q1 -7 1 -12
v-35q3 -9 3 -37q2 -4 2 -12v-31q0 -8 -2 -16l4 -4v-4q3 -6 0 -15v-47q-3 -17 0 -33v-2q0 -1 1 -3t1 -3q0 -5 -2 -6v-4q0 -10 2 -14v-2q0 -1 1 -3t1 -3q2 -2 2 -9q0 -14 -2 -26l-4 -15q-2 -2 -2 -6h-7l-2 -4q-4 -2 -12 -2zM369 780l-4 -6l-25 6h-2q-6 6 -6 15h-2v6
q-4 20 -4 78v28q0 11 2 15v8q0 4 2 6v63q0 13 2 19v20q-2 0 -2 4v2l2 3v10l2 2v22q2 2 2 25q0 3 1 11.5t1 12.5v17q0 4 2 4v2q0 3 1 10t1 13q2 2 2 6q0 10 4 22q0 4 1 9t1 6v2q0 2 2 2v2q0 2 2 2q10 10 15 10q4 0 4 -4l4 -2l2 -2h2v-2l2 -2l12 -17v-30q0 -13 -2 -21
q0 -3 -1 -8.5t-1 -7.5v-37q0 -4 -1 -14t-1 -11v-49q0 -7 -1 -15t-1 -9l-4 -31q0 -2 2 -4v-4q3 -6 0 -15v-6l-2 -2v-18l-2 -6q3 -6 0 -15q-3 -16 0 -31v-14l-2 -4v-16q0 -1 1 -2t1 -2v-5l2 -2q3 -8 0 -22q0 -4 -2 -6v-6l-4 -9q0 -2 -2 -4q0 -2 -6 -2z" />
    <glyph glyph-name="quotedblright" unicode="&#x201d;" horiz-adv-x="552" 
d="M354 1237q11 0 17 -4l8 -12v-7h2v-4q3 -19 6 -77v-17q4 -4 0 -8v-39q0 -29 2 -41q0 -6 1 -23t1 -26v-4q3 -3 0 -8q2 -2 2 -9v-26q0 -24 2 -51v-23q0 -19 -2 -31q0 -12 -2 -16v-18l-2 -2v-5q0 -2 -2 -2v-2q0 -2 -2 -2l-2 -6h-2q-2 -2 -8 -2h-6l-2 2q-7 0 -7 4h-2v2l-14 15
v2q0 14 -2 30v56l-1 7q-1 6 -1 11v35q-2 6 -2 37q-2 4 -2 12v31q0 8 2 16l-4 4v4q-3 6 0 15v47q3 16 0 33v2q0 1 -1 3t-1 3q0 5 2 6v4q0 10 -2 14v2q0 1 -1 3.5t-1 3.5q-2 2 -2 8q0 14 2 26l4 15q2 2 2 6h6l2 4q4 2 12 2zM160 1229l4 6l24 -6h2q7 -7 7 -15h2v-6q4 -20 4 -78
v-28q0 -11 -2 -15v-8q0 -4 -2 -6v-63q0 -13 -2 -19v-20q2 0 2 -4v-2l-2 -2v-11l-2 -2v-22q-2 -2 -2 -25q0 -3 -1.5 -11.5t-1.5 -12.5v-17q0 -4 -2 -4v-2q0 -2 -1 -9t-1 -13q-2 -2 -2 -7q0 -10 -4 -22q0 -3 -1 -8t-1 -6v-3q0 -2 -2 -2v-2q0 -2 -2 -2q-10 -10 -14 -10t-4 4
l-4 2l-2 2h-3v2l-2 2l-12 17v30q0 13 2 21q0 3 1 8.5t1 7.5v37q0 4 1 13.5t1 11.5v49q0 7 1 15.5t1 9.5l4 30q0 2 -2 4v4q-3 6 0 15v6l2 2v18l2 7q-3 6 0 14q3 16 0 31v14l3 4v16q0 1 -1.5 2.5t-1.5 2.5v4l-2 2q-3 8 0 22q0 4 2 6v6l5 9q0 2 2 4q0 2 6 2z" />
    <glyph glyph-name="quotedblbase" unicode="&#x201e;" horiz-adv-x="575" 
d="M205 -289q-9 0 -17 4v2l-8 13v4h-2v6q-2 6 -6 78v16q-2 1 -2 8q2 2 2 4v35q0 7 -1 20.5t-1 20.5q-2 14 -2 49q0 1 -1 2t-1 2q0 6 2 7v2q-2 2 -2 8v26q0 25 -2 52v22q0 19 2 31v16q0 3 1 8.5t1 8.5l2 4v6h2v4h2l2 4v2h2q0 2 6 2h9l2 -2q2 0 6 -4h2v-4l14 -12v-2
q0 -15 2 -31v-74q2 -10 2 -24v-11q2 -6 2 -37v-12q2 -14 0 -31v-16q0 -4 4 -4v-4q3 -6 0 -14v-33q0 -2 -2 -2q2 -2 2 -13q-3 -16 0 -32v-2q0 -5 2 -7q0 -4 -2 -6v-4q0 -10 2 -16q0 -4 2 -6q0 -1 1 -3.5t1 -4.5q0 -15 -2 -27l-4 -14q-2 -2 -2 -7q0 -2 -2 -2h-4l-2 -2v-2
q-1 0 -5 -1t-7 -1zM393 -287l-24 6v2q-7 5 -7 13h-2v8q-4 20 -4 78v41q0 2 1 5.5t1 4.5v6l2 6v76q0 3 1 8t1 6l-2 4v9h2v12h3v22q0 13 2 27q0 15 2 25v20l2 2q0 13 2 23q0 4 2 6q0 14 2 22q4 12 4 15v4h2v4h2q4 8 14 8q4 0 4 -4h3l4 -2h2v-4h2v-2l12 -17v-28q0 -3 -1 -10
t-1 -11q-2 -6 -2 -16v-37q-2 -10 -2 -25v-2l-2 -2l2 -2v-2q0 -29 -2 -43v-22l-4 -31q0 -4 2 -4v-4q3 -6 0 -14l-2 -7v-20l-2 -6v-2v-3q1 -2 1 -4.5t-1 -5.5q-3 -15 0 -30v-15l-2 -4v-20q2 -2 2 -6h2v-2q2 -4 -2 -21v-6l-2 -6q0 -6 -2 -8q0 -2 -2 -4q0 -5 -7 -5h-2l-2 -4
q0 -2 -2 -2z" />
    <glyph glyph-name="ellipsis" unicode="&#x2026;" horiz-adv-x="1658" 
d="M795 -8h-37q-15 2 -39 14v2l-6 6l-6 9q-2 4 -2 8l-3 6v6l7 23l-2 2l4 6q23 34 53 53l18 6l2 2h9q4 0 8 2q2 0 6 1t6 1t4.5 1t3.5 1q2 1 4.5 2t3.5 1.5t2 0.5q10 0 23 -8q16 -2 20 -6h5l2 -2h2l6 -4h2v-10h-2q17 -19 19.5 -42t-9.5 -42v-2q-9 -9 -10 -9l-8 -4l-7 -4
q-2 0 -4 -2q-2 0 -4.5 -1t-3.5 -1l-18 -8q-4 0 -8 -2q-5 0 -7 -2h-8q-20 -4 -26 -4zM1405 -10q-11 0 -39 4h-2q-6 0 -8 4h-13q-2 0 -2 2l-4 2h-2l-16 8q-2 0 -2 2l-4 6q-6 34 28 64q8 8 23 14l2 2h2q2 0 4 2h4q8 2 25 2h12l-2 4v3l4 4l8 6h2q5 0 9 -2h4l2 -2h4l2 -2h2
q50 -16 88 -64v-4q0 -8 -2 -12l-2 -4l-6 -9v-2l-10 -6l-23 -10q-6 0 -12 -2l-35 -8h-10q-5 0 -15.5 -1t-15.5 -1zM207 2h-14q-1 0 -3.5 1t-3.5 1h-8l-18 10v-2h-2l-6 4q-32 25 -29 58l10 16q0 2 2 2l2 2q2 0 2 2l29 15l14 4h13l-7 2v2h-6q-2 0 -2 2q-2 2 -2 4h-8l-2 2l4 6v2
q4 4 8 4q2 2 8 2h15l2 -2q0 2 2 2h2l2 -2h4q53 -10 80 -47h2v-2q2 -6 2 -10q2 -6 2 -10l-4 -9q-2 -8 -10 -20l-8 -8l-21 -17v-2q-24 -12 -51 -12zM758 63v-24q0 -10 4 -10v-2q8 -8 24 -11q5 0 9 2h14q2 2 6 2h4l19 7l4 2h2v-2l2 2l8 6v2q11 5 14 18v4l-2 2v2l-2 5l-4 4
l-12 24q-3 6 -10 13l-9 6h-2q-18 0 -36 -6q-9 -3 -15 -9q-15 -15 -18 -37zM1360 43l-2 -4q4 -5 16 -12.5t23 -8.5q12 -2 39 -2l8 2q6 0 8 2h6q0 3 2 3h6l2 2l15 6l4 2l2 2h2l-2 2l-2 2h-2v-2h-2v8q-3 7 -13 10v2l-4 4h-2l-6 5q-3 -3 -4 -3h-22q-1 0 -2.5 1t-3.5 2t-5 2
q-8 8 -18 8q-2 2 -6 2q-13 0 -19 -6v-2q-9 -4 -16 -15q-2 -3 -3 -6t-0.5 -4.5t1.5 -1.5zM178 53l4 -4q23 -20 37 -20h2q11 3 17 10l2 2v4l2 4v2h2v4q2 0 2 6v2q-2 0 -2 5v16l-4 8l-7 4q-1 0 -3 1t-3 1l-2 2l-6 -2h-2v-2h-2q-6 0 -8 -2l-6 -2q-21 -4 -23 -6q-8 -9 -6 -16h2
l2 -2v-7q0 -8 2 -8z" />
    <glyph glyph-name="uni202F" unicode="&#x202f;" horiz-adv-x="356" 
 />
    <glyph glyph-name="guilsinglleft" unicode="&#x2039;" horiz-adv-x="522" 
d="M342 6l-6 2q-5 0 -10 8l-4 7v2l-5 4v4h-2l-2 2v2l-88 168l-2 2q-5 15 -12 22q0 3 -4 11l-6 8l-11 22l-22 52q0 1 -1 3.5t-1 4.5q-6 6 -6 14q-4 16 -25 51q-12 30 -12 43q0 20 14 51v5l2 6l6 6l9 16l2 6v2q0 2 2 2l2 3l16 32l43 72l33 53l14 23q8 12 8 14l2 4l5 4l2 4v2
l41 62q11 9 26 39l12 18l3 2q0 2 2 2l8 8h4q12 -2 12 -6v-6q2 0 2 -2v-4q-2 -4 -2 -12q-1 -2 -1.5 -5t-1 -5t-1.5 -3l-31 -53v-2q-44 -66 -51 -74l-22 -40q-46 -73 -56 -97l-6 -10q0 -2 -4 -6l-2 -4q-33 -76 -33 -99q0 -10 2 -16q0 -4 2 -6v-4q0 -1 1 -3t1 -3h5l8 -23l2 -16
l2 -2h2q0 -5 4 -13l12 -22v-10h2q2 -2 0 -2v-2l15 -29q6 -15 20 -42.5l16 -31.5l9 -14q2 0 2 -2v-4l4 -6q3 -3 6 -11l2 -8l18 -37l9 -12l6 -8l4 -4q17 -29 26 -56q4 -23 7 -26q2 -2 2 -10q0 -1 -4 -5h-2v-10h-7q-2 0 -7.5 -1t-8.5 -1z" />
    <glyph glyph-name="guilsinglright" unicode="&#x203a;" horiz-adv-x="421" 
d="M127 14l-8 -8h-2q-8 19 2 41l2 2v4l2 2v2l2 2q2 2 2 4q22 73 68 152l8 16q3 8 8 13l4 8q14 19 14 33l21 47q8 13 8 20q7 16 10 49q2 10 2 39l-4 41l-2 2v6l-2 5l-4 12v6l-6 16h-2l-2 7q-6 17 -37 73l-12 25l-4 2v2q0 2 -2 4v4q-16 26 -27 53l-2 4l-17 35l-20 54v2l-2 2v6
l-2 2v8l-2 12v2l-2 2v2q7 7 12 7q9 0 12 -11h2l2 -2l3 -2q0 -2 2 -2l8 -10q8 -8 18 -23l33 -63l14 -33l19 -35l12 -18l4 -8q29 -58 35 -64q0 -1 1 -2t1 -2v-4l2 -2q2 -2 2 -4q25 -60 27 -94q0 -24 -6 -54v-2q-3 -3 -3 -12v-2q0 -11 -6 -29l-4 -6q0 -4 -2 -8v-4l-10 -25
q-1 -2 -2 -5.5t-2 -4.5l-4 -8l-2 -2h-2q0 -5 -13 -31l-45 -80q0 -8 -10 -18v-2l-4 -10l-4 -7q0 -1 -1 -3t-1 -3q-5 -10 -8 -22q0 -2 -2 -4q0 -1 -1 -4t-1 -5v-2q-5 -5 -5 -10v-2q-4 -17 -28 -51l-19 -23l-8 -6h-2q-2 -2 -6 2z" />
    <glyph glyph-name="uni205F" unicode="&#x205f;" horiz-adv-x="446" 
 />
    <glyph glyph-name="Euro" unicode="&#x20ac;" horiz-adv-x="978" 
d="M651 -4q-37 0 -55 2q-118 9 -209 51l-8 4q-36 26 -70 60l-30 37q-46 66 -62 102q-12 22 -24 55q-35 100 -48 158q-12 72 -18 131q-6 2 -18 2q-3 0 -11 1t-12 1q-26 3 -29 6h-4l-2 2h-4q-2 0 -2 2q-4 0 -4 2q-2 0 -2 2v7l2 2h12l6 2q8 2 15 2l14 -2q10 -2 25 -2h6
q1 0 3 -1t3 -1v16q0 13 -1 36t-1 36q0 61 6 122q0 13 2 19q0 16 2 18q0 25 6 37q-16 0 -28 2q-4 0 -15 1t-16 1q-8 2 -19 2q-2 0 -2 2h-10l-6 2l-2 3q-2 0 -2 4v2l2 2q2 2 8 2h4l19 6h2q18 0 41 -2q6 -2 26 -2q6 30 6 33q0 2 1.5 7t1.5 7q2 2 2 4q0 6 4 14q2 14 16 76l8 27
q59 157 111 239q45 54 51 60l6 8q14 13 21 16q80 57 145 82q44 16 88 19q3 0 10.5 1t10.5 1q52 0 92 -15l4 -2q4 0 6 -2q1 0 3 -1t3 -1l25 -12l22 -16l2 -5l4 -2l2 -12v-2h-2l-2 2q-2 0 -10 4l-16 8q-2 2 -6 2l-9 5h-2q-53 18 -71 20q-32 4 -47 4q-53 0 -105 -22
q-81 -33 -156 -111q-22 -26 -43 -66q-51 -89 -81 -194l-9 -25l-6 -26l-20 -127q27 -2 47 -2h61q9 0 22.5 -1t16.5 -1h25q2 0 7 -1t7 -1q3 0 7 1t5 1h27q1 0 3 -1t3 -1l2 2h27l4 -2h113q2 0 6 1t6 1h6q19 0 37 -2h18q4 0 6 -2q2 0 2 -2h5q2 0 2 -3h2q0 -4 -2 -6l-4 -6
q-2 -2 -13 -2h-8v-2h-8q-52 0 -109 -2h-55q-6 2 -14 2h-174q-10 2 -21 2h-6q-30 0 -57 2q-17 -163 -17 -209q0 -48 2 -73h2q48 0 60 2h14l90 8q20 0 45 2q4 0 8 2h5q6 2 18 2h14q17 0 23 2h2q4 0 6 -2q4 2 20 2q14 -2 46 -2h14q10 0 10 -2h23q14 0 18 -2q11 0 35 -6
q13 -3 16 -6q2 0 4.5 -1.5t3.5 -1.5q3 -3 3 -4l4 -4h2v-2l-4 -4q-3 -6 -9 -6q0 -2 -6 -2h-2l-8 2l-2 2h-8q-74 12 -101 12h-20q-6 2 -19 2h-45q-4 -2 -22 -2q-4 -2 -19 -2q-25 0 -41 -4q-14 0 -22 -2h-29q-4 -2 -12 -2q-6 0 -10 -2h-29v-2h-8q-27 0 -41 -2h-27l2 -4l7 -80
q4 -4 4 -18l6 -27q11 -32 20 -76q2 -5 4 -12t2 -8q0 -5 4 -21l5 -6q18 -48 34 -84l11 -20v-2l10 -19l26 -39q44 -60 105 -108q8 -8 18 -13l7 -4l20 -10l35 -16q57 -20 76 -23q14 -2 34 -2h35q90 12 129 35q46 32 51 35q7 7 13 10l16 18q4 4 6 4t2 -2l6 13l5 10h2
q8 -26 6.5 -32.5t-11.5 -16.5q0 -2 -2 -2q-8 -10 -22 -21l-12 -10l-9 -4l-6 -4v-2q-4 0 -8 -4q-1 -1 -3 -2l-3 -1.5t-2 -0.5v-2l-12 -9q-59 -20 -144 -20z" />
    <glyph glyph-name="trademark" unicode="&#x2122;" horiz-adv-x="878" 
d="M567 856l-12 6q-17 39 -23 58q-28 83 -34 122l-25 86v2l-2 3q-2 4 -2 12l-2 4q-8 23 -10 39q-2 4 -2 10q-2 2 -2 10l-2 4l-2 7q-3 -37 -3 -72v-115q3 -6 3 -12v-6q3 -22 0 -78v-39q-3 -9 -3 -12v-4q0 -2 -2 -2l-2 -9v-8h-2l-6 4l-6 13q-4 12 -4 24v25h-2v10q-4 70 -4 219
v41q0 10 2 12q0 21 2 27q0 17 6.5 28t17.5 11q8 0 17 -6q4 -4 8 -18t4 -21q0 -4 2 -6q17 -66 19 -72q1 -2 2 -7t2.5 -9.5t3.5 -8.5q8 -39 16 -51q16 -50 23 -86l2 -4q0 -1 1 -4.5t1 -5.5q0 -12 4 -16l8 -31v-6q0 -2 2 -4q9 -30 14 -41q2 39 33 122q2 2 13 29l6 12v7
q6 6 6 12l31 80l14 43l10 41l-2 4v4q0 12 2 22v11q2 2 2 4t4 2v2l2 2h2l2 -2l2 2q3 0 5 -2l2 -2h2q0 -4 2 -6v-9h2v-2q0 -42 2 -67v-55l2 -27v-12q2 -6 2 -17v-28l2 -7v-32h2v-2l-2 -4q2 -4 2 -23q0 -3 1 -11t1 -12v-14l2 -2v-72l-2 -4l-4 -2h-6l-2 4h-2v2l-8 13v2
q0 4 -3 22q-2 6 -2 21v14q0 1 -1 5t-1 5v6l-1 8q-1 8 -1 11v24l-2 3v4l-1 6q-1 5 -1 10q0 6 -1 20t-1 23v37q-2 4 -2 16v10l-2 -4l-14 -36l-25 -62l-18 -47q-7 -17 -23 -70l-16 -49q-6 -6 -23 -6zM236 850h-3v2h-2l-2 6v4q-3 6 0 23l2 2v10q0 6 2 12v123h-2v2l2 6
q0 2 -1 12.5t-1 18.5q-2 10 -2 33q0 1 -1 4.5t-1 5.5v23q0 23 -2 43v14q0 3 -1 7.5t-1 6.5v56h-16l-2 2h-45l-2 2h-19q-2 2 -4 2q-6 2 -10 2h-2l-2 2h-2v6h4v2q4 2 8 2t8 -2l13 -2h20q3 0 10 -1t11 -1h106v2h6l2 -2q1 0 2 1t2 1h29l2 -2h2l2 -2v-4l-4 -4h-10q-19 0 -39 -2
h-45q-4 -2 -10 -2v-2l2 -2v-3q8 -21 8 -26l6 -49q0 -23 2 -35v-21q0 -8 2 -12v-12q0 -23 2 -35v-27l2 -2v-4q0 -36 2 -65q0 -15 -2 -29v-4l2 -2v-12l-2 -4v-15l-2 -2v-8l-4 -16v-7l-2 -2l-2 -4v-4q0 -2 -2 -2l-6 -6q-2 -2 -8 -2z" />
    <glyph glyph-name="uni25FC" unicode="&#x25fc;" horiz-adv-x="1024" 
d="M0 1024h1024v-1024h-1024v1024z" />
    </font>
</defs>
</svg>
